<?xml version="1.0" encoding="utf-8"?>
<!-- Generator: Adobe Illustrator 19.2.1, SVG Export Plug-In . SVG Version: 6.00 Build 0)  -->
<svg version="1.1" id="Capa_1" xmlns="http://www.w3.org/2000/svg" xmlns:xlink="http://www.w3.org/1999/xlink" x="0px" y="0px"
	 viewBox="0 0 658.5 857.6" style="enable-background:new 0 0 658.5 857.6;" xml:space="preserve">
<style type="text/css">
	.st0{fill:#F57C00;}
	.st1{opacity:0.25;fill:#FFFFFF;enable-background:new    ;}
	.st2{fill:#FFFFFF;}
	.st3{opacity:0.9;fill:#FFFFFF;enable-background:new    ;}
	.st4{opacity:0.2;fill:#FFFFFF;enable-background:new    ;}
	.st5{opacity:0.91;fill:#FFFFFF;enable-background:new    ;}
	.st6{fill:none;stroke:#FFFFFF;stroke-miterlimit:10;}
	.st7{clip-path:url(#SVGID_2_);}
	.st8{fill:#262626;}
	.st9{fill:#2D2D2D;}
	.st10{fill:#1E1E1E;}
	.st11{fill:#5B5A5B;}
	.st12{fill:#353535;}
	.st13{fill:url(#SVGID_3_);}
	.st14{fill:url(#SVGID_4_);}
	.st15{fill:#545454;}
	.st16{fill:url(#SVGID_5_);}
	.st17{fill:url(#SVGID_6_);}
	.st18{fill:#666666;}
	.st19{fill:#494949;}
	.st20{fill:#636363;}
	.st21{opacity:0.2;enable-background:new    ;}
	.st22{opacity:0.12;enable-background:new    ;}
	.st23{opacity:0.1;enable-background:new    ;}
	.st24{opacity:7.000000e-02;enable-background:new    ;}
	.st25{fill:#282828;}
	.st26{opacity:5.000000e-02;fill:#FFFFFF;enable-background:new    ;}
	.st27{opacity:0.51;fill:#3A3A3A;enable-background:new    ;}
	.st28{fill:#3A3A3A;}
	.st29{opacity:0.25;fill:url(#SVGID_7_);enable-background:new    ;}
	.st30{opacity:0.25;fill:url(#SVGID_8_);enable-background:new    ;}
	.st31{opacity:0.25;fill:url(#SVGID_9_);enable-background:new    ;}
	.st32{opacity:0.25;fill:url(#SVGID_10_);enable-background:new    ;}
	.st33{fill:#161616;}
	.st34{fill:#686868;}
	.st35{fill:url(#SVGID_11_);}
	.st36{fill:#5B5B5B;}
	.st37{fill:#848384;}
	.st38{fill:#565656;}
	.st39{opacity:2.000000e-02;fill:#FFFFFF;enable-background:new    ;}
	.st40{fill:#7A7A7A;}
	.st41{clip-path:url(#SVGID_13_);}
	.st42{fill:url(#SVGID_14_);}
	.st43{fill:url(#SVGID_15_);}
	.st44{fill:url(#SVGID_16_);}
	.st45{fill:url(#SVGID_17_);}
	.st46{opacity:0.25;fill:url(#SVGID_18_);enable-background:new    ;}
	.st47{opacity:0.25;fill:url(#SVGID_19_);enable-background:new    ;}
	.st48{opacity:0.25;fill:url(#SVGID_20_);enable-background:new    ;}
	.st49{opacity:0.25;fill:url(#SVGID_21_);enable-background:new    ;}
	.st50{fill:url(#SVGID_22_);}
	.st51{clip-path:url(#SVGID_24_);}
	.st52{fill:#C6EBF7;}
	.st53{fill:#B4E5ED;}
	.st54{fill:#F4F4F4;}
	.st55{fill:#E6FAFC;enable-background:new    ;}
	.st56{opacity:0.8;fill:url(#SVGID_25_);enable-background:new    ;}
</style>
<g id="Rules">
</g>
<g id="_x30_1">
	<g>
		<ellipse class="st0" cx="330.4" cy="780.3" rx="204.3" ry="59.5"/>
		<ellipse class="st1" cx="328.2" cy="769.5" rx="174.7" ry="47.9"/>
		<g>
			<path class="st2" d="M155.5,759.8c-0.4,0-0.7-0.2-1-0.5c-0.4-0.5-0.3-1.3,0.2-1.8c2.1-1.7,4.6-3.4,7.3-5c0.6-0.4,1.4-0.2,1.7,0.4
				c0.4,0.6,0.2,1.4-0.4,1.7c-2.6,1.6-5,3.2-7,4.8C156.1,759.7,155.8,759.8,155.5,759.8z"/>
			<path class="st2" d="M332.7,827.8c-0.7,0-1.2-0.6-1.2-1.2c0-0.7,0.5-1.2,1.2-1.3c6,0,12-0.2,17.8-0.4c0.7,0,1.3,0.5,1.3,1.2
				s-0.5,1.3-1.2,1.3C344.8,827.6,338.7,827.8,332.7,827.8L332.7,827.8z M323.8,827.8L323.8,827.8c-6,0-12-0.2-17.9-0.4
				c-0.7,0-1.2-0.6-1.2-1.3s0.6-1.2,1.3-1.2c5.9,0.2,11.9,0.3,17.8,0.4c0.7,0,1.2,0.6,1.2,1.3C325,827.3,324.5,827.8,323.8,827.8z
				 M359.6,827.1c-0.7,0-1.2-0.5-1.2-1.2s0.5-1.3,1.2-1.3c6-0.3,12-0.7,17.8-1.1c0.7,0,1.3,0.5,1.3,1.1c0.1,0.7-0.5,1.3-1.1,1.3
				C371.6,826.4,365.6,826.8,359.6,827.1L359.6,827.1z M297,827.1C297,827.1,296.9,827.1,297,827.1c-6-0.3-12.1-0.7-17.9-1.1
				c-0.7-0.1-1.2-0.7-1.1-1.3c0.1-0.7,0.7-1.2,1.3-1.1c5.9,0.5,11.9,0.8,17.8,1.1c0.7,0,1.2,0.6,1.2,1.3
				C298.2,826.5,297.6,827.1,297,827.1z M386.3,825.2c-0.6,0-1.2-0.5-1.2-1.1c-0.1-0.7,0.4-1.3,1.1-1.4c6-0.6,12-1.2,17.7-1.9
				c0.7-0.1,1.3,0.4,1.4,1.1s-0.4,1.3-1.1,1.4c-5.8,0.7-11.8,1.4-17.8,2C386.4,825.2,386.4,825.2,386.3,825.2z M270.2,825.2h-0.1
				c-6-0.6-12-1.2-17.8-2c-0.7-0.1-1.2-0.7-1.1-1.4c0.1-0.7,0.7-1.1,1.4-1.1c5.8,0.7,11.7,1.4,17.7,2c0.7,0.1,1.2,0.7,1.1,1.4
				C271.4,824.7,270.9,825.2,270.2,825.2z M412.9,822.1c-0.6,0-1.1-0.4-1.2-1.1s0.4-1.3,1.1-1.4c6-0.9,11.9-1.9,17.6-2.9
				c0.7-0.1,1.3,0.3,1.5,1c0.1,0.7-0.3,1.3-1,1.5c-5.7,1.1-11.6,2.1-17.7,2.9C413.1,822.1,413,822.1,412.9,822.1z M243.6,822
				c-0.1,0-0.1,0-0.2,0c-6.1-0.9-12-1.9-17.7-3c-0.7-0.1-1.1-0.8-1-1.5s0.8-1.1,1.5-1c5.6,1.1,11.6,2.1,17.6,2.9
				c0.7,0.1,1.1,0.7,1.1,1.4C244.7,821.5,244.2,822,243.6,822z M439.4,817.4c-0.6,0-1.1-0.4-1.2-1c-0.1-0.7,0.3-1.3,1-1.5
				c6.1-1.3,11.9-2.7,17.3-4.2c0.6-0.2,1.3,0.2,1.5,0.9s-0.2,1.3-0.9,1.5c-5.5,1.5-11.3,2.9-17.4,4.2
				C439.5,817.4,439.4,817.4,439.4,817.4z M217.2,817.3c-0.1,0-0.2,0-0.3,0c-6.1-1.3-12-2.7-17.4-4.3c-0.7-0.2-1.1-0.9-0.9-1.5
				c0.2-0.7,0.9-1,1.5-0.9c5.4,1.5,11.2,2.9,17.3,4.2c0.7,0.1,1.1,0.8,1,1.5C218.3,816.9,217.8,817.3,217.2,817.3z M465.3,810.6
				c-0.5,0-1-0.3-1.2-0.9c-0.2-0.7,0.2-1.4,0.8-1.6c6.1-1.9,11.7-4,16.7-6.1c0.6-0.3,1.4,0,1.6,0.7c0.3,0.6,0,1.4-0.7,1.6
				c-5,2.2-10.7,4.3-16.9,6.2C465.6,810.6,465.4,810.6,465.3,810.6z M191.2,810.5c-0.1,0-0.3,0-0.4-0.1c-6.2-2-11.8-4.1-16.9-6.2
				c-0.6-0.3-0.9-1-0.6-1.6c0.3-0.6,1-0.9,1.6-0.6c5,2.2,10.6,4.2,16.6,6.2c0.7,0.2,1,0.9,0.8,1.6
				C192.3,810.1,191.8,810.5,191.2,810.5z M490.2,800.6c-0.4,0-0.9-0.2-1.1-0.7c-0.3-0.6-0.1-1.4,0.5-1.7c6-3.2,10.9-6.5,14.3-10
				c0.5-0.5,1.3-0.5,1.8,0s0.5,1.3,0,1.8c-3.6,3.6-8.6,7.1-14.9,10.4C490.6,800.6,490.4,800.6,490.2,800.6z M166.4,800.4
				c-0.2,0-0.4,0-0.6-0.1c-6.3-3.3-11.3-6.9-14.8-10.5c-0.5-0.5-0.5-1.3,0-1.8s1.3-0.5,1.8,0c3.4,3.5,8.2,6.9,14.2,10.1
				c0.6,0.3,0.8,1.1,0.5,1.7C167.3,800.2,166.9,800.4,166.4,800.4z M510,783.3c-0.2,0-0.4,0-0.5-0.1c-0.6-0.3-0.9-1-0.6-1.7
				c1-2,1.4-4.1,1.4-6.2c0-3.1-1.1-6.3-3.3-9.4c-0.4-0.6-0.3-1.3,0.3-1.7c0.6-0.4,1.3-0.3,1.7,0.3c2.5,3.5,3.8,7.2,3.8,10.8
				c0,2.4-0.6,4.9-1.7,7.2C510.9,783,510.5,783.3,510,783.3z M146.8,782.9c-0.5,0-0.9-0.3-1.1-0.7c-1-2.2-1.5-4.5-1.5-6.8
				c0-3.8,1.4-7.6,4.1-11.2c0.4-0.6,1.2-0.7,1.7-0.3c0.6,0.4,0.7,1.2,0.3,1.7c-2.4,3.2-3.6,6.5-3.6,9.7c0,1.9,0.4,3.9,1.3,5.8
				c0.3,0.6,0,1.4-0.6,1.6C147.1,782.9,147,782.9,146.8,782.9z"/>
			<path class="st2" d="M501.7,760c-0.3,0-0.6-0.1-0.8-0.3c-2-1.6-4.4-3.3-7-4.9c-0.6-0.4-0.8-1.1-0.4-1.7c0.4-0.6,1.1-0.8,1.7-0.4
				c2.7,1.6,5.2,3.3,7.3,5.1c0.5,0.4,0.6,1.2,0.2,1.8C502.4,759.8,502.1,760,501.7,760z"/>
		</g>
		<path class="st3" d="M328.2,818.1l-0.1-1.2h0.1h1.1v1.2H328.2z M324.4,818.1h-1.2v-1.2h1.2V818.1z M333.1,818v-1.2h1.2v1.2H333.1z
			 M319.4,818h-1.2v-1.2h1.2V818z M338.1,818v-1.2h1.2v1.2H338.1z M314.4,817.9h-1.2v-1.2h1.2V817.9z M343.1,817.9v-1.2h1.2v1.2
			H343.1z M309.4,817.8h-1.2v-1.2h1.2V817.8z M348.1,817.8v-1.2h1.2v1.2H348.1z M304.4,817.6h-1.2v-1.2h1.2V817.6z M353,817.6v-1.2
			h1.2l0.1,1.2H353z M299.5,817.4l-1.2-0.1l0.1-1.2l1.2,0.1L299.5,817.4z M358,817.4l-0.1-1.2l1.2-0.1l0.1,1.2L358,817.4z
			 M294.5,817.2l-1.2-0.1l0.1-1.2l1.2,0.1L294.5,817.2z M363,817.1l-0.1-1.2l1.2-0.1l0.1,1.2L363,817.1z M289.5,816.9l-1.2-0.1
			l0.1-1.2l1.2,0.1L289.5,816.9z M368,816.8l-0.1-1.2l1.2-0.1l0.1,1.2L368,816.8z M284.5,816.6l-1.2-0.1l0.1-1.2l1.2,0.1
			L284.5,816.6z M373,816.5l-0.1-1.2l1.2-0.1l0.1,1.2L373,816.5z M279.5,816.2l-1.2-0.1l0.1-1.2l1.2,0.1L279.5,816.2z M377.9,816.1
			l-0.1-1.2l1.2-0.1l0.1,1.2L377.9,816.1z M274.6,815.8l-1.2-0.1l0.1-1.2l1.2,0.1L274.6,815.8z M382.9,815.7l-0.1-1.2l1.2-0.1
			l0.1,1.2L382.9,815.7z M269.6,815.3l-1.2-0.1l0.1-1.2l1.2,0.1L269.6,815.3z M387.9,815.2l-0.1-1.2l1.2-0.1l0.1,1.2L387.9,815.2z
			 M264.6,814.8l-1.2-0.1l0.1-1.2l1.2,0.1L264.6,814.8z M392.8,814.7l-0.1-1.2l1.2-0.1l0.1,1.2L392.8,814.7z M259.7,814.2l-1.2-0.1
			l0.1-1.2l1.2,0.1L259.7,814.2z M397.8,814.1l-0.1-1.2l1.2-0.1l0.2,1.2L397.8,814.1z M254.7,813.6l-1.2-0.2l0.2-1.2l1.2,0.2
			L254.7,813.6z M402.7,813.5l-0.2-1.2l1.2-0.2l0.2,1.2L402.7,813.5z M249.8,813l-1.2-0.2l0.2-1.2l1.2,0.2L249.8,813z M407.7,812.8
			l-0.2-1.2l1.2-0.2l0.2,1.2L407.7,812.8z M244.9,812.3l-1.2-0.2l0.2-1.2l1.2,0.2L244.9,812.3z M412.6,812.1l-0.2-1.2l1.2-0.2
			l0.2,1.2L412.6,812.1z M239.9,811.5l-1.2-0.2l0.2-1.2l1.2,0.2L239.9,811.5z M417.6,811.3l-0.2-1.2l1.2-0.2l0.2,1.2L417.6,811.3z
			 M235,810.7l-1.2-0.2l0.2-1.2l1.2,0.2L235,810.7z M422.5,810.5l-0.2-1.2l1.2-0.2l0.2,1.2L422.5,810.5z M230.1,809.8l-1.2-0.2
			l0.2-1.2l1.2,0.2L230.1,809.8z M427.4,809.6l-0.2-1.2l1.2-0.2l0.2,1.2L427.4,809.6z M225.2,808.9l-1.2-0.2l0.2-1.2l1.2,0.2
			L225.2,808.9z M432.3,808.6l-0.2-1.2l1.2-0.2l0.3,1.2L432.3,808.6z M220.3,807.8l-1.2-0.3l0.3-1.2l1.2,0.3L220.3,807.8z
			 M437.2,807.6l-0.3-1.2l1.2-0.3l0.3,1.2L437.2,807.6z M215.4,806.8l-1.2-0.3l0.3-1.2l1.2,0.3L215.4,806.8z M442,806.5l-0.3-1.2
			l1.2-0.3l0.3,1.2L442,806.5z M210.6,805.6l-1.2-0.3l0.3-1.2l1.2,0.3L210.6,805.6z M446.9,805.3l-0.3-1.2l1.2-0.3l0.3,1.2
			L446.9,805.3z M205.7,804.3l-1.2-0.3l0.3-1.2l1.2,0.3L205.7,804.3z M451.7,804.1l-0.3-1.2l1.2-0.3l0.3,1.2L451.7,804.1z
			 M200.9,803l-1.2-0.4l0.4-1.2l1.2,0.4L200.9,803z M456.5,802.7l-0.4-1.2l1.2-0.4l0.4,1.2L456.5,802.7z M196.1,801.5l-1.2-0.4
			l0.4-1.2l1.2,0.4L196.1,801.5z M461.3,801.2l-0.4-1.2l1.2-0.4l0.4,1.2L461.3,801.2z M191.4,800l-1.2-0.4l0.4-1.2l1.2,0.4
			L191.4,800z M466,799.6l-0.4-1.2l1.2-0.4l0.4,1.2L466,799.6z M186.7,798.3l-1.2-0.4l0.4-1.2l1.2,0.4L186.7,798.3z M470.7,797.9
			l-0.4-1.2c0.4-0.1,0.8-0.3,1.2-0.4l0.5,1.2C471.5,797.6,471.1,797.7,470.7,797.9z M182,796.4l-1.2-0.5l0.5-1.1l1.1,0.5L182,796.4z
			 M475.4,796l-0.5-1.1c0.4-0.2,0.8-0.3,1.1-0.5l0.5,1.1C476.1,795.7,475.8,795.9,475.4,796z M177.5,794.4c-0.4-0.2-0.8-0.4-1.1-0.5
			l0.5-1.1c0.4,0.2,0.7,0.4,1.1,0.5L177.5,794.4z M479.9,794l-0.5-1.1c0.4-0.2,0.7-0.4,1.1-0.5l0.5,1.1
			C480.7,793.6,480.3,793.8,479.9,794z M173,792.2c-0.4-0.2-0.7-0.4-1.1-0.6l0.6-1.1c0.4,0.2,0.7,0.4,1.1,0.6L173,792.2z
			 M484.4,791.7l-0.6-1.1c0.4-0.2,0.7-0.4,1.1-0.6l0.6,1.1C485.1,791.3,484.8,791.5,484.4,791.7z M168.6,789.7
			c-0.4-0.2-0.7-0.4-1.1-0.7l0.7-1.1c0.3,0.2,0.7,0.4,1,0.6L168.6,789.7z M488.7,789.2l-0.7-1.1c0.4-0.2,0.7-0.4,1-0.7l0.7,1
			C489.5,788.7,489.1,788.9,488.7,789.2z M164.4,787c-0.3-0.3-0.7-0.5-1-0.8l0.8-1c0.3,0.2,0.7,0.5,1,0.7L164.4,787z M492.9,786.3
			l-0.8-1c0.3-0.3,0.7-0.5,1-0.8l0.8,1C493.6,785.8,493.2,786.1,492.9,786.3z M160.5,783.8c-0.3-0.3-0.6-0.6-0.9-0.9l0.9-0.9
			c0.3,0.3,0.6,0.6,0.9,0.8L160.5,783.8z M496.7,783l-0.9-0.9c0.3-0.3,0.6-0.6,0.9-0.9l0.9,0.9C497.3,782.4,497,782.7,496.7,783z
			 M157,780.1c-0.3-0.3-0.5-0.7-0.8-1l1-0.7c0.2,0.3,0.5,0.6,0.7,1L157,780.1z M500.1,779.2l-1-0.7c0.2-0.3,0.5-0.7,0.7-1l1.1,0.7
			C500.5,778.5,500.3,778.9,500.1,779.2z M154.3,775.8c-0.2-0.4-0.3-0.8-0.5-1.2l1.2-0.4c0.1,0.4,0.3,0.7,0.5,1.1L154.3,775.8z
			 M502.5,774.8l-1.2-0.4c0.1-0.4,0.3-0.8,0.4-1.1l1.2,0.3C502.8,773.9,502.7,774.3,502.5,774.8z M153,770.8c0-0.4-0.1-0.9-0.1-1.3
			v-0.4h1.2v0.3c0,0.4,0,0.8,0.1,1.2L153,770.8z M503.5,769.7h-1.2v-0.2c0-0.3,0-0.7,0-1l1.2-0.1c0,0.4,0,0.7,0,1.1V769.7z
			 M154.7,765.7l-1.2-0.4c0.1-0.4,0.3-0.8,0.4-1.2l1.2,0.5C155,765,154.9,765.3,154.7,765.7z M501.5,765.1c-0.1-0.4-0.3-0.7-0.4-1.1
			l1.1-0.5c0.2,0.4,0.3,0.8,0.5,1.2L501.5,765.1z M156.8,761.4l-1-0.7c0.2-0.4,0.5-0.7,0.7-1.1l1,0.7
			C157.2,760.8,157,761.1,156.8,761.4z M499.2,760.8c-0.2-0.3-0.5-0.7-0.7-1l1-0.8c0.3,0.3,0.5,0.7,0.8,1L499.2,760.8z M159.8,757.6
			l-0.9-0.9c0.3-0.3,0.6-0.6,0.9-0.9l0.9,0.9C160.4,757.1,160.1,757.4,159.8,757.6z M496.1,757.1c-0.3-0.3-0.6-0.6-0.9-0.8l0.8-0.9
			c0.3,0.3,0.6,0.6,0.9,0.9L496.1,757.1z M163.4,754.4l-0.8-1c0.3-0.3,0.7-0.5,1-0.8l0.7,1C164.1,753.9,163.8,754.1,163.4,754.4z
			 M492.4,753.9c-0.3-0.2-0.6-0.5-1-0.7l0.7-1c0.3,0.3,0.7,0.5,1,0.8L492.4,753.9z M167.4,751.5l-0.7-1c0.3-0.2,0.7-0.5,1.1-0.7
			l0.7,1.1C168.1,751.1,167.8,751.3,167.4,751.5z M488.4,751.1c-0.3-0.2-0.7-0.4-1-0.7l0.6-1.1c0.4,0.2,0.7,0.4,1.1,0.7L488.4,751.1
			z M171.7,749l-0.6-1.1c0.4-0.2,0.7-0.4,1.1-0.6l0.6,1.1C172.4,748.6,172,748.8,171.7,749z M484.1,748.6c-0.4-0.2-0.7-0.4-1.1-0.6
			l0.6-1.1c0.4,0.2,0.7,0.4,1.1,0.6L484.1,748.6z M176.1,746.7l-0.5-1.1c0.4-0.2,0.7-0.4,1.1-0.5l0.5,1.1
			C176.8,746.3,176.4,746.5,176.1,746.7z M479.7,746.4c-0.4-0.2-0.7-0.4-1.1-0.5l0.5-1.1c0.4,0.2,0.8,0.4,1.1,0.5L479.7,746.4z
			 M180.6,744.6l-0.5-1.1c0.4-0.2,0.8-0.3,1.2-0.5l0.5,1.1C181.3,744.3,180.9,744.4,180.6,744.6z M475.2,744.3
			c-0.4-0.2-0.8-0.3-1.1-0.5l0.5-1.1c0.4,0.2,0.8,0.3,1.2,0.5L475.2,744.3z M185.1,742.7l-0.5-1.2l1.2-0.5l0.4,1.2L185.1,742.7z
			 M470.6,742.4l-1.2-0.4l0.4-1.2l1.2,0.4L470.6,742.4z M189.8,741l-0.4-1.2l1.2-0.4l0.4,1.2L189.8,741z M465.9,740.7l-1.2-0.4
			l0.4-1.2l1.2,0.4L465.9,740.7z M194.5,739.4l-0.4-1.2l1.2-0.4l0.4,1.2L194.5,739.4z M461.2,739.1l-1.2-0.4l0.4-1.2l1.2,0.4
			L461.2,739.1z M199.2,737.9l-0.4-1.2l1.2-0.4l0.4,1.2L199.2,737.9z M456.5,737.7l-1.2-0.4l0.3-1.2l1.2,0.4L456.5,737.7z
			 M204,736.5l-0.3-1.2l1.2-0.3l0.3,1.2L204,736.5z M451.7,736.3l-1.2-0.3l0.3-1.2l1.2,0.3L451.7,736.3z M208.8,735.2l-0.3-1.2
			l1.2-0.3l0.3,1.2L208.8,735.2z M446.9,735l-1.2-0.3l0.3-1.2l1.2,0.3L446.9,735z M213.6,734l-0.3-1.2l1.2-0.3l0.3,1.2L213.6,734z
			 M442.1,733.8l-1.2-0.3l0.3-1.2l1.2,0.3L442.1,733.8z M218.5,732.9l-0.3-1.2l1.2-0.3l0.3,1.2L218.5,732.9z M437.2,732.7l-1.2-0.3
			l0.3-1.2l1.2,0.3L437.2,732.7z M223.3,731.8l-0.2-1.2l1.2-0.2l0.2,1.2L223.3,731.8z M432.4,731.7l-1.2-0.2l0.2-1.2l1.2,0.2
			L432.4,731.7z M228.2,730.9l-0.2-1.2l1.2-0.2l0.2,1.2L228.2,730.9z M427.5,730.7l-1.2-0.2l0.2-1.2l1.2,0.2L427.5,730.7z
			 M233.1,730l-0.2-1.2l1.2-0.2l0.2,1.2L233.1,730z M422.6,729.8l-1.2-0.2l0.2-1.2l1.2,0.2L422.6,729.8z M238,729.1l-0.2-1.2
			l1.2-0.2l0.2,1.2L238,729.1z M417.7,729l-1.2-0.2l0.2-1.2l1.2,0.2L417.7,729z M242.9,728.3l-0.2-1.2l1.2-0.2l0.2,1.2L242.9,728.3z
			 M412.8,728.2l-1.2-0.2l0.2-1.2l1.2,0.2L412.8,728.2z M247.8,727.6l-0.2-1.2l1.2-0.2l0.2,1.2L247.8,727.6z M407.9,727.5l-1.2-0.2
			l0.2-1.2l1.2,0.2L407.9,727.5z M252.8,726.9l-0.2-1.2l1.2-0.2l0.2,1.2L252.8,726.9z M402.9,726.8l-1.2-0.2l0.2-1.2l1.2,0.2
			L402.9,726.8z M257.7,726.3l-0.2-1.2l1.2-0.1l0.1,1.2L257.7,726.3z M398,726.2l-1.2-0.1l0.1-1.2l1.2,0.1L398,726.2z M262.6,725.7
			l-0.1-1.2l1.2-0.1l0.1,1.2L262.6,725.7z M393,725.6l-1.2-0.1l0.1-1.2l1.2,0.1L393,725.6z M267.6,725.2l-0.1-1.2l1.2-0.1l0.1,1.2
			L267.6,725.2z M388.1,725.1l-1.2-0.1l0.1-1.2l1.2,0.1L388.1,725.1z M272.5,724.7l-0.1-1.2l1.2-0.1l0.1,1.2L272.5,724.7z
			 M383.1,724.7l-1.2-0.1l0.1-1.2l1.2,0.1L383.1,724.7z M277.5,724.3l-0.1-1.2l1.2-0.1l0.1,1.2L277.5,724.3z M378.2,724.2l-1.2-0.1
			l0.1-1.2l1.2,0.1L378.2,724.2z M282.5,723.9l-0.1-1.2l1.2-0.1l0.1,1.2L282.5,723.9z M373.2,723.8l-1.2-0.1l0.1-1.2l1.2,0.1
			L373.2,723.8z M287.4,723.5l-0.1-1.2l1.2-0.1l0.1,1.2L287.4,723.5z M368.3,723.5l-1.2-0.1l0.1-1.2l1.2,0.1L368.3,723.5z
			 M292.4,723.2l-0.1-1.2l1.2-0.1l0.1,1.2L292.4,723.2z M363.3,723.2l-1.2-0.1l0.1-1.2l1.2,0.1L363.3,723.2z M297.4,723l-0.1-1.2
			l1.2-0.1l0.1,1.2L297.4,723z M358.3,722.9l-1.2-0.1l0.1-1.2l1.2,0.1L358.3,722.9z M302.3,722.8l-0.1-1.2h1.2v1.2H302.3z
			 M353.3,722.7h-1.2v-1.2h1.2V722.7z M307.3,722.6v-1.2h1.2v1.2H307.3z M348.4,722.5h-1.2v-1.2h1.2V722.5z M312.3,722.4v-1.2h1.2
			v1.2H312.3z M343.4,722.4h-1.2v-1.2h1.2V722.4z M317.3,722.3v-1.2h1.2v1.2H317.3z M338.4,722.3h-1.2v-1.2h1.2V722.3z M322.2,722.3
			v-1.2h1.2v1.2H322.2z M333.4,722.3h-1.2v-1.2h1.2V722.3z M327.2,722.2V721h1.2v1.2H327.2z"/>
		<g>
			<g>
				<path class="st0" d="M128.5,768.3c-0.5,0-0.8-0.2-1.2-0.6c-0.5-0.6-0.4-1.6,0.2-2.2c2.5-2.1,5.4-4.2,8.5-6.2
					c0.7-0.5,1.6-0.2,2,0.5c0.5,0.7,0.2,1.7-0.5,2.1c-3,2-5.8,4-8.2,6C129.2,768.2,128.9,768.3,128.5,768.3z"/>
				<path class="st0" d="M335.7,852.8c-0.8,0-1.4-0.7-1.4-1.5c0-0.9,0.6-1.5,1.4-1.6c7,0,14-0.2,20.8-0.5c0.8,0,1.5,0.6,1.5,1.5
					s-0.6,1.6-1.4,1.6C349.9,852.5,342.7,852.8,335.7,852.8L335.7,852.8z M325.3,852.8L325.3,852.8c-7,0-14-0.2-20.9-0.5
					c-0.8,0-1.4-0.7-1.4-1.6c0-0.9,0.7-1.5,1.5-1.5c6.9,0.2,13.9,0.4,20.8,0.5c0.8,0,1.4,0.7,1.4,1.6
					C326.7,852.1,326.1,852.8,325.3,852.8z M367.2,851.9c-0.8,0-1.4-0.6-1.4-1.5s0.6-1.6,1.4-1.6c7-0.4,14-0.9,20.8-1.4
					c0.8,0,1.5,0.6,1.5,1.4c0.1,0.9-0.6,1.6-1.3,1.6C381.2,851,374.2,851.5,367.2,851.9L367.2,851.9z M294,851.9
					C294,851.9,293.8,851.9,294,851.9c-7-0.4-14.1-0.9-20.9-1.4c-0.8-0.1-1.4-0.9-1.3-1.6c0.1-0.9,0.8-1.5,1.5-1.4
					c6.9,0.6,13.9,1,20.8,1.4c0.8,0,1.4,0.7,1.4,1.6C295.4,851.1,294.7,851.9,294,851.9z M398.4,849.5c-0.7,0-1.4-0.6-1.4-1.4
					c-0.1-0.9,0.5-1.6,1.3-1.7c7-0.7,14-1.5,20.7-2.4c0.8-0.1,1.5,0.5,1.6,1.4s-0.5,1.6-1.3,1.7c-6.8,0.9-13.8,1.7-20.8,2.5
					C398.5,849.5,398.5,849.5,398.4,849.5z M262.6,849.5h-0.1c-7-0.7-14-1.5-20.8-2.5c-0.8-0.1-1.4-0.9-1.3-1.7
					c0.1-0.9,0.8-1.4,1.6-1.4c6.8,0.9,13.7,1.7,20.7,2.5c0.8,0.1,1.4,0.9,1.3,1.7C264,848.9,263.4,849.5,262.6,849.5z M429.5,845.7
					c-0.7,0-1.3-0.5-1.4-1.4s0.5-1.6,1.3-1.7c7-1.1,13.9-2.4,20.6-3.6c0.8-0.1,1.5,0.4,1.8,1.2c0.1,0.9-0.4,1.6-1.2,1.9
					c-6.7,1.4-13.6,2.6-20.7,3.6C429.7,845.7,429.6,845.7,429.5,845.7z M231.5,845.5c-0.1,0-0.1,0-0.2,0c-7.1-1.1-14-2.4-20.7-3.7
					c-0.8-0.1-1.3-1-1.2-1.9s0.9-1.4,1.8-1.2c6.5,1.4,13.6,2.6,20.6,3.6c0.8,0.1,1.3,0.9,1.3,1.7
					C232.8,844.9,232.2,845.5,231.5,845.5z M460.5,839.8c-0.7,0-1.3-0.5-1.4-1.2c-0.1-0.9,0.4-1.6,1.2-1.9
					c7.1-1.6,13.9-3.4,20.2-5.2c0.7-0.2,1.5,0.2,1.8,1.1c0.2,0.9-0.2,1.6-1.1,1.9c-6.4,1.9-13.2,3.6-20.3,5.2
					C460.6,839.8,460.5,839.8,460.5,839.8z M200.7,839.7c-0.1,0-0.2,0-0.4,0c-7.1-1.6-14-3.4-20.3-5.3c-0.8-0.2-1.3-1.1-1.1-1.9
					c0.2-0.9,1.1-1.2,1.8-1.1c6.3,1.9,13.1,3.6,20.2,5.2c0.8,0.1,1.3,1,1.2,1.9C201.9,839.2,201.4,839.7,200.7,839.7z M490.8,831.4
					c-0.6,0-1.2-0.4-1.4-1.1c-0.2-0.9,0.2-1.7,0.9-2c7.1-2.4,13.7-5,19.5-7.6c0.7-0.4,1.6,0,1.9,0.9c0.4,0.7,0,1.7-0.8,2
					c-5.8,2.7-12.5,5.3-19.8,7.7C491.1,831.4,490.9,831.4,490.8,831.4z M170.3,831.3c-0.1,0-0.4,0-0.5-0.1
					c-7.2-2.5-13.8-5.1-19.8-7.7c-0.7-0.4-1.1-1.2-0.7-2c0.4-0.7,1.2-1.1,1.9-0.7c5.8,2.7,12.4,5.2,19.4,7.7c0.8,0.2,1.2,1.1,0.9,2
					C171.5,830.8,171,831.3,170.3,831.3z M519.9,819c-0.5,0-1.1-0.2-1.3-0.9c-0.4-0.7-0.1-1.7,0.6-2.1c7-4,12.7-8.1,16.7-12.4
					c0.6-0.6,1.5-0.6,2.1,0s0.6,1.6,0,2.2c-4.2,4.5-10.1,8.8-17.4,12.9C520.3,819,520.1,819,519.9,819z M141.3,818.7
					c-0.2,0-0.5,0-0.7-0.1c-7.4-4.1-13.2-8.6-17.3-13c-0.6-0.6-0.6-1.6,0-2.2c0.6-0.6,1.5-0.6,2.1,0c4,4.3,9.6,8.6,16.6,12.5
					c0.7,0.4,0.9,1.4,0.6,2.1C142.3,818.5,141.8,818.7,141.3,818.7z M543,797.5c-0.2,0-0.5,0-0.6-0.1c-0.7-0.4-1.1-1.2-0.7-2.1
					c1.2-2.5,1.6-5.1,1.6-7.7c0-3.9-1.3-7.8-3.9-11.7c-0.5-0.7-0.4-1.6,0.4-2.1c0.7-0.5,1.5-0.4,2,0.4c2.9,4.3,4.4,8.9,4.4,13.4
					c0,3-0.7,6.1-2,8.9C544.1,797.1,543.6,797.5,543,797.5z M118.3,797c-0.6,0-1.1-0.4-1.3-0.9c-1.2-2.7-1.8-5.6-1.8-8.4
					c0-4.7,1.6-9.4,4.8-13.9c0.5-0.7,1.4-0.9,2-0.4c0.7,0.5,0.8,1.5,0.4,2.1c-2.8,4-4.2,8.1-4.2,12c0,2.4,0.5,4.8,1.5,7.2
					c0.4,0.7,0,1.7-0.7,2C118.7,797,118.6,797,118.3,797z"/>
				<path class="st0" d="M533.3,768.5c-0.4,0-0.7-0.1-0.9-0.4c-2.3-2-5.1-4.1-8.2-6.1c-0.7-0.5-0.9-1.4-0.5-2.1c0.5-0.7,1.3-1,2-0.5
					c3.2,2,6.1,4.1,8.5,6.3c0.6,0.5,0.7,1.5,0.2,2.2C534.1,768.3,533.8,768.5,533.3,768.5z"/>
			</g>
		</g>
	</g>
</g>
<g id="_x30_2">
	<g>
		<ellipse class="st4" cx="330.1" cy="670.2" rx="311.8" ry="103"/>
		<path class="st5" d="M18.5,670.2c0,0,0,0.3,0,1s0,1.7,0.2,3c0.3,2.6,1,6.4,3.1,11.1c2,4.6,5.5,9.9,10.5,15.3
			c5.1,5.3,11.6,10.7,19.5,15.9c15.9,10.3,37.1,19.7,62.3,27.6c25.2,7.9,54.3,14.5,86.4,19.1s67.3,7.5,104.4,8.2
			c37.2,0.7,76.4-0.6,116.7-5c20.1-2.2,40.5-5.2,61-9.1c20.4-3.9,41-8.8,61.2-15.1c20.3-6.7,40.3-14.5,58.5-25.5
			c9-5.5,17.6-11.8,24.5-19.6c3.5-3.8,6.4-8.1,8.5-12.6c1-2.3,1.9-4.6,2.4-7c0.2-1.2,0.5-2.4,0.6-3.6c0.1-0.6,0.2-1.2,0.2-1.8v-0.9
			v-0.5c0-0.1,0-0.4,0-0.3c0-2.9-0.3-4.9-0.8-7.4c-0.6-2.4-1.4-4.7-2.4-7c-2.1-4.5-5-8.8-8.5-12.6c-6.9-7.7-15.5-14.1-24.5-19.6
			c-18.2-11.1-38.2-18.9-58.3-25.3c-20.2-6.4-40.7-11.2-61.2-15.2c-20.4-3.9-40.8-6.9-61-9.1c-40.3-4.4-79.6-5.7-116.7-5
			c-37.2,0.7-72.3,3.6-104.4,8.2c-32.1,4.6-61.3,11.2-86.4,19.1c-25.2,7.9-46.4,17.3-62.3,27.6c-8,5.1-14.5,10.5-19.5,15.9
			S24,650.6,22,655.3c-2.1,4.6-2.8,8.5-3.1,11.1c-0.2,1.3-0.2,2.3-0.2,2.9C18.6,669.9,18.5,670.2,18.5,670.2L18.5,670.2z
			 M18.2,670.2c0,0,0-0.3,0-1s0-1.7,0.2-3c0.3-2.6,1-6.5,3.1-11.2c2-4.7,5.5-10,10.6-15.4s11.6-10.8,19.6-16
			c15.9-10.4,37.2-19.8,62.3-27.8c25.2-8,54.4-14.6,86.5-19.5c32.2-4.9,67.3-8,104.6-9c37.2-1,76.6,0.1,117,4.2
			c20.2,2,40.7,4.9,61.3,8.7c20.6,3.8,41.2,8.7,61.6,15c20.3,6.4,40.6,14.3,59.1,25.4c9.2,5.6,18.1,12.1,25.4,20.2
			c3.6,4,6.8,8.6,9.1,13.5c1.1,2.5,2.1,5.1,2.7,7.7c0.6,2.7,0.9,5.4,1,8.1c0,2.8-0.4,5.5-1,8.2s-1.6,5.2-2.7,7.7
			c-2.3,4.9-5.5,9.5-9.1,13.5c-7.3,8.1-16.1,14.6-25.4,20.2c-18.6,11.1-38.8,19-59.1,25.4c-20.4,6.4-41,11.2-61.6,15
			s-41.1,6.7-61.3,8.7c-40.4,4.1-79.8,5.2-117,4.2s-72.4-4.1-104.6-9s-61.3-11.5-86.5-19.5s-46.4-17.4-62.3-27.8
			c-8-5.2-14.5-10.6-19.6-16c-5-5.4-8.5-10.7-10.6-15.4s-2.8-8.6-3.1-11.2c-0.2-1.3-0.2-2.3-0.2-3C18.2,670.6,18.2,670.2,18.2,670.2
			L18.2,670.2z"/>
	</g>
</g>
<g id="_x30_3">
	<g>
		<ellipse class="st1" cx="329.5" cy="624.9" rx="174.7" ry="47.9"/>
		<path class="st3" d="M329.5,674.2c-0.7,0-1.3-0.6-1.3-1.2c0-0.6,0.5-1.2,1.2-1.2h1.2l0,0c0.7,0,1.2,0.6,1.2,1.2
			c0,0.7-0.6,1.2-1.2,1.2H329.5z M320.7,674L320.7,674h-1.3c-0.7,0-1.2-0.6-1.2-1.3s0.5-1.2,1.3-1.2h1.2c0.7,0,1.2,0.6,1.2,1.3
			C321.9,673.5,321.4,674,320.7,674z M339.4,674c-0.7,0-1.2-0.5-1.2-1.2s0.5-1.3,1.2-1.3h1.2c0.7,0,1.3,0.5,1.3,1.2
			s-0.5,1.3-1.2,1.3H339.4L339.4,674z M310.7,673.8L310.7,673.8h-1.3c-0.7,0-1.2-0.6-1.2-1.3s0.6-1.2,1.2-1.2l0,0h1.2
			c0.7,0,1.2,0.6,1.2,1.3C311.9,673.3,311.4,673.8,310.7,673.8z M349.3,673.8c-0.7,0-1.2-0.5-1.2-1.2s0.5-1.3,1.2-1.3h1.2l0,0
			c0.7,0,1.2,0.5,1.2,1.2s-0.5,1.3-1.2,1.3H349.3L349.3,673.8z M300.7,673.4L300.7,673.4l-1.3-0.1c-0.7,0-1.2-0.6-1.2-1.3
			s0.6-1.2,1.3-1.2l1.2,0.1c0.7,0,1.2,0.6,1.2,1.3C302,672.9,301.4,673.4,300.7,673.4z M359.3,673.4c-0.7,0-1.2-0.5-1.2-1.2
			s0.5-1.3,1.2-1.3l1.2-0.1c0.7-0.1,1.3,0.5,1.3,1.2s-0.5,1.3-1.2,1.3L359.3,673.4L359.3,673.4z M290.8,672.9
			C290.8,672.9,290.7,672.9,290.8,672.9l-1.3-0.1c-0.7,0-1.2-0.6-1.2-1.3s0.7-1.2,1.3-1.2l1.2,0.1c0.7,0,1.2,0.6,1.2,1.3
			S291.4,672.9,290.8,672.9z M369.2,672.8c-0.7,0-1.2-0.5-1.2-1.2s0.5-1.3,1.2-1.3l1.2-0.1c0.7,0,1.3,0.5,1.3,1.2s-0.5,1.3-1.2,1.3
			L369.2,672.8C369.3,672.8,369.3,672.8,369.2,672.8z M280.9,672.2C280.8,672.2,280.8,672.2,280.9,672.2l-1.3-0.1
			c-0.7-0.1-1.2-0.7-1.1-1.3c0.1-0.7,0.6-1.2,1.3-1.1l1.2,0.1c0.7,0.1,1.2,0.7,1.1,1.3S281.5,672.2,280.9,672.2z M379.2,672.2
			c-0.6,0-1.2-0.5-1.2-1.1c-0.1-0.7,0.5-1.3,1.1-1.3l1.2-0.1c0.7,0,1.3,0.5,1.3,1.1c0.1,0.7-0.5,1.3-1.1,1.3L379.2,672.2
			L379.2,672.2z M270.9,671.3h-0.1l-1.2-0.1c-0.7-0.1-1.2-0.7-1.1-1.4s0.7-1.2,1.4-1.1l1.2,0.1c0.7,0.1,1.2,0.7,1.1,1.4
			C272.1,670.8,271.6,671.3,270.9,671.3z M389.1,671.2c-0.6,0-1.2-0.5-1.2-1.1c-0.1-0.7,0.4-1.3,1.1-1.4l1.2-0.1
			c0.7-0.1,1.3,0.4,1.4,1.1s-0.4,1.3-1.1,1.4l-1.2,0.1C389.2,671.2,389.1,671.2,389.1,671.2z M261,670.3h-0.1l-1.2-0.1
			c-0.7-0.1-1.2-0.7-1.1-1.4s0.7-1.2,1.4-1.1l1.2,0.1c0.7,0.1,1.2,0.7,1.1,1.4C262.2,669.8,261.6,670.3,261,670.3z M399,670.2
			c-0.6,0-1.2-0.5-1.2-1.1c-0.1-0.7,0.4-1.3,1.1-1.4l1.2-0.1c0.7-0.1,1.3,0.4,1.4,1.1s-0.4,1.3-1.1,1.4l-1.2,0.1
			C399.1,670.2,399,670.2,399,670.2z M251.1,669c-0.1,0-0.1,0-0.2,0l-1.2-0.2c-0.7-0.1-1.2-0.7-1.1-1.4c0.1-0.7,0.7-1.2,1.4-1.1
			l1.2,0.2c0.7,0.1,1.2,0.7,1.1,1.4C252.3,668.7,251.7,669,251.1,669z M408.9,668.9c-0.6,0-1.1-0.4-1.2-1.1s0.4-1.3,1.1-1.4l1.2-0.2
			c0.7-0.1,1.3,0.4,1.4,1.1s-0.4,1.3-1.1,1.4l-1.2,0.2C409,668.9,408.9,668.9,408.9,668.9z M241.3,667.5c-0.1,0-0.1,0-0.2,0
			l-1.2-0.2c-0.7-0.1-1.1-0.8-1-1.4c0.1-0.7,0.7-1.1,1.4-1l1.2,0.2c0.7,0.1,1.1,0.7,1,1.4S241.9,667.5,241.3,667.5z M418.7,667.4
			c-0.6,0-1.1-0.4-1.2-1c-0.1-0.7,0.4-1.3,1-1.4l1.2-0.2c0.7-0.1,1.3,0.3,1.4,1s-0.3,1.3-1,1.4l-1.2,0.2
			C418.9,667.4,418.8,667.4,418.7,667.4z M231.5,665.8c-0.1,0-0.2,0-0.2,0l-1.2-0.2c-0.7-0.1-1.1-0.8-1-1.5s0.8-1.1,1.5-1l1.2,0.2
			c0.7,0.1,1.1,0.8,1,1.5C232.6,665.4,232,665.8,231.5,665.8z M428.6,665.7c-0.6,0-1.1-0.4-1.2-1c-0.1-0.7,0.3-1.3,1-1.5l1.2-0.2
			c0.7-0.1,1.3,0.3,1.5,1c0.1,0.7-0.3,1.3-1,1.5l-1.2,0.2C428.7,665.7,428.6,665.7,428.6,665.7z M221.7,663.9c-0.1,0-0.2,0-0.3,0
			l-1.2-0.3c-0.7-0.1-1.1-0.8-0.9-1.5c0.1-0.7,0.8-1.1,1.5-0.9l1.2,0.3c0.7,0.1,1.1,0.8,1,1.5C222.8,663.5,222.3,663.9,221.7,663.9z
			 M438.3,663.7c-0.6,0-1.1-0.4-1.2-1c-0.1-0.7,0.3-1.3,1-1.5l1.2-0.3c0.7-0.2,1.3,0.3,1.5,0.9c0.2,0.7-0.3,1.3-0.9,1.5l-1.2,0.3
			C438.5,663.7,438.4,663.7,438.3,663.7z M212,661.7c-0.1,0-0.2,0-0.3,0l-1.2-0.3c-0.7-0.2-1.1-0.8-0.9-1.5c0.2-0.7,0.8-1.1,1.5-0.9
			l1.2,0.3c0.7,0.2,1.1,0.8,0.9,1.5C213,661.3,212.5,661.7,212,661.7z M448,661.4c-0.6,0-1.1-0.4-1.2-0.9c-0.2-0.7,0.2-1.3,0.9-1.5
			l1.2-0.3c0.7-0.2,1.3,0.2,1.5,0.9s-0.2,1.3-0.9,1.5l-1.2,0.3C448.2,661.3,448.1,661.4,448,661.4z M202.3,659c-0.1,0-0.2,0-0.3,0
			l-1.2-0.4c-0.7-0.2-1-0.9-0.8-1.5c0.2-0.7,0.9-1,1.5-0.8l1.2,0.3c0.7,0.2,1,0.9,0.8,1.5C203.4,658.8,202.9,659,202.3,659z
			 M457.6,658.8c-0.5,0-1-0.4-1.2-0.9c-0.2-0.7,0.2-1.4,0.8-1.5l1.2-0.4c0.7-0.2,1.4,0.2,1.6,0.8c0.2,0.7-0.2,1.4-0.8,1.6l-1.2,0.4
			C457.9,658.8,457.7,658.8,457.6,658.8z M192.8,656c-0.1,0-0.3,0-0.4-0.1l-1.2-0.4c-0.6-0.2-1-0.9-0.8-1.6c0.2-0.6,0.9-1,1.6-0.8
			l1.2,0.4c0.6,0.2,1,0.9,0.8,1.6C193.8,655.8,193.4,656,192.8,656z M467.1,655.8c-0.5,0-1-0.3-1.2-0.8c-0.2-0.6,0.1-1.4,0.8-1.6
			l1.2-0.4c0.6-0.2,1.4,0.1,1.6,0.7c0.2,0.6-0.1,1.4-0.7,1.6l-1.2,0.4C467.4,655.7,467.3,655.8,467.1,655.8z M183.5,652.5
			c-0.2,0-0.3,0-0.5-0.1l-1.2-0.5c-0.6-0.3-0.9-1-0.7-1.6c0.3-0.6,1-0.9,1.6-0.7l1.1,0.5c0.6,0.3,0.9,1,0.7,1.6
			C184.5,652.2,184,652.5,183.5,652.5z M476.4,652.2c-0.5,0-0.9-0.3-1.1-0.8c-0.3-0.6,0-1.4,0.7-1.6c0.4-0.2,0.8-0.3,1.1-0.5
			c0.6-0.3,1.4,0,1.6,0.6c0.3,0.6,0,1.4-0.6,1.6c-0.4,0.2-0.8,0.3-1.2,0.5C476.7,652,476.6,652.2,476.4,652.2z M174.5,648.3
			c-0.2,0-0.4,0-0.6-0.1c-0.4-0.2-0.8-0.4-1.1-0.6c-0.6-0.3-0.8-1.1-0.5-1.7s1.1-0.8,1.7-0.5c0.4,0.2,0.7,0.4,1.1,0.6
			c0.6,0.3,0.8,1.1,0.5,1.7C175.4,648.2,174.9,648.3,174.5,648.3z M485.4,647.8c-0.4,0-0.9-0.2-1.1-0.7c-0.3-0.6-0.1-1.4,0.5-1.7
			c0.4-0.2,0.7-0.4,1.1-0.6c0.6-0.3,1.4-0.1,1.7,0.5c0.3,0.6,0.1,1.4-0.5,1.7c-0.4,0.2-0.7,0.4-1.1,0.6
			C485.8,647.8,485.6,647.8,485.4,647.8z M166,643.2c-0.3,0-0.5-0.1-0.7-0.2c-0.3-0.3-0.7-0.5-1-0.8c-0.5-0.4-0.7-1.2-0.2-1.7
			c0.4-0.5,1.2-0.6,1.7-0.2c0.3,0.2,0.6,0.5,1,0.7c0.6,0.4,0.7,1.2,0.3,1.7C166.8,642.9,166.4,643.2,166,643.2z M493.8,642.4
			c-0.4,0-0.7-0.2-1-0.5c-0.4-0.5-0.3-1.3,0.2-1.7c0.3-0.2,0.6-0.5,1-0.7c0.5-0.4,1.3-0.3,1.8,0.2c0.4,0.5,0.3,1.3-0.2,1.8
			c-0.3,0.3-0.7,0.5-1,0.8C494.3,642.3,494.1,642.4,493.8,642.4z M158.7,636.3c-0.4,0-0.7-0.2-1-0.5s-0.5-0.7-0.8-1
			c-0.4-0.6-0.3-1.3,0.3-1.7s1.3-0.3,1.7,0.3c0.2,0.3,0.5,0.6,0.7,0.9c0.4,0.5,0.3,1.3-0.2,1.7C159.3,636.3,159,636.3,158.7,636.3z
			 M500.8,635.5c-0.3,0-0.5-0.1-0.7-0.2c-0.6-0.4-0.7-1.2-0.3-1.7c0.2-0.3,0.4-0.6,0.7-1c0.4-0.6,1.1-0.7,1.7-0.4
			c0.6,0.4,0.8,1.1,0.4,1.7c-0.2,0.4-0.5,0.7-0.7,1.1C501.6,635.3,501.2,635.5,500.8,635.5z M154.9,627.4c-0.6,0-1.2-0.5-1.2-1.1
			c0-0.4-0.1-0.9-0.1-1.4v-0.2c0-0.7,0.6-1.2,1.3-1.2s1.2,0.6,1.2,1.3v0.2c0,0.4,0,0.7,0.1,1.1c0.1,0.7-0.4,1.3-1.1,1.4
			C154.9,627.4,154.9,627.4,154.9,627.4z M504.1,626.2c-0.7,0-1.2-0.5-1.2-1.2v-0.1c0-0.3,0-0.7,0-1c-0.1-0.7,0.4-1.3,1.1-1.3
			c0.7-0.1,1.3,0.4,1.3,1.1c0,0.4,0.1,0.8,0.1,1.2C505.4,625.7,504.8,626.2,504.1,626.2z M157.4,617.8c-0.2,0-0.5-0.1-0.7-0.2
			c-0.6-0.4-0.7-1.1-0.4-1.7c0.2-0.4,0.5-0.7,0.7-1.1c0.4-0.6,1.2-0.7,1.7-0.3c0.6,0.4,0.7,1.2,0.3,1.7c-0.2,0.3-0.5,0.6-0.7,1
			C158.3,617.7,157.9,617.8,157.4,617.8z M501,617.2c-0.4,0-0.8-0.2-1-0.5s-0.5-0.6-0.7-0.9c-0.4-0.5-0.3-1.3,0.2-1.7
			s1.3-0.3,1.7,0.2c0.3,0.3,0.5,0.7,0.8,1.1c0.4,0.6,0.3,1.3-0.3,1.7C501.5,617,501.2,617.2,501,617.2z M164.2,610.7
			c-0.4,0-0.7-0.2-1-0.5c-0.4-0.5-0.3-1.3,0.2-1.7c0.3-0.3,0.7-0.5,1-0.8c0.5-0.4,1.3-0.3,1.7,0.2s0.3,1.3-0.2,1.7
			c-0.3,0.2-0.6,0.5-1,0.7C164.8,610.5,164.5,610.7,164.2,610.7z M494,610.2c-0.3,0-0.5-0.1-0.8-0.3s-0.6-0.5-1-0.7
			c-0.6-0.4-0.7-1.2-0.3-1.7c0.4-0.6,1.2-0.7,1.7-0.3c0.3,0.3,0.7,0.5,1,0.8c0.5,0.4,0.6,1.2,0.2,1.7
			C494.7,609.9,494.4,610.2,494,610.2z M172.5,605.2c-0.4,0-0.9-0.2-1.1-0.6c-0.3-0.6-0.1-1.4,0.5-1.7c0.4-0.2,0.7-0.4,1.1-0.6
			c0.6-0.3,1.4-0.1,1.7,0.5s0.1,1.4-0.5,1.7c-0.4,0.2-0.7,0.4-1.1,0.6C172.9,605.2,172.7,605.2,172.5,605.2z M485.6,604.8
			c-0.2,0-0.4,0-0.6-0.2c-0.4-0.2-0.7-0.4-1.1-0.6c-0.6-0.3-0.8-1.1-0.5-1.7s1.1-0.8,1.7-0.5c0.4,0.2,0.7,0.4,1.1,0.6
			c0.6,0.3,0.8,1.1,0.5,1.7C486.5,604.4,486,604.8,485.6,604.8z M181.5,600.8c-0.5,0-0.9-0.3-1.1-0.7c-0.3-0.6,0-1.4,0.6-1.6
			c0.4-0.2,0.8-0.3,1.2-0.5c0.6-0.3,1.4,0,1.6,0.7c0.3,0.6,0,1.4-0.7,1.6c-0.4,0.2-0.8,0.3-1.1,0.5
			C181.8,600.8,181.6,600.8,181.5,600.8z M476.6,600.4c-0.2,0-0.3,0-0.5-0.1c-0.4-0.2-0.8-0.3-1.1-0.5c-0.6-0.3-0.9-1-0.7-1.6
			s1-0.9,1.6-0.7c0.4,0.2,0.8,0.3,1.2,0.5c0.6,0.3,0.9,1,0.7,1.6C477.6,600.2,477.1,600.4,476.6,600.4z M190.7,597.2
			c-0.5,0-1-0.3-1.2-0.8c-0.2-0.6,0.1-1.4,0.8-1.6l1.2-0.4c0.7-0.2,1.4,0.1,1.6,0.8c0.2,0.7-0.1,1.4-0.8,1.6l-1.2,0.4
			C191,597,190.9,597.2,190.7,597.2z M467.3,596.8c-0.1,0-0.3,0-0.4-0.1l-1.2-0.4c-0.6-0.2-1-0.9-0.8-1.6s0.9-1,1.6-0.8l1.2,0.4
			c0.6,0.2,1,0.9,0.8,1.6C468.3,596.4,467.9,596.8,467.3,596.8z M200.2,593.9c-0.5,0-1-0.3-1.2-0.9c-0.2-0.7,0.2-1.4,0.8-1.6
			l1.2-0.4c0.7-0.2,1.4,0.2,1.5,0.8c0.2,0.7-0.2,1.4-0.8,1.5l-1.2,0.4C200.4,593.9,200.3,593.9,200.2,593.9z M457.9,593.8
			c-0.1,0-0.2,0-0.4-0.1l-1.2-0.4c-0.7-0.2-1-0.9-0.8-1.5c0.2-0.7,0.9-1,1.5-0.8l1.2,0.4c0.7,0.2,1,0.9,0.8,1.5
			C458.9,593.3,458.4,593.8,457.9,593.8z M209.8,591.3c-0.6,0-1.1-0.4-1.2-0.9c-0.2-0.7,0.2-1.3,0.9-1.5l1.2-0.3
			c0.7-0.2,1.3,0.2,1.5,0.9s-0.2,1.3-0.9,1.5l-1.2,0.3C210,591.3,209.9,591.3,209.8,591.3z M448.3,591c-0.1,0-0.2,0-0.3,0l-1.2-0.3
			c-0.7-0.2-1.1-0.8-0.9-1.5s0.8-1.1,1.5-0.9l1.2,0.3c0.7,0.2,1.1,0.8,0.9,1.5S448.8,591,448.3,591z M219.5,588.9
			c-0.6,0-1.1-0.4-1.2-1c-0.2-0.7,0.3-1.3,0.9-1.5l1.2-0.3c0.7-0.1,1.3,0.3,1.5,1c0.1,0.7-0.3,1.3-1,1.5l-1.2,0.3
			C219.7,588.9,219.6,588.9,219.5,588.9z M438.6,588.8c-0.1,0-0.2,0-0.3,0l-1.2-0.3c-0.7-0.1-1.1-0.8-1-1.5s0.8-1.1,1.5-1l1.2,0.3
			c0.7,0.1,1.1,0.8,0.9,1.5C439.6,588.3,439.1,588.8,438.6,588.8z M229.2,586.9c-0.6,0-1.1-0.4-1.2-1c-0.1-0.7,0.3-1.3,1-1.5
			l1.2-0.2c0.7-0.1,1.3,0.3,1.5,1c0.1,0.7-0.3,1.3-1,1.5l-1.2,0.2C229.4,586.9,229.3,586.9,229.2,586.9z M428.8,586.8
			c-0.1,0-0.2,0-0.2,0l-1.2-0.2c-0.7-0.1-1.1-0.8-1-1.5s0.8-1.1,1.5-1l1.2,0.2c0.7,0.1,1.1,0.8,1,1.5
			C429.9,586.3,429.4,586.8,428.8,586.8z M239,585.2c-0.6,0-1.1-0.4-1.2-1c-0.1-0.7,0.3-1.3,1-1.4l1.2-0.2c0.7-0.1,1.3,0.4,1.4,1
			c0.1,0.7-0.4,1.3-1,1.4l-1.2,0.2C239.2,585.2,239.1,585.2,239,585.2z M419,585c-0.1,0-0.1,0-0.2,0l-1.2-0.2
			c-0.7-0.1-1.1-0.7-1-1.4s0.7-1.1,1.4-1l1.2,0.2c0.7,0.1,1.1,0.8,1,1.4C420.1,584.7,419.6,585,419,585z M248.9,583.7
			c-0.6,0-1.1-0.4-1.2-1.1c-0.1-0.7,0.4-1.3,1.1-1.4l1.2-0.2c0.7-0.1,1.3,0.4,1.4,1.1c0.1,0.7-0.4,1.3-1.1,1.4l-1.2,0.2
			C249,583.7,249,583.7,248.9,583.7z M409.1,583.5c-0.1,0-0.1,0-0.2,0l-1.2-0.2c-0.7-0.1-1.2-0.7-1.1-1.4s0.7-1.2,1.4-1.1l1.2,0.2
			c0.7,0.1,1.2,0.7,1.1,1.4C410.3,583.2,409.7,583.5,409.1,583.5z M258.8,582.3c-0.6,0-1.2-0.5-1.2-1.1c-0.1-0.7,0.4-1.3,1.1-1.4
			l1.2-0.1c0.7-0.1,1.3,0.4,1.4,1.1c0.1,0.7-0.4,1.3-1.1,1.4l-1.2,0.1C258.9,582.3,258.8,582.3,258.8,582.3z M399.2,582.2
			c0,0-0.1,0-0.2,0l-1.2-0.1c-0.7-0.1-1.2-0.7-1.1-1.4s0.7-1.2,1.4-1.1l1.2,0.1c0.7,0.1,1.2,0.7,1.1,1.4
			C400.4,581.8,399.9,582.2,399.2,582.2z M268.7,581.2c-0.6,0-1.2-0.5-1.2-1.1c-0.1-0.7,0.4-1.3,1.1-1.4l1.2-0.1
			c0.7-0.1,1.3,0.4,1.4,1.1s-0.4,1.3-1.1,1.4l-1.2,0.1C268.8,581.2,268.7,581.2,268.7,581.2z M389.3,581.2h-0.1l-1.2-0.1
			c-0.7-0.1-1.2-0.7-1.1-1.4s0.7-1.2,1.4-1.1l1.2,0.1c0.7,0.1,1.2,0.7,1.1,1.4C390.5,580.8,390,581.2,389.3,581.2z M278.6,580.3
			c-0.6,0-1.2-0.5-1.2-1.1c-0.1-0.7,0.5-1.3,1.1-1.3l1.2-0.1c0.7,0,1.3,0.5,1.3,1.1c0.1,0.7-0.5,1.3-1.1,1.3L278.6,580.3
			C278.7,580.3,278.6,580.3,278.6,580.3z M379.4,580.2h-0.1l-1.2-0.1c-0.7-0.1-1.2-0.7-1.1-1.3c0.1-0.7,0.6-1.2,1.3-1.1l1.2,0.1
			c0.7,0.1,1.2,0.7,1.1,1.3C380.6,579.8,380,580.2,379.4,580.2z M288.5,579.7c-0.7,0-1.2-0.5-1.2-1.2s0.5-1.3,1.2-1.3l1.2-0.1
			c0.7,0,1.3,0.5,1.3,1.2s-0.5,1.3-1.2,1.3L288.5,579.7C288.6,579.7,288.6,579.7,288.5,579.7z M369.5,579.5
			C369.4,579.5,369.4,579.5,369.5,579.5l-1.3-0.1c-0.7,0-1.2-0.6-1.2-1.3s0.6-1.2,1.3-1.2l1.2,0.1c0.7,0,1.2,0.6,1.2,1.3
			S370.1,579.5,369.5,579.5z M298.5,579c-0.7,0-1.2-0.5-1.2-1.2s0.5-1.3,1.2-1.3l1.2-0.1c0.7,0,1.3,0.5,1.3,1.2s-0.5,1.3-1.2,1.3
			L298.5,579L298.5,579z M359.5,579L359.5,579l-1.3-0.1c-0.7,0-1.2-0.6-1.2-1.3s0.6-1.2,1.3-1.2l1.2,0.1c0.7,0,1.2,0.6,1.2,1.3
			C360.7,578.4,360.2,579,359.5,579z M308.5,578.7c-0.7,0-1.2-0.5-1.2-1.2s0.5-1.3,1.2-1.3h1.2c0.6-0.1,1.3,0.5,1.3,1.2
			s-0.5,1.3-1.2,1.3H308.5L308.5,578.7z M349.6,578.7C349.5,578.7,349.5,578.7,349.6,578.7h-1.3c-0.7,0-1.2-0.6-1.2-1.3
			s0.6-1.2,1.2-1.2l0,0h1.2c0.7,0,1.2,0.6,1.2,1.3C350.8,578,350.2,578.7,349.6,578.7z M318.4,578.3c-0.7,0-1.2-0.5-1.2-1.2
			s0.5-1.3,1.2-1.3h1.2c0.7,0,1.3,0.5,1.3,1.2s-0.5,1.3-1.2,1.3H318.4L318.4,578.3z M339.6,578.3L339.6,578.3h-1.3
			c-0.7,0-1.2-0.6-1.2-1.3s0.5-1.2,1.3-1.2h1.2c0.7,0,1.2,0.6,1.2,1.3C340.8,577.8,340.3,578.3,339.6,578.3z M328.4,578.3
			c-0.7,0-1.2-0.6-1.2-1.2c0-0.7,0.6-1.2,1.2-1.2h1.2c0.7,0,1.2,0.6,1.2,1.2c0,0.6-0.6,1.2-1.2,1.2H328.4L328.4,578.3z"/>
	</g>
	<g>
		<path class="st2" d="M149.5,662.9c-0.4,0-0.8-0.2-1.1-0.6c-1.7-2.9-2.5-5.9-2.5-8.9c0-0.7,0.6-1.2,1.2-1.2s1.2,0.6,1.2,1.2
			c0,2.6,0.7,5.1,2.2,7.7c0.3,0.6,0.1,1.4-0.5,1.7C149.9,662.8,149.7,662.9,149.5,662.9z"/>
		<path class="st2" d="M325.7,705.8L325.7,705.8c-6,0-11.9-0.2-17.7-0.4c-0.7,0-1.2-0.6-1.2-1.3s0.6-1.2,1.2-1.2l0,0
			c5.8,0.2,11.7,0.3,17.7,0.4c0.7,0,1.2,0.6,1.2,1.3C327,705.3,326.4,705.8,325.7,705.8z M334.6,705.8c-0.7,0-1.2-0.6-1.2-1.2
			c0-0.7,0.5-1.2,1.2-1.3c5.9,0,11.9-0.2,17.7-0.4c0.7-0.1,1.3,0.5,1.3,1.2s-0.5,1.3-1.2,1.3C346.5,705.6,340.5,705.8,334.6,705.8
			L334.6,705.8z M299.2,705.1L299.2,705.1c-6-0.3-11.9-0.7-17.8-1.1c-0.7-0.1-1.2-0.7-1.1-1.3c0.1-0.7,0.7-1.2,1.3-1.1
			c5.8,0.4,11.7,0.8,17.6,1.1c0.7,0,1.2,0.6,1.2,1.3C300.4,704.6,299.9,705.1,299.2,705.1z M361.1,705.1c-0.7,0-1.2-0.5-1.2-1.2
			s0.5-1.3,1.2-1.3c5.9-0.3,11.9-0.7,17.6-1.1c0.7-0.1,1.3,0.5,1.3,1.1c0.1,0.7-0.5,1.3-1.1,1.3
			C373.1,704.4,367.1,704.8,361.1,705.1L361.1,705.1z M272.7,703.2h-0.1c-6-0.6-11.9-1.2-17.6-1.9c-0.7-0.1-1.2-0.7-1.1-1.4
			s0.7-1.2,1.4-1.1c5.7,0.7,11.6,1.4,17.5,1.9c0.7,0.1,1.2,0.7,1.1,1.4C273.9,702.8,273.4,703.2,272.7,703.2z M387.6,703.2
			c-0.6,0-1.2-0.5-1.2-1.1c-0.1-0.7,0.4-1.3,1.1-1.4c6-0.6,11.9-1.2,17.6-1.9c0.7-0.1,1.3,0.4,1.4,1.1c0.1,0.7-0.4,1.3-1.1,1.4
			c-5.7,0.7-11.7,1.4-17.6,1.9C387.7,703.2,387.6,703.2,387.6,703.2z M246.4,700.1c-0.1,0-0.1,0-0.2,0c-6-0.9-11.9-1.8-17.5-2.9
			c-0.7-0.1-1.1-0.8-1-1.5s0.8-1.1,1.5-1c5.6,1,11.4,2,17.4,2.9c0.7,0.1,1.2,0.7,1.1,1.4C247.5,699.7,247,700.1,246.4,700.1z
			 M414,700.1c-0.6,0-1.1-0.4-1.2-1.1c-0.1-0.7,0.4-1.3,1.1-1.4c6-0.9,11.8-1.8,17.4-2.9c0.7-0.1,1.3,0.3,1.5,1
			c0.1,0.7-0.3,1.3-1,1.5c-5.6,1-11.5,2-17.5,2.9C414.1,700.1,414,700.1,414,700.1z M220.2,695.6c-0.1,0-0.2,0-0.3,0
			c-6-1.3-11.8-2.7-17.3-4.1c-0.7-0.2-1.1-0.9-0.9-1.5c0.2-0.7,0.9-1.1,1.5-0.9c5.4,1.5,11.2,2.8,17.1,4.1c0.7,0.1,1.1,0.8,1,1.5
			C221.3,695.2,220.8,695.6,220.2,695.6z M440.1,695.6c-0.6,0-1.1-0.4-1.2-1c-0.1-0.7,0.3-1.3,1-1.5c6-1.3,11.7-2.6,17.1-4.1
			c0.7-0.2,1.3,0.2,1.5,0.9s-0.2,1.3-0.9,1.5c-5.4,1.5-11.2,2.9-17.3,4.1C440.3,695.5,440.2,695.6,440.1,695.6z M194.5,689
			c-0.1,0-0.2,0-0.4-0.1c-6.1-1.9-11.7-3.9-16.8-6c-0.6-0.3-0.9-1-0.7-1.6c0.3-0.6,1-0.9,1.6-0.7c5,2.1,10.5,4.1,16.5,5.9
			c0.7,0.2,1,0.9,0.8,1.6C195.5,688.6,195,689,194.5,689z M465.8,689c-0.5,0-1-0.3-1.2-0.9c-0.2-0.7,0.2-1.4,0.8-1.6
			c6-1.9,11.6-3.9,16.5-5.9c0.6-0.3,1.4,0,1.6,0.7c0.3,0.6,0,1.4-0.7,1.6c-5,2.1-10.7,4.1-16.8,6C466,689,465.9,689,465.8,689z
			 M169.8,679.3c-0.2,0-0.4,0-0.6-0.1c-6.2-3.1-11.2-6.5-15-9.9c-0.5-0.5-0.5-1.3-0.1-1.8c0.5-0.5,1.3-0.5,1.8-0.1
			c3.6,3.3,8.5,6.5,14.4,9.5c0.6,0.3,0.9,1.1,0.5,1.7C170.7,679.1,170.3,679.3,169.8,679.3z M490.5,679.3c-0.5,0-0.9-0.2-1.1-0.7
			c-0.3-0.6-0.1-1.4,0.5-1.7c6-3,10.8-6.2,14.4-9.5c0.5-0.5,1.3-0.4,1.8,0.1s0.4,1.3-0.1,1.8c-3.8,3.4-8.8,6.8-15,9.9
			C490.9,679.3,490.7,679.3,490.5,679.3z"/>
		<path class="st2" d="M510.8,662.9c-0.2,0-0.4-0.1-0.6-0.2c-0.6-0.3-0.8-1.1-0.5-1.7c1.5-2.5,2.2-5.1,2.2-7.7
			c0-0.7,0.6-1.2,1.2-1.2s1.2,0.6,1.2,1.2c0,3-0.9,6-2.5,8.9C511.7,662.6,511.3,662.9,510.8,662.9z"/>
	</g>
	<g>
		<path class="st2" d="M149.8,652.2c-0.4,0-0.8-0.2-1.1-0.6c-1.7-2.9-2.5-5.9-2.5-8.9c0-0.7,0.6-1.2,1.2-1.2c0.7,0,1.2,0.6,1.2,1.2
			c0,2.6,0.7,5.1,2.2,7.7c0.3,0.6,0.1,1.4-0.5,1.7C150.2,652.1,150,652.2,149.8,652.2z"/>
		<path class="st2" d="M326,695.1L326,695.1c-6,0-11.9-0.2-17.7-0.4c-0.7,0-1.2-0.6-1.2-1.3s0.6-1.2,1.2-1.2l0,0
			c5.8,0.2,11.7,0.3,17.7,0.4c0.7,0,1.2,0.6,1.2,1.3C327.3,694.6,326.7,695.1,326,695.1z M334.9,695.1c-0.7,0-1.2-0.6-1.2-1.2
			c0-0.7,0.5-1.2,1.2-1.3c5.9,0,11.8-0.2,17.7-0.4c0.6,0,1.3,0.5,1.3,1.2s-0.5,1.3-1.2,1.3C346.7,694.9,340.8,695.1,334.9,695.1
			L334.9,695.1z M299.5,694.4L299.5,694.4c-6-0.3-12-0.7-17.8-1.1c-0.7-0.1-1.2-0.7-1.1-1.3c0.1-0.7,0.6-1.2,1.3-1.1
			c5.8,0.4,11.7,0.8,17.6,1.1c0.7,0,1.2,0.6,1.2,1.3C300.7,693.9,300.2,694.4,299.5,694.4z M361.4,694.4c-0.7,0-1.2-0.5-1.2-1.2
			s0.5-1.3,1.2-1.3c5.9-0.3,11.9-0.7,17.6-1.1c0.7,0,1.3,0.5,1.3,1.1c0.1,0.7-0.5,1.3-1.1,1.3C373.4,693.7,367.4,694.1,361.4,694.4
			L361.4,694.4z M273,692.5h-0.1c-6-0.6-11.9-1.2-17.6-1.9c-0.7-0.1-1.2-0.7-1.1-1.4s0.7-1.2,1.4-1.1c5.7,0.7,11.6,1.4,17.5,1.9
			c0.7,0.1,1.2,0.7,1.1,1.4C274.2,692.1,273.7,692.5,273,692.5z M387.9,692.5c-0.6,0-1.2-0.5-1.2-1.1c-0.1-0.7,0.4-1.3,1.1-1.4
			c6-0.6,11.9-1.2,17.6-1.9c0.7-0.1,1.3,0.4,1.4,1.1c0.1,0.7-0.4,1.3-1.1,1.4c-5.7,0.7-11.7,1.4-17.6,1.9
			C388,692.5,387.9,692.5,387.9,692.5z M246.7,689.5c-0.1,0-0.1,0-0.2,0c-6-0.9-11.9-1.8-17.5-2.9c-0.7-0.1-1.1-0.8-1-1.5
			s0.8-1.1,1.5-1c5.6,1,11.4,2,17.4,2.9c0.7,0.1,1.2,0.7,1.1,1.4C247.8,689,247.3,689.5,246.7,689.5z M414.2,689.4
			c-0.6,0-1.1-0.4-1.2-1.1c-0.1-0.7,0.4-1.3,1.1-1.4c6-0.9,11.8-1.8,17.4-2.9c0.7-0.1,1.3,0.3,1.5,1c0.1,0.7-0.3,1.3-1,1.5
			c-5.6,1-11.5,2-17.5,2.9C414.4,689.4,414.3,689.4,414.2,689.4z M220.5,684.9c-0.1,0-0.2,0-0.3,0c-6-1.3-11.8-2.7-17.3-4.1
			c-0.7-0.2-1.1-0.9-0.9-1.5c0.2-0.7,0.9-1.1,1.5-0.9c5.4,1.5,11.2,2.8,17.1,4.1c0.7,0.1,1.1,0.8,1,1.5
			C221.6,684.5,221.1,684.9,220.5,684.9z M440.4,684.9c-0.6,0-1.1-0.4-1.2-1c-0.1-0.7,0.3-1.3,1-1.5c6-1.3,11.7-2.6,17.1-4.1
			c0.7-0.2,1.3,0.2,1.5,0.9s-0.2,1.3-0.9,1.5c-5.4,1.5-11.2,2.9-17.3,4.1C440.6,684.8,440.5,684.9,440.4,684.9z M194.8,678.3
			c-0.1,0-0.2,0-0.4-0.1c-6.1-1.9-11.7-3.9-16.8-6c-0.6-0.3-0.9-1-0.7-1.6c0.3-0.6,1-0.9,1.6-0.7c5,2.1,10.5,4.1,16.5,5.9
			c0.7,0.2,1,0.9,0.8,1.6C195.8,678,195.3,678.3,194.8,678.3z M466.1,678.3c-0.5,0-1-0.3-1.2-0.9c-0.2-0.7,0.2-1.4,0.8-1.6
			c6-1.9,11.6-3.9,16.5-5.9c0.6-0.3,1.4,0,1.6,0.7c0.3,0.6,0,1.4-0.7,1.6c-5,2.1-10.7,4.1-16.8,6
			C466.3,678.3,466.2,678.3,466.1,678.3z M170.1,668.6c-0.2,0-0.4,0-0.6-0.1c-6.2-3.1-11.2-6.5-15-9.9c-0.5-0.5-0.5-1.3-0.1-1.8
			c0.5-0.5,1.3-0.5,1.8-0.1c3.6,3.3,8.5,6.5,14.4,9.5c0.6,0.3,0.9,1.1,0.5,1.7C171,668.4,170.6,668.6,170.1,668.6z M490.8,668.6
			c-0.5,0-0.9-0.2-1.1-0.7c-0.3-0.6-0.1-1.4,0.5-1.7c6-3,10.8-6.2,14.4-9.5c0.5-0.5,1.3-0.4,1.8,0.1s0.4,1.3-0.1,1.8
			c-3.8,3.4-8.8,6.8-15,9.9C491.2,668.6,491,668.6,490.8,668.6z"/>
		<path class="st2" d="M511.1,652.2c-0.2,0-0.4-0.1-0.6-0.2c-0.6-0.3-0.8-1.1-0.5-1.7c1.5-2.5,2.2-5.1,2.2-7.7
			c0-0.7,0.6-1.2,1.2-1.2s1.2,0.6,1.2,1.2c0,3-0.9,6-2.5,8.9C512,651.9,511.6,652.2,511.1,652.2z"/>
	</g>
	<g>
		<path class="st2" d="M156.8,615.3c-0.4,0-0.7-0.2-1-0.5c-0.4-0.5-0.3-1.3,0.2-1.8c2.1-1.7,4.6-3.4,7.3-5c0.6-0.4,1.4-0.2,1.7,0.4
			c0.4,0.6,0.2,1.4-0.4,1.7c-2.6,1.6-5,3.2-7,4.8C157.3,615.2,157,615.3,156.8,615.3z"/>
		<path class="st2" d="M334,683.3c-0.7,0-1.2-0.6-1.2-1.2c0-0.7,0.5-1.2,1.2-1.3c6,0,12-0.2,17.8-0.4c0.7,0,1.3,0.5,1.3,1.2
			s-0.5,1.3-1.2,1.3C346,683.1,340,683.3,334,683.3L334,683.3z M325,683.3L325,683.3c-6,0-12-0.2-17.9-0.4c-0.7,0-1.2-0.6-1.2-1.3
			s0.6-1.2,1.3-1.2c5.9,0.2,11.9,0.3,17.8,0.4c0.7,0,1.2,0.6,1.2,1.3C326.3,682.7,325.7,683.3,325,683.3z M360.8,682.6
			c-0.7,0-1.2-0.5-1.2-1.2s0.5-1.3,1.2-1.3c6-0.3,12-0.7,17.8-1.1c0.7-0.1,1.3,0.5,1.3,1.1c0.1,0.7-0.5,1.3-1.1,1.3
			C372.9,681.9,366.9,682.3,360.8,682.6L360.8,682.6z M298.2,682.6L298.2,682.6c-6-0.3-12.1-0.7-17.9-1.1c-0.7-0.1-1.2-0.7-1.1-1.3
			c0.1-0.7,0.7-1.2,1.3-1.1c5.9,0.5,11.9,0.8,17.8,1.1c0.7,0,1.2,0.6,1.2,1.3C299.4,682,298.9,682.6,298.2,682.6z M387.6,680.7
			c-0.6,0-1.2-0.5-1.2-1.1c-0.1-0.7,0.4-1.3,1.1-1.4c6-0.6,12-1.2,17.7-1.9c0.7-0.1,1.3,0.4,1.4,1.1s-0.4,1.3-1.1,1.4
			c-5.8,0.7-11.8,1.4-17.8,2C387.6,680.7,387.6,680.7,387.6,680.7z M271.5,680.7h-0.1c-6-0.6-12-1.2-17.8-2
			c-0.7-0.1-1.2-0.7-1.1-1.4c0.1-0.7,0.7-1.1,1.4-1.1c5.8,0.7,11.7,1.4,17.7,2c0.7,0.1,1.2,0.7,1.1,1.4
			C272.7,680.2,272.1,680.7,271.5,680.7z M414.2,677.5c-0.6,0-1.1-0.4-1.2-1.1c-0.1-0.7,0.4-1.3,1.1-1.4c6-0.9,11.9-1.9,17.6-2.9
			c0.7-0.1,1.3,0.3,1.5,1c0.1,0.7-0.3,1.3-1,1.5c-5.7,1.1-11.6,2.1-17.7,2.9C414.3,677.5,414.3,677.5,414.2,677.5z M244.8,677.5
			c-0.1,0-0.1,0-0.2,0c-6.1-0.9-12-1.9-17.7-3c-0.7-0.1-1.1-0.8-1-1.5s0.8-1.1,1.5-1c5.6,1.1,11.6,2.1,17.6,2.9
			c0.7,0.1,1.1,0.7,1.1,1.4C246,677,245.4,677.5,244.8,677.5z M440.6,672.9c-0.6,0-1.1-0.4-1.2-1c-0.1-0.7,0.3-1.3,1-1.5
			c6.1-1.3,11.9-2.7,17.3-4.2c0.6-0.2,1.3,0.2,1.5,0.9s-0.2,1.3-0.9,1.5c-5.5,1.5-11.3,2.9-17.4,4.2
			C440.8,672.8,440.7,672.9,440.6,672.9z M218.4,672.8c-0.1,0-0.2,0-0.3,0c-6.1-1.3-12-2.7-17.4-4.3c-0.7-0.2-1.1-0.9-0.9-1.5
			c0.2-0.7,0.9-1,1.5-0.9c5.4,1.5,11.2,2.9,17.3,4.2c0.7,0.1,1.1,0.8,1,1.5C219.5,672.4,219,672.8,218.4,672.8z M466.6,666.1
			c-0.5,0-1-0.3-1.2-0.9c-0.2-0.7,0.2-1.4,0.8-1.6c6.1-1.9,11.7-4,16.7-6.1c0.6-0.3,1.4,0,1.6,0.7c0.3,0.6,0,1.4-0.7,1.6
			c-5,2.2-10.7,4.3-16.9,6.2C466.8,666.1,466.7,666.1,466.6,666.1z M192.5,666c-0.1,0-0.3,0-0.4-0.1c-6.2-2-11.8-4.1-16.9-6.2
			c-0.6-0.3-0.9-1-0.6-1.6c0.3-0.6,1-0.9,1.6-0.6c5,2.2,10.6,4.2,16.6,6.2c0.7,0.2,1,0.9,0.8,1.6C193.5,665.6,193,666,192.5,666z
			 M491.4,656.1c-0.4,0-0.9-0.2-1.1-0.7c-0.3-0.6-0.1-1.4,0.5-1.7c6-3.2,10.9-6.5,14.3-10c0.5-0.5,1.3-0.5,1.8,0s0.5,1.3,0,1.8
			c-3.6,3.6-8.6,7.1-14.9,10.4C491.8,656.1,491.6,656.1,491.4,656.1z M167.7,655.9c-0.2,0-0.4,0-0.6-0.1
			c-6.3-3.3-11.3-6.9-14.8-10.5c-0.5-0.5-0.5-1.3,0-1.8s1.3-0.5,1.8,0c3.4,3.5,8.2,6.9,14.2,10.1c0.6,0.3,0.8,1.1,0.5,1.7
			C168.5,655.7,168.1,655.9,167.7,655.9z M511.2,638.8c-0.2,0-0.4,0-0.5-0.1c-0.6-0.3-0.9-1-0.6-1.7c1-2,1.4-4.1,1.4-6.2
			c0-3.1-1.1-6.3-3.3-9.4c-0.4-0.6-0.3-1.3,0.3-1.7s1.3-0.3,1.7,0.3c2.5,3.5,3.8,7.2,3.8,10.8c0,2.4-0.6,4.9-1.7,7.2
			C512.2,638.5,511.7,638.8,511.2,638.8z M148.1,638.4c-0.5,0-0.9-0.3-1.1-0.7c-1-2.2-1.5-4.5-1.5-6.8c0-3.8,1.4-7.6,4.1-11.2
			c0.4-0.6,1.2-0.7,1.7-0.3c0.6,0.4,0.7,1.2,0.3,1.7c-2.4,3.2-3.6,6.5-3.6,9.7c0,1.9,0.4,3.9,1.3,5.8c0.3,0.6,0,1.4-0.6,1.6
			C148.4,638.3,148.2,638.4,148.1,638.4z"/>
		<path class="st2" d="M503,615.5c-0.3,0-0.6-0.1-0.8-0.3c-2-1.6-4.4-3.3-7-4.9c-0.6-0.4-0.8-1.1-0.4-1.7s1.1-0.8,1.7-0.4
			c2.7,1.6,5.2,3.3,7.3,5.1c0.5,0.4,0.6,1.2,0.2,1.8C503.7,615.3,503.3,615.5,503,615.5z"/>
	</g>
</g>
<g id="_x30_4">
	<ellipse class="st6" cx="330.4" cy="616.3" rx="107.7" ry="29.9"/>
</g>
<g>
	<g>
		<defs>
			<ellipse id="SVGID_1_" cx="330.4" cy="616.8" rx="107.7" ry="29.3"/>
		</defs>
		<clipPath id="SVGID_2_">
			<use xlink:href="#SVGID_1_"  style="overflow:visible;"/>
		</clipPath>
		<g id="Carbon_1_" class="st7">
			<g>
				<path class="st8" d="M259.1,657.3c0,0-7.9,4.8,0,10.8c7.9,6,33,22.2,39.8,25.3c6.6,2.9,29.6,8.2,42.2,10.3c0,0,8.9,2.3,11.9-6
					c0,0,6.6-19.3,10.3-23.4L259.1,657.3z"/>
				<path class="st9" d="M352.8,697.4c0,0,0.3-1,0.8-2.4l0,0c0,0-7.6-0.5-12.6-1.9s-9.5-2.9-17.4-1.6c-7.9,1.3-17.7,2.6-27.4,0.5
					c1,0.5,1.8,1,2.4,1.3c6.6,2.9,29.6,8.2,42.2,10.3C341.1,703.4,349.9,705.6,352.8,697.4z"/>
				<path class="st10" d="M261.6,657.3c0,0-5.3,1.9-3.1,8.9c0,0,7.6,5.2,18.8,12.4c0,0,1.1-2.3,8.4,0c7.2,2.3,11.9,1.9,14.2,0
					c2.3-1.9,13.4-6.3,13.4-6.3L261.6,657.3z"/>
				<path class="st11" d="M404.5,668.4c0,0,6.3-16.8,6.6-24.2c0.3-7.4,2.9-25.3,6-31.9c2.9-6.6,3.7-18.5,3.4-24.8
					c-0.3-6.3,0.2-19.8,0.2-19.8s-6-15.5-12.4-22.1c-6.3-6.6-18.2-15.9-18.5-17.7c-0.3-1.9-9.7-6-9.7-6l-7.4-2.3
					c0,0-28.2,11.4-39,19.3l-2.1,4.8L404.5,668.4z"/>
				<path class="st12" d="M333.6,539.1c0,0-15.6-8.5-22.5-8.9c-6.8-0.3-10.5-2.9-10.5-2.9s-4-0.8-7.4,7.1l14,8.9l26.3,4.3v-8.5
					H333.6L333.6,539.1z"/>
				<path class="st8" d="M404.5,668.4c0,0-2.9-34.1,0-43.5c2.9-9.3,1.1-23.8-1.3-29c-2.4-5-20.3-18.7-20.3-18.7l-9.8,23l-2.9,28.5
					l10,11.1L404.5,668.4z"/>
				<path class="st12" d="M400.6,674.2c0,0,3.9-0.6,3.9-5.8s-9.3-15.9-10-18.5c-0.8-2.6-19.6-17.6-18.8-25.8
					c0.8-8.2-1.9-25.3,7.2-46.9l-15.5,13.7l-14.7,37l-0.8,24.2l7.9,12.2L400.6,674.2z"/>
				
					<linearGradient id="SVGID_3_" gradientUnits="userSpaceOnUse" x1="242.4834" y1="459.1627" x2="343.7912" y2="459.1627" gradientTransform="matrix(1 0 0 -1 0 1084)">
					<stop  offset="0.1326" style="stop-color:#4F4F4F"/>
					<stop  offset="0.8605" style="stop-color:#353535"/>
				</linearGradient>
				<path class="st13" d="M262.5,587.6c0,0-12.2,9.3-20,23.4l77.5,51.2l6-1.4l14.5-23.7l3.4-12.9l-27.1-13L262.5,587.6z"/>
				
					<linearGradient id="SVGID_4_" gradientUnits="userSpaceOnUse" x1="236.5241" y1="441.2763" x2="322.5311" y2="441.2763" gradientTransform="matrix(1 0 0 -1 0 1084)">
					<stop  offset="0" style="stop-color:#353535"/>
					<stop  offset="0.8381" style="stop-color:#4C4C4C"/>
				</linearGradient>
				<path class="st14" d="M322.5,660.7c0,0-52.7-37.8-80-49.6c0,0-6,19.3-6,28.2c0,0,30.4,25.9,47.5,34.8
					C284,674,291.4,677.7,322.5,660.7z"/>
				<path class="st15" d="M303.2,670c0,0,19,4,34,7.4s15.6-1.6,51.7-3.1c0,0,7.7-1.6,11.8-0.2c0,0-15.6-14.2-37.2-14.7
					c0,0-24.6-3.2-40.7,1.1L303.2,670z"/>
				
					<linearGradient id="SVGID_5_" gradientUnits="userSpaceOnUse" x1="268.8677" y1="518.9971" x2="380.0301" y2="518.9971" gradientTransform="matrix(1 0 0 -1 0 1084)">
					<stop  offset="0" style="stop-color:#707070"/>
					<stop  offset="0.5021" style="stop-color:#595959"/>
					<stop  offset="0.8127" style="stop-color:#4C4C4C"/>
				</linearGradient>
				<path class="st16" d="M370.7,569.4c0,0-22.5-13-30-19.3s-21.9-13.4-26.3-13.7c-4.5-0.3-21.1-2.3-21.1-2.3s-7.1,6-10.3,11.9
					c-3.4,6-9.7,12.6-10.8,15.6c-1.1,2.9-1.3,4.3-3.4,8.2c-1.9,3.9,91,26.1,91,26.1l20.1-22.1L370.7,569.4z"/>
				
					<linearGradient id="SVGID_6_" gradientUnits="userSpaceOnUse" x1="262.455" y1="488.1085" x2="359.8974" y2="488.1085" gradientTransform="matrix(1 0 0 -1 0 1084)">
					<stop  offset="1.928110e-02" style="stop-color:#4F4F4F"/>
					<stop  offset="0.409" style="stop-color:#474747"/>
					<stop  offset="1" style="stop-color:#353535"/>
				</linearGradient>
				<path class="st17" d="M359.9,592.7c0,0-26.6-18.4-48.5-22.9c-21.9-4.5-42.7,0-42.7,0s-4.8,8.2-6.3,17.7c0,0,11.9,8.5,19.3,11.4
					c7.4,2.9,25.3,14.8,25.3,14.8s4.8,4,35.1,10.1C342,624.1,357.8,608.2,359.9,592.7z"/>
				<path class="st18" d="M359.7,592.7l-10.6-6l-5.3-2.9l-5.3-2.9c-1-0.5-1.8-1-2.6-1.4l-2.7-1.4c-0.8-0.5-1.8-1-2.7-1.4
					s-1.8-1-2.7-1.3c-1-0.5-1.8-0.8-2.7-1.1c-0.5-0.2-1-0.3-1.4-0.5l-1.4-0.5c-1-0.3-1.9-0.6-2.9-1l-2.9-0.8c-0.5-0.2-1-0.3-1.4-0.3
					l-1.4-0.3c-1-0.2-1.9-0.5-2.9-0.5l-3.1-0.5c-1-0.2-1.9-0.2-2.9-0.3l-1.4-0.2l-1.4-0.2c-1,0-1.9-0.2-3.1-0.2l-3.1-0.2h-3.1
					c-1,0-1.9,0-3.1,0h-1.4h-1.4c-1.9,0-4,0.2-6,0.2c-1.9,0.2-4,0.3-6,0.3c-1.9,0.2-4,0.3-6,0.6l0.2-0.2c-0.6,1-1.3,2.1-1.9,3.1
					l-0.2-0.2c0.5-1.1,1-2.3,1.4-3.4v-0.2h0.2c1.9-0.5,4-1,6-1.3c1-0.2,1.9-0.3,3.1-0.5c1-0.2,1.9-0.3,3.1-0.3
					c1-0.2,2.1-0.2,3.1-0.3c1-0.2,2.1-0.2,3.1-0.2h1.4h1.4c1,0,2.1,0,3.1,0c1,0,2.1,0,3.1,0.2l3.1,0.2c1,0,2.1,0.2,3.1,0.3l1.4,0.2
					l1.4,0.2c1,0.2,2.1,0.3,3.1,0.5l2.9,0.6c1,0.2,1.9,0.5,2.9,0.8c1,0.3,1.9,0.5,2.9,1l2.9,1l2.9,1.1c1.9,0.6,3.7,1.4,5.6,2.1
					c1.9,0.8,3.7,1.4,5.6,2.3l2.7,1.1c1,0.5,1.8,0.8,2.7,1.3c1,0.5,1.8,1,2.7,1.4c1,0.5,1.8,1,2.7,1.4l2.6,1.4l2.6,1.6
					c1.8,1.1,3.4,2.3,5,3.4c1.6,1.1,3.2,2.4,4.8,3.7L359.7,592.7z"/>
				<path class="st19" d="M379.9,549.1c-0.5-0.5-0.8-1.1-1.3-1.6c-0.3-0.6-0.6-1.1-1-1.8c-0.3-0.6-0.6-1.3-0.8-1.9
					c-0.2-0.3-0.2-0.6-0.3-1c-0.2-0.3-0.2-0.6-0.2-1.1c0-0.3,0-0.6,0-1.1V540c0-0.2,0-0.3,0-0.5l0.2-0.5c0-0.2,0.2-0.3,0.2-0.5
					l0.2-0.5c0-0.2,0.2-0.3,0.3-0.5l0.3-0.5c0-0.2,0.2-0.3,0.2-0.3c0-0.2,0.2-0.2,0.2-0.3c0-0.2,0.2-0.3,0.2-0.3
					c0.2-0.5,0.3-1.1,0.3-1.8c0-1.1-0.2-2.4-0.5-3.7c-0.3-1.3-0.8-2.6-1.3-3.7c-0.5-1.1-1.1-2.4-1.9-3.4c-0.6-1.1-1.4-2.1-2.4-3.2
					l0.5,0.2c-1.3,0.6-2.6,1.3-3.9,1.8c-1.3,0.6-2.6,1.3-3.9,1.8l-7.9,3.5l-7.9,3.5l-1.9,0.8c-0.6,0.3-1.3,0.6-1.9,1l-1.9,1
					c-0.6,0.3-1.3,0.6-1.9,1l-0.2-0.2c1.1-1,2.3-1.8,3.5-2.6c0.6-0.5,1.3-0.8,1.8-1.1c0.6-0.3,1.3-0.8,1.9-1.1s1.3-0.8,1.9-1.1
					l1.9-1c0.6-0.3,1.3-0.6,1.9-1c0.6-0.3,1.3-0.6,1.9-1c1.3-0.6,2.6-1.1,4-1.8c1.3-0.5,2.7-1.1,4-1.6s2.7-1,4-1.4l4.2-1.3l0.3-0.2
					l0.2,0.3c0.8,1.1,1.4,2.3,2.1,3.4c0.6,1.1,1.4,2.3,2.1,3.4c0.6,1.1,1.3,2.4,1.8,3.7c0.5,1.3,1,2.6,1,4c0,0.8,0,1.4-0.3,2.3
					c0,0.2-0.2,0.3-0.2,0.5c-0.2,0.2-0.2,0.3-0.3,0.5l-0.3,0.5l-0.2,0.3c0,0.2-0.2,0.3-0.2,0.3l-0.2,0.5c0,0.2-0.2,0.3-0.2,0.5
					l-0.2,0.5c0,0.2,0,0.3-0.2,0.5v0.5c0,0.3,0,0.6,0,1c0,0.3,0,0.6,0,1c0,0.3,0.2,0.6,0.2,1c0.2,0.6,0.3,1.3,0.5,1.9
					c0.3,1.3,0.8,2.4,1.4,3.7L379.9,549.1L379.9,549.1z"/>
				<path class="st20" d="M322.5,660.7c0,0-1.3-0.6-3.5-1.9c-0.5-0.3-1.1-0.6-1.8-1.1c-0.6-0.3-1.4-0.8-2.1-1.3
					c-1.6-1-3.2-2.1-5.2-3.2c-1.8-1.3-3.9-2.6-6-4c-2.1-1.4-4.2-3.1-6.3-4.8c-2.3-1.6-4.5-3.4-6.9-5c-2.4-1.6-5-3.1-7.6-4.5
					c-2.6-1.4-5.2-2.9-7.7-4.3c-2.4-1.4-5-2.9-7.4-4.2c-2.4-1.4-4.7-2.7-6.9-4c-2.1-1.3-4.2-2.6-6.1-3.7c-1.9-1.1-3.7-2.1-5.2-3.1
					c-0.8-0.5-1.4-1-2.1-1.3c-0.6-0.3-1.3-0.8-1.9-1.1c-2.3-1.3-3.5-2.1-3.5-2.1l0.2-0.2c0,0,1.4,0.5,3.9,1.3
					c0.6,0.2,1.3,0.5,2.1,0.8c0.6,0.3,1.4,0.6,2.3,1c1.6,0.8,3.5,1.6,5.5,2.6c1.9,1,4.2,2.1,6.3,3.4c2.3,1.3,4.5,2.6,6.9,4
					c2.4,1.4,4.8,3.1,7.2,4.7c1.3,0.8,2.4,1.6,3.7,2.4c1.1,0.8,2.4,1.8,3.5,2.6c2.4,1.8,4.8,3.5,7.2,5c2.4,1.6,4.8,3.1,7.2,4.5
					c2.4,1.4,4.7,2.7,6.9,4c2.1,1.4,4,2.7,5.8,4c1.8,1.3,3.4,2.6,4.8,3.7c1.4,1.1,2.6,2.1,3.7,2.9c1.9,1.6,3.1,2.7,3.1,2.7
					L322.5,660.7z"/>
				<path class="st21" d="M321.9,673.9c0,0,15.8-15.1,54.1-11.9c0,0-43-11.9-69.6,6.3l-1.9,1.3L321.9,673.9z"/>
				<path class="st22" d="M384.2,664.7c-3.4-1.4-21.6-6.8-28.8-5.8c-0.2,0-0.3,0-0.5,0c11.8,1,20.3,3.4,20.3,3.4
					c-38.3-3.4-54.1,11.9-54.1,11.9l-4-1l-0.3,0.2l17.7,3.7c0,0,6.8,4,24.5,0c0,0,14.8-4.5,22.9-4.3
					C390.2,673.1,387.6,666.1,384.2,664.7z"/>
				<path class="st23" d="M306.7,664.5c0,0-11.1,6.9-18.8,8.1c0,0-6.4,0-15-8.1"/>
				<path class="st24" d="M285.8,639.6c0,0-23.5-16.1-35.4-22.2c0,0-3.1,6.4-2.6,9.7c0.5,3.4,13.5,13.9,14.7,14.2s3.4-1.1,8.7,0
					C276.5,642.3,286.8,646.2,285.8,639.6z"/>
				<path class="st23" d="M271,594c0,0,8.7,10.8,16.8,16.9c8.1,6.1,18.4,9.7,23.4,11.9c5,2.3,13.4,2.7,18,7.6
					c4.7,4.8,5.8,9.5,5.8,9.5s3.5-9.2,6.1-13.2l-7.6-2.4c0,0-7.2-1.8-13.5-4.3c-6.4-2.6-23.2-11.6-23.2-11.6l-7.1-4.2l-5.6-2.9
					C284.2,601.1,271.2,595.3,271,594z"/>
				<path class="st25" d="M262.9,586.3c0,0.8-0.2,1.4-0.2,2.3l-0.2-0.3l5.5,3.4c1.8,1.1,3.7,2.3,5.5,3.2c1,0.5,1.9,1.1,2.7,1.6
					c1,0.5,1.9,1,2.7,1.4l1.4,0.8l1.4,0.6c0.5,0.2,1,0.5,1.4,0.8l1.4,0.8c1,0.5,1.9,1.1,2.7,1.6c1,0.5,1.8,1.1,2.7,1.6
					c1,0.5,1.9,1.1,2.7,1.6l2.7,1.6c3.7,2.1,7.6,4.2,11.3,6.6l0,0c0,0,0.2,0.2,0.3,0.2c0.2,0.2,0.3,0.2,0.5,0.3
					c0.3,0.2,0.6,0.3,1,0.5c0.6,0.3,1.4,0.6,2.1,0.8c1.4,0.5,2.9,1,4.3,1.4l2.1,0.6l2.3,0.6c0.6,0.2,1.4,0.5,2.3,0.6l2.3,0.6
					c1.4,0.5,2.9,0.8,4.3,1.3l4.3,1.3l4.3,1.3c1.4,0.5,2.9,0.8,4.3,1.3v0.2c-1.4-0.2-3.1-0.5-4.5-0.6c-1.4-0.2-3.1-0.5-4.5-0.8
					c-1.4-0.3-3.1-0.6-4.5-0.8c-1.4-0.3-3.1-0.6-4.5-1l-2.3-0.6c-0.8-0.2-1.4-0.3-2.3-0.6c-1.4-0.5-2.9-0.8-4.3-1.3
					c-1.4-0.5-2.9-1-4.3-1.6c-0.6-0.3-1.4-0.6-2.1-1c-0.3-0.2-0.6-0.3-1.1-0.5c-0.2-0.2-0.3-0.2-0.5-0.3c-0.2-0.2-0.3-0.2-0.6-0.3
					l0,0c-1.8-1.3-3.5-2.4-5.3-3.7c-1.8-1.3-3.5-2.4-5.3-3.7c-1.8-1.1-3.7-2.3-5.5-3.4c-1.9-1.1-3.9-2.1-5.8-2.9l-1.4-0.6l-1.4-0.6
					l-1.4-0.6c-0.5-0.2-1-0.5-1.4-0.6c-1.9-1-3.9-2.1-5.8-3.2c-1-0.5-1.8-1.1-2.7-1.8s-1.8-1.3-2.7-1.8c-0.8-0.6-1.8-1.3-2.6-1.9
					c-0.8-0.6-1.8-1.3-2.6-2.1l-0.2-0.2v-0.2c0.2-0.6,0.3-1.4,0.6-2.1L262.9,586.3z"/>
				<path class="st26" d="M300.9,627c0,0-8.9,8.9-13.9,15.5c0,0,18,9.5,24.6,14.7c0,0,1.3-6.1-2.3-8.5c-3.5-2.6-9.7-2.4-8.7-6.4
					s3.9-10.6,2.4-11.8C301.8,629.1,303.2,624.8,300.9,627z"/>
				<path class="st27" d="M341.9,624c1.6-2.4,3.4-4.8,5.8-7.6c1.3-1.4,2.4-2.9,3.4-4.2c-4.3-2.1-28.3-13.7-34.5-18
					c-9-6.6-27.9-17.4-34.3-16.9c0,0,1.4,2.9,2.1,6.6c0.6,3.7,9.3,6.4,13.7,12.1c4.3,5.6,2.6,8.7,5.5,11c2.9,2.3,12.2,4,14.7,8.2
					s21.9,8.7,21.9,8.7S341.1,624,341.9,624z"/>
				<path class="st28" d="M351.5,613.3c0,0-4.3-2.1-11-5.5c-3.2-1.6-7.1-3.7-11.1-5.8c-2.1-1.1-4.2-2.3-6.3-3.4
					c-2.1-1.1-4.2-2.4-6.3-3.9c-1.9-1.4-4-2.9-6-4.2c-1.9-1.3-4-2.6-6-3.7c-3.9-2.4-7.7-4.3-11-6c-3.2-1.6-6.1-2.7-8.2-3.2
					c-1-0.3-1.9-0.5-2.4-0.5c-0.3,0-0.5,0-0.6,0c-0.2,0-0.2,0-0.2,0s0,0,0.2,0s0.3,0,0.6,0c0.6,0,1.4,0.2,2.4,0.3
					c2.1,0.5,5,1.4,8.4,3.1c3.4,1.4,7.2,3.5,11.1,5.8c1.9,1.1,4,2.4,6.1,3.5c2.1,1.3,4,2.6,6.1,4c1.9,1.3,4.2,2.4,6.3,3.7
					c2.1,1.1,4.2,2.3,6.3,3.2c4,2.1,7.9,3.9,11.3,5.5c6.6,3.2,11.1,5.2,11.1,5.2L351.5,613.3z"/>
				
					<linearGradient id="SVGID_7_" gradientUnits="userSpaceOnUse" x1="348.7036" y1="463.145" x2="348.7036" y2="428.5853" gradientTransform="matrix(1 0 0 -1 0 1084)">
					<stop  offset="5.118534e-03" style="stop-color:#4C4C4C"/>
					<stop  offset="1" style="stop-color:#353535"/>
				</linearGradient>
				<path class="st29" d="M359.9,655.4c0,0-11-14.8-1.9-34.6l-8.4,1.9l-7.6,13l-4.5,19.6C337.5,655.4,348.5,652.9,359.9,655.4z"/>
				
					<linearGradient id="SVGID_8_" gradientUnits="userSpaceOnUse" x1="329.2467" y1="505.629" x2="376.0248" y2="505.629" gradientTransform="matrix(1 0 0 -1 0 1084)">
					<stop  offset="5.118534e-03" style="stop-color:#4C4C4C"/>
					<stop  offset="1" style="stop-color:#353535"/>
				</linearGradient>
				<path class="st30" d="M376,574.7c0,0-13.7,8.7-14.2,9.7c0,0-2.9,1.9-2.7,4.5c0,0-20.6-13-29.8-16.1l14.5-4.8l7.4,2.9
					c0,0,4.5-2.1,8.7-1.3c4.2,0.8,6.6,1.9,9.2,1.9C369.1,571.4,374.4,573.5,376,574.7z"/>
				
					<linearGradient id="SVGID_9_" gradientUnits="userSpaceOnUse" x1="274.2125" y1="532.8484" x2="313.5116" y2="532.8484" gradientTransform="matrix(1 0 0 -1 0 1084)">
					<stop  offset="0" style="stop-color:#707070"/>
					<stop  offset="0.8127" style="stop-color:#4C4C4C"/>
				</linearGradient>
				<path class="st31" d="M274.2,565c0,0,14.5-2.1,25.9,0l13.4-24.5c0,0-18-2.4-19.6-3.2C293.9,537.3,275.8,559.5,274.2,565z"/>
				
					<linearGradient id="SVGID_10_" gradientUnits="userSpaceOnUse" x1="337.586" y1="549.3573" x2="374.8258" y2="549.3573" gradientTransform="matrix(1 0 0 -1 0 1084)">
					<stop  offset="5.118534e-03" style="stop-color:#4C4C4C"/>
					<stop  offset="1" style="stop-color:#353535"/>
				</linearGradient>
				<path class="st32" d="M374.2,545.5c0,0-1.6-6.1,0-8.2c1.6-2.1-0.8-11.8-3.5-13.5c0,0-27.1,12.2-33,16.1
					C337.5,539.9,363.9,532.8,374.2,545.5z"/>
				<path class="st22" d="M357.8,636.7c0,0,9-17.9,12.9-19.8c0,0-2.3,14.3,12.9,21.3l-7.6-10.6c0,0-0.8-5.8-0.3-8.1
					c0.5-2.3,1.1-17.1,1.1-17.1s1.4-16.9,3.9-18.2c0,0-2.9,1.8-4.7,5.2C374.2,592.7,356.2,627,357.8,636.7z"/>
				<path class="st33" d="M401.1,673.9c0,0,0.2,0,0.3-0.2s0.3-0.3,0.6-0.6c0.5-0.5,1.1-1.6,1.3-2.9c0-0.3,0-0.8,0-1.1
					c0-0.2,0-0.2,0-0.3l0,0l0,0v-0.2c0-0.2,0-0.5-0.2-0.6c0-0.5-0.2-0.8-0.3-1.3s-0.3-1-0.5-1.3c-0.8-1.8-2.1-3.7-3.4-5.8
					c-1.4-2.1-3.1-4.3-4.5-6.8c-0.3-0.6-0.8-1.3-1.1-2.1v-0.2l0,0c0,0,0,0.2,0,0l0,0c0-0.2,0-0.2-0.2-0.3c0-0.2-0.2-0.2-0.2-0.3
					c-0.2-0.3-0.5-0.6-0.6-0.8c-1-1.1-2.1-2.3-3.1-3.4c-2.1-2.3-4.3-4.7-6.6-7.1c-1.1-1.3-2.3-2.4-3.2-3.9c-1.1-1.3-2.1-2.7-2.9-4.2
					c-0.8-1.4-1.6-3.1-1.9-4.8c0-0.2,0-0.5,0-0.6c0-0.2,0-0.5,0-0.6v-1.3c0-0.8,0-1.6,0-2.4c0-3.4,0-6.6,0-9.8s0.3-6.3,0.6-9.2
					c0.3-2.9,0.8-5.6,1.4-8.1c0.6-2.4,1.1-4.7,1.8-6.8c0.2-0.5,0.3-1,0.5-1.4c0.2-0.5,0.3-1,0.5-1.3c0.3-0.8,0.6-1.6,0.8-2.3
					c0.6-1.3,1.1-2.4,1.4-3.2c0.3-0.6,0.5-1.1,0.5-1.1h0.2c0,0-0.2,0.3-0.3,1.1c-0.3,0.8-0.6,1.8-1.1,3.2c-0.2,0.6-0.5,1.4-0.6,2.3
					c-0.2,0.5-0.3,0.8-0.5,1.3c-0.2,0.5-0.3,1-0.3,1.4c-0.5,1.9-1.1,4.2-1.6,6.6c-0.2,1.3-0.5,2.6-0.6,3.9c-0.2,0.6-0.2,1.3-0.3,2.1
					c0,0.6-0.2,1.4-0.3,2.1c-0.2,0.6-0.2,1.4-0.2,2.1c0,0.8-0.2,1.4-0.2,2.3c-0.2,1.4-0.2,3.1-0.3,4.7c-0.2,3.2-0.2,6.4-0.2,9.7
					c0,0.8,0,1.6-0.2,2.6c0,0.8-0.2,1.6-0.2,2.4c0.2,1.6,0.8,3.1,1.4,4.5c0.8,1.4,1.8,2.9,2.7,4.2c1,1.3,2.1,2.6,3.2,3.9
					c2.3,2.4,4.5,4.7,6.9,6.9c1.1,1.1,2.3,2.1,3.4,3.2c0.3,0.3,0.5,0.6,0.8,1c0.2,0.2,0.3,0.3,0.3,0.5c0,0.2,0.2,0.2,0.2,0.3l0,0
					v0.2l0,0v0.2c0.2,0.6,0.6,1.3,1,1.8c1.6,2.4,3.2,4.7,4.5,6.8c1.3,2.1,2.6,4.2,3.2,6.1c0.2,0.5,0.3,1,0.5,1.4
					c0.2,0.5,0.3,1,0.3,1.4c0,0.2,0,0.5,0,0.6v0.2v0.2v0.2c0,0.2,0,0.2,0,0.3c0,0.5-0.2,0.8-0.2,1.1c-0.3,1.4-1.1,2.6-1.6,3.1
					c-0.3,0.3-0.5,0.5-0.8,0.5C401.3,673.9,401.3,674,401.1,673.9L401.1,673.9z"/>
				<path class="st22" d="M409.7,571.6c0,0,6.9-0.5,8.9-2.1c0,0-1.6,4.8-1.1,7.9c0.5,3.1,2.3,8.4,0,16.6c0,0-6.4-0.5-7.7,7.9
					c-1.4,8.4-0.3,16.8-3.5,20.8c0,0,2.6-26.9-7.7-32.7C398.2,590.1,410.5,581.9,409.7,571.6z"/>
				<path class="st12" d="M346.2,554.2c0,0,26.1-6.8,33.8-5.2c0,0,11.1,13.5,18.8,18.8c0,0,6,5,10.8,3.9c0,0,0.2,10.8-9,18.5h-2.4"
					/>
				<path class="st34" d="M368.1,569.5c-1.6-0.8-3.1-1.8-4.5-2.7c-1.4-1-3.1-1.9-4.5-2.7c-2.9-1.9-6-3.9-8.9-6
					c-1.4-1-2.9-2.1-4.2-3.2c-1.4-1.1-2.7-2.3-4.2-3.4c-1.3-1.1-2.7-2.3-4.2-3.4c-1.4-1-2.9-1.9-4.5-2.9c-1.4-1-3.1-1.8-4.7-2.6
					c-1.6-0.8-3.2-1.6-4.7-2.3c-1.6-0.6-3.2-1.4-4.8-2.1s-3.4-1.1-4.8-1.3c-3.5-0.3-7.1-0.6-10.6-1.1c-3.5-0.5-7.1-1-10.5-1.4
					l0.3-0.2c-1,0.8-1.9,1.6-2.9,2.4c-1,0.8-1.8,1.6-2.7,2.6l-0.2-0.2c0.8-1,1.6-1.9,2.4-2.9c0.8-1,1.8-1.8,2.7-2.6l0.2-0.2h0.2
					c3.5,0.3,7.1,0.6,10.6,1l10.5,1c1,0.2,1.9,0.3,2.7,0.6c0.8,0.3,1.8,0.6,2.6,1c1.6,0.6,3.2,1.4,4.8,2.3c3.2,1.6,6.3,3.4,9.2,5.3
					c1.4,1,2.9,1.9,4.3,3.1c0.6,0.5,1.4,1.1,2.1,1.6c0.6,0.5,1.4,1.1,2.1,1.6c1.4,1.1,2.9,2.1,4.3,3.1l4.3,2.9
					c1.4,1,2.9,1.9,4.3,3.1l4.3,3.1l4.3,3.1C365.4,567.4,366.8,568.4,368.1,569.5L368.1,569.5z"/>
				
					<linearGradient id="SVGID_11_" gradientUnits="userSpaceOnUse" x1="322.5491" y1="466.8909" x2="382.7862" y2="466.8909" gradientTransform="matrix(1 0 0 -1 0 1084)">
					<stop  offset="1.897321e-02" style="stop-color:#4C4C4C"/>
					<stop  offset="0.887" style="stop-color:#605F60"/>
				</linearGradient>
				<path class="st35" d="M363.3,659.5c0,0-5.6-17.2-5.6-22.9c0-5.6-0.5-15,21.1-52.3l3.9-7.2l-2.7-3.4l-19.5,14.5
					c0,0-1.1,15.6-12.7,28.3c-11.8,12.7-11.8,23-14.5,25.9c-2.7,3.1-10.3,11.9-10.8,18C322.5,660.7,353.3,657.3,363.3,659.5z"/>
				<path class="st36" d="M361,588.7c0,0,0,0.3,0,1c0,0.6-0.2,1.4-0.3,2.6c-0.3,2.3-1,5.5-2.4,9.2c-0.6,1.8-1.6,3.9-2.6,5.8
					c-0.5,1-1.1,1.9-1.8,2.9c-0.3,0.5-0.6,1-1,1.4c-0.2,0.3-0.3,0.5-0.5,0.8l-0.6,0.6c-0.3,0.5-0.8,1-1.1,1.4
					c-0.3,0.5-0.8,1-1.3,1.4c-0.8,1-1.6,1.9-2.6,2.9c-0.8,1-1.6,1.9-2.4,3.1c-0.3,0.5-0.6,1.1-1.1,1.6l-0.5,0.8l-0.5,0.8
					c-1.3,2.3-2.4,4.5-3.4,6.8c-1,2.3-1.8,4.7-2.6,6.9c-0.3,1.1-0.8,2.3-1.4,3.4c-0.2,0.3-0.3,0.5-0.5,0.8l-0.3,0.3
					c-0.2,0.2-0.2,0.2-0.3,0.3c-0.3,0.5-0.8,0.8-1.1,1.3c-1.4,1.6-2.7,3.2-4,4.8c-1.1,1.4-2.1,3.1-3.1,4.3c-0.8,1.3-1.4,2.6-1.9,3.5
					c-0.5,1-0.6,1.9-0.8,2.4c-0.2,0.6-0.2,1-0.2,1h-0.2c0,0,0-0.3,0-1s0.2-1.4,0.6-2.6c0.6-2.3,2.3-5.2,4.3-8.4
					c1.1-1.6,2.4-3.2,3.9-5c0.3-0.5,0.8-0.8,1.1-1.3c0.2-0.2,0.2-0.2,0.3-0.3l0.2-0.3c0.2-0.2,0.3-0.5,0.5-0.6c0.5-1,1-2.1,1.3-3.2
					c0.8-2.3,1.8-4.7,2.7-6.9c0.3-0.6,0.5-1.1,0.8-1.8c0.3-0.6,0.6-1.1,1-1.8c0.6-1.1,1.3-2.3,2.1-3.2l0.5-0.8l0.6-0.8l1.1-1.6
					c0.5-0.5,0.8-1,1.3-1.4c0.3-0.5,0.8-1,1.3-1.4c0.8-1,1.6-1.9,2.4-2.9c0.3-0.5,0.8-1,1.1-1.4s0.6-1,1-1.4l0.5-0.8
					c0.2-0.3,0.3-0.5,0.5-0.8c0.3-0.5,0.6-1,1-1.4c0.3-0.5,0.5-1,0.8-1.4c0.3-0.5,0.5-1,0.8-1.4c0.5-1,1-1.9,1.4-2.9
					c0.2-0.5,0.5-1,0.6-1.4c0.2-0.5,0.3-1,0.5-1.3c0.8-1.8,1.3-3.4,1.8-5c0.2-0.8,0.5-1.4,0.6-2.1c0.2-0.6,0.3-1.3,0.5-1.8
					c0.3-1.1,0.5-1.9,0.5-2.6C360.9,589,361,588.7,361,588.7L361,588.7z"/>
				<path class="st37" d="M382.9,577.2c0,0-0.2,0.3-0.5,0.8c-0.3,0.5-0.6,1.3-1.1,2.4c-1,2.1-2.6,5-4.3,8.5c-1,1.8-1.9,3.7-3.1,5.6
					c-1.1,1.9-2.3,4-3.5,6.1c-1.3,2.1-2.4,4.3-3.5,6.8c-0.3,0.6-0.6,1.1-0.8,1.8c-0.3,0.6-0.5,1.1-0.8,1.8c-0.5,1.3-1,2.4-1.4,3.7
					c-1,2.4-1.9,5-2.7,7.4c-0.8,2.4-1.4,4.8-1.8,7.2c-0.3,2.4-0.5,4.7-0.3,6.9c0,2.3,0.3,4.3,0.5,6.3c0.2,1,0.3,1.9,0.5,2.7
					s0.3,1.8,0.5,2.4c0.3,1.6,0.6,2.9,1,4c0.6,2.3,1,3.5,1,3.5h-0.2c0,0-0.5-1.3-1.3-3.4c-0.2-0.3-0.2-0.5-0.3-0.8s-0.2-0.6-0.3-1
					c-0.2-0.6-0.5-1.4-0.6-2.1c-0.3-0.8-0.5-1.6-0.6-2.4c-0.2-0.8-0.5-1.8-0.6-2.7c-0.2-1-0.3-1.9-0.5-3.1c0-0.5-0.2-1.1-0.2-1.6
					s-0.2-1.1-0.2-1.8s0-1.1,0-1.8c0-0.6,0-1.1,0-1.8c0-1.3,0.2-2.4,0.3-3.7c0.5-2.4,1.1-5,2.1-7.4c0.5-1.3,1-2.4,1.4-3.7
					c0.5-1.1,1.1-2.4,1.6-3.5c1-2.4,2.3-4.8,3.4-7.1c1.1-2.4,2.3-4.7,3.4-6.9c1.1-2.3,2.1-4.3,3.2-6.4c1.1-1.9,2.1-3.9,3.1-5.6
					c1.9-3.4,3.7-6.3,5-8.2c0.6-1,1.1-1.8,1.4-2.3C382.6,577.4,382.8,577.2,382.9,577.2L382.9,577.2z"/>
				<path class="st38" d="M400.5,674.2c-0.6-0.5-1.4-1-2.1-1.4s-1.4-1-2.1-1.3l-2.1-1.3l-2.3-1.3l-2.3-1.1l-2.3-1.1
					c-0.8-0.3-1.4-0.6-2.3-1c-0.8-0.3-1.6-0.6-2.3-1c-0.8-0.3-1.6-0.6-2.4-1c-0.8-0.3-1.6-0.6-2.4-0.8c-0.8-0.3-1.6-0.5-2.4-0.8
					c-0.3-0.2-0.8-0.3-1.1-0.3l-1.3-0.3c-0.8-0.2-1.6-0.5-2.4-0.6l-2.4-0.5c-0.5,0-0.8-0.2-1.3-0.2l-1.3-0.2l-2.6-0.2l0,0l0,0
					c-0.8-0.2-1.8-0.2-2.6-0.3c-0.8-0.2-1.8-0.2-2.6-0.2c-1.8-0.2-3.4-0.2-5.2-0.2c-0.8,0-1.8,0-2.6,0s-1.8,0-2.6,0h-2.6h-2.6
					l-2.6,0.2c-0.8,0-1.8,0-2.6,0.2c-0.8,0-1.8,0.2-2.6,0.2l-2.6,0.3l-2.6,0.3l-1.3,0.2l-1.3,0.2c-0.8,0.2-1.6,0.2-2.4,0.5l-2.4,0.5
					h0.2c-1.6,0.8-3.2,1.4-4.8,2.3c-1.6,0.6-3.2,1.4-4.8,2.1l-5,2.1c-1.6,0.6-3.4,1.4-5,2.1l-0.2-0.2c1.6-1,3.1-1.8,4.7-2.6l4.7-2.6
					c1.6-0.8,3.2-1.6,4.7-2.6c1.6-0.8,3.2-1.6,4.8-2.4h0.2h0.2l2.6-0.6c0.5-0.2,0.8-0.2,1.3-0.3l1.3-0.2l1.3-0.2l1.3-0.2
					c0.8-0.2,1.8-0.2,2.6-0.3l2.6-0.2c0.8,0,1.8,0,2.6-0.2c0.8,0,1.8,0,2.6,0c0.8,0,1.8,0,2.6,0c1.8,0,3.4,0.2,5.2,0.2
					c1.8,0.2,3.4,0.3,5.2,0.5c1.8,0.2,3.4,0.3,5.2,0.5l2.6,0.3l2.6,0.3l0,0l2.6,0.2h1.3c0.5,0,0.8,0.2,1.3,0.2l2.6,0.3
					c0.8,0.2,1.8,0.3,2.6,0.5l1.3,0.2c0.5,0,0.8,0.2,1.3,0.3c0.8,0.2,1.6,0.3,2.6,0.6c0.8,0.3,1.6,0.5,2.4,0.8
					c0.8,0.3,1.6,0.6,2.4,1c0.8,0.3,1.6,0.6,2.4,1c0.8,0.3,1.6,0.6,2.3,1.1l2.3,1.3c0.8,0.5,1.4,1,2.3,1.3c0.6,0.5,1.4,1,2.1,1.4
					c0.6,0.5,1.4,1,2.1,1.6C398.2,671.8,399.5,672.9,400.5,674.2L400.5,674.2z"/>
				<path class="st39" d="M414.2,567.6c0,0-9.2,5.2-21.1-9.2c0,0,0.8-6.4,7.1-2.7c6.3,3.7,8.7,5.5,12.4,5.5
					C416.1,561.1,417.9,567.4,414.2,567.6z"/>
				<path class="st40" d="M420.5,567.9c-1.3-2.3-2.4-4.7-3.7-6.9l-1.8-3.4l-1.9-3.4l-1.9-3.4l-1-1.6c-0.3-0.5-0.6-1.1-1.1-1.6
					c-0.3-0.5-0.8-1-1.1-1.4c-0.5-0.5-0.8-1-1.3-1.4c-1-1-1.9-1.8-2.9-2.7c-1.9-1.8-4-3.2-6.1-5c-1-0.8-2.1-1.6-3.1-2.6
					c-1-0.8-1.9-1.8-2.9-2.6c-0.5-0.5-1-1-1.4-1.4c-0.2-0.2-0.5-0.5-0.6-0.8c-0.2-0.3-0.5-0.5-0.6-1c0-0.2-0.2-0.3-0.2-0.5l0,0
					c0-0.2,0,0.2,0,0.2l0,0l0,0v-0.2c0,0,0,0.2,0,0l-0.2-0.2c-0.2-0.2-0.3-0.3-0.6-0.5c-0.5-0.3-1-0.6-1.4-1.1
					c-1.1-0.6-2.3-1.3-3.4-1.9c-1.1-0.6-2.3-1.3-3.4-1.8h0.2c-1.3-0.5-2.4-1-3.7-1.3l-1.8-0.6c-0.6-0.2-1.1-0.5-1.8-0.8v-0.2
					c0.6,0.2,1.3,0.2,1.9,0.3l1.9,0.3c1.3,0.3,2.6,0.6,3.7,0.8l0,0l0,0c1.3,0.5,2.4,1,3.7,1.6c1.1,0.5,2.4,1.1,3.5,1.8
					c0.6,0.3,1.1,0.6,1.8,1.1c0.3,0.2,0.6,0.5,0.8,0.8c0,0.2,0.2,0.2,0.2,0.3s0.2,0.3,0.3,0.5v0.2l0,0l0,0v0.2l0,0l0,0
					c0,0.2,0.3,0.3,0.5,0.6l0.6,0.6c0.5,0.5,0.8,1,1.3,1.4c1,1,1.9,1.8,2.7,2.7c1,1,1.9,1.8,2.9,2.7c1.9,1.8,3.7,3.7,5.5,5.6
					l2.7,2.7l1.4,1.4l1.4,1.4c0.5,0.5,0.8,1,1.3,1.4l1.3,1.6c0.3,0.5,0.8,1.1,1.1,1.6c0.3,0.5,0.6,1.1,1.1,1.6
					c0.3,0.6,0.6,1.1,1,1.8l1,1.8c0.6,1.1,1.1,2.4,1.6,3.5c0.5,1.3,1,2.4,1.4,3.7c0.5,1.3,0.8,2.4,1.1,3.7L420.5,567.9z"/>
			</g>
		</g>
	</g>
	<g>
		<defs>
			<rect id="SVGID_12_" x="157.4" y="444.5" width="397.8" height="154.5"/>
		</defs>
		<clipPath id="SVGID_13_">
			<use xlink:href="#SVGID_12_"  style="overflow:visible;"/>
		</clipPath>
		<g id="Carbon" class="st41">
			<g>
				<path class="st8" d="M259.2,657.6c0,0-7.9,4.8,0,10.8c7.9,6,33,22.2,39.8,25.3c6.6,2.9,29.6,8.2,42.2,10.3c0,0,8.9,2.3,11.9-6
					c0,0,6.6-19.3,10.3-23.4L259.2,657.6z"/>
				<path class="st9" d="M352.9,697.7c0,0,0.3-1,0.8-2.4l0,0c0,0-7.6-0.5-12.6-1.9c-5-1.4-9.5-2.9-17.4-1.6
					c-7.9,1.3-17.7,2.6-27.4,0.5c1,0.5,1.8,1,2.4,1.3c6.6,2.9,29.6,8.2,42.2,10.3C341.2,703.7,350,705.9,352.9,697.7z"/>
				<path class="st10" d="M261.8,657.6c0,0-5.3,1.9-3.1,8.9c0,0,7.6,5.2,18.8,12.4c0,0,1.1-2.3,8.4,0c7.2,2.3,11.9,1.9,14.2,0
					c2.3-1.9,13.4-6.3,13.4-6.3L261.8,657.6z"/>
				<path class="st11" d="M404.6,668.7c0,0,6.3-16.8,6.6-24.2c0.3-7.4,2.9-25.3,6-31.9c2.9-6.6,3.7-18.5,3.4-24.8
					c-0.3-6.3,0.2-19.8,0.2-19.8s-6-15.5-12.4-22.1c-6.3-6.6-18.2-15.9-18.5-17.7c-0.3-1.9-9.7-6-9.7-6l-7.4-2.3
					c0,0-28.2,11.4-39,19.3l-2.1,4.8L404.6,668.7z"/>
				<path class="st12" d="M333.8,539.4c0,0-15.6-8.5-22.5-8.9c-6.8-0.3-10.5-2.9-10.5-2.9s-4-0.8-7.4,7.1l14,8.9l26.3,4.3v-8.5
					H333.8L333.8,539.4z"/>
				<path class="st8" d="M404.6,668.7c0,0-2.9-34.1,0-43.5c2.9-9.3,1.1-23.8-1.3-29c-2.4-5-20.3-18.7-20.3-18.7l-9.8,23l-2.9,28.5
					l10,11.1L404.6,668.7z"/>
				<path class="st12" d="M400.8,674.5c0,0,3.9-0.6,3.9-5.8s-9.3-15.9-10-18.5c-0.8-2.6-19.6-17.6-18.8-25.8s-1.9-25.3,7.2-46.9
					l-15.5,13.7l-14.7,37l-0.8,24.2l7.9,12.2L400.8,674.5z"/>
				
					<linearGradient id="SVGID_14_" gradientUnits="userSpaceOnUse" x1="242.5904" y1="458.8398" x2="343.8983" y2="458.8398" gradientTransform="matrix(1 0 0 -1 0 1084)">
					<stop  offset="0.1326" style="stop-color:#4F4F4F"/>
					<stop  offset="0.8605" style="stop-color:#353535"/>
				</linearGradient>
				<path class="st42" d="M262.6,587.9c0,0-12.2,9.3-20,23.4l77.5,51.2l6-1.4l14.5-23.7l3.4-12.9l-27.1-13L262.6,587.9z"/>
				
					<linearGradient id="SVGID_15_" gradientUnits="userSpaceOnUse" x1="236.6311" y1="440.9533" x2="322.6381" y2="440.9533" gradientTransform="matrix(1 0 0 -1 0 1084)">
					<stop  offset="0" style="stop-color:#353535"/>
					<stop  offset="0.8381" style="stop-color:#4C4C4C"/>
				</linearGradient>
				<path class="st43" d="M322.6,661c0,0-52.7-37.8-80-49.6c0,0-6,19.3-6,28.2c0,0,30.4,25.9,47.5,34.8
					C284.1,674.4,291.6,678.1,322.6,661z"/>
				<path class="st15" d="M303.3,670.3c0,0,19,4,34,7.4c15,3.4,15.6-1.6,51.7-3.1c0,0,7.7-1.6,11.8-0.2c0,0-15.6-14.2-37.2-14.7
					c0,0-24.6-3.2-40.7,1.1L303.3,670.3z"/>
				
					<linearGradient id="SVGID_16_" gradientUnits="userSpaceOnUse" x1="268.9748" y1="518.6742" x2="380.1371" y2="518.6742" gradientTransform="matrix(1 0 0 -1 0 1084)">
					<stop  offset="0" style="stop-color:#707070"/>
					<stop  offset="0.5021" style="stop-color:#595959"/>
					<stop  offset="0.8127" style="stop-color:#4C4C4C"/>
				</linearGradient>
				<path class="st44" d="M370.8,569.7c0,0-22.5-13-30-19.3c-7.4-6.3-21.9-13.4-26.3-13.7c-4.5-0.3-21.1-2.3-21.1-2.3
					s-7.1,6-10.3,11.9c-3.4,6-9.7,12.6-10.8,15.6c-1.1,2.9-1.3,4.3-3.4,8.2c-1.9,3.9,91,26.1,91,26.1l20.1-22.1L370.8,569.7z"/>
				
					<linearGradient id="SVGID_17_" gradientUnits="userSpaceOnUse" x1="262.5621" y1="487.7855" x2="360.0044" y2="487.7855" gradientTransform="matrix(1 0 0 -1 0 1084)">
					<stop  offset="1.928110e-02" style="stop-color:#4F4F4F"/>
					<stop  offset="0.409" style="stop-color:#474747"/>
					<stop  offset="1" style="stop-color:#353535"/>
				</linearGradient>
				<path class="st45" d="M360,593c0,0-26.6-18.4-48.5-22.9c-21.9-4.5-42.7,0-42.7,0s-4.8,8.2-6.3,17.7c0,0,11.9,8.5,19.3,11.4
					s25.3,14.8,25.3,14.8s4.8,4,35.1,10.1C342.1,624.4,357.9,608.5,360,593z"/>
				<path class="st18" d="M359.8,593l-10.6-6l-5.3-2.9l-5.3-2.9c-1-0.5-1.8-1-2.6-1.4l-2.7-1.4c-0.8-0.5-1.8-1-2.7-1.4
					c-1-0.5-1.8-1-2.7-1.3c-1-0.5-1.8-0.8-2.7-1.1c-0.5-0.2-1-0.3-1.4-0.5l-1.4-0.5c-1-0.3-1.9-0.6-2.9-1l-2.9-0.8
					c-0.5-0.2-1-0.3-1.4-0.3l-1.4-0.3c-1-0.2-1.9-0.5-2.9-0.5l-3.1-0.5c-1-0.2-1.9-0.2-2.9-0.3l-1.4-0.2l-1.4-0.2
					c-1,0-1.9-0.2-3.1-0.2l-3.1-0.2h-3.1c-1,0-1.9,0-3.1,0H288h-1.4c-1.9,0-4,0.2-6,0.2c-1.9,0.2-4,0.3-6,0.3c-1.9,0.2-4,0.3-6,0.6
					l0.2-0.2c-0.6,1-1.3,2.1-1.9,3.1l-0.2-0.2c0.5-1.1,1-2.3,1.4-3.4v-0.2h0.2c1.9-0.5,4-1,6-1.3c1-0.2,1.9-0.3,3.1-0.5
					c1-0.2,1.9-0.3,3.1-0.3c1-0.2,2.1-0.2,3.1-0.3c1-0.2,2.1-0.2,3.1-0.2h1.4h1.4c1,0,2.1,0,3.1,0s2.1,0,3.1,0.2l3.1,0.2
					c1,0,2.1,0.2,3.1,0.3l1.4,0.2l1.4,0.2c1,0.2,2.1,0.3,3.1,0.5l2.9,0.6c1,0.2,1.9,0.5,2.9,0.8c1,0.3,1.9,0.5,2.9,1l2.9,1l2.9,1.1
					c1.9,0.6,3.7,1.4,5.6,2.1c1.9,0.8,3.7,1.4,5.6,2.3l2.7,1.1c1,0.5,1.8,0.8,2.7,1.3c1,0.5,1.8,1,2.7,1.4c1,0.5,1.8,1,2.7,1.4
					l2.6,1.4l2.6,1.6c1.8,1.1,3.4,2.3,5,3.4c1.6,1.1,3.2,2.4,4.8,3.7L359.8,593z"/>
				<path class="st19" d="M380,549.4c-0.5-0.5-0.8-1.1-1.3-1.6c-0.3-0.6-0.6-1.1-1-1.8c-0.3-0.6-0.6-1.3-0.8-1.9
					c-0.2-0.3-0.2-0.6-0.3-1s-0.2-0.6-0.2-1.1c0-0.3,0-0.6,0-1.1v-0.5c0-0.2,0-0.3,0-0.5l0.2-0.5c0-0.2,0.2-0.3,0.2-0.5l0.2-0.5
					c0-0.2,0.2-0.3,0.3-0.5l0.3-0.5c0-0.2,0.2-0.3,0.2-0.3c0-0.2,0.2-0.2,0.2-0.3s0.2-0.3,0.2-0.3c0.2-0.5,0.3-1.1,0.3-1.8
					c0-1.1-0.2-2.4-0.5-3.7c-0.3-1.3-0.8-2.6-1.3-3.7c-0.5-1.1-1.1-2.4-1.9-3.4c-0.6-1.1-1.4-2.1-2.4-3.2l0.5,0.2
					c-1.3,0.6-2.6,1.3-3.9,1.8c-1.3,0.6-2.6,1.3-3.9,1.8l-7.9,3.5l-7.9,3.5l-1.9,0.8c-0.6,0.3-1.3,0.6-1.9,1l-1.9,1
					c-0.6,0.3-1.3,0.6-1.9,1l-0.2-0.2c1.1-1,2.3-1.8,3.5-2.6c0.6-0.5,1.3-0.8,1.8-1.1c0.6-0.3,1.3-0.8,1.9-1.1
					c0.6-0.3,1.3-0.8,1.9-1.1l1.9-1c0.6-0.3,1.3-0.6,1.9-1c0.6-0.3,1.3-0.6,1.9-1c1.3-0.6,2.6-1.1,4-1.8c1.3-0.5,2.7-1.1,4-1.6
					c1.3-0.5,2.7-1,4-1.4l4.2-1.3l0.3-0.2l0.2,0.3c0.8,1.1,1.4,2.3,2.1,3.4c0.6,1.1,1.4,2.3,2.1,3.4c0.6,1.1,1.3,2.4,1.8,3.7
					c0.5,1.3,1,2.6,1,4c0,0.8,0,1.4-0.3,2.3c0,0.2-0.2,0.3-0.2,0.5c-0.2,0.2-0.2,0.3-0.3,0.5l-0.3,0.5l-0.2,0.3
					c0,0.2-0.2,0.3-0.2,0.3l-0.2,0.5c0,0.2-0.2,0.3-0.2,0.5l-0.2,0.5c0,0.2,0,0.3-0.2,0.5v0.5c0,0.3,0,0.6,0,1s0,0.6,0,1
					s0.2,0.6,0.2,1c0.2,0.6,0.3,1.3,0.5,1.9c0.3,1.3,0.8,2.4,1.4,3.7L380,549.4L380,549.4z"/>
				<path class="st20" d="M322.6,661c0,0-1.3-0.6-3.5-1.9c-0.5-0.3-1.1-0.6-1.8-1.1c-0.6-0.3-1.4-0.8-2.1-1.3
					c-1.6-1-3.2-2.1-5.2-3.2c-1.8-1.3-3.9-2.6-6-4c-2.1-1.4-4.2-3.1-6.3-4.8c-2.3-1.6-4.5-3.4-6.9-5c-2.4-1.6-5-3.1-7.6-4.5
					c-2.6-1.4-5.2-2.9-7.7-4.3c-2.4-1.4-5-2.9-7.4-4.2c-2.4-1.4-4.7-2.7-6.9-4c-2.1-1.3-4.2-2.6-6.1-3.7c-1.9-1.1-3.7-2.1-5.2-3.1
					c-0.8-0.5-1.4-1-2.1-1.3c-0.6-0.3-1.3-0.8-1.9-1.1c-2.3-1.3-3.5-2.1-3.5-2.1l0.2-0.2c0,0,1.4,0.5,3.9,1.3
					c0.6,0.2,1.3,0.5,2.1,0.8c0.6,0.3,1.4,0.6,2.3,1c1.6,0.8,3.5,1.6,5.5,2.6c1.9,1,4.2,2.1,6.3,3.4c2.3,1.3,4.5,2.6,6.9,4
					c2.4,1.4,4.8,3.1,7.2,4.7c1.3,0.8,2.4,1.6,3.7,2.4c1.1,0.8,2.4,1.8,3.5,2.6c2.4,1.8,4.8,3.5,7.2,5c2.4,1.6,4.8,3.1,7.2,4.5
					s4.7,2.7,6.9,4c2.1,1.4,4,2.7,5.8,4c1.8,1.3,3.4,2.6,4.8,3.7c1.4,1.1,2.6,2.1,3.7,2.9c1.9,1.6,3.1,2.7,3.1,2.7L322.6,661z"/>
				<path class="st21" d="M322,674.2c0,0,15.8-15.1,54.1-11.9c0,0-43-11.9-69.6,6.3l-1.9,1.3L322,674.2z"/>
				<path class="st22" d="M384.3,665c-3.4-1.4-21.6-6.8-28.8-5.8c-0.2,0-0.3,0-0.5,0c11.8,1,20.3,3.4,20.3,3.4
					c-38.3-3.4-54.1,11.9-54.1,11.9l-4-1l-0.3,0.2l17.7,3.7c0,0,6.8,4,24.5,0c0,0,14.8-4.5,22.9-4.3
					C390.3,673.4,387.7,666.5,384.3,665z"/>
				<path class="st23" d="M306.9,664.9c0,0-11.1,6.9-18.8,8.1c0,0-6.4,0-15-8.1"/>
				<path class="st24" d="M285.9,639.9c0,0-23.5-16.1-35.4-22.2c0,0-3.1,6.4-2.6,9.7c0.5,3.4,13.5,13.9,14.7,14.2
					c1.1,0.3,3.4-1.1,8.7,0C276.6,642.6,286.9,646.5,285.9,639.9z"/>
				<path class="st23" d="M271.1,594.3c0,0,8.7,10.8,16.8,16.9c8.1,6.1,18.4,9.7,23.4,11.9s13.4,2.7,18,7.6s5.8,9.5,5.8,9.5
					s3.5-9.2,6.1-13.2l-7.6-2.4c0,0-7.2-1.8-13.5-4.3c-6.4-2.6-23.2-11.6-23.2-11.6l-7.1-4.2l-5.6-2.9
					C284.3,601.4,271.3,595.6,271.1,594.3z"/>
				<path class="st25" d="M263,586.6c0,0.8-0.2,1.4-0.2,2.3l-0.2-0.3l5.5,3.4c1.8,1.1,3.7,2.3,5.5,3.2c1,0.5,1.9,1.1,2.7,1.6
					c1,0.5,1.9,1,2.7,1.4l1.4,0.8l1.4,0.6c0.5,0.2,1,0.5,1.4,0.8l1.4,0.8c1,0.5,1.9,1.1,2.7,1.6c1,0.5,1.8,1.1,2.7,1.6
					s1.9,1.1,2.7,1.6l2.7,1.6c3.7,2.1,7.6,4.2,11.3,6.6l0,0c0,0,0.2,0.2,0.3,0.2c0.2,0.2,0.3,0.2,0.5,0.3c0.3,0.2,0.6,0.3,1,0.5
					c0.6,0.3,1.4,0.6,2.1,0.8c1.4,0.5,2.9,1,4.3,1.4l2.1,0.6l2.3,0.6c0.6,0.2,1.4,0.5,2.3,0.6l2.3,0.6c1.4,0.5,2.9,0.8,4.3,1.3
					l4.3,1.3l4.3,1.3c1.4,0.5,2.9,0.8,4.3,1.3v0.2c-1.4-0.2-3.1-0.5-4.5-0.6s-3.1-0.5-4.5-0.8c-1.4-0.3-3.1-0.6-4.5-0.8
					c-1.4-0.3-3.1-0.6-4.5-1l-2.3-0.6c-0.8-0.2-1.4-0.3-2.3-0.6c-1.4-0.5-2.9-0.8-4.3-1.3c-1.4-0.5-2.9-1-4.3-1.6
					c-0.6-0.3-1.4-0.6-2.1-1c-0.3-0.2-0.6-0.3-1.1-0.5c-0.2-0.2-0.3-0.2-0.5-0.3s-0.3-0.2-0.6-0.3l0,0c-1.8-1.3-3.5-2.4-5.3-3.7
					c-1.8-1.3-3.5-2.4-5.3-3.7c-1.8-1.1-3.7-2.3-5.5-3.4c-1.9-1.1-3.9-2.1-5.8-2.9l-1.4-0.6l-1.4-0.6l-1.4-0.6
					c-0.5-0.2-1-0.5-1.4-0.6c-1.9-1-3.9-2.1-5.8-3.2c-1-0.5-1.8-1.1-2.7-1.8c-1-0.6-1.8-1.3-2.7-1.8c-0.8-0.6-1.8-1.3-2.6-1.9
					c-0.8-0.6-1.8-1.3-2.6-2.1l-0.2-0.2v-0.2c0.2-0.6,0.3-1.4,0.6-2.1L263,586.6z"/>
				<path class="st26" d="M301.1,627.3c0,0-8.9,8.9-13.9,15.5c0,0,18,9.5,24.6,14.7c0,0,1.3-6.1-2.3-8.5c-3.5-2.6-9.7-2.4-8.7-6.4
					c1-4,3.9-10.6,2.4-11.8C301.9,629.4,303.3,625.1,301.1,627.3z"/>
				<path class="st27" d="M342,624.3c1.6-2.4,3.4-4.8,5.8-7.6c1.3-1.4,2.4-2.9,3.4-4.2c-4.3-2.1-28.3-13.7-34.5-18
					c-9-6.6-27.9-17.4-34.3-16.9c0,0,1.4,2.9,2.1,6.6c0.6,3.7,9.3,6.4,13.7,12.1s2.6,8.7,5.5,11c2.9,2.3,12.2,4,14.7,8.2
					s21.9,8.7,21.9,8.7S341.2,624.3,342,624.3z"/>
				<path class="st28" d="M351.6,613.6c0,0-4.3-2.1-11-5.5c-3.2-1.6-7.1-3.7-11.1-5.8c-2.1-1.1-4.2-2.3-6.3-3.4
					c-2.1-1.1-4.2-2.4-6.3-3.9c-1.9-1.4-4-2.9-6-4.2s-4-2.6-6-3.7c-3.9-2.4-7.7-4.3-11-6c-3.2-1.6-6.1-2.7-8.2-3.2
					c-1-0.3-1.9-0.5-2.4-0.5c-0.3,0-0.5,0-0.6,0s-0.2,0-0.2,0s0,0,0.2,0s0.3,0,0.6,0c0.6,0,1.4,0.2,2.4,0.3c2.1,0.5,5,1.4,8.4,3.1
					c3.4,1.4,7.2,3.5,11.1,5.8c1.9,1.1,4,2.4,6.1,3.5c2.1,1.3,4,2.6,6.1,4c1.9,1.3,4.2,2.4,6.3,3.7c2.1,1.1,4.2,2.3,6.3,3.2
					c4,2.1,7.9,3.9,11.3,5.5c6.6,3.2,11.1,5.2,11.1,5.2L351.6,613.6z"/>
				
					<linearGradient id="SVGID_18_" gradientUnits="userSpaceOnUse" x1="348.8106" y1="462.822" x2="348.8106" y2="428.2623" gradientTransform="matrix(1 0 0 -1 0 1084)">
					<stop  offset="5.118534e-03" style="stop-color:#4C4C4C"/>
					<stop  offset="1" style="stop-color:#353535"/>
				</linearGradient>
				<path class="st46" d="M360,655.7c0,0-11-14.8-1.9-34.6l-8.4,1.9l-7.6,13l-4.5,19.6C337.6,655.7,348.6,653.3,360,655.7z"/>
				
					<linearGradient id="SVGID_19_" gradientUnits="userSpaceOnUse" x1="329.3537" y1="505.3061" x2="376.1318" y2="505.3061" gradientTransform="matrix(1 0 0 -1 0 1084)">
					<stop  offset="5.118534e-03" style="stop-color:#4C4C4C"/>
					<stop  offset="1" style="stop-color:#353535"/>
				</linearGradient>
				<path class="st47" d="M376.1,575c0,0-13.7,8.7-14.2,9.7c0,0-2.9,1.9-2.7,4.5c0,0-20.6-13-29.8-16.1l14.5-4.8l7.4,2.9
					c0,0,4.5-2.1,8.7-1.3c4.2,0.8,6.6,1.9,9.2,1.9C369.2,571.8,374.5,573.9,376.1,575z"/>
				
					<linearGradient id="SVGID_20_" gradientUnits="userSpaceOnUse" x1="274.3196" y1="532.5255" x2="313.6186" y2="532.5255" gradientTransform="matrix(1 0 0 -1 0 1084)">
					<stop  offset="0" style="stop-color:#707070"/>
					<stop  offset="0.8127" style="stop-color:#4C4C4C"/>
				</linearGradient>
				<path class="st48" d="M274.3,565.3c0,0,14.5-2.1,25.9,0l13.4-24.5c0,0-18-2.4-19.6-3.2C294,537.6,275.9,559.8,274.3,565.3z"/>
				
					<linearGradient id="SVGID_21_" gradientUnits="userSpaceOnUse" x1="337.693" y1="549.0343" x2="374.9329" y2="549.0343" gradientTransform="matrix(1 0 0 -1 0 1084)">
					<stop  offset="5.118534e-03" style="stop-color:#4C4C4C"/>
					<stop  offset="1" style="stop-color:#353535"/>
				</linearGradient>
				<path class="st49" d="M374.3,545.8c0,0-1.6-6.1,0-8.2s-0.8-11.8-3.5-13.5c0,0-27.1,12.2-33,16.1
					C337.6,540.2,364,533.1,374.3,545.8z"/>
				<path class="st22" d="M357.9,637c0,0,9-17.9,12.9-19.8c0,0-2.3,14.3,12.9,21.3l-7.6-10.6c0,0-0.8-5.8-0.3-8.1
					c0.5-2.3,1.1-17.1,1.1-17.1s1.4-16.9,3.9-18.2c0,0-2.9,1.8-4.7,5.2C374.3,593,356.3,627.3,357.9,637z"/>
				<path class="st33" d="M401.2,674.2c0,0,0.2,0,0.3-0.2s0.3-0.3,0.6-0.6c0.5-0.5,1.1-1.6,1.3-2.9c0-0.3,0-0.8,0-1.1
					c0-0.2,0-0.2,0-0.3l0,0l0,0v-0.2c0-0.2,0-0.5-0.2-0.6c0-0.5-0.2-0.8-0.3-1.3s-0.3-1-0.5-1.3c-0.8-1.8-2.1-3.7-3.4-5.8
					c-1.4-2.1-3.1-4.3-4.5-6.8c-0.3-0.6-0.8-1.3-1.1-2.1v-0.2l0,0c0,0,0,0.2,0,0l0,0c0-0.2,0-0.2-0.2-0.3c0-0.2-0.2-0.2-0.2-0.3
					c-0.2-0.3-0.5-0.6-0.6-0.8c-1-1.1-2.1-2.3-3.1-3.4c-2.1-2.3-4.3-4.7-6.6-7.1c-1.1-1.3-2.3-2.4-3.2-3.9c-1.1-1.3-2.1-2.7-2.9-4.2
					c-0.8-1.4-1.6-3.1-1.9-4.8c0-0.2,0-0.5,0-0.6s0-0.5,0-0.6v-1.3c0-0.8,0-1.6,0-2.4c0-3.4,0-6.6,0-9.8c0-3.2,0.3-6.3,0.6-9.2
					c0.3-2.9,0.8-5.6,1.4-8.1c0.6-2.4,1.1-4.7,1.8-6.8c0.2-0.5,0.3-1,0.5-1.4c0.2-0.5,0.3-1,0.5-1.3c0.3-0.8,0.6-1.6,0.8-2.3
					c0.6-1.3,1.1-2.4,1.4-3.2c0.3-0.6,0.5-1.1,0.5-1.1h0.2c0,0-0.2,0.3-0.3,1.1c-0.3,0.8-0.6,1.8-1.1,3.2c-0.2,0.6-0.5,1.4-0.6,2.3
					c-0.2,0.5-0.3,0.8-0.5,1.3c-0.2,0.5-0.3,1-0.3,1.4c-0.5,1.9-1.1,4.2-1.6,6.6c-0.2,1.3-0.5,2.6-0.6,3.9c-0.2,0.6-0.2,1.3-0.3,2.1
					c0,0.6-0.2,1.4-0.3,2.1c-0.2,0.6-0.2,1.4-0.2,2.1c0,0.8-0.2,1.4-0.2,2.3c-0.2,1.4-0.2,3.1-0.3,4.7c-0.2,3.2-0.2,6.4-0.2,9.7
					c0,0.8,0,1.6-0.2,2.6c0,0.8-0.2,1.6-0.2,2.4c0.2,1.6,0.8,3.1,1.4,4.5c0.8,1.4,1.8,2.9,2.7,4.2c1,1.3,2.1,2.6,3.2,3.9
					c2.3,2.4,4.5,4.7,6.9,6.9c1.1,1.1,2.3,2.1,3.4,3.2c0.3,0.3,0.5,0.6,0.8,1c0.2,0.2,0.3,0.3,0.3,0.5c0,0.2,0.2,0.2,0.2,0.3l0,0
					v0.2l0,0v0.2c0.2,0.6,0.6,1.3,1,1.8c1.6,2.4,3.2,4.7,4.5,6.8c1.3,2.1,2.6,4.2,3.2,6.1c0.2,0.5,0.3,1,0.5,1.4
					c0.2,0.5,0.3,1,0.3,1.4c0,0.2,0,0.5,0,0.6v0.2v0.2v0.2c0,0.2,0,0.2,0,0.3c0,0.5-0.2,0.8-0.2,1.1c-0.3,1.4-1.1,2.6-1.6,3.1
					c-0.3,0.3-0.5,0.5-0.8,0.5C401.4,674.2,401.4,674.4,401.2,674.2L401.2,674.2z"/>
				<path class="st22" d="M409.8,571.9c0,0,6.9-0.5,8.9-2.1c0,0-1.6,4.8-1.1,7.9c0.5,3.1,2.3,8.4,0,16.6c0,0-6.4-0.5-7.7,7.9
					c-1.4,8.4-0.3,16.8-3.5,20.8c0,0,2.6-26.9-7.7-32.7C398.3,590.5,410.6,582.2,409.8,571.9z"/>
				<path class="st12" d="M346.3,554.5c0,0,26.1-6.8,33.8-5.2c0,0,11.1,13.5,18.8,18.8c0,0,6,5,10.8,3.9c0,0,0.2,10.8-9,18.5h-2.4"
					/>
				<path class="st34" d="M368.2,569.8c-1.6-0.8-3.1-1.8-4.5-2.7c-1.4-1-3.1-1.9-4.5-2.7c-2.9-1.9-6-3.9-8.9-6
					c-1.4-1-2.9-2.1-4.2-3.2c-1.4-1.1-2.7-2.3-4.2-3.4c-1.3-1.1-2.7-2.3-4.2-3.4c-1.4-1-2.9-1.9-4.5-2.9c-1.4-1-3.1-1.8-4.7-2.6
					s-3.2-1.6-4.7-2.3c-1.6-0.6-3.2-1.4-4.8-2.1c-1.6-0.6-3.4-1.1-4.8-1.3c-3.5-0.3-7.1-0.6-10.6-1.1c-3.5-0.5-7.1-1-10.5-1.4
					l0.3-0.2c-1,0.8-1.9,1.6-2.9,2.4c-1,0.8-1.8,1.6-2.7,2.6l-0.2-0.2c0.8-1,1.6-1.9,2.4-2.9c0.8-1,1.8-1.8,2.7-2.6l0.2-0.2h0.2
					c3.5,0.3,7.1,0.6,10.6,1l10.5,1c1,0.2,1.9,0.3,2.7,0.6c0.8,0.3,1.8,0.6,2.6,1c1.6,0.6,3.2,1.4,4.8,2.3c3.2,1.6,6.3,3.4,9.2,5.3
					c1.4,1,2.9,1.9,4.3,3.1c0.6,0.5,1.4,1.1,2.1,1.6c0.6,0.5,1.4,1.1,2.1,1.6c1.4,1.1,2.9,2.1,4.3,3.1l4.3,2.9
					c1.4,1,2.9,1.9,4.3,3.1l4.3,3.1l4.3,3.1C365.5,567.7,366.9,568.7,368.2,569.8L368.2,569.8z"/>
				
					<linearGradient id="SVGID_22_" gradientUnits="userSpaceOnUse" x1="322.6561" y1="466.5679" x2="382.8932" y2="466.5679" gradientTransform="matrix(1 0 0 -1 0 1084)">
					<stop  offset="1.897321e-02" style="stop-color:#4C4C4C"/>
					<stop  offset="0.887" style="stop-color:#605F60"/>
				</linearGradient>
				<path class="st50" d="M363.4,659.9c0,0-5.6-17.2-5.6-22.9s-0.5-15,21.1-52.3l3.9-7.2L380,574l-19.5,14.5c0,0-1.1,15.6-12.7,28.3
					c-11.8,12.7-11.8,23-14.5,25.9c-2.7,3.1-10.3,11.9-10.8,18C322.6,661,353.4,657.6,363.4,659.9z"/>
				<path class="st36" d="M361.1,589c0,0,0,0.3,0,1s-0.2,1.4-0.3,2.6c-0.3,2.3-1,5.5-2.4,9.2c-0.6,1.8-1.6,3.9-2.6,5.8
					c-0.5,1-1.1,1.9-1.8,2.9c-0.3,0.5-0.6,1-1,1.4c-0.2,0.3-0.3,0.5-0.5,0.8l-0.6,0.6c-0.3,0.5-0.8,1-1.1,1.4
					c-0.3,0.5-0.8,1-1.3,1.4c-0.8,1-1.6,1.9-2.6,2.9c-0.8,1-1.6,1.9-2.4,3.1c-0.3,0.5-0.6,1.1-1.1,1.6l-0.5,0.8l-0.5,0.8
					c-1.3,2.3-2.4,4.5-3.4,6.8c-1,2.3-1.8,4.7-2.6,6.9c-0.3,1.1-0.8,2.3-1.4,3.4c-0.2,0.3-0.3,0.5-0.5,0.8l-0.3,0.3
					c-0.2,0.2-0.2,0.2-0.3,0.3c-0.3,0.5-0.8,0.8-1.1,1.3c-1.4,1.6-2.7,3.2-4,4.8c-1.1,1.4-2.1,3.1-3.1,4.3c-0.8,1.3-1.4,2.6-1.9,3.5
					s-0.6,1.9-0.8,2.4c-0.2,0.6-0.2,1-0.2,1h-0.2c0,0,0-0.3,0-1c0-0.6,0.2-1.4,0.6-2.6c0.6-2.3,2.3-5.2,4.3-8.4
					c1.1-1.6,2.4-3.2,3.9-5c0.3-0.5,0.8-0.8,1.1-1.3c0.2-0.2,0.2-0.2,0.3-0.3l0.2-0.3c0.2-0.2,0.3-0.5,0.5-0.6c0.5-1,1-2.1,1.3-3.2
					c0.8-2.3,1.8-4.7,2.7-6.9c0.3-0.6,0.5-1.1,0.8-1.8c0.3-0.6,0.6-1.1,1-1.8c0.6-1.1,1.3-2.3,2.1-3.2l0.5-0.8l0.6-0.8l1.1-1.6
					c0.5-0.5,0.8-1,1.3-1.4c0.3-0.5,0.8-1,1.3-1.4c0.8-1,1.6-1.9,2.4-2.9c0.3-0.5,0.8-1,1.1-1.4c0.3-0.5,0.6-1,1-1.4l0.5-0.8
					c0.2-0.3,0.3-0.5,0.5-0.8c0.3-0.5,0.6-1,1-1.4c0.3-0.5,0.5-1,0.8-1.4s0.5-1,0.8-1.4c0.5-1,1-1.9,1.4-2.9c0.2-0.5,0.5-1,0.6-1.4
					c0.2-0.5,0.3-1,0.5-1.3c0.8-1.8,1.3-3.4,1.8-5c0.2-0.8,0.5-1.4,0.6-2.1c0.2-0.6,0.3-1.3,0.5-1.8c0.3-1.1,0.5-1.9,0.5-2.6
					C361,589.3,361.1,589,361.1,589L361.1,589z"/>
				<path class="st37" d="M383,577.6c0,0-0.2,0.3-0.5,0.8c-0.3,0.5-0.6,1.3-1.1,2.4c-1,2.1-2.6,5-4.3,8.5c-1,1.8-1.9,3.7-3.1,5.6
					c-1.1,1.9-2.3,4-3.5,6.1c-1.3,2.1-2.4,4.3-3.5,6.8c-0.3,0.6-0.6,1.1-0.8,1.8c-0.3,0.6-0.5,1.1-0.8,1.8c-0.5,1.3-1,2.4-1.4,3.7
					c-1,2.4-1.9,5-2.7,7.4c-0.8,2.4-1.4,4.8-1.8,7.2c-0.3,2.4-0.5,4.7-0.3,6.9c0,2.3,0.3,4.3,0.5,6.3c0.2,1,0.3,1.9,0.5,2.7
					s0.3,1.8,0.5,2.4c0.3,1.6,0.6,2.9,1,4c0.6,2.3,1,3.5,1,3.5h-0.2c0,0-0.5-1.3-1.3-3.4c-0.2-0.3-0.2-0.5-0.3-0.8
					c-0.2-0.3-0.2-0.6-0.3-1c-0.2-0.6-0.5-1.4-0.6-2.1c-0.3-0.8-0.5-1.6-0.6-2.4c-0.2-0.8-0.5-1.8-0.6-2.7c-0.2-1-0.3-1.9-0.5-3.1
					c0-0.5-0.2-1.1-0.2-1.6c0-0.5-0.2-1.1-0.2-1.8s0-1.1,0-1.8s0-1.1,0-1.8c0-1.3,0.2-2.4,0.3-3.7c0.5-2.4,1.1-5,2.1-7.4
					c0.5-1.3,1-2.4,1.4-3.7c0.5-1.1,1.1-2.4,1.6-3.5c1-2.4,2.3-4.8,3.4-7.1c1.1-2.4,2.3-4.7,3.4-6.9c1.1-2.3,2.1-4.3,3.2-6.4
					c1.1-1.9,2.1-3.9,3.1-5.6c1.9-3.4,3.7-6.3,5-8.2c0.6-1,1.1-1.8,1.4-2.3C382.7,577.7,382.9,577.6,383,577.6L383,577.6z"/>
				<path class="st38" d="M400.6,674.5c-0.6-0.5-1.4-1-2.1-1.4c-0.6-0.5-1.4-1-2.1-1.3l-2.1-1.3l-2.3-1.3l-2.3-1.1l-2.3-1.1
					c-0.8-0.3-1.4-0.6-2.3-1c-0.8-0.3-1.6-0.6-2.3-1c-0.8-0.3-1.6-0.6-2.4-1c-0.8-0.3-1.6-0.6-2.4-0.8c-0.8-0.3-1.6-0.5-2.4-0.8
					c-0.3-0.2-0.8-0.3-1.1-0.3l-1.3-0.3c-0.8-0.2-1.6-0.5-2.4-0.6l-2.4-0.5c-0.5,0-0.8-0.2-1.3-0.2l-1.3-0.2l-2.6-0.2l0,0l0,0
					c-0.8-0.2-1.8-0.2-2.6-0.3c-0.8-0.2-1.8-0.2-2.6-0.2c-1.8-0.2-3.4-0.2-5.2-0.2c-0.8,0-1.8,0-2.6,0c-0.8,0-1.8,0-2.6,0h-2.6h-2.6
					l-2.6,0.2c-0.8,0-1.8,0-2.6,0.2c-0.8,0-1.8,0.2-2.6,0.2l-2.6,0.3l-2.6,0.3l-1.3,0.2l-1.3,0.2c-0.8,0.2-1.6,0.2-2.4,0.5l-2.4,0.5
					h0.2c-1.6,0.8-3.2,1.4-4.8,2.3c-1.6,0.6-3.2,1.4-4.8,2.1l-5,2.1c-1.6,0.6-3.4,1.4-5,2.1l-0.2-0.2c1.6-1,3.1-1.8,4.7-2.6l4.7-2.6
					c1.6-0.8,3.2-1.6,4.7-2.6c1.6-0.8,3.2-1.6,4.8-2.4h0.2h0.2l2.6-0.6c0.5-0.2,0.8-0.2,1.3-0.3l1.3-0.2l1.3-0.2l1.3-0.2
					c0.8-0.2,1.8-0.2,2.6-0.3l2.6-0.2c0.8,0,1.8,0,2.6-0.2c0.8,0,1.8,0,2.6,0c0.8,0,1.8,0,2.6,0c1.8,0,3.4,0.2,5.2,0.2
					c1.8,0.2,3.4,0.3,5.2,0.5c1.8,0.2,3.4,0.3,5.2,0.5l2.6,0.3l2.6,0.3l0,0l2.6,0.2h1.3c0.5,0,0.8,0.2,1.3,0.2l2.6,0.3
					c0.8,0.2,1.8,0.3,2.6,0.5l1.3,0.2c0.5,0,0.8,0.2,1.3,0.3c0.8,0.2,1.6,0.3,2.6,0.6c0.8,0.3,1.6,0.5,2.4,0.8
					c0.8,0.3,1.6,0.6,2.4,1s1.6,0.6,2.4,1s1.6,0.6,2.3,1.1l2.3,1.3c0.8,0.5,1.4,1,2.3,1.3c0.6,0.5,1.4,1,2.1,1.4
					c0.6,0.5,1.4,1,2.1,1.6C398.3,672.1,399.6,673.2,400.6,674.5L400.6,674.5z"/>
				<path class="st39" d="M414.3,567.9c0,0-9.2,5.2-21.1-9.2c0,0,0.8-6.4,7.1-2.7s8.7,5.5,12.4,5.5
					C416.2,561.5,418,567.7,414.3,567.9z"/>
				<path class="st40" d="M420.6,568.2c-1.3-2.3-2.4-4.7-3.7-6.9l-1.8-3.4l-1.9-3.4l-1.9-3.4l-1-1.6c-0.3-0.5-0.6-1.1-1.1-1.6
					c-0.3-0.5-0.8-1-1.1-1.4c-0.5-0.5-0.8-1-1.3-1.4c-1-1-1.9-1.8-2.9-2.7c-1.9-1.8-4-3.2-6.1-5c-1-0.8-2.1-1.6-3.1-2.6
					c-1-0.8-1.9-1.8-2.9-2.6c-0.5-0.5-1-1-1.4-1.4c-0.2-0.2-0.5-0.5-0.6-0.8s-0.5-0.5-0.6-1c0-0.2-0.2-0.3-0.2-0.5l0,0
					c0-0.2,0,0.2,0,0.2l0,0l0,0v-0.2c0,0,0,0.2,0,0l-0.2-0.2c-0.2-0.2-0.3-0.3-0.6-0.5c-0.5-0.3-1-0.6-1.4-1.1
					c-1.1-0.6-2.3-1.3-3.4-1.9s-2.3-1.3-3.4-1.8h0.2c-1.3-0.5-2.4-1-3.7-1.3l-1.8-0.6c-0.6-0.2-1.1-0.5-1.8-0.8v-0.2
					c0.6,0.2,1.3,0.2,1.9,0.3l1.9,0.3c1.3,0.3,2.6,0.6,3.7,0.8l0,0l0,0c1.3,0.5,2.4,1,3.7,1.6c1.1,0.5,2.4,1.1,3.5,1.8
					c0.6,0.3,1.1,0.6,1.8,1.1c0.3,0.2,0.6,0.5,0.8,0.8c0,0.2,0.2,0.2,0.2,0.3s0.2,0.3,0.3,0.5v0.2l0,0l0,0v0.2l0,0l0,0
					c0,0.2,0.3,0.3,0.5,0.6l0.6,0.6c0.5,0.5,0.8,1,1.3,1.4c1,1,1.9,1.8,2.7,2.7c1,1,1.9,1.8,2.9,2.7c1.9,1.8,3.7,3.7,5.5,5.6
					l2.7,2.7l1.4,1.4l1.4,1.4c0.5,0.5,0.8,1,1.3,1.4l1.3,1.6c0.3,0.5,0.8,1.1,1.1,1.6c0.3,0.5,0.6,1.1,1.1,1.6
					c0.3,0.6,0.6,1.1,1,1.8l1,1.8c0.6,1.1,1.1,2.4,1.6,3.5c0.5,1.3,1,2.4,1.4,3.7c0.5,1.3,0.8,2.4,1.1,3.7L420.6,568.2z"/>
			</g>
		</g>
	</g>
</g>
<g>
	<defs>
		<path id="SVGID_23_" d="M353.3,527.7c0,0,8.3,1.9,8.2,4c-0.1,2.1,5.8,5.3,5.8,5.3l5.8,8l2,6.2c0,0,11,19.2,28.7,18.5
			c0,0-20-9.9-24.7-24.8l3-4.5l2.4-5.7l2.1-2.4l4.6,3.1l1.4,4.8h3.7l5.9,3.2l2.8-0.5l1.5-13.9l-26.1-15l-13.9,2.2l-10.7,5.6
			L353.3,527.7z"/>
	</defs>
	<clipPath id="SVGID_24_">
		<use xlink:href="#SVGID_23_"  style="overflow:visible;"/>
	</clipPath>
	<g class="st51">
		<path class="st52" d="M403.6,663.1c0,0,6-16,6.4-23.2c0.3-7.2,2.8-24.2,5.7-30.6c2.8-6.4,3.5-17.8,3.2-23.9c-0.3-6,0.1-19,0.1-19
			s-5.8-14.9-11.8-21.2s-17.4-15.4-17.8-17.1c-0.3-1.8-9.2-5.7-9.2-5.7l-7.2-2.2c0,0-27.1,11-37.4,18.5l-2.1,4.7L403.6,663.1z"/>
		<path class="st53" d="M380.1,548.4c-0.4-0.5-0.8-1-1.2-1.5c-0.3-0.6-0.6-1.1-1-1.7c-0.3-0.6-0.6-1.2-0.7-1.8
			c-0.1-0.3-0.2-0.6-0.2-1c-0.1-0.3-0.2-0.6-0.2-1c-0.1-0.3-0.1-0.7-0.1-1v-0.6c0-0.2,0.1-0.3,0.1-0.6l0.1-0.6
			c0.1-0.2,0.1-0.3,0.2-0.5l0.2-0.5c0.1-0.2,0.2-0.3,0.2-0.5l0.2-0.5c0-0.1,0.2-0.2,0.2-0.4c0.1-0.2,0.1-0.2,0.2-0.3
			c0.1-0.1,0.1-0.2,0.2-0.4c0.2-0.5,0.2-1,0.2-1.6c0-1.1-0.2-2.3-0.4-3.5c-0.3-1.2-0.7-2.4-1.3-3.5c-0.6-1.1-1.1-2.3-1.8-3.3
			c-0.7-1-1.4-2.1-2.3-3.1l0.5,0.2c-1.3,0.6-2.5,1.2-3.8,1.8c-1.3,0.6-2.5,1.1-3.8,1.8l-7.6,3.5l-7.6,3.3l-1.9,0.9
			c-0.6,0.3-1.3,0.6-1.9,0.9l-1.9,0.9c-0.6,0.3-1.2,0.6-1.8,0.9l-0.1-0.2c1-0.9,2.3-1.7,3.4-2.5c0.6-0.4,1.2-0.7,1.8-1.1
			c0.6-0.4,1.2-0.7,1.8-1c0.6-0.3,1.2-0.7,1.8-1l1.8-1c0.6-0.3,1.3-0.6,1.8-0.9c0.6-0.3,1.3-0.6,1.9-0.9c1.3-0.6,2.6-1.1,3.9-1.7
			c1.3-0.6,2.6-1,3.9-1.5c1.3-0.5,2.6-1,3.9-1.4l4-1.3l0.3-0.1l0.2,0.2c0.7,1,1.4,2.2,2.1,3.3c0.6,1.1,1.4,2.2,1.9,3.3
			c0.6,1.1,1.3,2.3,1.8,3.5c0.5,1.2,0.9,2.5,1,3.9c0,0.7-0.1,1.4-0.2,2.2c-0.1,0.2-0.1,0.3-0.2,0.6c-0.1,0.2-0.2,0.4-0.2,0.6
			l-0.2,0.4l-0.2,0.3c-0.1,0.1-0.2,0.2-0.2,0.3l-0.2,0.4c-0.1,0.2-0.1,0.2-0.2,0.4l-0.1,0.4c0,0.2-0.1,0.2-0.1,0.4v0.4
			c0,0.3,0,0.6,0,0.9s0,0.6,0.1,0.9c0,0.3,0.1,0.6,0.2,0.9c0.1,0.6,0.2,1.2,0.5,1.8c0.4,1.2,0.8,2.3,1.4,3.5H380.1z"/>
		<path class="st54" d="M374.6,545.1c0,0-1.6-5.9,0-7.9c1.6-2-0.8-11.3-3.5-12.9c0,0-26,11.7-31.8,15.5
			C339.3,539.7,364.7,532.8,374.6,545.1z"/>
		<path class="st55" d="M347.6,553.4c0,0,25.1-6.4,32.5-5c0,0,10.6,12.9,18.1,18.1c0,0,5.7,4.7,10.4,3.7c0,0,0.2,10.4-8.7,17.8h-2.3
			"/>
		<path class="st39" d="M412.9,566.2c0,0-8.9,5-20.3-8.9c0,0,0.9-6.1,6.8-2.7c5.9,3.5,8.4,5.3,11.9,5.3
			C414.9,560,416.5,566.1,412.9,566.2z"/>
		<path class="st53" d="M419,566.5c-1.2-2.2-2.4-4.4-3.5-6.6l-1.8-3.3l-1.8-3.3l-1.8-3.2l-1-1.6c-0.3-0.6-0.6-1-1-1.5
			c-0.3-0.5-0.7-1-1.1-1.4c-0.4-0.5-0.8-1-1.3-1.4c-0.9-0.9-1.8-1.8-2.7-2.6c-1.8-1.7-3.9-3.1-5.9-4.7c-1-0.8-1.9-1.6-2.9-2.4
			c-1-0.8-1.9-1.6-2.8-2.5c-0.5-0.4-1-0.9-1.4-1.4c-0.2-0.2-0.5-0.5-0.6-0.7c-0.2-0.2-0.5-0.5-0.6-1c-0.1-0.1-0.2-0.2-0.2-0.4v-0.1
			c0-0.1,0,0.1,0,0.1l0,0v-0.1v-0.1v0.1l-0.1-0.1c-0.2-0.2-0.3-0.3-0.6-0.5c-0.4-0.3-1-0.7-1.4-1c-1-0.6-2.1-1.3-3.2-1.8
			c-1.1-0.6-2.2-1.2-3.3-1.8h0.1c-1.2-0.4-2.3-0.9-3.5-1.3l-1.8-0.7c-0.6-0.2-1.1-0.5-1.7-0.7l0.1-0.2c0.6,0.1,1.2,0.2,1.8,0.3
			l1.8,0.4c1.2,0.2,2.4,0.6,3.6,0.8l0,0h0.1c1.2,0.5,2.3,1,3.5,1.4c1.1,0.6,2.3,1.1,3.4,1.8c0.6,0.3,1.1,0.6,1.7,1.1
			c0.2,0.2,0.6,0.5,0.8,0.8c0.1,0.1,0.2,0.2,0.2,0.2c0.1,0.1,0.2,0.3,0.2,0.5c0,0.1,0,0.1,0.1,0.2v0.1l0,0c0,0,0.1,0.2,0,0.1l0,0
			c0,0,0-0.1,0,0c0.1,0.2,0.2,0.4,0.4,0.6l0.6,0.6c0.4,0.5,0.8,0.9,1.3,1.3c0.9,0.9,1.8,1.8,2.7,2.6c0.9,0.9,1.8,1.7,2.7,2.6
			c1.8,1.8,3.5,3.6,5.3,5.4l2.7,2.7l1.4,1.3l1.3,1.4c0.4,0.5,0.9,1,1.3,1.4l1.2,1.5c0.4,0.5,0.7,1,1.1,1.5c0.3,0.6,0.7,1,1,1.6
			c0.3,0.6,0.6,1.1,1,1.7l0.9,1.7c0.6,1.1,1,2.3,1.6,3.5c0.5,1.2,1,2.3,1.4,3.5c0.4,1.2,0.8,2.4,1.1,3.6L419,566.5z"/>
	</g>
</g>
<g id="_x30_5">
	
		<linearGradient id="SVGID_25_" gradientUnits="userSpaceOnUse" x1="330.25" y1="825.7" x2="330.25" y2="1466" gradientTransform="matrix(1 0 0 -1 0 1472)">
		<stop  offset="0" style="stop-color:#FFFFFF"/>
		<stop  offset="0.4849" style="stop-color:#FFFFFF;stop-opacity:0"/>
	</linearGradient>
	<path class="st56" d="M437.3,609.9L642.3,6H18.2l204.1,607.8c0,17.9,48.3,32.5,108,32.5s108-14.5,108-32.5
		C438.2,612.6,437.8,611.2,437.3,609.9z"/>
</g>
</svg>
