<?xml version="1.0" encoding="utf-8"?>
<!-- Generator: Adobe Illustrator 19.2.1, SVG Export Plug-In . SVG Version: 6.00 Build 0)  -->
<svg version="1.1" id="Capa_1" xmlns="http://www.w3.org/2000/svg" xmlns:xlink="http://www.w3.org/1999/xlink" x="0px" y="0px"
	 viewBox="0 0 480.6 171.3" style="enable-background:new 0 0 480.6 171.3;" xml:space="preserve">
<style type="text/css">
	.st0{opacity:0.9;fill:#FFFFFF;enable-background:new    ;}
	.st1{fill:#F57C00;}
	.st2{opacity:0.25;fill:#FFFFFF;enable-background:new    ;}
	.st3{fill:#FFFFFF;}
	.st4{fill:#FC9F4C;}
</style>
<path class="st0" d="M241,161.7l-0.1-1.8h0.1h1.4v1.8H241z M236.1,161.7h-1.6v-1.8h1.6V161.7z M247.4,161.6v-1.8h1.6v1.8H247.4z
	 M229.6,161.6H228v-1.8h1.6V161.6z M253.9,161.6v-1.8h1.6v1.8H253.9z M223,161.4h-1.6v-1.8h1.6V161.4z M260.4,161.4v-1.8h1.6v1.8
	H260.4z M216.5,161.3H215v-1.8h1.6V161.3z M267,161.3v-1.8h1.6v1.8H267z M210,161h-1.6v-1.8h1.6V161z M273.3,161v-1.8h1.6l0.1,1.8
	H273.3z M203.6,160.7l-1.6-0.2l0.1-1.8l1.6,0.2L203.6,160.7z M279.9,160.7l-0.1-1.8l1.6-0.2l0.1,1.8L279.9,160.7z M197.1,160.4
	l-1.6-0.2l0.1-1.8l1.6,0.2L197.1,160.4z M286.4,160.2l-0.1-1.8l1.6-0.2l0.1,1.8L286.4,160.2z M190.6,159.9l-1.6-0.2l0.1-1.8l1.6,0.2
	L190.6,159.9z M292.9,159.8l-0.1-1.8l1.6-0.2l0.1,1.8L292.9,159.8z M184.1,159.5l-1.6-0.2l0.1-1.8l1.6,0.2L184.1,159.5z
	 M299.4,159.3l-0.1-1.8l1.6-0.2l0.1,1.8L299.4,159.3z M177.6,158.9l-1.6-0.2l0.1-1.8l1.6,0.2L177.6,158.9z M305.8,158.7l-0.1-1.8
	l1.6-0.2l0.1,1.8L305.8,158.7z M171.2,158.3l-1.6-0.2l0.1-1.8l1.6,0.2L171.2,158.3z M312.3,158.1l-0.1-1.8l1.6-0.2l0.1,1.8
	L312.3,158.1z M164.7,157.5l-1.6-0.2l0.1-1.8l1.6,0.2L164.7,157.5z M318.8,157.3l-0.1-1.8l1.6-0.2l0.1,1.8L318.8,157.3z
	 M158.2,156.7l-1.6-0.2l0.1-1.8l1.6,0.2L158.2,156.7z M325.2,156.6l-0.1-1.8l1.6-0.2l0.1,1.8L325.2,156.6z M151.8,155.8l-1.6-0.2
	l0.1-1.8l1.6,0.2L151.8,155.8z M331.7,155.7l-0.1-1.8l1.6-0.2l0.3,1.8L331.7,155.7z M145.3,154.9l-1.6-0.3l0.3-1.8l1.6,0.3
	L145.3,154.9z M338.1,154.8l-0.3-1.8l1.6-0.3l0.3,1.8L338.1,154.8z M138.9,154l-1.6-0.3l0.3-1.8l1.6,0.3L138.9,154z M344.6,153.7
	l-0.3-1.8l1.6-0.3l0.3,1.8L344.6,153.7z M132.5,152.9l-1.6-0.3l0.3-1.8l1.6,0.3L132.5,152.9z M351,152.6l-0.3-1.8l1.6-0.3l0.3,1.8
	L351,152.6z M126,151.7l-1.6-0.3l0.3-1.8l1.6,0.3L126,151.7z M357.5,151.4l-0.3-1.8l1.6-0.3l0.3,1.8L357.5,151.4z M119.6,150.5
	l-1.6-0.3l0.3-1.8l1.6,0.3L119.6,150.5z M363.9,150.2l-0.3-1.8l1.6-0.3l0.3,1.8L363.9,150.2z M113.2,149.1l-1.6-0.3l0.3-1.8l1.6,0.3
	L113.2,149.1z M370.3,148.8L370,147l1.6-0.3l0.3,1.8L370.3,148.8z M106.8,147.8l-1.6-0.3l0.3-1.8l1.6,0.3L106.8,147.8z M376.7,147.3
	l-0.3-1.8l1.6-0.3l0.4,1.8L376.7,147.3z M100.4,146.1l-1.6-0.5l0.4-1.8l1.6,0.5L100.4,146.1z M383.1,145.8l-0.4-1.8l1.6-0.5l0.4,1.8
	L383.1,145.8z M94,144.6l-1.6-0.5l0.4-1.8l1.6,0.5L94,144.6z M389.3,144.1l-0.4-1.8l1.6-0.5l0.4,1.8L389.3,144.1z M87.8,142.8
	l-1.6-0.5l0.4-1.8l1.6,0.5L87.8,142.8z M395.7,142.3l-0.4-1.8l1.6-0.5l0.4,1.8L395.7,142.3z M81.4,140.8l-1.6-0.5l0.4-1.8l1.6,0.5
	L81.4,140.8z M402,140.5l-0.4-1.8l1.6-0.5l0.4,1.8L402,140.5z M75.1,138.8l-1.6-0.6l0.5-1.8l1.6,0.6L75.1,138.8z M408.2,138.4
	l-0.5-1.8l1.6-0.6l0.5,1.8L408.2,138.4z M68.9,136.6l-1.6-0.6l0.5-1.8l1.6,0.6L68.9,136.6z M414.5,136.1l-0.5-1.8l1.6-0.6l0.5,1.8
	L414.5,136.1z M62.8,134.3l-1.6-0.6l0.5-1.8l1.6,0.6L62.8,134.3z M420.6,133.7l-0.5-1.8l1.6-0.6l0.5,1.8L420.6,133.7z M56.6,131.7
	l-1.6-0.6l0.5-1.8l1.6,0.6L56.6,131.7z M426.7,131.1l-0.5-1.8c0.5-0.2,1-0.5,1.6-0.6l0.7,1.8C427.8,130.6,427.2,130.8,426.7,131.1z
	 M50.5,128.8l-1.6-0.8l0.7-1.7l1.4,0.8L50.5,128.8z M432.8,128.2l-0.7-1.7c0.5-0.3,1-0.5,1.4-0.8l0.7,1.7
	C433.7,127.8,433.4,128.1,432.8,128.2z M44.7,125.8c-0.5-0.3-1-0.6-1.4-0.8l0.7-1.7c0.5,0.3,0.9,0.6,1.4,0.8L44.7,125.8z
	 M438.7,125.2l-0.7-1.7c0.5-0.3,0.9-0.6,1.4-0.8l0.7,1.7C439.7,124.6,439.2,124.9,438.7,125.2z M38.8,122.4
	c-0.5-0.3-0.9-0.6-1.4-0.9l0.8-1.7c0.5,0.3,0.9,0.6,1.4,0.9L38.8,122.4z M444.6,121.7l-0.8-1.7c0.5-0.3,0.9-0.6,1.4-0.9l0.8,1.7
	C445.5,121.1,445.1,121.4,444.6,121.7z M33.1,118.7c-0.5-0.3-0.9-0.6-1.4-1.1l0.9-1.7c0.4,0.3,0.9,0.6,1.3,0.9L33.1,118.7z
	 M450.2,117.9l-0.9-1.7c0.5-0.3,0.9-0.6,1.3-1.1l0.9,1.5C451.2,117.1,450.7,117.4,450.2,117.9z M27.6,114.6
	c-0.4-0.5-0.9-0.8-1.3-1.2l1-1.5c0.4,0.3,0.9,0.8,1.3,1.1L27.6,114.6z M455.6,113.5l-1-1.5c0.4-0.5,0.9-0.8,1.3-1.2l1,1.5
	C456.6,112.7,456,113.2,455.6,113.5z M22.5,109.7c-0.4-0.5-0.8-0.9-1.2-1.4l1.2-1.4c0.4,0.5,0.8,0.9,1.2,1.2L22.5,109.7z
	 M460.6,108.5l-1.2-1.4c0.4-0.5,0.8-0.9,1.2-1.4l1.2,1.4C461.4,107.6,461,108,460.6,108.5z M17.9,104.1c-0.4-0.5-0.7-1.1-1-1.5
	l1.3-1.1c0.3,0.5,0.7,0.9,0.9,1.5L17.9,104.1z M465,102.7l-1.3-1.1c0.3-0.5,0.7-1.1,0.9-1.5l1.4,1.1
	C465.5,101.7,465.3,102.3,465,102.7z M14.4,97.6c-0.3-0.6-0.4-1.2-0.7-1.8l1.6-0.6c0.1,0.6,0.4,1.1,0.7,1.7L14.4,97.6z M468.1,96
	l-1.6-0.6c0.1-0.6,0.4-1.2,0.5-1.7l1.6,0.5C468.5,94.7,468.4,95.3,468.1,96z M12.7,90c0-0.6-0.1-1.4-0.1-2v-0.6h1.6v0.5
	c0,0.6,0,1.2,0.1,1.8L12.7,90z M469.5,88.3h-1.6V88c0-0.5,0-1.1,0-1.5l1.6-0.2c0,0.6,0,1.1,0,1.7V88.3z M14.9,82.2l-1.6-0.6
	c0.1-0.6,0.4-1.2,0.5-1.8l1.6,0.8C15.3,81.2,15.2,81.6,14.9,82.2z M466.8,81.3c-0.1-0.6-0.4-1.1-0.5-1.7l1.4-0.8
	c0.3,0.6,0.4,1.2,0.7,1.8L466.8,81.3z M17.7,75.7l-1.3-1.1c0.3-0.6,0.7-1.1,0.9-1.7l1.3,1.1C18.2,74.8,17.9,75.3,17.7,75.7z
	 M463.8,74.8c-0.3-0.5-0.7-1.1-0.9-1.5l1.3-1.2c0.4,0.5,0.7,1.1,1,1.5L463.8,74.8z M21.6,70l-1.2-1.4c0.4-0.5,0.8-0.9,1.2-1.4
	l1.2,1.4C22.4,69.2,22,69.7,21.6,70z M459.8,69.2c-0.4-0.5-0.8-0.9-1.2-1.2l1-1.4c0.4,0.5,0.8,0.9,1.2,1.4L459.8,69.2z M26.3,65.1
	l-1-1.5c0.4-0.5,0.9-0.8,1.3-1.2l0.9,1.5C27.2,64.3,26.8,64.6,26.3,65.1z M455,64.3c-0.4-0.3-0.8-0.8-1.3-1.1l0.9-1.5
	c0.4,0.5,0.9,0.8,1.3,1.2L455,64.3z M31.5,60.7l-0.9-1.5c0.4-0.3,0.9-0.8,1.4-1.1l0.9,1.7C32.4,60.1,32,60.4,31.5,60.7z M449.8,60.1
	c-0.4-0.3-0.9-0.6-1.3-1.1l0.8-1.7c0.5,0.3,0.9,0.6,1.4,1.1L449.8,60.1z M37.1,56.9l-0.8-1.7c0.5-0.3,0.9-0.6,1.4-0.9l0.8,1.7
	C38,56.3,37.5,56.6,37.1,56.9z M444.2,56.3c-0.5-0.3-0.9-0.6-1.4-0.9l0.8-1.7c0.5,0.3,0.9,0.6,1.4,0.9L444.2,56.3z M42.8,53.4
	l-0.7-1.7c0.5-0.3,0.9-0.6,1.4-0.8l0.7,1.7C43.7,52.8,43.2,53.1,42.8,53.4z M438.4,53c-0.5-0.3-0.9-0.6-1.4-0.8l0.7-1.7
	c0.5,0.3,1,0.6,1.4,0.8L438.4,53z M48.7,50.2L48,48.6c0.5-0.3,1-0.5,1.6-0.8l0.7,1.7C49.6,49.8,49.1,49.9,48.7,50.2z M432.6,49.8
	c-0.5-0.3-1-0.5-1.4-0.8l0.7-1.7c0.5,0.3,1,0.5,1.6,0.8L432.6,49.8z M54.6,47.3l-0.7-1.8l1.6-0.8l0.5,1.8L54.6,47.3z M426.6,46.9
	l-1.6-0.6l0.5-1.8l1.6,0.6L426.6,46.9z M60.7,44.8L60.2,43l1.6-0.6l0.5,1.8L60.7,44.8z M420.5,44.3l-1.6-0.6l0.5-1.8l1.6,0.6
	L420.5,44.3z M66.8,42.3l-0.5-1.8l1.6-0.6l0.5,1.8L66.8,42.3z M414.3,41.9l-1.6-0.6l0.5-1.8l1.6,0.6L414.3,41.9z M72.9,40.1
	l-0.5-1.8l1.6-0.6l0.5,1.8L72.9,40.1z M408.2,39.8l-1.6-0.6l0.4-1.8l1.6,0.6L408.2,39.8z M79.2,37.9l-0.4-1.8l1.6-0.5l0.4,1.8
	L79.2,37.9z M402,37.6l-1.6-0.5l0.4-1.8l1.6,0.5L402,37.6z M85.4,36l-0.4-1.8l1.6-0.5l0.4,1.8L85.4,36z M395.7,35.7l-1.6-0.5
	l0.4-1.8l1.6,0.5L395.7,35.7z M91.7,34.2l-0.4-1.8l1.6-0.5l0.4,1.8L91.7,34.2z M389.4,33.8l-1.6-0.5l0.4-1.8l1.6,0.5L389.4,33.8z
	 M98.1,32.5l-0.4-1.8l1.6-0.5l0.4,1.8L98.1,32.5z M383.1,32.2l-1.6-0.5l0.4-1.8l1.6,0.5L383.1,32.2z M104.3,30.8l-0.3-1.8l1.6-0.3
	l0.3,1.8L104.3,30.8z M376.8,30.7l-1.6-0.3l0.3-1.8l1.6,0.3L376.8,30.7z M110.7,29.4l-0.3-1.8l1.6-0.3l0.3,1.8L110.7,29.4z
	 M370.4,29.1l-1.6-0.3l0.3-1.8l1.6,0.3L370.4,29.1z M117.1,28.1l-0.3-1.8l1.6-0.3l0.3,1.8L117.1,28.1z M364,27.8l-1.6-0.3l0.3-1.8
	l1.6,0.3L364,27.8z M123.5,26.7l-0.3-1.8l1.6-0.3l0.3,1.8L123.5,26.7z M357.7,26.6l-1.6-0.3l0.3-1.8l1.6,0.3L357.7,26.6z
	 M129.9,25.5l-0.3-1.8l1.6-0.3l0.3,1.8L129.9,25.5z M351.3,25.4l-1.6-0.3l0.3-1.8l1.6,0.3L351.3,25.4z M136.3,24.4l-0.3-1.8l1.6-0.3
	l0.3,1.8L136.3,24.4z M344.9,24.3l-1.6-0.3l0.3-1.8l1.6,0.3L344.9,24.3z M142.8,23.4l-0.3-1.8l1.6-0.3l0.3,1.8L142.8,23.4z
	 M338.4,23.2l-1.6-0.3l0.3-1.8l1.6,0.3L338.4,23.2z M149.2,22.5l-0.3-1.8l1.6-0.2l0.1,1.8L149.2,22.5z M332,22.3l-1.6-0.2l0.1-1.8
	l1.6,0.2L332,22.3z M155.5,21.6l-0.1-1.8l1.6-0.2l0.1,1.8L155.5,21.6z M325.5,21.4l-1.6-0.2l0.1-1.8l1.6,0.2L325.5,21.4z
	 M162.1,20.8l-0.1-1.8l1.6-0.2l0.1,1.8L162.1,20.8z M319.1,20.6l-1.6-0.2l0.1-1.8l1.6,0.2L319.1,20.6z M168.4,20l-0.1-1.8l1.6-0.2
	l0.1,1.8L168.4,20z M312.6,20l-1.6-0.2l0.1-1.8l1.6,0.2L312.6,20z M175,19.4l-0.1-1.8l1.6-0.2l0.1,1.8L175,19.4z M306.2,19.3
	l-1.6-0.2l0.1-1.8l1.6,0.2L306.2,19.3z M181.5,18.8l-0.1-1.8l1.6-0.2l0.1,1.8L181.5,18.8z M299.7,18.7l-1.6-0.2l0.1-1.8l1.6,0.2
	L299.7,18.7z M187.9,18.2l-0.1-1.8l1.6-0.2l0.1,1.8L187.9,18.2z M293.3,18.2l-1.6-0.2l0.1-1.8l1.6,0.2L293.3,18.2z M194.4,17.8
	l-0.1-1.8l1.6-0.2l0.1,1.8L194.4,17.8z M286.8,17.8l-1.6-0.2l0.1-1.8l1.6,0.2L286.8,17.8z M200.9,17.5l-0.1-1.8l1.6-0.2l0.1,1.8
	L200.9,17.5z M280.3,17.3l-1.6-0.2l0.1-1.8l1.6,0.2L280.3,17.3z M207.3,17.2l-0.1-1.8h1.6v1.8H207.3z M273.7,17h-1.6v-1.8h1.6V17z
	 M213.8,16.9V15h1.6v1.8H213.8z M267.3,16.7h-1.6v-1.8h1.6V16.7z M220.3,16.6v-1.8h1.6v1.8H220.3z M260.8,16.6h-1.6v-1.8h1.6V16.6z
	 M226.8,16.4v-1.8h1.6v1.8H226.8z M254.3,16.4h-1.6v-1.8h1.6V16.4z M233.2,16.4v-1.8h1.6v1.8H233.2z M247.8,16.4h-1.6v-1.8h1.6V16.4
	z M239.7,16.2v-1.8h1.6v1.8H239.7z"/>
<ellipse class="st1" cx="240.2" cy="69.9" rx="204.3" ry="59.5"/>
<ellipse class="st2" cx="238" cy="59.1" rx="174.7" ry="47.9"/>
<g>
	<path class="st3" d="M65.3,49.4c-0.4,0-0.7-0.2-1-0.5c-0.4-0.5-0.3-1.3,0.2-1.8c2.1-1.7,4.6-3.4,7.3-5c0.6-0.4,1.4-0.2,1.7,0.4
		c0.4,0.6,0.2,1.4-0.4,1.7c-2.6,1.6-5,3.2-7,4.8C65.9,49.3,65.6,49.4,65.3,49.4z"/>
	<path class="st3" d="M242.5,117.4c-0.7,0-1.2-0.6-1.2-1.2c0-0.7,0.5-1.2,1.2-1.3c6,0,12-0.2,17.8-0.4c0.7,0,1.3,0.5,1.3,1.2
		s-0.5,1.3-1.2,1.3C254.6,117.2,248.5,117.4,242.5,117.4L242.5,117.4z M233.6,117.4L233.6,117.4c-6,0-12-0.2-17.9-0.4
		c-0.7,0-1.2-0.6-1.2-1.3s0.6-1.2,1.3-1.2c5.9,0.2,11.9,0.3,17.8,0.4c0.7,0,1.2,0.6,1.2,1.3C234.8,116.9,234.3,117.4,233.6,117.4z
		 M269.4,116.7c-0.7,0-1.2-0.5-1.2-1.2s0.5-1.3,1.2-1.3c6-0.3,12-0.7,17.8-1.1c0.7,0,1.3,0.5,1.3,1.1c0.1,0.7-0.5,1.3-1.1,1.3
		C281.4,116,275.4,116.4,269.4,116.7L269.4,116.7z M206.8,116.7C206.8,116.7,206.7,116.7,206.8,116.7c-6-0.3-12.1-0.7-17.9-1.1
		c-0.7-0.1-1.2-0.7-1.1-1.3c0.1-0.7,0.7-1.2,1.3-1.1c5.9,0.5,11.9,0.8,17.8,1.1c0.7,0,1.2,0.6,1.2,1.3
		C208,116.1,207.4,116.7,206.8,116.7z M296.1,114.8c-0.6,0-1.2-0.5-1.2-1.1c-0.1-0.7,0.4-1.3,1.1-1.4c6-0.6,12-1.2,17.7-1.9
		c0.7-0.1,1.3,0.4,1.4,1.1c0.1,0.7-0.4,1.3-1.1,1.4c-5.8,0.7-11.8,1.4-17.8,2C296.2,114.8,296.2,114.8,296.1,114.8z M180,114.8h-0.1
		c-6-0.6-12-1.2-17.8-2c-0.7-0.1-1.2-0.7-1.1-1.4c0.1-0.7,0.7-1.1,1.4-1.1c5.8,0.7,11.7,1.4,17.7,2c0.7,0.1,1.2,0.7,1.1,1.4
		C181.2,114.3,180.7,114.8,180,114.8z M322.7,111.7c-0.6,0-1.1-0.4-1.2-1.1c-0.1-0.7,0.4-1.3,1.1-1.4c6-0.9,11.9-1.9,17.6-2.9
		c0.7-0.1,1.3,0.3,1.5,1c0.1,0.7-0.3,1.3-1,1.5c-5.7,1.1-11.6,2.1-17.7,2.9C322.9,111.7,322.8,111.7,322.7,111.7z M153.4,111.6
		c-0.1,0-0.1,0-0.2,0c-6.1-0.9-12-1.9-17.7-3c-0.7-0.1-1.1-0.8-1-1.5s0.8-1.1,1.5-1c5.6,1.1,11.6,2.1,17.6,2.9
		c0.7,0.1,1.1,0.7,1.1,1.4C154.5,111.1,154,111.6,153.4,111.6z M349.2,107c-0.6,0-1.1-0.4-1.2-1c-0.1-0.7,0.3-1.3,1-1.5
		c6.1-1.3,11.9-2.7,17.3-4.2c0.6-0.2,1.3,0.2,1.5,0.9s-0.2,1.3-0.9,1.5c-5.5,1.5-11.3,2.9-17.4,4.2C349.3,107,349.2,107,349.2,107z
		 M127,106.9c-0.1,0-0.2,0-0.3,0c-6.1-1.3-12-2.7-17.4-4.3c-0.7-0.2-1.1-0.9-0.9-1.5c0.2-0.7,0.9-1,1.5-0.9
		c5.4,1.5,11.2,2.9,17.3,4.2c0.7,0.1,1.1,0.8,1,1.5C128.1,106.5,127.6,106.9,127,106.9z M375.1,100.2c-0.5,0-1-0.3-1.2-0.9
		c-0.2-0.7,0.2-1.4,0.8-1.6c6.1-1.9,11.7-4,16.7-6.1c0.6-0.3,1.4,0,1.6,0.7c0.3,0.6,0,1.4-0.7,1.6c-5,2.2-10.7,4.3-16.9,6.2
		C375.4,100.2,375.2,100.2,375.1,100.2z M101,100.1c-0.1,0-0.3,0-0.4-0.1c-6.2-2-11.8-4.1-16.9-6.2c-0.6-0.3-0.9-1-0.6-1.6
		c0.3-0.6,1-0.9,1.6-0.6c5,2.2,10.6,4.2,16.6,6.2c0.7,0.2,1,0.9,0.8,1.6C102.1,99.7,101.6,100.1,101,100.1z M400,90.2
		c-0.4,0-0.9-0.2-1.1-0.7c-0.3-0.6-0.1-1.4,0.5-1.7c6-3.2,10.9-6.5,14.3-10c0.5-0.5,1.3-0.5,1.8,0s0.5,1.3,0,1.8
		c-3.6,3.6-8.6,7.1-14.9,10.4C400.4,90.2,400.2,90.2,400,90.2z M76.2,90c-0.2,0-0.4,0-0.6-0.1c-6.3-3.3-11.3-6.9-14.8-10.5
		c-0.5-0.5-0.5-1.3,0-1.8s1.3-0.5,1.8,0c3.4,3.5,8.2,6.9,14.2,10.1c0.6,0.3,0.8,1.1,0.5,1.7C77.1,89.8,76.7,90,76.2,90z M419.8,72.9
		c-0.2,0-0.4,0-0.5-0.1c-0.6-0.3-0.9-1-0.6-1.7c1-2,1.4-4.1,1.4-6.2c0-3.1-1.1-6.3-3.3-9.4c-0.4-0.6-0.3-1.3,0.3-1.7
		c0.6-0.4,1.3-0.3,1.7,0.3c2.5,3.5,3.8,7.2,3.8,10.8c0,2.4-0.6,4.9-1.7,7.2C420.7,72.6,420.3,72.9,419.8,72.9z M56.6,72.5
		c-0.5,0-0.9-0.3-1.1-0.7c-1-2.2-1.5-4.5-1.5-6.8c0-3.8,1.4-7.6,4.1-11.2c0.4-0.6,1.2-0.7,1.7-0.3c0.6,0.4,0.7,1.2,0.3,1.7
		c-2.4,3.2-3.6,6.5-3.6,9.7c0,1.9,0.4,3.9,1.3,5.8c0.3,0.6,0,1.4-0.6,1.6C56.9,72.5,56.8,72.5,56.6,72.5z"/>
	<path class="st3" d="M411.5,49.6c-0.3,0-0.6-0.1-0.8-0.3c-2-1.6-4.4-3.3-7-4.9c-0.6-0.4-0.8-1.1-0.4-1.7c0.4-0.6,1.1-0.8,1.7-0.4
		c2.7,1.6,5.2,3.3,7.3,5.1c0.5,0.4,0.6,1.2,0.2,1.8C412.2,49.4,411.9,49.6,411.5,49.6z"/>
</g>
<path class="st0" d="M238,107.7l-0.1-1.2h0.1h1.1v1.2H238z M234.2,107.7H233v-1.2h1.2V107.7z M242.9,107.6v-1.2h1.2v1.2H242.9z
	 M229.2,107.6H228v-1.2h1.2V107.6z M247.9,107.6v-1.2h1.2v1.2H247.9z M224.2,107.5H223v-1.2h1.2V107.5z M252.9,107.5v-1.2h1.2v1.2
	H252.9z M219.2,107.4H218v-1.2h1.2V107.4z M257.9,107.4v-1.2h1.2v1.2H257.9z M214.2,107.2H213V106h1.2V107.2z M262.8,107.2V106h1.2
	l0.1,1.2H262.8z M209.3,107l-1.2-0.1l0.1-1.2l1.2,0.1L209.3,107z M267.8,107l-0.1-1.2l1.2-0.1l0.1,1.2L267.8,107z M204.3,106.8
	l-1.2-0.1l0.1-1.2l1.2,0.1L204.3,106.8z M272.8,106.7l-0.1-1.2l1.2-0.1l0.1,1.2L272.8,106.7z M199.3,106.5l-1.2-0.1l0.1-1.2l1.2,0.1
	L199.3,106.5z M277.8,106.4l-0.1-1.2l1.2-0.1l0.1,1.2L277.8,106.4z M194.3,106.2l-1.2-0.1l0.1-1.2l1.2,0.1L194.3,106.2z
	 M282.8,106.1l-0.1-1.2l1.2-0.1l0.1,1.2L282.8,106.1z M189.3,105.8l-1.2-0.1l0.1-1.2l1.2,0.1L189.3,105.8z M287.7,105.7l-0.1-1.2
	l1.2-0.1l0.1,1.2L287.7,105.7z M184.4,105.4l-1.2-0.1l0.1-1.2l1.2,0.1L184.4,105.4z M292.7,105.3l-0.1-1.2l1.2-0.1l0.1,1.2
	L292.7,105.3z M179.4,104.9l-1.2-0.1l0.1-1.2l1.2,0.1L179.4,104.9z M297.7,104.8l-0.1-1.2l1.2-0.1l0.1,1.2L297.7,104.8z
	 M174.4,104.4l-1.2-0.1l0.1-1.2l1.2,0.1L174.4,104.4z M302.6,104.3l-0.1-1.2l1.2-0.1l0.1,1.2L302.6,104.3z M169.5,103.8l-1.2-0.1
	l0.1-1.2l1.2,0.1L169.5,103.8z M307.6,103.7l-0.1-1.2l1.2-0.1l0.2,1.2L307.6,103.7z M164.5,103.2l-1.2-0.2l0.2-1.2l1.2,0.2
	L164.5,103.2z M312.5,103.1l-0.2-1.2l1.2-0.2l0.2,1.2L312.5,103.1z M159.6,102.6l-1.2-0.2l0.2-1.2l1.2,0.2L159.6,102.6z
	 M317.5,102.4l-0.2-1.2l1.2-0.2l0.2,1.2L317.5,102.4z M154.7,101.9l-1.2-0.2l0.2-1.2l1.2,0.2L154.7,101.9z M322.4,101.7l-0.2-1.2
	l1.2-0.2l0.2,1.2L322.4,101.7z M149.7,101.1l-1.2-0.2l0.2-1.2l1.2,0.2L149.7,101.1z M327.4,100.9l-0.2-1.2l1.2-0.2l0.2,1.2
	L327.4,100.9z M144.8,100.3l-1.2-0.2l0.2-1.2l1.2,0.2L144.8,100.3z M332.3,100.1l-0.2-1.2l1.2-0.2l0.2,1.2L332.3,100.1z M139.9,99.4
	l-1.2-0.2l0.2-1.2l1.2,0.2L139.9,99.4z M337.2,99.2L337,98l1.2-0.2l0.2,1.2L337.2,99.2z M135,98.5l-1.2-0.2l0.2-1.2l1.2,0.2
	L135,98.5z M342.1,98.2l-0.2-1.2l1.2-0.2l0.3,1.2L342.1,98.2z M130.1,97.4l-1.2-0.3l0.3-1.2l1.2,0.3L130.1,97.4z M347,97.2l-0.3-1.2
	l1.2-0.3l0.3,1.2L347,97.2z M125.2,96.4l-1.2-0.3l0.3-1.2l1.2,0.3L125.2,96.4z M351.8,96.1l-0.3-1.2l1.2-0.3l0.3,1.2L351.8,96.1z
	 M120.4,95.2l-1.2-0.3l0.3-1.2l1.2,0.3L120.4,95.2z M356.7,94.9l-0.3-1.2l1.2-0.3l0.3,1.2L356.7,94.9z M115.5,93.9l-1.2-0.3l0.3-1.2
	l1.2,0.3L115.5,93.9z M361.5,93.7l-0.3-1.2l1.2-0.3l0.3,1.2L361.5,93.7z M110.7,92.6l-1.2-0.4l0.4-1.2l1.2,0.4L110.7,92.6z
	 M366.3,92.3l-0.4-1.2l1.2-0.4l0.4,1.2L366.3,92.3z M105.9,91.1l-1.2-0.4l0.4-1.2l1.2,0.4L105.9,91.1z M371.1,90.8l-0.4-1.2l1.2-0.4
	l0.4,1.2L371.1,90.8z M101.2,89.6l-1.2-0.4l0.4-1.2l1.2,0.4L101.2,89.6z M375.8,89.2l-0.4-1.2l1.2-0.4l0.4,1.2L375.8,89.2z
	 M96.5,87.9l-1.2-0.4l0.4-1.2l1.2,0.4L96.5,87.9z M380.5,87.5l-0.4-1.2c0.4-0.1,0.8-0.3,1.2-0.4l0.5,1.2
	C381.3,87.2,380.9,87.3,380.5,87.5z M91.8,86l-1.2-0.5l0.5-1.1l1.1,0.5L91.8,86z M385.2,85.6l-0.5-1.1c0.4-0.2,0.8-0.3,1.1-0.5
	l0.5,1.1C385.9,85.3,385.6,85.5,385.2,85.6z M87.3,84c-0.4-0.2-0.8-0.4-1.1-0.5l0.5-1.1c0.4,0.2,0.7,0.4,1.1,0.5L87.3,84z
	 M389.7,83.6l-0.5-1.1c0.4-0.2,0.7-0.4,1.1-0.5l0.5,1.1C390.5,83.2,390.1,83.4,389.7,83.6z M82.8,81.8c-0.4-0.2-0.7-0.4-1.1-0.6
	l0.6-1.1c0.4,0.2,0.7,0.4,1.1,0.6L82.8,81.8z M394.2,81.3l-0.6-1.1c0.4-0.2,0.7-0.4,1.1-0.6l0.6,1.1
	C394.9,80.9,394.6,81.1,394.2,81.3z M78.4,79.3c-0.4-0.2-0.7-0.4-1.1-0.7l0.7-1.1c0.3,0.2,0.7,0.4,1,0.6L78.4,79.3z M398.5,78.8
	l-0.7-1.1c0.4-0.2,0.7-0.4,1-0.7l0.7,1C399.3,78.3,398.9,78.5,398.5,78.8z M74.2,76.6c-0.3-0.3-0.7-0.5-1-0.8l0.8-1
	c0.3,0.2,0.7,0.5,1,0.7L74.2,76.6z M402.7,75.9l-0.8-1c0.3-0.3,0.7-0.5,1-0.8l0.8,1C403.4,75.4,403,75.7,402.7,75.9z M70.3,73.4
	c-0.3-0.3-0.6-0.6-0.9-0.9l0.9-0.9c0.3,0.3,0.6,0.6,0.9,0.8L70.3,73.4z M406.5,72.6l-0.9-0.9c0.3-0.3,0.6-0.6,0.9-0.9l0.9,0.9
	C407.1,72,406.8,72.3,406.5,72.6z M66.8,69.7c-0.3-0.3-0.5-0.7-0.8-1l1-0.7c0.2,0.3,0.5,0.6,0.7,1L66.8,69.7z M409.9,68.8l-1-0.7
	c0.2-0.3,0.5-0.7,0.7-1l1.1,0.7C410.3,68.1,410.1,68.5,409.9,68.8z M64.1,65.4c-0.2-0.4-0.3-0.8-0.5-1.2l1.2-0.4
	c0.1,0.4,0.3,0.7,0.5,1.1L64.1,65.4z M412.3,64.4l-1.2-0.4c0.1-0.4,0.3-0.8,0.4-1.1l1.2,0.3C412.6,63.5,412.5,63.9,412.3,64.4z
	 M62.8,60.4c0-0.4-0.1-0.9-0.1-1.3v-0.4h1.2V59c0,0.4,0,0.8,0.1,1.2L62.8,60.4z M413.3,59.3h-1.2v-0.2c0-0.3,0-0.7,0-1l1.2-0.1
	c0,0.4,0,0.7,0,1.1V59.3z M64.5,55.3l-1.2-0.4c0.1-0.4,0.3-0.8,0.4-1.2l1.2,0.5C64.8,54.6,64.7,54.9,64.5,55.3z M411.3,54.7
	c-0.1-0.4-0.3-0.7-0.4-1.1l1.1-0.5c0.2,0.4,0.3,0.8,0.5,1.2L411.3,54.7z M66.6,51l-1-0.7c0.2-0.4,0.5-0.7,0.7-1.1l1,0.7
	C67,50.4,66.8,50.7,66.6,51z M409,50.4c-0.2-0.3-0.5-0.7-0.7-1l1-0.8c0.3,0.3,0.5,0.7,0.8,1L409,50.4z M69.6,47.2l-0.9-0.9
	c0.3-0.3,0.6-0.6,0.9-0.9l0.9,0.9C70.2,46.7,69.9,47,69.6,47.2z M405.9,46.7c-0.3-0.3-0.6-0.6-0.9-0.8l0.8-0.9
	c0.3,0.3,0.6,0.6,0.9,0.9L405.9,46.7z M73.2,44l-0.8-1c0.3-0.3,0.7-0.5,1-0.8l0.7,1C73.9,43.5,73.6,43.7,73.2,44z M402.2,43.5
	c-0.3-0.2-0.6-0.5-1-0.7l0.7-1c0.3,0.3,0.7,0.5,1,0.8L402.2,43.5z M77.2,41.1l-0.7-1c0.3-0.2,0.7-0.5,1.1-0.7l0.7,1.1
	C77.9,40.7,77.6,40.9,77.2,41.1z M398.2,40.7c-0.3-0.2-0.7-0.4-1-0.7l0.6-1.1c0.4,0.2,0.7,0.4,1.1,0.7L398.2,40.7z M81.5,38.6
	l-0.6-1.1c0.4-0.2,0.7-0.4,1.1-0.6l0.6,1.1C82.2,38.2,81.8,38.4,81.5,38.6z M393.9,38.2c-0.4-0.2-0.7-0.4-1.1-0.6l0.6-1.1
	c0.4,0.2,0.7,0.4,1.1,0.6L393.9,38.2z M85.9,36.3l-0.5-1.1c0.4-0.2,0.7-0.4,1.1-0.5l0.5,1.1C86.6,35.9,86.2,36.1,85.9,36.3z
	 M389.5,36c-0.4-0.2-0.7-0.4-1.1-0.5l0.5-1.1c0.4,0.2,0.8,0.4,1.1,0.5L389.5,36z M90.4,34.2l-0.5-1.1c0.4-0.2,0.8-0.3,1.2-0.5
	l0.5,1.1C91.1,33.9,90.7,34,90.4,34.2z M385,33.9c-0.4-0.2-0.8-0.3-1.1-0.5l0.5-1.1c0.4,0.2,0.8,0.3,1.2,0.5L385,33.9z M94.9,32.3
	l-0.5-1.2l1.2-0.5l0.4,1.2L94.9,32.3z M380.4,32l-1.2-0.4l0.4-1.2l1.2,0.4L380.4,32z M99.6,30.6l-0.4-1.2l1.2-0.4l0.4,1.2L99.6,30.6
	z M375.7,30.3l-1.2-0.4l0.4-1.2l1.2,0.4L375.7,30.3z M104.3,29l-0.4-1.2l1.2-0.4l0.4,1.2L104.3,29z M371,28.7l-1.2-0.4l0.4-1.2
	l1.2,0.4L371,28.7z M109,27.5l-0.4-1.2l1.2-0.4l0.4,1.2L109,27.5z M366.3,27.3l-1.2-0.4l0.3-1.2l1.2,0.4L366.3,27.3z M113.8,26.1
	l-0.3-1.2l1.2-0.3l0.3,1.2L113.8,26.1z M361.5,25.9l-1.2-0.3l0.3-1.2l1.2,0.3L361.5,25.9z M118.6,24.8l-0.3-1.2l1.2-0.3l0.3,1.2
	L118.6,24.8z M356.7,24.6l-1.2-0.3l0.3-1.2l1.2,0.3L356.7,24.6z M123.4,23.6l-0.3-1.2l1.2-0.3l0.3,1.2L123.4,23.6z M351.9,23.4
	l-1.2-0.3l0.3-1.2l1.2,0.3L351.9,23.4z M128.3,22.5l-0.3-1.2l1.2-0.3l0.3,1.2L128.3,22.5z M347,22.3l-1.2-0.3l0.3-1.2l1.2,0.3
	L347,22.3z M133.1,21.4l-0.2-1.2l1.2-0.2l0.2,1.2L133.1,21.4z M342.2,21.3l-1.2-0.2l0.2-1.2l1.2,0.2L342.2,21.3z M138,20.5l-0.2-1.2
	l1.2-0.2l0.2,1.2L138,20.5z M337.3,20.3l-1.2-0.2l0.2-1.2l1.2,0.2L337.3,20.3z M142.9,19.6l-0.2-1.2l1.2-0.2l0.2,1.2L142.9,19.6z
	 M332.4,19.4l-1.2-0.2l0.2-1.2l1.2,0.2L332.4,19.4z M147.8,18.7l-0.2-1.2l1.2-0.2l0.2,1.2L147.8,18.7z M327.5,18.6l-1.2-0.2l0.2-1.2
	l1.2,0.2L327.5,18.6z M152.7,17.9l-0.2-1.2l1.2-0.2l0.2,1.2L152.7,17.9z M322.6,17.8l-1.2-0.2l0.2-1.2l1.2,0.2L322.6,17.8z
	 M157.6,17.2l-0.2-1.2l1.2-0.2l0.2,1.2L157.6,17.2z M317.7,17.1l-1.2-0.2l0.2-1.2l1.2,0.2L317.7,17.1z M162.6,16.5l-0.2-1.2l1.2-0.2
	l0.2,1.2L162.6,16.5z M312.7,16.4l-1.2-0.2l0.2-1.2l1.2,0.2L312.7,16.4z M167.5,15.9l-0.2-1.2l1.2-0.1l0.1,1.2L167.5,15.9z
	 M307.8,15.8l-1.2-0.1l0.1-1.2l1.2,0.1L307.8,15.8z M172.4,15.3l-0.1-1.2l1.2-0.1l0.1,1.2L172.4,15.3z M302.8,15.2l-1.2-0.1l0.1-1.2
	l1.2,0.1L302.8,15.2z M177.4,14.8l-0.1-1.2l1.2-0.1l0.1,1.2L177.4,14.8z M297.9,14.7l-1.2-0.1l0.1-1.2l1.2,0.1L297.9,14.7z
	 M182.3,14.3l-0.1-1.2l1.2-0.1l0.1,1.2L182.3,14.3z M292.9,14.3l-1.2-0.1l0.1-1.2l1.2,0.1L292.9,14.3z M187.3,13.9l-0.1-1.2l1.2-0.1
	l0.1,1.2L187.3,13.9z M288,13.8l-1.2-0.1l0.1-1.2l1.2,0.1L288,13.8z M192.3,13.5l-0.1-1.2l1.2-0.1l0.1,1.2L192.3,13.5z M283,13.4
	l-1.2-0.1l0.1-1.2l1.2,0.1L283,13.4z M197.2,13.1l-0.1-1.2l1.2-0.1l0.1,1.2L197.2,13.1z M278.1,13.1l-1.2-0.1l0.1-1.2l1.2,0.1
	L278.1,13.1z M202.2,12.8l-0.1-1.2l1.2-0.1l0.1,1.2L202.2,12.8z M273.1,12.8l-1.2-0.1l0.1-1.2l1.2,0.1L273.1,12.8z M207.2,12.6
	l-0.1-1.2l1.2-0.1l0.1,1.2L207.2,12.6z M268.1,12.5l-1.2-0.1l0.1-1.2l1.2,0.1L268.1,12.5z M212.1,12.4l-0.1-1.2h1.2v1.2H212.1z
	 M263.1,12.3h-1.2v-1.2h1.2V12.3z M217.1,12.2V11h1.2v1.2H217.1z M258.2,12.1H257v-1.2h1.2V12.1z M222.1,12v-1.2h1.2V12H222.1z
	 M253.2,12H252v-1.2h1.2V12z M227.1,11.9v-1.2h1.2v1.2H227.1z M248.2,11.9H247v-1.2h1.2V11.9z M232,11.9v-1.2h1.2v1.2H232z
	 M243.2,11.9H242v-1.2h1.2V11.9z M237,11.8v-1.2h1.2v1.2H237z"/>
<g>
	<g>
		<path class="st4" d="M38.3,57.9c-0.5,0-0.8-0.2-1.2-0.6c-0.5-0.6-0.4-1.6,0.2-2.2c2.5-2.1,5.4-4.2,8.5-6.2c0.7-0.5,1.6-0.2,2,0.5
			c0.5,0.7,0.2,1.7-0.5,2.1c-3,2-5.8,4-8.2,6C39,57.7,38.6,57.9,38.3,57.9z"/>
		<path class="st4" d="M245.5,142.3c-0.8,0-1.4-0.7-1.4-1.5c0-0.9,0.6-1.5,1.4-1.6c7,0,14-0.2,20.8-0.5c0.8,0,1.5,0.6,1.5,1.5
			c0,0.9-0.6,1.6-1.4,1.6C259.6,142.1,252.5,142.3,245.5,142.3L245.5,142.3z M235.1,142.3L235.1,142.3c-7,0-14-0.2-20.9-0.5
			c-0.8,0-1.4-0.7-1.4-1.6c0-0.9,0.7-1.5,1.5-1.5c6.9,0.2,13.9,0.4,20.8,0.5c0.8,0,1.4,0.7,1.4,1.6
			C236.5,141.7,235.9,142.3,235.1,142.3z M276.9,141.5c-0.8,0-1.4-0.6-1.4-1.5c0-0.9,0.6-1.6,1.4-1.6c7-0.4,14-0.9,20.8-1.4
			c0.8,0,1.5,0.6,1.5,1.4c0.1,0.9-0.6,1.6-1.3,1.6C290.9,140.6,283.9,141.1,276.9,141.5L276.9,141.5z M203.7,141.5
			C203.7,141.5,203.6,141.5,203.7,141.5c-7-0.4-14.1-0.9-20.9-1.4c-0.8-0.1-1.4-0.9-1.3-1.6c0.1-0.9,0.8-1.5,1.5-1.4
			c6.9,0.6,13.9,1,20.8,1.4c0.8,0,1.4,0.7,1.4,1.6C205.1,140.7,204.4,141.5,203.7,141.5z M308.1,139.1c-0.7,0-1.4-0.6-1.4-1.4
			c-0.1-0.9,0.5-1.6,1.3-1.7c7-0.7,14-1.5,20.7-2.4c0.8-0.1,1.5,0.5,1.6,1.4c0.1,0.9-0.5,1.6-1.3,1.7c-6.8,0.9-13.8,1.7-20.8,2.5
			C308.2,139.1,308.2,139.1,308.1,139.1z M172.4,139.1h-0.1c-7-0.7-14-1.5-20.8-2.5c-0.8-0.1-1.4-0.9-1.3-1.7
			c0.1-0.9,0.8-1.4,1.6-1.4c6.8,0.9,13.7,1.7,20.7,2.5c0.8,0.1,1.4,0.9,1.3,1.7C173.8,138.5,173.2,139.1,172.4,139.1z M339.2,135.2
			c-0.7,0-1.3-0.5-1.4-1.4c-0.1-0.9,0.5-1.6,1.3-1.7c7-1.1,13.9-2.4,20.6-3.6c0.8-0.1,1.5,0.4,1.8,1.2c0.1,0.9-0.4,1.6-1.2,1.9
			c-6.7,1.4-13.6,2.6-20.7,3.6C339.5,135.2,339.4,135.2,339.2,135.2z M141.3,135.1c-0.1,0-0.1,0-0.2,0c-7.1-1.1-14-2.4-20.7-3.7
			c-0.8-0.1-1.3-1-1.2-1.9c0.1-0.9,0.9-1.4,1.8-1.2c6.5,1.4,13.6,2.6,20.6,3.6c0.8,0.1,1.3,0.9,1.3,1.7
			C142.6,134.5,142,135.1,141.3,135.1z M370.2,129.4c-0.7,0-1.3-0.5-1.4-1.2c-0.1-0.9,0.4-1.6,1.2-1.9c7.1-1.6,13.9-3.4,20.2-5.2
			c0.7-0.2,1.5,0.2,1.8,1.1c0.2,0.9-0.2,1.6-1.1,1.9c-6.4,1.9-13.2,3.6-20.3,5.2C370.3,129.4,370.2,129.4,370.2,129.4z M110.4,129.3
			c-0.1,0-0.2,0-0.4,0c-7.1-1.6-14-3.4-20.3-5.3c-0.8-0.2-1.3-1.1-1.1-1.9c0.2-0.9,1.1-1.2,1.8-1.1c6.3,1.9,13.1,3.6,20.2,5.2
			c0.8,0.1,1.3,1,1.2,1.9C111.7,128.8,111.1,129.3,110.4,129.3z M400.5,121c-0.6,0-1.2-0.4-1.4-1.1c-0.2-0.9,0.2-1.7,0.9-2
			c7.1-2.4,13.7-5,19.5-7.6c0.7-0.4,1.6,0,1.9,0.9c0.4,0.7,0,1.7-0.8,2c-5.8,2.7-12.5,5.3-19.8,7.7C400.9,121,400.6,121,400.5,121z
			 M80,120.8c-0.1,0-0.4,0-0.5-0.1c-7.2-2.5-13.8-5.1-19.8-7.7c-0.7-0.4-1.1-1.2-0.7-2c0.4-0.7,1.2-1.1,1.9-0.7
			c5.8,2.7,12.4,5.2,19.4,7.7c0.8,0.2,1.2,1.1,0.9,2C81.3,120.3,80.7,120.8,80,120.8z M429.6,108.5c-0.5,0-1.1-0.2-1.3-0.9
			c-0.4-0.7-0.1-1.7,0.6-2.1c7-4,12.7-8.1,16.7-12.4c0.6-0.6,1.5-0.6,2.1,0c0.6,0.6,0.6,1.6,0,2.2c-4.2,4.5-10.1,8.8-17.4,12.9
			C430.1,108.5,429.9,108.5,429.6,108.5z M51,108.3c-0.2,0-0.5,0-0.7-0.1c-7.4-4.1-13.2-8.6-17.3-13c-0.6-0.6-0.6-1.6,0-2.2
			c0.6-0.6,1.5-0.6,2.1,0c4,4.3,9.6,8.6,16.6,12.5c0.7,0.4,0.9,1.4,0.6,2.1C52.1,108,51.6,108.3,51,108.3z M452.8,87.1
			c-0.2,0-0.5,0-0.6-0.1c-0.7-0.4-1.1-1.2-0.7-2.1c1.2-2.5,1.6-5.1,1.6-7.7c0-3.9-1.3-7.8-3.9-11.7c-0.5-0.7-0.4-1.6,0.4-2.1
			c0.7-0.5,1.5-0.4,2,0.4c2.9,4.3,4.4,8.9,4.4,13.4c0,3-0.7,6.1-2,8.9C453.8,86.7,453.4,87.1,452.8,87.1z M28.1,86.6
			c-0.6,0-1.1-0.4-1.3-0.9C25.6,83,25,80.1,25,77.2c0-4.7,1.6-9.4,4.8-13.9c0.5-0.7,1.4-0.9,2-0.4c0.7,0.5,0.8,1.5,0.4,2.1
			c-2.8,4-4.2,8.1-4.2,12c0,2.4,0.5,4.8,1.5,7.2c0.4,0.7,0,1.7-0.7,2C28.4,86.6,28.3,86.6,28.1,86.6z"/>
		<path class="st4" d="M443.1,58.1c-0.4,0-0.7-0.1-0.9-0.4c-2.3-2-5.1-4.1-8.2-6.1c-0.7-0.5-0.9-1.4-0.5-2.1c0.5-0.7,1.3-1,2-0.5
			c3.2,2,6.1,4.1,8.5,6.3c0.6,0.5,0.7,1.5,0.2,2.2C443.9,57.9,443.5,58.1,443.1,58.1z"/>
	</g>
</g>
</svg>
