<?xml version="1.0" encoding="utf-8"?>
<!-- Generator: Adobe Illustrator 19.2.1, SVG Export Plug-In . SVG Version: 6.00 Build 0)  -->
<svg version="1.1" id="Capa_1" xmlns="http://www.w3.org/2000/svg" xmlns:xlink="http://www.w3.org/1999/xlink" x="0px" y="0px"
	 viewBox="0 0 658.5 857.6" style="enable-background:new 0 0 658.5 857.6;" xml:space="preserve">
<style type="text/css">
	.st0{fill:#F57C00;}
	.st1{opacity:0.25;fill:#FFFFFF;enable-background:new    ;}
	.st2{fill:#FFFFFF;}
	.st3{opacity:0.9;fill:#FFFFFF;enable-background:new    ;}
	.st4{opacity:0.2;fill:#FFFFFF;enable-background:new    ;}
	.st5{opacity:0.91;fill:#FFFFFF;enable-background:new    ;}
	.st6{fill:none;stroke:#FFFFFF;stroke-miterlimit:10;}
	.st7{display:none;}
	.st8{display:inline;opacity:0.8;fill:url(#SVGID_1_);enable-background:new    ;}
	.st9{fill:#262626;}
	.st10{fill:#2D2D2D;}
	.st11{fill:#1E1E1E;}
	.st12{fill:#5B5A5B;}
	.st13{fill:#353535;}
	.st14{fill:url(#SVGID_2_);}
	.st15{fill:url(#SVGID_3_);}
	.st16{fill:#545454;}
	.st17{fill:url(#SVGID_4_);}
	.st18{fill:url(#SVGID_5_);}
	.st19{fill:#666666;}
	.st20{fill:#494949;}
	.st21{fill:#636363;}
	.st22{opacity:0.2;enable-background:new    ;}
	.st23{opacity:0.12;enable-background:new    ;}
	.st24{opacity:0.1;enable-background:new    ;}
	.st25{opacity:7.000000e-02;enable-background:new    ;}
	.st26{fill:#282828;}
	.st27{opacity:5.000000e-02;fill:#FFFFFF;enable-background:new    ;}
	.st28{opacity:0.51;fill:#3A3A3A;enable-background:new    ;}
	.st29{fill:#3A3A3A;}
	.st30{opacity:0.25;fill:url(#SVGID_6_);enable-background:new    ;}
	.st31{opacity:0.25;fill:url(#SVGID_7_);enable-background:new    ;}
	.st32{opacity:0.25;fill:url(#SVGID_8_);enable-background:new    ;}
	.st33{opacity:0.25;fill:url(#SVGID_9_);enable-background:new    ;}
	.st34{fill:#161616;}
	.st35{fill:#686868;}
	.st36{fill:url(#SVGID_10_);}
	.st37{fill:#5B5B5B;}
	.st38{fill:#848384;}
	.st39{fill:#565656;}
	.st40{opacity:2.000000e-02;fill:#FFFFFF;enable-background:new    ;}
	.st41{fill:#7A7A7A;}
	.st42{clip-path:url(#SVGID_12_);}
	.st43{fill:#C6EBF7;}
	.st44{fill:#B4E5ED;}
	.st45{fill:#F4F4F4;}
	.st46{fill:#E6FAFC;enable-background:new    ;}
	.st47{clip-path:url(#SVGID_14_);fill:#F4F4F4;}
	.st48{clip-path:url(#SVGID_14_);}
	.st49{fill:#DCF3F9;}
	.st50{fill:#E4EFF2;}
	.st51{opacity:0.2;fill:#A4DFED;enable-background:new    ;}
	.st52{opacity:0.12;fill:#FFFFFF;enable-background:new    ;}
	.st53{fill:#D3D3D3;}
	.st54{fill:#BCECF7;}
	.st55{opacity:0.8;fill:url(#SVGID_15_);enable-background:new    ;}
</style>
<g id="_x30_1">
	<g>
		<ellipse class="st0" cx="330.4" cy="780.3" rx="204.3" ry="59.5"/>
		<ellipse class="st1" cx="328.2" cy="769.5" rx="174.7" ry="47.9"/>
		<g>
			<path class="st2" d="M155.5,759.8c-0.4,0-0.7-0.2-1-0.5c-0.4-0.5-0.3-1.3,0.2-1.8c2.1-1.7,4.6-3.4,7.3-5c0.6-0.4,1.4-0.2,1.7,0.4
				c0.4,0.6,0.2,1.4-0.4,1.7c-2.6,1.6-5,3.2-7,4.8C156.1,759.7,155.8,759.8,155.5,759.8z"/>
			<path class="st2" d="M332.7,827.8c-0.7,0-1.2-0.6-1.2-1.2c0-0.7,0.5-1.2,1.2-1.3c6,0,12-0.2,17.8-0.4c0.7,0,1.3,0.5,1.3,1.2
				s-0.5,1.3-1.2,1.3C344.8,827.6,338.7,827.8,332.7,827.8L332.7,827.8z M323.8,827.8L323.8,827.8c-6,0-12-0.2-17.9-0.4
				c-0.7,0-1.2-0.6-1.2-1.3s0.6-1.2,1.3-1.2c5.9,0.2,11.9,0.3,17.8,0.4c0.7,0,1.2,0.6,1.2,1.3C325,827.3,324.5,827.8,323.8,827.8z
				 M359.6,827.1c-0.7,0-1.2-0.5-1.2-1.2s0.5-1.3,1.2-1.3c6-0.3,12-0.7,17.8-1.1c0.7,0,1.3,0.5,1.3,1.1c0.1,0.7-0.5,1.3-1.1,1.3
				C371.6,826.4,365.6,826.8,359.6,827.1L359.6,827.1z M297,827.1C297,827.1,296.9,827.1,297,827.1c-6-0.3-12.1-0.7-17.9-1.1
				c-0.7-0.1-1.2-0.7-1.1-1.3c0.1-0.7,0.7-1.2,1.3-1.1c5.9,0.5,11.9,0.8,17.8,1.1c0.7,0,1.2,0.6,1.2,1.3
				C298.2,826.5,297.6,827.1,297,827.1z M386.3,825.2c-0.6,0-1.2-0.5-1.2-1.1c-0.1-0.7,0.4-1.3,1.1-1.4c6-0.6,12-1.2,17.7-1.9
				c0.7-0.1,1.3,0.4,1.4,1.1s-0.4,1.3-1.1,1.4c-5.8,0.7-11.8,1.4-17.8,2C386.4,825.2,386.4,825.2,386.3,825.2z M270.2,825.2h-0.1
				c-6-0.6-12-1.2-17.8-2c-0.7-0.1-1.2-0.7-1.1-1.4c0.1-0.7,0.7-1.1,1.4-1.1c5.8,0.7,11.7,1.4,17.7,2c0.7,0.1,1.2,0.7,1.1,1.4
				C271.4,824.7,270.9,825.2,270.2,825.2z M412.9,822.1c-0.6,0-1.1-0.4-1.2-1.1s0.4-1.3,1.1-1.4c6-0.9,11.9-1.9,17.6-2.9
				c0.7-0.1,1.3,0.3,1.5,1c0.1,0.7-0.3,1.3-1,1.5c-5.7,1.1-11.6,2.1-17.7,2.9C413.1,822.1,413,822.1,412.9,822.1z M243.6,822
				c-0.1,0-0.1,0-0.2,0c-6.1-0.9-12-1.9-17.7-3c-0.7-0.1-1.1-0.8-1-1.5s0.8-1.1,1.5-1c5.6,1.1,11.6,2.1,17.6,2.9
				c0.7,0.1,1.1,0.7,1.1,1.4C244.7,821.5,244.2,822,243.6,822z M439.4,817.4c-0.6,0-1.1-0.4-1.2-1c-0.1-0.7,0.3-1.3,1-1.5
				c6.1-1.3,11.9-2.7,17.3-4.2c0.6-0.2,1.3,0.2,1.5,0.9s-0.2,1.3-0.9,1.5c-5.5,1.5-11.3,2.9-17.4,4.2
				C439.5,817.4,439.4,817.4,439.4,817.4z M217.2,817.3c-0.1,0-0.2,0-0.3,0c-6.1-1.3-12-2.7-17.4-4.3c-0.7-0.2-1.1-0.9-0.9-1.5
				c0.2-0.7,0.9-1,1.5-0.9c5.4,1.5,11.2,2.9,17.3,4.2c0.7,0.1,1.1,0.8,1,1.5C218.3,816.9,217.8,817.3,217.2,817.3z M465.3,810.6
				c-0.5,0-1-0.3-1.2-0.9c-0.2-0.7,0.2-1.4,0.8-1.6c6.1-1.9,11.7-4,16.7-6.1c0.6-0.3,1.4,0,1.6,0.7c0.3,0.6,0,1.4-0.7,1.6
				c-5,2.2-10.7,4.3-16.9,6.2C465.6,810.6,465.4,810.6,465.3,810.6z M191.2,810.5c-0.1,0-0.3,0-0.4-0.1c-6.2-2-11.8-4.1-16.9-6.2
				c-0.6-0.3-0.9-1-0.6-1.6c0.3-0.6,1-0.9,1.6-0.6c5,2.2,10.6,4.2,16.6,6.2c0.7,0.2,1,0.9,0.8,1.6
				C192.3,810.1,191.8,810.5,191.2,810.5z M490.2,800.6c-0.4,0-0.9-0.2-1.1-0.7c-0.3-0.6-0.1-1.4,0.5-1.7c6-3.2,10.9-6.5,14.3-10
				c0.5-0.5,1.3-0.5,1.8,0s0.5,1.3,0,1.8c-3.6,3.6-8.6,7.1-14.9,10.4C490.6,800.6,490.4,800.6,490.2,800.6z M166.4,800.4
				c-0.2,0-0.4,0-0.6-0.1c-6.3-3.3-11.3-6.9-14.8-10.5c-0.5-0.5-0.5-1.3,0-1.8s1.3-0.5,1.8,0c3.4,3.5,8.2,6.9,14.2,10.1
				c0.6,0.3,0.8,1.1,0.5,1.7C167.3,800.2,166.9,800.4,166.4,800.4z M510,783.3c-0.2,0-0.4,0-0.5-0.1c-0.6-0.3-0.9-1-0.6-1.7
				c1-2,1.4-4.1,1.4-6.2c0-3.1-1.1-6.3-3.3-9.4c-0.4-0.6-0.3-1.3,0.3-1.7c0.6-0.4,1.3-0.3,1.7,0.3c2.5,3.5,3.8,7.2,3.8,10.8
				c0,2.4-0.6,4.9-1.7,7.2C510.9,783,510.5,783.3,510,783.3z M146.8,782.9c-0.5,0-0.9-0.3-1.1-0.7c-1-2.2-1.5-4.5-1.5-6.8
				c0-3.8,1.4-7.6,4.1-11.2c0.4-0.6,1.2-0.7,1.7-0.3c0.6,0.4,0.7,1.2,0.3,1.7c-2.4,3.2-3.6,6.5-3.6,9.7c0,1.9,0.4,3.9,1.3,5.8
				c0.3,0.6,0,1.4-0.6,1.6C147.1,782.9,147,782.9,146.8,782.9z"/>
			<path class="st2" d="M501.7,760c-0.3,0-0.6-0.1-0.8-0.3c-2-1.6-4.4-3.3-7-4.9c-0.6-0.4-0.8-1.1-0.4-1.7c0.4-0.6,1.1-0.8,1.7-0.4
				c2.7,1.6,5.2,3.3,7.3,5.1c0.5,0.4,0.6,1.2,0.2,1.8C502.4,759.8,502.1,760,501.7,760z"/>
		</g>
		<path class="st3" d="M328.2,818.1l-0.1-1.2h0.1h1.1v1.2H328.2z M324.4,818.1h-1.2v-1.2h1.2V818.1z M333.1,818v-1.2h1.2v1.2H333.1z
			 M319.4,818h-1.2v-1.2h1.2V818z M338.1,818v-1.2h1.2v1.2H338.1z M314.4,817.9h-1.2v-1.2h1.2V817.9z M343.1,817.9v-1.2h1.2v1.2
			H343.1z M309.4,817.8h-1.2v-1.2h1.2V817.8z M348.1,817.8v-1.2h1.2v1.2H348.1z M304.4,817.6h-1.2v-1.2h1.2V817.6z M353,817.6v-1.2
			h1.2l0.1,1.2H353z M299.5,817.4l-1.2-0.1l0.1-1.2l1.2,0.1L299.5,817.4z M358,817.4l-0.1-1.2l1.2-0.1l0.1,1.2L358,817.4z
			 M294.5,817.2l-1.2-0.1l0.1-1.2l1.2,0.1L294.5,817.2z M363,817.1l-0.1-1.2l1.2-0.1l0.1,1.2L363,817.1z M289.5,816.9l-1.2-0.1
			l0.1-1.2l1.2,0.1L289.5,816.9z M368,816.8l-0.1-1.2l1.2-0.1l0.1,1.2L368,816.8z M284.5,816.6l-1.2-0.1l0.1-1.2l1.2,0.1
			L284.5,816.6z M373,816.5l-0.1-1.2l1.2-0.1l0.1,1.2L373,816.5z M279.5,816.2l-1.2-0.1l0.1-1.2l1.2,0.1L279.5,816.2z M377.9,816.1
			l-0.1-1.2l1.2-0.1l0.1,1.2L377.9,816.1z M274.6,815.8l-1.2-0.1l0.1-1.2l1.2,0.1L274.6,815.8z M382.9,815.7l-0.1-1.2l1.2-0.1
			l0.1,1.2L382.9,815.7z M269.6,815.3l-1.2-0.1l0.1-1.2l1.2,0.1L269.6,815.3z M387.9,815.2l-0.1-1.2l1.2-0.1l0.1,1.2L387.9,815.2z
			 M264.6,814.8l-1.2-0.1l0.1-1.2l1.2,0.1L264.6,814.8z M392.8,814.7l-0.1-1.2l1.2-0.1l0.1,1.2L392.8,814.7z M259.7,814.2l-1.2-0.1
			l0.1-1.2l1.2,0.1L259.7,814.2z M397.8,814.1l-0.1-1.2l1.2-0.1l0.2,1.2L397.8,814.1z M254.7,813.6l-1.2-0.2l0.2-1.2l1.2,0.2
			L254.7,813.6z M402.7,813.5l-0.2-1.2l1.2-0.2l0.2,1.2L402.7,813.5z M249.8,813l-1.2-0.2l0.2-1.2l1.2,0.2L249.8,813z M407.7,812.8
			l-0.2-1.2l1.2-0.2l0.2,1.2L407.7,812.8z M244.9,812.3l-1.2-0.2l0.2-1.2l1.2,0.2L244.9,812.3z M412.6,812.1l-0.2-1.2l1.2-0.2
			l0.2,1.2L412.6,812.1z M239.9,811.5l-1.2-0.2l0.2-1.2l1.2,0.2L239.9,811.5z M417.6,811.3l-0.2-1.2l1.2-0.2l0.2,1.2L417.6,811.3z
			 M235,810.7l-1.2-0.2l0.2-1.2l1.2,0.2L235,810.7z M422.5,810.5l-0.2-1.2l1.2-0.2l0.2,1.2L422.5,810.5z M230.1,809.8l-1.2-0.2
			l0.2-1.2l1.2,0.2L230.1,809.8z M427.4,809.6l-0.2-1.2l1.2-0.2l0.2,1.2L427.4,809.6z M225.2,808.9l-1.2-0.2l0.2-1.2l1.2,0.2
			L225.2,808.9z M432.3,808.6l-0.2-1.2l1.2-0.2l0.3,1.2L432.3,808.6z M220.3,807.8l-1.2-0.3l0.3-1.2l1.2,0.3L220.3,807.8z
			 M437.2,807.6l-0.3-1.2l1.2-0.3l0.3,1.2L437.2,807.6z M215.4,806.8l-1.2-0.3l0.3-1.2l1.2,0.3L215.4,806.8z M442,806.5l-0.3-1.2
			l1.2-0.3l0.3,1.2L442,806.5z M210.6,805.6l-1.2-0.3l0.3-1.2l1.2,0.3L210.6,805.6z M446.9,805.3l-0.3-1.2l1.2-0.3l0.3,1.2
			L446.9,805.3z M205.7,804.3l-1.2-0.3l0.3-1.2l1.2,0.3L205.7,804.3z M451.7,804.1l-0.3-1.2l1.2-0.3l0.3,1.2L451.7,804.1z
			 M200.9,803l-1.2-0.4l0.4-1.2l1.2,0.4L200.9,803z M456.5,802.7l-0.4-1.2l1.2-0.4l0.4,1.2L456.5,802.7z M196.1,801.5l-1.2-0.4
			l0.4-1.2l1.2,0.4L196.1,801.5z M461.3,801.2l-0.4-1.2l1.2-0.4l0.4,1.2L461.3,801.2z M191.4,800l-1.2-0.4l0.4-1.2l1.2,0.4
			L191.4,800z M466,799.6l-0.4-1.2l1.2-0.4l0.4,1.2L466,799.6z M186.7,798.3l-1.2-0.4l0.4-1.2l1.2,0.4L186.7,798.3z M470.7,797.9
			l-0.4-1.2c0.4-0.1,0.8-0.3,1.2-0.4l0.5,1.2C471.5,797.6,471.1,797.7,470.7,797.9z M182,796.4l-1.2-0.5l0.5-1.1l1.1,0.5L182,796.4z
			 M475.4,796l-0.5-1.1c0.4-0.2,0.8-0.3,1.1-0.5l0.5,1.1C476.1,795.7,475.8,795.9,475.4,796z M177.5,794.4c-0.4-0.2-0.8-0.4-1.1-0.5
			l0.5-1.1c0.4,0.2,0.7,0.4,1.1,0.5L177.5,794.4z M479.9,794l-0.5-1.1c0.4-0.2,0.7-0.4,1.1-0.5l0.5,1.1
			C480.7,793.6,480.3,793.8,479.9,794z M173,792.2c-0.4-0.2-0.7-0.4-1.1-0.6l0.6-1.1c0.4,0.2,0.7,0.4,1.1,0.6L173,792.2z
			 M484.4,791.7l-0.6-1.1c0.4-0.2,0.7-0.4,1.1-0.6l0.6,1.1C485.1,791.3,484.8,791.5,484.4,791.7z M168.6,789.7
			c-0.4-0.2-0.7-0.4-1.1-0.7l0.7-1.1c0.3,0.2,0.7,0.4,1,0.6L168.6,789.7z M488.7,789.2l-0.7-1.1c0.4-0.2,0.7-0.4,1-0.7l0.7,1
			C489.5,788.7,489.1,788.9,488.7,789.2z M164.4,787c-0.3-0.3-0.7-0.5-1-0.8l0.8-1c0.3,0.2,0.7,0.5,1,0.7L164.4,787z M492.9,786.3
			l-0.8-1c0.3-0.3,0.7-0.5,1-0.8l0.8,1C493.6,785.8,493.2,786.1,492.9,786.3z M160.5,783.8c-0.3-0.3-0.6-0.6-0.9-0.9l0.9-0.9
			c0.3,0.3,0.6,0.6,0.9,0.8L160.5,783.8z M496.7,783l-0.9-0.9c0.3-0.3,0.6-0.6,0.9-0.9l0.9,0.9C497.3,782.4,497,782.7,496.7,783z
			 M157,780.1c-0.3-0.3-0.5-0.7-0.8-1l1-0.7c0.2,0.3,0.5,0.6,0.7,1L157,780.1z M500.1,779.2l-1-0.7c0.2-0.3,0.5-0.7,0.7-1l1.1,0.7
			C500.5,778.5,500.3,778.9,500.1,779.2z M154.3,775.8c-0.2-0.4-0.3-0.8-0.5-1.2l1.2-0.4c0.1,0.4,0.3,0.7,0.5,1.1L154.3,775.8z
			 M502.5,774.8l-1.2-0.4c0.1-0.4,0.3-0.8,0.4-1.1l1.2,0.3C502.8,773.9,502.7,774.3,502.5,774.8z M153,770.8c0-0.4-0.1-0.9-0.1-1.3
			v-0.4h1.2v0.3c0,0.4,0,0.8,0.1,1.2L153,770.8z M503.5,769.7h-1.2v-0.2c0-0.3,0-0.7,0-1l1.2-0.1c0,0.4,0,0.7,0,1.1V769.7z
			 M154.7,765.7l-1.2-0.4c0.1-0.4,0.3-0.8,0.4-1.2l1.2,0.5C155,765,154.9,765.3,154.7,765.7z M501.5,765.1c-0.1-0.4-0.3-0.7-0.4-1.1
			l1.1-0.5c0.2,0.4,0.3,0.8,0.5,1.2L501.5,765.1z M156.8,761.4l-1-0.7c0.2-0.4,0.5-0.7,0.7-1.1l1,0.7
			C157.2,760.8,157,761.1,156.8,761.4z M499.2,760.8c-0.2-0.3-0.5-0.7-0.7-1l1-0.8c0.3,0.3,0.5,0.7,0.8,1L499.2,760.8z M159.8,757.6
			l-0.9-0.9c0.3-0.3,0.6-0.6,0.9-0.9l0.9,0.9C160.4,757.1,160.1,757.4,159.8,757.6z M496.1,757.1c-0.3-0.3-0.6-0.6-0.9-0.8l0.8-0.9
			c0.3,0.3,0.6,0.6,0.9,0.9L496.1,757.1z M163.4,754.4l-0.8-1c0.3-0.3,0.7-0.5,1-0.8l0.7,1C164.1,753.9,163.8,754.1,163.4,754.4z
			 M492.4,753.9c-0.3-0.2-0.6-0.5-1-0.7l0.7-1c0.3,0.3,0.7,0.5,1,0.8L492.4,753.9z M167.4,751.5l-0.7-1c0.3-0.2,0.7-0.5,1.1-0.7
			l0.7,1.1C168.1,751.1,167.8,751.3,167.4,751.5z M488.4,751.1c-0.3-0.2-0.7-0.4-1-0.7l0.6-1.1c0.4,0.2,0.7,0.4,1.1,0.7L488.4,751.1
			z M171.7,749l-0.6-1.1c0.4-0.2,0.7-0.4,1.1-0.6l0.6,1.1C172.4,748.6,172,748.8,171.7,749z M484.1,748.6c-0.4-0.2-0.7-0.4-1.1-0.6
			l0.6-1.1c0.4,0.2,0.7,0.4,1.1,0.6L484.1,748.6z M176.1,746.7l-0.5-1.1c0.4-0.2,0.7-0.4,1.1-0.5l0.5,1.1
			C176.8,746.3,176.4,746.5,176.1,746.7z M479.7,746.4c-0.4-0.2-0.7-0.4-1.1-0.5l0.5-1.1c0.4,0.2,0.8,0.4,1.1,0.5L479.7,746.4z
			 M180.6,744.6l-0.5-1.1c0.4-0.2,0.8-0.3,1.2-0.5l0.5,1.1C181.3,744.3,180.9,744.4,180.6,744.6z M475.2,744.3
			c-0.4-0.2-0.8-0.3-1.1-0.5l0.5-1.1c0.4,0.2,0.8,0.3,1.2,0.5L475.2,744.3z M185.1,742.7l-0.5-1.2l1.2-0.5l0.4,1.2L185.1,742.7z
			 M470.6,742.4l-1.2-0.4l0.4-1.2l1.2,0.4L470.6,742.4z M189.8,741l-0.4-1.2l1.2-0.4l0.4,1.2L189.8,741z M465.9,740.7l-1.2-0.4
			l0.4-1.2l1.2,0.4L465.9,740.7z M194.5,739.4l-0.4-1.2l1.2-0.4l0.4,1.2L194.5,739.4z M461.2,739.1l-1.2-0.4l0.4-1.2l1.2,0.4
			L461.2,739.1z M199.2,737.9l-0.4-1.2l1.2-0.4l0.4,1.2L199.2,737.9z M456.5,737.7l-1.2-0.4l0.3-1.2l1.2,0.4L456.5,737.7z
			 M204,736.5l-0.3-1.2l1.2-0.3l0.3,1.2L204,736.5z M451.7,736.3l-1.2-0.3l0.3-1.2l1.2,0.3L451.7,736.3z M208.8,735.2l-0.3-1.2
			l1.2-0.3l0.3,1.2L208.8,735.2z M446.9,735l-1.2-0.3l0.3-1.2l1.2,0.3L446.9,735z M213.6,734l-0.3-1.2l1.2-0.3l0.3,1.2L213.6,734z
			 M442.1,733.8l-1.2-0.3l0.3-1.2l1.2,0.3L442.1,733.8z M218.5,732.9l-0.3-1.2l1.2-0.3l0.3,1.2L218.5,732.9z M437.2,732.7l-1.2-0.3
			l0.3-1.2l1.2,0.3L437.2,732.7z M223.3,731.8l-0.2-1.2l1.2-0.2l0.2,1.2L223.3,731.8z M432.4,731.7l-1.2-0.2l0.2-1.2l1.2,0.2
			L432.4,731.7z M228.2,730.9l-0.2-1.2l1.2-0.2l0.2,1.2L228.2,730.9z M427.5,730.7l-1.2-0.2l0.2-1.2l1.2,0.2L427.5,730.7z
			 M233.1,730l-0.2-1.2l1.2-0.2l0.2,1.2L233.1,730z M422.6,729.8l-1.2-0.2l0.2-1.2l1.2,0.2L422.6,729.8z M238,729.1l-0.2-1.2
			l1.2-0.2l0.2,1.2L238,729.1z M417.7,729l-1.2-0.2l0.2-1.2l1.2,0.2L417.7,729z M242.9,728.3l-0.2-1.2l1.2-0.2l0.2,1.2L242.9,728.3z
			 M412.8,728.2l-1.2-0.2l0.2-1.2l1.2,0.2L412.8,728.2z M247.8,727.6l-0.2-1.2l1.2-0.2l0.2,1.2L247.8,727.6z M407.9,727.5l-1.2-0.2
			l0.2-1.2l1.2,0.2L407.9,727.5z M252.8,726.9l-0.2-1.2l1.2-0.2l0.2,1.2L252.8,726.9z M402.9,726.8l-1.2-0.2l0.2-1.2l1.2,0.2
			L402.9,726.8z M257.7,726.3l-0.2-1.2l1.2-0.1l0.1,1.2L257.7,726.3z M398,726.2l-1.2-0.1l0.1-1.2l1.2,0.1L398,726.2z M262.6,725.7
			l-0.1-1.2l1.2-0.1l0.1,1.2L262.6,725.7z M393,725.6l-1.2-0.1l0.1-1.2l1.2,0.1L393,725.6z M267.6,725.2l-0.1-1.2l1.2-0.1l0.1,1.2
			L267.6,725.2z M388.1,725.1l-1.2-0.1l0.1-1.2l1.2,0.1L388.1,725.1z M272.5,724.7l-0.1-1.2l1.2-0.1l0.1,1.2L272.5,724.7z
			 M383.1,724.7l-1.2-0.1l0.1-1.2l1.2,0.1L383.1,724.7z M277.5,724.3l-0.1-1.2l1.2-0.1l0.1,1.2L277.5,724.3z M378.2,724.2l-1.2-0.1
			l0.1-1.2l1.2,0.1L378.2,724.2z M282.5,723.9l-0.1-1.2l1.2-0.1l0.1,1.2L282.5,723.9z M373.2,723.8l-1.2-0.1l0.1-1.2l1.2,0.1
			L373.2,723.8z M287.4,723.5l-0.1-1.2l1.2-0.1l0.1,1.2L287.4,723.5z M368.3,723.5l-1.2-0.1l0.1-1.2l1.2,0.1L368.3,723.5z
			 M292.4,723.2l-0.1-1.2l1.2-0.1l0.1,1.2L292.4,723.2z M363.3,723.2l-1.2-0.1l0.1-1.2l1.2,0.1L363.3,723.2z M297.4,723l-0.1-1.2
			l1.2-0.1l0.1,1.2L297.4,723z M358.3,722.9l-1.2-0.1l0.1-1.2l1.2,0.1L358.3,722.9z M302.3,722.8l-0.1-1.2h1.2v1.2H302.3z
			 M353.3,722.7h-1.2v-1.2h1.2V722.7z M307.3,722.6v-1.2h1.2v1.2H307.3z M348.4,722.5h-1.2v-1.2h1.2V722.5z M312.3,722.4v-1.2h1.2
			v1.2H312.3z M343.4,722.4h-1.2v-1.2h1.2V722.4z M317.3,722.3v-1.2h1.2v1.2H317.3z M338.4,722.3h-1.2v-1.2h1.2V722.3z M322.2,722.3
			v-1.2h1.2v1.2H322.2z M333.4,722.3h-1.2v-1.2h1.2V722.3z M327.2,722.2V721h1.2v1.2H327.2z"/>
		<g>
			<g>
				<path class="st0" d="M128.5,768.3c-0.5,0-0.8-0.2-1.2-0.6c-0.5-0.6-0.4-1.6,0.2-2.2c2.5-2.1,5.4-4.2,8.5-6.2
					c0.7-0.5,1.6-0.2,2,0.5c0.5,0.7,0.2,1.7-0.5,2.1c-3,2-5.8,4-8.2,6C129.2,768.2,128.9,768.3,128.5,768.3z"/>
				<path class="st0" d="M335.7,852.8c-0.8,0-1.4-0.7-1.4-1.5c0-0.9,0.6-1.5,1.4-1.6c7,0,14-0.2,20.8-0.5c0.8,0,1.5,0.6,1.5,1.5
					s-0.6,1.6-1.4,1.6C349.9,852.5,342.7,852.8,335.7,852.8L335.7,852.8z M325.3,852.8L325.3,852.8c-7,0-14-0.2-20.9-0.5
					c-0.8,0-1.4-0.7-1.4-1.6c0-0.9,0.7-1.5,1.5-1.5c6.9,0.2,13.9,0.4,20.8,0.5c0.8,0,1.4,0.7,1.4,1.6
					C326.7,852.1,326.1,852.8,325.3,852.8z M367.2,851.9c-0.8,0-1.4-0.6-1.4-1.5s0.6-1.6,1.4-1.6c7-0.4,14-0.9,20.8-1.4
					c0.8,0,1.5,0.6,1.5,1.4c0.1,0.9-0.6,1.6-1.3,1.6C381.2,851,374.2,851.5,367.2,851.9L367.2,851.9z M294,851.9
					C294,851.9,293.8,851.9,294,851.9c-7-0.4-14.1-0.9-20.9-1.4c-0.8-0.1-1.4-0.9-1.3-1.6c0.1-0.9,0.8-1.5,1.5-1.4
					c6.9,0.6,13.9,1,20.8,1.4c0.8,0,1.4,0.7,1.4,1.6C295.4,851.1,294.7,851.9,294,851.9z M398.4,849.5c-0.7,0-1.4-0.6-1.4-1.4
					c-0.1-0.9,0.5-1.6,1.3-1.7c7-0.7,14-1.5,20.7-2.4c0.8-0.1,1.5,0.5,1.6,1.4s-0.5,1.6-1.3,1.7c-6.8,0.9-13.8,1.7-20.8,2.5
					C398.5,849.5,398.5,849.5,398.4,849.5z M262.6,849.5h-0.1c-7-0.7-14-1.5-20.8-2.5c-0.8-0.1-1.4-0.9-1.3-1.7
					c0.1-0.9,0.8-1.4,1.6-1.4c6.8,0.9,13.7,1.7,20.7,2.5c0.8,0.1,1.4,0.9,1.3,1.7C264,848.9,263.4,849.5,262.6,849.5z M429.5,845.7
					c-0.7,0-1.3-0.5-1.4-1.4s0.5-1.6,1.3-1.7c7-1.1,13.9-2.4,20.6-3.6c0.8-0.1,1.5,0.4,1.8,1.2c0.1,0.9-0.4,1.6-1.2,1.9
					c-6.7,1.4-13.6,2.6-20.7,3.6C429.7,845.7,429.6,845.7,429.5,845.7z M231.5,845.5c-0.1,0-0.1,0-0.2,0c-7.1-1.1-14-2.4-20.7-3.7
					c-0.8-0.1-1.3-1-1.2-1.9s0.9-1.4,1.8-1.2c6.5,1.4,13.6,2.6,20.6,3.6c0.8,0.1,1.3,0.9,1.3,1.7
					C232.8,844.9,232.2,845.5,231.5,845.5z M460.5,839.8c-0.7,0-1.3-0.5-1.4-1.2c-0.1-0.9,0.4-1.6,1.2-1.9
					c7.1-1.6,13.9-3.4,20.2-5.2c0.7-0.2,1.5,0.2,1.8,1.1c0.2,0.9-0.2,1.6-1.1,1.9c-6.4,1.9-13.2,3.6-20.3,5.2
					C460.6,839.8,460.5,839.8,460.5,839.8z M200.7,839.7c-0.1,0-0.2,0-0.4,0c-7.1-1.6-14-3.4-20.3-5.3c-0.8-0.2-1.3-1.1-1.1-1.9
					c0.2-0.9,1.1-1.2,1.8-1.1c6.3,1.9,13.1,3.6,20.2,5.2c0.8,0.1,1.3,1,1.2,1.9C201.9,839.2,201.4,839.7,200.7,839.7z M490.8,831.4
					c-0.6,0-1.2-0.4-1.4-1.1c-0.2-0.9,0.2-1.7,0.9-2c7.1-2.4,13.7-5,19.5-7.6c0.7-0.4,1.6,0,1.9,0.9c0.4,0.7,0,1.7-0.8,2
					c-5.8,2.7-12.5,5.3-19.8,7.7C491.1,831.4,490.9,831.4,490.8,831.4z M170.3,831.3c-0.1,0-0.4,0-0.5-0.1
					c-7.2-2.5-13.8-5.1-19.8-7.7c-0.7-0.4-1.1-1.2-0.7-2c0.4-0.7,1.2-1.1,1.9-0.7c5.8,2.7,12.4,5.2,19.4,7.7c0.8,0.2,1.2,1.1,0.9,2
					C171.5,830.8,171,831.3,170.3,831.3z M519.9,819c-0.5,0-1.1-0.2-1.3-0.9c-0.4-0.7-0.1-1.7,0.6-2.1c7-4,12.7-8.1,16.7-12.4
					c0.6-0.6,1.5-0.6,2.1,0s0.6,1.6,0,2.2c-4.2,4.5-10.1,8.8-17.4,12.9C520.3,819,520.1,819,519.9,819z M141.3,818.7
					c-0.2,0-0.5,0-0.7-0.1c-7.4-4.1-13.2-8.6-17.3-13c-0.6-0.6-0.6-1.6,0-2.2c0.6-0.6,1.5-0.6,2.1,0c4,4.3,9.6,8.6,16.6,12.5
					c0.7,0.4,0.9,1.4,0.6,2.1C142.3,818.5,141.8,818.7,141.3,818.7z M543,797.5c-0.2,0-0.5,0-0.6-0.1c-0.7-0.4-1.1-1.2-0.7-2.1
					c1.2-2.5,1.6-5.1,1.6-7.7c0-3.9-1.3-7.8-3.9-11.7c-0.5-0.7-0.4-1.6,0.4-2.1c0.7-0.5,1.5-0.4,2,0.4c2.9,4.3,4.4,8.9,4.4,13.4
					c0,3-0.7,6.1-2,8.9C544.1,797.1,543.6,797.5,543,797.5z M118.3,797c-0.6,0-1.1-0.4-1.3-0.9c-1.2-2.7-1.8-5.6-1.8-8.4
					c0-4.7,1.6-9.4,4.8-13.9c0.5-0.7,1.4-0.9,2-0.4c0.7,0.5,0.8,1.5,0.4,2.1c-2.8,4-4.2,8.1-4.2,12c0,2.4,0.5,4.8,1.5,7.2
					c0.4,0.7,0,1.7-0.7,2C118.7,797,118.6,797,118.3,797z"/>
				<path class="st0" d="M533.3,768.5c-0.4,0-0.7-0.1-0.9-0.4c-2.3-2-5.1-4.1-8.2-6.1c-0.7-0.5-0.9-1.4-0.5-2.1c0.5-0.7,1.3-1,2-0.5
					c3.2,2,6.1,4.1,8.5,6.3c0.6,0.5,0.7,1.5,0.2,2.2C534.1,768.3,533.8,768.5,533.3,768.5z"/>
			</g>
		</g>
	</g>
</g>
<g id="_x30_2">
	<g>
		<ellipse class="st4" cx="330.1" cy="670.2" rx="311.8" ry="103"/>
		<path class="st5" d="M18.5,670.2c0,0,0,0.3,0,1s0,1.7,0.2,3c0.3,2.6,1,6.4,3.1,11.1c2,4.6,5.5,9.9,10.5,15.3
			c5.1,5.3,11.6,10.7,19.5,15.9c15.9,10.3,37.1,19.7,62.3,27.6c25.2,7.9,54.3,14.5,86.4,19.1s67.3,7.5,104.4,8.2
			c37.2,0.7,76.4-0.6,116.7-5c20.1-2.2,40.5-5.2,61-9.1c20.4-3.9,41-8.8,61.2-15.1c20.3-6.7,40.3-14.5,58.5-25.5
			c9-5.5,17.6-11.8,24.5-19.6c3.5-3.8,6.4-8.1,8.5-12.6c1-2.3,1.9-4.6,2.4-7c0.2-1.2,0.5-2.4,0.6-3.6c0.1-0.6,0.2-1.2,0.2-1.8v-0.9
			v-0.5c0-0.1,0-0.4,0-0.3c0-2.9-0.3-4.9-0.8-7.4c-0.6-2.4-1.4-4.7-2.4-7c-2.1-4.5-5-8.8-8.5-12.6c-6.9-7.7-15.5-14.1-24.5-19.6
			c-18.2-11.1-38.2-18.9-58.3-25.3c-20.2-6.4-40.7-11.2-61.2-15.2c-20.4-3.9-40.8-6.9-61-9.1c-40.3-4.4-79.6-5.7-116.7-5
			c-37.2,0.7-72.3,3.6-104.4,8.2c-32.1,4.6-61.3,11.2-86.4,19.1c-25.2,7.9-46.4,17.3-62.3,27.6c-8,5.1-14.5,10.5-19.5,15.9
			S24,650.6,22,655.3c-2.1,4.6-2.8,8.5-3.1,11.1c-0.2,1.3-0.2,2.3-0.2,2.9C18.6,669.9,18.5,670.2,18.5,670.2L18.5,670.2z
			 M18.2,670.2c0,0,0-0.3,0-1s0-1.7,0.2-3c0.3-2.6,1-6.5,3.1-11.2c2-4.7,5.5-10,10.6-15.4s11.6-10.8,19.6-16
			c15.9-10.4,37.2-19.8,62.3-27.8c25.2-8,54.4-14.6,86.5-19.5c32.2-4.9,67.3-8,104.6-9c37.2-1,76.6,0.1,117,4.2
			c20.2,2,40.7,4.9,61.3,8.7c20.6,3.8,41.2,8.7,61.6,15c20.3,6.4,40.6,14.3,59.1,25.4c9.2,5.6,18.1,12.1,25.4,20.2
			c3.6,4,6.8,8.6,9.1,13.5c1.1,2.5,2.1,5.1,2.7,7.7c0.6,2.7,0.9,5.4,1,8.1c0,2.8-0.4,5.5-1,8.2s-1.6,5.2-2.7,7.7
			c-2.3,4.9-5.5,9.5-9.1,13.5c-7.3,8.1-16.1,14.6-25.4,20.2c-18.6,11.1-38.8,19-59.1,25.4c-20.4,6.4-41,11.2-61.6,15
			s-41.1,6.7-61.3,8.7c-40.4,4.1-79.8,5.2-117,4.2s-72.4-4.1-104.6-9s-61.3-11.5-86.5-19.5s-46.4-17.4-62.3-27.8
			c-8-5.2-14.5-10.6-19.6-16c-5-5.4-8.5-10.7-10.6-15.4s-2.8-8.6-3.1-11.2c-0.2-1.3-0.2-2.3-0.2-3C18.2,670.6,18.2,670.2,18.2,670.2
			L18.2,670.2z"/>
	</g>
</g>
<g id="_x30_3">
	<g>
		<ellipse class="st1" cx="329.5" cy="624.9" rx="174.7" ry="47.9"/>
		<path class="st3" d="M329.5,674.2c-0.7,0-1.3-0.6-1.3-1.2c0-0.6,0.5-1.2,1.2-1.2h1.2l0,0c0.7,0,1.2,0.6,1.2,1.2
			c0,0.7-0.6,1.2-1.2,1.2H329.5z M320.7,674L320.7,674h-1.3c-0.7,0-1.2-0.6-1.2-1.3s0.5-1.2,1.3-1.2h1.2c0.7,0,1.2,0.6,1.2,1.3
			C321.9,673.5,321.4,674,320.7,674z M339.4,674c-0.7,0-1.2-0.5-1.2-1.2s0.5-1.3,1.2-1.3h1.2c0.7,0,1.3,0.5,1.3,1.2
			s-0.5,1.3-1.2,1.3H339.4L339.4,674z M310.7,673.8L310.7,673.8h-1.3c-0.7,0-1.2-0.6-1.2-1.3s0.6-1.2,1.2-1.2l0,0h1.2
			c0.7,0,1.2,0.6,1.2,1.3C311.9,673.3,311.4,673.8,310.7,673.8z M349.3,673.8c-0.7,0-1.2-0.5-1.2-1.2s0.5-1.3,1.2-1.3h1.2l0,0
			c0.7,0,1.2,0.5,1.2,1.2s-0.5,1.3-1.2,1.3H349.3L349.3,673.8z M300.7,673.4L300.7,673.4l-1.3-0.1c-0.7,0-1.2-0.6-1.2-1.3
			s0.6-1.2,1.3-1.2l1.2,0.1c0.7,0,1.2,0.6,1.2,1.3C302,672.9,301.4,673.4,300.7,673.4z M359.3,673.4c-0.7,0-1.2-0.5-1.2-1.2
			s0.5-1.3,1.2-1.3l1.2-0.1c0.7-0.1,1.3,0.5,1.3,1.2s-0.5,1.3-1.2,1.3L359.3,673.4L359.3,673.4z M290.8,672.9
			C290.8,672.9,290.7,672.9,290.8,672.9l-1.3-0.1c-0.7,0-1.2-0.6-1.2-1.3s0.7-1.2,1.3-1.2l1.2,0.1c0.7,0,1.2,0.6,1.2,1.3
			S291.4,672.9,290.8,672.9z M369.2,672.8c-0.7,0-1.2-0.5-1.2-1.2s0.5-1.3,1.2-1.3l1.2-0.1c0.7,0,1.3,0.5,1.3,1.2s-0.5,1.3-1.2,1.3
			L369.2,672.8C369.3,672.8,369.3,672.8,369.2,672.8z M280.9,672.2C280.8,672.2,280.8,672.2,280.9,672.2l-1.3-0.1
			c-0.7-0.1-1.2-0.7-1.1-1.3c0.1-0.7,0.6-1.2,1.3-1.1l1.2,0.1c0.7,0.1,1.2,0.7,1.1,1.3S281.5,672.2,280.9,672.2z M379.2,672.2
			c-0.6,0-1.2-0.5-1.2-1.1c-0.1-0.7,0.5-1.3,1.1-1.3l1.2-0.1c0.7,0,1.3,0.5,1.3,1.1c0.1,0.7-0.5,1.3-1.1,1.3L379.2,672.2
			L379.2,672.2z M270.9,671.3h-0.1l-1.2-0.1c-0.7-0.1-1.2-0.7-1.1-1.4s0.7-1.2,1.4-1.1l1.2,0.1c0.7,0.1,1.2,0.7,1.1,1.4
			C272.1,670.8,271.6,671.3,270.9,671.3z M389.1,671.2c-0.6,0-1.2-0.5-1.2-1.1c-0.1-0.7,0.4-1.3,1.1-1.4l1.2-0.1
			c0.7-0.1,1.3,0.4,1.4,1.1s-0.4,1.3-1.1,1.4l-1.2,0.1C389.2,671.2,389.1,671.2,389.1,671.2z M261,670.3h-0.1l-1.2-0.1
			c-0.7-0.1-1.2-0.7-1.1-1.4s0.7-1.2,1.4-1.1l1.2,0.1c0.7,0.1,1.2,0.7,1.1,1.4C262.2,669.8,261.6,670.3,261,670.3z M399,670.2
			c-0.6,0-1.2-0.5-1.2-1.1c-0.1-0.7,0.4-1.3,1.1-1.4l1.2-0.1c0.7-0.1,1.3,0.4,1.4,1.1s-0.4,1.3-1.1,1.4l-1.2,0.1
			C399.1,670.2,399,670.2,399,670.2z M251.1,669c-0.1,0-0.1,0-0.2,0l-1.2-0.2c-0.7-0.1-1.2-0.7-1.1-1.4c0.1-0.7,0.7-1.2,1.4-1.1
			l1.2,0.2c0.7,0.1,1.2,0.7,1.1,1.4C252.3,668.7,251.7,669,251.1,669z M408.9,668.9c-0.6,0-1.1-0.4-1.2-1.1s0.4-1.3,1.1-1.4l1.2-0.2
			c0.7-0.1,1.3,0.4,1.4,1.1s-0.4,1.3-1.1,1.4l-1.2,0.2C409,668.9,408.9,668.9,408.9,668.9z M241.3,667.5c-0.1,0-0.1,0-0.2,0
			l-1.2-0.2c-0.7-0.1-1.1-0.8-1-1.4c0.1-0.7,0.7-1.1,1.4-1l1.2,0.2c0.7,0.1,1.1,0.7,1,1.4S241.9,667.5,241.3,667.5z M418.7,667.4
			c-0.6,0-1.1-0.4-1.2-1c-0.1-0.7,0.4-1.3,1-1.4l1.2-0.2c0.7-0.1,1.3,0.3,1.4,1s-0.3,1.3-1,1.4l-1.2,0.2
			C418.9,667.4,418.8,667.4,418.7,667.4z M231.5,665.8c-0.1,0-0.2,0-0.2,0l-1.2-0.2c-0.7-0.1-1.1-0.8-1-1.5s0.8-1.1,1.5-1l1.2,0.2
			c0.7,0.1,1.1,0.8,1,1.5C232.6,665.4,232,665.8,231.5,665.8z M428.6,665.7c-0.6,0-1.1-0.4-1.2-1c-0.1-0.7,0.3-1.3,1-1.5l1.2-0.2
			c0.7-0.1,1.3,0.3,1.5,1c0.1,0.7-0.3,1.3-1,1.5l-1.2,0.2C428.7,665.7,428.6,665.7,428.6,665.7z M221.7,663.9c-0.1,0-0.2,0-0.3,0
			l-1.2-0.3c-0.7-0.1-1.1-0.8-0.9-1.5c0.1-0.7,0.8-1.1,1.5-0.9l1.2,0.3c0.7,0.1,1.1,0.8,1,1.5C222.8,663.5,222.3,663.9,221.7,663.9z
			 M438.3,663.7c-0.6,0-1.1-0.4-1.2-1c-0.1-0.7,0.3-1.3,1-1.5l1.2-0.3c0.7-0.2,1.3,0.3,1.5,0.9c0.2,0.7-0.3,1.3-0.9,1.5l-1.2,0.3
			C438.5,663.7,438.4,663.7,438.3,663.7z M212,661.7c-0.1,0-0.2,0-0.3,0l-1.2-0.3c-0.7-0.2-1.1-0.8-0.9-1.5c0.2-0.7,0.8-1.1,1.5-0.9
			l1.2,0.3c0.7,0.2,1.1,0.8,0.9,1.5C213,661.3,212.5,661.7,212,661.7z M448,661.4c-0.6,0-1.1-0.4-1.2-0.9c-0.2-0.7,0.2-1.3,0.9-1.5
			l1.2-0.3c0.7-0.2,1.3,0.2,1.5,0.9s-0.2,1.3-0.9,1.5l-1.2,0.3C448.2,661.3,448.1,661.4,448,661.4z M202.3,659c-0.1,0-0.2,0-0.3,0
			l-1.2-0.4c-0.7-0.2-1-0.9-0.8-1.5c0.2-0.7,0.9-1,1.5-0.8l1.2,0.3c0.7,0.2,1,0.9,0.8,1.5C203.4,658.8,202.9,659,202.3,659z
			 M457.6,658.8c-0.5,0-1-0.4-1.2-0.9c-0.2-0.7,0.2-1.4,0.8-1.5l1.2-0.4c0.7-0.2,1.4,0.2,1.6,0.8c0.2,0.7-0.2,1.4-0.8,1.6l-1.2,0.4
			C457.9,658.8,457.7,658.8,457.6,658.8z M192.8,656c-0.1,0-0.3,0-0.4-0.1l-1.2-0.4c-0.6-0.2-1-0.9-0.8-1.6c0.2-0.6,0.9-1,1.6-0.8
			l1.2,0.4c0.6,0.2,1,0.9,0.8,1.6C193.8,655.8,193.4,656,192.8,656z M467.1,655.8c-0.5,0-1-0.3-1.2-0.8c-0.2-0.6,0.1-1.4,0.8-1.6
			l1.2-0.4c0.6-0.2,1.4,0.1,1.6,0.7c0.2,0.6-0.1,1.4-0.7,1.6l-1.2,0.4C467.4,655.7,467.3,655.8,467.1,655.8z M183.5,652.5
			c-0.2,0-0.3,0-0.5-0.1l-1.2-0.5c-0.6-0.3-0.9-1-0.7-1.6c0.3-0.6,1-0.9,1.6-0.7l1.1,0.5c0.6,0.3,0.9,1,0.7,1.6
			C184.5,652.2,184,652.5,183.5,652.5z M476.4,652.2c-0.5,0-0.9-0.3-1.1-0.8c-0.3-0.6,0-1.4,0.7-1.6c0.4-0.2,0.8-0.3,1.1-0.5
			c0.6-0.3,1.4,0,1.6,0.6c0.3,0.6,0,1.4-0.6,1.6c-0.4,0.2-0.8,0.3-1.2,0.5C476.7,652,476.6,652.2,476.4,652.2z M174.5,648.3
			c-0.2,0-0.4,0-0.6-0.1c-0.4-0.2-0.8-0.4-1.1-0.6c-0.6-0.3-0.8-1.1-0.5-1.7s1.1-0.8,1.7-0.5c0.4,0.2,0.7,0.4,1.1,0.6
			c0.6,0.3,0.8,1.1,0.5,1.7C175.4,648.2,174.9,648.3,174.5,648.3z M485.4,647.8c-0.4,0-0.9-0.2-1.1-0.7c-0.3-0.6-0.1-1.4,0.5-1.7
			c0.4-0.2,0.7-0.4,1.1-0.6c0.6-0.3,1.4-0.1,1.7,0.5c0.3,0.6,0.1,1.4-0.5,1.7c-0.4,0.2-0.7,0.4-1.1,0.6
			C485.8,647.8,485.6,647.8,485.4,647.8z M166,643.2c-0.3,0-0.5-0.1-0.7-0.2c-0.3-0.3-0.7-0.5-1-0.8c-0.5-0.4-0.7-1.2-0.2-1.7
			c0.4-0.5,1.2-0.6,1.7-0.2c0.3,0.2,0.6,0.5,1,0.7c0.6,0.4,0.7,1.2,0.3,1.7C166.8,642.9,166.4,643.2,166,643.2z M493.8,642.4
			c-0.4,0-0.7-0.2-1-0.5c-0.4-0.5-0.3-1.3,0.2-1.7c0.3-0.2,0.6-0.5,1-0.7c0.5-0.4,1.3-0.3,1.8,0.2c0.4,0.5,0.3,1.3-0.2,1.8
			c-0.3,0.3-0.7,0.5-1,0.8C494.3,642.3,494.1,642.4,493.8,642.4z M158.7,636.3c-0.4,0-0.7-0.2-1-0.5s-0.5-0.7-0.8-1
			c-0.4-0.6-0.3-1.3,0.3-1.7s1.3-0.3,1.7,0.3c0.2,0.3,0.5,0.6,0.7,0.9c0.4,0.5,0.3,1.3-0.2,1.7C159.3,636.3,159,636.3,158.7,636.3z
			 M500.8,635.5c-0.3,0-0.5-0.1-0.7-0.2c-0.6-0.4-0.7-1.2-0.3-1.7c0.2-0.3,0.4-0.6,0.7-1c0.4-0.6,1.1-0.7,1.7-0.4
			c0.6,0.4,0.8,1.1,0.4,1.7c-0.2,0.4-0.5,0.7-0.7,1.1C501.6,635.3,501.2,635.5,500.8,635.5z M154.9,627.4c-0.6,0-1.2-0.5-1.2-1.1
			c0-0.4-0.1-0.9-0.1-1.4v-0.2c0-0.7,0.6-1.2,1.3-1.2s1.2,0.6,1.2,1.3v0.2c0,0.4,0,0.7,0.1,1.1c0.1,0.7-0.4,1.3-1.1,1.4
			C154.9,627.4,154.9,627.4,154.9,627.4z M504.1,626.2c-0.7,0-1.2-0.5-1.2-1.2v-0.1c0-0.3,0-0.7,0-1c-0.1-0.7,0.4-1.3,1.1-1.3
			c0.7-0.1,1.3,0.4,1.3,1.1c0,0.4,0.1,0.8,0.1,1.2C505.4,625.7,504.8,626.2,504.1,626.2z M157.4,617.8c-0.2,0-0.5-0.1-0.7-0.2
			c-0.6-0.4-0.7-1.1-0.4-1.7c0.2-0.4,0.5-0.7,0.7-1.1c0.4-0.6,1.2-0.7,1.7-0.3c0.6,0.4,0.7,1.2,0.3,1.7c-0.2,0.3-0.5,0.6-0.7,1
			C158.3,617.7,157.9,617.8,157.4,617.8z M501,617.2c-0.4,0-0.8-0.2-1-0.5s-0.5-0.6-0.7-0.9c-0.4-0.5-0.3-1.3,0.2-1.7
			s1.3-0.3,1.7,0.2c0.3,0.3,0.5,0.7,0.8,1.1c0.4,0.6,0.3,1.3-0.3,1.7C501.5,617,501.2,617.2,501,617.2z M164.2,610.7
			c-0.4,0-0.7-0.2-1-0.5c-0.4-0.5-0.3-1.3,0.2-1.7c0.3-0.3,0.7-0.5,1-0.8c0.5-0.4,1.3-0.3,1.7,0.2s0.3,1.3-0.2,1.7
			c-0.3,0.2-0.6,0.5-1,0.7C164.8,610.5,164.5,610.7,164.2,610.7z M494,610.2c-0.3,0-0.5-0.1-0.8-0.3s-0.6-0.5-1-0.7
			c-0.6-0.4-0.7-1.2-0.3-1.7c0.4-0.6,1.2-0.7,1.7-0.3c0.3,0.3,0.7,0.5,1,0.8c0.5,0.4,0.6,1.2,0.2,1.7
			C494.7,609.9,494.4,610.2,494,610.2z M172.5,605.2c-0.4,0-0.9-0.2-1.1-0.6c-0.3-0.6-0.1-1.4,0.5-1.7c0.4-0.2,0.7-0.4,1.1-0.6
			c0.6-0.3,1.4-0.1,1.7,0.5s0.1,1.4-0.5,1.7c-0.4,0.2-0.7,0.4-1.1,0.6C172.9,605.2,172.7,605.2,172.5,605.2z M485.6,604.8
			c-0.2,0-0.4,0-0.6-0.2c-0.4-0.2-0.7-0.4-1.1-0.6c-0.6-0.3-0.8-1.1-0.5-1.7s1.1-0.8,1.7-0.5c0.4,0.2,0.7,0.4,1.1,0.6
			c0.6,0.3,0.8,1.1,0.5,1.7C486.5,604.4,486,604.8,485.6,604.8z M181.5,600.8c-0.5,0-0.9-0.3-1.1-0.7c-0.3-0.6,0-1.4,0.6-1.6
			c0.4-0.2,0.8-0.3,1.2-0.5c0.6-0.3,1.4,0,1.6,0.7c0.3,0.6,0,1.4-0.7,1.6c-0.4,0.2-0.8,0.3-1.1,0.5
			C181.8,600.8,181.6,600.8,181.5,600.8z M476.6,600.4c-0.2,0-0.3,0-0.5-0.1c-0.4-0.2-0.8-0.3-1.1-0.5c-0.6-0.3-0.9-1-0.7-1.6
			s1-0.9,1.6-0.7c0.4,0.2,0.8,0.3,1.2,0.5c0.6,0.3,0.9,1,0.7,1.6C477.6,600.2,477.1,600.4,476.6,600.4z M190.7,597.2
			c-0.5,0-1-0.3-1.2-0.8c-0.2-0.6,0.1-1.4,0.8-1.6l1.2-0.4c0.7-0.2,1.4,0.1,1.6,0.8c0.2,0.7-0.1,1.4-0.8,1.6l-1.2,0.4
			C191,597,190.9,597.2,190.7,597.2z M467.3,596.8c-0.1,0-0.3,0-0.4-0.1l-1.2-0.4c-0.6-0.2-1-0.9-0.8-1.6s0.9-1,1.6-0.8l1.2,0.4
			c0.6,0.2,1,0.9,0.8,1.6C468.3,596.4,467.9,596.8,467.3,596.8z M200.2,593.9c-0.5,0-1-0.3-1.2-0.9c-0.2-0.7,0.2-1.4,0.8-1.6
			l1.2-0.4c0.7-0.2,1.4,0.2,1.5,0.8c0.2,0.7-0.2,1.4-0.8,1.5l-1.2,0.4C200.4,593.9,200.3,593.9,200.2,593.9z M457.9,593.8
			c-0.1,0-0.2,0-0.4-0.1l-1.2-0.4c-0.7-0.2-1-0.9-0.8-1.5c0.2-0.7,0.9-1,1.5-0.8l1.2,0.4c0.7,0.2,1,0.9,0.8,1.5
			C458.9,593.3,458.4,593.8,457.9,593.8z M209.8,591.3c-0.6,0-1.1-0.4-1.2-0.9c-0.2-0.7,0.2-1.3,0.9-1.5l1.2-0.3
			c0.7-0.2,1.3,0.2,1.5,0.9s-0.2,1.3-0.9,1.5l-1.2,0.3C210,591.3,209.9,591.3,209.8,591.3z M448.3,591c-0.1,0-0.2,0-0.3,0l-1.2-0.3
			c-0.7-0.2-1.1-0.8-0.9-1.5s0.8-1.1,1.5-0.9l1.2,0.3c0.7,0.2,1.1,0.8,0.9,1.5S448.8,591,448.3,591z M219.5,588.9
			c-0.6,0-1.1-0.4-1.2-1c-0.2-0.7,0.3-1.3,0.9-1.5l1.2-0.3c0.7-0.1,1.3,0.3,1.5,1c0.1,0.7-0.3,1.3-1,1.5l-1.2,0.3
			C219.7,588.9,219.6,588.9,219.5,588.9z M438.6,588.8c-0.1,0-0.2,0-0.3,0l-1.2-0.3c-0.7-0.1-1.1-0.8-1-1.5s0.8-1.1,1.5-1l1.2,0.3
			c0.7,0.1,1.1,0.8,0.9,1.5C439.6,588.3,439.1,588.8,438.6,588.8z M229.2,586.9c-0.6,0-1.1-0.4-1.2-1c-0.1-0.7,0.3-1.3,1-1.5
			l1.2-0.2c0.7-0.1,1.3,0.3,1.5,1c0.1,0.7-0.3,1.3-1,1.5l-1.2,0.2C229.4,586.9,229.3,586.9,229.2,586.9z M428.8,586.8
			c-0.1,0-0.2,0-0.2,0l-1.2-0.2c-0.7-0.1-1.1-0.8-1-1.5s0.8-1.1,1.5-1l1.2,0.2c0.7,0.1,1.1,0.8,1,1.5
			C429.9,586.3,429.4,586.8,428.8,586.8z M239,585.2c-0.6,0-1.1-0.4-1.2-1c-0.1-0.7,0.3-1.3,1-1.4l1.2-0.2c0.7-0.1,1.3,0.4,1.4,1
			c0.1,0.7-0.4,1.3-1,1.4l-1.2,0.2C239.2,585.2,239.1,585.2,239,585.2z M419,585c-0.1,0-0.1,0-0.2,0l-1.2-0.2
			c-0.7-0.1-1.1-0.7-1-1.4s0.7-1.1,1.4-1l1.2,0.2c0.7,0.1,1.1,0.8,1,1.4C420.1,584.7,419.6,585,419,585z M248.9,583.7
			c-0.6,0-1.1-0.4-1.2-1.1c-0.1-0.7,0.4-1.3,1.1-1.4l1.2-0.2c0.7-0.1,1.3,0.4,1.4,1.1c0.1,0.7-0.4,1.3-1.1,1.4l-1.2,0.2
			C249,583.7,249,583.7,248.9,583.7z M409.1,583.5c-0.1,0-0.1,0-0.2,0l-1.2-0.2c-0.7-0.1-1.2-0.7-1.1-1.4s0.7-1.2,1.4-1.1l1.2,0.2
			c0.7,0.1,1.2,0.7,1.1,1.4C410.3,583.2,409.7,583.5,409.1,583.5z M258.8,582.3c-0.6,0-1.2-0.5-1.2-1.1c-0.1-0.7,0.4-1.3,1.1-1.4
			l1.2-0.1c0.7-0.1,1.3,0.4,1.4,1.1c0.1,0.7-0.4,1.3-1.1,1.4l-1.2,0.1C258.9,582.3,258.8,582.3,258.8,582.3z M399.2,582.2
			c0,0-0.1,0-0.2,0l-1.2-0.1c-0.7-0.1-1.2-0.7-1.1-1.4s0.7-1.2,1.4-1.1l1.2,0.1c0.7,0.1,1.2,0.7,1.1,1.4
			C400.4,581.8,399.9,582.2,399.2,582.2z M268.7,581.2c-0.6,0-1.2-0.5-1.2-1.1c-0.1-0.7,0.4-1.3,1.1-1.4l1.2-0.1
			c0.7-0.1,1.3,0.4,1.4,1.1s-0.4,1.3-1.1,1.4l-1.2,0.1C268.8,581.2,268.7,581.2,268.7,581.2z M389.3,581.2h-0.1l-1.2-0.1
			c-0.7-0.1-1.2-0.7-1.1-1.4s0.7-1.2,1.4-1.1l1.2,0.1c0.7,0.1,1.2,0.7,1.1,1.4C390.5,580.8,390,581.2,389.3,581.2z M278.6,580.3
			c-0.6,0-1.2-0.5-1.2-1.1c-0.1-0.7,0.5-1.3,1.1-1.3l1.2-0.1c0.7,0,1.3,0.5,1.3,1.1c0.1,0.7-0.5,1.3-1.1,1.3L278.6,580.3
			C278.7,580.3,278.6,580.3,278.6,580.3z M379.4,580.2h-0.1l-1.2-0.1c-0.7-0.1-1.2-0.7-1.1-1.3c0.1-0.7,0.6-1.2,1.3-1.1l1.2,0.1
			c0.7,0.1,1.2,0.7,1.1,1.3C380.6,579.8,380,580.2,379.4,580.2z M288.5,579.7c-0.7,0-1.2-0.5-1.2-1.2s0.5-1.3,1.2-1.3l1.2-0.1
			c0.7,0,1.3,0.5,1.3,1.2s-0.5,1.3-1.2,1.3L288.5,579.7C288.6,579.7,288.6,579.7,288.5,579.7z M369.5,579.5
			C369.4,579.5,369.4,579.5,369.5,579.5l-1.3-0.1c-0.7,0-1.2-0.6-1.2-1.3s0.6-1.2,1.3-1.2l1.2,0.1c0.7,0,1.2,0.6,1.2,1.3
			S370.1,579.5,369.5,579.5z M298.5,579c-0.7,0-1.2-0.5-1.2-1.2s0.5-1.3,1.2-1.3l1.2-0.1c0.7,0,1.3,0.5,1.3,1.2s-0.5,1.3-1.2,1.3
			L298.5,579L298.5,579z M359.5,579L359.5,579l-1.3-0.1c-0.7,0-1.2-0.6-1.2-1.3s0.6-1.2,1.3-1.2l1.2,0.1c0.7,0,1.2,0.6,1.2,1.3
			C360.7,578.4,360.2,579,359.5,579z M308.5,578.7c-0.7,0-1.2-0.5-1.2-1.2s0.5-1.3,1.2-1.3h1.2c0.6-0.1,1.3,0.5,1.3,1.2
			s-0.5,1.3-1.2,1.3H308.5L308.5,578.7z M349.6,578.7C349.5,578.7,349.5,578.7,349.6,578.7h-1.3c-0.7,0-1.2-0.6-1.2-1.3
			s0.6-1.2,1.2-1.2l0,0h1.2c0.7,0,1.2,0.6,1.2,1.3C350.8,578,350.2,578.7,349.6,578.7z M318.4,578.3c-0.7,0-1.2-0.5-1.2-1.2
			s0.5-1.3,1.2-1.3h1.2c0.7,0,1.3,0.5,1.3,1.2s-0.5,1.3-1.2,1.3H318.4L318.4,578.3z M339.6,578.3L339.6,578.3h-1.3
			c-0.7,0-1.2-0.6-1.2-1.3s0.5-1.2,1.3-1.2h1.2c0.7,0,1.2,0.6,1.2,1.3C340.8,577.8,340.3,578.3,339.6,578.3z M328.4,578.3
			c-0.7,0-1.2-0.6-1.2-1.2c0-0.7,0.6-1.2,1.2-1.2h1.2c0.7,0,1.2,0.6,1.2,1.2c0,0.6-0.6,1.2-1.2,1.2H328.4L328.4,578.3z"/>
	</g>
	<g>
		<path class="st2" d="M149.5,662.9c-0.4,0-0.8-0.2-1.1-0.6c-1.7-2.9-2.5-5.9-2.5-8.9c0-0.7,0.6-1.2,1.2-1.2s1.2,0.6,1.2,1.2
			c0,2.6,0.7,5.1,2.2,7.7c0.3,0.6,0.1,1.4-0.5,1.7C149.9,662.8,149.7,662.9,149.5,662.9z"/>
		<path class="st2" d="M325.7,705.8L325.7,705.8c-6,0-11.9-0.2-17.7-0.4c-0.7,0-1.2-0.6-1.2-1.3s0.6-1.2,1.2-1.2l0,0
			c5.8,0.2,11.7,0.3,17.7,0.4c0.7,0,1.2,0.6,1.2,1.3C327,705.3,326.4,705.8,325.7,705.8z M334.6,705.8c-0.7,0-1.2-0.6-1.2-1.2
			c0-0.7,0.5-1.2,1.2-1.3c5.9,0,11.9-0.2,17.7-0.4c0.7-0.1,1.3,0.5,1.3,1.2s-0.5,1.3-1.2,1.3C346.5,705.6,340.5,705.8,334.6,705.8
			L334.6,705.8z M299.2,705.1L299.2,705.1c-6-0.3-11.9-0.7-17.8-1.1c-0.7-0.1-1.2-0.7-1.1-1.3c0.1-0.7,0.7-1.2,1.3-1.1
			c5.8,0.4,11.7,0.8,17.6,1.1c0.7,0,1.2,0.6,1.2,1.3C300.4,704.6,299.9,705.1,299.2,705.1z M361.1,705.1c-0.7,0-1.2-0.5-1.2-1.2
			s0.5-1.3,1.2-1.3c5.9-0.3,11.9-0.7,17.6-1.1c0.7-0.1,1.3,0.5,1.3,1.1c0.1,0.7-0.5,1.3-1.1,1.3
			C373.1,704.4,367.1,704.8,361.1,705.1L361.1,705.1z M272.7,703.2h-0.1c-6-0.6-11.9-1.2-17.6-1.9c-0.7-0.1-1.2-0.7-1.1-1.4
			s0.7-1.2,1.4-1.1c5.7,0.7,11.6,1.4,17.5,1.9c0.7,0.1,1.2,0.7,1.1,1.4C273.9,702.8,273.4,703.2,272.7,703.2z M387.6,703.2
			c-0.6,0-1.2-0.5-1.2-1.1c-0.1-0.7,0.4-1.3,1.1-1.4c6-0.6,11.9-1.2,17.6-1.9c0.7-0.1,1.3,0.4,1.4,1.1c0.1,0.7-0.4,1.3-1.1,1.4
			c-5.7,0.7-11.7,1.4-17.6,1.9C387.7,703.2,387.6,703.2,387.6,703.2z M246.4,700.1c-0.1,0-0.1,0-0.2,0c-6-0.9-11.9-1.8-17.5-2.9
			c-0.7-0.1-1.1-0.8-1-1.5s0.8-1.1,1.5-1c5.6,1,11.4,2,17.4,2.9c0.7,0.1,1.2,0.7,1.1,1.4C247.5,699.7,247,700.1,246.4,700.1z
			 M414,700.1c-0.6,0-1.1-0.4-1.2-1.1c-0.1-0.7,0.4-1.3,1.1-1.4c6-0.9,11.8-1.8,17.4-2.9c0.7-0.1,1.3,0.3,1.5,1
			c0.1,0.7-0.3,1.3-1,1.5c-5.6,1-11.5,2-17.5,2.9C414.1,700.1,414,700.1,414,700.1z M220.2,695.6c-0.1,0-0.2,0-0.3,0
			c-6-1.3-11.8-2.7-17.3-4.1c-0.7-0.2-1.1-0.9-0.9-1.5c0.2-0.7,0.9-1.1,1.5-0.9c5.4,1.5,11.2,2.8,17.1,4.1c0.7,0.1,1.1,0.8,1,1.5
			C221.3,695.2,220.8,695.6,220.2,695.6z M440.1,695.6c-0.6,0-1.1-0.4-1.2-1c-0.1-0.7,0.3-1.3,1-1.5c6-1.3,11.7-2.6,17.1-4.1
			c0.7-0.2,1.3,0.2,1.5,0.9s-0.2,1.3-0.9,1.5c-5.4,1.5-11.2,2.9-17.3,4.1C440.3,695.5,440.2,695.6,440.1,695.6z M194.5,689
			c-0.1,0-0.2,0-0.4-0.1c-6.1-1.9-11.7-3.9-16.8-6c-0.6-0.3-0.9-1-0.7-1.6c0.3-0.6,1-0.9,1.6-0.7c5,2.1,10.5,4.1,16.5,5.9
			c0.7,0.2,1,0.9,0.8,1.6C195.5,688.6,195,689,194.5,689z M465.8,689c-0.5,0-1-0.3-1.2-0.9c-0.2-0.7,0.2-1.4,0.8-1.6
			c6-1.9,11.6-3.9,16.5-5.9c0.6-0.3,1.4,0,1.6,0.7c0.3,0.6,0,1.4-0.7,1.6c-5,2.1-10.7,4.1-16.8,6C466,689,465.9,689,465.8,689z
			 M169.8,679.3c-0.2,0-0.4,0-0.6-0.1c-6.2-3.1-11.2-6.5-15-9.9c-0.5-0.5-0.5-1.3-0.1-1.8c0.5-0.5,1.3-0.5,1.8-0.1
			c3.6,3.3,8.5,6.5,14.4,9.5c0.6,0.3,0.9,1.1,0.5,1.7C170.7,679.1,170.3,679.3,169.8,679.3z M490.5,679.3c-0.5,0-0.9-0.2-1.1-0.7
			c-0.3-0.6-0.1-1.4,0.5-1.7c6-3,10.8-6.2,14.4-9.5c0.5-0.5,1.3-0.4,1.8,0.1s0.4,1.3-0.1,1.8c-3.8,3.4-8.8,6.8-15,9.9
			C490.9,679.3,490.7,679.3,490.5,679.3z"/>
		<path class="st2" d="M510.8,662.9c-0.2,0-0.4-0.1-0.6-0.2c-0.6-0.3-0.8-1.1-0.5-1.7c1.5-2.5,2.2-5.1,2.2-7.7
			c0-0.7,0.6-1.2,1.2-1.2s1.2,0.6,1.2,1.2c0,3-0.9,6-2.5,8.9C511.7,662.6,511.3,662.9,510.8,662.9z"/>
	</g>
	<g>
		<path class="st2" d="M149.8,652.2c-0.4,0-0.8-0.2-1.1-0.6c-1.7-2.9-2.5-5.9-2.5-8.9c0-0.7,0.6-1.2,1.2-1.2c0.7,0,1.2,0.6,1.2,1.2
			c0,2.6,0.7,5.1,2.2,7.7c0.3,0.6,0.1,1.4-0.5,1.7C150.2,652.1,150,652.2,149.8,652.2z"/>
		<path class="st2" d="M326,695.1L326,695.1c-6,0-11.9-0.2-17.7-0.4c-0.7,0-1.2-0.6-1.2-1.3s0.6-1.2,1.2-1.2l0,0
			c5.8,0.2,11.7,0.3,17.7,0.4c0.7,0,1.2,0.6,1.2,1.3C327.3,694.6,326.7,695.1,326,695.1z M334.9,695.1c-0.7,0-1.2-0.6-1.2-1.2
			c0-0.7,0.5-1.2,1.2-1.3c5.9,0,11.8-0.2,17.7-0.4c0.6,0,1.3,0.5,1.3,1.2s-0.5,1.3-1.2,1.3C346.7,694.9,340.8,695.1,334.9,695.1
			L334.9,695.1z M299.5,694.4L299.5,694.4c-6-0.3-12-0.7-17.8-1.1c-0.7-0.1-1.2-0.7-1.1-1.3c0.1-0.7,0.6-1.2,1.3-1.1
			c5.8,0.4,11.7,0.8,17.6,1.1c0.7,0,1.2,0.6,1.2,1.3C300.7,693.9,300.2,694.4,299.5,694.4z M361.4,694.4c-0.7,0-1.2-0.5-1.2-1.2
			s0.5-1.3,1.2-1.3c5.9-0.3,11.9-0.7,17.6-1.1c0.7,0,1.3,0.5,1.3,1.1c0.1,0.7-0.5,1.3-1.1,1.3C373.4,693.7,367.4,694.1,361.4,694.4
			L361.4,694.4z M273,692.5h-0.1c-6-0.6-11.9-1.2-17.6-1.9c-0.7-0.1-1.2-0.7-1.1-1.4s0.7-1.2,1.4-1.1c5.7,0.7,11.6,1.4,17.5,1.9
			c0.7,0.1,1.2,0.7,1.1,1.4C274.2,692.1,273.7,692.5,273,692.5z M387.9,692.5c-0.6,0-1.2-0.5-1.2-1.1c-0.1-0.7,0.4-1.3,1.1-1.4
			c6-0.6,11.9-1.2,17.6-1.9c0.7-0.1,1.3,0.4,1.4,1.1c0.1,0.7-0.4,1.3-1.1,1.4c-5.7,0.7-11.7,1.4-17.6,1.9
			C388,692.5,387.9,692.5,387.9,692.5z M246.7,689.5c-0.1,0-0.1,0-0.2,0c-6-0.9-11.9-1.8-17.5-2.9c-0.7-0.1-1.1-0.8-1-1.5
			s0.8-1.1,1.5-1c5.6,1,11.4,2,17.4,2.9c0.7,0.1,1.2,0.7,1.1,1.4C247.8,689,247.3,689.5,246.7,689.5z M414.2,689.4
			c-0.6,0-1.1-0.4-1.2-1.1c-0.1-0.7,0.4-1.3,1.1-1.4c6-0.9,11.8-1.8,17.4-2.9c0.7-0.1,1.3,0.3,1.5,1c0.1,0.7-0.3,1.3-1,1.5
			c-5.6,1-11.5,2-17.5,2.9C414.4,689.4,414.3,689.4,414.2,689.4z M220.5,684.9c-0.1,0-0.2,0-0.3,0c-6-1.3-11.8-2.7-17.3-4.1
			c-0.7-0.2-1.1-0.9-0.9-1.5c0.2-0.7,0.9-1.1,1.5-0.9c5.4,1.5,11.2,2.8,17.1,4.1c0.7,0.1,1.1,0.8,1,1.5
			C221.6,684.5,221.1,684.9,220.5,684.9z M440.4,684.9c-0.6,0-1.1-0.4-1.2-1c-0.1-0.7,0.3-1.3,1-1.5c6-1.3,11.7-2.6,17.1-4.1
			c0.7-0.2,1.3,0.2,1.5,0.9s-0.2,1.3-0.9,1.5c-5.4,1.5-11.2,2.9-17.3,4.1C440.6,684.8,440.5,684.9,440.4,684.9z M194.8,678.3
			c-0.1,0-0.2,0-0.4-0.1c-6.1-1.9-11.7-3.9-16.8-6c-0.6-0.3-0.9-1-0.7-1.6c0.3-0.6,1-0.9,1.6-0.7c5,2.1,10.5,4.1,16.5,5.9
			c0.7,0.2,1,0.9,0.8,1.6C195.8,678,195.3,678.3,194.8,678.3z M466.1,678.3c-0.5,0-1-0.3-1.2-0.9c-0.2-0.7,0.2-1.4,0.8-1.6
			c6-1.9,11.6-3.9,16.5-5.9c0.6-0.3,1.4,0,1.6,0.7c0.3,0.6,0,1.4-0.7,1.6c-5,2.1-10.7,4.1-16.8,6
			C466.3,678.3,466.2,678.3,466.1,678.3z M170.1,668.6c-0.2,0-0.4,0-0.6-0.1c-6.2-3.1-11.2-6.5-15-9.9c-0.5-0.5-0.5-1.3-0.1-1.8
			c0.5-0.5,1.3-0.5,1.8-0.1c3.6,3.3,8.5,6.5,14.4,9.5c0.6,0.3,0.9,1.1,0.5,1.7C171,668.4,170.6,668.6,170.1,668.6z M490.8,668.6
			c-0.5,0-0.9-0.2-1.1-0.7c-0.3-0.6-0.1-1.4,0.5-1.7c6-3,10.8-6.2,14.4-9.5c0.5-0.5,1.3-0.4,1.8,0.1s0.4,1.3-0.1,1.8
			c-3.8,3.4-8.8,6.8-15,9.9C491.2,668.6,491,668.6,490.8,668.6z"/>
		<path class="st2" d="M511.1,652.2c-0.2,0-0.4-0.1-0.6-0.2c-0.6-0.3-0.8-1.1-0.5-1.7c1.5-2.5,2.2-5.1,2.2-7.7
			c0-0.7,0.6-1.2,1.2-1.2s1.2,0.6,1.2,1.2c0,3-0.9,6-2.5,8.9C512,651.9,511.6,652.2,511.1,652.2z"/>
	</g>
	<g>
		<path class="st2" d="M156.8,615.3c-0.4,0-0.7-0.2-1-0.5c-0.4-0.5-0.3-1.3,0.2-1.8c2.1-1.7,4.6-3.4,7.3-5c0.6-0.4,1.4-0.2,1.7,0.4
			c0.4,0.6,0.2,1.4-0.4,1.7c-2.6,1.6-5,3.2-7,4.8C157.3,615.2,157,615.3,156.8,615.3z"/>
		<path class="st2" d="M334,683.3c-0.7,0-1.2-0.6-1.2-1.2c0-0.7,0.5-1.2,1.2-1.3c6,0,12-0.2,17.8-0.4c0.7,0,1.3,0.5,1.3,1.2
			s-0.5,1.3-1.2,1.3C346,683.1,340,683.3,334,683.3L334,683.3z M325,683.3L325,683.3c-6,0-12-0.2-17.9-0.4c-0.7,0-1.2-0.6-1.2-1.3
			s0.6-1.2,1.3-1.2c5.9,0.2,11.9,0.3,17.8,0.4c0.7,0,1.2,0.6,1.2,1.3C326.3,682.7,325.7,683.3,325,683.3z M360.8,682.6
			c-0.7,0-1.2-0.5-1.2-1.2s0.5-1.3,1.2-1.3c6-0.3,12-0.7,17.8-1.1c0.7-0.1,1.3,0.5,1.3,1.1c0.1,0.7-0.5,1.3-1.1,1.3
			C372.9,681.9,366.9,682.3,360.8,682.6L360.8,682.6z M298.2,682.6L298.2,682.6c-6-0.3-12.1-0.7-17.9-1.1c-0.7-0.1-1.2-0.7-1.1-1.3
			c0.1-0.7,0.7-1.2,1.3-1.1c5.9,0.5,11.9,0.8,17.8,1.1c0.7,0,1.2,0.6,1.2,1.3C299.4,682,298.9,682.6,298.2,682.6z M387.6,680.7
			c-0.6,0-1.2-0.5-1.2-1.1c-0.1-0.7,0.4-1.3,1.1-1.4c6-0.6,12-1.2,17.7-1.9c0.7-0.1,1.3,0.4,1.4,1.1s-0.4,1.3-1.1,1.4
			c-5.8,0.7-11.8,1.4-17.8,2C387.6,680.7,387.6,680.7,387.6,680.7z M271.5,680.7h-0.1c-6-0.6-12-1.2-17.8-2
			c-0.7-0.1-1.2-0.7-1.1-1.4c0.1-0.7,0.7-1.1,1.4-1.1c5.8,0.7,11.7,1.4,17.7,2c0.7,0.1,1.2,0.7,1.1,1.4
			C272.7,680.2,272.1,680.7,271.5,680.7z M414.2,677.5c-0.6,0-1.1-0.4-1.2-1.1c-0.1-0.7,0.4-1.3,1.1-1.4c6-0.9,11.9-1.9,17.6-2.9
			c0.7-0.1,1.3,0.3,1.5,1c0.1,0.7-0.3,1.3-1,1.5c-5.7,1.1-11.6,2.1-17.7,2.9C414.3,677.5,414.3,677.5,414.2,677.5z M244.8,677.5
			c-0.1,0-0.1,0-0.2,0c-6.1-0.9-12-1.9-17.7-3c-0.7-0.1-1.1-0.8-1-1.5s0.8-1.1,1.5-1c5.6,1.1,11.6,2.1,17.6,2.9
			c0.7,0.1,1.1,0.7,1.1,1.4C246,677,245.4,677.5,244.8,677.5z M440.6,672.9c-0.6,0-1.1-0.4-1.2-1c-0.1-0.7,0.3-1.3,1-1.5
			c6.1-1.3,11.9-2.7,17.3-4.2c0.6-0.2,1.3,0.2,1.5,0.9s-0.2,1.3-0.9,1.5c-5.5,1.5-11.3,2.9-17.4,4.2
			C440.8,672.8,440.7,672.9,440.6,672.9z M218.4,672.8c-0.1,0-0.2,0-0.3,0c-6.1-1.3-12-2.7-17.4-4.3c-0.7-0.2-1.1-0.9-0.9-1.5
			c0.2-0.7,0.9-1,1.5-0.9c5.4,1.5,11.2,2.9,17.3,4.2c0.7,0.1,1.1,0.8,1,1.5C219.5,672.4,219,672.8,218.4,672.8z M466.6,666.1
			c-0.5,0-1-0.3-1.2-0.9c-0.2-0.7,0.2-1.4,0.8-1.6c6.1-1.9,11.7-4,16.7-6.1c0.6-0.3,1.4,0,1.6,0.7c0.3,0.6,0,1.4-0.7,1.6
			c-5,2.2-10.7,4.3-16.9,6.2C466.8,666.1,466.7,666.1,466.6,666.1z M192.5,666c-0.1,0-0.3,0-0.4-0.1c-6.2-2-11.8-4.1-16.9-6.2
			c-0.6-0.3-0.9-1-0.6-1.6c0.3-0.6,1-0.9,1.6-0.6c5,2.2,10.6,4.2,16.6,6.2c0.7,0.2,1,0.9,0.8,1.6C193.5,665.6,193,666,192.5,666z
			 M491.4,656.1c-0.4,0-0.9-0.2-1.1-0.7c-0.3-0.6-0.1-1.4,0.5-1.7c6-3.2,10.9-6.5,14.3-10c0.5-0.5,1.3-0.5,1.8,0s0.5,1.3,0,1.8
			c-3.6,3.6-8.6,7.1-14.9,10.4C491.8,656.1,491.6,656.1,491.4,656.1z M167.7,655.9c-0.2,0-0.4,0-0.6-0.1
			c-6.3-3.3-11.3-6.9-14.8-10.5c-0.5-0.5-0.5-1.3,0-1.8s1.3-0.5,1.8,0c3.4,3.5,8.2,6.9,14.2,10.1c0.6,0.3,0.8,1.1,0.5,1.7
			C168.5,655.7,168.1,655.9,167.7,655.9z M511.2,638.8c-0.2,0-0.4,0-0.5-0.1c-0.6-0.3-0.9-1-0.6-1.7c1-2,1.4-4.1,1.4-6.2
			c0-3.1-1.1-6.3-3.3-9.4c-0.4-0.6-0.3-1.3,0.3-1.7s1.3-0.3,1.7,0.3c2.5,3.5,3.8,7.2,3.8,10.8c0,2.4-0.6,4.9-1.7,7.2
			C512.2,638.5,511.7,638.8,511.2,638.8z M148.1,638.4c-0.5,0-0.9-0.3-1.1-0.7c-1-2.2-1.5-4.5-1.5-6.8c0-3.8,1.4-7.6,4.1-11.2
			c0.4-0.6,1.2-0.7,1.7-0.3c0.6,0.4,0.7,1.2,0.3,1.7c-2.4,3.2-3.6,6.5-3.6,9.7c0,1.9,0.4,3.9,1.3,5.8c0.3,0.6,0,1.4-0.6,1.6
			C148.4,638.3,148.2,638.4,148.1,638.4z"/>
		<path class="st2" d="M503,615.5c-0.3,0-0.6-0.1-0.8-0.3c-2-1.6-4.4-3.3-7-4.9c-0.6-0.4-0.8-1.1-0.4-1.7s1.1-0.8,1.7-0.4
			c2.7,1.6,5.2,3.3,7.3,5.1c0.5,0.4,0.6,1.2,0.2,1.8C503.7,615.3,503.3,615.5,503,615.5z"/>
	</g>
</g>
<g id="Rules">
</g>
<g id="_x30_4">
	<ellipse class="st6" cx="330.4" cy="616.3" rx="107.7" ry="29.9"/>
</g>
<g id="_x30_5" class="st7">
	
		<linearGradient id="SVGID_1_" gradientUnits="userSpaceOnUse" x1="330.25" y1="825.7" x2="330.25" y2="1466" gradientTransform="matrix(1 0 0 -1 0 1472)">
		<stop  offset="0" style="stop-color:#FFFFFF"/>
		<stop  offset="0.5299" style="stop-color:#FFFFFF;stop-opacity:0"/>
	</linearGradient>
	<path class="st8" d="M437.3,609.9L642.3,6H18.2l204.1,607.8c0,17.9,48.3,32.5,108,32.5s108-14.5,108-32.5
		C438.2,612.6,437.8,611.2,437.3,609.9z"/>
</g>
<g id="_x30_7">
	<g>
		<path class="st2" d="M207.5,468c7.6-3,15.1-5.3,22.4-7.2c14.7-3.7,28.3-5.9,40.5-7.4c11.9-1.5,22.4-2.3,31.1-2.8
			c-8.7,0.4-19.1,1.2-31,2.7c-12.2,1.6-25.9,3.7-40.5,7.4c-7.3,1.9-14.9,4.1-22.4,7.2c-3.8,1.6-7.6,3.3-11.2,5.4
			c-3.2,1.9-6.2,4-9,6.7c2.7-2.6,5.8-4.7,9-6.6C200,471.3,203.7,469.5,207.5,468z"/>
		<path class="st2" d="M322.5,449.9c4.4,0,6.8,0,7.2,0l-0.1-0.1c0,0-2.5,0-7.2,0.1s-11.6,0.2-20.4,0.7c-0.2,0-0.3,0-0.5,0
			c0.2,0,0.4,0,0.6,0C310.9,450.1,317.8,450,322.5,449.9z"/>
		<path class="st2" d="M337.1,450.3c4.7,0.1,11.6,0.2,20.4,0.7s19.4,1.2,31.6,2.7c12.1,1.5,25.8,3.6,40.4,7.3
			c7.3,1.9,14.8,4.1,22.3,7.2c3.7,1.6,7.5,3.3,11.1,5.4s7.1,4.6,10,7.7c1.4,1.6,2.7,3.3,3.5,5.3c0.6,1.5,1,3,1,4.6h0.6
			c0-1.7-0.4-3.4-1.1-5c-0.9-2.1-2.2-3.9-3.7-5.5c-3-3.2-6.6-5.7-10.2-7.8c-3.7-2.1-7.4-3.9-11.2-5.4c-7.5-3.1-15.1-5.4-22.4-7.3
			c-14.6-3.7-28.3-5.9-40.5-7.4s-22.9-2.3-31.7-2.8s-15.7-0.6-20.4-0.7c-4.7-0.1-7.2-0.1-7.2-0.1l0.1,0.6l0,0l0.2,0.4
			C329.9,450.3,332.4,450.3,337.1,450.3z"/>
		<path class="st2" d="M182.7,486.5c0.9-2,2.2-3.8,3.6-5.4c0.4-0.4,0.7-0.8,1.1-1.1c-0.4,0.4-0.8,0.7-1.1,1.1
			C184.9,482.7,183.6,484.5,182.7,486.5L182.7,486.5L182.7,486.5z"/>
		<path class="st2" d="M181.7,491.3c0-1.6,0.3-3.3,1-4.7C182,488,181.6,489.6,181.7,491.3L181.7,491.3z"/>
	</g>
</g>
<g id="Carbon_2_">
	<g>
		<path class="st9" d="M260.1,545.4c0,0-7.8,4.8,0,10.7s32.7,22,39.5,25.1c6.5,2.9,29.4,8.1,41.8,10.2c0,0,8.8,2.2,11.8-5.9
			c0,0,6.5-19.2,10.2-23.2L260.1,545.4z"/>
		<path class="st10" d="M353,585.2c0,0,0.3-1,0.8-2.4l0,0c0,0-7.5-0.5-12.5-1.9c-5-1.4-9.4-2.9-17.3-1.6c-7.8,1.3-17.6,2.6-27.2,0.5
			c1,0.5,1.8,1,2.4,1.3c6.5,2.9,29.4,8.1,41.8,10.2C341.4,591.1,350.2,593.4,353,585.2z"/>
		<path class="st11" d="M262.6,545.4c0,0-5.3,1.9-3,8.8c0,0,7.5,5.1,18.7,12.3c0,0,1.1-2.2,8.3,0c7.2,2.2,11.8,1.9,14.1,0
			c2.2-1.9,13.3-6.2,13.3-6.2L262.6,545.4z"/>
		<path class="st12" d="M404.3,556.5c0,0,6.2-16.6,6.5-24c0.3-7.3,2.9-25.1,5.9-31.6c2.9-6.5,3.7-18.4,3.4-24.6
			c-0.3-6.2,0.2-19.6,0.2-19.6s-5.9-15.3-12.3-21.9c-6.2-6.5-18-15.8-18.4-17.6c-0.3-1.9-9.6-5.9-9.6-5.9l-7.3-2.2
			c0,0-28,11.3-38.7,19.2L332,433L404.3,556.5z"/>
		<path class="st13" d="M334,428.2c0,0-15.5-8.5-22.4-8.8c-6.7-0.3-10.4-2.9-10.4-2.9s-4-0.8-7.3,7l13.9,8.8l26,4.3v-8.5L334,428.2
			L334,428.2z"/>
		<path class="st9" d="M404.3,556.5c0,0-2.9-33.9,0-43.1s1.1-23.6-1.3-28.8c-2.4-5-20.1-18.5-20.1-18.5l-9.7,22.8l-2.9,28.3l9.9,11
			L404.3,556.5z"/>
		<path class="st13" d="M400.5,562.2c0,0,3.8-0.6,3.8-5.8s-9.3-15.8-9.9-18.4c-0.8-2.6-19.5-17.4-18.7-25.6
			c0.8-8.1-1.9-25.1,7.2-46.5l-15.3,13.6L353,516.4l-0.8,24l7.8,12.1L400.5,562.2z"/>
		
			<linearGradient id="SVGID_2_" gradientUnits="userSpaceOnUse" x1="243.6233" y1="570.7425" x2="344.0946" y2="570.7425" gradientTransform="matrix(1 0 0 -1 0 1084)">
			<stop  offset="0.1326" style="stop-color:#4F4F4F"/>
			<stop  offset="0.8605" style="stop-color:#353535"/>
		</linearGradient>
		<path class="st14" d="M263.4,476.3c0,0-12.1,9.3-19.8,23.2l76.8,50.8l5.9-1.4l14.4-23.5l3.4-12.8l-26.8-12.9L263.4,476.3z"/>
		
			<linearGradient id="SVGID_3_" gradientUnits="userSpaceOnUse" x1="237.7132" y1="553.0037" x2="323.01" y2="553.0037" gradientTransform="matrix(1 0 0 -1 0 1084)">
			<stop  offset="0" style="stop-color:#353535"/>
			<stop  offset="0.8381" style="stop-color:#4C4C4C"/>
		</linearGradient>
		<path class="st15" d="M323,548.8c0,0-52.2-37.5-79.4-49.2c0,0-5.9,19.2-5.9,28c0,0,30.2,25.7,47.1,34.5
			C284.8,562.1,292.2,565.7,323,548.8z"/>
		<path class="st16" d="M303.8,558.1c0,0,18.8,4,33.7,7.3c14.9,3.4,15.5-1.6,51.3-3c0,0,7.7-1.6,11.7-0.2c0,0-15.5-14.1-36.9-14.5
			c0,0-24.4-3.2-40.4,1.1L303.8,558.1z"/>
		
			<linearGradient id="SVGID_4_" gradientUnits="userSpaceOnUse" x1="269.7898" y1="630.0828" x2="380.0342" y2="630.0828" gradientTransform="matrix(1 0 0 -1 0 1084)">
			<stop  offset="0" style="stop-color:#707070"/>
			<stop  offset="0.5021" style="stop-color:#595959"/>
			<stop  offset="0.8127" style="stop-color:#4C4C4C"/>
		</linearGradient>
		<path class="st17" d="M370.8,458.2c0,0-22.4-12.9-29.7-19.2c-7.3-6.2-21.7-13.3-26-13.6c-4.5-0.3-20.9-2.2-20.9-2.2
			s-7,5.9-10.2,11.8c-3.4,5.9-9.6,12.5-10.7,15.5c-1.1,2.9-1.3,4.3-3.4,8.1c-1.9,3.8,90.2,25.9,90.2,25.9l20-21.9L370.8,458.2z"/>
		
			<linearGradient id="SVGID_5_" gradientUnits="userSpaceOnUse" x1="263.43" y1="599.4492" x2="360.0678" y2="599.4492" gradientTransform="matrix(1 0 0 -1 0 1084)">
			<stop  offset="1.928110e-02" style="stop-color:#4F4F4F"/>
			<stop  offset="0.409" style="stop-color:#474747"/>
			<stop  offset="1" style="stop-color:#353535"/>
		</linearGradient>
		<path class="st18" d="M360.1,481.4c0,0-26.4-18.2-48.1-22.7c-21.7-4.5-42.3,0-42.3,0s-4.8,8.1-6.2,17.6c0,0,11.8,8.5,19.2,11.3
			c7.3,2.9,25.1,14.7,25.1,14.7s4.8,4,34.8,10.1C342.3,512.5,358,496.7,360.1,481.4z"/>
		<path class="st19" d="M359.9,481.4l-10.5-5.9l-5.3-2.9l-5.3-2.9c-1-0.5-1.8-1-2.6-1.4l-2.7-1.4c-0.8-0.5-1.8-1-2.7-1.4
			c-1-0.5-1.8-1-2.7-1.3c-1-0.5-1.8-0.8-2.7-1.1c-0.5-0.2-1-0.3-1.4-0.5l-1.4-0.5c-1-0.3-1.9-0.6-2.9-1l-2.9-0.8
			c-0.5-0.2-1-0.3-1.4-0.3l-1.4-0.3c-1-0.2-1.9-0.5-2.9-0.5l-3-0.5c-1-0.2-1.9-0.2-2.9-0.3l-1.4-0.2l-1.4-0.2c-1,0-1.9-0.2-3-0.2
			l-3-0.2h-3c-1,0-1.9,0-3,0h-1.4h-1.4c-1.9,0-4,0.2-5.9,0.2c-1.9,0.2-4,0.3-5.9,0.3c-1.9,0.2-4,0.3-5.9,0.6l0.2-0.2
			c-0.6,1-1.3,2.1-1.9,3l-0.2-0.2c0.5-1.1,1-2.2,1.4-3.4v-0.2h0.2c1.9-0.5,4-1,5.9-1.3c1-0.2,1.9-0.3,3-0.5c1-0.2,1.9-0.3,3-0.3
			c1-0.2,2.1-0.2,3-0.3c1-0.2,2.1-0.2,3-0.2h1.4h1.4c1,0,2.1,0,3,0c1,0,2.1,0,3,0.2l3,0.2c1,0,2.1,0.2,3,0.3l1.4,0.2l1.4,0.2
			c1,0.2,2.1,0.3,3,0.5l2.9,0.6c1,0.2,1.9,0.5,2.9,0.8s1.9,0.5,2.9,1l2.9,1l2.9,1.1c1.9,0.6,3.7,1.4,5.6,2.1
			c1.9,0.8,3.7,1.4,5.6,2.2l2.7,1.1c1,0.5,1.8,0.8,2.7,1.3c1,0.5,1.8,1,2.7,1.4c1,0.5,1.8,1,2.7,1.4l2.6,1.4l2.6,1.6
			c1.8,1.1,3.4,2.2,5,3.4c1.6,1.1,3.2,2.4,4.8,3.7L359.9,481.4z"/>
		<path class="st20" d="M379.9,438.1c-0.5-0.5-0.8-1.1-1.3-1.6c-0.3-0.6-0.6-1.1-1-1.8c-0.3-0.6-0.6-1.3-0.8-1.9
			c-0.2-0.3-0.2-0.6-0.3-1c-0.2-0.3-0.2-0.6-0.2-1.1c0-0.3,0-0.6,0-1.1v-0.5c0-0.2,0-0.3,0-0.5l0.2-0.5c0-0.2,0.2-0.3,0.2-0.5
			l0.2-0.5c0-0.2,0.2-0.3,0.3-0.5l0.3-0.5c0-0.2,0.2-0.3,0.2-0.3c0-0.2,0.2-0.2,0.2-0.3c0-0.2,0.2-0.3,0.2-0.3
			c0.2-0.5,0.3-1.1,0.3-1.8c0-1.1-0.2-2.4-0.5-3.7c-0.3-1.3-0.8-2.6-1.3-3.7c-0.5-1.1-1.1-2.4-1.9-3.4c-0.6-1.1-1.4-2.1-2.4-3.2
			l0.5,0.2c-1.3,0.6-2.6,1.3-3.8,1.8c-1.3,0.6-2.6,1.3-3.8,1.8l-7.8,3.5l-7.8,3.5l-1.9,0.8c-0.6,0.3-1.3,0.6-1.9,1l-1.9,1
			c-0.6,0.3-1.3,0.6-1.9,1l-0.2-0.2c1.1-1,2.2-1.8,3.5-2.6c0.6-0.5,1.3-0.8,1.8-1.1c0.6-0.3,1.3-0.8,1.9-1.1s1.3-0.8,1.9-1.1l1.9-1
			c0.6-0.3,1.3-0.6,1.9-1c0.6-0.3,1.3-0.6,1.9-1c1.3-0.6,2.6-1.1,4-1.8c1.3-0.5,2.7-1.1,4-1.6c1.3-0.5,2.7-1,4-1.4l4.2-1.3l0.3-0.2
			l0.2,0.3c0.8,1.1,1.4,2.2,2.1,3.4s1.4,2.2,2.1,3.4s1.3,2.4,1.8,3.7c0.5,1.3,1,2.6,1,4c0,0.8,0,1.4-0.3,2.2c0,0.2-0.2,0.3-0.2,0.5
			c-0.2,0.2-0.2,0.3-0.3,0.5l-0.3,0.5l-0.2,0.3c0,0.2-0.2,0.3-0.2,0.3l-0.2,0.5c0,0.2-0.2,0.3-0.2,0.5l-0.2,0.5c0,0.2,0,0.3-0.2,0.5
			v0.5c0,0.3,0,0.6,0,1s0,0.6,0,1c0,0.3,0.2,0.6,0.2,1c0.2,0.6,0.3,1.3,0.5,1.9c0.3,1.3,0.8,2.4,1.4,3.7L379.9,438.1L379.9,438.1z"
			/>
		<path class="st21" d="M323,548.8c0,0-1.3-0.6-3.5-1.9c-0.5-0.3-1.1-0.6-1.8-1.1c-0.6-0.3-1.4-0.8-2.1-1.3c-1.6-1-3.2-2.1-5.1-3.2
			c-1.8-1.3-3.8-2.6-5.9-4c-2.1-1.4-4.2-3-6.2-4.8c-2.2-1.6-4.5-3.4-6.9-5c-2.4-1.6-5-3-7.5-4.5c-2.6-1.4-5.1-2.9-7.7-4.3
			c-2.4-1.4-5-2.9-7.3-4.2c-2.4-1.4-4.6-2.7-6.9-4c-2.1-1.3-4.2-2.6-6.1-3.7c-1.9-1.1-3.7-2.1-5.1-3c-0.8-0.5-1.4-1-2.1-1.3
			c-0.6-0.3-1.3-0.8-1.9-1.1c-2.2-1.3-3.5-2.1-3.5-2.1l0.2-0.2c0,0,1.4,0.5,3.8,1.3c0.6,0.2,1.3,0.5,2.1,0.8c0.6,0.3,1.4,0.6,2.2,1
			c1.6,0.8,3.5,1.6,5.4,2.6s4.2,2.1,6.2,3.4c2.2,1.3,4.5,2.6,6.9,4c2.4,1.4,4.8,3,7.2,4.6c1.3,0.8,2.4,1.6,3.7,2.4
			c1.1,0.8,2.4,1.8,3.5,2.6c2.4,1.8,4.8,3.5,7.2,5c2.4,1.6,4.8,3,7.2,4.5c2.4,1.4,4.6,2.7,6.9,4c2.1,1.4,4,2.7,5.8,4
			s3.4,2.6,4.8,3.7c1.4,1.1,2.6,2.1,3.7,2.9c1.9,1.6,3,2.7,3,2.7L323,548.8z"/>
		<path class="st22" d="M322.4,561.9c0,0,15.7-15,53.7-11.8c0,0-42.6-11.8-69,6.2l-1.9,1.3L322.4,561.9z"/>
		<path class="st23" d="M384.2,552.8c-3.4-1.4-21.4-6.7-28.6-5.8c-0.2,0-0.3,0-0.5,0c11.7,1,20.1,3.4,20.1,3.4
			c-38-3.4-53.7,11.8-53.7,11.8l-4-1l-0.3,0.2l17.6,3.7c0,0,6.7,4,24.3,0c0,0,14.7-4.5,22.7-4.3
			C390.1,561.1,387.5,554.2,384.2,552.8z"/>
		<path class="st24" d="M307.4,552.6c0,0-11,6.9-18.7,8c0,0-6.4,0-14.9-8"/>
		<path class="st25" d="M286.6,527.9c0,0-23.3-16-35.1-22c0,0-3,6.4-2.6,9.6c0.5,3.4,13.4,13.7,14.5,14.1c1.1,0.3,3.4-1.1,8.6,0
			C277.3,530.6,287.5,534.4,286.6,527.9z"/>
		<path class="st24" d="M271.9,482.7c0,0,8.6,10.7,16.6,16.8c8,6.1,18.2,9.6,23.2,11.8c5,2.2,13.3,2.7,17.9,7.5
			c4.6,4.8,5.8,9.4,5.8,9.4s3.5-9.1,6.1-13.1l-7.5-2.4c0,0-7.2-1.8-13.4-4.3c-6.4-2.6-23-11.5-23-11.5l-7-4.2l-5.6-2.9
			C285,489.7,272.1,483.9,271.9,482.7z"/>
		<path class="st26" d="M263.9,475c0,0.8-0.2,1.4-0.2,2.2l-0.2-0.3l5.4,3.4c1.8,1.1,3.7,2.2,5.4,3.2c1,0.5,1.9,1.1,2.7,1.6
			c1,0.5,1.9,1,2.7,1.4l1.4,0.8l1.4,0.6c0.5,0.2,1,0.5,1.4,0.8l1.4,0.8c1,0.5,1.9,1.1,2.7,1.6c1,0.5,1.8,1.1,2.7,1.6
			c1,0.5,1.9,1.1,2.7,1.6l2.7,1.6c3.7,2.1,7.5,4.2,11.2,6.5l0,0c0,0,0.2,0.2,0.3,0.2c0.2,0.2,0.3,0.2,0.5,0.3c0.3,0.2,0.6,0.3,1,0.5
			c0.6,0.3,1.4,0.6,2.1,0.8c1.4,0.5,2.9,1,4.3,1.4l2.1,0.6l2.2,0.6c0.6,0.2,1.4,0.5,2.2,0.6l2.2,0.6c1.4,0.5,2.9,0.8,4.3,1.3
			l4.3,1.3l4.3,1.3c1.4,0.5,2.9,0.8,4.3,1.3v0.2c-1.4-0.2-3-0.5-4.5-0.6c-1.4-0.2-3-0.5-4.5-0.8c-1.4-0.3-3-0.6-4.5-0.8
			c-1.4-0.3-3-0.6-4.5-1l-2.2-0.6c-0.8-0.2-1.4-0.3-2.2-0.6c-1.4-0.5-2.9-0.8-4.3-1.3c-1.4-0.5-2.9-1-4.3-1.6
			c-0.6-0.3-1.4-0.6-2.1-1c-0.3-0.2-0.6-0.3-1.1-0.5c-0.2-0.2-0.3-0.2-0.5-0.3c-0.2-0.2-0.3-0.2-0.6-0.3l0,0
			c-1.8-1.3-3.5-2.4-5.3-3.7s-3.5-2.4-5.3-3.7c-1.8-1.1-3.7-2.2-5.4-3.4c-1.9-1.1-3.8-2.1-5.8-2.9l-1.4-0.6l-1.4-0.6l-1.4-0.6
			c-0.5-0.2-1-0.5-1.4-0.6c-1.9-1-3.8-2.1-5.8-3.2c-1-0.5-1.8-1.1-2.7-1.8c-1-0.6-1.8-1.3-2.7-1.8c-0.8-0.6-1.8-1.3-2.6-1.9
			s-1.8-1.3-2.6-2.1l-0.2-0.2v-0.2c0.2-0.6,0.3-1.4,0.6-2.1L263.9,475z"/>
		<path class="st27" d="M301.6,515.4c0,0-8.8,8.8-13.7,15.3c0,0,17.9,9.4,24.4,14.5c0,0,1.3-6.1-2.2-8.5c-3.5-2.6-9.6-2.4-8.6-6.4
			s3.8-10.5,2.4-11.7C302.4,517.5,303.8,513.2,301.6,515.4z"/>
		<path class="st28" d="M342.2,512.4c1.6-2.4,3.4-4.8,5.8-7.5c1.3-1.4,2.4-2.9,3.4-4.2c-4.3-2.1-28.1-13.6-34.2-17.9
			c-8.9-6.5-27.6-17.3-34-16.8c0,0,1.4,2.9,2.1,6.5c0.6,3.7,9.3,6.4,13.6,12c4.3,5.6,2.6,8.6,5.4,10.9c2.9,2.2,12.1,4,14.5,8.1
			c2.4,4.2,21.7,8.6,21.7,8.6S341.4,512.4,342.2,512.4z"/>
		<path class="st29" d="M351.8,501.8c0,0-4.3-2.1-10.9-5.4c-3.2-1.6-7-3.7-11-5.8c-2.1-1.1-4.2-2.2-6.2-3.4
			c-2.1-1.1-4.2-2.4-6.2-3.8c-1.9-1.4-4-2.9-5.9-4.2s-4-2.6-5.9-3.7c-3.8-2.4-7.7-4.3-10.9-5.9c-3.2-1.6-6.1-2.7-8.1-3.2
			c-1-0.3-1.9-0.5-2.4-0.5c-0.3,0-0.5,0-0.6,0s-0.2,0-0.2,0s0,0,0.2,0s0.3,0,0.6,0c0.6,0,1.4,0.2,2.4,0.3c2.1,0.5,5,1.4,8.3,3
			c3.4,1.4,7.2,3.5,11,5.8c1.9,1.1,4,2.4,6.1,3.5c2.1,1.3,4,2.6,6.1,4c1.9,1.3,4.2,2.4,6.2,3.7c2.1,1.1,4.2,2.2,6.2,3.2
			c4,2.1,7.8,3.8,11.2,5.4c6.5,3.2,11,5.1,11,5.1L351.8,501.8z"/>
		
			<linearGradient id="SVGID_6_" gradientUnits="userSpaceOnUse" x1="348.9664" y1="574.6918" x2="348.9664" y2="540.4175" gradientTransform="matrix(1 0 0 -1 0 1084)">
			<stop  offset="5.118534e-03" style="stop-color:#4C4C4C"/>
			<stop  offset="1" style="stop-color:#353535"/>
		</linearGradient>
		<path class="st30" d="M360.1,543.5c0,0-10.9-14.7-1.9-34.3l-8.3,1.9l-7.5,12.9l-4.5,19.5C337.9,543.5,348.7,541.1,360.1,543.5z"/>
		
			<linearGradient id="SVGID_7_" gradientUnits="userSpaceOnUse" x1="329.6702" y1="616.8251" x2="376.062" y2="616.8251" gradientTransform="matrix(1 0 0 -1 0 1084)">
			<stop  offset="5.118534e-03" style="stop-color:#4C4C4C"/>
			<stop  offset="1" style="stop-color:#353535"/>
		</linearGradient>
		<path class="st31" d="M376,463.5c0,0-13.6,8.6-14.1,9.6c0,0-2.9,1.9-2.7,4.5c0,0-20.4-12.9-29.6-16l14.4-4.8l7.3,2.9
			c0,0,4.5-2.1,8.6-1.3c4.2,0.8,6.5,1.9,9.1,1.9C369.2,460.3,374.4,462.4,376,463.5z"/>
		
			<linearGradient id="SVGID_8_" gradientUnits="userSpaceOnUse" x1="275.0905" y1="643.8198" x2="314.065" y2="643.8198" gradientTransform="matrix(1 0 0 -1 0 1084)">
			<stop  offset="0" style="stop-color:#707070"/>
			<stop  offset="0.8127" style="stop-color:#4C4C4C"/>
		</linearGradient>
		<path class="st32" d="M275.1,453.9c0,0,14.4-2.1,25.7,0l13.3-24.3c0,0-17.9-2.4-19.5-3.2C294.6,426.4,276.7,448.5,275.1,453.9z"/>
		
			<linearGradient id="SVGID_9_" gradientUnits="userSpaceOnUse" x1="337.9406" y1="660.1923" x2="374.873" y2="660.1923" gradientTransform="matrix(1 0 0 -1 0 1084)">
			<stop  offset="5.118534e-03" style="stop-color:#4C4C4C"/>
			<stop  offset="1" style="stop-color:#353535"/>
		</linearGradient>
		<path class="st33" d="M374.3,434.6c0,0-1.6-6.1,0-8.1s-0.8-11.7-3.5-13.4c0,0-26.8,12.1-32.7,16C337.9,429,364.1,422,374.3,434.6z
			"/>
		<path class="st23" d="M358,525c0,0,8.9-17.7,12.8-19.6c0,0-2.2,14.2,12.8,21.1l-7.5-10.5c0,0-0.8-5.8-0.3-8
			c0.5-2.2,1.1-16.9,1.1-16.9s1.4-16.8,3.8-18c0,0-2.9,1.8-4.6,5.1C374.3,481.4,356.4,515.4,358,525z"/>
		<path class="st34" d="M401,561.9c0,0,0.2,0,0.3-0.2c0.2-0.2,0.3-0.3,0.6-0.6c0.5-0.5,1.1-1.6,1.3-2.9c0-0.3,0-0.8,0-1.1
			c0-0.2,0-0.2,0-0.3l0,0l0,0v-0.2c0-0.2,0-0.5-0.2-0.6c0-0.5-0.2-0.8-0.3-1.3c-0.2-0.5-0.3-1-0.5-1.3c-0.8-1.8-2.1-3.7-3.4-5.8
			c-1.4-2.1-3-4.3-4.5-6.7c-0.3-0.6-0.8-1.3-1.1-2.1v-0.2l0,0c0,0,0,0.2,0,0l0,0c0-0.2,0-0.2-0.2-0.3c0-0.2-0.2-0.2-0.2-0.3
			c-0.2-0.3-0.5-0.6-0.6-0.8c-1-1.1-2.1-2.2-3-3.4c-2.1-2.2-4.3-4.6-6.5-7c-1.1-1.3-2.2-2.4-3.2-3.8c-1.1-1.3-2.1-2.7-2.9-4.2
			c-0.8-1.4-1.6-3-1.9-4.8c0-0.2,0-0.5,0-0.6s0-0.5,0-0.6v-1.3c0-0.8,0-1.6,0-2.4c0-3.4,0-6.5,0-9.7s0.3-6.2,0.6-9.1
			c0.3-2.9,0.8-5.6,1.4-8c0.6-2.4,1.1-4.6,1.8-6.7c0.2-0.5,0.3-1,0.5-1.4c0.2-0.5,0.3-1,0.5-1.3c0.3-0.8,0.6-1.6,0.8-2.2
			c0.6-1.3,1.1-2.4,1.4-3.2c0.3-0.6,0.5-1.1,0.5-1.1h0.2c0,0-0.2,0.3-0.3,1.1c-0.3,0.8-0.6,1.8-1.1,3.2c-0.2,0.6-0.5,1.4-0.6,2.2
			c-0.2,0.5-0.3,0.8-0.5,1.3c-0.2,0.5-0.3,1-0.3,1.4c-0.5,1.9-1.1,4.2-1.6,6.5c-0.2,1.3-0.5,2.6-0.6,3.8c-0.2,0.6-0.2,1.3-0.3,2.1
			c0,0.6-0.2,1.4-0.3,2.1c-0.2,0.6-0.2,1.4-0.2,2.1c0,0.8-0.2,1.4-0.2,2.2c-0.2,1.4-0.2,3-0.3,4.6c-0.2,3.2-0.2,6.4-0.2,9.6
			c0,0.8,0,1.6-0.2,2.6c0,0.8-0.2,1.6-0.2,2.4c0.2,1.6,0.8,3,1.4,4.5c0.8,1.4,1.8,2.9,2.7,4.2c1,1.3,2.1,2.6,3.2,3.8
			c2.2,2.4,4.5,4.6,6.9,6.9c1.1,1.1,2.2,2.1,3.4,3.2c0.3,0.3,0.5,0.6,0.8,1c0.2,0.2,0.3,0.3,0.3,0.5c0,0.2,0.2,0.2,0.2,0.3l0,0v0.2
			l0,0v0.2c0.2,0.6,0.6,1.3,1,1.8c1.6,2.4,3.2,4.6,4.5,6.7c1.3,2.1,2.6,4.2,3.2,6.1c0.2,0.5,0.3,1,0.5,1.4c0.2,0.5,0.3,1,0.3,1.4
			c0,0.2,0,0.5,0,0.6v0.2v0.2v0.2c0,0.2,0,0.2,0,0.3c0,0.5-0.2,0.8-0.2,1.1c-0.3,1.4-1.1,2.6-1.6,3c-0.3,0.3-0.5,0.5-0.8,0.5
			C401.1,561.9,401.1,562.1,401,561.9L401,561.9z"/>
		<path class="st23" d="M409.4,460.5c0,0,6.9-0.5,8.8-2.1c0,0-1.6,4.8-1.1,7.8c0.5,3,2.2,8.3,0,16.5c0,0-6.4-0.5-7.7,7.8
			c-1.4,8.3-0.3,16.6-3.5,20.6c0,0,2.6-26.7-7.7-32.4C398.1,478.8,410.2,470.7,409.4,460.5z"/>
		<path class="st13" d="M346.5,443.2c0,0,25.9-6.7,33.5-5.1c0,0,11,13.4,18.7,18.7c0,0,5.9,5,10.7,3.8c0,0,0.2,10.7-8.9,18.4h-2.4"
			/>
		<path class="st35" d="M368.2,458.4c-1.6-0.8-3-1.8-4.5-2.7c-1.4-1-3-1.9-4.5-2.7c-2.9-1.9-5.9-3.8-8.8-5.9c-1.4-1-2.9-2.1-4.2-3.2
			c-1.4-1.1-2.7-2.2-4.2-3.4c-1.3-1.1-2.7-2.2-4.2-3.4c-1.4-1-2.9-1.9-4.5-2.9c-1.4-1-3-1.8-4.6-2.6c-1.6-0.8-3.2-1.6-4.6-2.2
			c-1.6-0.6-3.2-1.4-4.8-2.1c-1.6-0.6-3.4-1.1-4.8-1.3c-3.5-0.3-7-0.6-10.5-1.1c-3.5-0.5-7-1-10.4-1.4l0.3-0.2
			c-1,0.8-1.9,1.6-2.9,2.4s-1.8,1.6-2.7,2.6l-0.2-0.2c0.8-1,1.6-1.9,2.4-2.9c0.8-1,1.8-1.8,2.7-2.6l0.2-0.2h0.2
			c3.5,0.3,7,0.6,10.5,1l10.4,1c1,0.2,1.9,0.3,2.7,0.6c0.8,0.3,1.8,0.6,2.6,1c1.6,0.6,3.2,1.4,4.8,2.2c3.2,1.6,6.2,3.4,9.1,5.3
			c1.4,1,2.9,1.9,4.3,3c0.6,0.5,1.4,1.1,2.1,1.6c0.6,0.5,1.4,1.1,2.1,1.6c1.4,1.1,2.9,2.1,4.3,3l4.3,2.9c1.4,1,2.9,1.9,4.3,3l4.3,3
			l4.3,3C365.5,456.3,366.9,457.3,368.2,458.4L368.2,458.4z"/>
		
			<linearGradient id="SVGID_10_" gradientUnits="userSpaceOnUse" x1="323.0279" y1="578.4068" x2="382.7676" y2="578.4068" gradientTransform="matrix(1 0 0 -1 0 1084)">
			<stop  offset="1.897321e-02" style="stop-color:#4C4C4C"/>
			<stop  offset="0.887" style="stop-color:#605F60"/>
		</linearGradient>
		<path class="st36" d="M363.4,547.7c0,0-5.6-17.1-5.6-22.7s-0.5-14.9,20.9-51.9l3.8-7.2l-2.7-3.4l-19.3,14.4
			c0,0-1.1,15.5-12.6,28.1c-11.7,12.6-11.7,22.8-14.4,25.7c-2.7,3-10.2,11.8-10.7,17.9C323,548.8,353.5,545.4,363.4,547.7z"/>
		<path class="st37" d="M361.2,477.4c0,0,0,0.3,0,1c0,0.6-0.2,1.4-0.3,2.6c-0.3,2.2-1,5.4-2.4,9.1c-0.6,1.8-1.6,3.8-2.6,5.8
			c-0.5,1-1.1,1.9-1.8,2.9c-0.3,0.5-0.6,1-1,1.4c-0.2,0.3-0.3,0.5-0.5,0.8l-0.6,0.6c-0.3,0.5-0.8,1-1.1,1.4s-0.8,1-1.3,1.4
			c-0.8,1-1.6,1.9-2.6,2.9c-0.8,1-1.6,1.9-2.4,3c-0.3,0.5-0.6,1.1-1.1,1.6l-0.5,0.8l-0.5,0.8c-1.3,2.2-2.4,4.5-3.4,6.7
			c-1,2.2-1.8,4.6-2.6,6.9c-0.3,1.1-0.8,2.2-1.4,3.4c-0.2,0.3-0.3,0.5-0.5,0.8l-0.3,0.3c-0.2,0.2-0.2,0.2-0.3,0.3
			c-0.3,0.5-0.8,0.8-1.1,1.3c-1.4,1.6-2.7,3.2-4,4.8c-1.1,1.4-2.1,3-3,4.3c-0.8,1.3-1.4,2.6-1.9,3.5c-0.5,1-0.6,1.9-0.8,2.4
			c-0.2,0.6-0.2,1-0.2,1H323c0,0,0-0.3,0-1s0.2-1.4,0.6-2.6c0.6-2.2,2.2-5.1,4.3-8.3c1.1-1.6,2.4-3.2,3.8-5c0.3-0.5,0.8-0.8,1.1-1.3
			c0.2-0.2,0.2-0.2,0.3-0.3l0.2-0.3c0.2-0.2,0.3-0.5,0.5-0.6c0.5-1,1-2.1,1.3-3.2c0.8-2.2,1.8-4.6,2.7-6.9c0.3-0.6,0.5-1.1,0.8-1.8
			s0.6-1.1,1-1.8c0.6-1.1,1.3-2.2,2.1-3.2l0.5-0.8l0.6-0.8l1.1-1.6c0.5-0.5,0.8-1,1.3-1.4c0.3-0.5,0.8-1,1.3-1.4
			c0.8-1,1.6-1.9,2.4-2.9c0.3-0.5,0.8-1,1.1-1.4c0.3-0.5,0.6-1,1-1.4l0.5-0.8c0.2-0.3,0.3-0.5,0.5-0.8c0.3-0.5,0.6-1,1-1.4
			c0.3-0.5,0.5-1,0.8-1.4c0.3-0.5,0.5-1,0.8-1.4c0.5-1,1-1.9,1.4-2.9c0.2-0.5,0.5-1,0.6-1.4c0.2-0.5,0.3-1,0.5-1.3
			c0.8-1.8,1.3-3.4,1.8-5c0.2-0.8,0.5-1.4,0.6-2.1c0.2-0.6,0.3-1.3,0.5-1.8c0.3-1.1,0.5-1.9,0.5-2.6
			C361,477.7,361.2,477.4,361.2,477.4L361.2,477.4z"/>
		<path class="st38" d="M382.9,466.1c0,0-0.2,0.3-0.5,0.8c-0.3,0.5-0.6,1.3-1.1,2.4c-1,2.1-2.6,5-4.3,8.5c-1,1.8-1.9,3.7-3,5.6
			c-1.1,1.9-2.2,4-3.5,6.1c-1.3,2.1-2.4,4.3-3.5,6.7c-0.3,0.6-0.6,1.1-0.8,1.8c-0.3,0.6-0.5,1.1-0.8,1.8c-0.5,1.3-1,2.4-1.4,3.7
			c-1,2.4-1.9,5-2.7,7.3c-0.8,2.4-1.4,4.8-1.8,7.2c-0.3,2.4-0.5,4.6-0.3,6.9c0,2.2,0.3,4.3,0.5,6.2c0.2,1,0.3,1.9,0.5,2.7
			c0.2,0.8,0.3,1.8,0.5,2.4c0.3,1.6,0.6,2.9,1,4c0.6,2.2,1,3.5,1,3.5h-0.2c0,0-0.5-1.3-1.3-3.4c-0.2-0.3-0.2-0.5-0.3-0.8
			c-0.2-0.3-0.2-0.6-0.3-1c-0.2-0.6-0.5-1.4-0.6-2.1c-0.3-0.8-0.5-1.6-0.6-2.4c-0.2-0.8-0.5-1.8-0.6-2.7c-0.2-1-0.3-1.9-0.5-3
			c0-0.5-0.2-1.1-0.2-1.6s-0.2-1.1-0.2-1.8s0-1.1,0-1.8s0-1.1,0-1.8c0-1.3,0.2-2.4,0.3-3.7c0.5-2.4,1.1-5,2.1-7.3
			c0.5-1.3,1-2.4,1.4-3.7c0.5-1.1,1.1-2.4,1.6-3.5c1-2.4,2.2-4.8,3.4-7c1.1-2.4,2.2-4.6,3.4-6.9c1.1-2.2,2.1-4.3,3.2-6.4
			c1.1-1.9,2.1-3.8,3-5.6c1.9-3.4,3.7-6.2,5-8.1c0.6-1,1.1-1.8,1.4-2.2C382.6,466.2,382.7,466.1,382.9,466.1L382.9,466.1z"/>
		<path class="st39" d="M400.3,562.2c-0.6-0.5-1.4-1-2.1-1.4c-0.6-0.5-1.4-1-2.1-1.3l-2.1-1.3l-2.2-1.3l-2.2-1.1l-2.2-1.1
			c-0.8-0.3-1.4-0.6-2.2-1c-0.8-0.3-1.6-0.6-2.2-1c-0.8-0.3-1.6-0.6-2.4-1c-0.8-0.3-1.6-0.6-2.4-0.8c-0.8-0.3-1.6-0.5-2.4-0.8
			c-0.3-0.2-0.8-0.3-1.1-0.3l-1.3-0.3c-0.8-0.2-1.6-0.5-2.4-0.6l-2.4-0.5c-0.5,0-0.8-0.2-1.3-0.2l-1.3-0.2l-2.6-0.2l0,0l0,0
			c-0.8-0.2-1.8-0.2-2.6-0.3c-0.8-0.2-1.8-0.2-2.6-0.2c-1.8-0.2-3.4-0.2-5.1-0.2c-0.8,0-1.8,0-2.6,0c-0.8,0-1.8,0-2.6,0h-2.6H343
			l-2.6,0.2c-0.8,0-1.8,0-2.6,0.2c-0.8,0-1.8,0.2-2.6,0.2l-2.6,0.3l-2.6,0.3l-1.3,0.2l-1.3,0.2c-0.8,0.2-1.6,0.2-2.4,0.5l-2.4,0.5
			h0.2c-1.6,0.8-3.2,1.4-4.8,2.2c-1.6,0.6-3.2,1.4-4.8,2.1l-5,2.1c-1.6,0.6-3.4,1.4-5,2.1l-0.2-0.2c1.6-1,3-1.8,4.6-2.6l4.6-2.6
			c1.6-0.8,3.2-1.6,4.6-2.6c1.6-0.8,3.2-1.6,4.8-2.4h0.2h0.2l2.6-0.6c0.5-0.2,0.8-0.2,1.3-0.3l1.3-0.2l1.3-0.2l1.3-0.2
			c0.8-0.2,1.8-0.2,2.6-0.3l2.6-0.2c0.8,0,1.8,0,2.6-0.2c0.8,0,1.8,0,2.6,0c0.8,0,1.8,0,2.6,0c1.8,0,3.4,0.2,5.1,0.2
			c1.8,0.2,3.4,0.3,5.1,0.5c1.8,0.2,3.4,0.3,5.1,0.5l2.6,0.3l2.6,0.3l0,0l2.6,0.2h1.3c0.5,0,0.8,0.2,1.3,0.2l2.6,0.3
			c0.8,0.2,1.8,0.3,2.6,0.5l1.3,0.2c0.5,0,0.8,0.2,1.3,0.3c0.8,0.2,1.6,0.3,2.6,0.6c0.8,0.3,1.6,0.5,2.4,0.8c0.8,0.3,1.6,0.6,2.4,1
			c0.8,0.3,1.6,0.6,2.4,1c0.8,0.3,1.6,0.6,2.2,1.1l2.2,1.3c0.8,0.5,1.4,1,2.2,1.3c0.6,0.5,1.4,1,2.1,1.4s1.4,1,2.1,1.6
			C398.1,559.8,399.4,560.9,400.3,562.2L400.3,562.2z"/>
		<path class="st40" d="M413.9,456.5c0,0-9.1,5.1-20.9-9.1c0,0,0.8-6.4,7-2.7s8.6,5.4,12.3,5.4C415.8,450.1,417.6,456.3,413.9,456.5
			z"/>
		<path class="st41" d="M420.1,456.8c-1.3-2.2-2.4-4.6-3.7-6.9l-1.8-3.4l-1.9-3.4l-1.9-3.4l-1-1.6c-0.3-0.5-0.6-1.1-1.1-1.6
			c-0.3-0.5-0.8-1-1.1-1.4c-0.5-0.5-0.8-1-1.3-1.4c-1-1-1.9-1.8-2.9-2.7c-1.9-1.8-4-3.2-6.1-5c-1-0.8-2.1-1.6-3-2.6
			c-1-0.8-1.9-1.8-2.9-2.6c-0.5-0.5-1-1-1.4-1.4c-0.2-0.2-0.5-0.5-0.6-0.8c-0.2-0.3-0.5-0.5-0.6-1c0-0.2-0.2-0.3-0.2-0.5l0,0
			c0-0.2,0,0.2,0,0.2l0,0l0,0v-0.2c0,0,0,0.2,0,0l-0.2-0.2c-0.2-0.2-0.3-0.3-0.6-0.5c-0.5-0.3-1-0.6-1.4-1.1
			c-1.1-0.6-2.2-1.3-3.4-1.9c-1.1-0.6-2.2-1.3-3.4-1.8h0.2c-1.3-0.5-2.4-1-3.7-1.3l-1.8-0.6c-0.6-0.2-1.1-0.5-1.8-0.8V409
			c0.6,0.2,1.3,0.2,1.9,0.3l1.9,0.3c1.3,0.3,2.6,0.6,3.7,0.8l0,0l0,0c1.3,0.5,2.4,1,3.7,1.6c1.1,0.5,2.4,1.1,3.5,1.8
			c0.6,0.3,1.1,0.6,1.8,1.1c0.3,0.2,0.6,0.5,0.8,0.8c0,0.2,0.2,0.2,0.2,0.3c0,0.2,0.2,0.3,0.3,0.5v0.2l0,0l0,0v0.2l0,0l0,0
			c0,0.2,0.3,0.3,0.5,0.6l0.6,0.6c0.5,0.5,0.8,1,1.3,1.4c1,1,1.9,1.8,2.7,2.7c1,1,1.9,1.8,2.9,2.7c1.9,1.8,3.7,3.7,5.4,5.6l2.7,2.7
			l1.4,1.4l1.4,1.4c0.5,0.5,0.8,1,1.3,1.4l1.3,1.6c0.3,0.5,0.8,1.1,1.1,1.6c0.3,0.5,0.6,1.1,1.1,1.6c0.3,0.6,0.6,1.1,1,1.8l1,1.8
			c0.6,1.1,1.1,2.4,1.6,3.5c0.5,1.3,1,2.4,1.4,3.7c0.5,1.3,0.8,2.4,1.1,3.7L420.1,456.8z"/>
	</g>
</g>
<g id="_x30_8">
	<path class="st2" d="M477.2,491.3c0,0.5,0,1.1-0.1,1.7c-0.3,2.1-1.2,4.2-2.4,6c-1.2,1.8-2.7,3.4-4.4,4.9c-3.4,2.9-7.3,5.3-11.4,7.4
		c-4.2,2.1-8.5,3.9-12.9,5.5c-8.8,3.1-18.1,5.6-27.6,7.6s-19.2,3.6-29,4.8c-19.7,2.5-39.8,3.6-59.9,3.6s-40.3-1.1-59.9-3.5
		c-9.8-1.2-19.5-2.8-29-4.8s-18.8-4.4-27.7-7.6c-4.4-1.6-8.8-3.3-12.9-5.4c-4.1-2.1-8.1-4.4-11.5-7.4c-1.7-1.5-3.3-3.1-4.5-5
		c-1.2-1.8-2.1-3.9-2.4-6.1c-0.1-0.6-0.1-1.1-0.1-1.6h-0.1c0,0.6,0,1.2,0.1,1.7c0.2,2.2,1.2,4.3,2.4,6.2c1.2,1.8,2.8,3.5,4.5,5
		c3.4,3,7.4,5.4,11.5,7.5c4.1,2.1,8.5,3.9,12.9,5.5c8.9,3.1,18.2,5.6,27.7,7.6s19.2,3.6,29,4.8c19.6,2.5,39.8,3.6,59.9,3.6
		s40.2-1.1,59.9-3.5c9.9-1.2,19.6-2.8,29.1-4.8s18.8-4.4,27.7-7.6c4.4-1.6,8.7-3.4,12.9-5.5c4.1-2.1,8.1-4.5,11.6-7.5
		c1.7-1.5,3.3-3.2,4.6-5.1c1.3-1.9,2.2-4,2.5-6.3c0.1-0.5,0.1-1.1,0.1-1.6L477.2,491.3L477.2,491.3z"/>
</g>
<g>
	<defs>
		<path id="SVGID_11_" d="M352.5,416.7c0,0,8.3,1.9,8.2,4s5.8,5.3,5.8,5.3l5.8,8l2,6.2c0,0,11,19.2,28.7,18.5c0,0-20-9.9-24.7-24.8
			l3-4.5l2.4-5.7l2.1-2.4l4.6,3.1l1.4,4.8h3.7l5.9,3.2l2.8-0.5l1.5-13.9l-26.1-15l-13.9,2.2l-10.7,5.6L352.5,416.7z"/>
	</defs>
	<clipPath id="SVGID_12_">
		<use xlink:href="#SVGID_11_"  style="overflow:visible;"/>
	</clipPath>
	<g class="st42">
		<path class="st43" d="M402.9,552.1c0,0,6-16,6.4-23.2c0.3-7.2,2.8-24.2,5.7-30.6c2.8-6.4,3.5-17.8,3.2-23.9c-0.3-6,0.1-19,0.1-19
			s-5.8-14.9-11.8-21.2s-17.4-15.4-17.8-17.1c-0.3-1.8-9.2-5.7-9.2-5.7l-7.2-2.2c0,0-27.1,11-37.4,18.5l-2.1,4.7L402.9,552.1z"/>
		<path class="st44" d="M379.3,437.5c-0.4-0.5-0.8-1-1.2-1.5c-0.3-0.6-0.6-1.1-1-1.7c-0.3-0.6-0.6-1.2-0.7-1.8
			c-0.1-0.3-0.2-0.6-0.2-1c-0.1-0.3-0.2-0.6-0.2-1c-0.1-0.3-0.1-0.7-0.1-1v-0.6c0-0.2,0.1-0.3,0.1-0.6l0.1-0.6
			c0.1-0.2,0.1-0.3,0.2-0.5l0.2-0.5c0.1-0.2,0.2-0.3,0.2-0.5l0.2-0.5c0-0.1,0.2-0.2,0.2-0.4c0.1-0.2,0.1-0.2,0.2-0.3
			c0.1-0.1,0.1-0.2,0.2-0.4c0.2-0.5,0.2-1,0.2-1.6c0-1.1-0.2-2.3-0.4-3.5c-0.3-1.2-0.7-2.4-1.3-3.5c-0.6-1.1-1.1-2.3-1.8-3.3
			c-0.7-1-1.4-2.1-2.3-3.1l0.5,0.2c-1.3,0.6-2.5,1.2-3.8,1.8c-1.3,0.6-2.5,1.1-3.8,1.8l-7.6,3.5l-7.6,3.3l-1.9,0.9
			c-0.6,0.3-1.3,0.6-1.9,0.9l-1.9,0.9c-0.6,0.3-1.2,0.6-1.8,0.9l-0.1-0.2c1-0.9,2.3-1.7,3.4-2.5c0.6-0.4,1.2-0.7,1.8-1.1
			c0.6-0.4,1.2-0.7,1.8-1c0.6-0.3,1.2-0.7,1.8-1l1.8-1c0.6-0.3,1.3-0.6,1.8-0.9c0.6-0.3,1.3-0.6,1.9-0.9c1.3-0.6,2.6-1.1,3.9-1.7
			c1.3-0.6,2.6-1,3.9-1.5s2.6-1,3.9-1.4l4-1.3l0.3-0.1l0.2,0.2c0.7,1,1.4,2.2,2.1,3.3c0.6,1.1,1.4,2.2,1.9,3.3
			c0.6,1.1,1.3,2.3,1.8,3.5s0.9,2.5,1,3.9c0,0.7-0.1,1.4-0.2,2.2c-0.1,0.2-0.1,0.3-0.2,0.6c-0.1,0.2-0.2,0.4-0.2,0.6l-0.2,0.4
			l-0.2,0.3c-0.1,0.1-0.2,0.2-0.2,0.3l-0.2,0.4c-0.1,0.2-0.1,0.2-0.2,0.4l-0.1,0.4c0,0.2-0.1,0.2-0.1,0.4v0.4c0,0.3,0,0.6,0,0.9
			s0,0.6,0.1,0.9c0,0.3,0.1,0.6,0.2,0.9c0.1,0.6,0.2,1.2,0.5,1.8c0.4,1.2,0.8,2.3,1.4,3.5H379.3z"/>
		<path class="st45" d="M373.8,434.1c0,0-1.6-5.9,0-7.9c1.6-2-0.8-11.3-3.5-12.9c0,0-26,11.7-31.8,15.5
			C338.6,428.7,364,421.8,373.8,434.1z"/>
		<path class="st46" d="M346.8,442.4c0,0,25.1-6.4,32.5-5c0,0,10.6,12.9,18.1,18.1c0,0,5.7,4.7,10.4,3.7c0,0,0.2,10.4-8.7,17.8h-2.3
			"/>
		<path class="st40" d="M412.2,455.2c0,0-8.9,5-20.3-8.9c0,0,0.9-6.1,6.8-2.7c5.9,3.5,8.4,5.3,11.9,5.3
			C414.1,449,415.7,455.2,412.2,455.2z"/>
		<path class="st44" d="M418.2,455.6c-1.2-2.2-2.4-4.4-3.5-6.6l-1.8-3.3l-1.8-3.3l-1.8-3.2l-1-1.6c-0.3-0.6-0.6-1-1-1.5
			c-0.3-0.5-0.7-1-1.1-1.4c-0.4-0.5-0.8-1-1.3-1.4c-0.9-0.9-1.8-1.8-2.7-2.6c-1.8-1.7-3.9-3.1-5.9-4.7c-1-0.8-1.9-1.6-2.9-2.4
			s-1.9-1.6-2.8-2.5c-0.5-0.4-1-0.9-1.4-1.4c-0.2-0.2-0.5-0.5-0.6-0.7c-0.2-0.2-0.5-0.5-0.6-1c-0.1-0.1-0.2-0.2-0.2-0.4v-0.1
			c0-0.1,0,0.1,0,0.1l0,0v-0.1v-0.1v0.1l-0.1-0.1c-0.2-0.2-0.3-0.3-0.6-0.5c-0.4-0.3-1-0.7-1.4-1c-1-0.6-2.1-1.3-3.2-1.8
			c-1.1-0.6-2.2-1.2-3.3-1.8h0.1c-1.2-0.4-2.3-0.9-3.5-1.3l-1.8-0.7c-0.6-0.2-1.1-0.5-1.7-0.7l0.1-0.2c0.6,0.1,1.2,0.2,1.8,0.3
			l1.8,0.4c1.2,0.2,2.4,0.6,3.6,0.8l0,0h0.1c1.2,0.5,2.3,1,3.5,1.4c1.1,0.6,2.3,1.1,3.4,1.8c0.6,0.3,1.1,0.6,1.7,1.1
			c0.2,0.2,0.6,0.5,0.8,0.8c0.1,0.1,0.2,0.2,0.2,0.2c0.1,0.1,0.2,0.3,0.2,0.5c0,0.1,0,0.1,0.1,0.2v0.1l0,0c0,0,0.1,0.2,0,0.1l0,0
			c0,0,0-0.1,0,0c0.1,0.2,0.2,0.4,0.4,0.6l0.6,0.6c0.4,0.5,0.8,0.9,1.3,1.3c0.9,0.9,1.8,1.8,2.7,2.6c0.9,0.9,1.8,1.7,2.7,2.6
			c1.8,1.8,3.5,3.6,5.3,5.4l2.7,2.7l1.4,1.3l1.3,1.4c0.4,0.5,0.9,1,1.3,1.4l1.2,1.5c0.4,0.5,0.7,1,1.1,1.5c0.3,0.6,0.7,1,1,1.6
			c0.3,0.6,0.6,1.1,1,1.7l0.9,1.7c0.6,1.1,1,2.3,1.6,3.5c0.5,1.2,1,2.3,1.4,3.5c0.4,1.2,0.8,2.4,1.1,3.6L418.2,455.6z"/>
	</g>
</g>
<g>
	<defs>
		<polygon id="SVGID_13_" points="364.1,500.1 356.5,516.3 353.6,523.5 353.6,528.6 350.5,535.2 346.1,542.3 333.1,546.1 
			345.2,552.6 356.5,552.6 362.2,550.3 378.4,554.3 386.4,555.1 393,553 383.9,545.9 368.9,540.6 370,536 365.5,534.7 367.1,530.5 
			364.1,525.9 369.3,522.6 363,516.9 364.1,511.6 		"/>
	</defs>
	<clipPath id="SVGID_14_">
		<use xlink:href="#SVGID_13_"  style="overflow:visible;"/>
	</clipPath>
	<path class="st47" d="M365.5,548.2c0,0-4.6-14.4-4.6-19c0-4.7-0.5-12.5,17.6-43.5l3.3-6l-2.3-2.8L363.2,489c0,0-0.9,13-10.7,23.6
		s-9.8,19.1-12.1,21.6s-8.6,9.9-9,15C331.5,549.2,357.2,546.4,365.5,548.2z"/>
	<g class="st48">
		<path class="st43" d="M397,559.9c0,0,3.3-0.6,3.3-4.8c0-4.3-7.7-13.2-8.4-15.4s-16.4-14.6-15.7-21.5c0.6-6.9-1.5-21.1,6-39
			l-12.8,11.4l-12.3,30.9l-0.6,20.1l6.6,10.2L397,559.9z"/>
		<path class="st49" d="M376.1,518.3c0.1-1,0.1-2.2,0.1-3.6c-6.1,16.2,7.8,30.3,9.4,34.1c0.8,2,0.8,5.6,0.6,8.6l10.7,2.6
			c0,0,3.3-0.6,3.3-4.8s-7.7-13.2-8.4-15.4C391.3,537.6,375.5,525.2,376.1,518.3z"/>
		<path class="st50" d="M315.9,556.4c0,0,15.8,3.3,28.3,6.1c12.5,2.8,13-1.3,43.1-2.5c0,0,6.5-1.3,9.8-0.1c0,0-13-11.8-31-12.3
			c0,0-20.6-2.7-33.9,0.9L315.9,556.4z"/>
		<path class="st51" d="M331.5,559.7c0,0,13.1-12.6,45.1-9.9c0,0-35.7-9.9-57.9,5.2l-1.7,1.1L331.5,559.7z"/>
		<path class="st52" d="M383.3,552.1c-2.8-1.1-17.9-5.6-24-4.9c-0.1,0-0.3,0.1-0.4,0.1c9.8,0.8,16.9,2.8,16.9,2.8
			c-32-2.8-45.1,9.9-45.1,9.9l-3.3-0.8l-0.2,0.1l14.8,3.1c0,0,5.6,3.3,20.4,0c0,0,12.3-3.8,19.1-3.6
			C388.3,559,386.1,553.3,383.3,552.1z"/>
		<path class="st2" d="M379.9,476.4l-16.2,12.1c0,0-0.9,13-10.7,23.6c-3.2,3.6-5.4,6.8-6.9,9.8c9.2-12.3,18.8-19.7,25.8-24
			c2-3.7,4.2-7.9,7-12.6l3.3-6L379.9,476.4z"/>
		<path class="st53" d="M363.8,488.7c0,0,0,0.3,0,0.8s-0.1,1.3-0.2,2.2c-0.3,1.9-0.8,4.5-2,7.6c-0.6,1.5-1.3,3.1-2.2,4.8
			c-0.5,0.8-1,1.7-1.5,2.4c-0.3,0.4-0.6,0.8-0.8,1.2c-0.1,0.2-0.3,0.4-0.4,0.6l-0.5,0.6c-0.3,0.4-0.6,0.8-1,1.2
			c-0.3,0.4-0.7,0.8-1,1.2c-0.7,0.8-1.4,1.6-2.1,2.4c-0.7,0.8-1.3,1.7-2,2.5c-0.3,0.4-0.6,0.9-0.9,1.3l-0.4,0.7l-0.4,0.7
			c-1.1,1.8-2.1,3.8-2.9,5.7c-0.8,2-1.5,3.9-2.2,5.8c-0.3,1-0.6,2-1.2,2.9c-0.1,0.2-0.3,0.5-0.4,0.7l-0.3,0.3
			c-0.1,0.1-0.1,0.2-0.2,0.3c-0.3,0.3-0.6,0.7-0.9,1c-1.2,1.4-2.3,2.7-3.3,4c-1,1.3-1.8,2.5-2.5,3.6c-0.7,1.1-1.2,2.1-1.6,3
			c-0.3,0.8-0.6,1.5-0.7,2c-0.1,0.5-0.1,0.8-0.1,0.8h-0.1c0,0,0-0.3,0.1-0.8c0.1-0.5,0.2-1.3,0.5-2.2c0.6-1.8,1.8-4.3,3.7-7
			c0.9-1.3,2-2.7,3.2-4.2c0.3-0.3,0.6-0.7,0.9-1c0.1-0.1,0.1-0.2,0.2-0.3l0.2-0.2c0.1-0.1,0.2-0.3,0.3-0.6c0.4-0.8,0.8-1.7,1.1-2.6
			c0.7-1.9,1.4-3.9,2.3-5.9c0.2-0.5,0.5-1,0.7-1.5c0.3-0.5,0.5-1,0.8-1.4c0.6-0.9,1.1-1.9,1.7-2.7l0.5-0.7l0.5-0.6l1-1.3
			c0.3-0.4,0.7-0.8,1-1.3s0.7-0.8,1-1.3c0.7-0.8,1.4-1.6,2-2.4c0.3-0.4,0.7-0.8,1-1.2c0.3-0.4,0.6-0.8,0.8-1.3l0.4-0.6
			c0.1-0.2,0.3-0.4,0.3-0.6c0.3-0.4,0.5-0.8,0.8-1.3s0.4-0.8,0.7-1.3c0.2-0.4,0.5-0.8,0.6-1.3c0.4-0.8,0.8-1.6,1.2-2.4
			c0.2-0.4,0.3-0.8,0.6-1.2c0.1-0.3,0.3-0.8,0.5-1.1c0.6-1.5,1-2.9,1.5-4.1c0.2-0.6,0.3-1.2,0.5-1.7c0.1-0.6,0.3-1,0.4-1.5
			c0.2-0.9,0.3-1.6,0.5-2.2C363.8,489,363.8,488.7,363.8,488.7L363.8,488.7z"/>
		<path class="st54" d="M396.9,560c-0.6-0.4-1.2-0.8-1.7-1.2c-0.6-0.4-1.2-0.8-1.8-1.1l-1.8-1.1l-1.8-1l-1.9-1l-1.9-0.9
			c-0.6-0.3-1.3-0.6-1.9-0.8c-0.6-0.3-1.3-0.6-2-0.8c-0.6-0.3-1.3-0.6-2-0.8c-0.6-0.2-1.3-0.5-2-0.7c-0.7-0.2-1.3-0.4-2-0.6
			c-0.3-0.1-0.7-0.2-1-0.3l-1-0.3c-0.7-0.1-1.3-0.3-2-0.5l-2.1-0.4c-0.3-0.1-0.7-0.1-1-0.1l-1-0.1l-2.1-0.1l0,0l0,0
			c-0.7-0.1-1.4-0.1-2.1-0.2c-0.7-0.1-1.4-0.1-2.1-0.1c-1.4-0.1-2.9-0.1-4.2-0.1c-0.7,0-1.4,0-2.2,0c-0.7,0-1.4,0-2.2,0h-2.1
			l-2.1,0.1l-2.1,0.1c-0.7,0-1.4,0.1-2.1,0.1c-0.7,0.1-1.4,0.1-2.1,0.1l-2.1,0.2l-2.1,0.3l-1,0.1l-1,0.2c-0.7,0.1-1.4,0.2-2.1,0.3
			l-2,0.4l0.1-0.1c-1.3,0.6-2.7,1.3-4,1.9c-1.4,0.6-2.7,1.3-4.1,1.8l-4.1,1.7c-1.4,0.6-2.8,1.1-4.2,1.7l-0.1-0.1
			c1.3-0.8,2.6-1.5,3.9-2.2l3.9-2.2c1.3-0.7,2.6-1.4,4-2.1c1.3-0.7,2.6-1.4,4-2l0.1-0.1h0.1l2.1-0.6c0.3-0.1,0.7-0.1,1-0.2l1-0.2
			l1-0.2l1-0.1c0.7-0.1,1.5-0.2,2.2-0.3l2.2-0.1c0.7-0.1,1.5-0.1,2.2-0.1c0.7,0,1.5-0.1,2.2-0.1s1.5,0,2.2,0
			c1.5,0.1,2.9,0.1,4.3,0.1c1.4,0.1,2.9,0.2,4.2,0.3c1.4,0.1,2.9,0.3,4.2,0.4l2.2,0.2l2.2,0.3l0,0l2.2,0.1l1,0.1
			c0.3,0,0.7,0.1,1,0.1l2.2,0.2c0.7,0.1,1.4,0.2,2.1,0.3l1,0.2c0.3,0.1,0.7,0.1,1,0.2c0.7,0.1,1.4,0.3,2.1,0.5
			c0.7,0.2,1.4,0.4,2,0.6c0.7,0.2,1.3,0.5,2,0.8c0.7,0.3,1.3,0.6,2,0.8c0.6,0.3,1.3,0.6,2,1l1.9,1c0.6,0.3,1.3,0.8,1.8,1.1
			c0.6,0.4,1.2,0.8,1.8,1.2c0.6,0.4,1.2,0.8,1.7,1.3c1.1,0.9,2.2,1.8,3.2,2.9L396.9,560z"/>
		<path class="st2" d="M398,559.7c0,0,0.1-0.1,0.2-0.1c0.1-0.1,0.3-0.3,0.6-0.5c0.4-0.5,1-1.3,1.1-2.4c0.1-0.3,0.1-0.6,0.1-0.9
			c0-0.1,0-0.1,0-0.3v-0.1c0,0,0,0,0-0.1v-0.1c0-0.2-0.1-0.3-0.1-0.6c-0.1-0.3-0.2-0.7-0.3-1c-0.1-0.3-0.3-0.8-0.5-1.1
			c-0.7-1.5-1.7-3.1-2.9-4.9s-2.5-3.6-3.8-5.6c-0.3-0.6-0.6-1-0.9-1.7l-0.1-0.1v-0.1c0,0,0,0.1,0,0l0,0c0-0.1-0.1-0.1-0.1-0.2
			c-0.1-0.1-0.1-0.2-0.2-0.3c-0.1-0.2-0.3-0.5-0.6-0.7c-0.8-1-1.7-1.9-2.6-2.9c-1.8-2-3.7-3.9-5.5-5.9c-0.9-1-1.9-2.1-2.7-3.2
			c-0.9-1.1-1.7-2.2-2.4-3.5c-0.7-1.3-1.4-2.5-1.5-4c0-0.2-0.1-0.3,0-0.6c0-0.2,0-0.3,0-0.6l0.1-1c0-0.7,0-1.4,0-2
			c0-2.7-0.1-5.5,0-8.2c0.1-2.6,0.2-5.2,0.6-7.6c0.3-2.4,0.7-4.7,1.2-6.8c0.5-2.1,1-4,1.5-5.6c0.1-0.4,0.3-0.8,0.3-1.2
			c0.1-0.3,0.3-0.8,0.4-1.1c0.3-0.7,0.5-1.3,0.7-1.9c0.5-1.1,0.9-2,1.1-2.6c0.3-0.6,0.4-0.9,0.4-0.9l0.1,0.1c0,0-0.1,0.3-0.3,1
			s-0.6,1.5-0.9,2.7c-0.2,0.6-0.3,1.3-0.6,2c-0.1,0.3-0.2,0.7-0.3,1.1c-0.1,0.4-0.2,0.8-0.3,1.2c-0.4,1.7-0.9,3.5-1.3,5.6
			c-0.2,1-0.4,2.1-0.6,3.2c-0.1,0.6-0.1,1.1-0.3,1.7c-0.1,0.6-0.1,1.2-0.2,1.7c-0.1,0.6-0.1,1.2-0.2,1.8s-0.1,1.3-0.1,1.9
			c-0.1,1.3-0.1,2.5-0.2,3.8c-0.1,2.6-0.1,5.3-0.1,8.1c0,0.7-0.1,1.4-0.1,2.1c-0.1,0.7-0.1,1.4-0.1,2c0.1,1.3,0.6,2.6,1.3,3.8
			c0.6,1.3,1.4,2.4,2.2,3.5c0.8,1.1,1.7,2.2,2.6,3.2c1.8,2.1,3.8,4,5.7,5.8c1,0.9,1.9,1.8,2.8,2.7c0.2,0.2,0.4,0.5,0.6,0.8
			c0.1,0.1,0.2,0.3,0.3,0.5c0.1,0.1,0.1,0.1,0.1,0.2l0,0v0.1v0.1l0.1,0.1c0.2,0.5,0.6,1,0.8,1.5c1.3,2,2.6,3.8,3.8,5.6
			c1.1,1.8,2.1,3.5,2.7,5.1c0.1,0.4,0.3,0.8,0.4,1.2c0.1,0.4,0.2,0.8,0.3,1.2c0,0.2,0,0.3,0.1,0.6v0.1v0.1v0.1c0,0.1,0,0.2,0,0.3
			c0,0.3-0.1,0.7-0.1,1c-0.3,1.3-0.9,2.1-1.4,2.6c-0.3,0.2-0.5,0.3-0.6,0.5c-0.1,0.1-0.2,0.1-0.2,0.1L398,559.7z"/>
	</g>
</g>
<g id="_x30_6">
	
		<linearGradient id="SVGID_15_" gradientUnits="userSpaceOnUse" x1="330.25" y1="825.7" x2="330.25" y2="1466" gradientTransform="matrix(1 0 0 -1 0 1472)">
		<stop  offset="0" style="stop-color:#FFFFFF"/>
		<stop  offset="0.6582" style="stop-color:#FFFFFF;stop-opacity:0"/>
	</linearGradient>
	<path class="st55" d="M437.3,609.9L642.3,6H18.2l204.1,607.8c0,17.9,48.3,32.5,108,32.5s108-14.5,108-32.5
		C438.2,612.6,437.8,611.2,437.3,609.9z"/>
</g>
</svg>
