<?xml version="1.0" encoding="utf-8"?>
<!-- Generator: Adobe Illustrator 19.2.1, SVG Export Plug-In . SVG Version: 6.00 Build 0)  -->
<svg version="1.1" id="Capa_1" xmlns="http://www.w3.org/2000/svg" xmlns:xlink="http://www.w3.org/1999/xlink" x="0px" y="0px"
	 viewBox="0 0 658.5 857.6" style="enable-background:new 0 0 658.5 857.6;" xml:space="preserve">
<style type="text/css">
	.st0{fill:#F57C00;}
	.st1{opacity:0.25;fill:#FFFFFF;enable-background:new    ;}
	.st2{fill:#FFFFFF;}
	.st3{opacity:0.9;fill:#FFFFFF;enable-background:new    ;}
	.st4{opacity:0.2;fill:#FFFFFF;enable-background:new    ;}
	.st5{opacity:0.91;fill:#FFFFFF;enable-background:new    ;}
	.st6{fill:none;stroke:#FFFFFF;stroke-miterlimit:10;}
	.st7{opacity:0.8;fill:url(#SVGID_1_);enable-background:new    ;}
	.st8{opacity:0.55;}
	.st9{opacity:0.17;}
</style>
<ellipse class="st0" cx="330.7" cy="778.3" rx="204.3" ry="59.5"/>
<ellipse class="st1" cx="328.5" cy="767.5" rx="174.7" ry="47.9"/>
<g>
	<path class="st2" d="M155.8,757.8c-0.4,0-0.7-0.2-1-0.5c-0.4-0.5-0.3-1.3,0.2-1.8c2.1-1.7,4.6-3.4,7.3-5c0.6-0.4,1.4-0.2,1.7,0.4
		c0.4,0.6,0.2,1.4-0.4,1.7c-2.6,1.6-5,3.2-7,4.8C156.4,757.7,156.1,757.8,155.8,757.8z"/>
	<path class="st2" d="M333,825.8c-0.7,0-1.2-0.6-1.2-1.2c0-0.7,0.5-1.2,1.2-1.3c6,0,12-0.2,17.8-0.4c0.7,0,1.3,0.5,1.3,1.2
		s-0.5,1.3-1.2,1.3C345.1,825.6,339,825.8,333,825.8L333,825.8z M324.1,825.8L324.1,825.8c-6,0-12-0.2-17.9-0.4
		c-0.7,0-1.2-0.6-1.2-1.3s0.6-1.2,1.3-1.2c5.9,0.2,11.9,0.3,17.8,0.4c0.7,0,1.2,0.6,1.2,1.3C325.3,825.3,324.8,825.8,324.1,825.8z
		 M359.9,825.1c-0.7,0-1.2-0.5-1.2-1.2s0.5-1.3,1.2-1.3c6-0.3,12-0.7,17.8-1.1c0.7,0,1.3,0.5,1.3,1.1c0.1,0.7-0.5,1.3-1.1,1.3
		C371.9,824.4,365.9,824.8,359.9,825.1L359.9,825.1z M297.3,825.1C297.3,825.1,297.2,825.1,297.3,825.1c-6-0.3-12.1-0.7-17.9-1.1
		c-0.7-0.1-1.2-0.7-1.1-1.3c0.1-0.7,0.7-1.2,1.3-1.1c5.9,0.5,11.9,0.8,17.8,1.1c0.7,0,1.2,0.6,1.2,1.3
		C298.5,824.5,297.9,825.1,297.3,825.1z M386.6,823.2c-0.6,0-1.2-0.5-1.2-1.1c-0.1-0.7,0.4-1.3,1.1-1.4c6-0.6,12-1.2,17.7-1.9
		c0.7-0.1,1.3,0.4,1.4,1.1c0.1,0.7-0.4,1.3-1.1,1.4c-5.8,0.7-11.8,1.4-17.8,2C386.7,823.2,386.7,823.2,386.6,823.2z M270.5,823.2
		h-0.1c-6-0.6-12-1.2-17.8-2c-0.7-0.1-1.2-0.7-1.1-1.4c0.1-0.7,0.7-1.1,1.4-1.1c5.8,0.7,11.7,1.4,17.7,2c0.7,0.1,1.2,0.7,1.1,1.4
		C271.7,822.7,271.2,823.2,270.5,823.2z M413.2,820.1c-0.6,0-1.1-0.4-1.2-1.1c-0.1-0.7,0.4-1.3,1.1-1.4c6-0.9,11.9-1.9,17.6-2.9
		c0.7-0.1,1.3,0.3,1.5,1c0.1,0.7-0.3,1.3-1,1.5c-5.7,1.1-11.6,2.1-17.7,2.9C413.4,820.1,413.3,820.1,413.2,820.1z M243.9,820
		c-0.1,0-0.1,0-0.2,0c-6.1-0.9-12-1.9-17.7-3c-0.7-0.1-1.1-0.8-1-1.5s0.8-1.1,1.5-1c5.6,1.1,11.6,2.1,17.6,2.9
		c0.7,0.1,1.1,0.7,1.1,1.4C245,819.5,244.5,820,243.9,820z M439.7,815.4c-0.6,0-1.1-0.4-1.2-1c-0.1-0.7,0.3-1.3,1-1.5
		c6.1-1.3,11.9-2.7,17.3-4.2c0.6-0.2,1.3,0.2,1.5,0.9s-0.2,1.3-0.9,1.5c-5.5,1.5-11.3,2.9-17.4,4.2
		C439.8,815.4,439.7,815.4,439.7,815.4z M217.5,815.3c-0.1,0-0.2,0-0.3,0c-6.1-1.3-12-2.7-17.4-4.3c-0.7-0.2-1.1-0.9-0.9-1.5
		c0.2-0.7,0.9-1,1.5-0.9c5.4,1.5,11.2,2.9,17.3,4.2c0.7,0.1,1.1,0.8,1,1.5C218.6,814.9,218.1,815.3,217.5,815.3z M465.6,808.6
		c-0.5,0-1-0.3-1.2-0.9c-0.2-0.7,0.2-1.4,0.8-1.6c6.1-1.9,11.7-4,16.7-6.1c0.6-0.3,1.4,0,1.6,0.7c0.3,0.6,0,1.4-0.7,1.6
		c-5,2.2-10.7,4.3-16.9,6.2C465.9,808.6,465.7,808.6,465.6,808.6z M191.5,808.5c-0.1,0-0.3,0-0.4-0.1c-6.2-2-11.8-4.1-16.9-6.2
		c-0.6-0.3-0.9-1-0.6-1.6c0.3-0.6,1-0.9,1.6-0.6c5,2.2,10.6,4.2,16.6,6.2c0.7,0.2,1,0.9,0.8,1.6
		C192.6,808.1,192.1,808.5,191.5,808.5z M490.5,798.6c-0.4,0-0.9-0.2-1.1-0.7c-0.3-0.6-0.1-1.4,0.5-1.7c6-3.2,10.9-6.5,14.3-10
		c0.5-0.5,1.3-0.5,1.8,0s0.5,1.3,0,1.8c-3.6,3.6-8.6,7.1-14.9,10.4C490.9,798.6,490.7,798.6,490.5,798.6z M166.7,798.4
		c-0.2,0-0.4,0-0.6-0.1c-6.3-3.3-11.3-6.9-14.8-10.5c-0.5-0.5-0.5-1.3,0-1.8s1.3-0.5,1.8,0c3.4,3.5,8.2,6.9,14.2,10.1
		c0.6,0.3,0.8,1.1,0.5,1.7C167.6,798.2,167.2,798.4,166.7,798.4z M510.3,781.3c-0.2,0-0.4,0-0.5-0.1c-0.6-0.3-0.9-1-0.6-1.7
		c1-2,1.4-4.1,1.4-6.2c0-3.1-1.1-6.3-3.3-9.4c-0.4-0.6-0.3-1.3,0.3-1.7c0.6-0.4,1.3-0.3,1.7,0.3c2.5,3.5,3.8,7.2,3.8,10.8
		c0,2.4-0.6,4.9-1.7,7.2C511.2,781,510.8,781.3,510.3,781.3z M147.1,780.9c-0.5,0-0.9-0.3-1.1-0.7c-1-2.2-1.5-4.5-1.5-6.8
		c0-3.8,1.4-7.6,4.1-11.2c0.4-0.6,1.2-0.7,1.7-0.3c0.6,0.4,0.7,1.2,0.3,1.7c-2.4,3.2-3.6,6.5-3.6,9.7c0,1.9,0.4,3.9,1.3,5.8
		c0.3,0.6,0,1.4-0.6,1.6C147.4,780.9,147.3,780.9,147.1,780.9z"/>
	<path class="st2" d="M502,758c-0.3,0-0.6-0.1-0.8-0.3c-2-1.6-4.4-3.3-7-4.9c-0.6-0.4-0.8-1.1-0.4-1.7c0.4-0.6,1.1-0.8,1.7-0.4
		c2.7,1.6,5.2,3.3,7.3,5.1c0.5,0.4,0.6,1.2,0.2,1.8C502.7,757.8,502.4,758,502,758z"/>
</g>
<path class="st3" d="M328.5,816.1l-0.1-1.2h0.1h1.1v1.2H328.5z M324.7,816.1h-1.2v-1.2h1.2V816.1z M333.4,816v-1.2h1.2v1.2H333.4z
	 M319.7,816h-1.2v-1.2h1.2V816z M338.4,816v-1.2h1.2v1.2H338.4z M314.7,815.9h-1.2v-1.2h1.2V815.9z M343.4,815.9v-1.2h1.2v1.2H343.4
	z M309.7,815.8h-1.2v-1.2h1.2V815.8z M348.4,815.8v-1.2h1.2v1.2H348.4z M304.7,815.6h-1.2v-1.2h1.2V815.6z M353.3,815.6v-1.2h1.2
	l0.1,1.2H353.3z M299.8,815.4l-1.2-0.1l0.1-1.2l1.2,0.1L299.8,815.4z M358.3,815.4l-0.1-1.2l1.2-0.1l0.1,1.2L358.3,815.4z
	 M294.8,815.2l-1.2-0.1l0.1-1.2l1.2,0.1L294.8,815.2z M363.3,815.1l-0.1-1.2l1.2-0.1l0.1,1.2L363.3,815.1z M289.8,814.9l-1.2-0.1
	l0.1-1.2l1.2,0.1L289.8,814.9z M368.3,814.8l-0.1-1.2l1.2-0.1l0.1,1.2L368.3,814.8z M284.8,814.6l-1.2-0.1l0.1-1.2l1.2,0.1
	L284.8,814.6z M373.3,814.5l-0.1-1.2l1.2-0.1l0.1,1.2L373.3,814.5z M279.8,814.2l-1.2-0.1l0.1-1.2l1.2,0.1L279.8,814.2z
	 M378.2,814.1l-0.1-1.2l1.2-0.1l0.1,1.2L378.2,814.1z M274.9,813.8l-1.2-0.1l0.1-1.2l1.2,0.1L274.9,813.8z M383.2,813.7l-0.1-1.2
	l1.2-0.1l0.1,1.2L383.2,813.7z M269.9,813.3l-1.2-0.1l0.1-1.2l1.2,0.1L269.9,813.3z M388.2,813.2l-0.1-1.2l1.2-0.1l0.1,1.2
	L388.2,813.2z M264.9,812.8l-1.2-0.1l0.1-1.2l1.2,0.1L264.9,812.8z M393.1,812.7l-0.1-1.2l1.2-0.1l0.1,1.2L393.1,812.7z M260,812.2
	l-1.2-0.1l0.1-1.2l1.2,0.1L260,812.2z M398.1,812.1l-0.1-1.2l1.2-0.1l0.2,1.2L398.1,812.1z M255,811.6l-1.2-0.2l0.2-1.2l1.2,0.2
	L255,811.6z M403,811.5l-0.2-1.2l1.2-0.2l0.2,1.2L403,811.5z M250.1,811l-1.2-0.2l0.2-1.2l1.2,0.2L250.1,811z M408,810.8l-0.2-1.2
	l1.2-0.2l0.2,1.2L408,810.8z M245.2,810.3l-1.2-0.2l0.2-1.2l1.2,0.2L245.2,810.3z M412.9,810.1l-0.2-1.2l1.2-0.2l0.2,1.2
	L412.9,810.1z M240.2,809.5l-1.2-0.2l0.2-1.2l1.2,0.2L240.2,809.5z M417.9,809.3l-0.2-1.2l1.2-0.2l0.2,1.2L417.9,809.3z
	 M235.3,808.7l-1.2-0.2l0.2-1.2l1.2,0.2L235.3,808.7z M422.8,808.5l-0.2-1.2l1.2-0.2l0.2,1.2L422.8,808.5z M230.4,807.8l-1.2-0.2
	l0.2-1.2l1.2,0.2L230.4,807.8z M427.7,807.6l-0.2-1.2l1.2-0.2l0.2,1.2L427.7,807.6z M225.5,806.9l-1.2-0.2l0.2-1.2l1.2,0.2
	L225.5,806.9z M432.6,806.6l-0.2-1.2l1.2-0.2l0.3,1.2L432.6,806.6z M220.6,805.8l-1.2-0.3l0.3-1.2l1.2,0.3L220.6,805.8z
	 M437.5,805.6l-0.3-1.2l1.2-0.3l0.3,1.2L437.5,805.6z M215.7,804.8l-1.2-0.3l0.3-1.2l1.2,0.3L215.7,804.8z M442.3,804.5l-0.3-1.2
	l1.2-0.3l0.3,1.2L442.3,804.5z M210.9,803.6l-1.2-0.3l0.3-1.2l1.2,0.3L210.9,803.6z M447.2,803.3l-0.3-1.2l1.2-0.3l0.3,1.2
	L447.2,803.3z M206,802.3l-1.2-0.3l0.3-1.2l1.2,0.3L206,802.3z M452,802.1l-0.3-1.2l1.2-0.3l0.3,1.2L452,802.1z M201.2,801l-1.2-0.4
	l0.4-1.2l1.2,0.4L201.2,801z M456.8,800.7l-0.4-1.2l1.2-0.4l0.4,1.2L456.8,800.7z M196.4,799.5l-1.2-0.4l0.4-1.2l1.2,0.4
	L196.4,799.5z M461.6,799.2l-0.4-1.2l1.2-0.4l0.4,1.2L461.6,799.2z M191.7,798l-1.2-0.4l0.4-1.2l1.2,0.4L191.7,798z M466.3,797.6
	l-0.4-1.2l1.2-0.4l0.4,1.2L466.3,797.6z M187,796.3l-1.2-0.4l0.4-1.2l1.2,0.4L187,796.3z M471,795.9l-0.4-1.2
	c0.4-0.1,0.8-0.3,1.2-0.4l0.5,1.2C471.8,795.6,471.4,795.7,471,795.9z M182.3,794.4l-1.2-0.5l0.5-1.1l1.1,0.5L182.3,794.4z
	 M475.7,794l-0.5-1.1c0.4-0.2,0.8-0.3,1.1-0.5l0.5,1.1C476.4,793.7,476.1,793.9,475.7,794z M177.8,792.4c-0.4-0.2-0.8-0.4-1.1-0.5
	l0.5-1.1c0.4,0.2,0.7,0.4,1.1,0.5L177.8,792.4z M480.2,792l-0.5-1.1c0.4-0.2,0.7-0.4,1.1-0.5l0.5,1.1
	C481,791.6,480.6,791.8,480.2,792z M173.3,790.2c-0.4-0.2-0.7-0.4-1.1-0.6l0.6-1.1c0.4,0.2,0.7,0.4,1.1,0.6L173.3,790.2z
	 M484.7,789.7l-0.6-1.1c0.4-0.2,0.7-0.4,1.1-0.6l0.6,1.1C485.4,789.3,485.1,789.5,484.7,789.7z M168.9,787.7
	c-0.4-0.2-0.7-0.4-1.1-0.7l0.7-1.1c0.3,0.2,0.7,0.4,1,0.6L168.9,787.7z M489,787.2l-0.7-1.1c0.4-0.2,0.7-0.4,1-0.7l0.7,1
	C489.8,786.7,489.4,786.9,489,787.2z M164.7,785c-0.3-0.3-0.7-0.5-1-0.8l0.8-1c0.3,0.2,0.7,0.5,1,0.7L164.7,785z M493.2,784.3
	l-0.8-1c0.3-0.3,0.7-0.5,1-0.8l0.8,1C493.9,783.8,493.5,784.1,493.2,784.3z M160.8,781.8c-0.3-0.3-0.6-0.6-0.9-0.9l0.9-0.9
	c0.3,0.3,0.6,0.6,0.9,0.8L160.8,781.8z M497,781l-0.9-0.9c0.3-0.3,0.6-0.6,0.9-0.9l0.9,0.9C497.6,780.4,497.3,780.7,497,781z
	 M157.3,778.1c-0.3-0.3-0.5-0.7-0.8-1l1-0.7c0.2,0.3,0.5,0.6,0.7,1L157.3,778.1z M500.4,777.2l-1-0.7c0.2-0.3,0.5-0.7,0.7-1l1.1,0.7
	C500.8,776.5,500.6,776.9,500.4,777.2z M154.6,773.8c-0.2-0.4-0.3-0.8-0.5-1.2l1.2-0.4c0.1,0.4,0.3,0.7,0.5,1.1L154.6,773.8z
	 M502.8,772.8l-1.2-0.4c0.1-0.4,0.3-0.8,0.4-1.1l1.2,0.3C503.1,771.9,503,772.3,502.8,772.8z M153.3,768.8c0-0.4-0.1-0.9-0.1-1.3
	v-0.4h1.2v0.3c0,0.4,0,0.8,0.1,1.2L153.3,768.8z M503.8,767.7h-1.2v-0.2c0-0.3,0-0.7,0-1l1.2-0.1c0,0.4,0,0.7,0,1.1V767.7z
	 M155,763.7l-1.2-0.4c0.1-0.4,0.3-0.8,0.4-1.2l1.2,0.5C155.3,763,155.2,763.3,155,763.7z M501.8,763.1c-0.1-0.4-0.3-0.7-0.4-1.1
	l1.1-0.5c0.2,0.4,0.3,0.8,0.5,1.2L501.8,763.1z M157.1,759.4l-1-0.7c0.2-0.4,0.5-0.7,0.7-1.1l1,0.7
	C157.5,758.8,157.3,759.1,157.1,759.4z M499.5,758.8c-0.2-0.3-0.5-0.7-0.7-1l1-0.8c0.3,0.3,0.5,0.7,0.8,1L499.5,758.8z M160.1,755.6
	l-0.9-0.9c0.3-0.3,0.6-0.6,0.9-0.9l0.9,0.9C160.7,755.1,160.4,755.4,160.1,755.6z M496.4,755.1c-0.3-0.3-0.6-0.6-0.9-0.8l0.8-0.9
	c0.3,0.3,0.6,0.6,0.9,0.9L496.4,755.1z M163.7,752.4l-0.8-1c0.3-0.3,0.7-0.5,1-0.8l0.7,1C164.4,751.9,164.1,752.1,163.7,752.4z
	 M492.7,751.9c-0.3-0.2-0.6-0.5-1-0.7l0.7-1c0.3,0.3,0.7,0.5,1,0.8L492.7,751.9z M167.7,749.5l-0.7-1c0.3-0.2,0.7-0.5,1.1-0.7
	l0.7,1.1C168.4,749.1,168.1,749.3,167.7,749.5z M488.7,749.1c-0.3-0.2-0.7-0.4-1-0.7l0.6-1.1c0.4,0.2,0.7,0.4,1.1,0.7L488.7,749.1z
	 M172,747l-0.6-1.1c0.4-0.2,0.7-0.4,1.1-0.6l0.6,1.1C172.7,746.6,172.3,746.8,172,747z M484.4,746.6c-0.4-0.2-0.7-0.4-1.1-0.6
	l0.6-1.1c0.4,0.2,0.7,0.4,1.1,0.6L484.4,746.6z M176.4,744.7l-0.5-1.1c0.4-0.2,0.7-0.4,1.1-0.5l0.5,1.1
	C177.1,744.3,176.7,744.5,176.4,744.7z M480,744.4c-0.4-0.2-0.7-0.4-1.1-0.5l0.5-1.1c0.4,0.2,0.8,0.4,1.1,0.5L480,744.4z
	 M180.9,742.6l-0.5-1.1c0.4-0.2,0.8-0.3,1.2-0.5l0.5,1.1C181.6,742.3,181.2,742.4,180.9,742.6z M475.5,742.3
	c-0.4-0.2-0.8-0.3-1.1-0.5l0.5-1.1c0.4,0.2,0.8,0.3,1.2,0.5L475.5,742.3z M185.4,740.7l-0.5-1.2l1.2-0.5l0.4,1.2L185.4,740.7z
	 M470.9,740.4l-1.2-0.4l0.4-1.2l1.2,0.4L470.9,740.4z M190.1,739l-0.4-1.2l1.2-0.4l0.4,1.2L190.1,739z M466.2,738.7l-1.2-0.4
	l0.4-1.2l1.2,0.4L466.2,738.7z M194.8,737.4l-0.4-1.2l1.2-0.4l0.4,1.2L194.8,737.4z M461.5,737.1l-1.2-0.4l0.4-1.2l1.2,0.4
	L461.5,737.1z M199.5,735.9l-0.4-1.2l1.2-0.4l0.4,1.2L199.5,735.9z M456.8,735.7l-1.2-0.4l0.3-1.2l1.2,0.4L456.8,735.7z
	 M204.3,734.5l-0.3-1.2l1.2-0.3l0.3,1.2L204.3,734.5z M452,734.3l-1.2-0.3l0.3-1.2l1.2,0.3L452,734.3z M209.1,733.2l-0.3-1.2
	l1.2-0.3l0.3,1.2L209.1,733.2z M447.2,733l-1.2-0.3l0.3-1.2l1.2,0.3L447.2,733z M213.9,732l-0.3-1.2l1.2-0.3l0.3,1.2L213.9,732z
	 M442.4,731.8l-1.2-0.3l0.3-1.2l1.2,0.3L442.4,731.8z M218.8,730.9l-0.3-1.2l1.2-0.3l0.3,1.2L218.8,730.9z M437.5,730.7l-1.2-0.3
	l0.3-1.2l1.2,0.3L437.5,730.7z M223.6,729.8l-0.2-1.2l1.2-0.2l0.2,1.2L223.6,729.8z M432.7,729.7l-1.2-0.2l0.2-1.2l1.2,0.2
	L432.7,729.7z M228.5,728.9l-0.2-1.2l1.2-0.2l0.2,1.2L228.5,728.9z M427.8,728.7l-1.2-0.2l0.2-1.2l1.2,0.2L427.8,728.7z M233.4,728
	l-0.2-1.2l1.2-0.2l0.2,1.2L233.4,728z M422.9,727.8l-1.2-0.2l0.2-1.2l1.2,0.2L422.9,727.8z M238.3,727.1l-0.2-1.2l1.2-0.2l0.2,1.2
	L238.3,727.1z M418,727l-1.2-0.2l0.2-1.2l1.2,0.2L418,727z M243.2,726.3l-0.2-1.2l1.2-0.2l0.2,1.2L243.2,726.3z M413.1,726.2
	l-1.2-0.2l0.2-1.2l1.2,0.2L413.1,726.2z M248.1,725.6l-0.2-1.2l1.2-0.2l0.2,1.2L248.1,725.6z M408.2,725.5l-1.2-0.2l0.2-1.2l1.2,0.2
	L408.2,725.5z M253.1,724.9l-0.2-1.2l1.2-0.2l0.2,1.2L253.1,724.9z M403.2,724.8l-1.2-0.2l0.2-1.2l1.2,0.2L403.2,724.8z M258,724.3
	l-0.2-1.2l1.2-0.1l0.1,1.2L258,724.3z M398.3,724.2l-1.2-0.1l0.1-1.2l1.2,0.1L398.3,724.2z M262.9,723.7l-0.1-1.2l1.2-0.1l0.1,1.2
	L262.9,723.7z M393.3,723.6l-1.2-0.1l0.1-1.2l1.2,0.1L393.3,723.6z M267.9,723.2l-0.1-1.2l1.2-0.1l0.1,1.2L267.9,723.2z
	 M388.4,723.1l-1.2-0.1l0.1-1.2l1.2,0.1L388.4,723.1z M272.8,722.7l-0.1-1.2l1.2-0.1l0.1,1.2L272.8,722.7z M383.4,722.7l-1.2-0.1
	l0.1-1.2l1.2,0.1L383.4,722.7z M277.8,722.3l-0.1-1.2l1.2-0.1l0.1,1.2L277.8,722.3z M378.5,722.2l-1.2-0.1l0.1-1.2l1.2,0.1
	L378.5,722.2z M282.8,721.9l-0.1-1.2l1.2-0.1l0.1,1.2L282.8,721.9z M373.5,721.8l-1.2-0.1l0.1-1.2l1.2,0.1L373.5,721.8z
	 M287.7,721.5l-0.1-1.2l1.2-0.1l0.1,1.2L287.7,721.5z M368.6,721.5l-1.2-0.1l0.1-1.2l1.2,0.1L368.6,721.5z M292.7,721.2l-0.1-1.2
	l1.2-0.1l0.1,1.2L292.7,721.2z M363.6,721.2l-1.2-0.1l0.1-1.2l1.2,0.1L363.6,721.2z M297.7,721l-0.1-1.2l1.2-0.1l0.1,1.2L297.7,721z
	 M358.6,720.9l-1.2-0.1l0.1-1.2l1.2,0.1L358.6,720.9z M302.6,720.8l-0.1-1.2h1.2v1.2H302.6z M353.6,720.7h-1.2v-1.2h1.2V720.7z
	 M307.6,720.6v-1.2h1.2v1.2H307.6z M348.7,720.5h-1.2v-1.2h1.2V720.5z M312.6,720.4v-1.2h1.2v1.2H312.6z M343.7,720.4h-1.2v-1.2h1.2
	V720.4z M317.6,720.3v-1.2h1.2v1.2H317.6z M338.7,720.3h-1.2v-1.2h1.2V720.3z M322.5,720.3v-1.2h1.2v1.2H322.5z M333.7,720.3h-1.2
	v-1.2h1.2V720.3z M327.5,720.2V719h1.2v1.2H327.5z"/>
<ellipse class="st4" cx="329.1" cy="671.4" rx="311.8" ry="103"/>
<path class="st5" d="M17.5,671.4c0,0,0,0.3,0,1s0,1.7,0.2,3c0.3,2.6,1,6.4,3.1,11.1c2,4.6,5.5,9.9,10.5,15.3
	c5.1,5.3,11.6,10.7,19.5,15.9c15.9,10.3,37.1,19.7,62.3,27.6c25.2,7.9,54.3,14.5,86.4,19.1s67.3,7.5,104.4,8.2
	c37.2,0.7,76.4-0.6,116.7-5c20.1-2.2,40.5-5.2,61-9.1c20.4-3.9,41-8.8,61.2-15.1c20.3-6.7,40.3-14.5,58.5-25.5
	c9-5.5,17.6-11.8,24.5-19.6c3.5-3.8,6.4-8.1,8.5-12.6c1-2.3,1.9-4.6,2.4-7c0.2-1.2,0.5-2.4,0.6-3.6c0.1-0.6,0.2-1.2,0.2-1.8v-0.9
	v-0.5c0-0.1,0-0.4,0-0.3c0-2.9-0.3-4.9-0.8-7.4c-0.6-2.4-1.4-4.7-2.4-7c-2.1-4.5-5-8.8-8.5-12.6c-6.9-7.7-15.5-14.1-24.5-19.6
	c-18.2-11.1-38.2-18.9-58.3-25.3c-20.2-6.4-40.7-11.2-61.2-15.2c-20.4-3.9-40.8-6.9-61-9.1c-40.3-4.4-79.6-5.7-116.7-5
	c-37.2,0.7-72.3,3.6-104.4,8.2c-32.1,4.6-61.3,11.2-86.4,19.1C88.1,605.6,66.9,615,51,625.3c-8,5.1-14.5,10.5-19.5,15.9
	S23,651.8,21,656.5c-2.1,4.6-2.8,8.5-3.1,11.1c-0.2,1.3-0.2,2.3-0.2,2.9C17.6,671.1,17.5,671.4,17.5,671.4L17.5,671.4z M17.2,671.4
	c0,0,0-0.3,0-1s0-1.7,0.2-3c0.3-2.6,1-6.5,3.1-11.2c2-4.7,5.5-10,10.6-15.4s11.6-10.8,19.6-16C66.6,614.4,87.9,605,113,597
	c25.2-8,54.4-14.6,86.5-19.5c32.2-4.9,67.3-8,104.6-9c37.2-1,76.6,0.1,117,4.2c20.2,2,40.7,4.9,61.3,8.7c20.6,3.8,41.2,8.7,61.6,15
	c20.3,6.4,40.6,14.3,59.1,25.4c9.2,5.6,18.1,12.1,25.4,20.2c3.6,4,6.8,8.6,9.1,13.5c1.1,2.5,2.1,5.1,2.7,7.7c0.6,2.7,0.9,5.4,1,8.1
	c0,2.8-0.4,5.5-1,8.2s-1.6,5.2-2.7,7.7c-2.3,4.9-5.5,9.5-9.1,13.5c-7.3,8.1-16.1,14.6-25.4,20.2c-18.6,11.1-38.8,19-59.1,25.4
	c-20.4,6.4-41,11.2-61.6,15s-41.1,6.7-61.3,8.7c-40.4,4.1-79.8,5.2-117,4.2s-72.4-4.1-104.6-9s-61.3-11.5-86.5-19.5
	s-46.4-17.4-62.3-27.8c-8-5.2-14.5-10.6-19.6-16c-5-5.4-8.5-10.7-10.6-15.4s-2.8-8.6-3.1-11.2c-0.2-1.3-0.2-2.3-0.2-3
	C17.2,671.8,17.2,671.4,17.2,671.4L17.2,671.4z"/>
<ellipse class="st1" cx="329.8" cy="625" rx="174.7" ry="47.9"/>
<g>
	<path class="st2" d="M157.1,615.3c-0.4,0-0.7-0.2-1-0.5c-0.4-0.5-0.3-1.3,0.2-1.8c2.1-1.7,4.6-3.4,7.3-5c0.6-0.4,1.4-0.2,1.7,0.4
		c0.4,0.6,0.2,1.4-0.4,1.7c-2.6,1.6-5,3.2-7,4.8C157.6,615.2,157.3,615.3,157.1,615.3z"/>
	<path class="st2" d="M334.3,683.3c-0.7,0-1.2-0.6-1.2-1.2c0-0.7,0.5-1.2,1.2-1.3c6,0,12-0.2,17.8-0.4c0.7,0,1.3,0.5,1.3,1.2
		s-0.5,1.3-1.2,1.3C346.3,683.1,340.3,683.3,334.3,683.3L334.3,683.3z M325.3,683.3L325.3,683.3c-6,0-12-0.2-17.9-0.4
		c-0.7,0-1.2-0.6-1.2-1.3s0.6-1.2,1.3-1.2c5.9,0.2,11.9,0.3,17.8,0.4c0.7,0,1.2,0.6,1.2,1.3C326.6,682.7,326,683.3,325.3,683.3z
		 M361.1,682.6c-0.7,0-1.2-0.5-1.2-1.2s0.5-1.3,1.2-1.3c6-0.3,12-0.7,17.8-1.1c0.7-0.1,1.3,0.5,1.3,1.1c0.1,0.7-0.5,1.3-1.1,1.3
		C373.2,681.9,367.2,682.3,361.1,682.6L361.1,682.6z M298.5,682.6L298.5,682.6c-6-0.3-12.1-0.7-17.9-1.1c-0.7-0.1-1.2-0.7-1.1-1.3
		c0.1-0.7,0.7-1.2,1.3-1.1c5.9,0.5,11.9,0.8,17.8,1.1c0.7,0,1.2,0.6,1.2,1.3C299.7,682,299.2,682.6,298.5,682.6z M387.9,680.7
		c-0.6,0-1.2-0.5-1.2-1.1c-0.1-0.7,0.4-1.3,1.1-1.4c6-0.6,12-1.2,17.7-1.9c0.7-0.1,1.3,0.4,1.4,1.1s-0.4,1.3-1.1,1.4
		c-5.8,0.7-11.8,1.4-17.8,2C387.9,680.7,387.9,680.7,387.9,680.7z M271.8,680.7h-0.1c-6-0.6-12-1.2-17.8-2c-0.7-0.1-1.2-0.7-1.1-1.4
		c0.1-0.7,0.7-1.1,1.4-1.1c5.8,0.7,11.7,1.4,17.7,2c0.7,0.1,1.2,0.7,1.1,1.4C273,680.2,272.4,680.7,271.8,680.7z M414.5,677.5
		c-0.6,0-1.1-0.4-1.2-1.1c-0.1-0.7,0.4-1.3,1.1-1.4c6-0.9,11.9-1.9,17.6-2.9c0.7-0.1,1.3,0.3,1.5,1c0.1,0.7-0.3,1.3-1,1.5
		c-5.7,1.1-11.6,2.1-17.7,2.9C414.6,677.5,414.6,677.5,414.5,677.5z M245.1,677.5c-0.1,0-0.1,0-0.2,0c-6.1-0.9-12-1.9-17.7-3
		c-0.7-0.1-1.1-0.8-1-1.5s0.8-1.1,1.5-1c5.6,1.1,11.6,2.1,17.6,2.9c0.7,0.1,1.1,0.7,1.1,1.4C246.3,677,245.7,677.5,245.1,677.5z
		 M440.9,672.9c-0.6,0-1.1-0.4-1.2-1c-0.1-0.7,0.3-1.3,1-1.5c6.1-1.3,11.9-2.7,17.3-4.2c0.6-0.2,1.3,0.2,1.5,0.9s-0.2,1.3-0.9,1.5
		c-5.5,1.5-11.3,2.9-17.4,4.2C441.1,672.8,441,672.9,440.9,672.9z M218.7,672.8c-0.1,0-0.2,0-0.3,0c-6.1-1.3-12-2.7-17.4-4.3
		c-0.7-0.2-1.1-0.9-0.9-1.5c0.2-0.7,0.9-1,1.5-0.9c5.4,1.5,11.2,2.9,17.3,4.2c0.7,0.1,1.1,0.8,1,1.5
		C219.8,672.4,219.3,672.8,218.7,672.8z M466.9,666.1c-0.5,0-1-0.3-1.2-0.9c-0.2-0.7,0.2-1.4,0.8-1.6c6.1-1.9,11.7-4,16.7-6.1
		c0.6-0.3,1.4,0,1.6,0.7c0.3,0.6,0,1.4-0.7,1.6c-5,2.2-10.7,4.3-16.9,6.2C467.1,666.1,467,666.1,466.9,666.1z M192.8,666
		c-0.1,0-0.3,0-0.4-0.1c-6.2-2-11.8-4.1-16.9-6.2c-0.6-0.3-0.9-1-0.6-1.6c0.3-0.6,1-0.9,1.6-0.6c5,2.2,10.6,4.2,16.6,6.2
		c0.7,0.2,1,0.9,0.8,1.6C193.8,665.6,193.3,666,192.8,666z M491.7,656.1c-0.4,0-0.9-0.2-1.1-0.7c-0.3-0.6-0.1-1.4,0.5-1.7
		c6-3.2,10.9-6.5,14.3-10c0.5-0.5,1.3-0.5,1.8,0s0.5,1.3,0,1.8c-3.6,3.6-8.6,7.1-14.9,10.4C492.1,656.1,491.9,656.1,491.7,656.1z
		 M168,655.9c-0.2,0-0.4,0-0.6-0.1c-6.3-3.3-11.3-6.9-14.8-10.5c-0.5-0.5-0.5-1.3,0-1.8s1.3-0.5,1.8,0c3.4,3.5,8.2,6.9,14.2,10.1
		c0.6,0.3,0.8,1.1,0.5,1.7C168.8,655.7,168.4,655.9,168,655.9z M511.5,638.8c-0.2,0-0.4,0-0.5-0.1c-0.6-0.3-0.9-1-0.6-1.7
		c1-2,1.4-4.1,1.4-6.2c0-3.1-1.1-6.3-3.3-9.4c-0.4-0.6-0.3-1.3,0.3-1.7s1.3-0.3,1.7,0.3c2.5,3.5,3.8,7.2,3.8,10.8
		c0,2.4-0.6,4.9-1.7,7.2C512.5,638.5,512,638.8,511.5,638.8z M148.4,638.4c-0.5,0-0.9-0.3-1.1-0.7c-1-2.2-1.5-4.5-1.5-6.8
		c0-3.8,1.4-7.6,4.1-11.2c0.4-0.6,1.2-0.7,1.7-0.3c0.6,0.4,0.7,1.2,0.3,1.7c-2.4,3.2-3.6,6.5-3.6,9.7c0,1.9,0.4,3.9,1.3,5.8
		c0.3,0.6,0,1.4-0.6,1.6C148.7,638.3,148.5,638.4,148.4,638.4z"/>
	<path class="st2" d="M503.3,615.5c-0.3,0-0.6-0.1-0.8-0.3c-2-1.6-4.4-3.3-7-4.9c-0.6-0.4-0.8-1.1-0.4-1.7s1.1-0.8,1.7-0.4
		c2.7,1.6,5.2,3.3,7.3,5.1c0.5,0.4,0.6,1.2,0.2,1.8C504,615.3,503.6,615.5,503.3,615.5z"/>
</g>
<path class="st3" d="M329.8,674.2c-0.7,0-1.3-0.6-1.3-1.2s0.5-1.2,1.2-1.2h1.2l0,0c0.7,0,1.2,0.6,1.2,1.2c0,0.7-0.6,1.2-1.2,1.2
	H329.8z M321,674.1L321,674.1h-1.3c-0.7,0-1.2-0.6-1.2-1.3s0.5-1.2,1.3-1.2h1.2c0.7,0,1.2,0.6,1.2,1.3S321.7,674.1,321,674.1z
	 M339.7,674.1c-0.7,0-1.2-0.5-1.2-1.2s0.5-1.3,1.2-1.3h1.2c0.7,0,1.3,0.5,1.3,1.2s-0.5,1.3-1.2,1.3H339.7L339.7,674.1z M311,673.9
	L311,673.9h-1.3c-0.7,0-1.2-0.6-1.2-1.3s0.6-1.2,1.2-1.2l0,0h1.2c0.7,0,1.2,0.6,1.2,1.3C312.2,673.4,311.7,673.9,311,673.9z
	 M349.6,673.9c-0.7,0-1.2-0.5-1.2-1.2s0.5-1.3,1.2-1.3h1.2l0,0c0.7,0,1.2,0.5,1.2,1.2s-0.5,1.3-1.2,1.3H349.6L349.6,673.9z
	 M301,673.5L301,673.5l-1.3-0.1c-0.7,0-1.2-0.6-1.2-1.3s0.6-1.2,1.3-1.2l1.2,0.1c0.7,0,1.2,0.6,1.2,1.3
	C302.3,673,301.7,673.5,301,673.5z M359.6,673.5c-0.7,0-1.2-0.5-1.2-1.2s0.5-1.3,1.2-1.3l1.2-0.1c0.7-0.1,1.3,0.5,1.3,1.2
	s-0.5,1.3-1.2,1.3L359.6,673.5L359.6,673.5z M291.1,673C291.1,673,291,673,291.1,673l-1.3-0.1c-0.7,0-1.2-0.6-1.2-1.3
	s0.7-1.2,1.3-1.2l1.2,0.1c0.7,0,1.2,0.6,1.2,1.3S291.7,673,291.1,673z M369.5,672.9c-0.7,0-1.2-0.5-1.2-1.2s0.5-1.3,1.2-1.3l1.2-0.1
	c0.7,0,1.3,0.5,1.3,1.2s-0.5,1.3-1.2,1.3L369.5,672.9C369.6,672.9,369.6,672.9,369.5,672.9z M281.2,672.3
	C281.1,672.3,281.1,672.3,281.2,672.3l-1.3-0.1c-0.7-0.1-1.2-0.7-1.1-1.3c0.1-0.7,0.6-1.2,1.3-1.1l1.2,0.1c0.7,0.1,1.2,0.7,1.1,1.3
	S281.8,672.3,281.2,672.3z M379.5,672.2c-0.6,0-1.2-0.5-1.2-1.1c-0.1-0.7,0.5-1.3,1.1-1.3l1.2-0.1c0.7,0,1.3,0.5,1.3,1.1
	c0.1,0.7-0.5,1.3-1.1,1.3L379.5,672.2L379.5,672.2z M271.2,671.4h-0.1l-1.2-0.1c-0.7-0.1-1.2-0.7-1.1-1.4s0.7-1.2,1.4-1.1l1.2,0.1
	c0.7,0.1,1.2,0.7,1.1,1.4C272.4,670.9,271.9,671.4,271.2,671.4z M389.4,671.3c-0.6,0-1.2-0.5-1.2-1.1c-0.1-0.7,0.4-1.3,1.1-1.4
	l1.2-0.1c0.7-0.1,1.3,0.4,1.4,1.1c0.1,0.7-0.4,1.3-1.1,1.4l-1.2,0.1C389.5,671.3,389.4,671.3,389.4,671.3z M261.3,670.4h-0.1
	l-1.2-0.1c-0.7-0.1-1.2-0.7-1.1-1.4s0.7-1.2,1.4-1.1l1.2,0.1c0.7,0.1,1.2,0.7,1.1,1.4C262.5,669.9,261.9,670.4,261.3,670.4z
	 M399.3,670.2c-0.6,0-1.2-0.5-1.2-1.1c-0.1-0.7,0.4-1.3,1.1-1.4l1.2-0.1c0.7-0.1,1.3,0.4,1.4,1.1c0.1,0.7-0.4,1.3-1.1,1.4l-1.2,0.1
	C399.4,670.2,399.3,670.2,399.3,670.2z M251.4,669.1c-0.1,0-0.1,0-0.2,0l-1.2-0.2c-0.7-0.1-1.2-0.7-1.1-1.4c0.1-0.7,0.7-1.2,1.4-1.1
	l1.2,0.2c0.7,0.1,1.2,0.7,1.1,1.4C252.6,668.7,252,669.1,251.4,669.1z M409.2,669c-0.6,0-1.1-0.4-1.2-1.1c-0.1-0.7,0.4-1.3,1.1-1.4
	l1.2-0.2c0.7-0.1,1.3,0.4,1.4,1.1c0.1,0.7-0.4,1.3-1.1,1.4l-1.2,0.2C409.3,669,409.2,669,409.2,669z M241.6,667.6
	c-0.1,0-0.1,0-0.2,0l-1.2-0.2c-0.7-0.1-1.1-0.8-1-1.4c0.1-0.7,0.7-1.1,1.4-1l1.2,0.2c0.7,0.1,1.1,0.7,1,1.4
	C242.7,667.2,242.2,667.6,241.6,667.6z M419,667.5c-0.6,0-1.1-0.4-1.2-1c-0.1-0.7,0.4-1.3,1-1.4l1.2-0.2c0.7-0.1,1.3,0.3,1.4,1
	s-0.3,1.3-1,1.4l-1.2,0.2C419.2,667.5,419.1,667.5,419,667.5z M231.8,665.9c-0.1,0-0.2,0-0.2,0l-1.2-0.2c-0.7-0.1-1.1-0.8-1-1.5
	s0.8-1.1,1.5-1l1.2,0.2c0.7,0.1,1.1,0.8,1,1.5C232.9,665.5,232.3,665.9,231.8,665.9z M428.9,665.7c-0.6,0-1.1-0.4-1.2-1
	c-0.1-0.7,0.3-1.3,1-1.5l1.2-0.2c0.7-0.1,1.3,0.3,1.5,1c0.1,0.7-0.3,1.3-1,1.5l-1.2,0.2C429,665.7,428.9,665.7,428.9,665.7z
	 M222,664c-0.1,0-0.2,0-0.3,0l-1.2-0.3c-0.7-0.1-1.1-0.8-0.9-1.5c0.1-0.7,0.8-1.1,1.5-0.9l1.2,0.3c0.7,0.1,1.1,0.8,1,1.5
	C223.1,663.6,222.6,664,222,664z M438.6,663.7c-0.6,0-1.1-0.4-1.2-1c-0.1-0.7,0.3-1.3,1-1.5l1.2-0.3c0.7-0.2,1.3,0.3,1.5,0.9
	c0.2,0.7-0.3,1.3-0.9,1.5l-1.2,0.3C438.8,663.7,438.7,663.7,438.6,663.7z M212.3,661.7c-0.1,0-0.2,0-0.3,0l-1.2-0.3
	c-0.7-0.2-1.1-0.8-0.9-1.5c0.2-0.7,0.8-1.1,1.5-0.9l1.2,0.3c0.7,0.2,1.1,0.8,0.9,1.5C213.3,661.4,212.8,661.7,212.3,661.7z
	 M448.3,661.5c-0.6,0-1.1-0.4-1.2-0.9c-0.2-0.7,0.2-1.3,0.9-1.5l1.2-0.3c0.7-0.2,1.3,0.2,1.5,0.9s-0.2,1.3-0.9,1.5l-1.2,0.3
	C448.5,661.4,448.4,661.5,448.3,661.5z M202.6,659.1c-0.1,0-0.2,0-0.3,0l-1.2-0.4c-0.7-0.2-1-0.9-0.8-1.5c0.2-0.7,0.9-1,1.5-0.8
	l1.2,0.3c0.7,0.2,1,0.9,0.8,1.5C203.7,658.8,203.2,659.1,202.6,659.1z M457.9,658.8c-0.5,0-1-0.4-1.2-0.9c-0.2-0.7,0.2-1.4,0.8-1.5
	l1.2-0.4c0.7-0.2,1.4,0.2,1.6,0.8c0.2,0.7-0.2,1.4-0.8,1.6l-1.2,0.4C458.2,658.8,458,658.8,457.9,658.8z M193.1,656.1
	c-0.1,0-0.3,0-0.4-0.1l-1.2-0.4c-0.6-0.2-1-0.9-0.8-1.6c0.2-0.6,0.9-1,1.6-0.8l1.2,0.4c0.6,0.2,1,0.9,0.8,1.6
	C194.1,655.8,193.7,656.1,193.1,656.1z M467.4,655.8c-0.5,0-1-0.3-1.2-0.8c-0.2-0.6,0.1-1.4,0.8-1.6l1.2-0.4
	c0.6-0.2,1.4,0.1,1.6,0.7c0.2,0.6-0.1,1.4-0.7,1.6l-1.2,0.4C467.7,655.7,467.6,655.8,467.4,655.8z M183.8,652.6
	c-0.2,0-0.3,0-0.5-0.1l-1.2-0.5c-0.6-0.3-0.9-1-0.7-1.6c0.3-0.6,1-0.9,1.6-0.7l1.1,0.5c0.6,0.3,0.9,1,0.7,1.6
	C184.8,652.3,184.3,652.6,183.8,652.6z M476.7,652.2c-0.5,0-0.9-0.3-1.1-0.8c-0.3-0.6,0-1.4,0.7-1.6c0.4-0.2,0.8-0.3,1.1-0.5
	c0.6-0.3,1.4,0,1.6,0.6c0.3,0.6,0,1.4-0.6,1.6c-0.4,0.2-0.8,0.3-1.2,0.5C477,652.1,476.9,652.2,476.7,652.2z M174.8,648.4
	c-0.2,0-0.4,0-0.6-0.1c-0.4-0.2-0.8-0.4-1.1-0.6c-0.6-0.3-0.8-1.1-0.5-1.7c0.3-0.6,1.1-0.8,1.7-0.5c0.4,0.2,0.7,0.4,1.1,0.6
	c0.6,0.3,0.8,1.1,0.5,1.7C175.7,648.2,175.2,648.4,174.8,648.4z M485.7,647.9c-0.4,0-0.9-0.2-1.1-0.7c-0.3-0.6-0.1-1.4,0.5-1.7
	c0.4-0.2,0.7-0.4,1.1-0.6c0.6-0.3,1.4-0.1,1.7,0.5c0.3,0.6,0.1,1.4-0.5,1.7c-0.4,0.2-0.7,0.4-1.1,0.6
	C486.1,647.8,485.9,647.9,485.7,647.9z M166.3,643.2c-0.3,0-0.5-0.1-0.7-0.2c-0.3-0.3-0.7-0.5-1-0.8c-0.5-0.4-0.7-1.2-0.2-1.7
	c0.4-0.5,1.2-0.6,1.7-0.2c0.3,0.2,0.6,0.5,1,0.7c0.6,0.4,0.7,1.2,0.3,1.7C167.1,643,166.7,643.2,166.3,643.2z M494.1,642.5
	c-0.4,0-0.7-0.2-1-0.5c-0.4-0.5-0.3-1.3,0.2-1.7c0.3-0.2,0.6-0.5,1-0.7c0.5-0.4,1.3-0.3,1.8,0.2c0.4,0.5,0.3,1.3-0.2,1.8
	c-0.3,0.3-0.7,0.5-1,0.8C494.6,642.4,494.4,642.5,494.1,642.5z M159,636.4c-0.4,0-0.7-0.2-1-0.5s-0.5-0.7-0.8-1
	c-0.4-0.6-0.3-1.3,0.3-1.7s1.3-0.3,1.7,0.3c0.2,0.3,0.5,0.6,0.7,0.9c0.4,0.5,0.3,1.3-0.2,1.7C159.6,636.4,159.3,636.4,159,636.4z
	 M501.1,635.6c-0.3,0-0.5-0.1-0.7-0.2c-0.6-0.4-0.7-1.2-0.3-1.7c0.2-0.3,0.4-0.6,0.7-1c0.4-0.6,1.1-0.7,1.7-0.4
	c0.6,0.4,0.8,1.1,0.4,1.7c-0.2,0.4-0.5,0.7-0.7,1.1C501.9,635.4,501.5,635.6,501.1,635.6z M155.2,627.5c-0.6,0-1.2-0.5-1.2-1.1
	c0-0.4-0.1-0.9-0.1-1.4v-0.2c0-0.7,0.6-1.2,1.3-1.2s1.2,0.6,1.2,1.3v0.2c0,0.4,0,0.7,0.1,1.1c0.1,0.7-0.4,1.3-1.1,1.4
	C155.2,627.5,155.2,627.5,155.2,627.5z M504.4,626.3c-0.7,0-1.2-0.5-1.2-1.2V625c0-0.3,0-0.7,0-1c-0.1-0.7,0.4-1.3,1.1-1.3
	c0.7-0.1,1.3,0.4,1.3,1.1c0,0.4,0.1,0.8,0.1,1.2C505.7,625.7,505.1,626.3,504.4,626.3z M157.7,617.9c-0.2,0-0.5-0.1-0.7-0.2
	c-0.6-0.4-0.7-1.1-0.4-1.7c0.2-0.4,0.5-0.7,0.7-1.1c0.4-0.6,1.2-0.7,1.7-0.3c0.6,0.4,0.7,1.2,0.3,1.7c-0.2,0.3-0.5,0.6-0.7,1
	C158.6,617.7,158.2,617.9,157.7,617.9z M501.3,617.2c-0.4,0-0.8-0.2-1-0.5s-0.5-0.6-0.7-0.9c-0.4-0.5-0.3-1.3,0.2-1.7
	s1.3-0.3,1.7,0.2c0.3,0.3,0.5,0.7,0.8,1.1c0.4,0.6,0.3,1.3-0.3,1.7C501.8,617.1,501.5,617.2,501.3,617.2z M164.5,610.7
	c-0.4,0-0.7-0.2-1-0.5c-0.4-0.5-0.3-1.3,0.2-1.7c0.3-0.3,0.7-0.5,1-0.8c0.5-0.4,1.3-0.3,1.7,0.2s0.3,1.3-0.2,1.7
	c-0.3,0.2-0.6,0.5-1,0.7C165.1,610.6,164.8,610.7,164.5,610.7z M494.3,610.2c-0.3,0-0.5-0.1-0.8-0.3s-0.6-0.5-1-0.7
	c-0.6-0.4-0.7-1.2-0.3-1.7c0.4-0.6,1.2-0.7,1.7-0.3c0.3,0.3,0.7,0.5,1,0.8c0.5,0.4,0.6,1.2,0.2,1.7C495,610,494.7,610.2,494.3,610.2
	z M172.8,605.2c-0.4,0-0.9-0.2-1.1-0.6c-0.3-0.6-0.1-1.4,0.5-1.7c0.4-0.2,0.7-0.4,1.1-0.6c0.6-0.3,1.4-0.1,1.7,0.5s0.1,1.4-0.5,1.7
	c-0.4,0.2-0.7,0.4-1.1,0.6C173.2,605.2,173,605.2,172.8,605.2z M485.9,604.8c-0.2,0-0.4,0-0.6-0.2c-0.4-0.2-0.7-0.4-1.1-0.6
	c-0.6-0.3-0.8-1.1-0.5-1.7c0.3-0.6,1.1-0.8,1.7-0.5c0.4,0.2,0.7,0.4,1.1,0.6c0.6,0.3,0.8,1.1,0.5,1.7
	C486.8,604.5,486.3,604.8,485.9,604.8z M181.8,600.8c-0.5,0-0.9-0.3-1.1-0.7c-0.3-0.6,0-1.4,0.6-1.6c0.4-0.2,0.8-0.3,1.2-0.5
	c0.6-0.3,1.4,0,1.6,0.7c0.3,0.6,0,1.4-0.7,1.6c-0.4,0.2-0.8,0.3-1.1,0.5C182.1,600.8,181.9,600.8,181.8,600.8z M476.9,600.5
	c-0.2,0-0.3,0-0.5-0.1c-0.4-0.2-0.8-0.3-1.1-0.5c-0.6-0.3-0.9-1-0.7-1.6s1-0.9,1.6-0.7c0.4,0.2,0.8,0.3,1.2,0.5
	c0.6,0.3,0.9,1,0.7,1.6C477.9,600.2,477.4,600.5,476.9,600.5z M191,597.2c-0.5,0-1-0.3-1.2-0.8c-0.2-0.6,0.1-1.4,0.8-1.6l1.2-0.4
	c0.7-0.2,1.4,0.1,1.6,0.8s-0.1,1.4-0.8,1.6l-1.2,0.4C191.3,597.1,191.2,597.2,191,597.2z M467.6,596.9c-0.1,0-0.3,0-0.4-0.1
	l-1.2-0.4c-0.6-0.2-1-0.9-0.8-1.6c0.2-0.7,0.9-1,1.6-0.8l1.2,0.4c0.6,0.2,1,0.9,0.8,1.6C468.6,596.5,468.2,596.9,467.6,596.9z
	 M200.5,594c-0.5,0-1-0.3-1.2-0.9c-0.2-0.7,0.2-1.4,0.8-1.6l1.2-0.4c0.7-0.2,1.4,0.2,1.5,0.8c0.2,0.7-0.2,1.4-0.8,1.5l-1.2,0.4
	C200.7,594,200.6,594,200.5,594z M458.2,593.8c-0.1,0-0.2,0-0.4-0.1l-1.2-0.4c-0.7-0.2-1-0.9-0.8-1.5c0.2-0.7,0.9-1,1.5-0.8l1.2,0.4
	c0.7,0.2,1,0.9,0.8,1.5C459.2,593.4,458.7,593.8,458.2,593.8z M210.1,591.4c-0.6,0-1.1-0.4-1.2-0.9c-0.2-0.7,0.2-1.3,0.9-1.5
	l1.2-0.3c0.7-0.2,1.3,0.2,1.5,0.9s-0.2,1.3-0.9,1.5l-1.2,0.3C210.3,591.4,210.2,591.4,210.1,591.4z M448.6,591.1c-0.1,0-0.2,0-0.3,0
	l-1.2-0.3c-0.7-0.2-1.1-0.8-0.9-1.5s0.8-1.1,1.5-0.9l1.2,0.3c0.7,0.2,1.1,0.8,0.9,1.5C449.6,590.8,449.1,591.1,448.6,591.1z
	 M219.8,589c-0.6,0-1.1-0.4-1.2-1c-0.2-0.7,0.3-1.3,0.9-1.5l1.2-0.3c0.7-0.1,1.3,0.3,1.5,1c0.1,0.7-0.3,1.3-1,1.5L220,589
	C220,589,219.9,589,219.8,589z M438.9,588.8c-0.1,0-0.2,0-0.3,0l-1.2-0.3c-0.7-0.1-1.1-0.8-1-1.5s0.8-1.1,1.5-1l1.2,0.3
	c0.7,0.1,1.1,0.8,0.9,1.5C439.9,588.4,439.4,588.8,438.9,588.8z M229.5,587c-0.6,0-1.1-0.4-1.2-1c-0.1-0.7,0.3-1.3,1-1.5l1.2-0.2
	c0.7-0.1,1.3,0.3,1.5,1c0.1,0.7-0.3,1.3-1,1.5l-1.2,0.2C229.7,587,229.6,587,229.5,587z M429.1,586.8c-0.1,0-0.2,0-0.2,0l-1.2-0.2
	c-0.7-0.1-1.1-0.8-1-1.5s0.8-1.1,1.5-1l1.2,0.2c0.7,0.1,1.1,0.8,1,1.5C430.2,586.4,429.7,586.8,429.1,586.8z M239.3,585.3
	c-0.6,0-1.1-0.4-1.2-1c-0.1-0.7,0.3-1.3,1-1.4l1.2-0.2c0.7-0.1,1.3,0.4,1.4,1c0.1,0.7-0.4,1.3-1,1.4l-1.2,0.2
	C239.5,585.3,239.4,585.3,239.3,585.3z M419.3,585.1c-0.1,0-0.1,0-0.2,0l-1.2-0.2c-0.7-0.1-1.1-0.7-1-1.4s0.7-1.1,1.4-1l1.2,0.2
	c0.7,0.1,1.1,0.8,1,1.4C420.4,584.7,419.9,585.1,419.3,585.1z M249.2,583.7c-0.6,0-1.1-0.4-1.2-1.1c-0.1-0.7,0.4-1.3,1.1-1.4
	l1.2-0.2c0.7-0.1,1.3,0.4,1.4,1.1c0.1,0.7-0.4,1.3-1.1,1.4l-1.2,0.2C249.3,583.7,249.3,583.7,249.2,583.7z M409.4,583.6
	c-0.1,0-0.1,0-0.2,0l-1.2-0.2c-0.7-0.1-1.2-0.7-1.1-1.4s0.7-1.2,1.4-1.1l1.2,0.2c0.7,0.1,1.2,0.7,1.1,1.4
	C410.6,583.2,410,583.6,409.4,583.6z M259.1,582.4c-0.6,0-1.2-0.5-1.2-1.1c-0.1-0.7,0.4-1.3,1.1-1.4l1.2-0.1
	c0.7-0.1,1.3,0.4,1.4,1.1c0.1,0.7-0.4,1.3-1.1,1.4l-1.2,0.1C259.2,582.4,259.1,582.4,259.1,582.4z M399.5,582.3c0,0-0.1,0-0.2,0
	l-1.2-0.1c-0.7-0.1-1.2-0.7-1.1-1.4s0.7-1.2,1.4-1.1l1.2,0.1c0.7,0.1,1.2,0.7,1.1,1.4C400.7,581.9,400.2,582.3,399.5,582.3z
	 M269,581.3c-0.6,0-1.2-0.5-1.2-1.1c-0.1-0.7,0.4-1.3,1.1-1.4l1.2-0.1c0.7-0.1,1.3,0.4,1.4,1.1c0.1,0.7-0.4,1.3-1.1,1.4l-1.2,0.1
	C269.1,581.3,269,581.3,269,581.3z M389.6,581.2h-0.1l-1.2-0.1c-0.7-0.1-1.2-0.7-1.1-1.4s0.7-1.2,1.4-1.1l1.2,0.1
	c0.7,0.1,1.2,0.7,1.1,1.4C390.8,580.8,390.3,581.2,389.6,581.2z M278.9,580.4c-0.6,0-1.2-0.5-1.2-1.1c-0.1-0.7,0.5-1.3,1.1-1.3
	l1.2-0.1c0.7,0,1.3,0.5,1.3,1.1c0.1,0.7-0.5,1.3-1.1,1.3L278.9,580.4C279,580.4,278.9,580.4,278.9,580.4z M379.7,580.3h-0.1
	l-1.2-0.1c-0.7-0.1-1.2-0.7-1.1-1.3c0.1-0.7,0.6-1.2,1.3-1.1l1.2,0.1c0.7,0.1,1.2,0.7,1.1,1.3C380.9,579.8,380.3,580.3,379.7,580.3z
	 M288.8,579.7c-0.7,0-1.2-0.5-1.2-1.2s0.5-1.3,1.2-1.3l1.2-0.1c0.7,0,1.3,0.5,1.3,1.2s-0.5,1.3-1.2,1.3L288.8,579.7
	C288.9,579.7,288.9,579.7,288.8,579.7z M369.8,579.6C369.7,579.6,369.7,579.6,369.8,579.6l-1.3-0.1c-0.7,0-1.2-0.6-1.2-1.3
	s0.6-1.2,1.3-1.2l1.2,0.1c0.7,0,1.2,0.6,1.2,1.3C371,579.1,370.4,579.6,369.8,579.6z M298.8,579.1c-0.7,0-1.2-0.5-1.2-1.2
	s0.5-1.3,1.2-1.3l1.2-0.1c0.7,0,1.3,0.5,1.3,1.2s-0.5,1.3-1.2,1.3L298.8,579.1L298.8,579.1z M359.8,579.1L359.8,579.1l-1.3-0.1
	c-0.7,0-1.2-0.6-1.2-1.3s0.6-1.2,1.3-1.2l1.2,0.1c0.7,0,1.2,0.6,1.2,1.3C361,578.5,360.5,579.1,359.8,579.1z M308.8,578.7
	c-0.7,0-1.2-0.5-1.2-1.2s0.5-1.3,1.2-1.3h1.2c0.6-0.1,1.3,0.5,1.3,1.2s-0.5,1.3-1.2,1.3H308.8L308.8,578.7z M349.9,578.7
	C349.8,578.7,349.8,578.7,349.9,578.7h-1.3c-0.7,0-1.2-0.6-1.2-1.3s0.6-1.2,1.2-1.2l0,0h1.2c0.7,0,1.2,0.6,1.2,1.3
	C351.1,578.1,350.5,578.7,349.9,578.7z M318.7,578.4c-0.7,0-1.2-0.5-1.2-1.2s0.5-1.3,1.2-1.3h1.2c0.7,0,1.3,0.5,1.3,1.2
	s-0.5,1.3-1.2,1.3H318.7L318.7,578.4z M339.9,578.4L339.9,578.4h-1.3c-0.7,0-1.2-0.6-1.2-1.3s0.5-1.2,1.3-1.2h1.2
	c0.7,0,1.2,0.6,1.2,1.3S340.6,578.4,339.9,578.4z M328.7,578.4c-0.7,0-1.2-0.6-1.2-1.2c0-0.7,0.6-1.2,1.2-1.2h1.2
	c0.7,0,1.2,0.6,1.2,1.2s-0.6,1.2-1.2,1.2H328.7L328.7,578.4z"/>
<g>
	<path class="st2" d="M149.4,651.8c-0.4,0-0.8-0.2-1.1-0.6c-1.7-2.9-2.5-5.9-2.5-8.9c0-0.7,0.6-1.2,1.2-1.2c0.7,0,1.2,0.6,1.2,1.2
		c0,2.6,0.7,5.1,2.2,7.7c0.3,0.6,0.1,1.4-0.5,1.7C149.8,651.7,149.6,651.8,149.4,651.8z"/>
	<path class="st2" d="M325.6,694.7L325.6,694.7c-6,0-11.9-0.2-17.7-0.4c-0.7,0-1.2-0.6-1.2-1.3s0.6-1.2,1.2-1.2l0,0
		c5.8,0.2,11.7,0.3,17.7,0.4c0.7,0,1.2,0.6,1.2,1.3C326.9,694.2,326.3,694.7,325.6,694.7z M334.5,694.7c-0.7,0-1.2-0.6-1.2-1.2
		c0-0.7,0.5-1.2,1.2-1.3c5.9,0,11.8-0.2,17.7-0.4c0.6,0,1.3,0.5,1.3,1.2s-0.5,1.3-1.2,1.3C346.3,694.5,340.4,694.7,334.5,694.7
		L334.5,694.7z M299.1,694L299.1,694c-6-0.3-12-0.7-17.8-1.1c-0.7-0.1-1.2-0.7-1.1-1.3c0.1-0.7,0.6-1.2,1.3-1.1
		c5.8,0.4,11.7,0.8,17.6,1.1c0.7,0,1.2,0.6,1.2,1.3C300.3,693.5,299.8,694,299.1,694z M361,694c-0.7,0-1.2-0.5-1.2-1.2
		s0.5-1.3,1.2-1.3c5.9-0.3,11.9-0.7,17.6-1.1c0.7,0,1.3,0.5,1.3,1.1c0.1,0.7-0.5,1.3-1.1,1.3C373,693.3,367,693.7,361,694L361,694z
		 M272.6,692.1h-0.1c-6-0.6-11.9-1.2-17.6-1.9c-0.7-0.1-1.2-0.7-1.1-1.4s0.7-1.2,1.4-1.1c5.7,0.7,11.6,1.4,17.5,1.9
		c0.7,0.1,1.2,0.7,1.1,1.4C273.8,691.7,273.3,692.1,272.6,692.1z M387.5,692.1c-0.6,0-1.2-0.5-1.2-1.1c-0.1-0.7,0.4-1.3,1.1-1.4
		c6-0.6,11.9-1.2,17.6-1.9c0.7-0.1,1.3,0.4,1.4,1.1c0.1,0.7-0.4,1.3-1.1,1.4c-5.7,0.7-11.7,1.4-17.6,1.9
		C387.6,692.1,387.5,692.1,387.5,692.1z M246.3,689.1c-0.1,0-0.1,0-0.2,0c-6-0.9-11.9-1.8-17.5-2.9c-0.7-0.1-1.1-0.8-1-1.5
		s0.8-1.1,1.5-1c5.6,1,11.4,2,17.4,2.9c0.7,0.1,1.2,0.7,1.1,1.4C247.4,688.6,246.9,689.1,246.3,689.1z M413.8,689
		c-0.6,0-1.1-0.4-1.2-1.1c-0.1-0.7,0.4-1.3,1.1-1.4c6-0.9,11.8-1.8,17.4-2.9c0.7-0.1,1.3,0.3,1.5,1c0.1,0.7-0.3,1.3-1,1.5
		c-5.6,1-11.5,2-17.5,2.9C414,689,413.9,689,413.8,689z M220.1,684.5c-0.1,0-0.2,0-0.3,0c-6-1.3-11.8-2.7-17.3-4.1
		c-0.7-0.2-1.1-0.9-0.9-1.5c0.2-0.7,0.9-1.1,1.5-0.9c5.4,1.5,11.2,2.8,17.1,4.1c0.7,0.1,1.1,0.8,1,1.5
		C221.2,684.1,220.7,684.5,220.1,684.5z M440,684.5c-0.6,0-1.1-0.4-1.2-1c-0.1-0.7,0.3-1.3,1-1.5c6-1.3,11.7-2.6,17.1-4.1
		c0.7-0.2,1.3,0.2,1.5,0.9s-0.2,1.3-0.9,1.5c-5.4,1.5-11.2,2.9-17.3,4.1C440.2,684.4,440.1,684.5,440,684.5z M194.4,677.9
		c-0.1,0-0.2,0-0.4-0.1c-6.1-1.9-11.7-3.9-16.8-6c-0.6-0.3-0.9-1-0.7-1.6c0.3-0.6,1-0.9,1.6-0.7c5,2.1,10.5,4.1,16.5,5.9
		c0.7,0.2,1,0.9,0.8,1.6C195.4,677.6,194.9,677.9,194.4,677.9z M465.7,677.9c-0.5,0-1-0.3-1.2-0.9c-0.2-0.7,0.2-1.4,0.8-1.6
		c6-1.9,11.6-3.9,16.5-5.9c0.6-0.3,1.4,0,1.6,0.7c0.3,0.6,0,1.4-0.7,1.6c-5,2.1-10.7,4.1-16.8,6
		C465.9,677.9,465.8,677.9,465.7,677.9z M169.7,668.2c-0.2,0-0.4,0-0.6-0.1c-6.2-3.1-11.2-6.5-15-9.9c-0.5-0.5-0.5-1.3-0.1-1.8
		c0.5-0.5,1.3-0.5,1.8-0.1c3.6,3.3,8.5,6.5,14.4,9.5c0.6,0.3,0.9,1.1,0.5,1.7C170.6,668,170.2,668.2,169.7,668.2z M490.4,668.2
		c-0.5,0-0.9-0.2-1.1-0.7c-0.3-0.6-0.1-1.4,0.5-1.7c6-3,10.8-6.2,14.4-9.5c0.5-0.5,1.3-0.4,1.8,0.1s0.4,1.3-0.1,1.8
		c-3.8,3.4-8.8,6.8-15,9.9C490.8,668.2,490.6,668.2,490.4,668.2z"/>
	<path class="st2" d="M510.7,651.8c-0.2,0-0.4-0.1-0.6-0.2c-0.6-0.3-0.8-1.1-0.5-1.7c1.5-2.5,2.2-5.1,2.2-7.7c0-0.7,0.6-1.2,1.2-1.2
		s1.2,0.6,1.2,1.2c0,3-0.9,6-2.5,8.9C511.6,651.5,511.2,651.8,510.7,651.8z"/>
</g>
<g>
	<path class="st2" d="M149.1,661.6c-0.4,0-0.8-0.2-1.1-0.6c-1.7-2.9-2.5-5.9-2.5-8.9c0-0.7,0.6-1.2,1.2-1.2s1.2,0.6,1.2,1.2
		c0,2.6,0.7,5.1,2.2,7.7c0.3,0.6,0.1,1.4-0.5,1.7C149.5,661.5,149.3,661.6,149.1,661.6z"/>
	<path class="st2" d="M325.3,704.5L325.3,704.5c-6,0-11.9-0.2-17.7-0.4c-0.7,0-1.2-0.6-1.2-1.3s0.6-1.2,1.2-1.2l0,0
		c5.8,0.2,11.7,0.3,17.7,0.4c0.7,0,1.2,0.6,1.2,1.3C326.6,704,326,704.5,325.3,704.5z M334.2,704.5c-0.7,0-1.2-0.6-1.2-1.2
		c0-0.7,0.5-1.2,1.2-1.3c5.9,0,11.9-0.2,17.7-0.4c0.7-0.1,1.3,0.5,1.3,1.2s-0.5,1.3-1.2,1.3C346.1,704.3,340.1,704.5,334.2,704.5
		L334.2,704.5z M298.8,703.8L298.8,703.8c-6-0.3-11.9-0.7-17.8-1.1c-0.7-0.1-1.2-0.7-1.1-1.3c0.1-0.7,0.7-1.2,1.3-1.1
		c5.8,0.4,11.7,0.8,17.6,1.1c0.7,0,1.2,0.6,1.2,1.3C300,703.3,299.5,703.8,298.8,703.8z M360.7,703.8c-0.7,0-1.2-0.5-1.2-1.2
		s0.5-1.3,1.2-1.3c5.9-0.3,11.9-0.7,17.6-1.1c0.7-0.1,1.3,0.5,1.3,1.1c0.1,0.7-0.5,1.3-1.1,1.3C372.7,703.1,366.7,703.5,360.7,703.8
		L360.7,703.8z M272.3,701.9h-0.1c-6-0.6-11.9-1.2-17.6-1.9c-0.7-0.1-1.2-0.7-1.1-1.4s0.7-1.2,1.4-1.1c5.7,0.7,11.6,1.4,17.5,1.9
		c0.7,0.1,1.2,0.7,1.1,1.4C273.5,701.5,273,701.9,272.3,701.9z M387.2,701.9c-0.6,0-1.2-0.5-1.2-1.1c-0.1-0.7,0.4-1.3,1.1-1.4
		c6-0.6,11.9-1.2,17.6-1.9c0.7-0.1,1.3,0.4,1.4,1.1c0.1,0.7-0.4,1.3-1.1,1.4c-5.7,0.7-11.7,1.4-17.6,1.9
		C387.3,701.9,387.2,701.9,387.2,701.9z M246,698.8c-0.1,0-0.1,0-0.2,0c-6-0.9-11.9-1.8-17.5-2.9c-0.7-0.1-1.1-0.8-1-1.5
		s0.8-1.1,1.5-1c5.6,1,11.4,2,17.4,2.9c0.7,0.1,1.2,0.7,1.1,1.4C247.1,698.4,246.6,698.8,246,698.8z M413.6,698.8
		c-0.6,0-1.1-0.4-1.2-1.1c-0.1-0.7,0.4-1.3,1.1-1.4c6-0.9,11.8-1.8,17.4-2.9c0.7-0.1,1.3,0.3,1.5,1c0.1,0.7-0.3,1.3-1,1.5
		c-5.6,1-11.5,2-17.5,2.9C413.7,698.8,413.6,698.8,413.6,698.8z M219.8,694.3c-0.1,0-0.2,0-0.3,0c-6-1.3-11.8-2.7-17.3-4.1
		c-0.7-0.2-1.1-0.9-0.9-1.5c0.2-0.7,0.9-1.1,1.5-0.9c5.4,1.5,11.2,2.8,17.1,4.1c0.7,0.1,1.1,0.8,1,1.5
		C220.9,693.9,220.4,694.3,219.8,694.3z M439.7,694.3c-0.6,0-1.1-0.4-1.2-1c-0.1-0.7,0.3-1.3,1-1.5c6-1.3,11.7-2.6,17.1-4.1
		c0.7-0.2,1.3,0.2,1.5,0.9s-0.2,1.3-0.9,1.5c-5.4,1.5-11.2,2.9-17.3,4.1C439.9,694.2,439.8,694.3,439.7,694.3z M194.1,687.7
		c-0.1,0-0.2,0-0.4-0.1c-6.1-1.9-11.7-3.9-16.8-6c-0.6-0.3-0.9-1-0.7-1.6c0.3-0.6,1-0.9,1.6-0.7c5,2.1,10.5,4.1,16.5,5.9
		c0.7,0.2,1,0.9,0.8,1.6C195.1,687.3,194.6,687.7,194.1,687.7z M465.4,687.7c-0.5,0-1-0.3-1.2-0.9c-0.2-0.7,0.2-1.4,0.8-1.6
		c6-1.9,11.6-3.9,16.5-5.9c0.6-0.3,1.4,0,1.6,0.7c0.3,0.6,0,1.4-0.7,1.6c-5,2.1-10.7,4.1-16.8,6
		C465.6,687.7,465.5,687.7,465.4,687.7z M169.4,678c-0.2,0-0.4,0-0.6-0.1c-6.2-3.1-11.2-6.5-15-9.9c-0.5-0.5-0.5-1.3-0.1-1.8
		c0.5-0.5,1.3-0.5,1.8-0.1c3.6,3.3,8.5,6.5,14.4,9.5c0.6,0.3,0.9,1.1,0.5,1.7C170.3,677.8,169.9,678,169.4,678z M490.1,678
		c-0.5,0-0.9-0.2-1.1-0.7c-0.3-0.6-0.1-1.4,0.5-1.7c6-3,10.8-6.2,14.4-9.5c0.5-0.5,1.3-0.4,1.8,0.1s0.4,1.3-0.1,1.8
		c-3.8,3.4-8.8,6.8-15,9.9C490.5,678,490.3,678,490.1,678z"/>
	<path class="st2" d="M510.4,661.6c-0.2,0-0.4-0.1-0.6-0.2c-0.6-0.3-0.8-1.1-0.5-1.7c1.5-2.5,2.2-5.1,2.2-7.7c0-0.7,0.6-1.2,1.2-1.2
		s1.2,0.6,1.2,1.2c0,3-0.9,6-2.5,8.9C511.3,661.3,510.9,661.6,510.4,661.6z"/>
</g>
<ellipse class="st6" cx="328.6" cy="615.4" rx="107.7" ry="29.9"/>
<linearGradient id="SVGID_1_" gradientUnits="userSpaceOnUse" x1="328.5" y1="378.3644" x2="328.5" y2="-261.9689" gradientTransform="matrix(1 0 0 1 0 268)">
	<stop  offset="0" style="stop-color:#FFFFFF"/>
	<stop  offset="0.1338" style="stop-color:#FFFFFF;stop-opacity:0.8662"/>
	<stop  offset="1" style="stop-color:#FFFFFF;stop-opacity:0"/>
</linearGradient>
<path class="st7" d="M435.6,609.9L640.6,6H16.5l204.1,607.8c0,17.9,48.3,32.5,108,32.5s108-14.5,108-32.5
	C436.5,612.6,436.1,611.2,435.6,609.9z"/>
<g>
	<g>
		<path class="st0" d="M128.8,766.3c-0.5,0-0.8-0.2-1.2-0.6c-0.5-0.6-0.4-1.6,0.2-2.2c2.5-2.1,5.4-4.2,8.5-6.2
			c0.7-0.5,1.6-0.2,2,0.5c0.5,0.7,0.2,1.7-0.5,2.1c-3,2-5.8,4-8.2,6C129.5,766.2,129.2,766.3,128.8,766.3z"/>
		<path class="st0" d="M336,850.8c-0.8,0-1.4-0.7-1.4-1.5c0-0.9,0.6-1.5,1.4-1.6c7,0,14-0.2,20.8-0.5c0.8,0,1.5,0.6,1.5,1.5
			s-0.6,1.6-1.4,1.6C350.2,850.5,343,850.8,336,850.8L336,850.8z M325.6,850.8L325.6,850.8c-7,0-14-0.2-20.9-0.5
			c-0.8,0-1.4-0.7-1.4-1.6s0.7-1.5,1.5-1.5c6.9,0.2,13.9,0.4,20.8,0.5c0.8,0,1.4,0.7,1.4,1.6C327,850.1,326.4,850.8,325.6,850.8z
			 M367.5,849.9c-0.8,0-1.4-0.6-1.4-1.5s0.6-1.6,1.4-1.6c7-0.4,14-0.9,20.8-1.4c0.8,0,1.5,0.6,1.5,1.4c0.1,0.9-0.6,1.6-1.3,1.6
			C381.5,849,374.5,849.5,367.5,849.9L367.5,849.9z M294.3,849.9C294.3,849.9,294.1,849.9,294.3,849.9c-7-0.4-14.1-0.9-20.9-1.4
			c-0.8-0.1-1.4-0.9-1.3-1.6c0.1-0.9,0.8-1.5,1.5-1.4c6.9,0.6,13.9,1,20.8,1.4c0.8,0,1.4,0.7,1.4,1.6
			C295.7,849.1,295,849.9,294.3,849.9z M398.7,847.5c-0.7,0-1.4-0.6-1.4-1.4c-0.1-0.9,0.5-1.6,1.3-1.7c7-0.7,14-1.5,20.7-2.4
			c0.8-0.1,1.5,0.5,1.6,1.4c0.1,0.9-0.5,1.6-1.3,1.7c-6.8,0.9-13.8,1.7-20.8,2.5C398.8,847.5,398.8,847.5,398.7,847.5z M262.9,847.5
			h-0.1c-7-0.7-14-1.5-20.8-2.5c-0.8-0.1-1.4-0.9-1.3-1.7c0.1-0.9,0.8-1.4,1.6-1.4c6.8,0.9,13.7,1.7,20.7,2.5
			c0.8,0.1,1.4,0.9,1.3,1.7C264.3,846.9,263.7,847.5,262.9,847.5z M429.8,843.7c-0.7,0-1.3-0.5-1.4-1.4c-0.1-0.9,0.5-1.6,1.3-1.7
			c7-1.1,13.9-2.4,20.6-3.6c0.8-0.1,1.5,0.4,1.8,1.2c0.1,0.9-0.4,1.6-1.2,1.9c-6.7,1.4-13.6,2.6-20.7,3.6
			C430,843.7,429.9,843.7,429.8,843.7z M231.8,843.5c-0.1,0-0.1,0-0.2,0c-7.1-1.1-14-2.4-20.7-3.7c-0.8-0.1-1.3-1-1.2-1.9
			c0.1-0.9,0.9-1.4,1.8-1.2c6.5,1.4,13.6,2.6,20.6,3.6c0.8,0.1,1.3,0.9,1.3,1.7C233.1,842.9,232.5,843.5,231.8,843.5z M460.8,837.8
			c-0.7,0-1.3-0.5-1.4-1.2c-0.1-0.9,0.4-1.6,1.2-1.9c7.1-1.6,13.9-3.4,20.2-5.2c0.7-0.2,1.5,0.2,1.8,1.1c0.2,0.9-0.2,1.6-1.1,1.9
			c-6.4,1.9-13.2,3.6-20.3,5.2C460.9,837.8,460.8,837.8,460.8,837.8z M201,837.7c-0.1,0-0.2,0-0.4,0c-7.1-1.6-14-3.4-20.3-5.3
			c-0.8-0.2-1.3-1.1-1.1-1.9c0.2-0.9,1.1-1.2,1.8-1.1c6.3,1.9,13.1,3.6,20.2,5.2c0.8,0.1,1.3,1,1.2,1.9
			C202.2,837.2,201.7,837.7,201,837.7z M491.1,829.4c-0.6,0-1.2-0.4-1.4-1.1c-0.2-0.9,0.2-1.7,0.9-2c7.1-2.4,13.7-5,19.5-7.6
			c0.7-0.4,1.6,0,1.9,0.9c0.4,0.7,0,1.7-0.8,2c-5.8,2.7-12.5,5.3-19.8,7.7C491.4,829.4,491.2,829.4,491.1,829.4z M170.6,829.3
			c-0.1,0-0.4,0-0.5-0.1c-7.2-2.5-13.8-5.1-19.8-7.7c-0.7-0.4-1.1-1.2-0.7-2c0.4-0.7,1.2-1.1,1.9-0.7c5.8,2.7,12.4,5.2,19.4,7.7
			c0.8,0.2,1.2,1.1,0.9,2C171.8,828.8,171.3,829.3,170.6,829.3z M520.2,817c-0.5,0-1.1-0.2-1.3-0.9c-0.4-0.7-0.1-1.7,0.6-2.1
			c7-4,12.7-8.1,16.7-12.4c0.6-0.6,1.5-0.6,2.1,0c0.6,0.6,0.6,1.6,0,2.2c-4.2,4.5-10.1,8.8-17.4,12.9C520.6,817,520.4,817,520.2,817
			z M141.6,816.7c-0.2,0-0.5,0-0.7-0.1c-7.4-4.1-13.2-8.6-17.3-13c-0.6-0.6-0.6-1.6,0-2.2c0.6-0.6,1.5-0.6,2.1,0
			c4,4.3,9.6,8.6,16.6,12.5c0.7,0.4,0.9,1.4,0.6,2.1C142.6,816.5,142.1,816.7,141.6,816.7z M543.3,795.5c-0.2,0-0.5,0-0.6-0.1
			c-0.7-0.4-1.1-1.2-0.7-2.1c1.2-2.5,1.6-5.1,1.6-7.7c0-3.9-1.3-7.8-3.9-11.7c-0.5-0.7-0.4-1.6,0.4-2.1c0.7-0.5,1.5-0.4,2,0.4
			c2.9,4.3,4.4,8.9,4.4,13.4c0,3-0.7,6.1-2,8.9C544.4,795.1,543.9,795.5,543.3,795.5z M118.6,795c-0.6,0-1.1-0.4-1.3-0.9
			c-1.2-2.7-1.8-5.6-1.8-8.4c0-4.7,1.6-9.4,4.8-13.9c0.5-0.7,1.4-0.9,2-0.4c0.7,0.5,0.8,1.5,0.4,2.1c-2.8,4-4.2,8.1-4.2,12
			c0,2.4,0.5,4.8,1.5,7.2c0.4,0.7,0,1.7-0.7,2C119,795,118.9,795,118.6,795z"/>
		<path class="st0" d="M533.6,766.5c-0.4,0-0.7-0.1-0.9-0.4c-2.3-2-5.1-4.1-8.2-6.1c-0.7-0.5-0.9-1.4-0.5-2.1c0.5-0.7,1.3-1,2-0.5
			c3.2,2,6.1,4.1,8.5,6.3c0.6,0.5,0.7,1.5,0.2,2.2C534.4,766.3,534.1,766.5,533.6,766.5z"/>
	</g>
</g>
<g>
	<path class="st2" d="M327.5,449.4c0,0,2.5,0,7.2,0.1c4.7,0.1,11.6,0.2,20.4,0.7c8.8,0.5,19.5,1.3,31.7,2.8
		c12.2,1.5,25.9,3.7,40.5,7.4c7.3,1.9,14.9,4.2,22.4,7.3c3.8,1.5,7.5,3.3,11.2,5.4c3.6,2.1,7.2,4.6,10.2,7.8
		c1.5,1.6,2.8,3.4,3.7,5.5c0.9,2.1,1.3,4.4,1,6.6c-0.3,2.3-1.2,4.4-2.5,6.3c-1.3,1.9-2.9,3.6-4.6,5.1c-3.5,3-7.5,5.4-11.6,7.5
		c-4.2,2.1-8.5,3.9-12.9,5.5c-8.9,3.2-18.2,5.6-27.7,7.6c-9.5,2-19.2,3.6-29.1,4.8c-19.7,2.4-39.8,3.5-59.9,3.5
		c-20.1,0-40.3-1.1-59.9-3.6c-9.8-1.2-19.5-2.8-29-4.8c-9.5-2-18.8-4.5-27.7-7.6c-4.4-1.6-8.8-3.4-12.9-5.5
		c-4.1-2.1-8.1-4.5-11.5-7.5c-1.7-1.5-3.3-3.2-4.5-5c-1.2-1.9-2.2-4-2.4-6.2c-0.3-2.2,0.1-4.5,1-6.5c0.9-2,2.2-3.8,3.6-5.4
		c3-3.2,6.5-5.6,10.1-7.8c3.6-2.1,7.4-3.8,11.2-5.4c7.5-3.1,15.1-5.3,22.4-7.2c14.6-3.7,28.3-5.8,40.5-7.4
		c12.2-1.5,22.8-2.3,31.6-2.7c8.8-0.5,15.7-0.6,20.4-0.7c4.7,0,7.2,0,7.2,0L327.5,449.4z M327.5,449.9c0,0-2.5,0-7.2,0.1
		c-4.7,0.1-11.6,0.2-20.4,0.7c-8.8,0.5-19.5,1.3-31.6,2.8c-12.2,1.5-25.8,3.7-40.5,7.4c-7.3,1.9-14.8,4.2-22.4,7.2
		c-3.8,1.5-7.5,3.3-11.1,5.4c-3.6,2.1-7.2,4.6-10.1,7.7c-1.4,1.6-2.7,3.4-3.6,5.4c-0.9,2-1.2,4.2-0.9,6.4c0.3,2.2,1.2,4.3,2.4,6.1
		c1.2,1.9,2.8,3.5,4.5,5c3.4,3,7.4,5.3,11.5,7.4c4.1,2.1,8.5,3.8,12.9,5.4c8.9,3.2,18.2,5.6,27.7,7.6c9.5,2,19.2,3.6,29,4.8
		c19.6,2.4,39.8,3.5,59.9,3.5c20.1,0,40.2-1.1,59.9-3.6c9.8-1.2,19.5-2.8,29-4.8c9.5-2,18.8-4.5,27.6-7.6c4.4-1.6,8.7-3.4,12.9-5.5
		c4.1-2.1,8-4.5,11.4-7.4c1.7-1.5,3.2-3.1,4.4-4.9c1.2-1.8,2.1-3.9,2.4-6c0.3-2.2-0.1-4.3-0.9-6.3c-0.8-2-2.1-3.7-3.5-5.3
		c-2.9-3.1-6.4-5.6-10-7.7c-3.6-2.1-7.4-3.8-11.1-5.4c-7.5-3.1-15-5.3-22.3-7.2c-14.6-3.7-28.3-5.8-40.4-7.3
		c-12.2-1.5-22.8-2.2-31.6-2.7c-8.8-0.5-15.7-0.6-20.4-0.7c-4.7,0-7.2,0-7.2,0L327.5,449.9z"/>
</g>
<g class="st8">
	<path class="st2" d="M327.2,378.3c0,0,2.9,0,8.3,0.1c5.4,0.1,13.3,0.3,23.4,0.8c10.1,0.5,22.3,1.4,36.2,3.1
		c13.9,1.7,29.6,4.1,46.4,8.3c8.4,2.1,17,4.7,25.7,8.2c4.3,1.7,8.7,3.7,12.9,6.1c4.2,2.4,8.3,5.2,11.8,8.8c1.7,1.8,3.2,3.9,4.3,6.3
		c1,2.3,1.5,5,1.1,7.6c-0.2,1.3-0.5,2.6-1,3.8c-0.5,1.2-1.1,2.4-1.9,3.4c-1.5,2.2-3.3,4.1-5.3,5.8c-4,3.4-8.6,6.1-13.3,8.5
		c-4.8,2.4-9.8,4.4-14.9,6.2c-10.2,3.6-20.9,6.3-31.8,8.6c-10.9,2.2-22,4-33.3,5.4c-22.5,2.7-45.6,4-68.6,3.9c-23,0-46.1-1.3-68.6-4
		c-11.3-1.4-22.4-3.2-33.3-5.4c-10.9-2.3-21.5-5-31.7-8.6c-5.1-1.8-10.1-3.8-14.8-6.2c-4.7-2.4-9.3-5.1-13.3-8.4
		c-2-1.7-3.8-3.6-5.3-5.7c-0.7-1.1-1.4-2.2-1.9-3.4c-0.5-1.2-0.9-2.4-1-3.7c-0.4-2.6,0.1-5.1,1.1-7.5c1-2.3,2.5-4.4,4.2-6.2
		c3.4-3.6,7.5-6.4,11.7-8.8c4.2-2.4,8.5-4.3,12.8-6.1c8.7-3.5,17.3-6,25.7-8.1c16.8-4.2,32.5-6.6,46.4-8.3
		c13.9-1.7,26.2-2.5,36.2-3.1c10.1-0.5,18-0.7,23.4-0.7c5.4,0,8.3-0.1,8.3-0.1L327.2,378.3z M327.2,378.8c0,0-2.9,0-8.3,0.1
		c-5.4,0.1-13.3,0.2-23.4,0.8c-10.1,0.5-22.3,1.4-36.2,3.1c-13.9,1.7-29.6,4.1-46.4,8.3c-8.4,2.1-17,4.7-25.7,8.1
		c-4.3,1.7-8.6,3.7-12.8,6.1c-4.2,2.4-8.2,5.1-11.6,8.7c-1.7,1.8-3.2,3.8-4.2,6.1c-1,2.3-1.4,4.8-1.1,7.3c0.1,1.2,0.5,2.5,1,3.6
		c0.5,1.2,1.1,2.3,1.8,3.3c1.4,2.1,3.2,4,5.2,5.7c4,3.4,8.5,6,13.2,8.4c4.7,2.4,9.7,4.3,14.8,6.1c10.2,3.6,20.8,6.3,31.7,8.5
		c10.9,2.2,22,4,33.2,5.4c22.5,2.7,45.5,4,68.6,3.9c23,0,46.1-1.3,68.6-4c11.2-1.4,22.4-3.2,33.2-5.4c10.9-2.3,21.5-5,31.7-8.6
		c5.1-1.8,10-3.8,14.8-6.1c4.7-2.4,9.3-5,13.2-8.4c2-1.7,3.7-3.5,5.2-5.6c0.7-1,1.3-2.1,1.8-3.3c0.5-1.1,0.8-2.4,1-3.6
		c0.3-2.5-0.1-5-1.1-7.2c-1-2.2-2.5-4.2-4.1-6c-3.4-3.5-7.4-6.3-11.6-8.7c-4.2-2.4-8.5-4.3-12.8-6c-8.6-3.4-17.3-6-25.6-8.1
		c-16.7-4.2-32.4-6.6-46.3-8.3c-13.9-1.7-26.1-2.5-36.2-3.1c-10.1-0.5-18-0.7-23.4-0.7c-5.4,0-8.3-0.1-8.3-0.1L327.2,378.8z"/>
</g>
<g class="st9">
	<path class="st2" d="M326.7,321.8c0,0,3.2,0,9.1,0.1c5.9,0.1,14.6,0.3,25.7,0.9c11.1,0.6,24.5,1.6,39.8,3.4
		c15.3,1.9,32.5,4.6,51,9.2c9.2,2.4,18.7,5.2,28.2,9c4.8,1.9,9.5,4.1,14.1,6.7c4.6,2.6,9.1,5.7,12.9,9.7c1.9,2,3.5,4.3,4.6,6.9
		c1.1,2.6,1.6,5.5,1.2,8.3c-0.2,1.4-0.6,2.8-1.1,4.1c-0.5,1.3-1.2,2.6-2,3.8c-1.6,2.4-3.6,4.5-5.8,6.3c-4.4,3.7-9.4,6.7-14.6,9.3
		c-5.2,2.6-10.7,4.8-16.3,6.8c-11.2,3.9-22.9,6.9-34.9,9.5c-12,2.5-24.2,4.4-36.5,5.9c-24.7,3-50,4.4-75.3,4.4
		c-25.3,0-50.6-1.4-75.3-4.5c-12.4-1.5-24.6-3.5-36.5-6c-11.9-2.5-23.6-5.5-34.8-9.5c-5.6-2-11.1-4.2-16.3-6.8
		c-5.2-2.6-10.2-5.6-14.6-9.3c-2.2-1.9-4.2-3.9-5.7-6.3c-0.8-1.2-1.5-2.4-2-3.7c-0.5-1.3-0.9-2.7-1.1-4.1c-0.4-2.8,0.1-5.6,1.2-8.2
		c1.1-2.6,2.8-4.8,4.6-6.8c3.8-4,8.2-7,12.8-9.7c4.6-2.6,9.3-4.8,14.1-6.7c9.5-3.8,19-6.6,28.2-9c18.4-4.6,35.6-7.3,50.9-9.1
		c15.3-1.8,28.7-2.8,39.8-3.4c11-0.6,19.7-0.7,25.7-0.8c5.9,0,9.1-0.1,9.1-0.1L326.7,321.8z M326.7,322.3c0,0-3.2,0-9.1,0.1
		c-5.9,0.1-14.6,0.3-25.7,0.9c-11,0.6-24.5,1.6-39.8,3.4c-15.3,1.9-32.5,4.6-50.9,9.2c-9.2,2.3-18.7,5.2-28.2,9
		c-4.7,1.9-9.5,4.1-14,6.7c-4.6,2.6-9,5.7-12.8,9.6c-1.8,2-3.5,4.2-4.5,6.7c-1.1,2.5-1.6,5.3-1.2,8.1c0.2,1.4,0.5,2.7,1.1,4
		c0.5,1.3,1.2,2.5,2,3.7c1.6,2.3,3.5,4.4,5.7,6.2c4.3,3.7,9.3,6.7,14.5,9.3c5.2,2.6,10.7,4.8,16.2,6.8c11.2,3.9,22.9,6.9,34.8,9.4
		c11.9,2.5,24.1,4.4,36.5,5.9c24.7,3,50,4.4,75.3,4.4c25.3,0,50.6-1.4,75.3-4.4c12.3-1.5,24.5-3.5,36.5-6
		c11.9-2.5,23.6-5.5,34.8-9.5c5.6-2,11-4.2,16.2-6.8c5.2-2.6,10.2-5.6,14.5-9.2c2.1-1.8,4.1-3.9,5.7-6.2c0.8-1.1,1.5-2.4,2-3.6
		c0.5-1.3,0.9-2.6,1.1-3.9c0.4-2.7-0.1-5.5-1.2-7.9c-1.1-2.5-2.7-4.7-4.5-6.7c-3.7-3.9-8.2-6.9-12.7-9.6c-4.6-2.6-9.3-4.8-14-6.7
		c-9.5-3.8-19-6.6-28.1-8.9c-18.4-4.6-35.6-7.3-50.9-9.1c-15.3-1.8-28.7-2.8-39.7-3.4c-11-0.6-19.7-0.7-25.6-0.8
		c-5.9,0-9.1-0.1-9.1-0.1L326.7,322.3z"/>
</g>
</svg>
