<?xml version="1.0" encoding="utf-8"?>
<!-- Generator: Adobe Illustrator 19.2.1, SVG Export Plug-In . SVG Version: 6.00 Build 0)  -->
<svg version="1.1" id="Capa_1" xmlns="http://www.w3.org/2000/svg" xmlns:xlink="http://www.w3.org/1999/xlink" x="0px" y="0px"
	 viewBox="0 0 658.5 857.6" style="enable-background:new 0 0 658.5 857.6;" xml:space="preserve">
<style type="text/css">
	.st0{fill:#F57C00;}
	.st1{opacity:0.25;fill:#FFFFFF;enable-background:new    ;}
	.st2{fill:#FFFFFF;}
	.st3{opacity:0.9;fill:#FFFFFF;enable-background:new    ;}
	.st4{opacity:0.2;fill:#FFFFFF;enable-background:new    ;}
	.st5{opacity:0.91;fill:#FFFFFF;enable-background:new    ;}
</style>
<g id="Rules">
</g>
<g id="_x30_1">
	<g>
		<ellipse class="st0" cx="330.4" cy="780.3" rx="204.3" ry="59.5"/>
		<ellipse class="st1" cx="328.2" cy="769.5" rx="174.7" ry="47.9"/>
		<g>
			<path class="st2" d="M155.5,759.8c-0.4,0-0.7-0.2-1-0.5c-0.4-0.5-0.3-1.3,0.2-1.8c2.1-1.7,4.6-3.4,7.3-5c0.6-0.4,1.4-0.2,1.7,0.4
				c0.4,0.6,0.2,1.4-0.4,1.7c-2.6,1.6-5,3.2-7,4.8C156.1,759.7,155.8,759.8,155.5,759.8z"/>
			<path class="st2" d="M332.7,827.8c-0.7,0-1.2-0.6-1.2-1.2c0-0.7,0.5-1.2,1.2-1.3c6,0,12-0.2,17.8-0.4c0.7,0,1.3,0.5,1.3,1.2
				s-0.5,1.3-1.2,1.3C344.8,827.6,338.7,827.8,332.7,827.8L332.7,827.8z M323.8,827.8L323.8,827.8c-6,0-12-0.2-17.9-0.4
				c-0.7,0-1.2-0.6-1.2-1.3s0.6-1.2,1.3-1.2c5.9,0.2,11.9,0.3,17.8,0.4c0.7,0,1.2,0.6,1.2,1.3C325,827.3,324.5,827.8,323.8,827.8z
				 M359.6,827.1c-0.7,0-1.2-0.5-1.2-1.2s0.5-1.3,1.2-1.3c6-0.3,12-0.7,17.8-1.1c0.7,0,1.3,0.5,1.3,1.1c0.1,0.7-0.5,1.3-1.1,1.3
				C371.6,826.4,365.6,826.8,359.6,827.1L359.6,827.1z M297,827.1C297,827.1,296.9,827.1,297,827.1c-6-0.3-12.1-0.7-17.9-1.1
				c-0.7-0.1-1.2-0.7-1.1-1.3c0.1-0.7,0.7-1.2,1.3-1.1c5.9,0.5,11.9,0.8,17.8,1.1c0.7,0,1.2,0.6,1.2,1.3
				C298.2,826.5,297.6,827.1,297,827.1z M386.3,825.2c-0.6,0-1.2-0.5-1.2-1.1c-0.1-0.7,0.4-1.3,1.1-1.4c6-0.6,12-1.2,17.7-1.9
				c0.7-0.1,1.3,0.4,1.4,1.1s-0.4,1.3-1.1,1.4c-5.8,0.7-11.8,1.4-17.8,2C386.4,825.2,386.4,825.2,386.3,825.2z M270.2,825.2h-0.1
				c-6-0.6-12-1.2-17.8-2c-0.7-0.1-1.2-0.7-1.1-1.4c0.1-0.7,0.7-1.1,1.4-1.1c5.8,0.7,11.7,1.4,17.7,2c0.7,0.1,1.2,0.7,1.1,1.4
				C271.4,824.7,270.9,825.2,270.2,825.2z M412.9,822.1c-0.6,0-1.1-0.4-1.2-1.1s0.4-1.3,1.1-1.4c6-0.9,11.9-1.9,17.6-2.9
				c0.7-0.1,1.3,0.3,1.5,1c0.1,0.7-0.3,1.3-1,1.5c-5.7,1.1-11.6,2.1-17.7,2.9C413.1,822.1,413,822.1,412.9,822.1z M243.6,822
				c-0.1,0-0.1,0-0.2,0c-6.1-0.9-12-1.9-17.7-3c-0.7-0.1-1.1-0.8-1-1.5s0.8-1.1,1.5-1c5.6,1.1,11.6,2.1,17.6,2.9
				c0.7,0.1,1.1,0.7,1.1,1.4C244.7,821.5,244.2,822,243.6,822z M439.4,817.4c-0.6,0-1.1-0.4-1.2-1c-0.1-0.7,0.3-1.3,1-1.5
				c6.1-1.3,11.9-2.7,17.3-4.2c0.6-0.2,1.3,0.2,1.5,0.9s-0.2,1.3-0.9,1.5c-5.5,1.5-11.3,2.9-17.4,4.2
				C439.5,817.4,439.4,817.4,439.4,817.4z M217.2,817.3c-0.1,0-0.2,0-0.3,0c-6.1-1.3-12-2.7-17.4-4.3c-0.7-0.2-1.1-0.9-0.9-1.5
				c0.2-0.7,0.9-1,1.5-0.9c5.4,1.5,11.2,2.9,17.3,4.2c0.7,0.1,1.1,0.8,1,1.5C218.3,816.9,217.8,817.3,217.2,817.3z M465.3,810.6
				c-0.5,0-1-0.3-1.2-0.9c-0.2-0.7,0.2-1.4,0.8-1.6c6.1-1.9,11.7-4,16.7-6.1c0.6-0.3,1.4,0,1.6,0.7c0.3,0.6,0,1.4-0.7,1.6
				c-5,2.2-10.7,4.3-16.9,6.2C465.6,810.6,465.4,810.6,465.3,810.6z M191.2,810.5c-0.1,0-0.3,0-0.4-0.1c-6.2-2-11.8-4.1-16.9-6.2
				c-0.6-0.3-0.9-1-0.6-1.6c0.3-0.6,1-0.9,1.6-0.6c5,2.2,10.6,4.2,16.6,6.2c0.7,0.2,1,0.9,0.8,1.6
				C192.3,810.1,191.8,810.5,191.2,810.5z M490.2,800.6c-0.4,0-0.9-0.2-1.1-0.7c-0.3-0.6-0.1-1.4,0.5-1.7c6-3.2,10.9-6.5,14.3-10
				c0.5-0.5,1.3-0.5,1.8,0s0.5,1.3,0,1.8c-3.6,3.6-8.6,7.1-14.9,10.4C490.6,800.6,490.4,800.6,490.2,800.6z M166.4,800.4
				c-0.2,0-0.4,0-0.6-0.1c-6.3-3.3-11.3-6.9-14.8-10.5c-0.5-0.5-0.5-1.3,0-1.8s1.3-0.5,1.8,0c3.4,3.5,8.2,6.9,14.2,10.1
				c0.6,0.3,0.8,1.1,0.5,1.7C167.3,800.2,166.9,800.4,166.4,800.4z M510,783.3c-0.2,0-0.4,0-0.5-0.1c-0.6-0.3-0.9-1-0.6-1.7
				c1-2,1.4-4.1,1.4-6.2c0-3.1-1.1-6.3-3.3-9.4c-0.4-0.6-0.3-1.3,0.3-1.7c0.6-0.4,1.3-0.3,1.7,0.3c2.5,3.5,3.8,7.2,3.8,10.8
				c0,2.4-0.6,4.9-1.7,7.2C510.9,783,510.5,783.3,510,783.3z M146.8,782.9c-0.5,0-0.9-0.3-1.1-0.7c-1-2.2-1.5-4.5-1.5-6.8
				c0-3.8,1.4-7.6,4.1-11.2c0.4-0.6,1.2-0.7,1.7-0.3c0.6,0.4,0.7,1.2,0.3,1.7c-2.4,3.2-3.6,6.5-3.6,9.7c0,1.9,0.4,3.9,1.3,5.8
				c0.3,0.6,0,1.4-0.6,1.6C147.1,782.9,147,782.9,146.8,782.9z"/>
			<path class="st2" d="M501.7,760c-0.3,0-0.6-0.1-0.8-0.3c-2-1.6-4.4-3.3-7-4.9c-0.6-0.4-0.8-1.1-0.4-1.7c0.4-0.6,1.1-0.8,1.7-0.4
				c2.7,1.6,5.2,3.3,7.3,5.1c0.5,0.4,0.6,1.2,0.2,1.8C502.4,759.8,502.1,760,501.7,760z"/>
		</g>
		<path class="st3" d="M328.2,818.1l-0.1-1.2h0.1h1.1v1.2H328.2z M324.4,818.1h-1.2v-1.2h1.2V818.1z M333.1,818v-1.2h1.2v1.2H333.1z
			 M319.4,818h-1.2v-1.2h1.2V818z M338.1,818v-1.2h1.2v1.2H338.1z M314.4,817.9h-1.2v-1.2h1.2V817.9z M343.1,817.9v-1.2h1.2v1.2
			H343.1z M309.4,817.8h-1.2v-1.2h1.2V817.8z M348.1,817.8v-1.2h1.2v1.2H348.1z M304.4,817.6h-1.2v-1.2h1.2V817.6z M353,817.6v-1.2
			h1.2l0.1,1.2H353z M299.5,817.4l-1.2-0.1l0.1-1.2l1.2,0.1L299.5,817.4z M358,817.4l-0.1-1.2l1.2-0.1l0.1,1.2L358,817.4z
			 M294.5,817.2l-1.2-0.1l0.1-1.2l1.2,0.1L294.5,817.2z M363,817.1l-0.1-1.2l1.2-0.1l0.1,1.2L363,817.1z M289.5,816.9l-1.2-0.1
			l0.1-1.2l1.2,0.1L289.5,816.9z M368,816.8l-0.1-1.2l1.2-0.1l0.1,1.2L368,816.8z M284.5,816.6l-1.2-0.1l0.1-1.2l1.2,0.1
			L284.5,816.6z M373,816.5l-0.1-1.2l1.2-0.1l0.1,1.2L373,816.5z M279.5,816.2l-1.2-0.1l0.1-1.2l1.2,0.1L279.5,816.2z M377.9,816.1
			l-0.1-1.2l1.2-0.1l0.1,1.2L377.9,816.1z M274.6,815.8l-1.2-0.1l0.1-1.2l1.2,0.1L274.6,815.8z M382.9,815.7l-0.1-1.2l1.2-0.1
			l0.1,1.2L382.9,815.7z M269.6,815.3l-1.2-0.1l0.1-1.2l1.2,0.1L269.6,815.3z M387.9,815.2l-0.1-1.2l1.2-0.1l0.1,1.2L387.9,815.2z
			 M264.6,814.8l-1.2-0.1l0.1-1.2l1.2,0.1L264.6,814.8z M392.8,814.7l-0.1-1.2l1.2-0.1l0.1,1.2L392.8,814.7z M259.7,814.2l-1.2-0.1
			l0.1-1.2l1.2,0.1L259.7,814.2z M397.8,814.1l-0.1-1.2l1.2-0.1l0.2,1.2L397.8,814.1z M254.7,813.6l-1.2-0.2l0.2-1.2l1.2,0.2
			L254.7,813.6z M402.7,813.5l-0.2-1.2l1.2-0.2l0.2,1.2L402.7,813.5z M249.8,813l-1.2-0.2l0.2-1.2l1.2,0.2L249.8,813z M407.7,812.8
			l-0.2-1.2l1.2-0.2l0.2,1.2L407.7,812.8z M244.9,812.3l-1.2-0.2l0.2-1.2l1.2,0.2L244.9,812.3z M412.6,812.1l-0.2-1.2l1.2-0.2
			l0.2,1.2L412.6,812.1z M239.9,811.5l-1.2-0.2l0.2-1.2l1.2,0.2L239.9,811.5z M417.6,811.3l-0.2-1.2l1.2-0.2l0.2,1.2L417.6,811.3z
			 M235,810.7l-1.2-0.2l0.2-1.2l1.2,0.2L235,810.7z M422.5,810.5l-0.2-1.2l1.2-0.2l0.2,1.2L422.5,810.5z M230.1,809.8l-1.2-0.2
			l0.2-1.2l1.2,0.2L230.1,809.8z M427.4,809.6l-0.2-1.2l1.2-0.2l0.2,1.2L427.4,809.6z M225.2,808.9l-1.2-0.2l0.2-1.2l1.2,0.2
			L225.2,808.9z M432.3,808.6l-0.2-1.2l1.2-0.2l0.3,1.2L432.3,808.6z M220.3,807.8l-1.2-0.3l0.3-1.2l1.2,0.3L220.3,807.8z
			 M437.2,807.6l-0.3-1.2l1.2-0.3l0.3,1.2L437.2,807.6z M215.4,806.8l-1.2-0.3l0.3-1.2l1.2,0.3L215.4,806.8z M442,806.5l-0.3-1.2
			l1.2-0.3l0.3,1.2L442,806.5z M210.6,805.6l-1.2-0.3l0.3-1.2l1.2,0.3L210.6,805.6z M446.9,805.3l-0.3-1.2l1.2-0.3l0.3,1.2
			L446.9,805.3z M205.7,804.3l-1.2-0.3l0.3-1.2l1.2,0.3L205.7,804.3z M451.7,804.1l-0.3-1.2l1.2-0.3l0.3,1.2L451.7,804.1z
			 M200.9,803l-1.2-0.4l0.4-1.2l1.2,0.4L200.9,803z M456.5,802.7l-0.4-1.2l1.2-0.4l0.4,1.2L456.5,802.7z M196.1,801.5l-1.2-0.4
			l0.4-1.2l1.2,0.4L196.1,801.5z M461.3,801.2l-0.4-1.2l1.2-0.4l0.4,1.2L461.3,801.2z M191.4,800l-1.2-0.4l0.4-1.2l1.2,0.4
			L191.4,800z M466,799.6l-0.4-1.2l1.2-0.4l0.4,1.2L466,799.6z M186.7,798.3l-1.2-0.4l0.4-1.2l1.2,0.4L186.7,798.3z M470.7,797.9
			l-0.4-1.2c0.4-0.1,0.8-0.3,1.2-0.4l0.5,1.2C471.5,797.6,471.1,797.7,470.7,797.9z M182,796.4l-1.2-0.5l0.5-1.1l1.1,0.5L182,796.4z
			 M475.4,796l-0.5-1.1c0.4-0.2,0.8-0.3,1.1-0.5l0.5,1.1C476.1,795.7,475.8,795.9,475.4,796z M177.5,794.4c-0.4-0.2-0.8-0.4-1.1-0.5
			l0.5-1.1c0.4,0.2,0.7,0.4,1.1,0.5L177.5,794.4z M479.9,794l-0.5-1.1c0.4-0.2,0.7-0.4,1.1-0.5l0.5,1.1
			C480.7,793.6,480.3,793.8,479.9,794z M173,792.2c-0.4-0.2-0.7-0.4-1.1-0.6l0.6-1.1c0.4,0.2,0.7,0.4,1.1,0.6L173,792.2z
			 M484.4,791.7l-0.6-1.1c0.4-0.2,0.7-0.4,1.1-0.6l0.6,1.1C485.1,791.3,484.8,791.5,484.4,791.7z M168.6,789.7
			c-0.4-0.2-0.7-0.4-1.1-0.7l0.7-1.1c0.3,0.2,0.7,0.4,1,0.6L168.6,789.7z M488.7,789.2l-0.7-1.1c0.4-0.2,0.7-0.4,1-0.7l0.7,1
			C489.5,788.7,489.1,788.9,488.7,789.2z M164.4,787c-0.3-0.3-0.7-0.5-1-0.8l0.8-1c0.3,0.2,0.7,0.5,1,0.7L164.4,787z M492.9,786.3
			l-0.8-1c0.3-0.3,0.7-0.5,1-0.8l0.8,1C493.6,785.8,493.2,786.1,492.9,786.3z M160.5,783.8c-0.3-0.3-0.6-0.6-0.9-0.9l0.9-0.9
			c0.3,0.3,0.6,0.6,0.9,0.8L160.5,783.8z M496.7,783l-0.9-0.9c0.3-0.3,0.6-0.6,0.9-0.9l0.9,0.9C497.3,782.4,497,782.7,496.7,783z
			 M157,780.1c-0.3-0.3-0.5-0.7-0.8-1l1-0.7c0.2,0.3,0.5,0.6,0.7,1L157,780.1z M500.1,779.2l-1-0.7c0.2-0.3,0.5-0.7,0.7-1l1.1,0.7
			C500.5,778.5,500.3,778.9,500.1,779.2z M154.3,775.8c-0.2-0.4-0.3-0.8-0.5-1.2l1.2-0.4c0.1,0.4,0.3,0.7,0.5,1.1L154.3,775.8z
			 M502.5,774.8l-1.2-0.4c0.1-0.4,0.3-0.8,0.4-1.1l1.2,0.3C502.8,773.9,502.7,774.3,502.5,774.8z M153,770.8c0-0.4-0.1-0.9-0.1-1.3
			v-0.4h1.2v0.3c0,0.4,0,0.8,0.1,1.2L153,770.8z M503.5,769.7h-1.2v-0.2c0-0.3,0-0.7,0-1l1.2-0.1c0,0.4,0,0.7,0,1.1V769.7z
			 M154.7,765.7l-1.2-0.4c0.1-0.4,0.3-0.8,0.4-1.2l1.2,0.5C155,765,154.9,765.3,154.7,765.7z M501.5,765.1c-0.1-0.4-0.3-0.7-0.4-1.1
			l1.1-0.5c0.2,0.4,0.3,0.8,0.5,1.2L501.5,765.1z M156.8,761.4l-1-0.7c0.2-0.4,0.5-0.7,0.7-1.1l1,0.7
			C157.2,760.8,157,761.1,156.8,761.4z M499.2,760.8c-0.2-0.3-0.5-0.7-0.7-1l1-0.8c0.3,0.3,0.5,0.7,0.8,1L499.2,760.8z M159.8,757.6
			l-0.9-0.9c0.3-0.3,0.6-0.6,0.9-0.9l0.9,0.9C160.4,757.1,160.1,757.4,159.8,757.6z M496.1,757.1c-0.3-0.3-0.6-0.6-0.9-0.8l0.8-0.9
			c0.3,0.3,0.6,0.6,0.9,0.9L496.1,757.1z M163.4,754.4l-0.8-1c0.3-0.3,0.7-0.5,1-0.8l0.7,1C164.1,753.9,163.8,754.1,163.4,754.4z
			 M492.4,753.9c-0.3-0.2-0.6-0.5-1-0.7l0.7-1c0.3,0.3,0.7,0.5,1,0.8L492.4,753.9z M167.4,751.5l-0.7-1c0.3-0.2,0.7-0.5,1.1-0.7
			l0.7,1.1C168.1,751.1,167.8,751.3,167.4,751.5z M488.4,751.1c-0.3-0.2-0.7-0.4-1-0.7l0.6-1.1c0.4,0.2,0.7,0.4,1.1,0.7L488.4,751.1
			z M171.7,749l-0.6-1.1c0.4-0.2,0.7-0.4,1.1-0.6l0.6,1.1C172.4,748.6,172,748.8,171.7,749z M484.1,748.6c-0.4-0.2-0.7-0.4-1.1-0.6
			l0.6-1.1c0.4,0.2,0.7,0.4,1.1,0.6L484.1,748.6z M176.1,746.7l-0.5-1.1c0.4-0.2,0.7-0.4,1.1-0.5l0.5,1.1
			C176.8,746.3,176.4,746.5,176.1,746.7z M479.7,746.4c-0.4-0.2-0.7-0.4-1.1-0.5l0.5-1.1c0.4,0.2,0.8,0.4,1.1,0.5L479.7,746.4z
			 M180.6,744.6l-0.5-1.1c0.4-0.2,0.8-0.3,1.2-0.5l0.5,1.1C181.3,744.3,180.9,744.4,180.6,744.6z M475.2,744.3
			c-0.4-0.2-0.8-0.3-1.1-0.5l0.5-1.1c0.4,0.2,0.8,0.3,1.2,0.5L475.2,744.3z M185.1,742.7l-0.5-1.2l1.2-0.5l0.4,1.2L185.1,742.7z
			 M470.6,742.4l-1.2-0.4l0.4-1.2l1.2,0.4L470.6,742.4z M189.8,741l-0.4-1.2l1.2-0.4l0.4,1.2L189.8,741z M465.9,740.7l-1.2-0.4
			l0.4-1.2l1.2,0.4L465.9,740.7z M194.5,739.4l-0.4-1.2l1.2-0.4l0.4,1.2L194.5,739.4z M461.2,739.1l-1.2-0.4l0.4-1.2l1.2,0.4
			L461.2,739.1z M199.2,737.9l-0.4-1.2l1.2-0.4l0.4,1.2L199.2,737.9z M456.5,737.7l-1.2-0.4l0.3-1.2l1.2,0.4L456.5,737.7z
			 M204,736.5l-0.3-1.2l1.2-0.3l0.3,1.2L204,736.5z M451.7,736.3l-1.2-0.3l0.3-1.2l1.2,0.3L451.7,736.3z M208.8,735.2l-0.3-1.2
			l1.2-0.3l0.3,1.2L208.8,735.2z M446.9,735l-1.2-0.3l0.3-1.2l1.2,0.3L446.9,735z M213.6,734l-0.3-1.2l1.2-0.3l0.3,1.2L213.6,734z
			 M442.1,733.8l-1.2-0.3l0.3-1.2l1.2,0.3L442.1,733.8z M218.5,732.9l-0.3-1.2l1.2-0.3l0.3,1.2L218.5,732.9z M437.2,732.7l-1.2-0.3
			l0.3-1.2l1.2,0.3L437.2,732.7z M223.3,731.8l-0.2-1.2l1.2-0.2l0.2,1.2L223.3,731.8z M432.4,731.7l-1.2-0.2l0.2-1.2l1.2,0.2
			L432.4,731.7z M228.2,730.9l-0.2-1.2l1.2-0.2l0.2,1.2L228.2,730.9z M427.5,730.7l-1.2-0.2l0.2-1.2l1.2,0.2L427.5,730.7z
			 M233.1,730l-0.2-1.2l1.2-0.2l0.2,1.2L233.1,730z M422.6,729.8l-1.2-0.2l0.2-1.2l1.2,0.2L422.6,729.8z M238,729.1l-0.2-1.2
			l1.2-0.2l0.2,1.2L238,729.1z M417.7,729l-1.2-0.2l0.2-1.2l1.2,0.2L417.7,729z M242.9,728.3l-0.2-1.2l1.2-0.2l0.2,1.2L242.9,728.3z
			 M412.8,728.2l-1.2-0.2l0.2-1.2l1.2,0.2L412.8,728.2z M247.8,727.6l-0.2-1.2l1.2-0.2l0.2,1.2L247.8,727.6z M407.9,727.5l-1.2-0.2
			l0.2-1.2l1.2,0.2L407.9,727.5z M252.8,726.9l-0.2-1.2l1.2-0.2l0.2,1.2L252.8,726.9z M402.9,726.8l-1.2-0.2l0.2-1.2l1.2,0.2
			L402.9,726.8z M257.7,726.3l-0.2-1.2l1.2-0.1l0.1,1.2L257.7,726.3z M398,726.2l-1.2-0.1l0.1-1.2l1.2,0.1L398,726.2z M262.6,725.7
			l-0.1-1.2l1.2-0.1l0.1,1.2L262.6,725.7z M393,725.6l-1.2-0.1l0.1-1.2l1.2,0.1L393,725.6z M267.6,725.2l-0.1-1.2l1.2-0.1l0.1,1.2
			L267.6,725.2z M388.1,725.1l-1.2-0.1l0.1-1.2l1.2,0.1L388.1,725.1z M272.5,724.7l-0.1-1.2l1.2-0.1l0.1,1.2L272.5,724.7z
			 M383.1,724.7l-1.2-0.1l0.1-1.2l1.2,0.1L383.1,724.7z M277.5,724.3l-0.1-1.2l1.2-0.1l0.1,1.2L277.5,724.3z M378.2,724.2l-1.2-0.1
			l0.1-1.2l1.2,0.1L378.2,724.2z M282.5,723.9l-0.1-1.2l1.2-0.1l0.1,1.2L282.5,723.9z M373.2,723.8l-1.2-0.1l0.1-1.2l1.2,0.1
			L373.2,723.8z M287.4,723.5l-0.1-1.2l1.2-0.1l0.1,1.2L287.4,723.5z M368.3,723.5l-1.2-0.1l0.1-1.2l1.2,0.1L368.3,723.5z
			 M292.4,723.2l-0.1-1.2l1.2-0.1l0.1,1.2L292.4,723.2z M363.3,723.2l-1.2-0.1l0.1-1.2l1.2,0.1L363.3,723.2z M297.4,723l-0.1-1.2
			l1.2-0.1l0.1,1.2L297.4,723z M358.3,722.9l-1.2-0.1l0.1-1.2l1.2,0.1L358.3,722.9z M302.3,722.8l-0.1-1.2h1.2v1.2H302.3z
			 M353.3,722.7h-1.2v-1.2h1.2V722.7z M307.3,722.6v-1.2h1.2v1.2H307.3z M348.4,722.5h-1.2v-1.2h1.2V722.5z M312.3,722.4v-1.2h1.2
			v1.2H312.3z M343.4,722.4h-1.2v-1.2h1.2V722.4z M317.3,722.3v-1.2h1.2v1.2H317.3z M338.4,722.3h-1.2v-1.2h1.2V722.3z M322.2,722.3
			v-1.2h1.2v1.2H322.2z M333.4,722.3h-1.2v-1.2h1.2V722.3z M327.2,722.2V721h1.2v1.2H327.2z"/>
		<g>
			<g>
				<path class="st0" d="M128.5,768.3c-0.5,0-0.8-0.2-1.2-0.6c-0.5-0.6-0.4-1.6,0.2-2.2c2.5-2.1,5.4-4.2,8.5-6.2
					c0.7-0.5,1.6-0.2,2,0.5c0.5,0.7,0.2,1.7-0.5,2.1c-3,2-5.8,4-8.2,6C129.2,768.2,128.9,768.3,128.5,768.3z"/>
				<path class="st0" d="M335.7,852.8c-0.8,0-1.4-0.7-1.4-1.5c0-0.9,0.6-1.5,1.4-1.6c7,0,14-0.2,20.8-0.5c0.8,0,1.5,0.6,1.5,1.5
					s-0.6,1.6-1.4,1.6C349.9,852.5,342.7,852.8,335.7,852.8L335.7,852.8z M325.3,852.8L325.3,852.8c-7,0-14-0.2-20.9-0.5
					c-0.8,0-1.4-0.7-1.4-1.6c0-0.9,0.7-1.5,1.5-1.5c6.9,0.2,13.9,0.4,20.8,0.5c0.8,0,1.4,0.7,1.4,1.6
					C326.7,852.1,326.1,852.8,325.3,852.8z M367.2,851.9c-0.8,0-1.4-0.6-1.4-1.5s0.6-1.6,1.4-1.6c7-0.4,14-0.9,20.8-1.4
					c0.8,0,1.5,0.6,1.5,1.4c0.1,0.9-0.6,1.6-1.3,1.6C381.2,851,374.2,851.5,367.2,851.9L367.2,851.9z M294,851.9
					C294,851.9,293.8,851.9,294,851.9c-7-0.4-14.1-0.9-20.9-1.4c-0.8-0.1-1.4-0.9-1.3-1.6c0.1-0.9,0.8-1.5,1.5-1.4
					c6.9,0.6,13.9,1,20.8,1.4c0.8,0,1.4,0.7,1.4,1.6C295.4,851.1,294.7,851.9,294,851.9z M398.4,849.5c-0.7,0-1.4-0.6-1.4-1.4
					c-0.1-0.9,0.5-1.6,1.3-1.7c7-0.7,14-1.5,20.7-2.4c0.8-0.1,1.5,0.5,1.6,1.4s-0.5,1.6-1.3,1.7c-6.8,0.9-13.8,1.7-20.8,2.5
					C398.5,849.5,398.5,849.5,398.4,849.5z M262.6,849.5h-0.1c-7-0.7-14-1.5-20.8-2.5c-0.8-0.1-1.4-0.9-1.3-1.7
					c0.1-0.9,0.8-1.4,1.6-1.4c6.8,0.9,13.7,1.7,20.7,2.5c0.8,0.1,1.4,0.9,1.3,1.7C264,848.9,263.4,849.5,262.6,849.5z M429.5,845.7
					c-0.7,0-1.3-0.5-1.4-1.4s0.5-1.6,1.3-1.7c7-1.1,13.9-2.4,20.6-3.6c0.8-0.1,1.5,0.4,1.8,1.2c0.1,0.9-0.4,1.6-1.2,1.9
					c-6.7,1.4-13.6,2.6-20.7,3.6C429.7,845.7,429.6,845.7,429.5,845.7z M231.5,845.5c-0.1,0-0.1,0-0.2,0c-7.1-1.1-14-2.4-20.7-3.7
					c-0.8-0.1-1.3-1-1.2-1.9s0.9-1.4,1.8-1.2c6.5,1.4,13.6,2.6,20.6,3.6c0.8,0.1,1.3,0.9,1.3,1.7
					C232.8,844.9,232.2,845.5,231.5,845.5z M460.5,839.8c-0.7,0-1.3-0.5-1.4-1.2c-0.1-0.9,0.4-1.6,1.2-1.9
					c7.1-1.6,13.9-3.4,20.2-5.2c0.7-0.2,1.5,0.2,1.8,1.1c0.2,0.9-0.2,1.6-1.1,1.9c-6.4,1.9-13.2,3.6-20.3,5.2
					C460.6,839.8,460.5,839.8,460.5,839.8z M200.7,839.7c-0.1,0-0.2,0-0.4,0c-7.1-1.6-14-3.4-20.3-5.3c-0.8-0.2-1.3-1.1-1.1-1.9
					c0.2-0.9,1.1-1.2,1.8-1.1c6.3,1.9,13.1,3.6,20.2,5.2c0.8,0.1,1.3,1,1.2,1.9C201.9,839.2,201.4,839.7,200.7,839.7z M490.8,831.4
					c-0.6,0-1.2-0.4-1.4-1.1c-0.2-0.9,0.2-1.7,0.9-2c7.1-2.4,13.7-5,19.5-7.6c0.7-0.4,1.6,0,1.9,0.9c0.4,0.7,0,1.7-0.8,2
					c-5.8,2.7-12.5,5.3-19.8,7.7C491.1,831.4,490.9,831.4,490.8,831.4z M170.3,831.3c-0.1,0-0.4,0-0.5-0.1
					c-7.2-2.5-13.8-5.1-19.8-7.7c-0.7-0.4-1.1-1.2-0.7-2c0.4-0.7,1.2-1.1,1.9-0.7c5.8,2.7,12.4,5.2,19.4,7.7c0.8,0.2,1.2,1.1,0.9,2
					C171.5,830.8,171,831.3,170.3,831.3z M519.9,819c-0.5,0-1.1-0.2-1.3-0.9c-0.4-0.7-0.1-1.7,0.6-2.1c7-4,12.7-8.1,16.7-12.4
					c0.6-0.6,1.5-0.6,2.1,0s0.6,1.6,0,2.2c-4.2,4.5-10.1,8.8-17.4,12.9C520.3,819,520.1,819,519.9,819z M141.3,818.7
					c-0.2,0-0.5,0-0.7-0.1c-7.4-4.1-13.2-8.6-17.3-13c-0.6-0.6-0.6-1.6,0-2.2c0.6-0.6,1.5-0.6,2.1,0c4,4.3,9.6,8.6,16.6,12.5
					c0.7,0.4,0.9,1.4,0.6,2.1C142.3,818.5,141.8,818.7,141.3,818.7z M543,797.5c-0.2,0-0.5,0-0.6-0.1c-0.7-0.4-1.1-1.2-0.7-2.1
					c1.2-2.5,1.6-5.1,1.6-7.7c0-3.9-1.3-7.8-3.9-11.7c-0.5-0.7-0.4-1.6,0.4-2.1c0.7-0.5,1.5-0.4,2,0.4c2.9,4.3,4.4,8.9,4.4,13.4
					c0,3-0.7,6.1-2,8.9C544.1,797.1,543.6,797.5,543,797.5z M118.3,797c-0.6,0-1.1-0.4-1.3-0.9c-1.2-2.7-1.8-5.6-1.8-8.4
					c0-4.7,1.6-9.4,4.8-13.9c0.5-0.7,1.4-0.9,2-0.4c0.7,0.5,0.8,1.5,0.4,2.1c-2.8,4-4.2,8.1-4.2,12c0,2.4,0.5,4.8,1.5,7.2
					c0.4,0.7,0,1.7-0.7,2C118.7,797,118.6,797,118.3,797z"/>
				<path class="st0" d="M533.3,768.5c-0.4,0-0.7-0.1-0.9-0.4c-2.3-2-5.1-4.1-8.2-6.1c-0.7-0.5-0.9-1.4-0.5-2.1c0.5-0.7,1.3-1,2-0.5
					c3.2,2,6.1,4.1,8.5,6.3c0.6,0.5,0.7,1.5,0.2,2.2C534.1,768.3,533.8,768.5,533.3,768.5z"/>
			</g>
		</g>
	</g>
</g>
<g id="_x30_2">
	<g>
		<ellipse class="st4" cx="330.1" cy="670.2" rx="311.8" ry="103"/>
		<path class="st5" d="M18.5,670.2c0,0,0,0.3,0,1s0,1.7,0.2,3c0.3,2.6,1,6.4,3.1,11.1c2,4.6,5.5,9.9,10.5,15.3
			c5.1,5.3,11.6,10.7,19.5,15.9c15.9,10.3,37.1,19.7,62.3,27.6c25.2,7.9,54.3,14.5,86.4,19.1s67.3,7.5,104.4,8.2
			c37.2,0.7,76.4-0.6,116.7-5c20.1-2.2,40.5-5.2,61-9.1c20.4-3.9,41-8.8,61.2-15.1c20.3-6.7,40.3-14.5,58.5-25.5
			c9-5.5,17.6-11.8,24.5-19.6c3.5-3.8,6.4-8.1,8.5-12.6c1-2.3,1.9-4.6,2.4-7c0.2-1.2,0.5-2.4,0.6-3.6c0.1-0.6,0.2-1.2,0.2-1.8v-0.9
			v-0.5c0-0.1,0-0.4,0-0.3c0-2.9-0.3-4.9-0.8-7.4c-0.6-2.4-1.4-4.7-2.4-7c-2.1-4.5-5-8.8-8.5-12.6c-6.9-7.7-15.5-14.1-24.5-19.6
			c-18.2-11.1-38.2-18.9-58.3-25.3c-20.2-6.4-40.7-11.2-61.2-15.2c-20.4-3.9-40.8-6.9-61-9.1c-40.3-4.4-79.6-5.7-116.7-5
			c-37.2,0.7-72.3,3.6-104.4,8.2c-32.1,4.6-61.3,11.2-86.4,19.1c-25.2,7.9-46.4,17.3-62.3,27.6c-8,5.1-14.5,10.5-19.5,15.9
			S24,650.6,22,655.3c-2.1,4.6-2.8,8.5-3.1,11.1c-0.2,1.3-0.2,2.3-0.2,2.9C18.6,669.9,18.5,670.2,18.5,670.2L18.5,670.2z
			 M18.2,670.2c0,0,0-0.3,0-1s0-1.7,0.2-3c0.3-2.6,1-6.5,3.1-11.2c2-4.7,5.5-10,10.6-15.4s11.6-10.8,19.6-16
			c15.9-10.4,37.2-19.8,62.3-27.8c25.2-8,54.4-14.6,86.5-19.5c32.2-4.9,67.3-8,104.6-9c37.2-1,76.6,0.1,117,4.2
			c20.2,2,40.7,4.9,61.3,8.7c20.6,3.8,41.2,8.7,61.6,15c20.3,6.4,40.6,14.3,59.1,25.4c9.2,5.6,18.1,12.1,25.4,20.2
			c3.6,4,6.8,8.6,9.1,13.5c1.1,2.5,2.1,5.1,2.7,7.7c0.6,2.7,0.9,5.4,1,8.1c0,2.8-0.4,5.5-1,8.2s-1.6,5.2-2.7,7.7
			c-2.3,4.9-5.5,9.5-9.1,13.5c-7.3,8.1-16.1,14.6-25.4,20.2c-18.6,11.1-38.8,19-59.1,25.4c-20.4,6.4-41,11.2-61.6,15
			s-41.1,6.7-61.3,8.7c-40.4,4.1-79.8,5.2-117,4.2s-72.4-4.1-104.6-9s-61.3-11.5-86.5-19.5s-46.4-17.4-62.3-27.8
			c-8-5.2-14.5-10.6-19.6-16c-5-5.4-8.5-10.7-10.6-15.4s-2.8-8.6-3.1-11.2c-0.2-1.3-0.2-2.3-0.2-3C18.2,670.6,18.2,670.2,18.2,670.2
			L18.2,670.2z"/>
	</g>
</g>
<g id="_x30_3">
	<g>
		<ellipse class="st1" cx="329.6" cy="644.8" rx="174.7" ry="47.9"/>
		<path class="st3" d="M329.6,694c-0.7,0-1.3-0.6-1.3-1.2s0.5-1.2,1.2-1.2h1.2l0,0c0.7,0,1.2,0.6,1.2,1.2c0,0.7-0.6,1.2-1.2,1.2
			H329.6z M320.8,693.9L320.8,693.9h-1.3c-0.7,0-1.2-0.6-1.2-1.3s0.5-1.2,1.3-1.2h1.2c0.7,0,1.2,0.6,1.2,1.3
			S321.5,693.9,320.8,693.9z M339.5,693.9c-0.7,0-1.2-0.5-1.2-1.2s0.5-1.3,1.2-1.3h1.2c0.7,0,1.3,0.5,1.3,1.2s-0.5,1.3-1.2,1.3
			H339.5L339.5,693.9z M310.8,693.7L310.8,693.7h-1.3c-0.7,0-1.2-0.6-1.2-1.3s0.6-1.2,1.2-1.2l0,0h1.2c0.7,0,1.2,0.6,1.2,1.3
			C312,693.2,311.5,693.7,310.8,693.7z M349.4,693.7c-0.7,0-1.2-0.5-1.2-1.2s0.5-1.3,1.2-1.3h1.2l0,0c0.7,0,1.2,0.5,1.2,1.2
			s-0.5,1.3-1.2,1.3H349.4L349.4,693.7z M300.8,693.3L300.8,693.3l-1.3-0.1c-0.7,0-1.2-0.6-1.2-1.3s0.6-1.2,1.3-1.2l1.2,0.1
			c0.7,0,1.2,0.6,1.2,1.3C302.1,692.8,301.5,693.3,300.8,693.3z M359.4,693.3c-0.7,0-1.2-0.5-1.2-1.2s0.5-1.3,1.2-1.3l1.2-0.1
			c0.7-0.1,1.3,0.5,1.3,1.2s-0.5,1.3-1.2,1.3L359.4,693.3L359.4,693.3z M290.9,692.8C290.9,692.8,290.8,692.8,290.9,692.8l-1.3-0.1
			c-0.7,0-1.2-0.6-1.2-1.3s0.7-1.2,1.3-1.2l1.2,0.1c0.7,0,1.2,0.6,1.2,1.3S291.5,692.8,290.9,692.8z M369.3,692.7
			c-0.7,0-1.2-0.5-1.2-1.2s0.5-1.3,1.2-1.3l1.2-0.1c0.7,0,1.3,0.5,1.3,1.2s-0.5,1.3-1.2,1.3L369.3,692.7
			C369.4,692.7,369.4,692.7,369.3,692.7z M281,692.1C280.9,692.1,280.9,692.1,281,692.1l-1.3-0.1c-0.7-0.1-1.2-0.7-1.1-1.3
			c0.1-0.7,0.6-1.2,1.3-1.1l1.2,0.1c0.7,0.1,1.2,0.7,1.1,1.3S281.6,692.1,281,692.1z M379.3,692c-0.6,0-1.2-0.5-1.2-1.1
			c-0.1-0.7,0.5-1.3,1.1-1.3l1.2-0.1c0.7,0,1.3,0.5,1.3,1.1c0.1,0.7-0.5,1.3-1.1,1.3L379.3,692L379.3,692z M271,691.2h-0.1l-1.2-0.1
			c-0.7-0.1-1.2-0.7-1.1-1.4s0.7-1.2,1.4-1.1l1.2,0.1c0.7,0.1,1.2,0.7,1.1,1.4C272.2,690.7,271.7,691.2,271,691.2z M389.2,691.1
			c-0.6,0-1.2-0.5-1.2-1.1c-0.1-0.7,0.4-1.3,1.1-1.4l1.2-0.1c0.7-0.1,1.3,0.4,1.4,1.1c0.1,0.7-0.4,1.3-1.1,1.4l-1.2,0.1
			C389.3,691.1,389.2,691.1,389.2,691.1z M261.1,690.2H261l-1.2-0.1c-0.7-0.1-1.2-0.7-1.1-1.4s0.7-1.2,1.4-1.1l1.2,0.1
			c0.7,0.1,1.2,0.7,1.1,1.4C262.3,689.7,261.7,690.2,261.1,690.2z M399.1,690c-0.6,0-1.2-0.5-1.2-1.1c-0.1-0.7,0.4-1.3,1.1-1.4
			l1.2-0.1c0.7-0.1,1.3,0.4,1.4,1.1c0.1,0.7-0.4,1.3-1.1,1.4l-1.2,0.1C399.2,690,399.1,690,399.1,690z M251.2,688.9
			c-0.1,0-0.1,0-0.2,0l-1.2-0.2c-0.7-0.1-1.2-0.7-1.1-1.4c0.1-0.7,0.7-1.2,1.4-1.1l1.2,0.2c0.7,0.1,1.2,0.7,1.1,1.4
			C252.4,688.5,251.8,688.9,251.2,688.9z M409,688.8c-0.6,0-1.1-0.4-1.2-1.1c-0.1-0.7,0.4-1.3,1.1-1.4l1.2-0.2
			c0.7-0.1,1.3,0.4,1.4,1.1c0.1,0.7-0.4,1.3-1.1,1.4l-1.2,0.2C409.1,688.8,409,688.8,409,688.8z M241.4,687.4c-0.1,0-0.1,0-0.2,0
			l-1.2-0.2c-0.7-0.1-1.1-0.8-1-1.4c0.1-0.7,0.7-1.1,1.4-1l1.2,0.2c0.7,0.1,1.1,0.7,1,1.4C242.5,687,242,687.4,241.4,687.4z
			 M418.8,687.3c-0.6,0-1.1-0.4-1.2-1c-0.1-0.7,0.4-1.3,1-1.4l1.2-0.2c0.7-0.1,1.3,0.3,1.4,1s-0.3,1.3-1,1.4l-1.2,0.2
			C419,687.3,418.9,687.3,418.8,687.3z M231.6,685.7c-0.1,0-0.2,0-0.2,0l-1.2-0.2c-0.7-0.1-1.1-0.8-1-1.5s0.8-1.1,1.5-1l1.2,0.2
			c0.7,0.1,1.1,0.8,1,1.5C232.7,685.3,232.1,685.7,231.6,685.7z M428.7,685.5c-0.6,0-1.1-0.4-1.2-1c-0.1-0.7,0.3-1.3,1-1.5l1.2-0.2
			c0.7-0.1,1.3,0.3,1.5,1c0.1,0.7-0.3,1.3-1,1.5l-1.2,0.2C428.8,685.5,428.7,685.5,428.7,685.5z M221.8,683.8c-0.1,0-0.2,0-0.3,0
			l-1.2-0.3c-0.7-0.1-1.1-0.8-0.9-1.5c0.1-0.7,0.8-1.1,1.5-0.9l1.2,0.3c0.7,0.1,1.1,0.8,1,1.5C222.9,683.4,222.4,683.8,221.8,683.8z
			 M438.4,683.5c-0.6,0-1.1-0.4-1.2-1c-0.1-0.7,0.3-1.3,1-1.5l1.2-0.3c0.7-0.2,1.3,0.3,1.5,0.9c0.2,0.7-0.3,1.3-0.9,1.5l-1.2,0.3
			C438.6,683.5,438.5,683.5,438.4,683.5z M212.1,681.5c-0.1,0-0.2,0-0.3,0l-1.2-0.3c-0.7-0.2-1.1-0.8-0.9-1.5
			c0.2-0.7,0.8-1.1,1.5-0.9l1.2,0.3c0.7,0.2,1.1,0.8,0.9,1.5C213.1,681.2,212.6,681.5,212.1,681.5z M448.1,681.3
			c-0.6,0-1.1-0.4-1.2-0.9c-0.2-0.7,0.2-1.3,0.9-1.5l1.2-0.3c0.7-0.2,1.3,0.2,1.5,0.9s-0.2,1.3-0.9,1.5l-1.2,0.3
			C448.3,681.2,448.2,681.3,448.1,681.3z M202.4,678.9c-0.1,0-0.2,0-0.3,0l-1.2-0.4c-0.7-0.2-1-0.9-0.8-1.5c0.2-0.7,0.9-1,1.5-0.8
			l1.2,0.3c0.7,0.2,1,0.9,0.8,1.5C203.5,678.6,203,678.9,202.4,678.9z M457.7,678.6c-0.5,0-1-0.4-1.2-0.9c-0.2-0.7,0.2-1.4,0.8-1.5
			l1.2-0.4c0.7-0.2,1.4,0.2,1.6,0.8c0.2,0.7-0.2,1.4-0.8,1.6l-1.2,0.4C458,678.6,457.8,678.6,457.7,678.6z M192.9,675.9
			c-0.1,0-0.3,0-0.4-0.1l-1.2-0.4c-0.6-0.2-1-0.9-0.8-1.6c0.2-0.6,0.9-1,1.6-0.8l1.2,0.4c0.6,0.2,1,0.9,0.8,1.6
			C193.9,675.6,193.5,675.9,192.9,675.9z M467.2,675.6c-0.5,0-1-0.3-1.2-0.8c-0.2-0.6,0.1-1.4,0.8-1.6l1.2-0.4
			c0.6-0.2,1.4,0.1,1.6,0.7c0.2,0.6-0.1,1.4-0.7,1.6l-1.2,0.4C467.5,675.5,467.4,675.6,467.2,675.6z M183.6,672.4
			c-0.2,0-0.3,0-0.5-0.1l-1.2-0.5c-0.6-0.3-0.9-1-0.7-1.6c0.3-0.6,1-0.9,1.6-0.7l1.1,0.5c0.6,0.3,0.9,1,0.7,1.6
			C184.6,672.1,184.1,672.4,183.6,672.4z M476.5,672c-0.5,0-0.9-0.3-1.1-0.8c-0.3-0.6,0-1.4,0.7-1.6c0.4-0.2,0.8-0.3,1.1-0.5
			c0.6-0.3,1.4,0,1.6,0.6c0.3,0.6,0,1.4-0.6,1.6c-0.4,0.2-0.8,0.3-1.2,0.5C476.8,671.9,476.7,672,476.5,672z M174.6,668.2
			c-0.2,0-0.4,0-0.6-0.1c-0.4-0.2-0.8-0.4-1.1-0.6c-0.6-0.3-0.8-1.1-0.5-1.7c0.3-0.6,1.1-0.8,1.7-0.5c0.4,0.2,0.7,0.4,1.1,0.6
			c0.6,0.3,0.8,1.1,0.5,1.7C175.5,668,175,668.2,174.6,668.2z M485.5,667.7c-0.4,0-0.9-0.2-1.1-0.7c-0.3-0.6-0.1-1.4,0.5-1.7
			c0.4-0.2,0.7-0.4,1.1-0.6c0.6-0.3,1.4-0.1,1.7,0.5c0.3,0.6,0.1,1.4-0.5,1.7c-0.4,0.2-0.7,0.4-1.1,0.6
			C485.9,667.6,485.7,667.7,485.5,667.7z M166.1,663c-0.3,0-0.5-0.1-0.7-0.2c-0.3-0.3-0.7-0.5-1-0.8c-0.5-0.4-0.7-1.2-0.2-1.7
			c0.4-0.5,1.2-0.6,1.7-0.2c0.3,0.2,0.6,0.5,1,0.7c0.6,0.4,0.7,1.2,0.3,1.7C166.9,662.8,166.5,663,166.1,663z M493.9,662.3
			c-0.4,0-0.7-0.2-1-0.5c-0.4-0.5-0.3-1.3,0.2-1.7c0.3-0.2,0.6-0.5,1-0.7c0.5-0.4,1.3-0.3,1.8,0.2c0.4,0.5,0.3,1.3-0.2,1.8
			c-0.3,0.3-0.7,0.5-1,0.8C494.4,662.2,494.2,662.3,493.9,662.3z M158.8,656.2c-0.4,0-0.7-0.2-1-0.5s-0.5-0.7-0.8-1
			c-0.4-0.6-0.3-1.3,0.3-1.7s1.3-0.3,1.7,0.3c0.2,0.3,0.5,0.6,0.7,0.9c0.4,0.5,0.3,1.3-0.2,1.7C159.4,656.2,159.1,656.2,158.8,656.2
			z M500.9,655.4c-0.3,0-0.5-0.1-0.7-0.2c-0.6-0.4-0.7-1.2-0.3-1.7c0.2-0.3,0.4-0.6,0.7-1c0.4-0.6,1.1-0.7,1.7-0.4
			c0.6,0.4,0.8,1.1,0.4,1.7c-0.2,0.4-0.5,0.7-0.7,1.1C501.7,655.2,501.3,655.4,500.9,655.4z M155,647.3c-0.6,0-1.2-0.5-1.2-1.1
			c0-0.4-0.1-0.9-0.1-1.4v-0.2c0-0.7,0.6-1.2,1.3-1.2s1.2,0.6,1.2,1.3v0.2c0,0.4,0,0.7,0.1,1.1c0.1,0.7-0.4,1.3-1.1,1.4
			C155,647.3,155,647.3,155,647.3z M504.2,646.1c-0.7,0-1.2-0.5-1.2-1.2v-0.1c0-0.3,0-0.7,0-1c-0.1-0.7,0.4-1.3,1.1-1.3
			c0.7-0.1,1.3,0.4,1.3,1.1c0,0.4,0.1,0.8,0.1,1.2C505.5,645.5,504.9,646.1,504.2,646.1z M157.5,637.7c-0.2,0-0.5-0.1-0.7-0.2
			c-0.6-0.4-0.7-1.1-0.4-1.7c0.2-0.4,0.5-0.7,0.7-1.1c0.4-0.6,1.2-0.7,1.7-0.3c0.6,0.4,0.7,1.2,0.3,1.7c-0.2,0.3-0.5,0.6-0.7,1
			C158.4,637.5,158,637.7,157.5,637.7z M501.1,637c-0.4,0-0.8-0.2-1-0.5s-0.5-0.6-0.7-0.9c-0.4-0.5-0.3-1.3,0.2-1.7s1.3-0.3,1.7,0.2
			c0.3,0.3,0.5,0.7,0.8,1.1c0.4,0.6,0.3,1.3-0.3,1.7C501.6,636.9,501.3,637,501.1,637z M164.3,630.5c-0.4,0-0.7-0.2-1-0.5
			c-0.4-0.5-0.3-1.3,0.2-1.7c0.3-0.3,0.7-0.5,1-0.8c0.5-0.4,1.3-0.3,1.7,0.2s0.3,1.3-0.2,1.7c-0.3,0.2-0.6,0.5-1,0.7
			C164.9,630.4,164.6,630.5,164.3,630.5z M494.1,630c-0.3,0-0.5-0.1-0.8-0.3s-0.6-0.5-1-0.7c-0.6-0.4-0.7-1.2-0.3-1.7
			c0.4-0.6,1.2-0.7,1.7-0.3c0.3,0.3,0.7,0.5,1,0.8c0.5,0.4,0.6,1.2,0.2,1.7C494.8,629.8,494.5,630,494.1,630z M172.6,625
			c-0.4,0-0.9-0.2-1.1-0.6c-0.3-0.6-0.1-1.4,0.5-1.7c0.4-0.2,0.7-0.4,1.1-0.6c0.6-0.3,1.4-0.1,1.7,0.5s0.1,1.4-0.5,1.7
			c-0.4,0.2-0.7,0.4-1.1,0.6C173,625,172.8,625,172.6,625z M485.7,624.6c-0.2,0-0.4,0-0.6-0.2c-0.4-0.2-0.7-0.4-1.1-0.6
			c-0.6-0.3-0.8-1.1-0.5-1.7c0.3-0.6,1.1-0.8,1.7-0.5c0.4,0.2,0.7,0.4,1.1,0.6c0.6,0.3,0.8,1.1,0.5,1.7
			C486.6,624.3,486.1,624.6,485.7,624.6z M181.6,620.6c-0.5,0-0.9-0.3-1.1-0.7c-0.3-0.6,0-1.4,0.6-1.6c0.4-0.2,0.8-0.3,1.2-0.5
			c0.6-0.3,1.4,0,1.6,0.7c0.3,0.6,0,1.4-0.7,1.6c-0.4,0.2-0.8,0.3-1.1,0.5C181.9,620.6,181.7,620.6,181.6,620.6z M476.7,620.3
			c-0.2,0-0.3,0-0.5-0.1c-0.4-0.2-0.8-0.3-1.1-0.5c-0.6-0.3-0.9-1-0.7-1.6s1-0.9,1.6-0.7c0.4,0.2,0.8,0.3,1.2,0.5
			c0.6,0.3,0.9,1,0.7,1.6C477.7,620,477.2,620.3,476.7,620.3z M190.8,617c-0.5,0-1-0.3-1.2-0.8c-0.2-0.6,0.1-1.4,0.8-1.6l1.2-0.4
			c0.7-0.2,1.4,0.1,1.6,0.8s-0.1,1.4-0.8,1.6l-1.2,0.4C191.1,616.9,191,617,190.8,617z M467.4,616.7c-0.1,0-0.3,0-0.4-0.1l-1.2-0.4
			c-0.6-0.2-1-0.9-0.8-1.6c0.2-0.7,0.9-1,1.6-0.8l1.2,0.4c0.6,0.2,1,0.9,0.8,1.6C468.4,616.3,468,616.7,467.4,616.7z M200.3,613.8
			c-0.5,0-1-0.3-1.2-0.9c-0.2-0.7,0.2-1.4,0.8-1.6l1.2-0.4c0.7-0.2,1.4,0.2,1.5,0.8c0.2,0.7-0.2,1.4-0.8,1.5l-1.2,0.4
			C200.5,613.8,200.4,613.8,200.3,613.8z M458,613.6c-0.1,0-0.2,0-0.4-0.1l-1.2-0.4c-0.7-0.2-1-0.9-0.8-1.5c0.2-0.7,0.9-1,1.5-0.8
			l1.2,0.4c0.7,0.2,1,0.9,0.8,1.5C459,613.2,458.5,613.6,458,613.6z M209.9,611.2c-0.6,0-1.1-0.4-1.2-0.9c-0.2-0.7,0.2-1.3,0.9-1.5
			l1.2-0.3c0.7-0.2,1.3,0.2,1.5,0.9s-0.2,1.3-0.9,1.5l-1.2,0.3C210.1,611.2,210,611.2,209.9,611.2z M448.4,610.9c-0.1,0-0.2,0-0.3,0
			l-1.2-0.3c-0.7-0.2-1.1-0.8-0.9-1.5s0.8-1.1,1.5-0.9l1.2,0.3c0.7,0.2,1.1,0.8,0.9,1.5C449.4,610.6,448.9,610.9,448.4,610.9z
			 M219.6,608.8c-0.6,0-1.1-0.4-1.2-1c-0.2-0.7,0.3-1.3,0.9-1.5l1.2-0.3c0.7-0.1,1.3,0.3,1.5,1c0.1,0.7-0.3,1.3-1,1.5l-1.2,0.3
			C219.8,608.8,219.7,608.8,219.6,608.8z M438.7,608.6c-0.1,0-0.2,0-0.3,0l-1.2-0.3c-0.7-0.1-1.1-0.8-1-1.5s0.8-1.1,1.5-1l1.2,0.3
			c0.7,0.1,1.1,0.8,0.9,1.5C439.7,608.2,439.2,608.6,438.7,608.6z M229.3,606.8c-0.6,0-1.1-0.4-1.2-1c-0.1-0.7,0.3-1.3,1-1.5
			l1.2-0.2c0.7-0.1,1.3,0.3,1.5,1c0.1,0.7-0.3,1.3-1,1.5l-1.2,0.2C229.5,606.8,229.4,606.8,229.3,606.8z M428.9,606.6
			c-0.1,0-0.2,0-0.2,0l-1.2-0.2c-0.7-0.1-1.1-0.8-1-1.5s0.8-1.1,1.5-1l1.2,0.2c0.7,0.1,1.1,0.8,1,1.5
			C430,606.2,429.5,606.6,428.9,606.6z M239.1,605.1c-0.6,0-1.1-0.4-1.2-1c-0.1-0.7,0.3-1.3,1-1.4l1.2-0.2c0.7-0.1,1.3,0.4,1.4,1
			c0.1,0.7-0.4,1.3-1,1.4l-1.2,0.2C239.3,605.1,239.2,605.1,239.1,605.1z M419.1,604.9c-0.1,0-0.1,0-0.2,0l-1.2-0.2
			c-0.7-0.1-1.1-0.7-1-1.4s0.7-1.1,1.4-1l1.2,0.2c0.7,0.1,1.1,0.8,1,1.4C420.2,604.5,419.7,604.9,419.1,604.9z M249,603.5
			c-0.6,0-1.1-0.4-1.2-1.1c-0.1-0.7,0.4-1.3,1.1-1.4l1.2-0.2c0.7-0.1,1.3,0.4,1.4,1.1c0.1,0.7-0.4,1.3-1.1,1.4l-1.2,0.2
			C249.1,603.5,249.1,603.5,249,603.5z M409.2,603.4c-0.1,0-0.1,0-0.2,0l-1.2-0.2c-0.7-0.1-1.2-0.7-1.1-1.4s0.7-1.2,1.4-1.1l1.2,0.2
			c0.7,0.1,1.2,0.7,1.1,1.4C410.4,603,409.8,603.4,409.2,603.4z M258.9,602.2c-0.6,0-1.2-0.5-1.2-1.1c-0.1-0.7,0.4-1.3,1.1-1.4
			l1.2-0.1c0.7-0.1,1.3,0.4,1.4,1.1c0.1,0.7-0.4,1.3-1.1,1.4l-1.2,0.1C259,602.2,258.9,602.2,258.9,602.2z M399.3,602.1
			c0,0-0.1,0-0.2,0l-1.2-0.1c-0.7-0.1-1.2-0.7-1.1-1.4s0.7-1.2,1.4-1.1l1.2,0.1c0.7,0.1,1.2,0.7,1.1,1.4
			C400.5,601.7,400,602.1,399.3,602.1z M268.8,601.1c-0.6,0-1.2-0.5-1.2-1.1c-0.1-0.7,0.4-1.3,1.1-1.4l1.2-0.1
			c0.7-0.1,1.3,0.4,1.4,1.1c0.1,0.7-0.4,1.3-1.1,1.4l-1.2,0.1C268.9,601.1,268.8,601.1,268.8,601.1z M389.4,601h-0.1l-1.2-0.1
			c-0.7-0.1-1.2-0.7-1.1-1.4s0.7-1.2,1.4-1.1l1.2,0.1c0.7,0.1,1.2,0.7,1.1,1.4C390.6,600.6,390.1,601,389.4,601z M278.7,600.2
			c-0.6,0-1.2-0.5-1.2-1.1c-0.1-0.7,0.5-1.3,1.1-1.3l1.2-0.1c0.7,0,1.3,0.5,1.3,1.1c0.1,0.7-0.5,1.3-1.1,1.3L278.7,600.2
			C278.8,600.2,278.7,600.2,278.7,600.2z M379.5,600.1h-0.1l-1.2-0.1c-0.7-0.1-1.2-0.7-1.1-1.3c0.1-0.7,0.6-1.2,1.3-1.1l1.2,0.1
			c0.7,0.1,1.2,0.7,1.1,1.3C380.7,599.6,380.1,600.1,379.5,600.1z M288.6,599.5c-0.7,0-1.2-0.5-1.2-1.2s0.5-1.3,1.2-1.3l1.2-0.1
			c0.7,0,1.3,0.5,1.3,1.2s-0.5,1.3-1.2,1.3L288.6,599.5C288.7,599.5,288.7,599.5,288.6,599.5z M369.6,599.4
			C369.5,599.4,369.5,599.4,369.6,599.4l-1.3-0.1c-0.7,0-1.2-0.6-1.2-1.3s0.6-1.2,1.3-1.2l1.2,0.1c0.7,0,1.2,0.6,1.2,1.3
			S370.2,599.4,369.6,599.4z M298.6,598.9c-0.7,0-1.2-0.5-1.2-1.2s0.5-1.3,1.2-1.3l1.2-0.1c0.7,0,1.3,0.5,1.3,1.2s-0.5,1.3-1.2,1.3
			L298.6,598.9L298.6,598.9z M359.6,598.9L359.6,598.9l-1.3-0.1c-0.7,0-1.2-0.6-1.2-1.3s0.6-1.2,1.3-1.2l1.2,0.1
			c0.7,0,1.2,0.6,1.2,1.3C360.8,598.3,360.3,598.9,359.6,598.9z M308.6,598.5c-0.7,0-1.2-0.5-1.2-1.2s0.5-1.3,1.2-1.3h1.2
			c0.6-0.1,1.3,0.5,1.3,1.2s-0.5,1.3-1.2,1.3H308.6L308.6,598.5z M349.7,598.5C349.6,598.5,349.6,598.5,349.7,598.5h-1.3
			c-0.7,0-1.2-0.6-1.2-1.3s0.6-1.2,1.2-1.2l0,0h1.2c0.7,0,1.2,0.6,1.2,1.3C350.9,597.9,350.3,598.5,349.7,598.5z M318.5,598.2
			c-0.7,0-1.2-0.5-1.2-1.2s0.5-1.3,1.2-1.3h1.2c0.7,0,1.3,0.5,1.3,1.2s-0.5,1.3-1.2,1.3H318.5L318.5,598.2z M339.7,598.2
			L339.7,598.2h-1.3c-0.7,0-1.2-0.6-1.2-1.3s0.5-1.2,1.3-1.2h1.2c0.7,0,1.2,0.6,1.2,1.3S340.4,598.2,339.7,598.2z M328.5,598.2
			c-0.7,0-1.2-0.6-1.2-1.2c0-0.7,0.6-1.2,1.2-1.2h1.2c0.7,0,1.2,0.6,1.2,1.2s-0.6,1.2-1.2,1.2H328.5L328.5,598.2z"/>
	</g>
	<g>
		<path class="st2" d="M149.5,662.9c-0.4,0-0.8-0.2-1.1-0.6c-1.7-2.9-2.5-5.9-2.5-8.9c0-0.7,0.6-1.2,1.2-1.2s1.2,0.6,1.2,1.2
			c0,2.6,0.7,5.1,2.2,7.7c0.3,0.6,0.1,1.4-0.5,1.7C149.9,662.8,149.7,662.9,149.5,662.9z"/>
		<path class="st2" d="M325.7,705.8L325.7,705.8c-6,0-11.9-0.2-17.7-0.4c-0.7,0-1.2-0.6-1.2-1.3s0.6-1.2,1.2-1.2l0,0
			c5.8,0.2,11.7,0.3,17.7,0.4c0.7,0,1.2,0.6,1.2,1.3C327,705.3,326.4,705.8,325.7,705.8z M334.6,705.8c-0.7,0-1.2-0.6-1.2-1.2
			c0-0.7,0.5-1.2,1.2-1.3c5.9,0,11.9-0.2,17.7-0.4c0.7-0.1,1.3,0.5,1.3,1.2s-0.5,1.3-1.2,1.3C346.5,705.6,340.5,705.8,334.6,705.8
			L334.6,705.8z M299.2,705.1L299.2,705.1c-6-0.3-11.9-0.7-17.8-1.1c-0.7-0.1-1.2-0.7-1.1-1.3c0.1-0.7,0.7-1.2,1.3-1.1
			c5.8,0.4,11.7,0.8,17.6,1.1c0.7,0,1.2,0.6,1.2,1.3C300.4,704.6,299.9,705.1,299.2,705.1z M361.1,705.1c-0.7,0-1.2-0.5-1.2-1.2
			s0.5-1.3,1.2-1.3c5.9-0.3,11.9-0.7,17.6-1.1c0.7-0.1,1.3,0.5,1.3,1.1c0.1,0.7-0.5,1.3-1.1,1.3
			C373.1,704.4,367.1,704.8,361.1,705.1L361.1,705.1z M272.7,703.2h-0.1c-6-0.6-11.9-1.2-17.6-1.9c-0.7-0.1-1.2-0.7-1.1-1.4
			s0.7-1.2,1.4-1.1c5.7,0.7,11.6,1.4,17.5,1.9c0.7,0.1,1.2,0.7,1.1,1.4C273.9,702.8,273.4,703.2,272.7,703.2z M387.6,703.2
			c-0.6,0-1.2-0.5-1.2-1.1c-0.1-0.7,0.4-1.3,1.1-1.4c6-0.6,11.9-1.2,17.6-1.9c0.7-0.1,1.3,0.4,1.4,1.1c0.1,0.7-0.4,1.3-1.1,1.4
			c-5.7,0.7-11.7,1.4-17.6,1.9C387.7,703.2,387.6,703.2,387.6,703.2z M246.4,700.1c-0.1,0-0.1,0-0.2,0c-6-0.9-11.9-1.8-17.5-2.9
			c-0.7-0.1-1.1-0.8-1-1.5s0.8-1.1,1.5-1c5.6,1,11.4,2,17.4,2.9c0.7,0.1,1.2,0.7,1.1,1.4C247.5,699.7,247,700.1,246.4,700.1z
			 M414,700.1c-0.6,0-1.1-0.4-1.2-1.1c-0.1-0.7,0.4-1.3,1.1-1.4c6-0.9,11.8-1.8,17.4-2.9c0.7-0.1,1.3,0.3,1.5,1
			c0.1,0.7-0.3,1.3-1,1.5c-5.6,1-11.5,2-17.5,2.9C414.1,700.1,414,700.1,414,700.1z M220.2,695.6c-0.1,0-0.2,0-0.3,0
			c-6-1.3-11.8-2.7-17.3-4.1c-0.7-0.2-1.1-0.9-0.9-1.5c0.2-0.7,0.9-1.1,1.5-0.9c5.4,1.5,11.2,2.8,17.1,4.1c0.7,0.1,1.1,0.8,1,1.5
			C221.3,695.2,220.8,695.6,220.2,695.6z M440.1,695.6c-0.6,0-1.1-0.4-1.2-1c-0.1-0.7,0.3-1.3,1-1.5c6-1.3,11.7-2.6,17.1-4.1
			c0.7-0.2,1.3,0.2,1.5,0.9s-0.2,1.3-0.9,1.5c-5.4,1.5-11.2,2.9-17.3,4.1C440.3,695.5,440.2,695.6,440.1,695.6z M194.5,689
			c-0.1,0-0.2,0-0.4-0.1c-6.1-1.9-11.7-3.9-16.8-6c-0.6-0.3-0.9-1-0.7-1.6c0.3-0.6,1-0.9,1.6-0.7c5,2.1,10.5,4.1,16.5,5.9
			c0.7,0.2,1,0.9,0.8,1.6C195.5,688.6,195,689,194.5,689z M465.8,689c-0.5,0-1-0.3-1.2-0.9c-0.2-0.7,0.2-1.4,0.8-1.6
			c6-1.9,11.6-3.9,16.5-5.9c0.6-0.3,1.4,0,1.6,0.7c0.3,0.6,0,1.4-0.7,1.6c-5,2.1-10.7,4.1-16.8,6C466,689,465.9,689,465.8,689z
			 M169.8,679.3c-0.2,0-0.4,0-0.6-0.1c-6.2-3.1-11.2-6.5-15-9.9c-0.5-0.5-0.5-1.3-0.1-1.8c0.5-0.5,1.3-0.5,1.8-0.1
			c3.6,3.3,8.5,6.5,14.4,9.5c0.6,0.3,0.9,1.1,0.5,1.7C170.7,679.1,170.3,679.3,169.8,679.3z M490.5,679.3c-0.5,0-0.9-0.2-1.1-0.7
			c-0.3-0.6-0.1-1.4,0.5-1.7c6-3,10.8-6.2,14.4-9.5c0.5-0.5,1.3-0.4,1.8,0.1s0.4,1.3-0.1,1.8c-3.8,3.4-8.8,6.8-15,9.9
			C490.9,679.3,490.7,679.3,490.5,679.3z"/>
		<path class="st2" d="M510.8,662.9c-0.2,0-0.4-0.1-0.6-0.2c-0.6-0.3-0.8-1.1-0.5-1.7c1.5-2.5,2.2-5.1,2.2-7.7
			c0-0.7,0.6-1.2,1.2-1.2s1.2,0.6,1.2,1.2c0,3-0.9,6-2.5,8.9C511.7,662.6,511.3,662.9,510.8,662.9z"/>
	</g>
</g>
</svg>
