<?xml version="1.0" encoding="utf-8"?>
<!-- Generator: Adobe Illustrator 16.0.3, SVG Export Plug-In . SVG Version: 6.00 Build 0)  -->
<!DOCTYPE svg PUBLIC "-//W3C//DTD SVG 1.1//EN" "http://www.w3.org/Graphics/SVG/1.1/DTD/svg11.dtd">
<svg version="1.1" id="Layer_1" xmlns="http://www.w3.org/2000/svg" xmlns:xlink="http://www.w3.org/1999/xlink" x="0px" y="0px"
	 width="250px" height="200.667px" viewBox="0 0 250 200.667" enable-background="new 0 0 250 200.667" xml:space="preserve">
<polygon fill="#FFFFFF" points="24.06,131.742 0,103.428 24.143,76.583 30.75,82.524 11.8,103.593 30.831,125.988 "/>
<polygon fill="#FFFFFF" points="221.868,128.969 215.097,123.215 234.128,100.821 215.18,79.751 221.787,73.809 245.929,100.655 "/>
<g>
	<path fill="#FFFFFF" d="M88.831,74.438c-4.419,0-8.568,0.835-12.445,2.502c-3.879,1.668-7.485,4.172-10.822,7.508V47.924h-18.33
		v101.995h18.33v-7.778c3.606,3.429,7.237,5.896,10.889,7.407s7.598,2.265,11.836,2.265c9.515,0,17.744-3.686,24.687-11.058
		c6.945-7.372,10.417-16.537,10.417-27.496c0-11.36-3.36-20.671-10.08-27.933C106.595,78.068,98.434,74.438,88.831,74.438z
		 M99.211,128.751c-3.855,4.102-8.601,6.155-14.237,6.155c-5.817,0-10.642-2.02-14.474-6.056c-3.833-4.034-5.749-9.321-5.749-15.86
		c0-6.402,1.917-11.588,5.749-15.555c3.833-3.969,8.657-5.953,14.474-5.953c5.771,0,10.551,2.018,14.339,6.053
		c3.787,4.037,5.682,9.209,5.682,15.522C104.995,119.416,103.067,124.647,99.211,128.751z"/>
	<path fill="#FFFFFF" d="M145.88,46.03c-3.236,0-6.002,1.151-8.295,3.45c-2.294,2.301-3.438,5.073-3.438,8.319
		c0,3.384,1.155,6.258,3.472,8.625c2.315,2.366,5.114,3.551,8.398,3.551c3.189,0,5.934-1.162,8.228-3.483
		c2.29-2.322,3.44-5.129,3.44-8.421c0-3.336-1.158-6.177-3.476-8.521C151.893,47.203,149.116,46.03,145.88,46.03z"/>
	<polygon fill="#FFFFFF" points="192.584,76.331 192.584,49.21 174.118,49.21 174.118,76.331 164.649,76.331 164.649,92.227 
		174.118,92.227 174.118,149.919 192.584,149.919 192.584,92.227 203.54,92.227 203.54,76.331 	"/>
	<polygon fill="#FFFFFF" points="136.648,76.331 134.32,76.331 126.276,90.208 136.648,90.208 136.648,149.919 155.112,149.919 
		155.112,76.331 145.142,76.331 	"/>
</g>
</svg>
