<?xml version="1.0" encoding="utf-8"?>
<!-- Generator: Adobe Illustrator 19.2.1, SVG Export Plug-In . SVG Version: 6.00 Build 0)  -->
<svg version="1.1" id="Capa_1" xmlns="http://www.w3.org/2000/svg" xmlns:xlink="http://www.w3.org/1999/xlink" x="0px" y="0px"
	 viewBox="0 0 412.5 289.5" style="enable-background:new 0 0 412.5 289.5;" xml:space="preserve">
<style type="text/css">
	.st0{opacity:0.1;fill:#FFFFFF;}
	.st1{opacity:0.7;fill:#FFFFFF;}
	.st2{opacity:0.4;fill:#FFFFFF;}
	.st3{opacity:0.6;fill:url(#SVGID_1_);}
	.st4{fill:#FFFFFF;}
	.st5{opacity:0.46;fill:url(#SVGID_2_);}
</style>
<path class="st0" d="M57.8,247.4c0,0,0,0.2,0,0.5c0,0.1,0,0.4,0,0.6c0,0.2,0.1,0.4,0.1,0.7c0.2,1.1,0.8,2.6,2,4.4
	c2.6,3.6,8.2,7.7,16.2,11.2c7.9,3.5,18.1,6.7,30,9.4c11.9,2.7,25.5,4.9,40.4,6.6c14.9,1.7,31.2,2.7,48.4,3.1
	c17.2,0.3,35.4,0,54.2-1.3c18.7-1.4,38.1-3.7,57.3-7.9c9.6-2.1,19.2-4.7,28.5-8.5c4.6-1.9,9.1-4.1,13.1-7c2-1.5,3.9-3.1,5.4-5
	c1.5-1.9,2.5-4.2,2.5-6.6c0-2.4-1-4.7-2.5-6.6c-1.5-2-3.4-3.6-5.3-5c-4-2.9-8.5-5.1-13.1-7c-9.2-3.8-18.8-6.4-28.5-8.6
	c-19.3-4.3-38.6-6.6-57.4-8.1c-18.8-1.4-37-1.8-54.2-1.5c-17.2,0.3-33.5,1.3-48.5,2.9c-15,1.6-28.6,3.8-40.5,6.5
	c-11.9,2.7-22.2,5.8-30.2,9.4c-8,3.5-13.8,7.6-16.6,11.4c-1.4,1.9-2,3.6-2.2,4.8c-0.1,0.6-0.2,1.1-0.2,1.4c0,0.3,0,0.5,0,0.5
	L57.8,247.4z M56.8,247.5c0,0,0-0.2,0-0.5c0-0.3,0.1-0.8,0.2-1.4c0.2-1.2,0.8-2.9,2.2-4.8c2.8-3.9,8.6-8,16.6-11.5
	c8-3.6,18.3-6.7,30.2-9.5c11.9-2.7,25.6-4.9,40.5-6.6c15-1.7,31.3-2.7,48.5-3.1c17.3-0.3,35.5,0,54.2,1.3
	c18.8,1.4,38.1,3.7,57.5,7.9c9.6,2.2,19.3,4.8,28.6,8.6c4.6,1.9,9.2,4.1,13.3,7.1c2,1.5,4,3.2,5.6,5.2c1.6,2,2.7,4.5,2.7,7.2
	c0,2.7-1.1,5.2-2.7,7.2c-1.6,2.1-3.5,3.7-5.6,5.3c-4.1,3-8.7,5.2-13.3,7.1c-9.3,3.8-19,6.5-28.6,8.6c-19.3,4.3-38.7,6.6-57.5,8.1
	c-18.8,1.4-37,1.8-54.3,1.5c-17.3-0.3-33.6-1.3-48.6-2.9c-15-1.6-28.7-3.8-40.6-6.5c-12-2.7-22.3-5.8-30.4-9.4
	c-8.1-3.5-14.1-7.7-17-11.8c-1.5-2-2.2-3.9-2.4-5.2c-0.1-0.3-0.1-0.7-0.1-0.9c0-0.3,0-0.4,0-0.6c0-0.3,0-0.5,0-0.5L56.8,247.5z"/>
<path class="st1" d="M15.4,206.4c0,0,0,0.2,0,0.6c0,0.2,0,0.4,0.1,0.6c0.1,0.2,0.1,0.5,0.2,0.8c0.2,0.6,0.6,1.4,1.1,2.3
	c0.6,0.9,1.4,1.8,2.4,2.7c2.1,1.9,5.1,3.9,8.9,5.7c3.8,1.9,8.3,3.7,13.6,5.3c10.4,3.4,23.5,6.4,38.6,9c15.1,2.6,32.3,4.7,51.1,6.3
	c18.8,1.6,39.3,2.6,60.9,2.9c21.6,0.3,44.5,0,68.1-1.3c23.6-1.3,47.9-3.5,72.4-7.5c12.2-2.1,24.5-4.5,36.5-8.1
	c6-1.8,11.9-3.9,17.5-6.7c2.8-1.4,5.5-3,7.8-5.1c1.2-1,2.2-2.1,3-3.4c0.8-1.3,1.3-2.8,1.3-4.2c0-3.1-2-5.7-4.3-7.7
	c-2.3-2-5-3.7-7.8-5.1c-5.6-2.8-11.5-4.9-17.5-6.8c-12-3.6-24.3-6.1-36.5-8.2c-24.5-4.1-48.8-6.3-72.4-7.7
	c-23.6-1.3-46.4-1.7-68.1-1.4c-21.7,0.3-42.1,1.3-61,2.8c-18.8,1.5-36.1,3.6-51.2,6.2c-15.1,2.5-28.2,5.5-38.7,8.9
	c-10.5,3.4-18.4,7.2-22.8,11.2c-1.1,1-2,2-2.6,2.9c-0.6,0.9-1,1.8-1.2,2.5c-0.1,0.4-0.2,0.7-0.2,1c-0.1,0.3-0.1,0.5-0.1,0.7
	c0,0.4,0,0.6,0,0.6L15.4,206.4z M14.4,206.5c0,0,0-0.2,0-0.6c0-0.2,0-0.4,0.1-0.7c0.1-0.3,0.1-0.6,0.2-1c0.2-0.7,0.6-1.6,1.2-2.5
	c0.6-0.9,1.5-1.9,2.6-2.9c4.4-4,12.3-7.9,22.8-11.3c10.5-3.4,23.6-6.4,38.7-9c15.1-2.6,32.4-4.7,51.2-6.3c18.8-1.6,39.3-2.6,61-2.9
	c21.7-0.3,44.5,0,68.1,1.3c23.6,1.3,48,3.5,72.5,7.5c12.2,2.1,24.5,4.5,36.6,8.2c6,1.8,12,3.9,17.7,6.8c2.8,1.4,5.6,3.1,8,5.2
	c1.2,1.1,2.3,2.3,3.2,3.6c0.2,0.4,0.4,0.7,0.6,1.1c0.2,0.4,0.3,0.8,0.5,1.2c0.1,0.4,0.2,0.8,0.3,1.2c0.1,0.4,0.1,0.8,0.1,1.2
	c0,1.8-0.6,3.3-1.5,4.8c-0.9,1.4-2,2.6-3.2,3.7c-2.4,2.1-5.2,3.8-8,5.2c-5.7,2.9-11.6,5-17.7,6.8c-12.1,3.6-24.4,6.2-36.6,8.2
	c-24.5,4.1-48.9,6.3-72.5,7.7c-23.6,1.3-46.5,1.7-68.2,1.4c-21.7-0.3-42.2-1.3-61-2.8c-18.9-1.5-36.1-3.6-51.3-6.2
	c-15.2-2.6-28.3-5.5-38.9-9c-10.5-3.4-18.6-7.3-23.2-11.4c-1.1-1-2.1-2.1-2.7-3.1c-0.7-1-1.1-2-1.4-2.8c-0.3-0.8-0.4-1.6-0.4-1.9
	c0-0.4,0-0.6,0-0.6L14.4,206.5z"/>
<path class="st2" d="M30.1,229.5c0,0,0,0.8,0.3,1.9c0.3,1.2,1.1,3,2.9,4.8c3.6,3.8,10.6,7.7,20.1,11.1c9.5,3.4,21.5,6.5,35.4,9.1
	c13.9,2.6,29.8,4.8,47.1,6.4c17.4,1.6,36.3,2.6,56.2,3c20,0.3,41.1,0,62.9-1.3c21.8-1.3,44.2-3.5,66.8-7.6
	c11.2-2.1,22.5-4.6,33.5-8.2c5.5-1.8,10.9-4,15.9-6.8c2.5-1.4,4.9-3.1,6.9-5.1c2-2,3.6-4.5,3.6-7.3c0-2.8-1.6-5.3-3.6-7.3
	c-2-2-4.4-3.6-6.9-5.1c-5-2.9-10.4-5-15.9-6.9c-11-3.7-22.3-6.2-33.5-8.3c-22.5-4.1-45-6.4-66.8-7.8c-21.8-1.4-42.9-1.7-62.9-1.5
	c-20,0.3-38.9,1.3-56.3,2.8c-34.8,3.1-63.6,8.4-82.8,15.3c-9.6,3.4-16.8,7.3-20.5,11.3c-1.9,2-2.9,3.9-3.2,5.3
	c-0.2,0.7-0.3,1.2-0.3,1.6c0,0.4,0,0.5,0,0.5L30.1,229.5z M29.1,229.5c0,0,0-0.2,0-0.5c0-0.4,0.1-0.9,0.3-1.6
	c0.3-1.4,1.3-3.3,3.2-5.3c3.8-4,11-7.9,20.5-11.4c19.2-6.9,48-12.3,82.8-15.5c17.4-1.6,36.3-2.6,56.3-3c20-0.3,41.1,0,62.9,1.3
	c21.8,1.3,44.3,3.5,66.9,7.6c11.3,2.1,22.6,4.6,33.6,8.3c5.5,1.9,11,4,16.1,6.9c2.5,1.5,5,3.1,7.1,5.2c1,1.1,2,2.2,2.7,3.6
	c0.4,0.7,0.6,1.4,0.9,2.1c0.1,0.4,0.2,0.8,0.2,1.2c0.1,0.4,0.1,0.7,0.1,1.1c0,1.6-0.5,3.1-1.2,4.4c-0.7,1.3-1.7,2.5-2.7,3.6
	c-2.1,2.1-4.6,3.8-7.1,5.3c-5.1,2.9-10.6,5.1-16.1,6.9c-11,3.7-22.4,6.3-33.6,8.4c-22.6,4.2-45.1,6.4-66.9,7.8
	c-21.8,1.4-42.9,1.7-63,1.5c-20-0.3-39-1.3-56.4-2.8c-34.8-3.1-63.7-8.5-83-15.4c-9.6-3.4-16.9-7.4-20.9-11.6
	c-2-2.1-3.1-4.2-3.4-5.7c-0.2-0.8-0.3-1.5-0.3-1.8c0-0.4,0-0.5,0-0.5L29.1,229.5z"/>
<linearGradient id="SVGID_1_" gradientUnits="userSpaceOnUse" x1="5.5649" y1="130.5709" x2="406.2387" y2="130.5709">
	<stop  offset="0" style="stop-color:#FFFFFF"/>
	<stop  offset="1" style="stop-color:#FFFFFF;stop-opacity:0"/>
</linearGradient>
<path class="st3" d="M406.2,102.9c0-20.5-89.7-37.1-200.3-37.1S5.6,82.4,5.6,102.9v92.4c0-20.5,89.7-37.1,200.3-37.1
	s200.3,16.6,200.3,37.1V102.9z"/>
<path class="st4" d="M406.7,195.3h-1c0-9.5-21.2-18.9-58.3-25.7c-37.8-7-88.1-10.9-141.6-10.9s-103.8,3.9-141.6,10.9
	c-37,6.9-58.3,16.2-58.3,25.7h-1v-92.4c0-10.2,21-19.7,59.1-26.7c37.9-7,88.2-10.9,141.8-10.9s103.9,3.9,141.8,10.9
	c38.1,7.1,59.1,16.5,59.1,26.7V195.3z M205.9,66.3c-53.5,0-103.8,3.9-141.6,10.9C27.3,84,6.1,93.4,6.1,102.9v88.6
	c4.6-8.7,24.8-16.7,58.1-22.9c37.9-7,88.2-10.9,141.8-10.9s103.9,3.9,141.8,10.9c33.3,6.2,53.5,14.2,58.1,22.9v-88.6
	c0-9.5-21.2-18.9-58.3-25.7C309.7,70.2,259.4,66.3,205.9,66.3z"/>
<linearGradient id="SVGID_2_" gradientUnits="userSpaceOnUse" x1="5.5649" y1="167.2241" x2="406.2387" y2="167.2241">
	<stop  offset="0" style="stop-color:#FFFFFF"/>
	<stop  offset="1" style="stop-color:#FFFFFF;stop-opacity:0"/>
</linearGradient>
<path class="st5" d="M406.2,104.9c0,20.5-89.7,37.1-200.3,37.1S5.6,125.4,5.6,104.9v87.5c0,20.5,89.7,37.1,200.3,37.1
	s200.3-16.6,200.3-37.1V104.9z"/>
<path class="st4" d="M205.9,230c-53.5,0-103.9-3.9-141.8-10.9C26,212.1,5.1,202.6,5.1,192.4v-87.5h1c0,9.5,21.2,18.9,58.3,25.7
	c37.8,7,88.1,10.9,141.6,10.9c53.5,0,103.8-3.9,141.6-10.9c37-6.9,58.3-16.2,58.3-25.7h1v87.5c0,10.2-21,19.7-59.1,26.7
	C309.8,226.2,259.4,230,205.9,230z M6.1,108.7v83.7c0,9.5,21.2,18.9,58.3,25.7c37.8,7,88.1,10.9,141.6,10.9s103.8-3.9,141.6-10.9
	c37-6.9,58.3-16.2,58.3-25.7v-83.7c-4.6,8.7-24.8,16.7-58.1,22.9c-37.9,7-88.2,10.9-141.8,10.9S102,138.6,64.2,131.6
	C30.9,125.5,10.6,117.5,6.1,108.7z"/>
<path class="st1" d="M14.6,88.7c0,0,0,0.2,0,0.6c0,0.2,0,0.4,0.1,0.6c0.1,0.2,0.1,0.5,0.2,0.8c0.2,0.6,0.6,1.4,1.1,2.3
	c0.6,0.9,1.4,1.8,2.4,2.7c2.1,1.9,5.1,3.9,8.9,5.7c3.8,1.9,8.3,3.7,13.6,5.3c10.4,3.4,23.5,6.4,38.6,9c15.1,2.6,32.3,4.7,51.1,6.3
	c18.8,1.6,39.3,2.6,60.9,2.9c21.6,0.3,44.5,0,68.1-1.3c23.6-1.3,47.9-3.5,72.4-7.5c12.2-2.1,24.5-4.5,36.5-8.1
	c6-1.8,11.9-3.9,17.5-6.7c2.8-1.4,5.5-3,7.8-5.1c1.2-1,2.2-2.1,3-3.4c0.8-1.3,1.3-2.8,1.3-4.2c0-3.1-2-5.7-4.3-7.7
	c-2.3-2-5-3.7-7.8-5.1c-5.6-2.8-11.5-4.9-17.5-6.8c-12-3.6-24.3-6.1-36.5-8.2c-24.5-4.1-48.8-6.3-72.4-7.7
	c-23.6-1.3-46.4-1.7-68.1-1.4c-21.7,0.3-42.1,1.3-61,2.8c-18.8,1.5-36.1,3.6-51.2,6.2c-15.1,2.5-28.2,5.5-38.7,8.9
	c-10.5,3.4-18.4,7.2-22.8,11.2c-1.1,1-2,2-2.6,2.9c-0.6,0.9-1,1.8-1.2,2.5c-0.1,0.4-0.2,0.7-0.2,1c-0.1,0.3-0.1,0.5-0.1,0.7
	c0,0.4,0,0.6,0,0.6L14.6,88.7z M13.6,88.8c0,0,0-0.2,0-0.6c0-0.2,0-0.4,0.1-0.7c0.1-0.3,0.1-0.6,0.2-1c0.2-0.7,0.6-1.6,1.2-2.5
	c0.6-0.9,1.5-1.9,2.6-2.9c4.4-4,12.3-7.9,22.8-11.3c10.5-3.4,23.6-6.4,38.7-9c15.1-2.6,32.4-4.7,51.2-6.3c18.8-1.6,39.3-2.6,61-2.9
	c21.7-0.3,44.5,0,68.1,1.3c23.6,1.3,48,3.5,72.5,7.5c12.2,2.1,24.5,4.5,36.6,8.2c6,1.8,12,3.9,17.7,6.8c2.8,1.4,5.6,3.1,8,5.2
	c1.2,1.1,2.3,2.3,3.2,3.6c0.2,0.4,0.4,0.7,0.6,1.1c0.2,0.4,0.3,0.8,0.5,1.2c0.1,0.4,0.2,0.8,0.3,1.2c0.1,0.4,0.1,0.8,0.1,1.2
	c0,1.8-0.6,3.3-1.5,4.8c-0.9,1.4-2,2.6-3.2,3.7c-2.4,2.1-5.2,3.8-8,5.2c-5.7,2.9-11.6,5-17.7,6.8c-12.1,3.6-24.4,6.2-36.6,8.2
	c-24.5,4.1-48.9,6.3-72.5,7.7c-23.6,1.3-46.5,1.7-68.2,1.4c-21.7-0.3-42.2-1.3-61-2.8c-18.9-1.5-36.1-3.6-51.3-6.2
	c-15.2-2.6-28.3-5.5-38.9-9c-10.5-3.4-18.6-7.3-23.2-11.4c-1.1-1-2.1-2.1-2.7-3.1c-0.7-1-1.1-2-1.4-2.8c-0.3-0.8-0.4-1.6-0.4-1.9
	c0-0.4,0-0.6,0-0.6L13.6,88.8z"/>
<path class="st2" d="M30.5,65.6c0,0,0,0.8,0.3,1.9c0.3,1.2,1.1,3,2.9,4.8c3.6,3.8,10.6,7.7,20.1,11.1c9.5,3.4,21.5,6.5,35.4,9.1
	c13.9,2.6,29.8,4.8,47.1,6.4c17.4,1.6,36.3,2.6,56.2,3c20,0.3,41.1,0,62.9-1.3c21.8-1.3,44.2-3.5,66.8-7.6
	c11.2-2.1,22.5-4.6,33.5-8.2c5.5-1.8,10.9-4,15.9-6.8c2.5-1.4,4.9-3.1,6.9-5.1c1-1,1.9-2.1,2.5-3.3c0.7-1.2,1.1-2.6,1.1-3.9
	c0-2.8-1.6-5.3-3.6-7.3c-2-2-4.4-3.6-6.9-5.1c-5-2.9-10.4-5-15.9-6.9c-11-3.7-22.3-6.2-33.5-8.3c-22.5-4.1-45-6.4-66.8-7.8
	c-21.8-1.4-42.9-1.7-62.9-1.5c-20,0.3-38.9,1.3-56.3,2.8c-34.8,3.1-63.6,8.4-82.8,15.3C44,50.3,36.8,54.3,33,58.2
	c-1.9,2-2.9,3.9-3.2,5.3c-0.2,0.7-0.3,1.2-0.3,1.6c0,0.4,0,0.5,0,0.5L30.5,65.6z M29.5,65.6c0,0,0-0.2,0-0.5c0-0.4,0.1-0.9,0.3-1.6
	c0.3-1.4,1.3-3.3,3.2-5.3c3.8-4,11-7.9,20.5-11.4c19.2-6.9,48-12.3,82.8-15.5c17.4-1.6,36.3-2.6,56.3-3c20-0.3,41.1,0,62.9,1.3
	c21.8,1.3,44.3,3.5,66.9,7.6c11.3,2.1,22.6,4.6,33.6,8.3c5.5,1.9,11,4,16.1,6.9c2.5,1.5,5,3.1,7.1,5.2c1,1.1,2,2.2,2.7,3.6
	c0.4,0.7,0.6,1.4,0.9,2.1c0.1,0.4,0.2,0.8,0.2,1.2c0.1,0.4,0.1,0.7,0.1,1.1c0,3.2-1.8,5.9-3.9,8c-2.1,2.1-4.6,3.8-7.1,5.3
	c-5.1,2.9-10.6,5.1-16.1,6.9c-11,3.7-22.4,6.3-33.6,8.4c-22.6,4.2-45.1,6.4-66.9,7.8c-21.8,1.4-42.9,1.7-63,1.5
	c-20-0.3-39-1.3-56.4-2.8c-34.8-3.1-63.7-8.5-83-15.4c-9.6-3.4-16.9-7.4-20.9-11.6c-2-2.1-3.1-4.2-3.4-5.7c-0.2-0.8-0.3-1.5-0.3-1.8
	c0-0.4,0-0.5,0-0.5L29.5,65.6z"/>
<path class="st0" d="M57.2,42.3c0,0,0,0.2,0,0.5c0,0.1,0,0.4,0,0.6c0,0.2,0.1,0.4,0.1,0.7c0.2,1.1,0.8,2.6,2,4.4
	c2.6,3.6,8.2,7.7,16.2,11.2c7.9,3.5,18.1,6.7,30,9.4c11.9,2.7,25.5,4.9,40.4,6.6c14.9,1.7,31.2,2.7,48.4,3.1
	c17.2,0.3,35.4,0,54.2-1.3c18.7-1.4,38.1-3.7,57.3-7.9c9.6-2.1,19.2-4.7,28.5-8.5c4.6-1.9,9.1-4.1,13.1-7c2-1.5,3.9-3.1,5.4-5
	c1.5-1.9,2.5-4.2,2.5-6.6c0-2.4-1-4.7-2.5-6.6c-1.5-2-3.4-3.6-5.3-5c-4-2.9-8.5-5.1-13.1-7c-9.2-3.8-18.8-6.4-28.5-8.6
	c-19.3-4.3-38.6-6.6-57.4-8.1c-18.8-1.4-37-1.8-54.2-1.5c-17.2,0.3-33.5,1.3-48.5,2.9c-15,1.6-28.6,3.8-40.5,6.5
	c-11.9,2.7-22.2,5.8-30.2,9.4c-8,3.5-13.8,7.6-16.6,11.4c-1.4,1.9-2,3.6-2.2,4.8c-0.1,0.6-0.2,1.1-0.2,1.4c0,0.3,0,0.5,0,0.5
	L57.2,42.3z M56.2,42.3c0,0,0-0.2,0-0.5c0-0.3,0.1-0.8,0.2-1.4c0.2-1.2,0.8-2.9,2.2-4.8c2.8-3.9,8.6-8,16.6-11.5
	c8-3.6,18.3-6.7,30.2-9.5c11.9-2.7,25.6-4.9,40.5-6.6c15-1.7,31.3-2.7,48.5-3.1c17.3-0.3,35.5,0,54.2,1.3
	c18.8,1.4,38.1,3.7,57.5,7.9c9.6,2.2,19.3,4.8,28.6,8.6c4.6,1.9,9.2,4.1,13.3,7.1c2,1.5,4,3.2,5.6,5.2c0.8,1,1.5,2.1,1.9,3.4
	c0.1,0.3,0.2,0.6,0.3,0.9l0.2,1l0.2,1l0,0.9c0,2.7-1.1,5.2-2.7,7.3c-1.6,2.1-3.5,3.7-5.6,5.3c-4.1,3-8.7,5.2-13.3,7.1
	c-9.3,3.8-19,6.5-28.6,8.6c-19.3,4.3-38.7,6.6-57.5,8.1c-18.8,1.4-37,1.8-54.3,1.5c-17.3-0.3-33.6-1.3-48.6-2.9
	c-15-1.6-28.7-3.8-40.6-6.5c-12-2.7-22.3-5.8-30.4-9.4c-8.1-3.5-14.1-7.7-17-11.8c-1.5-2-2.2-3.9-2.4-5.2c-0.1-0.3-0.1-0.7-0.1-0.9
	c0-0.3,0-0.4,0-0.6c0-0.3,0-0.5,0-0.5L56.2,42.3z"/>
</svg>
