<?xml version="1.0" encoding="utf-8"?>
<!-- Generator: Adobe Illustrator 16.0.3, SVG Export Plug-In . SVG Version: 6.00 Build 0)  -->
<!DOCTYPE svg PUBLIC "-//W3C//DTD SVG 1.1//EN" "http://www.w3.org/Graphics/SVG/1.1/DTD/svg11.dtd">
<svg version="1.1" id="Layer_1" xmlns="http://www.w3.org/2000/svg" xmlns:xlink="http://www.w3.org/1999/xlink" x="0px" y="0px"
	 width="250px" height="250px" viewBox="0 0 250 250" enable-background="new 0 0 250 250" xml:space="preserve">
<path fill="#262626" d="M38.399,181.515c0,0-9.416,5.851,0,12.979s39.708,26.727,47.727,30.291
	c8.019,3.563,35.638,9.8,50.783,12.474c0,0,10.691,2.672,14.255-7.127c0,0,8.018-23.238,12.474-28.103L38.399,181.515z"/>
<path fill="#2D2D2D" d="M151.657,230.131c0,0,0.396-1.144,1.056-2.968l0,0c0,0-9.158-0.597-15.172-2.379
	c-6.013-1.781-11.359-3.564-20.937-2.004c-9.578,1.559-21.249,3.094-32.898,0.546c1.152,0.617,2.138,1.113,2.913,1.458
	c8.019,3.563,35.638,9.8,50.783,12.474C137.402,237.258,148.094,239.93,151.657,230.131z"/>
<path fill="#1E1E1E" d="M41.494,181.515c0,0-6.348,2.245-3.676,10.674c0,0,9.022,6.167,22.72,14.815c0,0,1.336-2.634,10.024,0
	c8.686,2.635,14.366,2.376,17.039,0c2.673-2.378,16.121-7.575,16.121-7.575L41.494,181.515z"/>
<path fill="#5B5A5B" d="M213.085,194.925c0,0,7.574-20.033,8.019-28.942c0.445-8.909,3.564-30.292,7.128-38.312
	c3.563-8.017,4.453-22.273,4.009-29.846c-0.445-7.573,0.105-23.759,0.105-23.759s-7.233-18.561-14.806-26.58
	c-7.572-8.018-21.827-19.155-22.273-21.382s-11.583-7.127-11.583-7.127l-8.909-2.673c0,0-33.856,13.81-46.774,23.165l-2.564,5.797
	L213.085,194.925z"/>
<path fill="#353535" d="M128,39.469c0,0-18.867-10.246-27.029-10.691c-8.163-0.446-12.618-3.564-12.618-3.564
	s-4.9-0.891-8.909,8.464l16.928,10.691L128,49.642V39.469z"/>
<path fill="#262626" d="M213.085,194.925c0,0-3.563-40.971,0-52.33c3.564-11.358,1.287-28.729-1.583-34.745
	c-2.872-6.016-24.477-22.498-24.477-22.498l-11.806,27.62l-3.563,34.301l12.027,13.363L213.085,194.925z"/>
<path fill="#353535" d="M208.408,201.907c0,0,4.677-0.76,4.677-6.982s-11.137-19.143-12.027-22.26
	c-0.892-3.118-23.61-21.079-22.719-31.032c0.89-9.953-2.228-30.443,8.687-56.281l-18.488,16.482l-17.707,44.547l-0.916,28.956
	l9.557,14.699L208.408,201.907z"/>
<linearGradient id="SVGID_1_" gradientUnits="userSpaceOnUse" x1="18.4141" y1="142.5957" x2="140.0273" y2="142.5957">
	<stop  offset="0.1326" style="stop-color:#4F4F4F"/>
	<stop  offset="0.8605" style="stop-color:#353535"/>
</linearGradient>
<path fill="url(#SVGID_1_)" d="M42.469,97.825c0,0-14.7,11.137-24.055,28.063l93.104,61.477l7.127-1.782l17.374-28.51l4.009-15.44
	l-32.519-15.744L42.469,97.825z"/>
<linearGradient id="SVGID_2_" gradientUnits="userSpaceOnUse" x1="11.2871" y1="163.959" x2="114.6357" y2="163.959">
	<stop  offset="0" style="stop-color:#353535"/>
	<stop  offset="0.8381" style="stop-color:#4C4C4C"/>
</linearGradient>
<path fill="url(#SVGID_2_)" d="M114.636,185.583c0,0-63.257-45.438-96.222-59.694c0,0-7.127,23.166-7.127,33.857
	c0,0,36.528,31.184,57.02,41.875C68.307,201.621,77.217,206.074,114.636,185.583z"/>
<path fill="#545454" d="M91.418,196.81c0,0,22.773,4.812,40.814,8.819c18.041,4.01,18.71-1.855,62.143-3.601
	c0,0,9.355-1.84,14.033-0.121c0,0-18.711-16.993-44.771-17.661c0,0-29.644-3.912-49.002,1.337L91.418,196.81z"/>
<linearGradient id="SVGID_3_" gradientUnits="userSpaceOnUse" x1="50.0054" y1="70.7637" x2="183.6836" y2="70.7637">
	<stop  offset="0" style="stop-color:#707070"/>
	<stop  offset="0.5021" style="stop-color:#595959"/>
	<stop  offset="0.8127" style="stop-color:#4C4C4C"/>
</linearGradient>
<path fill="url(#SVGID_3_)" d="M172.547,75.997c0,0-27.173-15.591-36.082-23.165c-8.91-7.572-26.283-16.037-31.629-16.482
	c-5.346-0.446-25.392-2.673-25.392-2.673s-8.465,7.127-12.474,14.255c-4.008,7.128-11.582,15.147-12.918,18.71
	c-1.336,3.564-1.638,5.134-4.009,9.8c-2.372,4.667,109.428,31.408,109.428,31.408l24.213-26.507L172.547,75.997z"/>
<linearGradient id="SVGID_4_" gradientUnits="userSpaceOnUse" x1="42.4692" y1="107.8496" x2="159.4707" y2="107.8496">
	<stop  offset="0.0193" style="stop-color:#4F4F4F"/>
	<stop  offset="0.409" style="stop-color:#474747"/>
	<stop  offset="1" style="stop-color:#353535"/>
</linearGradient>
<path fill="url(#SVGID_4_)" d="M159.471,103.934c0,0-31.916-22.146-58.2-27.492c-26.282-5.346-51.229,0-51.229,0
	s-5.791,9.801-7.573,21.383c0,0,14.255,10.246,23.166,13.81c8.909,3.563,30.29,17.818,30.29,17.818s5.812,4.758,42.108,12.18
	C138.033,141.633,157.088,122.516,159.471,103.934z"/>
<path fill="#666666" d="M159.383,104.032l-12.678-7.076l-6.345-3.482l-6.368-3.432c-1.064-0.564-2.115-1.159-3.165-1.757
	l-3.194-1.704c-1.059-0.582-2.137-1.13-3.22-1.66c-1.08-0.543-2.165-1.08-3.261-1.583c-1.104-0.49-2.224-0.941-3.34-1.404
	c-0.559-0.229-1.115-0.466-1.681-0.674l-1.711-0.594c-1.14-0.398-2.287-0.775-3.436-1.144l-3.499-0.919
	c-0.584-0.144-1.159-0.324-1.751-0.437l-1.77-0.345c-1.178-0.212-2.361-0.497-3.527-0.646l-3.595-0.534
	c-1.199-0.189-2.383-0.266-3.572-0.412l-1.777-0.211l-1.795-0.145c-1.197-0.085-2.39-0.209-3.59-0.263l-3.596-0.152l-3.599-0.086
	c-1.2-0.05-2.399-0.005-3.6-0.025l-1.802-0.015l-1.801,0.035c-2.4,0.044-4.806,0.103-7.206,0.241
	c-2.406,0.099-4.805,0.294-7.208,0.475c-2.402,0.188-4.804,0.476-7.185,0.777l0.275-0.199c-0.802,1.207-1.542,2.489-2.285,3.76
	l-0.214-0.102c0.521-1.389,1.106-2.741,1.77-4.09l0.071-0.143l0.205-0.056c2.368-0.652,4.759-1.078,7.16-1.521
	c1.201-0.211,2.404-0.417,3.612-0.566c1.208-0.174,2.418-0.32,3.632-0.449c1.211-0.14,2.429-0.231,3.645-0.332
	c1.215-0.117,2.435-0.169,3.655-0.22l1.829-0.083l1.832-0.033c1.221-0.023,2.442-0.029,3.664,0.015
	c1.221,0.045,2.444,0.042,3.664,0.127l3.656,0.272c1.217,0.094,2.431,0.258,3.645,0.383l1.822,0.208l1.821,0.275
	c1.208,0.204,2.436,0.367,3.62,0.619l3.556,0.749c1.221,0.264,2.37,0.648,3.556,0.967c1.177,0.331,2.355,0.649,3.5,1.07l3.458,1.179
	l3.417,1.272c2.298,0.791,4.518,1.777,6.806,2.595c2.232,0.952,4.547,1.73,6.77,2.715l3.362,1.428c1.108,0.5,2.216,1.005,3.309,1.54
	c1.106,0.509,2.181,1.079,3.252,1.655c1.075,0.57,2.146,1.146,3.197,1.758l3.154,1.83l3.104,1.915
	c2.055,1.301,4.085,2.638,6.069,4.041c1.979,1.414,3.944,2.845,5.82,4.397L159.383,104.032z"/>
<path fill="#494949" d="M183.585,51.562c-0.536-0.612-1.013-1.269-1.461-1.95c-0.428-0.689-0.854-1.392-1.199-2.137
	c-0.354-0.742-0.688-1.501-0.926-2.304c-0.126-0.399-0.251-0.799-0.331-1.216c-0.099-0.413-0.191-0.828-0.222-1.259
	c-0.053-0.427-0.096-0.856-0.076-1.297l0.004-0.659c0.012-0.219,0.055-0.441,0.082-0.662l0.099-0.665
	c0.054-0.218,0.132-0.434,0.198-0.651l0.211-0.649c0.093-0.208,0.205-0.41,0.309-0.614l0.323-0.61
	c0.047-0.097,0.183-0.325,0.27-0.481c0.087-0.163,0.115-0.283,0.189-0.42c0.063-0.137,0.114-0.309,0.174-0.461
	c0.207-0.639,0.294-1.332,0.337-2.045c0.05-1.431-0.151-2.952-0.525-4.453c-0.371-1.502-0.895-3-1.562-4.43
	c-0.655-1.439-1.45-2.816-2.317-4.143c-0.863-1.331-1.823-2.599-2.826-3.829l0.633,0.188c-1.578,0.718-3.151,1.463-4.717,2.212
	c-1.571,0.739-3.151,1.455-4.733,2.164l-9.467,4.287l-9.503,4.166l-2.37,1.057c-0.782,0.364-1.586,0.699-2.365,1.071l-2.362,1.09
	c-0.775,0.386-1.552,0.774-2.349,1.14l-0.131-0.197c1.356-1.107,2.771-2.157,4.233-3.12c0.723-0.504,1.477-0.943,2.22-1.408
	c0.741-0.47,1.496-0.912,2.26-1.336c0.764-0.425,1.515-0.884,2.291-1.278l2.32-1.223c0.776-0.398,1.565-0.77,2.351-1.156
	c0.785-0.381,1.566-0.769,2.366-1.119c1.589-0.718,3.189-1.41,4.807-2.063c1.615-0.655,3.237-1.292,4.864-1.916
	c1.626-0.626,3.264-1.224,4.917-1.779l4.982-1.607l0.421-0.136l0.21,0.324c0.877,1.349,1.73,2.708,2.574,4.072
	c0.842,1.367,1.659,2.747,2.458,4.148c0.783,1.409,1.563,2.835,2.189,4.364c0.62,1.523,1.129,3.158,1.167,4.923
	c0.034,0.879-0.077,1.788-0.35,2.672c-0.078,0.222-0.139,0.435-0.236,0.662c-0.101,0.223-0.221,0.474-0.326,0.66l-0.336,0.549
	l-0.247,0.442c-0.082,0.148-0.175,0.292-0.25,0.443l-0.171,0.484c-0.055,0.163-0.125,0.32-0.171,0.486l-0.104,0.515
	c-0.033,0.172-0.083,0.34-0.106,0.518l-0.04,0.537c-0.046,0.357-0.035,0.723-0.016,1.091c0,0.367,0.04,0.739,0.083,1.111
	c0.03,0.375,0.103,0.747,0.176,1.121c0.145,0.747,0.333,1.498,0.563,2.24c0.454,1.488,1.044,2.958,1.714,4.407L183.585,51.562z"/>
<path fill="#636363" d="M114.545,185.712c0,0-1.586-0.829-4.269-2.401c-0.675-0.386-1.41-0.834-2.209-1.317
	c-0.805-0.478-1.672-1-2.585-1.579c-1.839-1.132-3.887-2.449-6.119-3.89c-2.212-1.466-4.628-3.026-7.096-4.808
	c-2.484-1.756-4.996-3.767-7.629-5.802c-2.644-2.018-5.393-4.082-8.339-5.947c-2.918-1.905-5.968-3.714-9.078-5.42
	c-3.09-1.74-6.212-3.42-9.213-5.185c-2.997-1.776-5.979-3.461-8.846-5.122c-2.86-1.673-5.645-3.242-8.238-4.821
	c-2.585-1.594-5.067-3.021-7.333-4.393c-2.248-1.412-4.369-2.577-6.213-3.693c-0.929-0.545-1.791-1.068-2.588-1.557
	c-0.811-0.461-1.556-0.883-2.227-1.264c-2.693-1.527-4.212-2.479-4.212-2.479l0.125-0.29c0,0,1.695,0.538,4.628,1.618
	c0.734,0.27,1.55,0.563,2.421,0.916c0.867,0.365,1.8,0.765,2.792,1.205c1.988,0.873,4.242,1.855,6.62,3.064
	c2.373,1.221,4.99,2.474,7.642,3.989c2.665,1.494,5.475,3.079,8.274,4.886c2.821,1.771,5.727,3.616,8.63,5.564
	c1.458,0.964,2.913,1.96,4.364,2.971c1.431,1.041,2.869,2.086,4.307,3.129c2.875,2.088,5.752,4.163,8.672,6.074
	c2.91,1.928,5.847,3.708,8.746,5.355c2.892,1.653,5.692,3.253,8.255,4.901c2.557,1.663,4.906,3.332,7.061,4.893
	c2.139,1.584,4.104,3.027,5.798,4.377c1.711,1.324,3.169,2.525,4.361,3.528c2.387,1.998,3.679,3.237,3.679,3.237L114.545,185.712z"
	/>
<path opacity="0.2" d="M113.811,201.601c0,0,18.945-18.244,65.08-14.235c0,0-51.576-14.283-83.572,7.56l-2.373,1.573
	L113.811,201.601z"/>
<path opacity="0.12" d="M188.707,190.572c-4.038-1.646-25.858-8.054-34.546-7.053c-0.194,0.021-0.404,0.051-0.613,0.08
	c14.175,1.213,24.416,4.041,24.416,4.041c-46.136-4.011-65.08,14.234-65.08,14.234l-4.821-1.179l-0.341,0.197l21.329,4.512
	c0,0,8.105,4.824,29.472,0c0,0,17.749-5.515,27.574-5.181C195.925,200.559,192.744,192.221,188.707,190.572z"/>
<path opacity="0.1" d="M95.619,190.261c0,0-13.354,8.353-22.714,9.688c0,0-7.689,0-18.047-9.688"/>
<path opacity="0.07" d="M70.442,160.242c0,0-28.281-19.429-42.646-26.777c0,0-3.675,7.684-3.008,11.691
	c0.669,4.01,16.318,16.705,17.681,17.04c1.364,0.333,4.036-1.337,10.384,0C59.201,163.531,71.66,168.313,70.442,160.242z"/>
<path opacity="0.1" d="M52.696,105.614c0,0,10.525,13.038,20.208,20.275c9.683,7.241,22.058,11.571,28.066,14.25
	c6.007,2.679,16.037,3.3,21.713,9.002c5.677,5.705,7.013,11.385,7.013,11.385s4.185-11.105,7.34-15.936L128,141.633
	c0,0-8.661-2.156-16.345-5.163c-7.684-3.005-27.948-13.884-27.948-13.884l-8.468-5.067l-6.683-3.434
	C68.556,114.085,52.872,107.167,52.696,105.614z"/>
<path fill="#282828" d="M43.051,96.231c-0.067,0.875-0.143,1.749-0.231,2.619l-0.142-0.351l6.654,4
	c2.222,1.321,4.434,2.647,6.665,3.934c1.108,0.654,2.236,1.272,3.358,1.891c1.112,0.64,2.252,1.217,3.371,1.834l1.698,0.871
	l1.738,0.84c0.583,0.288,1.161,0.572,1.742,0.877l1.735,0.965c1.126,0.672,2.258,1.314,3.361,2.006
	c1.126,0.652,2.219,1.356,3.344,2.005c1.112,0.667,2.225,1.334,3.349,1.984l3.362,1.962c4.505,2.582,9.064,5.078,13.457,7.869
	l0.083,0.063c0.065,0.037,0.284,0.174,0.454,0.265c0.174,0.103,0.373,0.196,0.564,0.293c0.376,0.2,0.795,0.37,1.19,0.558
	c0.817,0.347,1.648,0.679,2.495,0.988c1.686,0.625,3.409,1.193,5.139,1.73l2.602,0.808l2.62,0.765
	c0.866,0.275,1.746,0.519,2.621,0.773l2.629,0.75c1.759,0.487,3.508,1.012,5.275,1.477l5.289,1.465l5.295,1.472
	c1.762,0.515,3.532,0.987,5.289,1.536l-0.047,0.232c-1.829-0.205-3.644-0.488-5.467-0.729c-1.818-0.269-3.627-0.588-5.438-0.905
	c-1.814-0.297-3.607-0.699-5.413-1.046c-1.802-0.363-3.591-0.799-5.387-1.201l-2.676-0.68c-0.892-0.231-1.786-0.451-2.673-0.706
	c-1.772-0.507-3.538-1.047-5.295-1.624c-1.75-0.605-3.494-1.229-5.218-1.945c-0.861-0.354-1.719-0.734-2.571-1.14
	c-0.425-0.222-0.85-0.412-1.274-0.657c-0.212-0.119-0.423-0.23-0.64-0.369c-0.226-0.138-0.397-0.242-0.701-0.477l0.083,0.062
	c-2.118-1.474-4.24-2.963-6.349-4.465c-2.116-1.494-4.236-2.986-6.4-4.409c-2.169-1.414-4.365-2.786-6.626-4.045
	c-2.251-1.274-4.574-2.426-6.927-3.466l-1.757-0.741l-1.817-0.687l-1.833-0.696c-0.612-0.25-1.208-0.533-1.812-0.798
	c-2.39-1.11-4.652-2.43-6.873-3.8c-1.119-0.673-2.203-1.398-3.289-2.119c-1.085-0.719-2.155-1.463-3.21-2.225
	c-1.061-0.755-2.104-1.533-3.135-2.328c-1.036-0.786-2.047-1.605-3.05-2.44l-0.192-0.159l0.05-0.191
	c0.221-0.847,0.455-1.692,0.697-2.535L43.051,96.231z"/>
<path opacity="0.05" fill="#FFFFFF" d="M88.734,145.223c0,0-10.718,10.667-16.705,18.503c0,0,21.736,11.346,29.578,17.7
	c0,0,1.479-7.343-2.69-10.35c-4.168-3.007-11.519-2.809-10.516-7.753c1.002-4.943,4.624-12.735,2.981-14.185
	C89.738,147.688,91.444,142.467,88.734,145.223z"/>
<path opacity="0.51" fill="#3A3A3A" d="M137.838,141.503c1.849-2.842,4.13-5.86,7.012-9.017c1.531-1.677,2.903-3.395,4.147-5.123
	c-5.28-2.537-34.041-16.442-41.355-21.724c-10.924-7.891-33.537-20.931-41.196-20.263c0,0,1.735,3.509,2.541,7.964
	c0.806,4.454,11.222,7.686,16.481,14.534c5.261,6.849,3.034,10.413,6.598,13.085c3.563,2.672,14.689,4.839,17.681,9.8
	c2.992,4.962,26.364,10.518,26.364,10.518S136.778,141.5,137.838,141.503z"/>
<path fill="#3A3A3A" d="M149.4,128.809c0,0-5.281-2.598-13.132-6.618c-3.926-2.013-8.497-4.38-13.358-6.993
	c-2.429-1.308-4.936-2.668-7.454-4.109c-2.52-1.441-5.071-2.907-7.524-4.619c-2.396-1.73-4.762-3.406-7.185-4.992
	c-2.406-1.591-4.816-3.097-7.17-4.517c-4.711-2.837-9.223-5.297-13.188-7.206c-3.963-1.911-7.394-3.246-9.881-3.881
	c-1.242-0.315-2.241-0.487-2.929-0.513c-0.344-0.039-0.607-0.011-0.784-0.014c-0.179,0.003-0.27,0.005-0.27,0.005
	s0.091-0.003,0.27-0.012c0.177-0.001,0.442-0.036,0.785-0.006c0.69,0.008,1.698,0.155,2.952,0.441
	c2.513,0.575,5.99,1.827,10.014,3.644c4.025,1.814,8.611,4.167,13.41,6.894c2.398,1.366,4.854,2.815,7.313,4.353
	c2.458,1.52,4.931,3.179,7.34,4.83c2.409,1.593,4.995,2.997,7.53,4.362c2.538,1.369,5.069,2.661,7.522,3.903
	c4.909,2.481,9.528,4.728,13.496,6.637c7.938,3.815,13.269,6.272,13.269,6.272L149.4,128.809z"/>
<linearGradient id="SVGID_5_" gradientUnits="userSpaceOnUse" x1="146.0771" y1="137.8066" x2="146.0771" y2="179.333">
	<stop  offset="0.0051" style="stop-color:#4C4C4C"/>
	<stop  offset="1" style="stop-color:#353535"/>
</linearGradient>
<path opacity="0.25" fill="url(#SVGID_5_)" d="M159.45,179.333c0,0-13.14-17.806-2.236-41.526l-10.144,2.332l-9.037,15.598
	l-5.329,23.597C132.704,179.333,145.771,176.423,159.45,179.333z"/>
<linearGradient id="SVGID_6_" gradientUnits="userSpaceOnUse" x1="122.6841" y1="86.6143" x2="178.8906" y2="86.6143">
	<stop  offset="0.0051" style="stop-color:#4C4C4C"/>
	<stop  offset="1" style="stop-color:#353535"/>
</linearGradient>
<path opacity="0.25" fill="url(#SVGID_6_)" d="M178.891,82.233c0,0-16.451,10.469-17.12,11.583c0,0-3.563,2.227-3.34,5.346
	c0,0-24.719-15.592-35.747-19.378l17.343-5.717l8.97,3.49c0,0,5.46-2.485,10.453-1.465c4.993,1.02,7.889,2.356,11.008,2.356
	C170.458,78.447,176.943,81.013,178.891,82.233z"/>
<linearGradient id="SVGID_7_" gradientUnits="userSpaceOnUse" x1="56.5283" y1="54.0898" x2="103.7217" y2="54.0898">
	<stop  offset="0" style="stop-color:#707070"/>
	<stop  offset="0.8127" style="stop-color:#4C4C4C"/>
</linearGradient>
<path opacity="0.25" fill="url(#SVGID_7_)" d="M56.528,70.764c0,0,17.373-2.561,31.072,0l16.121-29.513
	c0,0-21.716-2.991-23.596-3.834C80.125,37.417,58.534,64.194,56.528,70.764z"/>
<linearGradient id="SVGID_8_" gradientUnits="userSpaceOnUse" x1="132.7041" y1="34.2344" x2="177.4512" y2="34.2344">
	<stop  offset="0.0051" style="stop-color:#4C4C4C"/>
	<stop  offset="1" style="stop-color:#353535"/>
</linearGradient>
<path opacity="0.25" fill="url(#SVGID_8_)" d="M176.806,47.265c0,0-2.005-7.334,0-9.848c2.004-2.514-1.001-14.208-4.344-16.212
	c0,0-32.491,14.695-39.758,19.378C132.704,40.583,164.443,31.896,176.806,47.265z"/>
<path opacity="0.12" d="M156.956,156.852c0,0,10.829-21.502,15.506-23.781c0,0-2.687,17.196,15.529,25.499l-9.101-12.75
	c0,0-1.054-7.01-0.414-9.683c0.639-2.674,1.391-20.45,1.391-20.45s1.722-20.381,4.676-21.85c0,0-3.565,2.212-5.652,6.219
	C176.806,104.062,154.985,145.193,156.956,156.852z"/>
<path fill="#161616" d="M210.506,201.531c0,0,0.102-0.073,0.303-0.213c0.189-0.144,0.467-0.375,0.779-0.715
	c0.625-0.668,1.37-1.862,1.589-3.565c0.056-0.426,0.084-0.875,0.089-1.347c0-0.118,0-0.238,0-0.358l0.002-0.092
	c0.001,0.043-0.007-0.044-0.011-0.058l-0.024-0.188c-0.031-0.256-0.064-0.515-0.098-0.779c-0.095-0.516-0.272-0.987-0.419-1.51
	c-0.219-0.519-0.41-1.066-0.671-1.61c-1.038-2.183-2.474-4.543-4.146-7.054c-1.649-2.532-3.592-5.166-5.479-8.138
	c-0.452-0.775-0.934-1.489-1.301-2.468l-0.067-0.18l-0.033-0.092c-0.01-0.029,0.034,0.103,0.008,0.028l-0.016-0.037
	c-0.041-0.1-0.083-0.222-0.126-0.3c-0.097-0.137-0.146-0.259-0.29-0.445c-0.237-0.345-0.521-0.689-0.805-1.034
	c-1.157-1.373-2.445-2.729-3.738-4.115c-2.587-2.778-5.307-5.613-7.985-8.572c-1.348-1.475-2.67-2.998-3.923-4.587
	c-1.275-1.575-2.492-3.216-3.541-4.987c-1.034-1.766-1.983-3.661-2.251-5.82c-0.047-0.266-0.057-0.537-0.049-0.813
	c0.004-0.28-0.007-0.545,0.011-0.79l0.067-1.505c0.024-0.999,0.03-1.97,0.024-2.964c-0.024-3.968-0.094-7.905-0.008-11.718
	c0.073-3.813,0.334-7.506,0.784-10.98c0.394-3.483,1.047-6.739,1.713-9.72c0.693-2.977,1.414-5.685,2.218-8.033
	c0.188-0.59,0.373-1.161,0.551-1.712c0.199-0.542,0.394-1.066,0.58-1.569c0.378-1.002,0.726-1.923,1.04-2.754
	c0.681-1.642,1.268-2.909,1.646-3.781c0.394-0.865,0.601-1.327,0.601-1.327l0.146,0.062c0,0-0.164,0.479-0.469,1.378
	c-0.3,0.9-0.789,2.202-1.332,3.882c-0.257,0.845-0.542,1.78-0.852,2.799c-0.156,0.508-0.316,1.037-0.483,1.585
	c-0.145,0.556-0.295,1.132-0.448,1.726c-0.634,2.372-1.269,5.067-1.848,8.027c-0.255,1.487-0.581,3.024-0.777,4.639
	c-0.117,0.804-0.237,1.621-0.357,2.451c-0.097,0.833-0.192,1.679-0.291,2.537c-0.102,0.858-0.196,1.728-0.256,2.613
	c-0.076,0.883-0.152,1.776-0.231,2.68c-0.11,1.812-0.225,3.662-0.299,5.549c-0.166,3.773-0.154,7.682-0.236,11.682
	c-0.027,0.998-0.069,2.029-0.129,3.033c-0.07,1.004-0.208,2.023-0.138,2.915c0.127,1.878,0.912,3.75,1.829,5.507
	c0.936,1.761,2.058,3.435,3.249,5.049c1.217,1.597,2.506,3.13,3.821,4.621c2.646,2.969,5.466,5.693,8.226,8.299
	c1.375,1.313,2.731,2.592,4.007,3.946c0.317,0.344,0.63,0.686,0.929,1.068c0.144,0.165,0.314,0.435,0.464,0.674
	c0.066,0.116,0.101,0.208,0.152,0.313l0.017,0.038c-0.015-0.05,0.042,0.104,0.042,0.104l0.029,0.063l0.058,0.132
	c0.277,0.691,0.789,1.454,1.237,2.161c1.902,2.863,3.808,5.57,5.437,8.15c1.62,2.587,3.029,5.031,3.967,7.375
	c0.242,0.58,0.417,1.175,0.615,1.729c0.142,0.59,0.307,1.185,0.371,1.721c0.021,0.266,0.039,0.527,0.059,0.781l0.015,0.191
	l0.008,0.131l-0.006,0.098c-0.006,0.129-0.014,0.258-0.02,0.384c-0.029,0.504-0.112,0.982-0.204,1.433
	c-0.391,1.81-1.296,3.037-2.022,3.674c-0.365,0.323-0.676,0.527-0.894,0.655c-0.215,0.12-0.325,0.183-0.325,0.183L210.506,201.531z"
	/>
<path opacity="0.12" d="M219.236,78.67c0,0,8.273-0.555,10.69-2.579c0,0-2.004,5.866-1.336,9.568c0.669,3.702,2.674,10.148,0,19.955
	c0,0-7.683-0.549-9.354,9.473c-1.67,10.023-0.305,20.034-4.327,25.052c0,0,3.086-32.29-9.323-39.195
	C205.586,100.944,220.239,91.032,219.236,78.67z"/>
<path fill="#353535" d="M143.052,57.747c0,0,31.362-8.033,40.632-6.251c0,0,13.28,16.186,22.635,22.57c0,0,7.128,5.94,12.918,4.604
	c0,0,0.17,12.919-10.828,22.274h-2.822"/>
<path fill="#686868" d="M169.413,76.158c-1.861-1.032-3.688-2.118-5.512-3.211c-1.819-1.097-3.618-2.228-5.41-3.368
	c-3.574-2.298-7.118-4.645-10.561-7.141c-1.725-1.243-3.396-2.564-5.075-3.869c-1.678-1.31-3.315-2.67-4.958-4.023
	c-1.628-1.389-3.217-2.769-4.95-3.985c-1.713-1.24-3.504-2.375-5.332-3.438c-1.828-1.069-3.687-2.079-5.575-3.031
	c-1.892-0.944-3.781-1.888-5.705-2.754c-1.925-0.863-3.855-1.71-5.819-2.446c-1.951-0.709-3.983-1.436-5.901-1.622
	c-4.248-0.353-8.462-0.84-12.68-1.348c-4.214-0.52-8.425-1.068-12.626-1.69l0.348-0.106c-1.157,0.922-2.282,1.918-3.405,2.903
	c-1.122,0.992-2.207,2.024-3.289,3.066l-0.116-0.107c0.95-1.168,1.957-2.288,2.988-3.388c1.028-1.105,2.105-2.152,3.225-3.184
	l0.133-0.123l0.216,0.016c4.237,0.313,8.465,0.687,12.691,1.072l12.66,1.225c1.163,0.122,2.227,0.428,3.264,0.754
	c1.037,0.333,2.046,0.711,3.044,1.109c1.99,0.807,3.942,1.685,5.848,2.65c3.827,1.901,7.496,4.087,11.064,6.41
	c1.779,1.173,3.537,2.374,5.256,3.633c0.859,0.626,1.701,1.283,2.541,1.943c0.817,0.678,1.648,1.338,2.481,1.986
	c1.683,1.284,3.433,2.483,5.179,3.682l5.275,3.55c1.756,1.187,3.497,2.395,5.231,3.612l5.217,3.642l5.19,3.685
	c1.721,1.247,3.444,2.485,5.146,3.761L169.413,76.158z"/>
<linearGradient id="SVGID_9_" gradientUnits="userSpaceOnUse" x1="114.6357" y1="133.4629" x2="187.0254" y2="133.4629">
	<stop  offset="0.019" style="stop-color:#4C4C4C"/>
	<stop  offset="0.887" style="stop-color:#605F60"/>
</linearGradient>
<path fill="url(#SVGID_9_)" d="M163.638,184.246c0,0-6.682-20.715-6.682-27.395c0-6.684-0.668-18.043,25.392-62.813l4.678-8.687
	l-3.342-4.009l-23.387,17.373c0,0-1.337,18.709-15.37,34.079c-14.03,15.369-14.03,27.583-17.372,31.165
	c-3.341,3.583-12.473,14.272-12.919,21.623C114.636,185.583,151.609,181.515,163.638,184.246z"/>
<path fill="#5B5B5B" d="M160.942,99.168c0,0-0.002,0.391-0.044,1.124c-0.048,0.732-0.147,1.803-0.338,3.16
	c-0.376,2.711-1.191,6.568-2.827,10.992c-0.8,2.217-1.853,4.552-3.117,6.939c-0.655,1.18-1.382,2.366-2.155,3.553
	c-0.408,0.579-0.819,1.164-1.236,1.756c-0.207,0.295-0.417,0.592-0.626,0.889l-0.685,0.859c-0.46,0.572-0.924,1.15-1.391,1.73
	c-0.46,0.584-0.989,1.119-1.481,1.691c-0.991,1.129-1.992,2.27-3.004,3.422c-1.032,1.136-1.904,2.396-2.848,3.613
	c-0.44,0.633-0.856,1.284-1.287,1.926l-0.64,0.966l-0.592,0.998c-1.587,2.651-2.974,5.408-4.152,8.198
	c-1.199,2.786-2.164,5.597-3.086,8.375c-0.463,1.388-0.949,2.765-1.658,4.103c-0.188,0.333-0.354,0.667-0.619,0.983l-0.365,0.475
	c-0.115,0.141-0.231,0.259-0.348,0.385c-0.477,0.503-0.915,0.991-1.358,1.484c-1.749,1.984-3.356,3.911-4.753,5.751
	c-1.407,1.833-2.599,3.583-3.593,5.17c-1.008,1.584-1.713,3.057-2.263,4.281c-0.529,1.233-0.828,2.25-0.983,2.954
	c-0.138,0.709-0.211,1.088-0.211,1.088l-0.159-0.009c0,0,0.025-0.394,0.073-1.128c0.075-0.734,0.279-1.807,0.688-3.127
	c0.837-2.634,2.626-6.186,5.307-10.059c1.345-1.933,2.896-3.959,4.652-6.006c0.439-0.512,0.896-1.04,1.354-1.544
	c0.109-0.128,0.239-0.252,0.34-0.382l0.266-0.349c0.191-0.211,0.336-0.505,0.493-0.783c0.61-1.139,1.091-2.473,1.594-3.834
	c0.99-2.728,2.038-5.604,3.359-8.399c0.347-0.692,0.671-1.397,1.037-2.087c0.37-0.684,0.744-1.37,1.117-2.057
	c0.818-1.335,1.631-2.675,2.54-3.951l0.659-0.972l0.703-0.939l1.413-1.864c0.491-0.605,0.98-1.209,1.47-1.811
	c0.475-0.614,0.976-1.198,1.486-1.767c1.004-1.15,2.003-2.309,2.936-3.471c0.46-0.588,0.966-1.134,1.372-1.75
	c0.417-0.605,0.83-1.209,1.24-1.806l0.609-0.892c0.186-0.309,0.369-0.614,0.553-0.918c0.366-0.608,0.729-1.211,1.087-1.807
	c0.353-0.598,0.648-1.222,0.976-1.816c0.314-0.6,0.666-1.172,0.942-1.773c0.568-1.194,1.188-2.321,1.672-3.466
	c0.257-0.567,0.509-1.124,0.757-1.67c0.237-0.551,0.444-1.103,0.661-1.638c0.889-2.132,1.538-4.15,2.126-5.937
	c0.264-0.903,0.512-1.748,0.739-2.529c0.202-0.789,0.41-1.51,0.565-2.169c0.334-1.313,0.538-2.359,0.675-3.073
	c0.144-0.712,0.2-1.097,0.2-1.097L160.942,99.168z"/>
<path fill="#848384" d="M187.093,85.392c0,0-0.172,0.357-0.496,1.027c-0.332,0.665-0.819,1.64-1.44,2.882
	c-1.247,2.48-3.076,5.992-5.314,10.183c-1.129,2.089-2.334,4.361-3.663,6.735c-1.322,2.378-2.797,4.842-4.263,7.425
	c-1.477,2.577-2.95,5.27-4.301,8.078c-0.331,0.704-0.682,1.405-1.003,2.119c-0.314,0.718-0.63,1.437-0.946,2.159
	c-0.587,1.455-1.141,2.934-1.695,4.422c-1.109,2.986-2.33,5.904-3.3,8.832c-0.987,2.923-1.711,5.858-2.129,8.745
	c-0.386,2.891-0.516,5.709-0.453,8.388c0.073,2.678,0.318,5.211,0.66,7.538c0.115,1.173,0.37,2.274,0.556,3.334
	c0.21,1.054,0.34,2.07,0.586,2.998c0.453,1.865,0.777,3.516,1.17,4.844c0.735,2.665,1.131,4.205,1.131,4.205l-0.149,0.053
	c0,0-0.593-1.47-1.583-4.072c-0.122-0.325-0.264-0.665-0.389-1.03c-0.115-0.367-0.235-0.749-0.36-1.15
	c-0.249-0.804-0.521-1.67-0.811-2.597c-0.312-0.922-0.54-1.933-0.8-2.991c-0.243-1.064-0.565-2.172-0.743-3.362
	c-0.182-1.186-0.457-2.41-0.586-3.703c-0.063-0.646-0.129-1.304-0.195-1.971c-0.072-0.668-0.132-1.348-0.133-2.038
	c-0.02-0.693-0.038-1.394-0.058-2.105c-0.037-0.71,0.057-1.43,0.079-2.154c0.038-1.458,0.245-2.934,0.459-4.433
	c0.515-2.981,1.326-6.011,2.436-8.964c0.561-1.476,1.183-2.932,1.821-4.381c0.661-1.433,1.324-2.871,1.988-4.31
	c1.257-2.901,2.632-5.796,4.014-8.585c1.368-2.807,2.72-5.566,3.979-8.262c1.3-2.676,2.528-5.278,3.799-7.69
	c1.269-2.413,2.539-4.655,3.706-6.726c2.365-4.127,4.426-7.515,5.913-9.859c0.75-1.169,1.34-2.086,1.742-2.712
	c0.415-0.619,0.635-0.949,0.635-0.949L187.093,85.392z"/>
<path fill="#565656" d="M208.329,201.995c-0.829-0.599-1.663-1.177-2.51-1.745c-0.84-0.572-1.706-1.107-2.567-1.645l-2.603-1.574
	l-2.642-1.496l-2.68-1.42l-2.721-1.328c-0.912-0.432-1.838-0.832-2.756-1.249c-0.911-0.431-1.854-0.783-2.792-1.15
	c-0.938-0.367-1.857-0.784-2.816-1.09c-0.955-0.322-1.892-0.689-2.84-1.033c-0.962-0.293-1.918-0.617-2.879-0.925
	c-0.48-0.152-0.957-0.324-1.443-0.46l-1.466-0.376c-0.98-0.241-1.956-0.523-2.943-0.739l-2.989-0.554
	c-0.5-0.079-1-0.185-1.504-0.238l-1.514-0.138l-3.036-0.227l-0.037-0.003h-0.001c-1.009-0.142-2.033-0.231-3.052-0.334
	c-1.018-0.099-2.041-0.175-3.064-0.238c-2.044-0.14-4.094-0.188-6.142-0.233c-1.022-0.03-2.047-0.03-3.071-0.028
	c-1.023,0-2.047-0.005-3.068,0.021l-3.066,0.026l-3.062,0.081l-3.057,0.117c-1.02,0.028-2.036,0.091-3.051,0.164
	c-1.015,0.079-2.034,0.117-3.043,0.227l-3.03,0.308l-3.016,0.38l-1.506,0.197l-1.489,0.264c-0.99,0.193-2.005,0.283-2.978,0.53
	l-2.946,0.652l0.208-0.077c-1.948,0.909-3.912,1.784-5.867,2.678c-1.966,0.871-3.923,1.762-5.902,2.605l-5.931,2.544
	c-1.997,0.811-3.975,1.653-5.988,2.428l-0.104-0.214c1.857-1.098,3.749-2.123,5.621-3.187l5.678-3.069
	c1.891-1.027,3.804-2.008,5.707-3.009c1.916-0.978,3.821-1.971,5.742-2.935l0.104-0.052l0.105-0.025l3.049-0.758
	c0.507-0.138,1.019-0.247,1.533-0.334l1.54-0.282l1.542-0.266l1.549-0.198c1.033-0.116,2.063-0.279,3.099-0.354l3.105-0.217
	c1.034-0.08,2.07-0.086,3.105-0.134c1.035-0.044,2.068-0.075,3.102-0.071c1.035,0,2.068-0.035,3.101-0.005
	c2.067,0.056,4.131,0.109,6.189,0.237c2.061,0.136,4.116,0.31,6.167,0.508c2.053,0.18,4.098,0.425,6.144,0.642l3.067,0.336
	l3.07,0.357l-0.039-0.003l3.077,0.164l1.541,0.059c0.515,0.025,1.023,0.106,1.534,0.155l3.08,0.292
	c1.022,0.129,2.035,0.324,3.057,0.485l1.53,0.255c0.508,0.095,1.007,0.228,1.513,0.341c1.005,0.241,2.021,0.453,3.02,0.726
	c0.983,0.318,1.978,0.612,2.955,0.951c0.99,0.311,1.943,0.715,2.902,1.103c0.956,0.399,1.918,0.781,2.843,1.244
	c0.929,0.456,1.881,0.863,2.788,1.358l2.718,1.491c0.888,0.525,1.764,1.074,2.64,1.616c0.863,0.566,1.719,1.143,2.566,1.729
	c0.829,0.615,1.664,1.217,2.473,1.854c1.597,1.303,3.184,2.616,4.603,4.109L208.329,201.995z"/>
<path opacity="0.02" fill="#FFFFFF" d="M224.778,73.753c0,0-11.114,6.253-25.392-11.12c0,0,1.061-7.684,8.548-3.341
	c7.49,4.344,10.495,6.641,14.839,6.662C227.117,65.974,229.14,73.609,224.778,73.753z"/>
<path fill="#7A7A7A" d="M232.236,74.11c-1.54-2.756-2.977-5.536-4.448-8.29l-2.199-4.125l-2.243-4.084l-2.249-4.071l-1.175-2.007
	c-0.404-0.66-0.842-1.296-1.274-1.942c-0.447-0.628-0.942-1.223-1.425-1.824c-0.514-0.597-1.053-1.158-1.598-1.716
	c-1.092-1.119-2.237-2.185-3.418-3.215c-2.354-2.065-4.856-3.962-7.304-5.929c-1.228-0.979-2.429-1.99-3.628-3.009
	c-1.194-1.024-2.395-2.046-3.567-3.121c-0.586-0.541-1.17-1.084-1.746-1.664c-0.29-0.29-0.568-0.596-0.848-0.921
	c-0.282-0.351-0.554-0.647-0.847-1.192c-0.064-0.098-0.156-0.341-0.213-0.541l-0.022-0.078c-0.036-0.138,0.037,0.143,0.028,0.109
	l-0.006-0.017l-0.023-0.07c-0.016-0.038-0.035-0.114-0.044-0.118c-0.02,0.024,0.034,0.097,0.008,0.06l-0.101-0.126
	c-0.167-0.195-0.433-0.417-0.688-0.64c-0.54-0.444-1.156-0.871-1.79-1.278c-1.28-0.806-2.616-1.588-3.973-2.335
	c-1.357-0.742-2.732-1.493-4.11-2.193l0.102,0.037c-1.46-0.532-2.916-1.071-4.367-1.632l-2.168-0.866
	c-0.724-0.286-1.443-0.582-2.159-0.894l0.067-0.228c0.77,0.134,1.533,0.284,2.295,0.443l2.286,0.471
	c1.521,0.33,3.032,0.681,4.544,1.041l0.014,0.003l0.086,0.033c1.487,0.579,2.946,1.176,4.389,1.846
	c1.441,0.668,2.877,1.363,4.272,2.196c0.701,0.416,1.395,0.853,2.088,1.38c0.35,0.274,0.687,0.559,1.033,0.959
	c0.088,0.101,0.177,0.224,0.262,0.337c0.09,0.12,0.226,0.373,0.308,0.565c0.034,0.083,0.036,0.103,0.056,0.158l0.022,0.069
	l0.007,0.018c-0.007-0.022,0.072,0.27,0.039,0.144l0.002-0.008c0.011-0.017-0.035-0.066,0.01,0.001
	c0.07,0.152,0.31,0.46,0.522,0.716l0.73,0.821c0.509,0.554,1.051,1.102,1.598,1.646c1.104,1.084,2.227,2.169,3.365,3.242
	c1.136,1.076,2.28,2.146,3.397,3.251c2.241,2.202,4.418,4.482,6.648,6.697l3.363,3.311l1.687,1.652l1.652,1.734
	c0.514,0.606,1.057,1.194,1.565,1.807l1.483,1.876c0.458,0.647,0.93,1.29,1.38,1.948c0.419,0.673,0.861,1.333,1.263,2.018
	c0.391,0.689,0.787,1.375,1.158,2.075l1.071,2.118c0.708,1.415,1.337,2.864,1.964,4.313c0.604,1.458,1.178,2.929,1.699,4.418
	c0.515,1.493,1.006,2.994,1.389,4.533L232.236,74.11z"/>
<g opacity="0.3">
	<path fill="#FFFFFF" d="M108.422,352.26c0,0,2.015,0.207,5.791,0.598c3.774,0.412,9.313,1.018,16.327,2.072
		c7.013,1.049,15.518,2.469,25.142,4.793c4.803,1.191,9.896,2.59,15.116,4.584c2.606,1.001,5.241,2.166,7.813,3.656
		c1.265,0.784,2.553,1.581,3.72,2.618c1.164,1.021,2.288,2.209,3.026,3.742l0.266,0.58c0.076,0.201,0.125,0.416,0.187,0.623
		c0.142,0.414,0.193,0.852,0.224,1.295l0.029,0.332c0.009,0.045-0.002,0.211-0.002,0.211l-0.009,0.144
		c-0.017,0.196-0.016,0.372-0.045,0.588c-0.081,0.468-0.174,0.941-0.332,1.339c-0.573,1.684-1.717,3.002-2.912,4.149
		c-2.457,2.266-5.382,3.847-8.38,5.279c-6.043,2.796-12.589,4.794-19.356,6.56c-13.563,3.469-28.12,5.871-43.233,7.669
		c-30.237,3.571-62.713,4.985-95.158,4.729c-16.224-0.2-32.443-0.859-48.377-2.023c-15.932-1.173-31.583-2.843-46.628-5.249
		c-7.519-1.222-14.895-2.589-22.032-4.347c-7.132-1.762-14.073-3.764-20.565-6.576c-3.226-1.441-6.381-3.037-9.126-5.316
		c-1.352-1.148-2.637-2.484-3.425-4.227c-0.381-0.867-0.636-1.825-0.637-2.805c-0.008-0.043,0.012-0.299,0.013-0.263l0.017-0.153
		l0.033-0.308c0.028-0.21,0.032-0.397,0.08-0.626c0.142-0.48,0.27-1.003,0.464-1.437c0.763-1.718,2-3.018,3.288-4.096
		c0.625-0.584,1.332-1.016,1.993-1.518c0.701-0.426,1.376-0.9,2.089-1.278c2.82-1.589,5.721-2.811,8.592-3.884
		c5.757-2.115,11.417-3.623,16.827-4.881c5.414-1.242,10.589-2.215,15.464-3.033c9.753-1.629,18.306-2.669,25.355-3.426
		c7.05-0.764,12.604-1.182,16.39-1.479c3.787-0.269,5.808-0.412,5.808-0.412s-2.015,0.199-5.793,0.574
		c-3.776,0.39-9.31,1.007-16.336,1.896c-7.024,0.902-15.542,2.119-25.227,3.945c-4.841,0.916-9.973,1.993-15.324,3.34
		c-5.344,1.356-10.946,2.896-16.566,5.054c-2.801,1.087-5.617,2.319-8.285,3.869c-0.679,0.37-1.3,0.822-1.957,1.23
		c-0.6,0.471-1.265,0.887-1.81,1.415c-1.158,0.985-2.187,2.144-2.735,3.446c-0.134,0.314-0.185,0.601-0.304,0.897
		c-0.04,0.172-0.045,0.4-0.069,0.599l-0.029,0.307l-0.015,0.154c-0.009,0.14-0.007-0.015-0.001,0.045
		c0.01,0.679,0.198,1.352,0.491,2c0.601,1.305,1.695,2.46,2.926,3.47c2.492,2.024,5.542,3.54,8.675,4.888
		c6.324,2.646,13.2,4.543,20.27,6.191c7.084,1.617,14.394,3.01,21.871,4.171c14.956,2.328,30.546,3.926,46.419,5.027
		c15.875,1.095,32.041,1.674,48.21,1.819c32.332,0.391,64.716-0.885,94.824-4.314c15.036-1.778,29.544-3.931,43.003-7.201
		c6.711-1.657,13.198-3.556,19.086-6.191c2.911-1.342,5.736-2.848,7.961-4.855c1.082-1.008,2.057-2.141,2.494-3.41
		c0.135-0.324,0.18-0.613,0.252-0.901c0.028-0.164,0.033-0.376,0.051-0.562l0.011-0.145c0.005-0.1,0.007-0.025,0-0.076l-0.022-0.242
		c-0.019-0.323-0.046-0.646-0.155-0.96c-0.045-0.157-0.074-0.318-0.131-0.474l-0.206-0.458c-0.564-1.22-1.522-2.29-2.572-3.231
		c-1.046-0.957-2.262-1.732-3.453-2.493c-2.442-1.458-5.005-2.625-7.539-3.668c-5.087-2.066-10.115-3.562-14.862-4.844
		c-9.52-2.51-17.98-4.104-24.958-5.295c-6.982-1.179-12.492-1.982-16.254-2.486C110.43,352.523,108.422,352.26,108.422,352.26z"/>
</g>
</svg>
