<?xml version="1.0" encoding="utf-8"?>
<!-- Generator: Adobe Illustrator 19.2.1, SVG Export Plug-In . SVG Version: 6.00 Build 0)  -->
<svg version="1.1" id="Capa_1" xmlns="http://www.w3.org/2000/svg" xmlns:xlink="http://www.w3.org/1999/xlink" x="0px" y="0px"
	 viewBox="0 0 323.1 537.1" style="enable-background:new 0 0 323.1 537.1;" xml:space="preserve">
<style type="text/css">
	.st0{opacity:0.6;fill:url(#SVGID_1_);}
	.st1{fill:#FC8922;}
	.st2{fill:#F47B19;}
	.st3{fill:#E86F15;}
	.st4{fill:#C95805;}
	.st5{fill:#D86303;}
	.st6{fill:#E25405;}
	.st7{opacity:0.2;fill:#FFFFFF;enable-background:new    ;}
</style>
<linearGradient id="SVGID_1_" gradientUnits="userSpaceOnUse" x1="161.7" y1="396.7" x2="161.7" y2="537.1">
	<stop  offset="0" style="stop-color:#FFFFFF"/>
	<stop  offset="0.7729" style="stop-color:#FFFFFF;stop-opacity:0"/>
</linearGradient>
<path class="st0" d="M292.3,438.2v-41.5H30.9v39.4v4v54.4v0.6v3.4c0,21.3,58.6,38.6,130.8,38.6s130.8-17.3,130.8-38.6v-4v-54.4v-4
	C292.5,436.8,292.4,437.5,292.3,438.2z"/>
<path class="st1" d="M161.6,32.4c-72.2,0-130.7-13.5-130.7-30v350.4l0,0c0,16.6,58.5,30.1,130.7,30.1s130.7-13.5,130.7-30.1V2.3
	C292.3,18.9,233.7,32.4,161.6,32.4z"/>
<path class="st2" d="M161.6,34.5c-72.2,0-130.7-13.4-130.7-30V33c0,16.6,58.5,30,130.7,30s130.7-13.4,130.7-30V4.5
	C292.3,21,233.7,34.5,161.6,34.5z"/>
<g>
	<g>
		<path class="st3" d="M161.7,382.8c-72.2,0-130.8-17.3-130.8-38.6v58.4c0,21.3,58.6,38.6,130.8,38.6s130.8-17.3,130.8-38.6v-58.4
			C292.5,365.5,233.9,382.8,161.7,382.8z"/>
	</g>
	<g>
		<path class="st2" d="M161.7,386.8c-72.2,0-130.8-17.3-130.8-38.6v58.4c0,21.3,58.6,38.6,130.8,38.6s130.8-17.3,130.8-38.6v-58.4
			C292.5,369.5,233.9,386.8,161.7,386.8z"/>
	</g>
</g>
<g>
	<path class="st4" d="M161.6,79.4c-72.9,0-132-13.4-132-29.8v65.6c0,16.4,59.1,29.7,131.9,29.7c72.9,0,131.9-13.3,131.9-29.7V49.6
		C293.5,66,234.4,79.4,161.6,79.4z"/>
	<path class="st5" d="M161.6,79.4c-72.9,0-132-13.4-132-29.8v5c0,16.4,59.1,29.7,131.9,29.7c72.9,0,131.9-13.3,131.9-29.7v-5
		C293.5,66,234.4,79.4,161.6,79.4z"/>
	<rect x="6.7" y="49.6" class="st4" width="23" height="67.1"/>
	<rect x="293.5" y="49.6" class="st4" width="23" height="67.1"/>
	<circle class="st6" cx="18.2" cy="59.6" r="2.4"/>
	<circle class="st6" cx="18.2" cy="107" r="2.4"/>
	<circle class="st6" cx="305.7" cy="59.6" r="2.4"/>
	<circle class="st6" cx="305.7" cy="107" r="2.4"/>
</g>
<g>
	<path class="st4" d="M161.6,257.6c-72.9,0-131.9-13.3-131.9-29.7v65.6c0,16.4,59.1,29.7,131.9,29.7c72.9,0,131.9-13.3,131.9-29.7
		v-65.6C293.5,244.3,234.4,257.6,161.6,257.6z"/>
	<path class="st5" d="M161.6,257.6c-72.9,0-131.9-13.3-131.9-29.7v5c0,16.4,59.1,29.7,131.9,29.7c72.9,0,131.9-13.3,131.9-29.7v-5
		C293.5,244.3,234.4,257.6,161.6,257.6z"/>
	<rect x="6.7" y="227.9" class="st4" width="23" height="67.1"/>
	<rect x="293.5" y="227.9" class="st4" width="23" height="67.1"/>
	<circle class="st6" cx="18.2" cy="237.9" r="2.4"/>
	<circle class="st6" cx="18.2" cy="285.3" r="2.4"/>
	<circle class="st6" cx="305.7" cy="237.9" r="2.4"/>
	<circle class="st6" cx="305.7" cy="285.3" r="2.4"/>
</g>
<g>
	<path class="st7" d="M161.7,74.6c-34.9,0-67.8-3.1-92.5-8.6c-24.8-5.6-38.5-13.1-38.5-21.1h0.5c0,16.1,58.5,29.2,130.4,29.2
		S292.1,61,292.1,44.9h0.5c0,8-13.7,15.5-38.5,21.1C229.4,71.6,196.6,74.6,161.7,74.6z"/>
	<path class="st7" d="M161.6,163.7c-34.9,0-67.8-3.1-92.5-8.6C44.3,149.4,30.6,142,30.6,134h0.5c0,16.1,58.5,29.2,130.4,29.2
		S292,150.1,292,134h0.5c0,8-13.7,15.5-38.5,21.1C229.3,160.6,196.5,163.7,161.6,163.7z"/>
	<path class="st7" d="M161.6,193.1c-34.9,0-67.8-3.1-92.5-8.6c-24.8-5.6-38.5-13.1-38.5-21.1h0.5c0,16.1,58.5,29.2,130.4,29.2
		S292,179.5,292,163.4h0.5c0,8-13.7,15.5-38.5,21.1C229.3,190.1,196.5,193.1,161.6,193.1z"/>
	<path class="st7" d="M161.6,222.6c-34.9,0-67.8-3.1-92.5-8.6c-24.8-5.6-38.5-13.1-38.5-21.1h0.5c0,16.1,58.5,29.2,130.4,29.2
		S292,209,292,192.9h0.5c0,8-13.7,15.5-38.5,21.1C229.3,219.5,196.5,222.6,161.6,222.6z"/>
	<path class="st7" d="M161.6,252.1c-34.9,0-67.8-3.1-92.5-8.6c-24.8-5.6-38.5-13.1-38.5-21.1h0.5c0,16.1,58.5,29.2,130.4,29.2
		S292,238.5,292,222.4h0.5c0,8-13.7,15.5-38.5,21.1C229.3,249,196.5,252.1,161.6,252.1z"/>
	<path class="st7" d="M161.6,340.5c-34.9,0-67.8-3.1-92.5-8.6c-24.8-5.6-38.5-13.1-38.5-21.1h0.5c0,16.1,58.5,29.2,130.4,29.2
		S292,326.9,292,310.8h0.5c0,8-13.7,15.5-38.5,21.1C229.3,337.4,196.5,340.5,161.6,340.5z"/>
	<path class="st7" d="M161.6,369.9c-34.9,0-67.8-3.1-92.5-8.6c-24.8-5.6-38.5-13.1-38.5-21.1h0.5c0,16.1,58.5,29.2,130.4,29.2
		S292,356.3,292,340.2h0.5c0,8-13.7,15.5-38.5,21.1C229.3,366.9,196.5,369.9,161.6,369.9z"/>
</g>
</svg>
