<?xml version="1.0" encoding="utf-8"?>
<!-- Generator: Adobe Illustrator 19.2.1, SVG Export Plug-In . SVG Version: 6.00 Build 0)  -->
<svg version="1.1" xmlns="http://www.w3.org/2000/svg" xmlns:xlink="http://www.w3.org/1999/xlink" x="0px" y="0px"
	 viewBox="0 0 453 738.3" style="enable-background:new 0 0 453 738.3;" xml:space="preserve">
<style type="text/css">
	.st0{fill:#E0450E;}
	.st1{fill:#BC3100;}
	.st2{fill:#ED5614;}
	.st3{fill:#C63300;}
	.st4{fill:#EA7103;}
	.st5{fill:#CE4205;}
	.st6{fill:#D84B05;}
	.st7{fill:#F57C00;}
	.st8{fill:#F46219;}
	.st9{fill:#E25405;}
	.st10{fill:#FF8931;}
	.st11{fill:#E26D03;}
	.st12{fill:#262626;}
	.st13{fill:#2D2D2D;}
	.st14{fill:#1E1E1E;}
	.st15{fill:#5B5A5B;}
	.st16{fill:#353535;}
	.st17{fill:url(#SVGID_1_);}
	.st18{fill:url(#SVGID_2_);}
	.st19{fill:#545454;}
	.st20{fill:url(#SVGID_3_);}
	.st21{fill:url(#SVGID_4_);}
	.st22{fill:#666666;}
	.st23{fill:#494949;}
	.st24{fill:#636363;}
	.st25{opacity:0.2;}
	.st26{opacity:0.12;}
	.st27{opacity:0.1;}
	.st28{opacity:7.000000e-02;}
	.st29{fill:#282828;}
	.st30{opacity:5.000000e-02;fill:#FFFFFF;}
	.st31{opacity:0.51;fill:#3A3A3A;}
	.st32{fill:#3A3A3A;}
	.st33{opacity:0.25;fill:url(#SVGID_5_);}
	.st34{opacity:0.25;fill:url(#SVGID_6_);}
	.st35{opacity:0.25;fill:url(#SVGID_7_);}
	.st36{opacity:0.25;fill:url(#SVGID_8_);}
	.st37{fill:#161616;}
	.st38{fill:#686868;}
	.st39{fill:url(#SVGID_9_);}
	.st40{fill:#5B5B5B;}
	.st41{fill:#848384;}
	.st42{fill:#565656;}
	.st43{opacity:2.000000e-02;fill:#FFFFFF;}
	.st44{fill:#7A7A7A;}
	.st45{fill:url(#SVGID_10_);}
	.st46{fill:url(#SVGID_11_);}
	.st47{fill:url(#SVGID_12_);}
	.st48{fill:url(#SVGID_13_);}
	.st49{opacity:0.25;fill:url(#SVGID_14_);}
	.st50{opacity:0.25;fill:url(#SVGID_15_);}
	.st51{opacity:0.25;fill:url(#SVGID_16_);}
	.st52{opacity:0.25;fill:url(#SVGID_17_);}
	.st53{fill:url(#SVGID_18_);}
	.st54{opacity:0.24;}
	.st55{display:none;}
	.st56{display:inline;fill:none;stroke:#C63300;stroke-width:0.5;stroke-miterlimit:10;}
	.st57{fill:#ED7321;}
	.st58{fill:none;stroke:#C63300;stroke-width:0.5;stroke-miterlimit:10;}
	.st59{display:inline;fill:#C63300;}
	.st60{display:inline;fill:#ED7321;}
	.st61{display:inline;fill:#B52D08;}
	.st62{display:inline;}
	.st63{display:inline;fill:url(#SVGID_21_);}
	.st64{display:inline;fill:url(#SVGID_24_);}
</style>
<g id="Layer_1">
	<polygon class="st0" points="97.7,644 97.7,521.9 19.7,493.6 19.7,613.9 	"/>
	<polygon class="st1" points="160.7,479.8 84.2,460.7 19.7,493.6 97.7,521.9 	"/>
	<polygon class="st2" points="97.7,496.3 97.7,283.1 19.7,264.8 19.7,466.3 	"/>
	<polygon class="st3" points="97.7,283.1 160.7,251 160.7,466.3 97.7,496.3 	"/>
	<polygon class="st4" points="160.7,251 84.2,231.9 19.7,264.8 97.7,283.1 	"/>
	<polygon class="st2" points="251.9,468.7 251.9,128.6 142.4,102.9 142.4,439 	"/>
	<polygon class="st5" points="251.9,128.6 340.3,83.6 340.3,427.8 251.9,469.9 	"/>
	<polygon class="st1" points="340.3,83.6 232.9,56.8 142.4,102.9 251.9,128.6 	"/>
	<polygon class="st6" points="372.4,511.9 435.4,479.8 435.4,593.3 372.4,634.6 	"/>
	<polygon class="st7" points="435.4,479.8 358.9,460.7 294.4,493.6 372.4,511.9 	"/>
	<polygon class="st8" points="372.4,460.7 372.4,247.5 294.4,229.2 294.4,430.7 	"/>
	<polygon class="st6" points="372.4,247.5 435.4,215.4 435.4,422.7 372.4,460.7 	"/>
	<polygon class="st1" points="435.4,215.4 358.9,196.3 294.4,229.2 372.4,247.5 	"/>
	<polygon class="st7" points="251.6,735 251.6,385.8 73.1,343.8 73.1,666 	"/>
	<polygon class="st9" points="251.6,385.8 395.6,312.3 395.6,634.5 251.6,735 	"/>
	<polygon class="st10" points="395.6,312.3 220.6,271.3 73.1,343.8 251.6,385.8 	"/>
	<polygon class="st2" points="251.9,108.7 251.9,86.5 142.4,60.7 142.4,83 	"/>
	<polygon class="st5" points="251.9,86.5 340.3,41.4 340.3,65.8 251.9,108.9 	"/>
	<polygon class="st11" points="340.3,41.4 232.9,14.6 142.4,60.7 251.9,86.5 	"/>
	<polygon class="st8" points="372.4,233.8 369.3,144.4 294.4,214 	"/>
	<polygon class="st6" points="372.4,233.8 369.3,144.4 435.4,203.2 	"/>
	<g>
		<path class="st12" d="M191.2,233.5c0,0-4.9,3,0,6.7c4.9,3.7,20.5,13.8,24.7,15.7c4.1,1.8,18.4,5.1,26.2,6.4c0,0,5.5,1.4,7.4-3.7
			c0,0,4.1-12,6.4-14.5L191.2,233.5z"/>
		<path class="st13" d="M249.4,258.4c0,0,0.2-0.6,0.5-1.5v0c0,0-4.7-0.3-7.8-1.2c-3.1-0.9-5.9-1.8-10.8-1c-4.9,0.8-11,1.6-17,0.3
			c0.6,0.3,1.1,0.6,1.5,0.8c4.1,1.8,18.4,5.1,26.2,6.4C242.1,262.1,247.6,263.5,249.4,258.4z"/>
		<path class="st14" d="M192.8,233.5c0,0-3.3,1.2-1.9,5.5c0,0,4.7,3.2,11.7,7.7c0,0,0.7-1.4,5.2,0c4.5,1.4,7.4,1.2,8.8,0
			c1.4-1.2,8.3-3.9,8.3-3.9L192.8,233.5z"/>
		<path class="st15" d="M281.5,240.4c0,0,3.9-10.4,4.1-15c0.2-4.6,1.8-15.7,3.7-19.8c1.8-4.1,2.3-11.5,2.1-15.4
			c-0.2-3.9,0.1-12.3,0.1-12.3s-3.7-9.6-7.7-13.7c-3.9-4.1-11.3-9.9-11.5-11c-0.2-1.2-6-3.7-6-3.7l-4.6-1.4c0,0-17.5,7.1-24.2,12
			l-1.3,3L281.5,240.4z"/>
		<path class="st16" d="M237.5,160.1c0,0-9.7-5.3-14-5.5c-4.2-0.2-6.5-1.8-6.5-1.8s-2.5-0.5-4.6,4.4l8.7,5.5l16.3,2.7V160.1z"/>
		<path class="st12" d="M281.5,240.4c0,0-1.8-21.2,0-27s0.7-14.8-0.8-18c-1.5-3.1-12.6-11.6-12.6-11.6l-6.1,14.3l-1.8,17.7l6.2,6.9
			L281.5,240.4z"/>
		<path class="st16" d="M279.1,244c0,0,2.4-0.4,2.4-3.6s-5.8-9.9-6.2-11.5c-0.5-1.6-12.2-10.9-11.7-16c0.5-5.1-1.2-15.7,4.5-29.1
			l-9.6,8.5l-9.1,23l-0.5,15l4.9,7.6L279.1,244z"/>
		<linearGradient id="SVGID_1_" gradientUnits="userSpaceOnUse" x1="180.8916" y1="213.352" x2="243.7317" y2="213.352">
			<stop  offset="0.1326" style="stop-color:#4F4F4F"/>
			<stop  offset="0.8605" style="stop-color:#353535"/>
		</linearGradient>
		<path class="st17" d="M193.3,190.2c0,0-7.6,5.8-12.4,14.5l48.1,31.8l3.7-0.9l9-14.7l2.1-8l-16.8-8.1L193.3,190.2z"/>
		<linearGradient id="SVGID_2_" gradientUnits="userSpaceOnUse" x1="177.2087" y1="224.3913" x2="230.6112" y2="224.3913">
			<stop  offset="0" style="stop-color:#353535"/>
			<stop  offset="0.8381" style="stop-color:#4C4C4C"/>
		</linearGradient>
		<path class="st18" d="M230.6,235.6c0,0-32.7-23.5-49.7-30.8c0,0-3.7,12-3.7,17.5c0,0,18.9,16.1,29.5,21.6
			C206.7,243.9,211.3,246.2,230.6,235.6z"/>
		<path class="st19" d="M218.6,241.4c0,0,11.8,2.5,21.1,4.6c9.3,2.1,9.7-1,32.1-1.9c0,0,4.8-1,7.3-0.1c0,0-9.7-8.8-23.1-9.1
			c0,0-15.3-2-25.3,0.7L218.6,241.4z"/>
		<linearGradient id="SVGID_3_" gradientUnits="userSpaceOnUse" x1="197.2154" y1="176.2353" x2="266.2896" y2="176.2353">
			<stop  offset="0" style="stop-color:#707070"/>
			<stop  offset="0.5021" style="stop-color:#595959"/>
			<stop  offset="0.8127" style="stop-color:#4C4C4C"/>
		</linearGradient>
		<path class="st20" d="M260.5,178.9c0,0-14-8.1-18.6-12c-4.6-3.9-13.6-8.3-16.3-8.5c-2.8-0.2-13.1-1.4-13.1-1.4s-4.4,3.7-6.4,7.4
			c-2.1,3.7-6,7.8-6.7,9.7c-0.7,1.8-0.8,2.7-2.1,5.1c-1.2,2.4,56.5,16.2,56.5,16.2l12.5-13.7L260.5,178.9z"/>
		<linearGradient id="SVGID_4_" gradientUnits="userSpaceOnUse" x1="193.3215" y1="195.3985" x2="253.7787" y2="195.3985">
			<stop  offset="1.928110e-02" style="stop-color:#4F4F4F"/>
			<stop  offset="0.409" style="stop-color:#474747"/>
			<stop  offset="1" style="stop-color:#353535"/>
		</linearGradient>
		<path class="st21" d="M253.8,193.4c0,0-16.5-11.4-30.1-14.2c-13.6-2.8-26.5,0-26.5,0s-3,5.1-3.9,11c0,0,7.4,5.3,12,7.1
			s15.7,9.2,15.7,9.2s3,2.5,21.8,6.3C242.7,212.9,252.5,203,253.8,193.4z"/>
		<path class="st22" d="M253.7,193.4l-6.6-3.7l-3.3-1.8l-3.3-1.8c-0.6-0.3-1.1-0.6-1.6-0.9l-1.7-0.9c-0.5-0.3-1.1-0.6-1.7-0.9
			c-0.6-0.3-1.1-0.6-1.7-0.8c-0.6-0.3-1.1-0.5-1.7-0.7c-0.3-0.1-0.6-0.2-0.9-0.3l-0.9-0.3c-0.6-0.2-1.2-0.4-1.8-0.6l-1.8-0.5
			c-0.3-0.1-0.6-0.2-0.9-0.2l-0.9-0.2c-0.6-0.1-1.2-0.3-1.8-0.3l-1.9-0.3c-0.6-0.1-1.2-0.1-1.8-0.2l-0.9-0.1l-0.9-0.1
			c-0.6,0-1.2-0.1-1.9-0.1l-1.9-0.1l-1.9,0c-0.6,0-1.2,0-1.9,0l-0.9,0l-0.9,0c-1.2,0-2.5,0.1-3.7,0.1c-1.2,0.1-2.5,0.2-3.7,0.2
			c-1.2,0.1-2.5,0.2-3.7,0.4l0.1-0.1c-0.4,0.6-0.8,1.3-1.2,1.9l-0.1-0.1c0.3-0.7,0.6-1.4,0.9-2.1l0-0.1l0.1,0
			c1.2-0.3,2.5-0.6,3.7-0.8c0.6-0.1,1.2-0.2,1.9-0.3c0.6-0.1,1.2-0.2,1.9-0.2c0.6-0.1,1.3-0.1,1.9-0.2c0.6-0.1,1.3-0.1,1.9-0.1
			l0.9,0l0.9,0c0.6,0,1.3,0,1.9,0c0.6,0,1.3,0,1.9,0.1l1.9,0.1c0.6,0,1.3,0.1,1.9,0.2l0.9,0.1l0.9,0.1c0.6,0.1,1.3,0.2,1.9,0.3
			l1.8,0.4c0.6,0.1,1.2,0.3,1.8,0.5c0.6,0.2,1.2,0.3,1.8,0.6l1.8,0.6l1.8,0.7c1.2,0.4,2.3,0.9,3.5,1.3c1.2,0.5,2.3,0.9,3.5,1.4
			l1.7,0.7c0.6,0.3,1.1,0.5,1.7,0.8c0.6,0.3,1.1,0.6,1.7,0.9c0.6,0.3,1.1,0.6,1.7,0.9l1.6,0.9l1.6,1c1.1,0.7,2.1,1.4,3.1,2.1
			c1,0.7,2,1.5,3,2.3L253.7,193.4z"/>
		<path class="st23" d="M266.2,166.3c-0.3-0.3-0.5-0.7-0.8-1c-0.2-0.4-0.4-0.7-0.6-1.1c-0.2-0.4-0.4-0.8-0.5-1.2
			c-0.1-0.2-0.1-0.4-0.2-0.6c-0.1-0.2-0.1-0.4-0.1-0.7c0-0.2,0-0.4,0-0.7l0-0.3c0-0.1,0-0.2,0-0.3l0.1-0.3c0-0.1,0.1-0.2,0.1-0.3
			l0.1-0.3c0-0.1,0.1-0.2,0.2-0.3l0.2-0.3c0-0.1,0.1-0.2,0.1-0.2c0-0.1,0.1-0.1,0.1-0.2c0-0.1,0.1-0.2,0.1-0.2
			c0.1-0.3,0.2-0.7,0.2-1.1c0-0.7-0.1-1.5-0.3-2.3c-0.2-0.8-0.5-1.6-0.8-2.3c-0.3-0.7-0.7-1.5-1.2-2.1c-0.4-0.7-0.9-1.3-1.5-2
			l0.3,0.1c-0.8,0.4-1.6,0.8-2.4,1.1c-0.8,0.4-1.6,0.8-2.4,1.1l-4.9,2.2l-4.9,2.2l-1.2,0.5c-0.4,0.2-0.8,0.4-1.2,0.6l-1.2,0.6
			c-0.4,0.2-0.8,0.4-1.2,0.6l-0.1-0.1c0.7-0.6,1.4-1.1,2.2-1.6c0.4-0.3,0.8-0.5,1.1-0.7c0.4-0.2,0.8-0.5,1.2-0.7
			c0.4-0.2,0.8-0.5,1.2-0.7l1.2-0.6c0.4-0.2,0.8-0.4,1.2-0.6c0.4-0.2,0.8-0.4,1.2-0.6c0.8-0.4,1.6-0.7,2.5-1.1
			c0.8-0.3,1.7-0.7,2.5-1c0.8-0.3,1.7-0.6,2.5-0.9l2.6-0.8l0.2-0.1l0.1,0.2c0.5,0.7,0.9,1.4,1.3,2.1c0.4,0.7,0.9,1.4,1.3,2.1
			c0.4,0.7,0.8,1.5,1.1,2.3c0.3,0.8,0.6,1.6,0.6,2.5c0,0.5,0,0.9-0.2,1.4c0,0.1-0.1,0.2-0.1,0.3c-0.1,0.1-0.1,0.2-0.2,0.3l-0.2,0.3
			l-0.1,0.2c0,0.1-0.1,0.2-0.1,0.2l-0.1,0.3c0,0.1-0.1,0.2-0.1,0.3l-0.1,0.3c0,0.1,0,0.2-0.1,0.3l0,0.3c0,0.2,0,0.4,0,0.6
			c0,0.2,0,0.4,0,0.6c0,0.2,0.1,0.4,0.1,0.6c0.1,0.4,0.2,0.8,0.3,1.2c0.2,0.8,0.5,1.5,0.9,2.3L266.2,166.3z"/>
		<path class="st24" d="M230.6,235.6c0,0-0.8-0.4-2.2-1.2c-0.3-0.2-0.7-0.4-1.1-0.7c-0.4-0.2-0.9-0.5-1.3-0.8c-1-0.6-2-1.3-3.2-2
			c-1.1-0.8-2.4-1.6-3.7-2.5c-1.3-0.9-2.6-1.9-3.9-3c-1.4-1-2.8-2.1-4.3-3.1c-1.5-1-3.1-1.9-4.7-2.8c-1.6-0.9-3.2-1.8-4.8-2.7
			c-1.5-0.9-3.1-1.8-4.6-2.6c-1.5-0.9-2.9-1.7-4.3-2.5c-1.3-0.8-2.6-1.6-3.8-2.3c-1.2-0.7-2.3-1.3-3.2-1.9c-0.5-0.3-0.9-0.6-1.3-0.8
			c-0.4-0.2-0.8-0.5-1.2-0.7c-1.4-0.8-2.2-1.3-2.2-1.3l0.1-0.1c0,0,0.9,0.3,2.4,0.8c0.4,0.1,0.8,0.3,1.3,0.5
			c0.4,0.2,0.9,0.4,1.4,0.6c1,0.5,2.2,1,3.4,1.6c1.2,0.6,2.6,1.3,3.9,2.1c1.4,0.8,2.8,1.6,4.3,2.5c1.5,0.9,3,1.9,4.5,2.9
			c0.8,0.5,1.5,1,2.3,1.5c0.7,0.5,1.5,1.1,2.2,1.6c1.5,1.1,3,2.2,4.5,3.1c1.5,1,3,1.9,4.5,2.8c1.5,0.9,2.9,1.7,4.3,2.5
			c1.3,0.9,2.5,1.7,3.6,2.5c1.1,0.8,2.1,1.6,3,2.3c0.9,0.7,1.6,1.3,2.3,1.8c1.2,1,1.9,1.7,1.9,1.7L230.6,235.6z"/>
		<path class="st25" d="M230.2,243.8c0,0,9.8-9.4,33.6-7.4c0,0-26.7-7.4-43.2,3.9l-1.2,0.8L230.2,243.8z"/>
		<path class="st26" d="M268.9,238.1c-2.1-0.9-13.4-4.2-17.9-3.6c-0.1,0-0.2,0-0.3,0c7.3,0.6,12.6,2.1,12.6,2.1
			c-23.8-2.1-33.6,7.4-33.6,7.4l-2.5-0.6l-0.2,0.1l11,2.3c0,0,4.2,2.5,15.2,0c0,0,9.2-2.8,14.2-2.7C272.6,243.3,271,239,268.9,238.1
			z"/>
		<path class="st27" d="M220.8,238c0,0-6.9,4.3-11.7,5c0,0-4,0-9.3-5"/>
		<path class="st28" d="M207.8,222.5c0,0-14.6-10-22-13.8c0,0-1.9,4-1.6,6c0.3,2.1,8.4,8.6,9.1,8.8c0.7,0.2,2.1-0.7,5.4,0
			C202,224.2,208.4,226.6,207.8,222.5z"/>
		<path class="st27" d="M198.6,194.2c0,0,5.4,6.7,10.4,10.5s11.4,6,14.5,7.4c3.1,1.4,8.3,1.7,11.2,4.7s3.6,5.9,3.6,5.9
			s2.2-5.7,3.8-8.2l-4.7-1.5c0,0-4.5-1.1-8.4-2.7c-4-1.6-14.4-7.2-14.4-7.2l-4.4-2.6l-3.5-1.8C206.8,198.6,198.7,195,198.6,194.2z"
			/>
		<path class="st29" d="M193.6,189.4c0,0.5-0.1,0.9-0.1,1.4l-0.1-0.2l3.4,2.1c1.1,0.7,2.3,1.4,3.4,2c0.6,0.3,1.2,0.7,1.7,1
			c0.6,0.3,1.2,0.6,1.7,0.9l0.9,0.5l0.9,0.4c0.3,0.1,0.6,0.3,0.9,0.5l0.9,0.5c0.6,0.3,1.2,0.7,1.7,1c0.6,0.3,1.1,0.7,1.7,1
			c0.6,0.3,1.2,0.7,1.7,1l1.7,1c2.3,1.3,4.7,2.6,7,4.1l0,0c0,0,0.1,0.1,0.2,0.1c0.1,0.1,0.2,0.1,0.3,0.2c0.2,0.1,0.4,0.2,0.6,0.3
			c0.4,0.2,0.9,0.4,1.3,0.5c0.9,0.3,1.8,0.6,2.7,0.9l1.3,0.4l1.4,0.4c0.4,0.1,0.9,0.3,1.4,0.4l1.4,0.4c0.9,0.3,1.8,0.5,2.7,0.8
			l2.7,0.8l2.7,0.8c0.9,0.3,1.8,0.5,2.7,0.8l0,0.1c-0.9-0.1-1.9-0.3-2.8-0.4c-0.9-0.1-1.9-0.3-2.8-0.5c-0.9-0.2-1.9-0.4-2.8-0.5
			c-0.9-0.2-1.9-0.4-2.8-0.6l-1.4-0.4c-0.5-0.1-0.9-0.2-1.4-0.4c-0.9-0.3-1.8-0.5-2.7-0.8c-0.9-0.3-1.8-0.6-2.7-1
			c-0.4-0.2-0.9-0.4-1.3-0.6c-0.2-0.1-0.4-0.2-0.7-0.3c-0.1-0.1-0.2-0.1-0.3-0.2c-0.1-0.1-0.2-0.1-0.4-0.2l0,0
			c-1.1-0.8-2.2-1.5-3.3-2.3c-1.1-0.8-2.2-1.5-3.3-2.3c-1.1-0.7-2.3-1.4-3.4-2.1c-1.2-0.7-2.4-1.3-3.6-1.8l-0.9-0.4l-0.9-0.4
			l-0.9-0.4c-0.3-0.1-0.6-0.3-0.9-0.4c-1.2-0.6-2.4-1.3-3.6-2c-0.6-0.3-1.1-0.7-1.7-1.1c-0.6-0.4-1.1-0.8-1.7-1.1
			c-0.5-0.4-1.1-0.8-1.6-1.2c-0.5-0.4-1.1-0.8-1.6-1.3l-0.1-0.1l0-0.1c0.1-0.4,0.2-0.9,0.4-1.3L193.6,189.4z"/>
		<path class="st30" d="M217.2,214.7c0,0-5.5,5.5-8.6,9.6c0,0,11.2,5.9,15.3,9.1c0,0,0.8-3.8-1.4-5.3c-2.2-1.6-6-1.5-5.4-4
			s2.4-6.6,1.5-7.3C217.7,216,218.6,213.3,217.2,214.7z"/>
		<path class="st31" d="M242.6,212.8c1-1.5,2.1-3,3.6-4.7c0.8-0.9,1.5-1.8,2.1-2.6c-2.7-1.3-17.6-8.5-21.4-11.2
			c-5.6-4.1-17.3-10.8-21.3-10.5c0,0,0.9,1.8,1.3,4.1c0.4,2.3,5.8,4,8.5,7.5c2.7,3.5,1.6,5.4,3.4,6.8c1.8,1.4,7.6,2.5,9.1,5.1
			c1.5,2.6,13.6,5.4,13.6,5.4S242.1,212.8,242.6,212.8z"/>
		<path class="st32" d="M248.6,206.2c0,0-2.7-1.3-6.8-3.4c-2-1-4.4-2.3-6.9-3.6c-1.3-0.7-2.6-1.4-3.9-2.1c-1.3-0.7-2.6-1.5-3.9-2.4
			c-1.2-0.9-2.5-1.8-3.7-2.6c-1.2-0.8-2.5-1.6-3.7-2.3c-2.4-1.5-4.8-2.7-6.8-3.7c-2-1-3.8-1.7-5.1-2c-0.6-0.2-1.2-0.3-1.5-0.3
			c-0.2,0-0.3,0-0.4,0c-0.1,0-0.1,0-0.1,0s0,0,0.1,0c0.1,0,0.2,0,0.4,0c0.4,0,0.9,0.1,1.5,0.2c1.3,0.3,3.1,0.9,5.2,1.9
			c2.1,0.9,4.5,2.2,6.9,3.6c1.2,0.7,2.5,1.5,3.8,2.2c1.3,0.8,2.5,1.6,3.8,2.5c1.2,0.8,2.6,1.5,3.9,2.3c1.3,0.7,2.6,1.4,3.9,2
			c2.5,1.3,4.9,2.4,7,3.4c4.1,2,6.9,3.2,6.9,3.2L248.6,206.2z"/>
		<linearGradient id="SVGID_5_" gradientUnits="userSpaceOnUse" x1="246.8574" y1="210.8775" x2="246.8574" y2="232.3349">
			<stop  offset="5.118534e-03" style="stop-color:#4C4C4C"/>
			<stop  offset="1" style="stop-color:#353535"/>
		</linearGradient>
		<path class="st33" d="M253.8,232.3c0,0-6.8-9.2-1.2-21.5l-5.2,1.2l-4.7,8.1l-2.8,12.2C239.9,232.3,246.7,230.8,253.8,232.3z"/>
		<linearGradient id="SVGID_6_" gradientUnits="userSpaceOnUse" x1="234.7696" y1="184.4256" x2="263.8132" y2="184.4256">
			<stop  offset="5.118534e-03" style="stop-color:#4C4C4C"/>
			<stop  offset="1" style="stop-color:#353535"/>
		</linearGradient>
		<path class="st34" d="M263.8,182.2c0,0-8.5,5.4-8.8,6c0,0-1.8,1.2-1.7,2.8c0,0-12.8-8.1-18.5-10l9-3l4.6,1.8c0,0,2.8-1.3,5.4-0.8
			c2.6,0.5,4.1,1.2,5.7,1.2C259.5,180.2,262.8,181.5,263.8,182.2z"/>
		<linearGradient id="SVGID_7_" gradientUnits="userSpaceOnUse" x1="200.5859" y1="167.6198" x2="224.9717" y2="167.6198">
			<stop  offset="0" style="stop-color:#707070"/>
			<stop  offset="0.8127" style="stop-color:#4C4C4C"/>
		</linearGradient>
		<path class="st35" d="M200.6,176.2c0,0,9-1.3,16.1,0L225,161c0,0-11.2-1.5-12.2-2C212.8,159,201.6,172.8,200.6,176.2z"/>
		<linearGradient id="SVGID_8_" gradientUnits="userSpaceOnUse" x1="239.9473" y1="157.3599" x2="263.0688" y2="157.3599">
			<stop  offset="5.118534e-03" style="stop-color:#4C4C4C"/>
			<stop  offset="1" style="stop-color:#353535"/>
		</linearGradient>
		<path class="st36" d="M262.7,164.1c0,0-1-3.8,0-5.1s-0.5-7.3-2.2-8.4c0,0-16.8,7.6-20.5,10C239.9,160.6,256.3,156.2,262.7,164.1z"
			/>
		<path class="st26" d="M252.5,220.7c0,0,5.6-11.1,8-12.3c0,0-1.4,8.9,8,13.2l-4.7-6.6c0,0-0.5-3.6-0.2-5c0.3-1.4,0.7-10.6,0.7-10.6
			s0.9-10.5,2.4-11.3c0,0-1.8,1.1-2.9,3.2C262.7,193.4,251.5,214.7,252.5,220.7z"/>
		<path class="st37" d="M279.4,243.8c0,0,0.1,0,0.2-0.1c0.1-0.1,0.2-0.2,0.4-0.4c0.3-0.3,0.7-1,0.8-1.8c0-0.2,0-0.5,0-0.7
			c0-0.1,0-0.1,0-0.2l0,0c0,0,0,0,0,0l0-0.1c0-0.1,0-0.3-0.1-0.4c0-0.3-0.1-0.5-0.2-0.8c-0.1-0.3-0.2-0.6-0.3-0.8
			c-0.5-1.1-1.3-2.3-2.1-3.6c-0.9-1.3-1.9-2.7-2.8-4.2c-0.2-0.4-0.5-0.8-0.7-1.3l0-0.1l0,0c0,0,0,0.1,0,0l0,0c0-0.1,0-0.1-0.1-0.2
			c0-0.1-0.1-0.1-0.1-0.2c-0.1-0.2-0.3-0.4-0.4-0.5c-0.6-0.7-1.3-1.4-1.9-2.1c-1.3-1.4-2.7-2.9-4.1-4.4c-0.7-0.8-1.4-1.5-2-2.4
			c-0.7-0.8-1.3-1.7-1.8-2.6c-0.5-0.9-1-1.9-1.2-3c0-0.1,0-0.3,0-0.4c0-0.1,0-0.3,0-0.4l0-0.8c0-0.5,0-1,0-1.5c0-2.1,0-4.1,0-6.1
			c0-2,0.2-3.9,0.4-5.7c0.2-1.8,0.5-3.5,0.9-5c0.4-1.5,0.7-2.9,1.1-4.2c0.1-0.3,0.2-0.6,0.3-0.9c0.1-0.3,0.2-0.6,0.3-0.8
			c0.2-0.5,0.4-1,0.5-1.4c0.4-0.8,0.7-1.5,0.9-2c0.2-0.4,0.3-0.7,0.3-0.7l0.1,0c0,0-0.1,0.2-0.2,0.7c-0.2,0.5-0.4,1.1-0.7,2
			c-0.1,0.4-0.3,0.9-0.4,1.4c-0.1,0.3-0.2,0.5-0.3,0.8c-0.1,0.3-0.2,0.6-0.2,0.9c-0.3,1.2-0.7,2.6-1,4.1c-0.1,0.8-0.3,1.6-0.4,2.4
			c-0.1,0.4-0.1,0.8-0.2,1.3c0,0.4-0.1,0.9-0.2,1.3c-0.1,0.4-0.1,0.9-0.1,1.3c0,0.5-0.1,0.9-0.1,1.4c-0.1,0.9-0.1,1.9-0.2,2.9
			c-0.1,2-0.1,4-0.1,6c0,0.5,0,1-0.1,1.6c0,0.5-0.1,1-0.1,1.5c0.1,1,0.5,1.9,0.9,2.8c0.5,0.9,1.1,1.8,1.7,2.6c0.6,0.8,1.3,1.6,2,2.4
			c1.4,1.5,2.8,2.9,4.3,4.3c0.7,0.7,1.4,1.3,2.1,2c0.2,0.2,0.3,0.4,0.5,0.6c0.1,0.1,0.2,0.2,0.2,0.3c0,0.1,0.1,0.1,0.1,0.2l0,0
			c0,0,0,0.1,0,0.1l0,0l0,0.1c0.1,0.4,0.4,0.8,0.6,1.1c1,1.5,2,2.9,2.8,4.2c0.8,1.3,1.6,2.6,2,3.8c0.1,0.3,0.2,0.6,0.3,0.9
			c0.1,0.3,0.2,0.6,0.2,0.9c0,0.1,0,0.3,0,0.4l0,0.1l0,0.1l0,0.1c0,0.1,0,0.1,0,0.2c0,0.3-0.1,0.5-0.1,0.7c-0.2,0.9-0.7,1.6-1,1.9
			c-0.2,0.2-0.3,0.3-0.5,0.3C279.5,243.8,279.5,243.9,279.4,243.8L279.4,243.8z"/>
		<path class="st26" d="M284.7,180.3c0,0,4.3-0.3,5.5-1.3c0,0-1,3-0.7,4.9c0.3,1.9,1.4,5.2,0,10.3c0,0-4-0.3-4.8,4.9
			c-0.9,5.2-0.2,10.4-2.2,12.9c0,0,1.6-16.7-4.8-20.3C277.6,191.8,285.2,186.7,284.7,180.3z"/>
		<path class="st16" d="M245.3,169.5c0,0,16.2-4.2,21-3.2c0,0,6.9,8.4,11.7,11.7c0,0,3.7,3.1,6.7,2.4c0,0,0.1,6.7-5.6,11.5h-1.5"/>
		<path class="st38" d="M258.9,179c-1-0.5-1.9-1.1-2.8-1.7c-0.9-0.6-1.9-1.2-2.8-1.7c-1.8-1.2-3.7-2.4-5.5-3.7
			c-0.9-0.6-1.8-1.3-2.6-2c-0.9-0.7-1.7-1.4-2.6-2.1c-0.8-0.7-1.7-1.4-2.6-2.1c-0.9-0.6-1.8-1.2-2.8-1.8c-0.9-0.6-1.9-1.1-2.9-1.6
			c-1-0.5-2-1-2.9-1.4c-1-0.4-2-0.9-3-1.3c-1-0.4-2.1-0.7-3-0.8c-2.2-0.2-4.4-0.4-6.6-0.7c-2.2-0.3-4.4-0.6-6.5-0.9l0.2-0.1
			c-0.6,0.5-1.2,1-1.8,1.5c-0.6,0.5-1.1,1-1.7,1.6l-0.1-0.1c0.5-0.6,1-1.2,1.5-1.8c0.5-0.6,1.1-1.1,1.7-1.6l0.1-0.1l0.1,0
			c2.2,0.2,4.4,0.4,6.6,0.6l6.5,0.6c0.6,0.1,1.2,0.2,1.7,0.4c0.5,0.2,1.1,0.4,1.6,0.6c1,0.4,2,0.9,3,1.4c2,1,3.9,2.1,5.7,3.3
			c0.9,0.6,1.8,1.2,2.7,1.9c0.4,0.3,0.9,0.7,1.3,1c0.4,0.3,0.9,0.7,1.3,1c0.9,0.7,1.8,1.3,2.7,1.9l2.7,1.8c0.9,0.6,1.8,1.2,2.7,1.9
			l2.7,1.9l2.7,1.9C257.2,177.7,258.1,178.3,258.9,179L258.9,179z"/>
		<linearGradient id="SVGID_9_" gradientUnits="userSpaceOnUse" x1="230.6112" y1="208.6332" x2="268.016" y2="208.6332">
			<stop  offset="1.897321e-02" style="stop-color:#4C4C4C"/>
			<stop  offset="0.887" style="stop-color:#605F60"/>
		</linearGradient>
		<path class="st39" d="M255.9,234.9c0,0-3.5-10.7-3.5-14.2c0-3.5-0.3-9.3,13.1-32.5l2.4-4.5l-1.7-2.1l-12.1,9c0,0-0.7,9.7-7.9,17.6
			c-7.3,7.9-7.3,14.3-9,16.1c-1.7,1.9-6.4,7.4-6.7,11.2C230.6,235.6,249.7,233.5,255.9,234.9z"/>
		<path class="st40" d="M254.5,190.9c0,0,0,0.2,0,0.6c0,0.4-0.1,0.9-0.2,1.6c-0.2,1.4-0.6,3.4-1.5,5.7c-0.4,1.1-1,2.4-1.6,3.6
			c-0.3,0.6-0.7,1.2-1.1,1.8c-0.2,0.3-0.4,0.6-0.6,0.9c-0.1,0.2-0.2,0.3-0.3,0.5l-0.4,0.4c-0.2,0.3-0.5,0.6-0.7,0.9
			c-0.2,0.3-0.5,0.6-0.8,0.9c-0.5,0.6-1,1.2-1.6,1.8c-0.5,0.6-1,1.2-1.5,1.9c-0.2,0.3-0.4,0.7-0.7,1l-0.3,0.5l-0.3,0.5
			c-0.8,1.4-1.5,2.8-2.1,4.2c-0.6,1.4-1.1,2.9-1.6,4.3c-0.2,0.7-0.5,1.4-0.9,2.1c-0.1,0.2-0.2,0.3-0.3,0.5l-0.2,0.2
			c-0.1,0.1-0.1,0.1-0.2,0.2c-0.2,0.3-0.5,0.5-0.7,0.8c-0.9,1-1.7,2-2.5,3c-0.7,0.9-1.3,1.9-1.9,2.7c-0.5,0.8-0.9,1.6-1.2,2.2
			c-0.3,0.6-0.4,1.2-0.5,1.5c-0.1,0.4-0.1,0.6-0.1,0.6l-0.1,0c0,0,0-0.2,0-0.6c0-0.4,0.1-0.9,0.4-1.6c0.4-1.4,1.4-3.2,2.7-5.2
			c0.7-1,1.5-2,2.4-3.1c0.2-0.3,0.5-0.5,0.7-0.8c0.1-0.1,0.1-0.1,0.2-0.2l0.1-0.2c0.1-0.1,0.2-0.3,0.3-0.4c0.3-0.6,0.6-1.3,0.8-2
			c0.5-1.4,1.1-2.9,1.7-4.3c0.2-0.4,0.3-0.7,0.5-1.1c0.2-0.4,0.4-0.7,0.6-1.1c0.4-0.7,0.8-1.4,1.3-2l0.3-0.5l0.4-0.5l0.7-1
			c0.3-0.3,0.5-0.6,0.8-0.9c0.2-0.3,0.5-0.6,0.8-0.9c0.5-0.6,1-1.2,1.5-1.8c0.2-0.3,0.5-0.6,0.7-0.9c0.2-0.3,0.4-0.6,0.6-0.9
			l0.3-0.5c0.1-0.2,0.2-0.3,0.3-0.5c0.2-0.3,0.4-0.6,0.6-0.9c0.2-0.3,0.3-0.6,0.5-0.9c0.2-0.3,0.3-0.6,0.5-0.9
			c0.3-0.6,0.6-1.2,0.9-1.8c0.1-0.3,0.3-0.6,0.4-0.9c0.1-0.3,0.2-0.6,0.3-0.8c0.5-1.1,0.8-2.1,1.1-3.1c0.1-0.5,0.3-0.9,0.4-1.3
			c0.1-0.4,0.2-0.8,0.3-1.1c0.2-0.7,0.3-1.2,0.3-1.6C254.4,191.1,254.5,190.9,254.5,190.9L254.5,190.9z"/>
		<path class="st41" d="M268.1,183.8c0,0-0.1,0.2-0.3,0.5c-0.2,0.3-0.4,0.8-0.7,1.5c-0.6,1.3-1.6,3.1-2.7,5.3
			c-0.6,1.1-1.2,2.3-1.9,3.5c-0.7,1.2-1.4,2.5-2.2,3.8c-0.8,1.3-1.5,2.7-2.2,4.2c-0.2,0.4-0.4,0.7-0.5,1.1c-0.2,0.4-0.3,0.7-0.5,1.1
			c-0.3,0.8-0.6,1.5-0.9,2.3c-0.6,1.5-1.2,3.1-1.7,4.6c-0.5,1.5-0.9,3-1.1,4.5c-0.2,1.5-0.3,2.9-0.2,4.3c0,1.4,0.2,2.7,0.3,3.9
			c0.1,0.6,0.2,1.2,0.3,1.7c0.1,0.5,0.2,1.1,0.3,1.5c0.2,1,0.4,1.8,0.6,2.5c0.4,1.4,0.6,2.2,0.6,2.2l-0.1,0c0,0-0.3-0.8-0.8-2.1
			c-0.1-0.2-0.1-0.3-0.2-0.5c-0.1-0.2-0.1-0.4-0.2-0.6c-0.1-0.4-0.3-0.9-0.4-1.3c-0.2-0.5-0.3-1-0.4-1.5c-0.1-0.5-0.3-1.1-0.4-1.7
			c-0.1-0.6-0.2-1.2-0.3-1.9c0-0.3-0.1-0.7-0.1-1c0-0.3-0.1-0.7-0.1-1.1c0-0.4,0-0.7,0-1.1c0-0.4,0-0.7,0-1.1c0-0.8,0.1-1.5,0.2-2.3
			c0.3-1.5,0.7-3.1,1.3-4.6c0.3-0.8,0.6-1.5,0.9-2.3c0.3-0.7,0.7-1.5,1-2.2c0.6-1.5,1.4-3,2.1-4.4c0.7-1.5,1.4-2.9,2.1-4.3
			c0.7-1.4,1.3-2.7,2-4c0.7-1.2,1.3-2.4,1.9-3.5c1.2-2.1,2.3-3.9,3.1-5.1c0.4-0.6,0.7-1.1,0.9-1.4
			C267.9,183.9,268,183.8,268.1,183.8L268.1,183.8z"/>
		<path class="st42" d="M279,244c-0.4-0.3-0.9-0.6-1.3-0.9c-0.4-0.3-0.9-0.6-1.3-0.8l-1.3-0.8l-1.4-0.8l-1.4-0.7l-1.4-0.7
			c-0.5-0.2-0.9-0.4-1.4-0.6c-0.5-0.2-1-0.4-1.4-0.6c-0.5-0.2-1-0.4-1.5-0.6c-0.5-0.2-1-0.4-1.5-0.5c-0.5-0.2-1-0.3-1.5-0.5
			c-0.2-0.1-0.5-0.2-0.7-0.2l-0.8-0.2c-0.5-0.1-1-0.3-1.5-0.4l-1.5-0.3c-0.3,0-0.5-0.1-0.8-0.1l-0.8-0.1l-1.6-0.1l0,0l0,0
			c-0.5-0.1-1.1-0.1-1.6-0.2c-0.5-0.1-1.1-0.1-1.6-0.1c-1.1-0.1-2.1-0.1-3.2-0.1c-0.5,0-1.1,0-1.6,0c-0.5,0-1.1,0-1.6,0l-1.6,0
			l-1.6,0l-1.6,0.1c-0.5,0-1.1,0-1.6,0.1c-0.5,0-1.1,0.1-1.6,0.1l-1.6,0.2l-1.6,0.2l-0.8,0.1l-0.8,0.1c-0.5,0.1-1,0.1-1.5,0.3
			l-1.5,0.3l0.1,0c-1,0.5-2,0.9-3,1.4c-1,0.4-2,0.9-3,1.3l-3.1,1.3c-1,0.4-2.1,0.9-3.1,1.3l-0.1-0.1c1-0.6,1.9-1.1,2.9-1.6l2.9-1.6
			c1-0.5,2-1,2.9-1.6c1-0.5,2-1,3-1.5l0.1,0l0.1,0l1.6-0.4c0.3-0.1,0.5-0.1,0.8-0.2l0.8-0.1l0.8-0.1l0.8-0.1
			c0.5-0.1,1.1-0.1,1.6-0.2l1.6-0.1c0.5,0,1.1,0,1.6-0.1c0.5,0,1.1,0,1.6,0c0.5,0,1.1,0,1.6,0c1.1,0,2.1,0.1,3.2,0.1
			c1.1,0.1,2.1,0.2,3.2,0.3c1.1,0.1,2.1,0.2,3.2,0.3l1.6,0.2l1.6,0.2l0,0l1.6,0.1l0.8,0c0.3,0,0.5,0.1,0.8,0.1l1.6,0.2
			c0.5,0.1,1.1,0.2,1.6,0.3l0.8,0.1c0.3,0,0.5,0.1,0.8,0.2c0.5,0.1,1,0.2,1.6,0.4c0.5,0.2,1,0.3,1.5,0.5c0.5,0.2,1,0.4,1.5,0.6
			c0.5,0.2,1,0.4,1.5,0.6c0.5,0.2,1,0.4,1.4,0.7l1.4,0.8c0.5,0.3,0.9,0.6,1.4,0.8c0.4,0.3,0.9,0.6,1.3,0.9c0.4,0.3,0.9,0.6,1.3,1
			C277.6,242.5,278.4,243.2,279,244L279,244z"/>
		<path class="st43" d="M287.5,177.8c0,0-5.7,3.2-13.1-5.7c0,0,0.5-4,4.4-1.7s5.4,3.4,7.7,3.4C288.7,173.8,289.8,177.7,287.5,177.8z
			"/>
		<path class="st44" d="M291.4,178c-0.8-1.4-1.5-2.9-2.3-4.3l-1.1-2.1l-1.2-2.1l-1.2-2.1l-0.6-1c-0.2-0.3-0.4-0.7-0.7-1
			c-0.2-0.3-0.5-0.6-0.7-0.9c-0.3-0.3-0.5-0.6-0.8-0.9c-0.6-0.6-1.2-1.1-1.8-1.7c-1.2-1.1-2.5-2-3.8-3.1c-0.6-0.5-1.3-1-1.9-1.6
			c-0.6-0.5-1.2-1.1-1.8-1.6c-0.3-0.3-0.6-0.6-0.9-0.9c-0.1-0.1-0.3-0.3-0.4-0.5c-0.1-0.2-0.3-0.3-0.4-0.6c0-0.1-0.1-0.2-0.1-0.3
			l0,0c0-0.1,0,0.1,0,0.1l0,0l0,0c0,0,0-0.1,0-0.1c0,0,0,0.1,0,0l-0.1-0.1c-0.1-0.1-0.2-0.2-0.4-0.3c-0.3-0.2-0.6-0.4-0.9-0.7
			c-0.7-0.4-1.4-0.8-2.1-1.2c-0.7-0.4-1.4-0.8-2.1-1.1l0.1,0c-0.8-0.3-1.5-0.6-2.3-0.8l-1.1-0.4c-0.4-0.1-0.7-0.3-1.1-0.5l0-0.1
			c0.4,0.1,0.8,0.1,1.2,0.2l1.2,0.2c0.8,0.2,1.6,0.4,2.3,0.5l0,0l0,0c0.8,0.3,1.5,0.6,2.3,1c0.7,0.3,1.5,0.7,2.2,1.1
			c0.4,0.2,0.7,0.4,1.1,0.7c0.2,0.1,0.4,0.3,0.5,0.5c0,0.1,0.1,0.1,0.1,0.2c0,0.1,0.1,0.2,0.2,0.3c0,0,0,0.1,0,0.1l0,0l0,0
			c0,0,0,0.1,0,0.1l0,0c0,0,0,0,0,0c0,0.1,0.2,0.2,0.3,0.4l0.4,0.4c0.3,0.3,0.5,0.6,0.8,0.9c0.6,0.6,1.2,1.1,1.7,1.7
			c0.6,0.6,1.2,1.1,1.8,1.7c1.2,1.1,2.3,2.3,3.4,3.5l1.7,1.7l0.9,0.9l0.9,0.9c0.3,0.3,0.5,0.6,0.8,0.9l0.8,1c0.2,0.3,0.5,0.7,0.7,1
			c0.2,0.3,0.4,0.7,0.7,1c0.2,0.4,0.4,0.7,0.6,1.1l0.6,1.1c0.4,0.7,0.7,1.5,1,2.2c0.3,0.8,0.6,1.5,0.9,2.3c0.3,0.8,0.5,1.5,0.7,2.3
			L291.4,178z"/>
	</g>
</g>
<g id="Carbon">
	<g>
		<path class="st12" d="M191.2,233.5c0,0-4.9,3,0,6.7c4.9,3.7,20.5,13.8,24.7,15.7c4.1,1.8,18.4,5.1,26.2,6.4c0,0,5.5,1.4,7.4-3.7
			c0,0,4.1-12,6.4-14.5L191.2,233.5z"/>
		<path class="st13" d="M249.4,258.4c0,0,0.2-0.6,0.5-1.5v0c0,0-4.7-0.3-7.8-1.2c-3.1-0.9-5.9-1.8-10.8-1c-4.9,0.8-11,1.6-17,0.3
			c0.6,0.3,1.1,0.6,1.5,0.8c4.1,1.8,18.4,5.1,26.2,6.4C242.1,262.1,247.6,263.5,249.4,258.4z"/>
		<path class="st14" d="M192.8,233.5c0,0-3.3,1.2-1.9,5.5c0,0,4.7,3.2,11.7,7.7c0,0,0.7-1.4,5.2,0c4.5,1.4,7.4,1.2,8.8,0
			c1.4-1.2,8.3-3.9,8.3-3.9L192.8,233.5z"/>
		<path class="st15" d="M281.5,240.4c0,0,3.9-10.4,4.1-15c0.2-4.6,1.8-15.7,3.7-19.8c1.8-4.1,2.3-11.5,2.1-15.4
			c-0.2-3.9,0.1-12.3,0.1-12.3s-3.7-9.6-7.7-13.7c-3.9-4.1-11.3-9.9-11.5-11c-0.2-1.2-6-3.7-6-3.7l-4.6-1.4c0,0-17.5,7.1-24.2,12
			l-1.3,3L281.5,240.4z"/>
		<path class="st16" d="M237.5,160.1c0,0-9.7-5.3-14-5.5c-4.2-0.2-6.5-1.8-6.5-1.8s-2.5-0.5-4.6,4.4l8.7,5.5l16.3,2.7V160.1z"/>
		<path class="st12" d="M281.5,240.4c0,0-1.8-21.2,0-27s0.7-14.8-0.8-18c-1.5-3.1-12.6-11.6-12.6-11.6l-6.1,14.3l-1.8,17.7l6.2,6.9
			L281.5,240.4z"/>
		<path class="st16" d="M279.1,244c0,0,2.4-0.4,2.4-3.6s-5.8-9.9-6.2-11.5c-0.5-1.6-12.2-10.9-11.7-16c0.5-5.1-1.2-15.7,4.5-29.1
			l-9.6,8.5l-9.1,23l-0.5,15l4.9,7.6L279.1,244z"/>
		<linearGradient id="SVGID_10_" gradientUnits="userSpaceOnUse" x1="180.8916" y1="213.352" x2="243.7317" y2="213.352">
			<stop  offset="0.1326" style="stop-color:#4F4F4F"/>
			<stop  offset="0.8605" style="stop-color:#353535"/>
		</linearGradient>
		<path class="st45" d="M193.3,190.2c0,0-7.6,5.8-12.4,14.5l48.1,31.8l3.7-0.9l9-14.7l2.1-8l-16.8-8.1L193.3,190.2z"/>
		<linearGradient id="SVGID_11_" gradientUnits="userSpaceOnUse" x1="177.2087" y1="224.3913" x2="230.6112" y2="224.3913">
			<stop  offset="0" style="stop-color:#353535"/>
			<stop  offset="0.8381" style="stop-color:#4C4C4C"/>
		</linearGradient>
		<path class="st46" d="M230.6,235.6c0,0-32.7-23.5-49.7-30.8c0,0-3.7,12-3.7,17.5c0,0,18.9,16.1,29.5,21.6
			C206.7,243.9,211.3,246.2,230.6,235.6z"/>
		<path class="st19" d="M218.6,241.4c0,0,11.8,2.5,21.1,4.6c9.3,2.1,9.7-1,32.1-1.9c0,0,4.8-1,7.3-0.1c0,0-9.7-8.8-23.1-9.1
			c0,0-15.3-2-25.3,0.7L218.6,241.4z"/>
		<linearGradient id="SVGID_12_" gradientUnits="userSpaceOnUse" x1="197.2154" y1="176.2353" x2="266.2896" y2="176.2353">
			<stop  offset="0" style="stop-color:#707070"/>
			<stop  offset="0.5021" style="stop-color:#595959"/>
			<stop  offset="0.8127" style="stop-color:#4C4C4C"/>
		</linearGradient>
		<path class="st47" d="M260.5,178.9c0,0-14-8.1-18.6-12c-4.6-3.9-13.6-8.3-16.3-8.5c-2.8-0.2-13.1-1.4-13.1-1.4s-4.4,3.7-6.4,7.4
			c-2.1,3.7-6,7.8-6.7,9.7c-0.7,1.8-0.8,2.7-2.1,5.1c-1.2,2.4,56.5,16.2,56.5,16.2l12.5-13.7L260.5,178.9z"/>
		<linearGradient id="SVGID_13_" gradientUnits="userSpaceOnUse" x1="193.3215" y1="195.3985" x2="253.7787" y2="195.3985">
			<stop  offset="1.928110e-02" style="stop-color:#4F4F4F"/>
			<stop  offset="0.409" style="stop-color:#474747"/>
			<stop  offset="1" style="stop-color:#353535"/>
		</linearGradient>
		<path class="st48" d="M253.8,193.4c0,0-16.5-11.4-30.1-14.2c-13.6-2.8-26.5,0-26.5,0s-3,5.1-3.9,11c0,0,7.4,5.3,12,7.1
			s15.7,9.2,15.7,9.2s3,2.5,21.8,6.3C242.7,212.9,252.5,203,253.8,193.4z"/>
		<path class="st22" d="M253.7,193.4l-6.6-3.7l-3.3-1.8l-3.3-1.8c-0.6-0.3-1.1-0.6-1.6-0.9l-1.7-0.9c-0.5-0.3-1.1-0.6-1.7-0.9
			c-0.6-0.3-1.1-0.6-1.7-0.8c-0.6-0.3-1.1-0.5-1.7-0.7c-0.3-0.1-0.6-0.2-0.9-0.3l-0.9-0.3c-0.6-0.2-1.2-0.4-1.8-0.6l-1.8-0.5
			c-0.3-0.1-0.6-0.2-0.9-0.2l-0.9-0.2c-0.6-0.1-1.2-0.3-1.8-0.3l-1.9-0.3c-0.6-0.1-1.2-0.1-1.8-0.2l-0.9-0.1l-0.9-0.1
			c-0.6,0-1.2-0.1-1.9-0.1l-1.9-0.1l-1.9,0c-0.6,0-1.2,0-1.9,0l-0.9,0l-0.9,0c-1.2,0-2.5,0.1-3.7,0.1c-1.2,0.1-2.5,0.2-3.7,0.2
			c-1.2,0.1-2.5,0.2-3.7,0.4l0.1-0.1c-0.4,0.6-0.8,1.3-1.2,1.9l-0.1-0.1c0.3-0.7,0.6-1.4,0.9-2.1l0-0.1l0.1,0
			c1.2-0.3,2.5-0.6,3.7-0.8c0.6-0.1,1.2-0.2,1.9-0.3c0.6-0.1,1.2-0.2,1.9-0.2c0.6-0.1,1.3-0.1,1.9-0.2c0.6-0.1,1.3-0.1,1.9-0.1
			l0.9,0l0.9,0c0.6,0,1.3,0,1.9,0c0.6,0,1.3,0,1.9,0.1l1.9,0.1c0.6,0,1.3,0.1,1.9,0.2l0.9,0.1l0.9,0.1c0.6,0.1,1.3,0.2,1.9,0.3
			l1.8,0.4c0.6,0.1,1.2,0.3,1.8,0.5c0.6,0.2,1.2,0.3,1.8,0.6l1.8,0.6l1.8,0.7c1.2,0.4,2.3,0.9,3.5,1.3c1.2,0.5,2.3,0.9,3.5,1.4
			l1.7,0.7c0.6,0.3,1.1,0.5,1.7,0.8c0.6,0.3,1.1,0.6,1.7,0.9c0.6,0.3,1.1,0.6,1.7,0.9l1.6,0.9l1.6,1c1.1,0.7,2.1,1.4,3.1,2.1
			c1,0.7,2,1.5,3,2.3L253.7,193.4z"/>
		<path class="st23" d="M266.2,166.3c-0.3-0.3-0.5-0.7-0.8-1c-0.2-0.4-0.4-0.7-0.6-1.1c-0.2-0.4-0.4-0.8-0.5-1.2
			c-0.1-0.2-0.1-0.4-0.2-0.6c-0.1-0.2-0.1-0.4-0.1-0.7c0-0.2,0-0.4,0-0.7l0-0.3c0-0.1,0-0.2,0-0.3l0.1-0.3c0-0.1,0.1-0.2,0.1-0.3
			l0.1-0.3c0-0.1,0.1-0.2,0.2-0.3l0.2-0.3c0-0.1,0.1-0.2,0.1-0.2c0-0.1,0.1-0.1,0.1-0.2c0-0.1,0.1-0.2,0.1-0.2
			c0.1-0.3,0.2-0.7,0.2-1.1c0-0.7-0.1-1.5-0.3-2.3c-0.2-0.8-0.5-1.6-0.8-2.3c-0.3-0.7-0.7-1.5-1.2-2.1c-0.4-0.7-0.9-1.3-1.5-2
			l0.3,0.1c-0.8,0.4-1.6,0.8-2.4,1.1c-0.8,0.4-1.6,0.8-2.4,1.1l-4.9,2.2l-4.9,2.2l-1.2,0.5c-0.4,0.2-0.8,0.4-1.2,0.6l-1.2,0.6
			c-0.4,0.2-0.8,0.4-1.2,0.6l-0.1-0.1c0.7-0.6,1.4-1.1,2.2-1.6c0.4-0.3,0.8-0.5,1.1-0.7c0.4-0.2,0.8-0.5,1.2-0.7
			c0.4-0.2,0.8-0.5,1.2-0.7l1.2-0.6c0.4-0.2,0.8-0.4,1.2-0.6c0.4-0.2,0.8-0.4,1.2-0.6c0.8-0.4,1.6-0.7,2.5-1.1
			c0.8-0.3,1.7-0.7,2.5-1c0.8-0.3,1.7-0.6,2.5-0.9l2.6-0.8l0.2-0.1l0.1,0.2c0.5,0.7,0.9,1.4,1.3,2.1c0.4,0.7,0.9,1.4,1.3,2.1
			c0.4,0.7,0.8,1.5,1.1,2.3c0.3,0.8,0.6,1.6,0.6,2.5c0,0.5,0,0.9-0.2,1.4c0,0.1-0.1,0.2-0.1,0.3c-0.1,0.1-0.1,0.2-0.2,0.3l-0.2,0.3
			l-0.1,0.2c0,0.1-0.1,0.2-0.1,0.2l-0.1,0.3c0,0.1-0.1,0.2-0.1,0.3l-0.1,0.3c0,0.1,0,0.2-0.1,0.3l0,0.3c0,0.2,0,0.4,0,0.6
			c0,0.2,0,0.4,0,0.6c0,0.2,0.1,0.4,0.1,0.6c0.1,0.4,0.2,0.8,0.3,1.2c0.2,0.8,0.5,1.5,0.9,2.3L266.2,166.3z"/>
		<path class="st24" d="M230.6,235.6c0,0-0.8-0.4-2.2-1.2c-0.3-0.2-0.7-0.4-1.1-0.7c-0.4-0.2-0.9-0.5-1.3-0.8c-1-0.6-2-1.3-3.2-2
			c-1.1-0.8-2.4-1.6-3.7-2.5c-1.3-0.9-2.6-1.9-3.9-3c-1.4-1-2.8-2.1-4.3-3.1c-1.5-1-3.1-1.9-4.7-2.8c-1.6-0.9-3.2-1.8-4.8-2.7
			c-1.5-0.9-3.1-1.8-4.6-2.6c-1.5-0.9-2.9-1.7-4.3-2.5c-1.3-0.8-2.6-1.6-3.8-2.3c-1.2-0.7-2.3-1.3-3.2-1.9c-0.5-0.3-0.9-0.6-1.3-0.8
			c-0.4-0.2-0.8-0.5-1.2-0.7c-1.4-0.8-2.2-1.3-2.2-1.3l0.1-0.1c0,0,0.9,0.3,2.4,0.8c0.4,0.1,0.8,0.3,1.3,0.5
			c0.4,0.2,0.9,0.4,1.4,0.6c1,0.5,2.2,1,3.4,1.6c1.2,0.6,2.6,1.3,3.9,2.1c1.4,0.8,2.8,1.6,4.3,2.5c1.5,0.9,3,1.9,4.5,2.9
			c0.8,0.5,1.5,1,2.3,1.5c0.7,0.5,1.5,1.1,2.2,1.6c1.5,1.1,3,2.2,4.5,3.1c1.5,1,3,1.9,4.5,2.8c1.5,0.9,2.9,1.7,4.3,2.5
			c1.3,0.9,2.5,1.7,3.6,2.5c1.1,0.8,2.1,1.6,3,2.3c0.9,0.7,1.6,1.3,2.3,1.8c1.2,1,1.9,1.7,1.9,1.7L230.6,235.6z"/>
		<path class="st25" d="M230.2,243.8c0,0,9.8-9.4,33.6-7.4c0,0-26.7-7.4-43.2,3.9l-1.2,0.8L230.2,243.8z"/>
		<path class="st26" d="M268.9,238.1c-2.1-0.9-13.4-4.2-17.9-3.6c-0.1,0-0.2,0-0.3,0c7.3,0.6,12.6,2.1,12.6,2.1
			c-23.8-2.1-33.6,7.4-33.6,7.4l-2.5-0.6l-0.2,0.1l11,2.3c0,0,4.2,2.5,15.2,0c0,0,9.2-2.8,14.2-2.7C272.6,243.3,271,239,268.9,238.1
			z"/>
		<path class="st27" d="M220.8,238c0,0-6.9,4.3-11.7,5c0,0-4,0-9.3-5"/>
		<path class="st28" d="M207.8,222.5c0,0-14.6-10-22-13.8c0,0-1.9,4-1.6,6c0.3,2.1,8.4,8.6,9.1,8.8c0.7,0.2,2.1-0.7,5.4,0
			C202,224.2,208.4,226.6,207.8,222.5z"/>
		<path class="st27" d="M198.6,194.2c0,0,5.4,6.7,10.4,10.5s11.4,6,14.5,7.4c3.1,1.4,8.3,1.7,11.2,4.7s3.6,5.9,3.6,5.9
			s2.2-5.7,3.8-8.2l-4.7-1.5c0,0-4.5-1.1-8.4-2.7c-4-1.6-14.4-7.2-14.4-7.2l-4.4-2.6l-3.5-1.8C206.8,198.6,198.7,195,198.6,194.2z"
			/>
		<path class="st29" d="M193.6,189.4c0,0.5-0.1,0.9-0.1,1.4l-0.1-0.2l3.4,2.1c1.1,0.7,2.3,1.4,3.4,2c0.6,0.3,1.2,0.7,1.7,1
			c0.6,0.3,1.2,0.6,1.7,0.9l0.9,0.5l0.9,0.4c0.3,0.1,0.6,0.3,0.9,0.5l0.9,0.5c0.6,0.3,1.2,0.7,1.7,1c0.6,0.3,1.1,0.7,1.7,1
			c0.6,0.3,1.2,0.7,1.7,1l1.7,1c2.3,1.3,4.7,2.6,7,4.1l0,0c0,0,0.1,0.1,0.2,0.1c0.1,0.1,0.2,0.1,0.3,0.2c0.2,0.1,0.4,0.2,0.6,0.3
			c0.4,0.2,0.9,0.4,1.3,0.5c0.9,0.3,1.8,0.6,2.7,0.9l1.3,0.4l1.4,0.4c0.4,0.1,0.9,0.3,1.4,0.4l1.4,0.4c0.9,0.3,1.8,0.5,2.7,0.8
			l2.7,0.8l2.7,0.8c0.9,0.3,1.8,0.5,2.7,0.8l0,0.1c-0.9-0.1-1.9-0.3-2.8-0.4c-0.9-0.1-1.9-0.3-2.8-0.5c-0.9-0.2-1.9-0.4-2.8-0.5
			c-0.9-0.2-1.9-0.4-2.8-0.6l-1.4-0.4c-0.5-0.1-0.9-0.2-1.4-0.4c-0.9-0.3-1.8-0.5-2.7-0.8c-0.9-0.3-1.8-0.6-2.7-1
			c-0.4-0.2-0.9-0.4-1.3-0.6c-0.2-0.1-0.4-0.2-0.7-0.3c-0.1-0.1-0.2-0.1-0.3-0.2c-0.1-0.1-0.2-0.1-0.4-0.2l0,0
			c-1.1-0.8-2.2-1.5-3.3-2.3c-1.1-0.8-2.2-1.5-3.3-2.3c-1.1-0.7-2.3-1.4-3.4-2.1c-1.2-0.7-2.4-1.3-3.6-1.8l-0.9-0.4l-0.9-0.4
			l-0.9-0.4c-0.3-0.1-0.6-0.3-0.9-0.4c-1.2-0.6-2.4-1.3-3.6-2c-0.6-0.3-1.1-0.7-1.7-1.1c-0.6-0.4-1.1-0.8-1.7-1.1
			c-0.5-0.4-1.1-0.8-1.6-1.2c-0.5-0.4-1.1-0.8-1.6-1.3l-0.1-0.1l0-0.1c0.1-0.4,0.2-0.9,0.4-1.3L193.6,189.4z"/>
		<path class="st30" d="M217.2,214.7c0,0-5.5,5.5-8.6,9.6c0,0,11.2,5.9,15.3,9.1c0,0,0.8-3.8-1.4-5.3c-2.2-1.6-6-1.5-5.4-4
			s2.4-6.6,1.5-7.3C217.7,216,218.6,213.3,217.2,214.7z"/>
		<path class="st31" d="M242.6,212.8c1-1.5,2.1-3,3.6-4.7c0.8-0.9,1.5-1.8,2.1-2.6c-2.7-1.3-17.6-8.5-21.4-11.2
			c-5.6-4.1-17.3-10.8-21.3-10.5c0,0,0.9,1.8,1.3,4.1c0.4,2.3,5.8,4,8.5,7.5c2.7,3.5,1.6,5.4,3.4,6.8c1.8,1.4,7.6,2.5,9.1,5.1
			c1.5,2.6,13.6,5.4,13.6,5.4S242.1,212.8,242.6,212.8z"/>
		<path class="st32" d="M248.6,206.2c0,0-2.7-1.3-6.8-3.4c-2-1-4.4-2.3-6.9-3.6c-1.3-0.7-2.6-1.4-3.9-2.1c-1.3-0.7-2.6-1.5-3.9-2.4
			c-1.2-0.9-2.5-1.8-3.7-2.6c-1.2-0.8-2.5-1.6-3.7-2.3c-2.4-1.5-4.8-2.7-6.8-3.7c-2-1-3.8-1.7-5.1-2c-0.6-0.2-1.2-0.3-1.5-0.3
			c-0.2,0-0.3,0-0.4,0c-0.1,0-0.1,0-0.1,0s0,0,0.1,0c0.1,0,0.2,0,0.4,0c0.4,0,0.9,0.1,1.5,0.2c1.3,0.3,3.1,0.9,5.2,1.9
			c2.1,0.9,4.5,2.2,6.9,3.6c1.2,0.7,2.5,1.5,3.8,2.2c1.3,0.8,2.5,1.6,3.8,2.5c1.2,0.8,2.6,1.5,3.9,2.3c1.3,0.7,2.6,1.4,3.9,2
			c2.5,1.3,4.9,2.4,7,3.4c4.1,2,6.9,3.2,6.9,3.2L248.6,206.2z"/>
		<linearGradient id="SVGID_14_" gradientUnits="userSpaceOnUse" x1="246.8574" y1="210.8775" x2="246.8574" y2="232.3349">
			<stop  offset="5.118534e-03" style="stop-color:#4C4C4C"/>
			<stop  offset="1" style="stop-color:#353535"/>
		</linearGradient>
		<path class="st49" d="M253.8,232.3c0,0-6.8-9.2-1.2-21.5l-5.2,1.2l-4.7,8.1l-2.8,12.2C239.9,232.3,246.7,230.8,253.8,232.3z"/>
		<linearGradient id="SVGID_15_" gradientUnits="userSpaceOnUse" x1="234.7696" y1="184.4256" x2="263.8132" y2="184.4256">
			<stop  offset="5.118534e-03" style="stop-color:#4C4C4C"/>
			<stop  offset="1" style="stop-color:#353535"/>
		</linearGradient>
		<path class="st50" d="M263.8,182.2c0,0-8.5,5.4-8.8,6c0,0-1.8,1.2-1.7,2.8c0,0-12.8-8.1-18.5-10l9-3l4.6,1.8c0,0,2.8-1.3,5.4-0.8
			c2.6,0.5,4.1,1.2,5.7,1.2C259.5,180.2,262.8,181.5,263.8,182.2z"/>
		<linearGradient id="SVGID_16_" gradientUnits="userSpaceOnUse" x1="200.5859" y1="167.6198" x2="224.9717" y2="167.6198">
			<stop  offset="0" style="stop-color:#707070"/>
			<stop  offset="0.8127" style="stop-color:#4C4C4C"/>
		</linearGradient>
		<path class="st51" d="M200.6,176.2c0,0,9-1.3,16.1,0L225,161c0,0-11.2-1.5-12.2-2C212.8,159,201.6,172.8,200.6,176.2z"/>
		<linearGradient id="SVGID_17_" gradientUnits="userSpaceOnUse" x1="239.9473" y1="157.3599" x2="263.0688" y2="157.3599">
			<stop  offset="5.118534e-03" style="stop-color:#4C4C4C"/>
			<stop  offset="1" style="stop-color:#353535"/>
		</linearGradient>
		<path class="st52" d="M262.7,164.1c0,0-1-3.8,0-5.1s-0.5-7.3-2.2-8.4c0,0-16.8,7.6-20.5,10C239.9,160.6,256.3,156.2,262.7,164.1z"
			/>
		<path class="st26" d="M252.5,220.7c0,0,5.6-11.1,8-12.3c0,0-1.4,8.9,8,13.2l-4.7-6.6c0,0-0.5-3.6-0.2-5c0.3-1.4,0.7-10.6,0.7-10.6
			s0.9-10.5,2.4-11.3c0,0-1.8,1.1-2.9,3.2C262.7,193.4,251.5,214.7,252.5,220.7z"/>
		<path class="st37" d="M279.4,243.8c0,0,0.1,0,0.2-0.1c0.1-0.1,0.2-0.2,0.4-0.4c0.3-0.3,0.7-1,0.8-1.8c0-0.2,0-0.5,0-0.7
			c0-0.1,0-0.1,0-0.2l0,0c0,0,0,0,0,0l0-0.1c0-0.1,0-0.3-0.1-0.4c0-0.3-0.1-0.5-0.2-0.8c-0.1-0.3-0.2-0.6-0.3-0.8
			c-0.5-1.1-1.3-2.3-2.1-3.6c-0.9-1.3-1.9-2.7-2.8-4.2c-0.2-0.4-0.5-0.8-0.7-1.3l0-0.1l0,0c0,0,0,0.1,0,0l0,0c0-0.1,0-0.1-0.1-0.2
			c0-0.1-0.1-0.1-0.1-0.2c-0.1-0.2-0.3-0.4-0.4-0.5c-0.6-0.7-1.3-1.4-1.9-2.1c-1.3-1.4-2.7-2.9-4.1-4.4c-0.7-0.8-1.4-1.5-2-2.4
			c-0.7-0.8-1.3-1.7-1.8-2.6c-0.5-0.9-1-1.9-1.2-3c0-0.1,0-0.3,0-0.4c0-0.1,0-0.3,0-0.4l0-0.8c0-0.5,0-1,0-1.5c0-2.1,0-4.1,0-6.1
			c0-2,0.2-3.9,0.4-5.7c0.2-1.8,0.5-3.5,0.9-5c0.4-1.5,0.7-2.9,1.1-4.2c0.1-0.3,0.2-0.6,0.3-0.9c0.1-0.3,0.2-0.6,0.3-0.8
			c0.2-0.5,0.4-1,0.5-1.4c0.4-0.8,0.7-1.5,0.9-2c0.2-0.4,0.3-0.7,0.3-0.7l0.1,0c0,0-0.1,0.2-0.2,0.7c-0.2,0.5-0.4,1.1-0.7,2
			c-0.1,0.4-0.3,0.9-0.4,1.4c-0.1,0.3-0.2,0.5-0.3,0.8c-0.1,0.3-0.2,0.6-0.2,0.9c-0.3,1.2-0.7,2.6-1,4.1c-0.1,0.8-0.3,1.6-0.4,2.4
			c-0.1,0.4-0.1,0.8-0.2,1.3c0,0.4-0.1,0.9-0.2,1.3c-0.1,0.4-0.1,0.9-0.1,1.3c0,0.5-0.1,0.9-0.1,1.4c-0.1,0.9-0.1,1.9-0.2,2.9
			c-0.1,2-0.1,4-0.1,6c0,0.5,0,1-0.1,1.6c0,0.5-0.1,1-0.1,1.5c0.1,1,0.5,1.9,0.9,2.8c0.5,0.9,1.1,1.8,1.7,2.6c0.6,0.8,1.3,1.6,2,2.4
			c1.4,1.5,2.8,2.9,4.3,4.3c0.7,0.7,1.4,1.3,2.1,2c0.2,0.2,0.3,0.4,0.5,0.6c0.1,0.1,0.2,0.2,0.2,0.3c0,0.1,0.1,0.1,0.1,0.2l0,0
			c0,0,0,0.1,0,0.1l0,0l0,0.1c0.1,0.4,0.4,0.8,0.6,1.1c1,1.5,2,2.9,2.8,4.2c0.8,1.3,1.6,2.6,2,3.8c0.1,0.3,0.2,0.6,0.3,0.9
			c0.1,0.3,0.2,0.6,0.2,0.9c0,0.1,0,0.3,0,0.4l0,0.1l0,0.1l0,0.1c0,0.1,0,0.1,0,0.2c0,0.3-0.1,0.5-0.1,0.7c-0.2,0.9-0.7,1.6-1,1.9
			c-0.2,0.2-0.3,0.3-0.5,0.3C279.5,243.8,279.5,243.9,279.4,243.8L279.4,243.8z"/>
		<path class="st26" d="M284.7,180.3c0,0,4.3-0.3,5.5-1.3c0,0-1,3-0.7,4.9c0.3,1.9,1.4,5.2,0,10.3c0,0-4-0.3-4.8,4.9
			c-0.9,5.2-0.2,10.4-2.2,12.9c0,0,1.6-16.7-4.8-20.3C277.6,191.8,285.2,186.7,284.7,180.3z"/>
		<path class="st16" d="M245.3,169.5c0,0,16.2-4.2,21-3.2c0,0,6.9,8.4,11.7,11.7c0,0,3.7,3.1,6.7,2.4c0,0,0.1,6.7-5.6,11.5h-1.5"/>
		<path class="st38" d="M258.9,179c-1-0.5-1.9-1.1-2.8-1.7c-0.9-0.6-1.9-1.2-2.8-1.7c-1.8-1.2-3.7-2.4-5.5-3.7
			c-0.9-0.6-1.8-1.3-2.6-2c-0.9-0.7-1.7-1.4-2.6-2.1c-0.8-0.7-1.7-1.4-2.6-2.1c-0.9-0.6-1.8-1.2-2.8-1.8c-0.9-0.6-1.9-1.1-2.9-1.6
			c-1-0.5-2-1-2.9-1.4c-1-0.4-2-0.9-3-1.3c-1-0.4-2.1-0.7-3-0.8c-2.2-0.2-4.4-0.4-6.6-0.7c-2.2-0.3-4.4-0.6-6.5-0.9l0.2-0.1
			c-0.6,0.5-1.2,1-1.8,1.5c-0.6,0.5-1.1,1-1.7,1.6l-0.1-0.1c0.5-0.6,1-1.2,1.5-1.8c0.5-0.6,1.1-1.1,1.7-1.6l0.1-0.1l0.1,0
			c2.2,0.2,4.4,0.4,6.6,0.6l6.5,0.6c0.6,0.1,1.2,0.2,1.7,0.4c0.5,0.2,1.1,0.4,1.6,0.6c1,0.4,2,0.9,3,1.4c2,1,3.9,2.1,5.7,3.3
			c0.9,0.6,1.8,1.2,2.7,1.9c0.4,0.3,0.9,0.7,1.3,1c0.4,0.3,0.9,0.7,1.3,1c0.9,0.7,1.8,1.3,2.7,1.9l2.7,1.8c0.9,0.6,1.8,1.2,2.7,1.9
			l2.7,1.9l2.7,1.9C257.2,177.7,258.1,178.3,258.9,179L258.9,179z"/>
		<linearGradient id="SVGID_18_" gradientUnits="userSpaceOnUse" x1="230.6112" y1="208.6332" x2="268.016" y2="208.6332">
			<stop  offset="1.897321e-02" style="stop-color:#4C4C4C"/>
			<stop  offset="0.887" style="stop-color:#605F60"/>
		</linearGradient>
		<path class="st53" d="M255.9,234.9c0,0-3.5-10.7-3.5-14.2c0-3.5-0.3-9.3,13.1-32.5l2.4-4.5l-1.7-2.1l-12.1,9c0,0-0.7,9.7-7.9,17.6
			c-7.3,7.9-7.3,14.3-9,16.1c-1.7,1.9-6.4,7.4-6.7,11.2C230.6,235.6,249.7,233.5,255.9,234.9z"/>
		<path class="st40" d="M254.5,190.9c0,0,0,0.2,0,0.6c0,0.4-0.1,0.9-0.2,1.6c-0.2,1.4-0.6,3.4-1.5,5.7c-0.4,1.1-1,2.4-1.6,3.6
			c-0.3,0.6-0.7,1.2-1.1,1.8c-0.2,0.3-0.4,0.6-0.6,0.9c-0.1,0.2-0.2,0.3-0.3,0.5l-0.4,0.4c-0.2,0.3-0.5,0.6-0.7,0.9
			c-0.2,0.3-0.5,0.6-0.8,0.9c-0.5,0.6-1,1.2-1.6,1.8c-0.5,0.6-1,1.2-1.5,1.9c-0.2,0.3-0.4,0.7-0.7,1l-0.3,0.5l-0.3,0.5
			c-0.8,1.4-1.5,2.8-2.1,4.2c-0.6,1.4-1.1,2.9-1.6,4.3c-0.2,0.7-0.5,1.4-0.9,2.1c-0.1,0.2-0.2,0.3-0.3,0.5l-0.2,0.2
			c-0.1,0.1-0.1,0.1-0.2,0.2c-0.2,0.3-0.5,0.5-0.7,0.8c-0.9,1-1.7,2-2.5,3c-0.7,0.9-1.3,1.9-1.9,2.7c-0.5,0.8-0.9,1.6-1.2,2.2
			c-0.3,0.6-0.4,1.2-0.5,1.5c-0.1,0.4-0.1,0.6-0.1,0.6l-0.1,0c0,0,0-0.2,0-0.6c0-0.4,0.1-0.9,0.4-1.6c0.4-1.4,1.4-3.2,2.7-5.2
			c0.7-1,1.5-2,2.4-3.1c0.2-0.3,0.5-0.5,0.7-0.8c0.1-0.1,0.1-0.1,0.2-0.2l0.1-0.2c0.1-0.1,0.2-0.3,0.3-0.4c0.3-0.6,0.6-1.3,0.8-2
			c0.5-1.4,1.1-2.9,1.7-4.3c0.2-0.4,0.3-0.7,0.5-1.1c0.2-0.4,0.4-0.7,0.6-1.1c0.4-0.7,0.8-1.4,1.3-2l0.3-0.5l0.4-0.5l0.7-1
			c0.3-0.3,0.5-0.6,0.8-0.9c0.2-0.3,0.5-0.6,0.8-0.9c0.5-0.6,1-1.2,1.5-1.8c0.2-0.3,0.5-0.6,0.7-0.9c0.2-0.3,0.4-0.6,0.6-0.9
			l0.3-0.5c0.1-0.2,0.2-0.3,0.3-0.5c0.2-0.3,0.4-0.6,0.6-0.9c0.2-0.3,0.3-0.6,0.5-0.9c0.2-0.3,0.3-0.6,0.5-0.9
			c0.3-0.6,0.6-1.2,0.9-1.8c0.1-0.3,0.3-0.6,0.4-0.9c0.1-0.3,0.2-0.6,0.3-0.8c0.5-1.1,0.8-2.1,1.1-3.1c0.1-0.5,0.3-0.9,0.4-1.3
			c0.1-0.4,0.2-0.8,0.3-1.1c0.2-0.7,0.3-1.2,0.3-1.6C254.4,191.1,254.5,190.9,254.5,190.9L254.5,190.9z"/>
		<path class="st41" d="M268.1,183.8c0,0-0.1,0.2-0.3,0.5c-0.2,0.3-0.4,0.8-0.7,1.5c-0.6,1.3-1.6,3.1-2.7,5.3
			c-0.6,1.1-1.2,2.3-1.9,3.5c-0.7,1.2-1.4,2.5-2.2,3.8c-0.8,1.3-1.5,2.7-2.2,4.2c-0.2,0.4-0.4,0.7-0.5,1.1c-0.2,0.4-0.3,0.7-0.5,1.1
			c-0.3,0.8-0.6,1.5-0.9,2.3c-0.6,1.5-1.2,3.1-1.7,4.6c-0.5,1.5-0.9,3-1.1,4.5c-0.2,1.5-0.3,2.9-0.2,4.3c0,1.4,0.2,2.7,0.3,3.9
			c0.1,0.6,0.2,1.2,0.3,1.7c0.1,0.5,0.2,1.1,0.3,1.5c0.2,1,0.4,1.8,0.6,2.5c0.4,1.4,0.6,2.2,0.6,2.2l-0.1,0c0,0-0.3-0.8-0.8-2.1
			c-0.1-0.2-0.1-0.3-0.2-0.5c-0.1-0.2-0.1-0.4-0.2-0.6c-0.1-0.4-0.3-0.9-0.4-1.3c-0.2-0.5-0.3-1-0.4-1.5c-0.1-0.5-0.3-1.1-0.4-1.7
			c-0.1-0.6-0.2-1.2-0.3-1.9c0-0.3-0.1-0.7-0.1-1c0-0.3-0.1-0.7-0.1-1.1c0-0.4,0-0.7,0-1.1c0-0.4,0-0.7,0-1.1c0-0.8,0.1-1.5,0.2-2.3
			c0.3-1.5,0.7-3.1,1.3-4.6c0.3-0.8,0.6-1.5,0.9-2.3c0.3-0.7,0.7-1.5,1-2.2c0.6-1.5,1.4-3,2.1-4.4c0.7-1.5,1.4-2.9,2.1-4.3
			c0.7-1.4,1.3-2.7,2-4c0.7-1.2,1.3-2.4,1.9-3.5c1.2-2.1,2.3-3.9,3.1-5.1c0.4-0.6,0.7-1.1,0.9-1.4
			C267.9,183.9,268,183.8,268.1,183.8L268.1,183.8z"/>
		<path class="st42" d="M279,244c-0.4-0.3-0.9-0.6-1.3-0.9c-0.4-0.3-0.9-0.6-1.3-0.8l-1.3-0.8l-1.4-0.8l-1.4-0.7l-1.4-0.7
			c-0.5-0.2-0.9-0.4-1.4-0.6c-0.5-0.2-1-0.4-1.4-0.6c-0.5-0.2-1-0.4-1.5-0.6c-0.5-0.2-1-0.4-1.5-0.5c-0.5-0.2-1-0.3-1.5-0.5
			c-0.2-0.1-0.5-0.2-0.7-0.2l-0.8-0.2c-0.5-0.1-1-0.3-1.5-0.4l-1.5-0.3c-0.3,0-0.5-0.1-0.8-0.1l-0.8-0.1l-1.6-0.1l0,0l0,0
			c-0.5-0.1-1.1-0.1-1.6-0.2c-0.5-0.1-1.1-0.1-1.6-0.1c-1.1-0.1-2.1-0.1-3.2-0.1c-0.5,0-1.1,0-1.6,0c-0.5,0-1.1,0-1.6,0l-1.6,0
			l-1.6,0l-1.6,0.1c-0.5,0-1.1,0-1.6,0.1c-0.5,0-1.1,0.1-1.6,0.1l-1.6,0.2l-1.6,0.2l-0.8,0.1l-0.8,0.1c-0.5,0.1-1,0.1-1.5,0.3
			l-1.5,0.3l0.1,0c-1,0.5-2,0.9-3,1.4c-1,0.4-2,0.9-3,1.3l-3.1,1.3c-1,0.4-2.1,0.9-3.1,1.3l-0.1-0.1c1-0.6,1.9-1.1,2.9-1.6l2.9-1.6
			c1-0.5,2-1,2.9-1.6c1-0.5,2-1,3-1.5l0.1,0l0.1,0l1.6-0.4c0.3-0.1,0.5-0.1,0.8-0.2l0.8-0.1l0.8-0.1l0.8-0.1
			c0.5-0.1,1.1-0.1,1.6-0.2l1.6-0.1c0.5,0,1.1,0,1.6-0.1c0.5,0,1.1,0,1.6,0c0.5,0,1.1,0,1.6,0c1.1,0,2.1,0.1,3.2,0.1
			c1.1,0.1,2.1,0.2,3.2,0.3c1.1,0.1,2.1,0.2,3.2,0.3l1.6,0.2l1.6,0.2l0,0l1.6,0.1l0.8,0c0.3,0,0.5,0.1,0.8,0.1l1.6,0.2
			c0.5,0.1,1.1,0.2,1.6,0.3l0.8,0.1c0.3,0,0.5,0.1,0.8,0.2c0.5,0.1,1,0.2,1.6,0.4c0.5,0.2,1,0.3,1.5,0.5c0.5,0.2,1,0.4,1.5,0.6
			c0.5,0.2,1,0.4,1.5,0.6c0.5,0.2,1,0.4,1.4,0.7l1.4,0.8c0.5,0.3,0.9,0.6,1.4,0.8c0.4,0.3,0.9,0.6,1.3,0.9c0.4,0.3,0.9,0.6,1.3,1
			C277.6,242.5,278.4,243.2,279,244L279,244z"/>
		<path class="st43" d="M287.5,177.8c0,0-5.7,3.2-13.1-5.7c0,0,0.5-4,4.4-1.7s5.4,3.4,7.7,3.4C288.7,173.8,289.8,177.7,287.5,177.8z
			"/>
		<path class="st44" d="M291.4,178c-0.8-1.4-1.5-2.9-2.3-4.3l-1.1-2.1l-1.2-2.1l-1.2-2.1l-0.6-1c-0.2-0.3-0.4-0.7-0.7-1
			c-0.2-0.3-0.5-0.6-0.7-0.9c-0.3-0.3-0.5-0.6-0.8-0.9c-0.6-0.6-1.2-1.1-1.8-1.7c-1.2-1.1-2.5-2-3.8-3.1c-0.6-0.5-1.3-1-1.9-1.6
			c-0.6-0.5-1.2-1.1-1.8-1.6c-0.3-0.3-0.6-0.6-0.9-0.9c-0.1-0.1-0.3-0.3-0.4-0.5c-0.1-0.2-0.3-0.3-0.4-0.6c0-0.1-0.1-0.2-0.1-0.3
			l0,0c0-0.1,0,0.1,0,0.1l0,0l0,0c0,0,0-0.1,0-0.1c0,0,0,0.1,0,0l-0.1-0.1c-0.1-0.1-0.2-0.2-0.4-0.3c-0.3-0.2-0.6-0.4-0.9-0.7
			c-0.7-0.4-1.4-0.8-2.1-1.2c-0.7-0.4-1.4-0.8-2.1-1.1l0.1,0c-0.8-0.3-1.5-0.6-2.3-0.8l-1.1-0.4c-0.4-0.1-0.7-0.3-1.1-0.5l0-0.1
			c0.4,0.1,0.8,0.1,1.2,0.2l1.2,0.2c0.8,0.2,1.6,0.4,2.3,0.5l0,0l0,0c0.8,0.3,1.5,0.6,2.3,1c0.7,0.3,1.5,0.7,2.2,1.1
			c0.4,0.2,0.7,0.4,1.1,0.7c0.2,0.1,0.4,0.3,0.5,0.5c0,0.1,0.1,0.1,0.1,0.2c0,0.1,0.1,0.2,0.2,0.3c0,0,0,0.1,0,0.1l0,0l0,0
			c0,0,0,0.1,0,0.1l0,0c0,0,0,0,0,0c0,0.1,0.2,0.2,0.3,0.4l0.4,0.4c0.3,0.3,0.5,0.6,0.8,0.9c0.6,0.6,1.2,1.1,1.7,1.7
			c0.6,0.6,1.2,1.1,1.8,1.7c1.2,1.1,2.3,2.3,3.4,3.5l1.7,1.7l0.9,0.9l0.9,0.9c0.3,0.3,0.5,0.6,0.8,0.9l0.8,1c0.2,0.3,0.5,0.7,0.7,1
			c0.2,0.3,0.4,0.7,0.7,1c0.2,0.4,0.4,0.7,0.6,1.1l0.6,1.1c0.4,0.7,0.7,1.5,1,2.2c0.3,0.8,0.6,1.5,0.9,2.3c0.3,0.8,0.5,1.5,0.7,2.3
			L291.4,178z"/>
	</g>
</g>
<g id="Sombra">
	<ellipse class="st54" cx="240.1" cy="324.9" rx="33" ry="7.6"/>
</g>
<g id="Capa_2" class="st55">
	<polygon class="st56" points="386.8,313.1 221.2,274.4 81.7,343 250.6,382.7 	"/>
</g>
<g id="Capa_3">
	<polygon class="st3" points="341.9,302.8 342.1,302.8 205.9,372.3 250,382.7 386.3,313.1 	"/>
	<polygon class="st57" points="209,373 211.6,373.6 342.2,306.7 342.1,302.8 205.9,372.3 	"/>
	<polygon class="st58" points="386.3,313.2 220.7,274.4 81.1,343 250,382.7 	"/>
</g>
<g id="Capa_4" class="st55">
	<polygon class="st59" points="298.3,292.6 289.4,297.1 162.7,361.9 250,382.7 386.3,313.1 	"/>
	<polygon class="st60" points="165.4,362.8 168,363.4 298.6,296.4 298.5,292.6 162.4,362 	"/>
	<polygon class="st56" points="386.3,313.2 220.7,274.4 81.1,343 250,382.7 	"/>
</g>
<g id="Capa_5" class="st55">
	<polygon class="st59" points="220.7,274.4 202.9,283.1 81.1,343 250,382.7 386.3,313.1 	"/>
	<polygon class="st56" points="386.3,313.2 220.7,274.4 81.1,343 250,382.7 	"/>
	<polygon class="st61" points="220.7,274.4 220.7,375.8 81.1,343 	"/>
</g>
<g id="Capa_6" class="st55">
	<polygon class="st59" points="220.7,274.4 202.9,283.1 81.1,343 250,382.7 386.3,313.1 	"/>
	<polygon class="st56" points="386.3,313.2 220.7,274.4 81.1,343 250,382.7 	"/>
	<polygon class="st61" points="220.7,274.4 220.7,375.8 81.1,343 	"/>
	<g class="st62">
		<g>
			<defs>
				<polygon id="SVGID_19_" points="-392.7,343 -223.8,382.7 -86.9,313.1 -86.9,2.5 -392.7,3.8 				"/>
			</defs>
			<clipPath id="SVGID_20_">
				<use xlink:href="#SVGID_19_"  style="overflow:visible;"/>
			</clipPath>
		</g>
	</g>
	<linearGradient id="SVGID_21_" gradientUnits="userSpaceOnUse" x1="234.35" y1="382.28" x2="234.35" y2="3">
		<stop  offset="0" style="stop-color:#FFFFFF"/>
		<stop  offset="0.2632" style="stop-color:#FFFFFF;stop-opacity:0"/>
	</linearGradient>
	<polygon class="st63" points="387.3,312.7 250.3,382.3 81.4,342.6 81.4,3 387.3,3 	"/>
</g>
<g id="Capa_7" class="st55">
	<polygon class="st59" points="220.7,274.4 202.9,283.1 81.1,343 250,382.7 386.3,313.1 	"/>
	<polygon class="st56" points="386.3,313.2 220.7,274.4 81.1,343 250,382.7 	"/>
	<polygon class="st61" points="220.7,274.4 220.7,375.8 81.1,343 	"/>
	<g class="st62">
		<g>
			<defs>
				<polygon id="SVGID_22_" points="-392.7,343 -223.8,382.7 -86.9,313.1 -86.9,2.5 -392.7,3.8 				"/>
			</defs>
			<clipPath id="SVGID_23_">
				<use xlink:href="#SVGID_22_"  style="overflow:visible;"/>
			</clipPath>
		</g>
	</g>
	<linearGradient id="SVGID_24_" gradientUnits="userSpaceOnUse" x1="234.35" y1="382.28" x2="234.35" y2="3">
		<stop  offset="0" style="stop-color:#FFFFFF"/>
		<stop  offset="0.8053" style="stop-color:#FFFFFF;stop-opacity:0"/>
	</linearGradient>
	<polygon class="st64" points="387.3,312.7 250.3,382.3 81.4,342.6 81.4,3 387.3,3 	"/>
</g>
</svg>
