<?xml version="1.0" encoding="utf-8"?>
<!-- Generator: Adobe Illustrator 19.2.1, SVG Export Plug-In . SVG Version: 6.00 Build 0)  -->
<svg version="1.1" id="Capa_1" xmlns="http://www.w3.org/2000/svg" xmlns:xlink="http://www.w3.org/1999/xlink" x="0px" y="0px"
	 viewBox="0 0 697.6 276.3" style="enable-background:new 0 0 697.6 276.3;" xml:space="preserve">
<style type="text/css">
	.st0{fill:#E86F15;}
	.st1{fill:#E56A0E;}
	.st2{fill:#F57C00;}
	.st3{fill:url(#SVGID_1_);}
	.st4{fill:#FFFFFF;}
	.st5{opacity:0.25;fill:#FFFFFF;enable-background:new    ;}
	.st6{opacity:0.9;fill:#FFFFFF;enable-background:new    ;}
	.st7{fill:url(#SVGID_2_);}
	.st8{fill:url(#SVGID_3_);}
	.st9{fill:url(#SVGID_4_);}
	.st10{opacity:0.3;fill:#FFFFFF;}
</style>
<g>
	<g>
		<path class="st0" d="M667.6,157.1c-6.7,26.6-18.5,46.6-26.3,44.6l21.5,5.4c7.9,2,19.6-18,26.3-44.6s5.7-49.8-2.1-51.8l-21.5-5.4
			C673.3,107.3,674.3,130.5,667.6,157.1z"/>
	</g>
	<g>
		<path class="st1" d="M669.1,157.5c-6.7,26.6-18.5,46.6-26.3,44.6l21.5,5.4c7.9,2,19.6-18,26.3-44.6s5.7-49.8-2.1-51.8l-21.5-5.4
			C674.8,107.7,675.8,130.9,669.1,157.5z"/>
	</g>
</g>
<path class="st2" d="M570.5,274.3c0,0,73.7-22.9,98.3-119.1v0.1C692.4,58.8,638.3,3.9,638.3,3.9"/>
<linearGradient id="SVGID_1_" gradientUnits="userSpaceOnUse" x1="593.3277" y1="189.2393" x2="656.4327" y2="189.2393" gradientTransform="matrix(0.97 0.2433 0.2433 -0.97 -49.0788 170.2405)">
	<stop  offset="0" style="stop-color:#F57C00"/>
	<stop  offset="0.999" style="stop-color:#FF4F24"/>
</linearGradient>
<path class="st3" d="M572.5,131C591.2,56.3,620.1-0.9,637,3.4s15.4,68.2-3.3,143C614.9,221.1,586,278.2,569.1,274
	C552.2,269.7,553.7,205.7,572.5,131z"/>
<path class="st4" d="M569.5,268.4L569.5,268.4c-0.3,0-0.5,0-0.7-0.1c-0.2,0-0.3-0.2-0.3-0.4c0-0.2,0.2-0.3,0.4-0.3s0.4,0.1,0.6,0.1
	c0.2,0,0.3,0.2,0.3,0.4C569.9,268.3,569.7,268.4,569.5,268.4z M572.2,268c-0.1,0-0.3-0.1-0.3-0.2c-0.1-0.2,0-0.4,0.2-0.4
	c0.2-0.1,0.4-0.2,0.6-0.3c0.2-0.1,0.4,0,0.5,0.2s0,0.4-0.2,0.5s-0.4,0.2-0.6,0.3C572.2,268,572.2,268,572.2,268z M566.4,267.2
	c-0.1,0-0.2,0-0.2-0.1c-0.2-0.1-0.4-0.3-0.5-0.5c-0.1-0.1-0.1-0.4,0-0.5s0.4-0.1,0.5,0c0.2,0.2,0.3,0.3,0.5,0.4
	c0.1,0.1,0.2,0.3,0,0.5C566.6,267.1,566.5,267.2,566.4,267.2z M575.1,266.3c-0.1,0-0.2,0-0.3-0.1c-0.1-0.2-0.1-0.4,0.1-0.5
	c0.2-0.1,0.4-0.3,0.5-0.4s0.4-0.1,0.5,0.1c0.1,0.1,0.1,0.4-0.1,0.5c-0.2,0.1-0.4,0.3-0.5,0.4C575.2,266.3,575.2,266.3,575.1,266.3z
	 M564.3,264.5c-0.1,0-0.2-0.1-0.3-0.2c-0.1-0.2-0.2-0.4-0.3-0.6s0-0.4,0.2-0.5s0.4,0,0.5,0.2s0.2,0.4,0.3,0.6s0,0.4-0.1,0.5
	C564.5,264.5,564.4,264.5,564.3,264.5z M577.6,264.1c-0.1,0-0.2,0-0.2-0.1c-0.1-0.1-0.1-0.3,0-0.5c0.2-0.2,0.3-0.3,0.5-0.5
	c0.1-0.1,0.3-0.1,0.5,0c0.1,0.1,0.1,0.3,0,0.5c-0.2,0.2-0.3,0.3-0.5,0.5C577.8,264,577.7,264.1,577.6,264.1z M579.9,261.5
	c-0.1,0-0.2,0-0.2-0.1c-0.1-0.1-0.2-0.3,0-0.5c0.1-0.2,0.3-0.3,0.4-0.5c0.1-0.1,0.3-0.2,0.5-0.1c0.1,0.1,0.2,0.3,0.1,0.5
	c-0.1,0.2-0.3,0.4-0.4,0.5C580.1,261.5,580,261.5,579.9,261.5z M563,261.4c-0.1,0-0.3-0.1-0.3-0.2c-0.1-0.2-0.1-0.4-0.2-0.7
	c-0.1-0.2,0-0.4,0.2-0.4c0.2-0.1,0.4,0,0.4,0.2c0.1,0.2,0.1,0.4,0.2,0.6c0.1,0.2,0,0.4-0.2,0.4C563.1,261.4,563,261.4,563,261.4z
	 M582,258.8c-0.1,0-0.1,0-0.2-0.1c-0.2-0.1-0.2-0.3-0.1-0.5l0.4-0.5c0.1-0.2,0.3-0.2,0.5-0.1s0.2,0.3,0.1,0.5l-0.4,0.6
	C582.2,258.8,582.1,258.8,582,258.8z M562.1,258.1c-0.2,0-0.3-0.1-0.3-0.3c-0.1-0.2-0.1-0.4-0.2-0.7c0-0.2,0.1-0.4,0.3-0.4
	s0.4,0.1,0.4,0.3c0,0.2,0.1,0.4,0.1,0.7C562.4,257.9,562.3,258.1,562.1,258.1L562.1,258.1z M584,256.1c-0.1,0-0.1,0-0.2-0.1
	c-0.2-0.1-0.2-0.3-0.1-0.5c0.1-0.2,0.2-0.4,0.4-0.6c0.1-0.2,0.3-0.2,0.5-0.1c0.2,0.1,0.2,0.3,0.1,0.5c-0.1,0.2-0.3,0.4-0.4,0.6
	C584.2,256,584.1,256.1,584,256.1z M561.4,254.8c-0.2,0-0.3-0.1-0.3-0.3s-0.1-0.4-0.1-0.7c0-0.2,0.1-0.4,0.3-0.4s0.4,0.1,0.4,0.3
	s0.1,0.4,0.1,0.7C561.8,254.6,561.6,254.7,561.4,254.8L561.4,254.8z M585.8,253.2c-0.1,0-0.1,0-0.2-0.1c-0.2-0.1-0.2-0.3-0.1-0.5
	l0.4-0.6c0.1-0.2,0.3-0.2,0.5-0.1c0.2,0.1,0.2,0.3,0.1,0.5l-0.4,0.6C586,253.1,585.9,253.2,585.8,253.2z M560.9,251.4
	c-0.2,0-0.3-0.1-0.3-0.3l-0.1-0.7c0-0.2,0.1-0.4,0.3-0.4s0.4,0.1,0.4,0.3l0.1,0.7C561.3,251.2,561.2,251.4,560.9,251.4
	C561,251.4,561,251.4,560.9,251.4z M587.6,250.3c-0.1,0-0.1,0-0.2,0c-0.2-0.1-0.2-0.3-0.1-0.5l0.3-0.6c0.1-0.2,0.3-0.2,0.5-0.1
	c0.2,0.1,0.2,0.3,0.1,0.5l-0.3,0.6C587.8,250.2,587.7,250.3,587.6,250.3z M560.6,248c-0.2,0-0.3-0.1-0.3-0.3V247
	c0-0.2,0.1-0.4,0.3-0.4s0.4,0.1,0.4,0.3v0.7C561,247.8,560.8,248,560.6,248L560.6,248z M589.2,247.3c-0.1,0-0.1,0-0.2,0
	c-0.2-0.1-0.2-0.3-0.1-0.5l0.3-0.6c0.1-0.2,0.3-0.2,0.5-0.1c0.2,0.1,0.2,0.3,0.1,0.5l-0.3,0.6C589.5,247.2,589.4,247.3,589.2,247.3z
	 M560.4,244.6c-0.2,0-0.3-0.1-0.3-0.3v-0.7c0-0.2,0.1-0.3,0.3-0.4c0.2,0,0.3,0.1,0.4,0.3v0.7C560.8,244.4,560.6,244.6,560.4,244.6
	L560.4,244.6z M590.8,244.3c-0.1,0-0.1,0-0.2,0c-0.2-0.1-0.2-0.3-0.1-0.5l0.3-0.6c0.1-0.2,0.3-0.2,0.5-0.1c0.2,0.1,0.2,0.3,0.1,0.5
	l-0.3,0.6C591.1,244.2,591,244.3,590.8,244.3z M592.4,241.3c-0.1,0-0.1,0-0.2,0c-0.2-0.1-0.2-0.3-0.2-0.5l0.3-0.6
	c0.1-0.2,0.3-0.2,0.5-0.2c0.2,0.1,0.2,0.3,0.2,0.5l-0.3,0.6C592.6,241.2,592.5,241.3,592.4,241.3z M560.3,241.2
	c-0.2,0-0.3-0.1-0.3-0.3v-0.7c0-0.2,0.1-0.3,0.3-0.3s0.3,0.1,0.3,0.3v0.7C560.7,241,560.5,241.2,560.3,241.2L560.3,241.2z
	 M593.9,238.2L593.9,238.2c-0.3-0.1-0.3-0.3-0.3-0.5l0.3-0.6c0.1-0.2,0.3-0.2,0.5-0.2c0.2,0.1,0.2,0.3,0.2,0.5l-0.3,0.6
	C594.1,238.1,594,238.2,593.9,238.2z M560.3,237.8L560.3,237.8c-0.2,0-0.3-0.2-0.3-0.3v-0.7c0-0.2,0.2-0.3,0.3-0.3l0,0
	c0.2,0,0.3,0.1,0.3,0.3v0.7C560.6,237.6,560.5,237.8,560.3,237.8z M595.4,235.1L595.4,235.1c-0.3-0.1-0.3-0.3-0.3-0.5l0.3-0.6
	c0.1-0.2,0.3-0.2,0.5-0.2c0.2,0.1,0.2,0.3,0.2,0.5l-0.3,0.6C595.6,235,595.5,235.1,595.4,235.1z M560.3,234.4L560.3,234.4
	c-0.2,0-0.3-0.2-0.3-0.3v-0.7c0-0.2,0.2-0.3,0.4-0.3s0.3,0.2,0.3,0.4v0.7C560.7,234.2,560.5,234.4,560.3,234.4z M596.8,232
	L596.8,232c-0.3-0.1-0.3-0.3-0.3-0.5l0.3-0.6c0.1-0.2,0.3-0.2,0.5-0.2c0.2,0.1,0.3,0.3,0.2,0.5l-0.3,0.6
	C597,231.9,596.9,232,596.8,232z M560.4,230.6h-0.3v-0.7c0-0.2,0.2-0.3,0.4-0.3s0.3,0.2,0.3,0.4v0.7L560.4,230.6z M598.2,228.9
	L598.2,228.9c-0.3-0.1-0.4-0.3-0.3-0.4l0.3-0.6c0.1-0.2,0.3-0.3,0.4-0.2c0.2,0.1,0.3,0.3,0.2,0.4l-0.3,0.6
	C598.4,228.8,598.3,228.9,598.2,228.9z M560.6,227.2l-0.3-0.1v-0.6c0-0.2,0.2-0.3,0.4-0.3s0.3,0.2,0.3,0.4v0.6L560.6,227.2z
	 M599.5,225.8L599.5,225.8c-0.3-0.1-0.4-0.3-0.3-0.4l0.3-0.6c0.1-0.2,0.3-0.3,0.4-0.2c0.2,0.1,0.3,0.3,0.2,0.4l-0.3,0.6
	C599.8,225.7,599.6,225.8,599.5,225.8z M560.8,223.8l-0.3-0.1v-0.6c0-0.2,0.2-0.3,0.4-0.3s0.3,0.2,0.3,0.4v0.6L560.8,223.8z
	 M600.8,222.6L600.8,222.6c-0.3-0.1-0.4-0.3-0.3-0.4l0.3-0.6c0.1-0.2,0.3-0.3,0.4-0.2c0.2,0.1,0.3,0.3,0.2,0.4l-0.3,0.6
	C601.1,222.6,600.9,222.6,600.8,222.6z M561,220.8L561,220.8c-0.2,0-0.4-0.2-0.3-0.4l0.1-0.7c0-0.2,0.2-0.3,0.4-0.3s0.3,0.2,0.3,0.4
	l-0.1,0.7C561.4,220.6,561.2,220.8,561,220.8z M602.1,219.5L602.1,219.5c-0.3-0.1-0.4-0.3-0.3-0.4l0.3-0.6c0.1-0.2,0.3-0.3,0.4-0.2
	c0.2,0.1,0.3,0.3,0.2,0.4l-0.3,0.6C602.4,219.4,602.2,219.5,602.1,219.5z M561.3,217.4L561.3,217.4c-0.2,0-0.4-0.2-0.3-0.4l0.1-0.7
	c0-0.2,0.2-0.3,0.4-0.3s0.3,0.2,0.3,0.4l-0.1,0.7C561.6,217.3,561.5,217.4,561.3,217.4z M603.3,216.3L603.3,216.3
	c-0.3-0.1-0.4-0.3-0.3-0.4l0.2-0.6c0.1-0.2,0.3-0.3,0.4-0.2c0.2,0.1,0.3,0.3,0.2,0.4l-0.2,0.6C603.6,216.2,603.5,216.3,603.3,216.3z
	 M561.6,213.7l-0.3-0.1l0.1-0.6c0-0.2,0.2-0.3,0.4-0.3s0.3,0.2,0.3,0.4l-0.1,0.6L561.6,213.7z M604.6,213.1L604.6,213.1
	c-0.3-0.1-0.4-0.3-0.3-0.4l0.2-0.6c0.1-0.2,0.3-0.3,0.4-0.2c0.2,0.1,0.3,0.3,0.2,0.4l-0.2,0.6C604.8,213.1,604.7,213.1,604.6,213.1z
	 M562,210.6L562,210.6c-0.2,0-0.4-0.2-0.3-0.4l0.1-0.7c0-0.2,0.2-0.3,0.4-0.3s0.3,0.2,0.3,0.4l-0.1,0.7
	C562.3,210.5,562.2,210.6,562,210.6z M605.8,210L605.8,210c-0.3-0.1-0.4-0.3-0.3-0.4l0.2-0.6c0.1-0.2,0.3-0.3,0.4-0.2
	c0.2,0.1,0.3,0.3,0.2,0.4l-0.2,0.6C606,209.9,605.9,210,605.8,210z M562.4,206.9l-0.3-0.1l0.1-0.6c0-0.2,0.2-0.3,0.4-0.3
	s0.3,0.2,0.3,0.4l-0.1,0.6L562.4,206.9z M607,206.8L607,206.8c-0.3-0.1-0.4-0.3-0.3-0.4l0.2-0.6c0.1-0.2,0.3-0.3,0.4-0.2
	c0.2,0.1,0.3,0.3,0.2,0.4l-0.2,0.6C607.2,206.7,607.1,206.8,607,206.8z M562.8,203.8C562.7,203.8,562.7,203.8,562.8,203.8
	c-0.2,0-0.4-0.2-0.3-0.4l0.1-0.7c0-0.2,0.2-0.3,0.4-0.3s0.3,0.2,0.3,0.4l-0.1,0.7C563.1,203.7,562.9,203.8,562.8,203.8z
	 M608.1,203.6L608.1,203.6c-0.3-0.1-0.4-0.3-0.3-0.4l0.2-0.6c0.1-0.2,0.3-0.3,0.4-0.2c0.2,0.1,0.3,0.3,0.2,0.4l-0.2,0.6
	C608.4,203.5,608.3,203.6,608.1,203.6z M563.2,200.5L563.2,200.5c-0.2,0-0.4-0.2-0.3-0.4l0.1-0.7c0-0.2,0.2-0.3,0.4-0.3
	s0.3,0.2,0.3,0.4l-0.1,0.7C563.5,200.3,563.4,200.5,563.2,200.5z M609.2,200.3L609.2,200.3c-0.3-0.1-0.4-0.3-0.3-0.4l0.2-0.6
	c0.1-0.2,0.3-0.3,0.4-0.2c0.2,0.1,0.3,0.3,0.2,0.4l-0.2,0.6C609.5,200.3,609.4,200.3,609.2,200.3z M610.4,197.1L610.4,197.1
	c-0.3-0.1-0.4-0.3-0.3-0.4l0.2-0.6c0.1-0.2,0.3-0.3,0.4-0.2c0.2,0.1,0.3,0.3,0.2,0.4l-0.2,0.6C610.6,197,610.5,197.1,610.4,197.1z
	 M563.7,196.7l-0.3-0.1l0.1-0.6c0-0.2,0.2-0.3,0.4-0.3s0.3,0.2,0.3,0.4l-0.1,0.6L563.7,196.7z M611.5,193.9L611.5,193.9
	c-0.3-0.1-0.4-0.3-0.3-0.4l0.2-0.6c0.1-0.2,0.3-0.3,0.4-0.2c0.2,0.1,0.3,0.3,0.2,0.4l-0.2,0.6C611.7,193.8,611.6,193.9,611.5,193.9z
	 M564.1,193.7L564.1,193.7c-0.2,0-0.4-0.2-0.3-0.4l0.1-0.7c0-0.2,0.2-0.3,0.4-0.3s0.3,0.2,0.3,0.4l-0.1,0.7
	C564.5,193.6,564.3,193.7,564.1,193.7z M612.5,190.7L612.5,190.7c-0.3-0.1-0.4-0.3-0.3-0.4l0.2-0.6c0.1-0.2,0.3-0.3,0.4-0.2
	c0.2,0.1,0.3,0.3,0.2,0.4l-0.2,0.6C612.8,190.6,612.7,190.7,612.5,190.7z M564.6,190.4L564.6,190.4c-0.2,0-0.4-0.2-0.3-0.4l0.1-0.7
	c0-0.2,0.2-0.3,0.4-0.3s0.3,0.2,0.3,0.4l-0.1,0.7C565,190.2,564.8,190.4,564.6,190.4z M613.6,187.4L613.6,187.4
	c-0.3-0.1-0.4-0.2-0.3-0.4l0.2-0.6c0.1-0.2,0.3-0.3,0.4-0.2c0.2,0.1,0.3,0.2,0.2,0.4l-0.2,0.6C613.9,187.3,613.7,187.4,613.6,187.4z
	 M565.2,186.6l-0.3-0.1l0.1-0.6c0-0.2,0.2-0.3,0.4-0.3s0.3,0.2,0.3,0.4l-0.1,0.6L565.2,186.6z M614.6,184.2L614.6,184.2
	c-0.3-0.1-0.4-0.2-0.3-0.4l0.2-0.6c0.1-0.2,0.2-0.3,0.4-0.2s0.3,0.2,0.2,0.4l-0.2,0.7C614.9,184.1,614.8,184.2,614.6,184.2z
	 M566.1,183.3h-0.3l-0.3-0.1l0.1-0.6c0-0.2,0.2-0.3,0.4-0.3s0.3,0.2,0.3,0.4L566.1,183.3z M565.7,183.3L565.7,183.3L565.7,183.3z
	 M615.6,180.9L615.6,180.9c-0.3-0.1-0.4-0.2-0.3-0.4l0.2-0.6c0.1-0.2,0.2-0.3,0.4-0.2s0.3,0.2,0.2,0.4l-0.2,0.7
	C615.9,180.8,615.8,180.9,615.6,180.9z M566.6,180h-0.3l-0.3-0.1l0.1-0.6c0-0.2,0.2-0.3,0.4-0.3s0.3,0.2,0.3,0.4L566.6,180z
	 M566.3,179.9L566.3,179.9L566.3,179.9z M616.6,177.7L616.6,177.7c-0.3-0.1-0.4-0.3-0.3-0.4l0.2-0.7c0.1-0.2,0.2-0.3,0.4-0.2
	s0.3,0.2,0.2,0.4l-0.2,0.7C616.9,177.6,616.8,177.7,616.6,177.7z M567.2,176.6h-0.3l-0.3-0.1l0.1-0.6c0-0.2,0.2-0.3,0.4-0.3
	s0.3,0.2,0.3,0.4L567.2,176.6z M566.9,176.6L566.9,176.6L566.9,176.6z M617.6,174.4C617.6,174.4,617.5,174.4,617.6,174.4
	c-0.3-0.1-0.4-0.3-0.3-0.4l0.2-0.7c0.1-0.2,0.2-0.3,0.4-0.2s0.3,0.2,0.2,0.4l-0.2,0.7C617.9,174.3,617.8,174.4,617.6,174.4z
	 M567.5,173.6L567.5,173.6c-0.2,0-0.4-0.2-0.3-0.4l0.1-0.7c0-0.2,0.2-0.3,0.4-0.3s0.3,0.2,0.3,0.4l-0.1,0.7
	C567.8,173.5,567.7,173.6,567.5,173.6z M618.6,171.1C618.5,171.1,618.5,171.1,618.6,171.1c-0.3-0.1-0.4-0.3-0.3-0.4l0.2-0.7
	c0.1-0.2,0.2-0.3,0.4-0.2s0.3,0.2,0.2,0.4l-0.2,0.7C618.9,171,618.7,171.1,618.6,171.1z M568.5,169.9h-0.3l-0.3-0.1l0.1-0.6
	c0-0.2,0.2-0.3,0.4-0.3s0.3,0.2,0.3,0.4L568.5,169.9z M568.1,169.9L568.1,169.9L568.1,169.9z M619.5,167.9L619.5,167.9
	c-0.3-0.1-0.4-0.3-0.3-0.4l0.2-0.7c0.1-0.2,0.2-0.3,0.4-0.2s0.3,0.2,0.2,0.4l-0.2,0.7C619.8,167.8,619.7,167.9,619.5,167.9z
	 M569.1,166.5h-0.3l-0.3-0.1l0.1-0.6c0-0.2,0.2-0.3,0.4-0.3s0.3,0.2,0.3,0.4L569.1,166.5z M568.8,166.5L568.8,166.5L568.8,166.5z
	 M620.4,164.6L620.4,164.6c-0.3-0.1-0.4-0.3-0.3-0.4l0.2-0.7c0.1-0.2,0.2-0.3,0.4-0.2s0.3,0.2,0.2,0.4l-0.2,0.7
	C620.7,164.5,620.6,164.6,620.4,164.6z M569.5,163.5C569.4,163.5,569.4,163.5,569.5,163.5c-0.3,0-0.4-0.2-0.3-0.4l0.1-0.7
	c0-0.2,0.2-0.3,0.4-0.3s0.3,0.2,0.3,0.4l-0.1,0.7C569.8,163.4,569.6,163.5,569.5,163.5z M621.4,161.3
	C621.3,161.3,621.3,161.3,621.4,161.3c-0.3-0.1-0.4-0.3-0.3-0.4l0.2-0.7c0.1-0.2,0.2-0.3,0.4-0.2s0.3,0.2,0.2,0.4l-0.2,0.7
	C621.6,161.2,621.5,161.3,621.4,161.3z M570.1,160.2L570.1,160.2c-0.3,0-0.4-0.2-0.3-0.4l0.1-0.7c0-0.2,0.2-0.3,0.4-0.3
	s0.3,0.2,0.3,0.4l-0.1,0.7C570.4,160.1,570.3,160.2,570.1,160.2z M622.3,158C622.2,158,622.2,158,622.3,158
	c-0.3-0.1-0.4-0.2-0.3-0.4l0.2-0.7c0-0.2,0.2-0.3,0.4-0.2c0.2,0,0.3,0.2,0.2,0.4l-0.2,0.7C622.5,157.9,622.4,158,622.3,158z
	 M571.2,156.6h-0.3l-0.3-0.1l0.1-0.6c0-0.2,0.2-0.3,0.4-0.3s0.3,0.2,0.3,0.4L571.2,156.6z M570.8,156.5L570.8,156.5L570.8,156.5z
	 M623.1,154.7L623.1,154.7c-0.3-0.1-0.4-0.2-0.3-0.4l0.2-0.7c0-0.2,0.2-0.3,0.4-0.2c0.2,0,0.3,0.2,0.2,0.4l-0.2,0.7
	C623.4,154.6,623.3,154.7,623.1,154.7z M571.6,153.5C571.5,153.5,571.5,153.5,571.6,153.5c-0.3,0-0.4-0.2-0.3-0.4l0.1-0.7
	c0-0.2,0.2-0.3,0.4-0.3s0.3,0.2,0.3,0.4l-0.1,0.7C571.9,153.4,571.7,153.5,571.6,153.5z M624,151.4C624,151.4,623.9,151.4,624,151.4
	c-0.3-0.1-0.4-0.2-0.3-0.4l0.2-0.7c0-0.2,0.2-0.3,0.4-0.2c0.2,0,0.3,0.2,0.2,0.4l-0.2,0.7C624.3,151.3,624.1,151.4,624,151.4z
	 M572.3,150.2L572.3,150.2c-0.3-0.1-0.4-0.2-0.3-0.4l0.2-0.7c0-0.2,0.2-0.3,0.4-0.3s0.3,0.2,0.3,0.4l-0.2,0.7
	C572.6,150.1,572.5,150.2,572.3,150.2z M624.8,148.1L624.8,148.1c-0.3-0.1-0.4-0.2-0.3-0.4l0.2-0.7c0-0.2,0.2-0.3,0.4-0.2
	c0.2,0,0.3,0.2,0.2,0.4l-0.2,0.7C625.1,148,625,148.1,624.8,148.1z M573.4,146.6h-0.3l-0.3-0.1l0.1-0.6c0-0.2,0.2-0.3,0.4-0.3
	s0.3,0.2,0.3,0.4L573.4,146.6z M573.1,146.6L573.1,146.6L573.1,146.6z M625.7,144.8C625.6,144.8,625.6,144.8,625.7,144.8
	c-0.3-0.1-0.4-0.2-0.3-0.4l0.2-0.7c0-0.2,0.2-0.3,0.4-0.2c0.2,0,0.3,0.2,0.2,0.4l-0.2,0.7C626,144.7,625.8,144.8,625.7,144.8z
	 M573.8,143.6L573.8,143.6c-0.3-0.1-0.4-0.2-0.3-0.4l0.2-0.7c0-0.2,0.2-0.3,0.4-0.3s0.3,0.2,0.3,0.4l-0.2,0.7
	C574.1,143.5,574,143.6,573.8,143.6z M626.5,141.5C626.5,141.5,626.4,141.5,626.5,141.5c-0.3-0.1-0.4-0.2-0.3-0.4l0.2-0.7
	c0-0.2,0.2-0.3,0.4-0.3s0.3,0.2,0.3,0.4l-0.2,0.7C626.8,141.4,626.6,141.5,626.5,141.5z M574.6,140.3L574.6,140.3
	c-0.3-0.1-0.4-0.2-0.3-0.4l0.2-0.7c0-0.2,0.2-0.3,0.4-0.3s0.3,0.2,0.3,0.4L575,140C574.9,140.2,574.8,140.3,574.6,140.3z
	 M627.3,138.2C627.3,138.2,627.2,138.2,627.3,138.2c-0.3-0.1-0.4-0.2-0.3-0.4l0.2-0.7c0-0.2,0.2-0.3,0.4-0.3s0.3,0.2,0.3,0.4
	l-0.2,0.7C627.6,138.1,627.4,138.2,627.3,138.2z M575.4,137C575.4,137,575.4,136.9,575.4,137c-0.3-0.1-0.4-0.2-0.3-0.4l0.2-0.7
	c0-0.2,0.2-0.3,0.4-0.2c0.2,0,0.3,0.2,0.2,0.4l-0.2,0.7C575.7,136.8,575.6,137,575.4,137z M628.1,134.9
	C628,134.9,628,134.9,628.1,134.9c-0.3-0.1-0.4-0.2-0.3-0.4l0.2-0.7c0-0.2,0.2-0.3,0.4-0.3s0.3,0.2,0.3,0.4l-0.2,0.7
	C628.4,134.8,628.2,134.9,628.1,134.9z M576.2,133.6L576.2,133.6c-0.3-0.1-0.4-0.2-0.3-0.4l0.2-0.8c0-0.2,0.2-0.3,0.4-0.2
	c0.2,0,0.3,0.2,0.2,0.4l-0.2,0.8C576.5,133.5,576.4,133.6,576.2,133.6z M628.8,131.6L628.8,131.6c-0.3-0.1-0.4-0.2-0.3-0.4l0.2-0.7
	c0-0.2,0.2-0.3,0.4-0.3s0.3,0.2,0.3,0.4l-0.2,0.7C629.1,131.5,629,131.6,628.8,131.6z M577.1,130.3
	C577.1,130.3,577,130.2,577.1,130.3c-0.3-0.1-0.4-0.2-0.3-0.4l0.2-0.7c0-0.2,0.2-0.3,0.4-0.2c0.2,0,0.3,0.2,0.2,0.4l-0.2,0.7
	C577.4,130.1,577.3,130.3,577.1,130.3z M629.6,128.3C629.6,128.3,629.5,128.3,629.6,128.3c-0.3,0-0.4-0.2-0.3-0.4l0.1-0.7
	c0-0.2,0.2-0.3,0.4-0.3s0.3,0.2,0.3,0.4L630,128C629.9,128.2,629.7,128.3,629.6,128.3z M578,127C577.9,127,577.9,126.9,578,127
	c-0.3-0.1-0.4-0.2-0.3-0.4l0.2-0.7c0-0.2,0.2-0.3,0.4-0.2c0.2,0,0.3,0.2,0.2,0.4l-0.2,0.7C578.2,126.9,578.1,127,578,127z
	 M630.3,124.9L630.3,124.9c-0.3,0-0.4-0.2-0.3-0.4l0.1-0.7c0-0.2,0.2-0.3,0.4-0.3s0.3,0.2,0.3,0.4l-0.1,0.7
	C630.6,124.8,630.5,124.9,630.3,124.9z M578.8,123.7L578.8,123.7c-0.3-0.1-0.4-0.2-0.3-0.4l0.2-0.7c0-0.2,0.2-0.3,0.4-0.2
	c0.2,0,0.3,0.2,0.2,0.4l-0.2,0.7C579.1,123.6,579,123.7,578.8,123.7z M631,121.6L631,121.6c-0.2,0-0.4-0.2-0.3-0.4l0.1-0.7
	c0-0.2,0.2-0.3,0.4-0.3s0.3,0.2,0.3,0.4l-0.1,0.6C631.3,121.4,631.2,121.6,631,121.6z M579.7,120.4L579.7,120.4
	c-0.3-0.1-0.4-0.2-0.3-0.4l0.2-0.7c0-0.2,0.2-0.3,0.4-0.2c0.2,0,0.3,0.2,0.2,0.4l-0.2,0.7C580,120.3,579.9,120.4,579.7,120.4z
	 M631.7,118.3L631.7,118.3c-0.3,0-0.4-0.2-0.3-0.4l0.1-0.7c0-0.2,0.2-0.3,0.4-0.3s0.3,0.2,0.3,0.4l-0.1,0.7
	C632,118.2,631.9,118.3,631.7,118.3z M580.6,117.1C580.6,117.1,580.5,117.1,580.6,117.1c-0.3-0.1-0.4-0.3-0.3-0.4l0.2-0.7
	c0.1-0.2,0.2-0.3,0.4-0.2c0.2,0.1,0.3,0.2,0.2,0.4l-0.2,0.7C580.9,117,580.8,117.1,580.6,117.1z M632.4,114.9L632.4,114.9
	c-0.3,0-0.4-0.2-0.3-0.4l0.1-0.7c0-0.2,0.2-0.3,0.4-0.3s0.3,0.2,0.3,0.4l-0.1,0.7C632.7,114.8,632.6,114.9,632.4,114.9z
	 M581.5,113.8L581.5,113.8c-0.3-0.1-0.4-0.3-0.3-0.4l0.2-0.7c0.1-0.2,0.2-0.3,0.4-0.2c0.2,0.1,0.3,0.2,0.2,0.4l-0.2,0.7
	C581.8,113.7,581.7,113.8,581.5,113.8z M633.1,111.6C633.1,111.6,633,111.6,633.1,111.6c-0.3,0-0.4-0.2-0.3-0.4l0.1-0.7
	c0-0.2,0.2-0.3,0.4-0.3s0.3,0.2,0.3,0.4l-0.1,0.7C633.4,111.5,633.2,111.6,633.1,111.6z M582.5,110.5
	C582.4,110.5,582.4,110.5,582.5,110.5c-0.3-0.1-0.4-0.3-0.3-0.4l0.2-0.7c0.1-0.2,0.2-0.3,0.4-0.2c0.2,0.1,0.3,0.2,0.2,0.4l-0.2,0.7
	C582.7,110.4,582.6,110.5,582.5,110.5z M633.7,108.3L633.7,108.3c-0.3,0-0.4-0.2-0.3-0.4l0.1-0.6h0.3l0.3,0.1L634,108
	C634,108.1,633.9,108.3,633.7,108.3z M583.4,107.3C583.4,107.3,583.3,107.3,583.4,107.3c-0.3-0.1-0.4-0.3-0.3-0.4l0.2-0.7
	c0.1-0.2,0.2-0.3,0.4-0.2c0.2,0.1,0.3,0.2,0.2,0.4l-0.2,0.7C583.7,107.2,583.6,107.3,583.4,107.3z M634.4,104.9
	C634.3,104.9,634.3,104.9,634.4,104.9c-0.2,0-0.4-0.2-0.3-0.4l0.1-0.6h0.3l0.3,0.1l-0.1,0.6C634.7,104.8,634.5,104.9,634.4,104.9z
	 M584.4,104C584.3,104,584.3,104,584.4,104c-0.3-0.1-0.4-0.3-0.3-0.4l0.2-0.7c0.1-0.2,0.2-0.3,0.4-0.2c0.2,0.1,0.3,0.2,0.2,0.4
	l-0.2,0.7C584.7,103.9,584.5,104,584.4,104z M635,101.5C634.9,101.5,634.9,101.5,635,101.5c-0.2,0-0.4-0.2-0.3-0.4l0.1-0.7
	c0-0.2,0.2-0.3,0.4-0.3s0.3,0.2,0.3,0.4l-0.1,0.6C635.3,101.4,635.1,101.5,635,101.5z M585.4,100.7
	C585.3,100.7,585.3,100.7,585.4,100.7c-0.3-0.1-0.4-0.3-0.3-0.4l0.2-0.7c0.1-0.2,0.2-0.3,0.4-0.2c0.2,0.1,0.3,0.2,0.2,0.4l-0.2,0.7
	C585.6,100.6,585.5,100.7,585.4,100.7z M635.5,98.2L635.5,98.2c-0.2,0-0.4-0.2-0.3-0.4l0.1-0.6h0.3l0.3,0.1l-0.1,0.6
	C635.9,98.1,635.7,98.2,635.5,98.2z M586.4,97.5L586.4,97.5c-0.3-0.1-0.4-0.2-0.3-0.4l0.2-0.7c0.1-0.2,0.3-0.3,0.4-0.2
	c0.2,0.1,0.3,0.2,0.2,0.4l-0.2,0.6C586.7,97.4,586.5,97.5,586.4,97.5z M636.1,94.8L636.1,94.8c-0.2,0-0.4-0.2-0.3-0.4l0.1-0.6h0.3
	l0.3,0.1l-0.1,0.6C636.4,94.7,636.3,94.8,636.1,94.8z M587.4,94.2L587.4,94.2c-0.3-0.1-0.4-0.2-0.3-0.4l0.2-0.6
	c0.1-0.2,0.3-0.3,0.4-0.2c0.2,0.1,0.3,0.2,0.2,0.4l-0.2,0.6C587.7,94.1,587.5,94.2,587.4,94.2z M636.7,91.5
	C636.6,91.5,636.6,91.5,636.7,91.5c-0.2,0-0.4-0.2-0.3-0.4l0.1-0.6h0.3l0.3,0.1l-0.1,0.6C637,91.4,636.8,91.5,636.7,91.5z M588.4,91
	L588.4,91c-0.3-0.1-0.4-0.3-0.3-0.4l0.2-0.6c0.1-0.2,0.3-0.3,0.4-0.2c0.2,0.1,0.3,0.3,0.2,0.4l-0.2,0.6
	C588.7,90.9,588.6,91,588.4,91z M637.2,88.1C637.2,88.1,637.1,88.1,637.2,88.1c-0.2,0-0.4-0.2-0.3-0.4L637,87c0-0.2,0.2-0.3,0.4-0.3
	s0.3,0.2,0.3,0.4l-0.1,0.7C637.5,88,637.3,88.1,637.2,88.1z M589.5,87.7L589.5,87.7c-0.3-0.1-0.4-0.3-0.3-0.4l0.2-0.6
	c0.1-0.2,0.3-0.3,0.4-0.2c0.2,0.1,0.3,0.3,0.2,0.4l-0.2,0.6C589.8,87.7,589.6,87.7,589.5,87.7z M637.7,84.7
	C637.7,84.7,637.6,84.7,637.7,84.7c-0.2,0-0.4-0.2-0.3-0.4l0.1-0.7c0-0.2,0.2-0.3,0.4-0.3s0.3,0.2,0.3,0.4l-0.1,0.6
	C638,84.6,637.8,84.7,637.7,84.7z M590.6,84.5L590.6,84.5c-0.3-0.1-0.4-0.3-0.3-0.4l0.2-0.6c0.1-0.2,0.3-0.3,0.4-0.2
	c0.2,0.1,0.3,0.3,0.2,0.4l-0.2,0.6C590.8,84.4,590.7,84.5,590.6,84.5z M638.2,81.4C638.1,81.4,638.1,81.4,638.2,81.4
	c-0.2,0-0.4-0.2-0.3-0.4l0.1-0.7c0-0.2,0.2-0.3,0.4-0.3s0.3,0.2,0.3,0.4l-0.1,0.7C638.5,81.3,638.3,81.4,638.2,81.4z M591.7,81.3
	L591.7,81.3c-0.3-0.1-0.4-0.3-0.3-0.4l0.2-0.6c0.1-0.2,0.3-0.3,0.4-0.2c0.2,0.1,0.3,0.3,0.2,0.4l-0.2,0.6
	C591.9,81.2,591.8,81.3,591.7,81.3z M592.8,78.1L592.8,78.1c-0.3-0.1-0.4-0.3-0.3-0.4l0.2-0.6c0.1-0.2,0.3-0.3,0.4-0.2
	c0.2,0.1,0.3,0.3,0.2,0.4l-0.2,0.6C593.1,78,592.9,78.1,592.8,78.1z M638.6,78L638.6,78c-0.2,0-0.4-0.2-0.3-0.4l0.1-0.7
	c0-0.2,0.2-0.3,0.4-0.3s0.3,0.2,0.3,0.4l-0.1,0.7C638.9,77.9,638.8,78,638.6,78z M593.9,74.9L593.9,74.9c-0.3-0.1-0.4-0.3-0.3-0.4
	l0.2-0.6c0.1-0.2,0.3-0.3,0.4-0.2c0.2,0.1,0.3,0.3,0.2,0.4l-0.2,0.6C594.2,74.8,594.1,74.9,593.9,74.9z M639,74.6L639,74.6
	c-0.2,0-0.4-0.2-0.3-0.4l0.1-0.7c0-0.2,0.2-0.3,0.4-0.3s0.3,0.2,0.3,0.4l-0.1,0.7C639.4,74.5,639.2,74.6,639,74.6z M595.1,71.7
	L595.1,71.7c-0.3-0.1-0.4-0.3-0.3-0.4l0.2-0.6c0.1-0.2,0.3-0.3,0.4-0.2c0.2,0.1,0.3,0.3,0.2,0.4l-0.2,0.6
	C595.4,71.6,595.2,71.7,595.1,71.7z M639.4,71.2L639.4,71.2c-0.2,0-0.4-0.2-0.3-0.4l0.1-0.7c0-0.2,0.2-0.3,0.4-0.3s0.3,0.2,0.3,0.4
	l-0.1,0.7C639.8,71.1,639.6,71.2,639.4,71.2z M596.3,68.5L596.3,68.5c-0.3-0.1-0.4-0.3-0.3-0.4l0.2-0.6c0.1-0.2,0.3-0.3,0.4-0.2
	c0.2,0.1,0.3,0.3,0.2,0.4l-0.2,0.6C596.5,68.4,596.4,68.5,596.3,68.5z M639.8,67.9L639.8,67.9c-0.2,0-0.4-0.2-0.3-0.4l0.1-0.7
	c0-0.2,0.2-0.3,0.4-0.3s0.3,0.2,0.3,0.4l-0.1,0.7C640.1,67.7,640,67.9,639.8,67.9z M597.5,65.3L597.5,65.3c-0.3-0.1-0.4-0.3-0.3-0.4
	l0.2-0.6c0.1-0.2,0.3-0.3,0.4-0.2c0.2,0.1,0.3,0.3,0.2,0.4l-0.2,0.6C597.8,65.2,597.6,65.3,597.5,65.3z M640.1,64.4L640.1,64.4
	c-0.2,0-0.4-0.2-0.3-0.3l0.1-0.7c0-0.2,0.2-0.3,0.4-0.3s0.3,0.2,0.3,0.4l-0.1,0.6C640.5,64.3,640.3,64.4,640.1,64.4z M598.7,62.1
	L598.7,62.1c-0.3-0.1-0.4-0.3-0.3-0.4l0.3-0.6c0.1-0.2,0.3-0.3,0.4-0.2c0.2,0.1,0.3,0.3,0.2,0.4l-0.3,0.6
	C599,62,598.9,62.1,598.7,62.1z M640.4,61.1L640.4,61.1c-0.2,0-0.4-0.2-0.3-0.4l0.1-0.6h0.3l0.3,0.1l-0.1,0.6
	C640.8,60.9,640.6,61.1,640.4,61.1z M600,59L600,59c-0.3-0.1-0.4-0.3-0.3-0.4L600,58c0.1-0.2,0.3-0.3,0.4-0.2
	c0.2,0.1,0.3,0.3,0.2,0.4l-0.3,0.6C600.3,58.9,600.1,59,600,59z M640.7,57.7L640.7,57.7c-0.2,0-0.4-0.2-0.3-0.4v-0.6h0.3l0.3,0.1
	v0.6C641,57.5,640.9,57.7,640.7,57.7z M601.3,55.8L601.3,55.8c-0.3-0.1-0.4-0.3-0.3-0.4l0.3-0.6c0.1-0.2,0.3-0.3,0.4-0.2
	c0.2,0.1,0.3,0.3,0.2,0.4l-0.3,0.6C601.5,55.7,601.4,55.8,601.3,55.8z M640.9,54.3L640.9,54.3c-0.2,0-0.4-0.2-0.3-0.4v-0.7h0.3h0.3
	v0.7C641.3,54.1,641.1,54.3,640.9,54.3z M602.6,52.7L602.6,52.7c-0.3-0.1-0.4-0.3-0.3-0.4l0.3-0.6c0.1-0.2,0.3-0.3,0.4-0.2
	c0.2,0.1,0.3,0.3,0.2,0.4l-0.3,0.6C602.9,52.6,602.7,52.7,602.6,52.7z M641.1,50.9L641.1,50.9c-0.2,0-0.4-0.2-0.3-0.4v-0.7
	c0-0.2,0.1-0.3,0.4-0.3c0.2,0,0.3,0.2,0.3,0.4v0.7C641.5,50.7,641.3,50.9,641.1,50.9z M604,49.5L604,49.5c-0.3-0.1-0.4-0.3-0.3-0.5
	l0.3-0.6c0.1-0.2,0.3-0.3,0.5-0.2s0.3,0.3,0.2,0.5l-0.3,0.6C604.2,49.5,604.1,49.5,604,49.5z M641.3,47.5L641.3,47.5
	c-0.2,0-0.3-0.2-0.3-0.3v-0.7c0-0.2,0.2-0.3,0.4-0.3s0.3,0.2,0.3,0.4v0.7C641.6,47.3,641.4,47.5,641.3,47.5z M605.3,46.4L605.3,46.4
	c-0.3-0.1-0.3-0.3-0.3-0.5l0.3-0.6c0.1-0.2,0.3-0.2,0.5-0.2c0.2,0.1,0.2,0.3,0.2,0.5l-0.3,0.6C605.6,46.4,605.5,46.4,605.3,46.4z
	 M641.4,44.1C641.3,44.1,641.3,44.1,641.4,44.1c-0.2,0-0.3-0.2-0.3-0.3v-0.7c0-0.2,0.1-0.4,0.3-0.3c0.2,0,0.3,0.2,0.3,0.3v0.7
	C641.7,43.9,641.5,44.1,641.4,44.1z M606.8,43.3L606.8,43.3c-0.3-0.1-0.3-0.3-0.3-0.5l0.3-0.6c0.1-0.2,0.3-0.2,0.5-0.2
	c0.2,0.1,0.2,0.3,0.2,0.5l-0.3,0.6C607,43.3,606.9,43.3,606.8,43.3z M641.4,40.7c-0.2,0-0.3-0.2-0.3-0.3v-0.7c0-0.2,0.2-0.3,0.3-0.3
	c0.2,0,0.3,0.2,0.3,0.3v0.7C641.7,40.5,641.6,40.7,641.4,40.7L641.4,40.7z M608.2,40.3c-0.1,0-0.1,0-0.2,0c-0.2-0.1-0.2-0.3-0.2-0.5
	l0.3-0.6c0.1-0.2,0.3-0.2,0.5-0.2c0.2,0.1,0.2,0.3,0.2,0.5l-0.3,0.6C608.5,40.2,608.4,40.3,608.2,40.3z M641.3,37.3
	c-0.2,0-0.3-0.1-0.3-0.3v-0.7c0-0.2,0.1-0.3,0.3-0.4c0.2,0,0.3,0.1,0.4,0.3v0.7C641.7,37.1,641.5,37.3,641.3,37.3L641.3,37.3z
	 M609.8,37.2c-0.1,0-0.1,0-0.2,0c-0.2-0.1-0.2-0.3-0.1-0.5l0.3-0.6c0.1-0.2,0.3-0.2,0.5-0.1c0.2,0.1,0.2,0.3,0.1,0.5l-0.3,0.6
	C610,37.1,609.9,37.2,609.8,37.2z M611.3,34.2c-0.1,0-0.1,0-0.2,0c-0.2-0.1-0.2-0.3-0.1-0.5l0.3-0.6c0.1-0.2,0.3-0.2,0.5-0.1
	c0.2,0.1,0.2,0.3,0.1,0.5l-0.3,0.6C611.6,34.1,611.5,34.2,611.3,34.2z M641.2,33.9c-0.2,0-0.3-0.1-0.3-0.3v-0.7
	c0-0.2,0.1-0.3,0.3-0.4c0.2,0,0.4,0.1,0.4,0.3v0.7C641.6,33.7,641.4,33.8,641.2,33.9L641.2,33.9z M613,31.2c-0.1,0-0.1,0-0.2,0
	c-0.2-0.1-0.2-0.3-0.1-0.5l0.3-0.6c0.1-0.2,0.3-0.2,0.5-0.1s0.2,0.3,0.1,0.5l-0.3,0.6C613.2,31.1,613.1,31.2,613,31.2z M641,30.5
	c-0.2,0-0.3-0.1-0.3-0.3c0-0.2,0-0.5-0.1-0.7c0-0.2,0.1-0.4,0.3-0.4s0.4,0.1,0.4,0.3c0,0.2,0,0.5,0.1,0.7
	C641.3,30.3,641.2,30.4,641,30.5L641,30.5z M614.7,28.2c-0.1,0-0.1,0-0.2,0c-0.2-0.1-0.2-0.3-0.1-0.5l0.3-0.6
	c0.1-0.2,0.3-0.2,0.5-0.1s0.2,0.3,0.1,0.5l-0.3,0.6C614.9,28.2,614.8,28.2,614.7,28.2z M640.6,27.1c-0.2,0-0.3-0.1-0.3-0.3
	c0-0.2-0.1-0.4-0.1-0.7c0-0.2,0.1-0.4,0.3-0.4s0.4,0.1,0.4,0.3c0,0.2,0.1,0.5,0.1,0.7C641,26.9,640.9,27,640.6,27.1
	C640.7,27.1,640.6,27.1,640.6,27.1z M616.4,25.3c-0.1,0-0.1,0-0.2-0.1c-0.2-0.1-0.2-0.3-0.1-0.5l0.4-0.6c0.1-0.2,0.3-0.2,0.5-0.1
	s0.2,0.3,0.1,0.5l-0.4,0.6C616.7,25.3,616.5,25.3,616.4,25.3z M640.1,23.7c-0.2,0-0.3-0.1-0.3-0.3c0-0.2-0.1-0.4-0.1-0.7
	c0-0.2,0.1-0.4,0.3-0.4s0.4,0.1,0.4,0.3c0,0.2,0.1,0.4,0.1,0.7C640.5,23.5,640.4,23.7,640.1,23.7C640.2,23.7,640.1,23.7,640.1,23.7z
	 M618.3,22.5c-0.1,0-0.1,0-0.2-0.1c-0.2-0.1-0.2-0.3-0.1-0.5c0.1-0.2,0.3-0.4,0.4-0.6c0.1-0.2,0.3-0.2,0.5-0.1s0.2,0.3,0.1,0.5
	l-0.4,0.6C618.5,22.4,618.4,22.5,618.3,22.5z M639.4,20.4c-0.2,0-0.3-0.1-0.3-0.3c-0.1-0.2-0.1-0.4-0.2-0.7
	c-0.1-0.2,0.1-0.4,0.2-0.4c0.2-0.1,0.4,0.1,0.4,0.2c0.1,0.2,0.1,0.4,0.2,0.7C639.8,20.1,639.7,20.3,639.4,20.4
	C639.5,20.4,639.4,20.4,639.4,20.4z M620.3,19.7c-0.1,0-0.1,0-0.2-0.1c-0.2-0.1-0.2-0.3-0.1-0.5c0.1-0.2,0.3-0.4,0.4-0.5
	c0.1-0.1,0.3-0.2,0.5-0.1c0.1,0.1,0.2,0.3,0.1,0.5c-0.1,0.2-0.3,0.4-0.4,0.5C620.5,19.7,620.4,19.7,620.3,19.7z M638.4,17.1
	c-0.1,0-0.3-0.1-0.3-0.2c-0.1-0.2-0.2-0.4-0.3-0.6s0-0.4,0.2-0.4c0.2-0.1,0.4,0,0.4,0.2c0.1,0.2,0.2,0.4,0.3,0.6s0,0.4-0.2,0.4
	C638.4,17.1,638.4,17.1,638.4,17.1z M622.4,17.1c-0.1,0-0.2,0-0.2-0.1c-0.1-0.1-0.2-0.3,0-0.5s0.3-0.3,0.5-0.5
	c0.1-0.1,0.3-0.1,0.5,0c0.1,0.1,0.2,0.3,0,0.5c-0.1,0.2-0.3,0.3-0.4,0.5C622.6,17,622.5,17.1,622.4,17.1z M624.8,14.6
	c-0.1,0-0.2,0-0.2-0.1c-0.1-0.1-0.1-0.4,0-0.5c0.2-0.2,0.3-0.3,0.5-0.5c0.1-0.1,0.4-0.1,0.5,0s0.1,0.4,0,0.5
	c-0.2,0.1-0.3,0.3-0.5,0.5C625,14.6,624.9,14.6,624.8,14.6z M636.8,14.1c-0.1,0-0.2-0.1-0.3-0.2c-0.1-0.2-0.3-0.4-0.4-0.5
	c-0.1-0.2-0.1-0.4,0.1-0.5c0.1-0.1,0.4-0.1,0.5,0.1c0.1,0.2,0.3,0.4,0.4,0.6c0.1,0.2,0.1,0.4-0.1,0.5
	C637,14.1,636.9,14.1,636.8,14.1z M627.5,12.5c-0.1,0-0.2-0.1-0.3-0.2c-0.1-0.2-0.1-0.4,0.1-0.5c0.2-0.1,0.4-0.3,0.6-0.4
	c0.2-0.1,0.4,0,0.5,0.1c0.1,0.2,0,0.4-0.1,0.5c-0.2,0.1-0.4,0.2-0.6,0.3C627.6,12.5,627.5,12.5,627.5,12.5z M634.5,11.7
	c-0.1,0-0.1,0-0.2,0c-0.2-0.1-0.4-0.2-0.6-0.3c-0.2-0.1-0.3-0.3-0.2-0.4c0.1-0.2,0.3-0.3,0.4-0.2c0.2,0.1,0.4,0.2,0.6,0.3
	C634.7,11.2,634.7,11.4,634.5,11.7C634.7,11.7,634.6,11.7,634.5,11.7z M630.5,11.1c-0.2,0-0.3-0.1-0.3-0.3s0.1-0.4,0.3-0.4
	c0.2-0.1,0.5-0.1,0.7-0.1s0.4,0.1,0.4,0.3s-0.1,0.4-0.3,0.4C631,11,630.8,11.1,630.5,11.1C630.6,11.1,630.5,11.1,630.5,11.1z"/>
<ellipse transform="matrix(0.2432 -0.97 0.97 0.2432 312.3567 672.8693)" class="st5" cx="587.4" cy="136.3" rx="119.3" ry="25.4"/>
<path class="st6" d="M612.4,142.6l-0.6-0.1v-0.1l0.2-0.7l0.6,0.2L612.4,142.6z M611.7,145.1l-0.2,0.8l-0.6-0.2l0.2-0.8L611.7,145.1z
	 M613.1,139.3l-0.6-0.2l0.2-0.8l0.6,0.2L613.1,139.3z M610.8,148.4l-0.2,0.8L610,149l0.2-0.8L610.8,148.4z M614,136l-0.6-0.2
	l0.2-0.8l0.6,0.2L614,136z M610,151.7l-0.2,0.8l-0.6-0.2l0.2-0.8L610,151.7z M614.7,132.7l-0.6-0.2l0.2-0.8l0.6,0.2L614.7,132.7z
	 M609.1,155l-0.2,0.8l-0.6-0.2l0.2-0.8L609.1,155z M615.5,129.4l-0.6-0.2l0.2-0.8l0.6,0.2L615.5,129.4z M608.1,158.3l-0.2,0.8
	l-0.6-0.2l0.2-0.8L608.1,158.3z M616.2,126.1l-0.6-0.2l0.2-0.8l0.6,0.1L616.2,126.1z M607.2,161.5l-0.3,0.8l-0.6-0.2l0.3-0.8
	L607.2,161.5z M616.9,122.7l-0.6-0.1l0.1-0.8l0.6,0.1L616.9,122.7z M606.3,164.8l-0.3,0.8l-0.6-0.2l0.3-0.8L606.3,164.8z
	 M617.6,119.4l-0.6-0.1l0.1-0.8l0.6,0.1L617.6,119.4z M605.3,168.1l-0.3,0.8l-0.6-0.2l0.3-0.8L605.3,168.1z M618.3,116l-0.6-0.1
	l0.1-0.8l0.6,0.1L618.3,116z M604.3,171.3l-0.3,0.8l-0.6-0.2l0.3-0.8L604.3,171.3z M619,112.7l-0.6-0.1l0.1-0.8l0.6,0.1L619,112.7z
	 M603.3,174.6l-0.3,0.8l-0.6-0.2l0.3-0.8L603.3,174.6z M619.6,109.4l-0.6-0.1l0.1-0.8l0.6,0.1L619.6,109.4z M602.3,177.8l-0.3,0.8
	l-0.6-0.2l0.3-0.8L602.3,177.8z M620.2,106l-0.6-0.1l0.1-0.8l0.6,0.1L620.2,106z M601.2,181l-0.3,0.8l-0.6-0.2l0.3-0.8L601.2,181z
	 M620.8,102.7l-0.6-0.1l0.1-0.8l0.6,0.1L620.8,102.7z M600.1,184.3l-0.3,0.8l-0.6-0.2l0.3-0.8L600.1,184.3z M621.3,99.3l-0.6-0.1
	l0.1-0.8l0.6,0.1L621.3,99.3z M599,187.4l-0.3,0.8l-0.6-0.2l0.3-0.8L599,187.4z M621.9,96l-0.6-0.1l0.1-0.8h0.7L621.9,96z
	 M597.8,190.7l-0.3,0.8l-0.6-0.3l0.3-0.8L597.8,190.7z M622.4,92.6h-0.7l0.1-0.8h0.7L622.4,92.6z M596.7,193.8l-0.3,0.8l-0.6-0.3
	l0.3-0.8L596.7,193.8z M622.8,89.2h-0.7l0.1-0.8h0.7L622.8,89.2z M595.5,197l-0.3,0.8l-0.6-0.3l0.3-0.8L595.5,197z M623.3,85.9h-0.7
	l0.1-0.8h0.7L623.3,85.9z M594.3,200.2L594,201l-0.6-0.3l0.3-0.8L594.3,200.2z M623.7,82.5H623l0.1-0.8h0.7L623.7,82.5z
	 M593.1,203.4l-0.3,0.8l-0.6-0.3l0.3-0.8L593.1,203.4z M624.1,79.1h-0.7l0.1-0.8h0.7L624.1,79.1z M591.8,206.5l-0.3,0.8l-0.6-0.3
	l0.3-0.8L591.8,206.5z M624.5,75.8h-0.7l0.1-0.8h0.7L624.5,75.8z M590.5,209.6l-0.3,0.8l-0.6-0.3l0.3-0.8L590.5,209.6z M624.8,72.4
	h-0.7l0.1-0.8h0.7L624.8,72.4z M589.1,212.7l-0.4,0.8l-0.6-0.4l0.4-0.8L589.1,212.7z M625.1,69h-0.7v-0.8h0.7V69z M587.8,215.8
	l-0.4,0.8l-0.6-0.4l0.4-0.8L587.8,215.8z M625.3,65.7h-0.7v-0.8h0.7V65.7z M586.4,218.9l-0.4,0.8l-0.6-0.4l0.4-0.8L586.4,218.9z
	 M625.5,62.3h-0.7v-0.8h0.7V62.3z M584.9,221.9l-0.4,0.8l-0.6-0.4l0.4-0.8L584.9,221.9z M625.7,59H625v-0.8h0.7V59z M583.5,224.9
	l-0.4,0.7l-0.6-0.4l0.4-0.7L583.5,224.9z M625.7,55.6l-0.7,0.1v-0.8l0.7-0.1V55.6z M581.9,227.9l-0.4,0.7l-0.6-0.4l0.4-0.7
	L581.9,227.9z M625.8,52.2l-0.7,0.1v-0.8l0.7-0.1V52.2z M580.3,230.9l-0.4,0.7l-0.6-0.4l0.4-0.7L580.3,230.9z M625.7,48.9L625,49
	v-0.8l0.7-0.1V48.9z M578.7,233.7l-0.4,0.7l-0.6-0.4l0.4-0.7L578.7,233.7z M625.6,45.6l-0.7,0.1c0-0.3,0-0.6,0-0.8l0.7-0.2
	C625.6,45,625.6,45.3,625.6,45.6z M576.9,236.6l-0.5,0.7l-0.5-0.5l0.4-0.7L576.9,236.6z M625.4,42.2l-0.6,0.2c0-0.3,0-0.6-0.1-0.8
	l0.6-0.2C625.4,41.7,625.5,41.9,625.4,42.2z M575.1,239.3c-0.2,0.2-0.3,0.5-0.4,0.7l-0.5-0.5c0.2-0.2,0.3-0.4,0.4-0.7L575.1,239.3z
	 M625.2,39l-0.6,0.2c0-0.3-0.1-0.5-0.1-0.8l0.6-0.2C625.1,38.4,625.1,38.7,625.2,39z M573.3,242c-0.2,0.2-0.3,0.4-0.5,0.7l-0.5-0.5
	c0.2-0.2,0.3-0.4,0.5-0.7L573.3,242z M624.7,35.7L624,36c0-0.3-0.1-0.5-0.1-0.8l0.7-0.3C624.6,35.2,624.7,35.4,624.7,35.7z
	 M571.3,244.6c-0.2,0.2-0.3,0.4-0.5,0.6l-0.4-0.6c0.2-0.2,0.3-0.4,0.5-0.6L571.3,244.6z M624.2,32.5l-0.7,0.3c0-0.3-0.1-0.5-0.2-0.8
	l0.6-0.3C624,31.9,624.1,32.2,624.2,32.5z M569.2,247.1c-0.2,0.2-0.4,0.4-0.6,0.6l-0.4-0.7c0.2-0.2,0.4-0.4,0.5-0.6L569.2,247.1z
	 M623.4,29.4l-0.6,0.4c-0.1-0.2-0.1-0.5-0.2-0.8l0.6-0.4C623.2,28.9,623.3,29.2,623.4,29.4z M566.9,249.2c-0.2,0.2-0.4,0.3-0.6,0.5
	L566,249c0.2-0.2,0.4-0.3,0.6-0.5L566.9,249.2z M622.3,26.4l-0.6,0.5c-0.1-0.2-0.2-0.5-0.3-0.7l0.6-0.5
	C622.1,26,622.2,26.2,622.3,26.4z M564.4,251.1c-0.2,0.2-0.4,0.2-0.6,0.4l-0.2-0.8c0.2-0.1,0.4-0.3,0.6-0.3L564.4,251.1z
	 M620.9,23.7l-0.5,0.6c-0.1-0.2-0.3-0.4-0.4-0.6l0.5-0.6C620.6,23.3,620.8,23.5,620.9,23.7z M561.7,252.3c-0.2,0.1-0.5,0.1-0.7,0.2
	v-0.8c0.2,0,0.4-0.1,0.6-0.2L561.7,252.3z M619,21.5l-0.4,0.7c-0.2-0.1-0.4-0.3-0.5-0.4l0.4-0.8C618.6,21.2,618.8,21.3,619,21.5z
	 M558.9,252.5c-0.2-0.1-0.5,0-0.7-0.1l-0.2-0.1l0.2-0.8h0.2c0.2,0.1,0.4,0.1,0.6,0.1L558.9,252.5z M616.6,20.2l-0.2,0.8h-0.1
	c-0.2,0-0.4-0.1-0.5-0.1l0.1-0.8c0.2,0.1,0.4,0.1,0.6,0.1H616.6z M556.6,250.7l-0.4,0.7c-0.2-0.1-0.4-0.3-0.6-0.4l0.5-0.7
	C556.3,250.5,556.4,250.6,556.6,250.7z M613.9,21c-0.2,0-0.4,0.1-0.6,0.1l-0.1-0.8c0.2-0.1,0.5-0.1,0.7-0.2L613.9,21z M554.7,248.8
	l-0.5,0.6c-0.2-0.2-0.3-0.4-0.4-0.6l0.5-0.6C554.5,248.5,554.6,248.6,554.7,248.8z M611.3,21.9c-0.2,0.1-0.4,0.2-0.6,0.3l-0.2-0.8
	c0.2-0.2,0.4-0.2,0.6-0.4L611.3,21.9z M553.3,246.3l-0.6,0.5c-0.1-0.2-0.2-0.5-0.3-0.7l0.6-0.5C553.1,245.9,553.2,246.1,553.3,246.3
	z M608.9,23.5c-0.2,0.2-0.4,0.3-0.6,0.5l-0.3-0.6c0.2-0.2,0.4-0.3,0.6-0.5L608.9,23.5z M552.2,243.5l-0.6,0.4
	c-0.1-0.2-0.1-0.5-0.2-0.8l0.6-0.3C552.1,243,552.1,243.2,552.2,243.5z M606.6,25.5c-0.2,0.2-0.4,0.3-0.5,0.6l-0.4-0.6
	c0.2-0.2,0.4-0.4,0.6-0.6L606.6,25.5z M551.4,240.5l-0.6,0.3c-0.1-0.2-0.1-0.5-0.2-0.8l0.7-0.3C551.3,240,551.4,240.2,551.4,240.5z
	 M604.5,27.8c-0.2,0.2-0.3,0.4-0.5,0.6l-0.5-0.5c0.2-0.2,0.3-0.4,0.5-0.6L604.5,27.8z M550.8,237.3l-0.7,0.3c0-0.3-0.1-0.5-0.1-0.8
	l0.7-0.3C550.7,236.8,550.8,237.1,550.8,237.3z M602.5,30.4c-0.2,0.2-0.3,0.4-0.5,0.7l-0.5-0.5c0.2-0.2,0.3-0.4,0.5-0.7L602.5,30.4z
	 M550.4,234.1l-0.6,0.2c0-0.3-0.1-0.5-0.1-0.8l0.6-0.2C550.3,233.6,550.3,233.9,550.4,234.1z M600.7,33c-0.2,0.2-0.3,0.4-0.4,0.7
	l-0.5-0.5c0.2-0.2,0.3-0.5,0.4-0.7L600.7,33z M550.1,230.9l-0.6,0.2c0-0.3,0-0.6-0.1-0.9l0.6-0.2C550,230.4,550,230.6,550.1,230.9z
	 M598.8,35.7c-0.2,0.2-0.3,0.5-0.4,0.7l-0.5-0.5c0.2-0.2,0.3-0.5,0.5-0.7L598.8,35.7z M549.8,227.6l-0.7,0.2l-0.1-0.9l0.7-0.1
	L549.8,227.6z M597.1,38.5l-0.4,0.7l-0.6-0.4l0.4-0.7L597.1,38.5z M549.7,224.3l-0.7,0.1v-0.8l0.7-0.1V224.3z M595.4,41.4l-0.4,0.7
	l-0.6-0.4l0.4-0.7L595.4,41.4z M549.7,221l-0.7,0.1v-0.8l0.7-0.1V221z M593.8,44.3l-0.4,0.7l-0.6-0.4l0.4-0.7L593.8,44.3z
	 M549.7,217.7l-0.7,0.1V217l0.7-0.1V217.7z M592.3,47.2l-0.4,0.7l-0.6-0.4l0.4-0.7L592.3,47.2z M549.8,214.3h-0.7v-0.8h0.7V214.3z
	 M590.8,50.2l-0.4,0.8l-0.6-0.4l0.4-0.8L590.8,50.2z M549.9,211h-0.7v-0.8h0.7V211z M589.3,53.2L589,54l-0.6-0.4l0.4-0.8L589.3,53.2
	z M550.1,207.6h-0.7v-0.8h0.7V207.6z M587.9,56.3l-0.4,0.8l-0.6-0.4l0.4-0.8L587.9,56.3z M550.3,204.3h-0.7v-0.8h0.7V204.3z
	 M586.5,59.4l-0.4,0.8l-0.6-0.4L586,59L586.5,59.4z M550.6,200.9h-0.7l0.1-0.8h0.7L550.6,200.9z M585.2,62.4l-0.3,0.8l-0.6-0.3
	l0.3-0.8L585.2,62.4z M550.9,197.6h-0.7l0.1-0.8h0.7L550.9,197.6z M583.9,65.5l-0.3,0.8L583,66l0.3-0.8L583.9,65.5z M551.3,194.2
	h-0.7l0.1-0.8h0.7L551.3,194.2z M582.6,68.7l-0.3,0.8l-0.6-0.3l0.3-0.8L582.6,68.7z M551.6,190.8h-0.7l0.1-0.8h0.7L551.6,190.8z
	 M581.4,71.8l-0.3,0.8l-0.6-0.3l0.3-0.8L581.4,71.8z M552,187.5h-0.7l0.1-0.8h0.7L552,187.5z M580.2,74.9l-0.3,0.8l-0.6-0.3l0.3-0.8
	L580.2,74.9z M552.5,184.2h-0.7l0.1-0.8h0.7L552.5,184.2z M579,78.1l-0.3,0.8l-0.6-0.3l0.3-0.8L579,78.1z M552.9,180.8h-0.7l0.1-0.8
	h0.7L552.9,180.8z M577.8,81.3l-0.3,0.8l-0.6-0.3l0.3-0.8L577.8,81.3z M553.4,177.4h-0.7l0.1-0.8l0.6,0.1L553.4,177.4z M576.7,84.5
	l-0.3,0.8l-0.6-0.2l0.3-0.8L576.7,84.5z M554,174.1l-0.6-0.1l0.1-0.8l0.6,0.1L554,174.1z M575.6,87.7l-0.3,0.8l-0.6-0.2l0.3-0.8
	L575.6,87.7z M554.5,170.7l-0.6-0.1l0.1-0.8l0.6,0.1L554.5,170.7z M574.5,90.9l-0.3,0.8l-0.6-0.2l0.3-0.8L574.5,90.9z M555.1,167.4
	l-0.6-0.1l0.1-0.8l0.6,0.1L555.1,167.4z M573.5,94.2l-0.3,0.8l-0.6-0.2l0.3-0.8L573.5,94.2z M555.7,164.1l-0.6-0.1l0.1-0.8l0.6,0.1
	L555.7,164.1z M572.4,97.3l-0.3,0.8l-0.6-0.2l0.3-0.8L572.4,97.3z M556.3,160.7l-0.6-0.1l0.1-0.8l0.6,0.1L556.3,160.7z M571.3,100.6
	l-0.3,0.8l-0.6-0.2l0.3-0.8L571.3,100.6z M556.9,157.4l-0.6-0.1l0.1-0.8l0.6,0.1L556.9,157.4z M570.4,103.8l-0.3,0.8l-0.6-0.2
	l0.3-0.8L570.4,103.8z M557.6,154.1L557,154l0.1-0.8l0.6,0.1L557.6,154.1z M569.4,107.1l-0.3,0.8l-0.6-0.2l0.3-0.8L569.4,107.1z
	 M558.3,150.7l-0.6-0.1l0.1-0.8l0.6,0.1L558.3,150.7z M568.4,110.4l-0.3,0.8l-0.6-0.2l0.3-0.8L568.4,110.4z M559.1,147.4l-0.6-0.1
	l0.2-0.8l0.6,0.2L559.1,147.4z M567.5,113.6l-0.2,0.8l-0.6-0.2l0.2-0.8L567.5,113.6z M559.8,144.1l-0.6-0.2l0.2-0.8l0.6,0.2
	L559.8,144.1z M566.6,116.9l-0.2,0.8l-0.6-0.2l0.2-0.8L566.6,116.9z M560.5,140.8l-0.6-0.2l0.2-0.8l0.6,0.2L560.5,140.8z
	 M565.7,120.2l-0.2,0.8l-0.6-0.2l0.2-0.8L565.7,120.2z M561.3,137.4l-0.6-0.2l0.2-0.8l0.6,0.2L561.3,137.4z M564.8,123.5l-0.2,0.8
	l-0.6-0.2l0.2-0.8L564.8,123.5z M562.1,134.2l-0.6-0.2l0.2-0.8l0.6,0.2L562.1,134.2z M564,126.8l-0.2,0.8l-0.6-0.2l0.2-0.8
	L564,126.8z M562.9,130.9l-0.6-0.2l0.2-0.8l0.6,0.2L562.9,130.9z"/>
<linearGradient id="SVGID_2_" gradientUnits="userSpaceOnUse" x1="573.332" y1="190.4624" x2="602.4147" y2="190.4624" gradientTransform="matrix(0.97 0.2433 0.2433 -0.97 -49.0788 170.2405)">
	<stop  offset="0" style="stop-color:#FFFFFF"/>
	<stop  offset="1" style="stop-color:#FFFFFF;stop-opacity:0"/>
</linearGradient>
<path class="st7" d="M582.7,82.5c-1.6-0.4-3.4,0.7-5.4,3.1c-6.8,4.8-18.4,16-23.9,39.4c-5.4,22.7-1.2,37.8,2.4,45.4
	c0.6,3.4,1.8,5.5,3.5,5.9c5.9,1.5,15.9-18.3,22.4-44.3C588.1,106.1,588.6,83.9,582.7,82.5z"/>
<ellipse transform="matrix(0.2433 -0.97 0.97 0.2433 301.3999 630.8355)" class="st4" cx="555" cy="122.3" rx="7.2" ry="3.6"/>
<g>
	<g>
		<path class="st0" d="M30.1,157.2c6.7,26.6,18.5,46.6,26.3,44.6l-21.5,5.4c-7.9,2-19.6-18-26.3-44.6s-5.7-49.8,2.1-51.8l21.5-5.4
			C24.4,107.4,23.4,130.6,30.1,157.2z"/>
	</g>
	<g>
		<path class="st1" d="M28.6,157.6c6.7,26.6,18.5,46.6,26.3,44.6l-21.5,5.4c-7.9,2-19.6-18-26.3-44.6s-5.7-49.8,2.1-51.8l21.5-5.4
			C22.9,107.7,21.9,130.9,28.6,157.6z"/>
	</g>
</g>
<path class="st2" d="M127.2,274.3c0,0-73.7-22.9-98.3-119.1v0.1C5.3,58.9,59.4,3.9,59.4,3.9"/>
<linearGradient id="SVGID_3_" gradientUnits="userSpaceOnUse" x1="715.8957" y1="219.9945" x2="779.0008" y2="219.9945" gradientTransform="matrix(-0.97 0.2433 -0.2433 -0.97 873.1494 170.2405)">
	<stop  offset="0" style="stop-color:#F57C00"/>
	<stop  offset="0.999" style="stop-color:#FF4F24"/>
</linearGradient>
<path class="st8" d="M125.2,131C106.5,56.3,77.6-0.8,60.7,3.4s-15.4,68.2,3.3,143s47.6,131.9,64.5,127.6
	C145.5,269.8,144,205.8,125.2,131z"/>
<path class="st4" d="M127.8,268.2c0-0.2,0.1-0.4,0.3-0.4c0.2,0,0.4,0,0.6-0.1c0.2,0,0.4,0.1,0.4,0.3c0,0.2-0.1,0.4-0.3,0.4
	s-0.5,0.1-0.7,0.1l0,0C128,268.5,127.8,268.3,127.8,268.2z M125.4,268c-0.2-0.1-0.4-0.2-0.6-0.3c-0.2-0.1-0.2-0.3-0.2-0.5
	c0.1-0.2,0.3-0.2,0.5-0.2c0.2,0.1,0.4,0.2,0.6,0.3c0.2,0.1,0.3,0.3,0.2,0.4c-0.1,0.1-0.2,0.2-0.3,0.2C125.5,268,125.5,268,125.4,268
	z M131,267.1c-0.1-0.1-0.1-0.4,0-0.5c0.2-0.1,0.3-0.3,0.5-0.4c0.1-0.1,0.3-0.1,0.5,0c0.1,0.1,0.1,0.3,0,0.5
	c-0.2,0.2-0.3,0.3-0.5,0.5c-0.1,0.1-0.1,0.1-0.2,0.1C131.2,267.2,131.1,267.2,131,267.1z M122.4,266.3c-0.2-0.1-0.4-0.3-0.5-0.4
	s-0.2-0.3-0.1-0.5c0.1-0.1,0.3-0.2,0.5-0.1s0.4,0.3,0.5,0.4c0.2,0.1,0.2,0.3,0.1,0.5c-0.1,0.1-0.2,0.1-0.3,0.1
	C122.5,266.3,122.5,266.3,122.4,266.3z M133.2,264.5c-0.2-0.1-0.2-0.3-0.1-0.5c0.1-0.2,0.2-0.4,0.3-0.6s0.3-0.2,0.5-0.2
	c0.2,0.1,0.2,0.3,0.2,0.5c-0.1,0.2-0.2,0.4-0.3,0.6c-0.1,0.1-0.2,0.2-0.3,0.2C133.3,264.5,133.2,264.5,133.2,264.5z M119.8,264
	c-0.2-0.2-0.3-0.3-0.5-0.5c-0.1-0.1-0.1-0.4,0-0.5s0.4-0.1,0.5,0c0.2,0.2,0.3,0.3,0.5,0.5c0.1,0.1,0.1,0.3,0,0.5
	c-0.1,0.1-0.2,0.1-0.2,0.1C120,264.1,119.9,264.1,119.8,264z M117.5,261.5c-0.1-0.2-0.3-0.4-0.4-0.5s-0.1-0.4,0.1-0.5
	c0.1-0.1,0.4-0.1,0.5,0.1s0.3,0.4,0.4,0.5s0.1,0.4,0,0.5s-0.1,0.1-0.2,0.1C117.7,261.6,117.6,261.5,117.5,261.5z M134.6,261.4
	c-0.2-0.1-0.3-0.3-0.2-0.4c0.1-0.2,0.1-0.4,0.2-0.6c0.1-0.2,0.3-0.3,0.4-0.2c0.2,0.1,0.3,0.2,0.2,0.4c-0.1,0.2-0.1,0.4-0.2,0.7
	c0,0.1-0.2,0.2-0.3,0.2C134.7,261.4,134.6,261.4,134.6,261.4z M115.4,258.7l-0.4-0.6c-0.1-0.2-0.1-0.4,0.1-0.5s0.4-0.1,0.5,0.1
	l0.4,0.5c0.1,0.2,0.1,0.4-0.1,0.5c-0.1,0-0.1,0.1-0.2,0.1C115.6,258.9,115.5,258.8,115.4,258.7z M135.6,258.1
	c-0.2,0-0.3-0.2-0.3-0.4c0.1-0.2,0.1-0.4,0.1-0.7c0-0.2,0.2-0.3,0.4-0.3s0.3,0.2,0.3,0.4c0,0.2-0.1,0.4-0.2,0.7
	C135.9,258.1,135.8,258.2,135.6,258.1C135.6,258.2,135.6,258.2,135.6,258.1z M113.4,255.9c-0.1-0.2-0.3-0.4-0.4-0.6
	c-0.1-0.2-0.1-0.4,0.1-0.5s0.4-0.1,0.5,0.1c0.1,0.2,0.2,0.4,0.4,0.6c0.1,0.2,0.1,0.4-0.1,0.5c-0.1,0-0.1,0.1-0.2,0.1
	C113.6,256.1,113.5,256,113.4,255.9z M136.2,254.8c-0.2,0-0.3-0.2-0.3-0.4s0.1-0.4,0.1-0.7c0-0.2,0.2-0.3,0.4-0.3s0.3,0.2,0.3,0.4
	s-0.1,0.5-0.1,0.7C136.6,254.7,136.5,254.8,136.2,254.8C136.3,254.8,136.3,254.8,136.2,254.8z M111.6,253.1l-0.4-0.6
	c-0.1-0.2,0-0.4,0.1-0.5c0.2-0.1,0.4,0,0.5,0.1l0.4,0.6c0.1,0.2,0,0.4-0.1,0.5c-0.1,0-0.1,0.1-0.2,0.1
	C111.8,253.2,111.7,253.2,111.6,253.1z M136.7,251.4c-0.2,0-0.3-0.2-0.3-0.4l0.1-0.7c0-0.2,0.2-0.3,0.4-0.3s0.3,0.2,0.3,0.4
	l-0.1,0.7C137.1,251.3,136.9,251.4,136.7,251.4L136.7,251.4z M109.8,250.1l-0.3-0.6c-0.1-0.2,0-0.4,0.1-0.5c0.2-0.1,0.4,0,0.5,0.1
	l0.3,0.6c0.1,0.2,0,0.4-0.1,0.5c-0.1,0-0.1,0-0.2,0C110,250.3,109.9,250.2,109.8,250.1z M137,248c-0.2,0-0.3-0.2-0.3-0.4v-0.7
	c0-0.2,0.2-0.3,0.4-0.3s0.3,0.2,0.3,0.4v0.7C137.4,247.9,137.2,248,137,248C137.1,248,137.1,248,137,248z M108.2,247.2l-0.3-0.6
	c-0.1-0.2,0-0.4,0.1-0.5c0.2-0.1,0.4,0,0.5,0.1l0.3,0.6c0.1,0.2,0,0.4-0.1,0.5c-0.1,0-0.1,0-0.2,0
	C108.3,247.3,108.2,247.3,108.2,247.2z M137.3,244.6c-0.2,0-0.3-0.2-0.3-0.4v-0.7c0-0.2,0.2-0.3,0.4-0.3s0.3,0.2,0.3,0.4v0.7
	C137.6,244.5,137.4,244.6,137.3,244.6L137.3,244.6z M106.6,244.2l-0.3-0.6c-0.1-0.2,0-0.4,0.1-0.5c0.2-0.1,0.4,0,0.5,0.1l0.3,0.6
	c0.1,0.2,0,0.4-0.1,0.5c-0.1,0-0.1,0-0.2,0C106.7,244.3,106.6,244.3,106.6,244.2z M105,241.1l-0.3-0.6c-0.1-0.2,0-0.4,0.2-0.5
	s0.4,0,0.5,0.2l0.3,0.6c0.1,0.2,0,0.4-0.2,0.5c0,0-0.1,0-0.2,0C105.2,241.3,105.1,241.2,105,241.1z M137.4,241.2
	c-0.2,0-0.3-0.2-0.3-0.3v-0.7c0-0.2,0.2-0.3,0.3-0.3c0.2,0,0.3,0.2,0.3,0.3v0.7C137.7,241.1,137.6,241.2,137.4,241.2L137.4,241.2z
	 M103.5,238.1l-0.3-0.6c-0.1-0.2,0-0.4,0.2-0.5s0.4,0,0.5,0.2l0.3,0.6c0.1,0.2,0,0.4-0.2,0.5h-0.1
	C103.7,238.2,103.6,238.2,103.5,238.1z M137.1,237.5v-0.7c0-0.2,0.2-0.3,0.3-0.3l0,0c0.2,0,0.3,0.2,0.3,0.3v0.7
	c0,0.2-0.2,0.3-0.3,0.3l0,0C137.2,237.8,137.1,237.7,137.1,237.5z M102,235l-0.3-0.6c-0.1-0.2,0-0.4,0.2-0.5s0.4,0,0.5,0.2l0.3,0.6
	c0.1,0.2,0,0.4-0.2,0.5h-0.1C102.2,235.2,102.1,235.1,102,235z M137,234.1v-0.7c0-0.2,0.1-0.3,0.3-0.4c0.2,0,0.3,0.1,0.4,0.3v0.7
	c0,0.2-0.1,0.3-0.3,0.3l0,0C137.2,234.4,137,234.3,137,234.1z M100.6,231.9l-0.3-0.6c-0.1-0.2,0-0.4,0.2-0.5s0.4,0,0.5,0.2l0.3,0.6
	c0.1,0.2,0,0.4-0.2,0.5H101C100.8,232.1,100.7,232,100.6,231.9z M136.9,230.7V230c0-0.2,0.1-0.3,0.3-0.4c0.2,0,0.3,0.1,0.4,0.3v0.7
	h-0.3L136.9,230.7z M99.2,228.7l-0.3-0.6c-0.1-0.2,0-0.4,0.2-0.4c0.2-0.1,0.4,0,0.4,0.2l0.3,0.6c0.1,0.2,0,0.4-0.2,0.4h-0.1
	C99.4,229,99.3,228.9,99.2,228.7z M136.8,227.3v-0.6c0-0.2,0.1-0.3,0.3-0.4c0.2,0,0.3,0.1,0.4,0.3v0.6l-0.3,0.1L136.8,227.3z
	 M97.9,225.6l-0.3-0.6c-0.1-0.2,0-0.4,0.2-0.4c0.2-0.1,0.4,0,0.4,0.2l0.3,0.6c0.1,0.2,0,0.4-0.2,0.4h-0.1
	C98.1,225.8,97.9,225.7,97.9,225.6z M136.6,223.9v-0.6c0-0.2,0.1-0.4,0.3-0.4s0.4,0.1,0.4,0.3v0.6l-0.3,0.1L136.6,223.9z
	 M96.6,222.5l-0.3-0.6c-0.1-0.2,0-0.4,0.2-0.4c0.2-0.1,0.4,0,0.4,0.2l0.3,0.6c0.1,0.2,0,0.4-0.2,0.4h-0.1
	C96.8,222.7,96.6,222.6,96.6,222.5z M136.3,220.5l-0.1-0.7c0-0.2,0.1-0.4,0.3-0.4s0.4,0.1,0.4,0.3l0.1,0.7c0,0.2-0.1,0.4-0.3,0.4
	l0,0C136.5,220.8,136.3,220.7,136.3,220.5z M95.3,219.3l-0.3-0.6c-0.1-0.2,0-0.4,0.2-0.4c0.2-0.1,0.4,0,0.4,0.2l0.3,0.6
	c0.1,0.2,0,0.4-0.2,0.4h-0.1C95.5,219.5,95.3,219.4,95.3,219.3z M136,217.1l-0.1-0.7c0-0.2,0.1-0.4,0.3-0.4s0.4,0.1,0.4,0.3l0.1,0.7
	c0,0.2-0.1,0.4-0.3,0.4l0,0C136.2,217.4,136.1,217.3,136,217.1z M94,216.1l-0.2-0.6c-0.1-0.2,0-0.4,0.2-0.4c0.2-0.1,0.4,0,0.4,0.2
	l0.2,0.6c0.1,0.2,0,0.4-0.2,0.4h-0.1C94.2,216.4,94.1,216.3,94,216.1z M135.7,213.7l-0.1-0.6c0-0.2,0.1-0.4,0.3-0.4s0.4,0.1,0.4,0.3
	l0.1,0.6l-0.3,0.1L135.7,213.7z M92.8,213l-0.2-0.6c-0.1-0.2,0-0.4,0.2-0.4c0.2-0.1,0.4,0,0.4,0.2l0.2,0.6c0.1,0.2,0,0.4-0.2,0.4
	h-0.1C93,213.2,92.9,213.1,92.8,213z M135.4,210.3l-0.1-0.7c0-0.2,0.1-0.4,0.3-0.4s0.4,0.1,0.4,0.3l0.1,0.7c0,0.2-0.1,0.4-0.3,0.4
	l0,0C135.6,210.7,135.4,210.5,135.4,210.3z M91.6,209.8l-0.2-0.6c-0.1-0.2,0-0.4,0.2-0.4c0.2-0.1,0.4,0,0.4,0.2l0.2,0.6
	c0.1,0.2,0,0.4-0.2,0.4h-0.1C91.8,210,91.7,209.9,91.6,209.8z M135,206.9l-0.1-0.6c0-0.2,0.1-0.4,0.3-0.4s0.4,0.1,0.4,0.3l0.1,0.6
	l-0.3,0.1L135,206.9z M90.4,206.6l-0.2-0.6c-0.1-0.2,0-0.4,0.2-0.4c0.2-0.1,0.4,0,0.4,0.2l0.2,0.6c0.1,0.2,0,0.4-0.2,0.4h-0.1
	C90.6,206.8,90.5,206.7,90.4,206.6z M134.6,203.6l-0.1-0.7c0-0.2,0.1-0.4,0.3-0.4s0.4,0.1,0.4,0.3l0.1,0.7c0,0.2-0.1,0.4-0.3,0.4
	l0,0C134.8,203.9,134.6,203.8,134.6,203.6z M89.3,203.4l-0.2-0.6c-0.1-0.2,0-0.4,0.2-0.4c0.2-0.1,0.4,0,0.4,0.2l0.2,0.6
	c0.1,0.2,0,0.4-0.2,0.4h-0.1C89.4,203.6,89.3,203.5,89.3,203.4z M134.2,200.2l-0.1-0.7c0-0.2,0.1-0.4,0.3-0.4s0.4,0.1,0.4,0.3
	l0.1,0.7c0,0.2-0.1,0.4-0.3,0.4l0,0C134.3,200.5,134.2,200.4,134.2,200.2z M88.1,200.2l-0.2-0.6c-0.1-0.2,0-0.4,0.2-0.4
	c0.2-0.1,0.4,0,0.4,0.2l0.2,0.6c0.1,0.2,0,0.4-0.2,0.4h-0.1C88.3,200.4,88.2,200.3,88.1,200.2z M87,196.9l-0.2-0.6
	c-0.1-0.2,0-0.4,0.2-0.4c0.2-0.1,0.4,0,0.4,0.2l0.2,0.6c0.1,0.2,0,0.4-0.2,0.4h-0.1C87.2,197.2,87.1,197.1,87,196.9z M133.7,196.8
	l-0.1-0.6c0-0.2,0.1-0.4,0.3-0.4s0.4,0.1,0.4,0.3l0.1,0.6l-0.3,0.1L133.7,196.8z M85.9,193.7l-0.2-0.6c-0.1-0.2,0-0.4,0.2-0.4
	c0.2-0.1,0.4,0,0.4,0.2l0.2,0.6c0.1,0.2,0,0.4-0.2,0.4h-0.1C86.1,193.9,86,193.8,85.9,193.7z M133.2,193.5l-0.1-0.7
	c0-0.2,0.1-0.4,0.3-0.4s0.4,0.1,0.4,0.3l0.1,0.7c0,0.2-0.1,0.4-0.3,0.4c0,0,0,0-0.1,0C133.4,193.8,133.2,193.6,133.2,193.5z
	 M84.9,190.5l-0.2-0.6c-0.1-0.2,0-0.4,0.2-0.4c0.2-0.1,0.4,0,0.4,0.2l0.2,0.6c0.1,0.2,0,0.4-0.2,0.4h-0.1
	C85,190.7,84.9,190.6,84.9,190.5z M132.7,190.1l-0.1-0.7c0-0.2,0.1-0.4,0.3-0.4s0.4,0.1,0.4,0.3l0.1,0.7c0,0.2-0.1,0.4-0.3,0.4
	c0,0,0,0-0.1,0C132.9,190.4,132.7,190.3,132.7,190.1z M83.8,187.2l-0.2-0.6c-0.1-0.2,0-0.4,0.2-0.4c0.2-0.1,0.4,0,0.4,0.2l0.2,0.6
	c0.1,0.2,0,0.4-0.2,0.4h-0.1C84,187.5,83.8,187.4,83.8,187.2z M132.2,186.7l-0.1-0.6c0-0.2,0.1-0.4,0.3-0.4s0.4,0.1,0.4,0.3l0.1,0.6
	l-0.3,0.1L132.2,186.7z M82.8,184l-0.2-0.7c-0.1-0.2,0-0.4,0.2-0.4c0.2-0.1,0.4,0,0.4,0.2l0.2,0.6c0.1,0.2,0,0.4-0.2,0.4h-0.1
	C82.9,184.2,82.8,184.1,82.8,184z M131.5,182.7c0-0.2,0.1-0.4,0.3-0.4s0.4,0.1,0.4,0.3l0.1,0.6l-0.3,0.1h-0.3L131.5,182.7z
	 M132,183.3L132,183.3L132,183.3z M81.7,180.7l-0.2-0.7c-0.1-0.2,0-0.4,0.2-0.4c0.2-0.1,0.4,0,0.4,0.2l0.2,0.6
	c0.1,0.2,0,0.4-0.2,0.4H82C81.9,181,81.8,180.9,81.7,180.7z M130.9,179.4c0-0.2,0.1-0.4,0.3-0.4s0.4,0.1,0.4,0.3l0.1,0.6l-0.3,0.1
	h-0.3L130.9,179.4z M131.4,180L131.4,180L131.4,180z M80.7,177.5l-0.2-0.7c-0.1-0.2,0-0.4,0.2-0.4c0.2-0.1,0.4,0,0.4,0.2l0.2,0.7
	c0.1,0.2,0,0.4-0.2,0.4H81C80.9,177.7,80.8,177.6,80.7,177.5z M130.4,176c0-0.2,0.1-0.4,0.3-0.4s0.4,0.1,0.4,0.3l0.1,0.6l-0.3,0.1
	h-0.3L130.4,176z M130.8,176.6L130.8,176.6L130.8,176.6z M79.8,174.2l-0.2-0.7c-0.1-0.2,0-0.4,0.2-0.4c0.2-0.1,0.4,0.1,0.4,0.2
	l0.2,0.7c0.1,0.2-0.1,0.4-0.2,0.4h-0.1C79.9,174.5,79.8,174.4,79.8,174.2z M129.9,173.3l-0.1-0.7c0-0.2,0.1-0.4,0.3-0.4
	s0.4,0.1,0.4,0.3l0.1,0.7c0,0.2-0.1,0.4-0.3,0.4c0,0,0,0-0.1,0C130,173.6,129.9,173.5,129.9,173.3z M78.8,170.9l-0.2-0.7
	c-0.1-0.2,0.1-0.4,0.2-0.4c0.2-0.1,0.4,0.1,0.4,0.2l0.2,0.7c0.1,0.2-0.1,0.4-0.2,0.4h-0.1C79,171.2,78.8,171.1,78.8,170.9z
	 M129.1,169.3c0-0.2,0.1-0.4,0.3-0.4s0.4,0.1,0.4,0.3l0.1,0.6l-0.3,0.1h-0.3L129.1,169.3z M129.6,169.9L129.6,169.9L129.6,169.9z
	 M77.9,167.7l-0.2-0.7c-0.1-0.2,0.1-0.4,0.2-0.4c0.2-0.1,0.4,0.1,0.4,0.2l0.2,0.7c0.1,0.2-0.1,0.4-0.2,0.4h-0.1
	C78,167.9,77.9,167.8,77.9,167.7z M128.4,166c0-0.2,0.1-0.4,0.3-0.4s0.4,0.1,0.4,0.3l0.1,0.6l-0.3,0.1h-0.3L128.4,166z M128.9,166.6
	L128.9,166.6L128.9,166.6z M76.9,164.4l-0.2-0.7c-0.1-0.2,0.1-0.4,0.2-0.4c0.2-0.1,0.4,0.1,0.4,0.2l0.2,0.7c0.1,0.2-0.1,0.4-0.2,0.4
	h-0.1C77.1,164.6,77,164.5,76.9,164.4z M127.9,163.3l-0.1-0.7c0-0.2,0.1-0.4,0.3-0.4c0.2,0,0.4,0.1,0.4,0.3l0.1,0.7
	c0,0.2-0.1,0.4-0.3,0.4c0,0,0,0-0.1,0C128.1,163.6,127.9,163.5,127.9,163.3z M76,161.1l-0.2-0.7c-0.1-0.2,0.1-0.4,0.2-0.4
	c0.2,0,0.4,0.1,0.4,0.2l0.2,0.7c0.1,0.2-0.1,0.4-0.2,0.4h-0.1C76.2,161.4,76.1,161.3,76,161.1z M127.2,160l-0.1-0.7
	c0-0.2,0.1-0.4,0.3-0.4c0.2,0,0.4,0.1,0.4,0.3l0.1,0.7c0,0.2-0.1,0.4-0.3,0.4c0,0,0,0-0.1,0C127.4,160.2,127.3,160.1,127.2,160z
	 M75.1,157.8l-0.2-0.7c0-0.2,0.1-0.4,0.2-0.4c0.2,0,0.4,0.1,0.4,0.2l0.2,0.7c0,0.2-0.1,0.4-0.2,0.4h-0.1
	C75.3,158.1,75.2,158,75.1,157.8z M126.4,156c0-0.2,0.1-0.4,0.3-0.4c0.2,0,0.4,0.1,0.4,0.3l0.1,0.6l-0.3,0.1h-0.3L126.4,156z
	 M126.8,156.6L126.8,156.6L126.8,156.6z M74.2,154.5l-0.2-0.7c0-0.2,0.1-0.4,0.2-0.4c0.2,0,0.4,0.1,0.4,0.2l0.2,0.7
	c0,0.2-0.1,0.4-0.2,0.4h-0.1C74.4,154.8,74.3,154.7,74.2,154.5z M125.8,153.3l-0.1-0.7c0-0.2,0.1-0.4,0.3-0.4c0.2,0,0.4,0.1,0.4,0.3
	l0.1,0.7c0,0.2-0.1,0.4-0.3,0.4c0,0,0,0-0.1,0C126,153.6,125.8,153.5,125.8,153.3z M73.4,151.2l-0.2-0.7c0-0.2,0.1-0.4,0.2-0.4
	c0.2,0,0.4,0.1,0.4,0.2L74,151c0,0.2-0.1,0.4-0.2,0.4h-0.1C73.6,151.5,73.4,151.4,73.4,151.2z M125.1,150l-0.2-0.7
	c0-0.2,0.1-0.4,0.3-0.4c0.2,0,0.4,0.1,0.4,0.3l0.2,0.7c0,0.2-0.1,0.4-0.3,0.4h-0.1C125.2,150.3,125.1,150.2,125.1,150z M72.5,147.9
	l-0.2-0.7c0-0.2,0.1-0.4,0.2-0.4c0.2,0,0.4,0.1,0.4,0.2l0.2,0.7c0,0.2-0.1,0.4-0.2,0.4h-0.1C72.7,148.2,72.6,148.1,72.5,147.9z
	 M124.2,146c0-0.2,0.1-0.4,0.3-0.4c0.2,0,0.4,0.1,0.4,0.3l0.1,0.6l-0.3,0.1h-0.3L124.2,146z M124.6,146.6L124.6,146.6L124.6,146.6z
	 M71.7,144.6l-0.2-0.7c0-0.2,0.1-0.4,0.2-0.4c0.2,0,0.4,0.1,0.4,0.2l0.2,0.7c0,0.2-0.1,0.4-0.2,0.4H72
	C71.9,144.9,71.7,144.8,71.7,144.6z M123.5,143.4l-0.2-0.7c0-0.2,0.1-0.4,0.3-0.4c0.2,0,0.4,0.1,0.4,0.3l0.2,0.7
	c0,0.2-0.1,0.4-0.3,0.4h-0.1C123.7,143.6,123.6,143.5,123.5,143.4z M70.9,141.3l-0.2-0.7c0-0.2,0.1-0.4,0.3-0.4
	c0.2,0,0.4,0.1,0.4,0.3l0.2,0.7c0,0.2-0.1,0.4-0.3,0.4h-0.1C71.1,141.6,70.9,141.5,70.9,141.3z M122.7,140l-0.2-0.7
	c0-0.2,0.1-0.4,0.3-0.4c0.2,0,0.4,0.1,0.4,0.3l0.2,0.7c0,0.2-0.1,0.4-0.3,0.4H123C122.9,140.3,122.8,140.2,122.7,140z M70.1,138
	l-0.2-0.7c0-0.2,0.1-0.4,0.3-0.4c0.2,0,0.4,0.1,0.4,0.3l0.2,0.7c0,0.2-0.1,0.4-0.3,0.4h-0.1C70.3,138.3,70.1,138.2,70.1,138z
	 M121.9,136.7l-0.2-0.7c0-0.2,0.1-0.4,0.2-0.4c0.2,0,0.4,0.1,0.4,0.2l0.2,0.7c0,0.2-0.1,0.4-0.3,0.4h-0.1
	C122.1,137,122,136.9,121.9,136.7z M69.3,134.7l-0.2-0.7c0-0.2,0.1-0.4,0.3-0.4c0.2,0,0.4,0.1,0.4,0.3l0.2,0.7
	c0,0.2-0.1,0.4-0.3,0.4h-0.1C69.5,135,69.3,134.8,69.3,134.7z M121.1,133.4l-0.2-0.8c0-0.2,0.1-0.4,0.2-0.4c0.2,0,0.4,0.1,0.4,0.2
	l0.2,0.8c0,0.2-0.1,0.4-0.2,0.4h-0.1C121.3,133.7,121.2,133.6,121.1,133.4z M68.5,131.4l-0.2-0.7c0-0.2,0.1-0.4,0.3-0.4
	c0.2,0,0.4,0.1,0.4,0.3l0.2,0.7c0,0.2-0.1,0.4-0.3,0.4h-0.1C68.7,131.6,68.6,131.5,68.5,131.4z M120.3,130l-0.2-0.7
	c0-0.2,0.1-0.4,0.2-0.4c0.2,0,0.4,0.1,0.4,0.2l0.2,0.7c0,0.2-0.1,0.4-0.2,0.4h-0.1C120.4,130.3,120.3,130.2,120.3,130z M67.8,128
	l-0.1-0.7c0-0.2,0.1-0.4,0.3-0.4c0.2,0,0.4,0.1,0.4,0.3l0.1,0.7c0,0.2-0.1,0.4-0.3,0.4h-0.1C68,128.3,67.8,128.2,67.8,128z
	 M119.4,126.7l-0.2-0.7c0-0.2,0.1-0.4,0.2-0.4c0.2,0,0.4,0.1,0.4,0.2l0.2,0.7c0,0.2-0.1,0.4-0.2,0.4h-0.1
	C119.6,127,119.5,126.9,119.4,126.7z M67.1,124.7L67,124c0-0.2,0.1-0.4,0.3-0.4c0.2,0,0.4,0.1,0.4,0.3l0.1,0.7
	c0,0.2-0.1,0.4-0.3,0.4c0,0,0,0-0.1,0C67.2,125,67.1,124.9,67.1,124.7z M118.5,123.5l-0.2-0.7c0-0.2,0.1-0.4,0.2-0.4
	c0.2,0,0.4,0.1,0.4,0.2l0.2,0.7c0,0.2-0.1,0.4-0.2,0.4h-0.1C118.7,123.7,118.6,123.6,118.5,123.5z M66.3,121.3l-0.1-0.6
	c0-0.2,0.1-0.4,0.3-0.4c0.2,0,0.4,0.1,0.4,0.3l0.1,0.7c0,0.2-0.1,0.3-0.3,0.4c0,0,0,0-0.1,0C66.5,121.6,66.4,121.5,66.3,121.3z
	 M117.7,120.2l-0.2-0.7c-0.1-0.2,0.1-0.4,0.2-0.4c0.2-0.1,0.4,0.1,0.4,0.2l0.2,0.7c0,0.2-0.1,0.4-0.2,0.4H118
	C117.8,120.4,117.7,120.3,117.7,120.2z M65.6,118.1l-0.1-0.7c0-0.2,0.1-0.4,0.3-0.4c0.2,0,0.4,0.1,0.4,0.3l0.1,0.7
	c0,0.2-0.1,0.4-0.3,0.4c0,0,0,0-0.1,0C65.8,118.3,65.7,118.2,65.6,118.1z M116.8,116.9l-0.2-0.7c-0.1-0.2,0.1-0.4,0.2-0.4
	c0.2-0.1,0.4,0.1,0.4,0.2l0.2,0.7c0.1,0.2-0.1,0.4-0.2,0.4h-0.1C116.9,117.1,116.8,117,116.8,116.9z M65,114.7l-0.1-0.7
	c0-0.2,0.1-0.4,0.3-0.4c0.2,0,0.4,0.1,0.4,0.3l0.1,0.7c0,0.2-0.1,0.4-0.3,0.4c0,0,0,0-0.1,0C65.1,115,65,114.9,65,114.7z
	 M115.8,113.6l-0.2-0.7c-0.1-0.2,0.1-0.4,0.2-0.4c0.2-0.1,0.4,0.1,0.4,0.2l0.2,0.7c0.1,0.2-0.1,0.4-0.2,0.4h-0.1
	C116,113.9,115.9,113.8,115.8,113.6z M64.3,111.4l-0.1-0.7c0-0.2,0.1-0.4,0.3-0.4c0.2,0,0.4,0.1,0.4,0.3l0.1,0.7
	c0,0.2-0.1,0.4-0.3,0.4c0,0,0,0-0.1,0C64.5,111.6,64.3,111.5,64.3,111.4z M114.9,110.3l-0.2-0.7c-0.1-0.2,0.1-0.4,0.2-0.4
	c0.2-0.1,0.4,0.1,0.4,0.2l0.2,0.7c0.1,0.2-0.1,0.4-0.2,0.4h-0.1C115.1,110.6,115,110.5,114.9,110.3z M63.6,108l-0.1-0.6l0.3-0.1h0.3
	l0.1,0.6c0,0.2-0.1,0.4-0.3,0.4c0,0,0,0-0.1,0C63.8,108.3,63.7,108.2,63.6,108z M114,107.1l-0.2-0.7c-0.1-0.2,0.1-0.4,0.2-0.4
	c0.2-0.1,0.4,0.1,0.4,0.2l0.2,0.7c0.1,0.2-0.1,0.4-0.2,0.4h-0.1C114.1,107.3,114,107.2,114,107.1z M63,104.7l-0.1-0.6l0.3-0.1h0.3
	l0.1,0.6c0,0.2-0.1,0.4-0.3,0.4c0,0,0,0-0.1,0C63.2,105,63,104.8,63,104.7z M113,103.8l-0.2-0.7c-0.1-0.2,0-0.4,0.2-0.4
	c0.2-0.1,0.4,0,0.4,0.2l0.2,0.7c0.1,0.2,0,0.4-0.2,0.4h-0.1C113.2,104,113,103.9,113,103.8z M62.4,101.3l-0.1-0.6
	c0-0.2,0.1-0.4,0.3-0.4s0.4,0.1,0.4,0.3l0.1,0.7c0,0.2-0.1,0.3-0.3,0.4c0,0,0,0-0.1,0C62.6,101.6,62.4,101.4,62.4,101.3z M112,100.5
	l-0.2-0.7c-0.1-0.2,0-0.4,0.2-0.4c0.2-0.1,0.4,0,0.4,0.2l0.2,0.7c0.1,0.2,0,0.4-0.2,0.4h-0.1C112.2,100.8,112.1,100.7,112,100.5z
	 M61.8,98l-0.1-0.6l0.3-0.1h0.3l0.1,0.6c0,0.2-0.1,0.4-0.3,0.4c0,0,0,0-0.1,0C62,98.3,61.9,98.1,61.8,98z M111,97.3l-0.2-0.6
	c-0.1-0.2,0-0.4,0.2-0.4c0.2-0.1,0.4,0,0.4,0.2l0.2,0.7c0.1,0.2,0,0.4-0.2,0.4h-0.1C111.2,97.5,111.1,97.4,111,97.3z M61.3,94.6
	L61.2,94l0.3-0.1h0.3l0.1,0.6c0,0.2-0.1,0.4-0.3,0.4c0,0,0,0-0.1,0S61.3,94.8,61.3,94.6z M110,94l-0.2-0.6c-0.1-0.2,0-0.4,0.2-0.4
	c0.2-0.1,0.4,0,0.4,0.2l0.2,0.6c0.1,0.2,0,0.4-0.2,0.4h-0.1C110.2,94.3,110,94.2,110,94z M60.7,91.2l-0.1-0.6l0.3-0.1h0.3l0.1,0.6
	c0,0.2-0.1,0.4-0.3,0.4c0,0,0,0-0.1,0C60.9,91.5,60.7,91.4,60.7,91.2z M108.9,90.8l-0.2-0.6c-0.1-0.2,0-0.4,0.2-0.4
	c0.2-0.1,0.4,0,0.4,0.2l0.2,0.6c0.1,0.2,0,0.4-0.2,0.4h-0.1C109.1,91,109,90.9,108.9,90.8z M60.2,87.9l-0.1-0.7
	c0-0.2,0.1-0.4,0.3-0.4s0.4,0.1,0.4,0.3l0.1,0.7c0,0.2-0.1,0.4-0.3,0.4c0,0,0,0-0.1,0C60.4,88.2,60.2,88,60.2,87.9z M107.9,87.6
	l-0.2-0.6c-0.1-0.2,0-0.4,0.2-0.4c0.2-0.1,0.4,0,0.4,0.2l0.2,0.6c0.1,0.2,0,0.4-0.2,0.4h-0.1C108.1,87.8,107.9,87.7,107.9,87.6z
	 M59.7,84.5l-0.1-0.6c0-0.2,0.1-0.4,0.3-0.4s0.4,0.1,0.4,0.3l0.1,0.7c0,0.2-0.1,0.3-0.3,0.4l0,0C59.9,84.8,59.7,84.6,59.7,84.5z
	 M106.8,84.3l-0.2-0.6c-0.1-0.2,0-0.4,0.2-0.4c0.2-0.1,0.4,0,0.4,0.2l0.2,0.6c0.1,0.2,0,0.4-0.2,0.4h-0.1
	C107,84.6,106.9,84.5,106.8,84.3z M59.2,81.1l-0.1-0.7c0-0.2,0.1-0.4,0.3-0.4s0.4,0.1,0.4,0.3l0.1,0.7c0,0.2-0.1,0.4-0.3,0.4l0,0
	C59.4,81.4,59.2,81.3,59.2,81.1z M105.7,81.1l-0.2-0.6c-0.1-0.2,0-0.4,0.2-0.4c0.2-0.1,0.4,0,0.4,0.2l0.2,0.6c0.1,0.2,0,0.4-0.2,0.4
	H106C105.9,81.3,105.8,81.2,105.7,81.1z M104.6,77.9l-0.2-0.6c-0.1-0.2,0-0.4,0.2-0.4c0.2-0.1,0.4,0,0.4,0.2l0.2,0.6
	c0.1,0.2,0,0.4-0.2,0.4h-0.1C104.8,78.1,104.6,78,104.6,77.9z M58.8,77.8l-0.1-0.7c0-0.2,0.1-0.4,0.3-0.4s0.4,0.1,0.4,0.3l0.1,0.7
	c0,0.2-0.1,0.4-0.3,0.4l0,0C58.9,78,58.8,77.9,58.8,77.8z M103.5,74.7l-0.2-0.6c-0.1-0.2,0-0.4,0.2-0.4c0.2-0.1,0.4,0,0.4,0.2
	l0.2,0.6c0.1,0.2,0,0.4-0.2,0.4h-0.1C103.6,74.9,103.5,74.8,103.5,74.7z M58.3,74.4l-0.1-0.7c0-0.2,0.1-0.4,0.3-0.4s0.4,0.1,0.4,0.3
	l0.1,0.7c0,0.2-0.1,0.4-0.3,0.4l0,0C58.5,74.7,58.3,74.5,58.3,74.4z M102.3,71.5l-0.2-0.6c-0.1-0.2,0-0.4,0.2-0.4
	c0.2-0.1,0.4,0,0.4,0.2l0.2,0.6c0.1,0.2,0,0.4-0.2,0.4h-0.1C102.5,71.7,102.3,71.6,102.3,71.5z M57.9,71l-0.1-0.7
	c0-0.2,0.1-0.4,0.3-0.4s0.4,0.1,0.4,0.3l0.1,0.7c0,0.2-0.1,0.4-0.3,0.4l0,0C58.1,71.3,57.9,71.2,57.9,71z M101.1,68.3l-0.2-0.6
	c-0.1-0.2,0-0.4,0.2-0.4c0.2-0.1,0.4,0,0.4,0.2l0.2,0.6c0.1,0.2,0,0.4-0.2,0.4h-0.1C101.3,68.5,101.2,68.4,101.1,68.3z M57.6,67.6
	l-0.1-0.7c0-0.2,0.1-0.4,0.3-0.4s0.4,0.1,0.4,0.3l0.1,0.7c0,0.2-0.1,0.4-0.3,0.4l0,0C57.7,67.9,57.6,67.8,57.6,67.6z M99.9,65.1
	l-0.2-0.6c-0.1-0.2,0-0.4,0.2-0.4c0.2-0.1,0.4,0,0.4,0.2l0.2,0.6c0.1,0.2,0,0.4-0.2,0.4h-0.1C100.1,65.3,99.9,65.3,99.9,65.1z
	 M57.2,64.1l-0.1-0.6c0-0.2,0.1-0.4,0.3-0.4s0.4,0.1,0.4,0.3l0.1,0.7c0,0.2-0.1,0.3-0.3,0.3l0,0C57.4,64.5,57.2,64.3,57.2,64.1z
	 M98.7,61.9l-0.3-0.6c-0.1-0.2,0-0.4,0.2-0.4c0.2-0.1,0.4,0,0.4,0.2l0.3,0.6c0.1,0.2,0,0.4-0.2,0.4H99
	C98.8,62.2,98.7,62.1,98.7,61.9z M56.9,60.8l-0.1-0.6l0.3-0.1h0.3l0.1,0.6c0,0.2-0.1,0.4-0.3,0.4l0,0C57.1,61.1,56.9,61,56.9,60.8z
	 M97.4,58.8l-0.3-0.6c-0.1-0.2,0-0.4,0.2-0.4c0.2-0.1,0.4,0,0.4,0.2l0.3,0.6c0.1,0.2,0,0.4-0.2,0.4h-0.1
	C97.6,59,97.5,58.9,97.4,58.8z M56.6,57.4v-0.6l0.3-0.1h0.3v0.6c0,0.2-0.1,0.4-0.3,0.4l0,0C56.8,57.7,56.7,57.6,56.6,57.4z
	 M96.1,55.6L95.8,55c-0.1-0.2,0-0.4,0.2-0.4c0.2-0.1,0.4,0,0.4,0.2l0.3,0.6c0.1,0.2,0,0.4-0.2,0.4h-0.1
	C96.3,55.8,96.2,55.8,96.1,55.6z M56.4,54v-0.7h0.3H57V54c0,0.2-0.1,0.4-0.3,0.4l0,0C56.6,54.3,56.4,54.2,56.4,54z M94.8,52.5
	l-0.3-0.6c-0.1-0.2,0-0.4,0.2-0.4c0.2-0.1,0.4,0,0.4,0.2l0.3,0.6c0.1,0.2,0,0.4-0.2,0.4h-0.1C95,52.7,94.8,52.6,94.8,52.5z
	 M56.2,50.6v-0.7c0-0.2,0.1-0.3,0.3-0.4c0.2,0,0.3,0.1,0.4,0.3v0.7c0,0.2-0.1,0.3-0.3,0.4l0,0C56.4,50.9,56.2,50.8,56.2,50.6z
	 M93.4,49.4l-0.3-0.6c-0.1-0.2,0-0.4,0.2-0.5s0.4,0,0.5,0.2l0.3,0.6c0.1,0.2,0,0.4-0.2,0.5h-0.1C93.6,49.6,93.5,49.5,93.4,49.4z
	 M56.1,47.2v-0.7c0-0.2,0.1-0.3,0.3-0.4c0.2,0,0.3,0.1,0.4,0.3v0.7c0,0.2-0.1,0.3-0.3,0.3l0,0C56.3,47.5,56.1,47.4,56.1,47.2z
	 M92,46.3l-0.3-0.6c-0.1-0.2,0-0.4,0.2-0.5s0.4,0,0.5,0.2l0.3,0.6c0.1,0.2,0,0.4-0.2,0.5h-0.1C92.2,46.5,92.1,46.4,92,46.3z
	 M56,43.8v-0.7c0-0.2,0.1-0.3,0.3-0.3s0.3,0.1,0.3,0.3v0.7c0,0.2-0.1,0.3-0.3,0.3l0,0C56.2,44.1,56,44,56,43.8z M90.6,43.2l-0.3-0.6
	c-0.1-0.2,0-0.4,0.2-0.5s0.4,0,0.5,0.2l0.3,0.6c0.1,0.2,0,0.4-0.2,0.5H91C90.8,43.4,90.7,43.3,90.6,43.2z M56.3,40.7
	c-0.2,0-0.3-0.2-0.3-0.3v-0.7c0-0.2,0.2-0.3,0.3-0.3c0.2,0,0.3,0.2,0.3,0.3v0.7C56.7,40.6,56.5,40.7,56.3,40.7L56.3,40.7z
	 M89.1,40.1l-0.3-0.6c-0.1-0.2,0-0.4,0.2-0.5s0.4,0,0.5,0.2l0.3,0.6c0.1,0.2,0,0.4-0.2,0.5c0,0-0.1,0-0.2,0S89.2,40.2,89.1,40.1z
	 M56.4,37.3c-0.2,0-0.3-0.2-0.3-0.4v-0.7c0-0.2,0.2-0.3,0.4-0.3s0.3,0.2,0.3,0.4V37C56.7,37.2,56.6,37.3,56.4,37.3L56.4,37.3z
	 M87.6,37.1l-0.3-0.6c-0.1-0.2,0-0.4,0.1-0.5c0.2-0.1,0.4,0,0.5,0.1l0.3,0.6c0.1,0.2,0,0.4-0.1,0.5c0,0-0.1,0-0.2,0
	C87.8,37.3,87.7,37.2,87.6,37.1z M86.1,34l-0.3-0.6c-0.1-0.2,0-0.4,0.1-0.5c0.2-0.1,0.4,0,0.5,0.1l0.3,0.6c0.1,0.2,0,0.4-0.1,0.5
	c-0.1,0-0.1,0-0.2,0C86.2,34.2,86.1,34.2,86.1,34z M56.5,33.9c-0.2,0-0.3-0.2-0.3-0.4v-0.7c0-0.2,0.2-0.3,0.4-0.3s0.3,0.2,0.3,0.4
	v0.7C56.8,33.8,56.7,33.9,56.5,33.9L56.5,33.9z M84.4,31.1l-0.3-0.6c-0.1-0.2,0-0.4,0.1-0.5c0.2-0.1,0.4,0,0.5,0.1l0.3,0.6
	c0.1,0.2,0,0.4-0.1,0.5c-0.1,0-0.1,0-0.2,0C84.6,31.2,84.5,31.2,84.4,31.1z M56.7,30.5c-0.2,0-0.3-0.2-0.3-0.4c0-0.2,0-0.5,0.1-0.7
	c0-0.2,0.2-0.3,0.4-0.3s0.3,0.2,0.3,0.4c0,0.2,0,0.4-0.1,0.7C57.1,30.4,56.9,30.5,56.7,30.5L56.7,30.5z M82.8,28.1l-0.3-0.6
	c-0.1-0.2,0-0.4,0.1-0.5c0.2-0.1,0.4,0,0.5,0.1l0.3,0.6c0.1,0.2,0,0.4-0.1,0.5c-0.1,0-0.1,0-0.2,0C82.9,28.3,82.8,28.2,82.8,28.1z
	 M57,27.1c-0.2,0-0.3-0.2-0.3-0.4c0-0.2,0.1-0.5,0.1-0.7s0.2-0.3,0.4-0.3s0.3,0.2,0.3,0.4c0,0.2-0.1,0.4-0.1,0.7
	C57.4,27,57.2,27.1,57,27.1C57.1,27.1,57.1,27.1,57,27.1z M81,25.2l-0.4-0.6c-0.1-0.2-0.1-0.4,0.1-0.5s0.4-0.1,0.5,0.1l0.4,0.6
	c0.1,0.2,0.1,0.4-0.1,0.5c-0.1,0-0.1,0.1-0.2,0.1C81.2,25.4,81,25.3,81,25.2z M57.5,23.7c-0.2,0-0.3-0.2-0.3-0.4
	c0-0.2,0.1-0.5,0.1-0.7s0.2-0.3,0.4-0.3s0.3,0.2,0.3,0.4c0,0.2-0.1,0.4-0.1,0.7C57.9,23.6,57.7,23.7,57.5,23.7
	C57.6,23.7,57.5,23.7,57.5,23.7z M79.1,22.4l-0.4-0.6c-0.1-0.2-0.1-0.4,0.1-0.5s0.4-0.1,0.5,0.1s0.3,0.4,0.4,0.6s0.1,0.4-0.1,0.5
	c-0.1,0-0.1,0.1-0.2,0.1C79.3,22.5,79.2,22.5,79.1,22.4z M58.2,20.4c-0.2,0-0.3-0.2-0.2-0.4c0.1-0.2,0.1-0.4,0.2-0.7
	c0.1-0.2,0.2-0.3,0.4-0.2c0.2,0.1,0.3,0.2,0.2,0.4c-0.1,0.2-0.1,0.4-0.2,0.7C58.6,20.3,58.5,20.4,58.2,20.4
	C58.3,20.4,58.2,20.4,58.2,20.4z M77.1,19.6c-0.1-0.2-0.3-0.4-0.4-0.5s-0.1-0.4,0.1-0.5c0.1-0.1,0.4-0.1,0.5,0.1s0.3,0.4,0.4,0.5
	c0.1,0.2,0.1,0.4-0.1,0.5c-0.1,0-0.1,0.1-0.2,0.1C77.3,19.8,77.2,19.7,77.1,19.6z M59.2,17.2c-0.2-0.1-0.3-0.3-0.2-0.4
	c0.1-0.2,0.2-0.4,0.3-0.6s0.3-0.3,0.4-0.2c0.2,0.1,0.3,0.3,0.2,0.4c-0.1,0.2-0.2,0.4-0.3,0.6c-0.1,0.1-0.2,0.2-0.3,0.2
	C59.3,17.2,59.3,17.2,59.2,17.2z M75,17c-0.2-0.2-0.3-0.3-0.4-0.5c-0.1-0.1-0.1-0.4,0-0.5s0.4-0.1,0.5,0c0.2,0.2,0.3,0.3,0.5,0.5
	c0.1,0.1,0.1,0.4,0,0.5s-0.1,0.1-0.2,0.1C75.2,17.1,75.1,17.1,75,17z M72.7,14.6c-0.2-0.2-0.3-0.3-0.5-0.5c-0.1-0.1-0.2-0.3,0-0.5
	c0.1-0.1,0.3-0.2,0.5,0c0.2,0.1,0.3,0.3,0.5,0.5c0.1,0.1,0.1,0.3,0,0.5c-0.1,0.1-0.2,0.1-0.2,0.1C72.8,14.7,72.7,14.6,72.7,14.6z
	 M60.7,14.1c-0.2-0.1-0.2-0.3-0.1-0.5c0.1-0.2,0.3-0.4,0.4-0.6c0.1-0.2,0.3-0.2,0.5-0.1c0.2,0.1,0.2,0.3,0.1,0.5
	c-0.1,0.2-0.3,0.3-0.4,0.5c-0.1,0.1-0.2,0.2-0.3,0.2C60.8,14.1,60.7,14.1,60.7,14.1z M70.1,12.5c-0.2-0.1-0.4-0.2-0.6-0.3
	s-0.2-0.3-0.1-0.5s0.3-0.2,0.5-0.1c0.2,0.1,0.4,0.2,0.6,0.4c0.2,0.1,0.2,0.3,0.1,0.5c-0.1,0.1-0.2,0.2-0.3,0.2
	C70.2,12.6,70.1,12.5,70.1,12.5z M63,11.6c-0.1-0.2,0-0.4,0.1-0.5c0.2-0.1,0.4-0.2,0.6-0.3c0.2-0.1,0.4,0,0.4,0.2
	c0.1,0.2,0,0.4-0.2,0.4c-0.2,0.1-0.4,0.2-0.6,0.3C63.2,11.7,63.2,11.7,63,11.6C63.1,11.8,63,11.7,63,11.6z M67.1,11.2
	c-0.2,0-0.4-0.1-0.6-0.1s-0.3-0.2-0.3-0.4s0.2-0.3,0.4-0.3c0.2,0,0.5,0.1,0.7,0.1s0.3,0.2,0.3,0.4C67.5,11.1,67.3,11.2,67.1,11.2
	C67.2,11.2,67.1,11.2,67.1,11.2z"/>
<ellipse transform="matrix(0.97 -0.2432 0.2432 0.97 -29.8618 30.9236)" class="st5" cx="110.3" cy="136.4" rx="25.4" ry="119.3"/>
<path class="st6" d="M85.2,141.9l0.6-0.2l0.2,0.7v0.1l-0.6,0.1L85.2,141.9z M86.6,145l0.2,0.8l-0.6,0.2l-0.2-0.8L86.6,145z
	 M84.4,138.6l0.6-0.2l0.2,0.8l-0.6,0.2L84.4,138.6z M87.5,148.3l0.2,0.8l-0.6,0.2l-0.2-0.8L87.5,148.3z M83.6,135.3l0.6-0.2l0.2,0.8
	l-0.6,0.2L83.6,135.3z M88.4,151.6l0.2,0.8l-0.6,0.2l-0.2-0.8L88.4,151.6z M82.8,131.9l0.6-0.2l0.2,0.8l-0.6,0.2L82.8,131.9z
	 M89.2,154.9l0.2,0.8l-0.6,0.2l-0.2-0.8L89.2,154.9z M82,128.6l0.6-0.2l0.2,0.8l-0.6,0.2L82,128.6z M90.2,158.2l0.2,0.8l-0.6,0.2
	l-0.2-0.8L90.2,158.2z M81.3,125.3l0.6-0.1l0.2,0.8l-0.6,0.2L81.3,125.3z M91.1,161.3l0.3,0.8l-0.6,0.2l-0.3-0.8L91.1,161.3z
	 M80.6,122l0.6-0.1l0.1,0.8l-0.6,0.1L80.6,122z M92,164.6l0.3,0.8l-0.6,0.2l-0.3-0.8L92,164.6z M79.9,118.6l0.6-0.1l0.1,0.8
	l-0.6,0.1L79.9,118.6z M93,167.9l0.3,0.8l-0.6,0.2l-0.3-0.8L93,167.9z M79.3,115.3l0.6-0.1L80,116l-0.6,0.1L79.3,115.3z M94,171.1
	l0.3,0.8l-0.6,0.2l-0.3-0.8L94,171.1z M78.6,111.9l0.6-0.1l0.1,0.8l-0.6,0.1L78.6,111.9z M95,174.4l0.3,0.8l-0.6,0.2l-0.3-0.8
	L95,174.4z M78,108.6l0.6-0.1l0.1,0.8l-0.6,0.1L78,108.6z M96,177.6l0.3,0.8l-0.6,0.2l-0.3-0.8L96,177.6z M77.3,105.3l0.6-0.1
	L78,106l-0.6,0.1L77.3,105.3z M97.1,180.9l0.3,0.8l-0.6,0.2l-0.3-0.8L97.1,180.9z M76.8,101.9l0.6-0.1l0.1,0.8l-0.6,0.1L76.8,101.9z
	 M98.2,184.1l0.3,0.8l-0.6,0.2l-0.3-0.8L98.2,184.1z M76.2,98.6l0.6-0.1l0.1,0.8l-0.6,0.1L76.2,98.6z M99.3,187.3l0.3,0.8l-0.6,0.2
	l-0.3-0.8L99.3,187.3z M75.7,95.1h0.7l0.1,0.8L75.8,96L75.7,95.1z M100.4,190.4l0.3,0.8l-0.6,0.3l-0.3-0.8L100.4,190.4z M75.2,91.9
	h0.7l0.1,0.8h-0.7L75.2,91.9z M101.6,193.6l0.3,0.8l-0.6,0.3l-0.3-0.8L101.6,193.6z M74.8,88.5h0.7l0.1,0.8h-0.7L74.8,88.5z
	 M102.7,196.8l0.3,0.8l-0.6,0.3l-0.3-0.8L102.7,196.8z M74.3,85.1H75l0.1,0.8h-0.7L74.3,85.1z M104,200l0.3,0.8l-0.6,0.3l-0.3-0.8
	L104,200z M73.9,81.7h0.7l0.1,0.8H74L73.9,81.7z M105.2,203.1l0.3,0.8l-0.6,0.3l-0.3-0.8L105.2,203.1z M73.5,78.4h0.7l0.1,0.8h-0.7
	L73.5,78.4z M106.5,206.2l0.3,0.8l-0.6,0.3l-0.3-0.8L106.5,206.2z M73.1,75h0.7l0.1,0.8h-0.7L73.1,75z M107.8,209.4l0.3,0.8
	l-0.6,0.3l-0.3-0.8L107.8,209.4z M72.8,71.6h0.7l0.1,0.8h-0.7L72.8,71.6z M109.1,212.4l0.4,0.8l-0.6,0.4l-0.4-0.8L109.1,212.4z
	 M72.6,68.2h0.7V69h-0.7V68.2z M110.5,215.5l0.4,0.8l-0.6,0.4l-0.4-0.8L110.5,215.5z M72.4,64.9h0.7v0.8h-0.7V64.9z M111.9,218.5
	l0.4,0.8l-0.6,0.4l-0.4-0.8L111.9,218.5z M72.2,61.5h0.7v0.8h-0.7V61.5z M113.3,221.6l0.4,0.8l-0.6,0.4l-0.4-0.8L113.3,221.6z
	 M72,58.2h0.7V59H72V58.2z M114.8,224.6l0.4,0.7l-0.6,0.4l-0.4-0.7L114.8,224.6z M72,54.8l0.7,0.1v0.8l-0.7,0V54.8z M116.4,227.6
	l0.4,0.7l-0.6,0.4l-0.4-0.7L116.4,227.6z M71.9,51.4l0.7,0.1v0.8l-0.7-0.1V51.4z M117.9,230.5l0.4,0.7l-0.6,0.4l-0.4-0.7
	L117.9,230.5z M72,48.1l0.7,0.1V49L72,49V48.1z M119.6,233.4l0.4,0.7l-0.6,0.4l-0.4-0.7L119.6,233.4z M72.1,44.7l0.7,0.2
	c0,0.3,0,0.6,0,0.8l-0.7-0.1C72.1,45.3,72.1,45.1,72.1,44.7z M121.3,236.3l0.4,0.7l-0.5,0.5l-0.5-0.7L121.3,236.3z M72.3,41.5
	l0.6,0.2c-0.1,0.2,0,0.5-0.1,0.8l-0.6-0.2C72.2,42,72.3,41.8,72.3,41.5z M123,238.9c0.1,0.3,0.3,0.4,0.4,0.7L123,240
	c-0.1-0.2-0.3-0.4-0.4-0.7L123,238.9z M72.6,38.2l0.6,0.2c0,0.3,0,0.5-0.1,0.8L72.5,39C72.6,38.7,72.6,38.4,72.6,38.2z M124.9,241.5
	c0.2,0.2,0.3,0.4,0.5,0.7l-0.5,0.5c-0.2-0.2-0.3-0.4-0.5-0.7L124.9,241.5z M73.1,34.9l0.7,0.3c0,0.3-0.1,0.5-0.1,0.8L73,35.8
	C73,35.5,73.1,35.2,73.1,34.9z M127,244.1c0.2,0.2,0.3,0.4,0.5,0.6l-0.4,0.6c-0.2-0.2-0.4-0.4-0.5-0.6L127,244.1z M73.8,31.8
	l0.6,0.3c-0.1,0.2-0.2,0.5-0.2,0.8l-0.7-0.3C73.6,32.3,73.7,32,73.8,31.8z M129,246.4c0.2,0.2,0.4,0.4,0.5,0.6l-0.4,0.7
	c-0.2-0.2-0.4-0.4-0.6-0.6L129,246.4z M74.6,28.7l0.6,0.4c-0.1,0.2-0.1,0.5-0.2,0.8l-0.6-0.4C74.4,29.2,74.5,28.9,74.6,28.7z
	 M131.2,248.6c0.2,0.2,0.4,0.3,0.6,0.5l-0.3,0.7c-0.2-0.2-0.4-0.3-0.6-0.5L131.2,248.6z M75.7,25.8l0.6,0.5
	c-0.1,0.2-0.2,0.5-0.3,0.7l-0.6-0.5C75.5,26.2,75.6,26,75.7,25.8z M133.5,250.4c0.2,0.1,0.4,0.2,0.6,0.3l-0.2,0.8
	c-0.2-0.2-0.4-0.2-0.6-0.4L133.5,250.4z M77.2,23.1l0.5,0.6c-0.1,0.2-0.3,0.4-0.4,0.6l-0.5-0.6C76.9,23.6,77.1,23.4,77.2,23.1z
	 M136,251.5c0.2,0.1,0.4,0.2,0.6,0.2v0.8c-0.2-0.1-0.5-0.1-0.7-0.2L136,251.5z M79.2,21.2l0.4,0.8c-0.1,0.1-0.3,0.3-0.5,0.4
	l-0.4-0.7C78.9,21.4,79.1,21.3,79.2,21.2z M138.7,251.7c0.2,0,0.4,0,0.6-0.1h0.2l0.2,0.8l-0.2,0.1c-0.2,0.1-0.5,0-0.7,0.1
	L138.7,251.7z M81.2,20.2c0.2-0.1,0.4-0.1,0.6-0.1l0.1,0.8c-0.2,0-0.4,0.1-0.5,0.1h-0.1L81.2,20.2L81.2,20.2z M141.6,250.4l0.5,0.7
	c-0.2,0.1-0.4,0.3-0.6,0.4l-0.4-0.7C141.3,250.6,141.4,250.5,141.6,250.4z M83.8,20.2c0.2,0.1,0.5,0.1,0.7,0.2l-0.1,0.8
	c-0.2,0-0.4-0.1-0.6-0.1V20.2z M143.4,248.2l0.5,0.6c-0.2,0.2-0.3,0.4-0.4,0.6l-0.5-0.6C143.1,248.7,143.2,248.5,143.4,248.2z
	 M86.6,21.1c0.2,0.2,0.4,0.2,0.6,0.4L87,22.3c-0.2-0.1-0.4-0.2-0.6-0.3L86.6,21.1z M144.7,245.6l0.6,0.5c-0.1,0.2-0.2,0.5-0.3,0.7
	l-0.6-0.5C144.5,246.1,144.6,245.9,144.7,245.6z M89.1,22.9c0.2,0.2,0.4,0.3,0.6,0.5L89.4,24c-0.2-0.2-0.4-0.3-0.6-0.5L89.1,22.9z
	 M145.7,242.9l0.6,0.3c-0.1,0.2-0.1,0.5-0.2,0.8l-0.6-0.4C145.6,243.3,145.6,243,145.7,242.9z M91.4,25c0.2,0.2,0.4,0.4,0.6,0.6
	l-0.4,0.6c-0.2-0.2-0.4-0.4-0.5-0.6L91.4,25z M146.4,239.7l0.7,0.3c0,0.3-0.1,0.6-0.2,0.8l-0.6-0.3
	C146.3,240.3,146.4,240,146.4,239.7z M93.6,27.3c0.2,0.2,0.4,0.4,0.5,0.6l-0.5,0.5c-0.2-0.2-0.4-0.4-0.5-0.6L93.6,27.3z M147,236.6
	l0.7,0.3c0,0.3-0.1,0.5-0.1,0.8l-0.7-0.3C146.9,237.1,147,236.9,147,236.6z M95.7,29.9c0.2,0.2,0.3,0.4,0.5,0.7L95.7,31
	c-0.2-0.2-0.3-0.4-0.5-0.7L95.7,29.9z M147.4,233.4l0.6,0.2c0,0.3,0,0.5-0.1,0.8l-0.6-0.2C147.4,233.9,147.4,233.6,147.4,233.4z
	 M97.5,32.6c0.1,0.2,0.3,0.4,0.4,0.7l-0.5,0.5c-0.1-0.3-0.3-0.4-0.4-0.7L97.5,32.6z M147.7,230l0.6,0.2c0,0.3,0,0.6-0.1,0.9
	l-0.6-0.2C147.7,230.7,147.7,230.4,147.7,230z M99.3,35.2c0.2,0.2,0.3,0.5,0.5,0.7l-0.5,0.5c-0.2-0.2-0.3-0.4-0.4-0.7L99.3,35.2z
	 M148,226.9l0.7,0.1l-0.1,0.9l-0.7-0.2L148,226.9z M101.2,38.1l0.4,0.7l-0.6,0.4l-0.4-0.7L101.2,38.1z M148,223.5l0.7,0.1v0.8
	l-0.7-0.1V223.5z M102.8,41l0.4,0.7l-0.6,0.4l-0.4-0.7L102.8,41z M148,220.2l0.7,0.1v0.8L148,221V220.2z M104.4,43.9l0.4,0.7
	l-0.6,0.4l-0.4-0.7L104.4,43.9z M148,216.9l0.7,0.1v0.8l-0.7-0.1V216.9z M105.9,46.9l0.4,0.7l-0.6,0.4l-0.4-0.7L105.9,46.9z
	 M147.9,213.5h0.7v0.8h-0.7V213.5z M107.5,49.9l0.4,0.8l-0.6,0.4l-0.4-0.8L107.5,49.9z M147.8,210.2h0.7v0.8h-0.7V210.2z
	 M108.9,52.9l0.4,0.8l-0.6,0.4l-0.4-0.8L108.9,52.9z M147.6,206.9h0.7v0.8h-0.7V206.9z M110.3,56l0.4,0.8l-0.6,0.4l-0.4-0.8
	L110.3,56z M147.3,203.5h0.7v0.8h-0.7V203.5z M111.7,59.1l0.4,0.8l-0.6,0.4l-0.4-0.8L111.7,59.1z M147,200.2h0.7l0.1,0.8h-0.7
	L147,200.2z M113,62.2l0.3,0.8l-0.6,0.3l-0.3-0.8L113,62.2z M146.7,196.8h0.7l0.1,0.8h-0.7L146.7,196.8z M114.4,65.3l0.3,0.8
	l-0.6,0.3l-0.3-0.8L114.4,65.3z M146.3,193.4h0.7l0.1,0.8h-0.7L146.3,193.4z M115.7,68.4l0.3,0.8l-0.6,0.3l-0.3-0.8L115.7,68.4z
	 M146,190.1h0.7l0.1,0.8h-0.7L146,190.1z M116.9,71.6l0.3,0.8l-0.6,0.3l-0.3-0.8L116.9,71.6z M145.6,186.7h0.7l0.1,0.8h-0.7
	L145.6,186.7z M118.1,74.7l0.3,0.8l-0.6,0.3l-0.3-0.8L118.1,74.7z M145.1,183.4h0.7l0.1,0.8h-0.7L145.1,183.4z M119.3,77.9l0.3,0.8
	L119,79l-0.3-0.8L119.3,77.9z M144.7,180h0.7l0.1,0.8h-0.7L144.7,180z M120.5,81.1l0.3,0.8l-0.6,0.3l-0.3-0.8L120.5,81.1z
	 M144.1,176.7l0.6-0.1l0.1,0.8h-0.7L144.1,176.7z M121.6,84.3l0.3,0.8l-0.6,0.2l-0.3-0.8L121.6,84.3z M143.6,173.4l0.6-0.1l0.1,0.8
	l-0.6,0.1L143.6,173.4z M122.7,87.6l0.3,0.8l-0.6,0.2l-0.3-0.8L122.7,87.6z M143,170l0.6-0.1l0.1,0.8l-0.6,0.1L143,170z M123.8,90.7
	l0.3,0.8l-0.6,0.2l-0.3-0.8L123.8,90.7z M142.5,166.7l0.6-0.1l0.1,0.8l-0.6,0.1L142.5,166.7z M124.9,94l0.3,0.8l-0.6,0.2l-0.3-0.8
	L124.9,94z M141.8,163.3l0.6-0.1l0.1,0.8l-0.6,0.1L141.8,163.3z M125.9,97.2l0.3,0.8l-0.6,0.2l-0.3-0.8L125.9,97.2z M141.2,159.9
	l0.6-0.1l0.1,0.8l-0.6,0.1L141.2,159.9z M127,100.4l0.3,0.8l-0.6,0.2l-0.3-0.8L127,100.4z M140.6,156.6l0.6-0.1l0.1,0.8l-0.6,0.1
	L140.6,156.6z M127.9,103.6l0.3,0.8l-0.6,0.2l-0.3-0.8L127.9,103.6z M139.9,153.3l0.6-0.1l0.1,0.8l-0.6,0.1L139.9,153.3z
	 M128.9,106.9l0.3,0.8l-0.6,0.2l-0.3-0.8L128.9,106.9z M139.2,150l0.6-0.1l0.1,0.8l-0.6,0.1L139.2,150z M129.9,110.2l0.3,0.8
	l-0.6,0.2l-0.3-0.8L129.9,110.2z M138.5,146.8l0.6-0.2l0.2,0.8l-0.6,0.1L138.5,146.8z M130.8,113.5l0.2,0.8l-0.6,0.2l-0.2-0.8
	L130.8,113.5z M137.7,143.4l0.6-0.2l0.2,0.8l-0.6,0.2L137.7,143.4z M131.8,116.8l0.2,0.8l-0.6,0.2l-0.2-0.8L131.8,116.8z M137,140
	l0.6-0.2l0.2,0.8l-0.6,0.2L137,140z M132.6,120.1l0.2,0.8l-0.6,0.2l-0.2-0.8L132.6,120.1z M136.2,136.7l0.6-0.2l0.2,0.8l-0.6,0.2
	L136.2,136.7z M133.5,123.4l0.2,0.8l-0.6,0.2l-0.2-0.8L133.5,123.4z M135.4,133.4l0.6-0.2l0.2,0.8l-0.6,0.2L135.4,133.4z
	 M134.4,126.7l0.2,0.8l-0.6,0.2l-0.2-0.8L134.4,126.7z M134.6,130.1l0.6-0.2l0.2,0.8l-0.6,0.2L134.6,130.1z"/>
<linearGradient id="SVGID_4_" gradientUnits="userSpaceOnUse" x1="695.8999" y1="221.2053" x2="724.9825" y2="221.2053" gradientTransform="matrix(-0.97 0.2433 -0.2433 -0.97 873.1494 170.2405)">
	<stop  offset="0" style="stop-color:#FFFFFF"/>
	<stop  offset="1" style="stop-color:#FFFFFF;stop-opacity:0"/>
</linearGradient>
<path class="st9" d="M115,82.5c1.6-0.4,3.4,0.7,5.4,3.1c6.8,4.8,18.4,16,23.9,39.4c5.4,22.7,1.2,37.8-2.4,45.4
	c-0.6,3.4-1.8,5.5-3.5,5.9c-5.9,1.5-15.9-18.3-22.4-44.3C109.6,106.2,109.1,84,115,82.5z"/>
<ellipse transform="matrix(0.97 -0.2433 0.2433 0.97 -25.4687 38.3924)" class="st4" cx="142.7" cy="122.3" rx="3.6" ry="7.2"/>
<path class="st10" d="M429.8,79.7c0,0,2,0.2,5.8,0.6c3.8,0.4,9.3,1,16.3,2.1c7,1,15.5,2.5,25.1,4.8c4.8,1.2,9.9,2.6,15.1,4.6
	c2.6,1,5.2,2.2,7.8,3.7c1.3,0.8,2.6,1.6,3.7,2.6c1.2,1,2.3,2.2,3,3.7l0.3,0.6c0.1,0.2,0.1,0.4,0.2,0.6c0.1,0.4,0.2,0.9,0.2,1.3
	l0,0.3c0,0,0,0.2,0,0.2l0,0.1c0,0.2,0,0.4,0,0.6c-0.1,0.5-0.2,0.9-0.3,1.3c-0.6,1.7-1.7,3-2.9,4.1c-2.5,2.3-5.4,3.8-8.4,5.3
	c-6,2.8-12.6,4.8-19.4,6.6c-13.6,3.5-28.1,5.9-43.2,7.7c-30.2,3.6-62.7,5-95.2,4.7c-16.2-0.2-32.4-0.9-48.4-2
	c-15.9-1.2-31.6-2.8-46.6-5.2c-7.5-1.2-14.9-2.6-22-4.3c-7.1-1.8-14.1-3.8-20.6-6.6c-3.2-1.4-6.4-3-9.1-5.3
	c-1.4-1.1-2.6-2.5-3.4-4.2c-0.4-0.9-0.6-1.8-0.6-2.8c0,0,0-0.3,0-0.3l0-0.2l0-0.3c0-0.2,0-0.4,0.1-0.6c0.1-0.5,0.3-1,0.5-1.4
	c0.8-1.7,2-3,3.3-4.1c0.6-0.6,1.3-1,2-1.5c0.7-0.4,1.4-0.9,2.1-1.3c2.8-1.6,5.7-2.8,8.6-3.9c5.8-2.1,11.4-3.6,16.8-4.9
	c5.4-1.2,10.6-2.2,15.5-3c9.8-1.6,18.3-2.7,25.4-3.4c7-0.8,12.6-1.2,16.4-1.5c3.8-0.3,5.8-0.4,5.8-0.4s-2,0.2-5.8,0.6
	c-3.8,0.4-9.3,1-16.3,1.9c-7,0.9-15.5,2.1-25.2,3.9c-4.8,0.9-10,2-15.3,3.3c-5.3,1.4-10.9,2.9-16.6,5.1c-2.8,1.1-5.6,2.3-8.3,3.9
	c-0.7,0.4-1.3,0.8-2,1.2c-0.6,0.5-1.3,0.9-1.8,1.4c-1.2,1-2.2,2.1-2.7,3.4c-0.1,0.3-0.2,0.6-0.3,0.9c0,0.2,0,0.4-0.1,0.6l0,0.3
	l0,0.2c0,0.1,0,0,0,0c0,0.7,0.2,1.4,0.5,2c0.6,1.3,1.7,2.5,2.9,3.5c2.5,2,5.5,3.5,8.7,4.9c6.3,2.6,13.2,4.5,20.3,6.2
	c7.1,1.6,14.4,3,21.9,4.2c15,2.3,30.5,3.9,46.4,5c15.9,1.1,32,1.7,48.2,1.8c32.3,0.4,64.7-0.9,94.8-4.3c15-1.8,29.5-3.9,43-7.2
	c6.7-1.7,13.2-3.6,19.1-6.2c2.9-1.3,5.7-2.8,8-4.9c1.1-1,2.1-2.1,2.5-3.4c0.1-0.3,0.2-0.6,0.3-0.9c0-0.2,0-0.4,0.1-0.6l0-0.1
	c0-0.1,0,0,0-0.1l0-0.2c0-0.3,0-0.6-0.2-1c0-0.2-0.1-0.3-0.1-0.5l-0.2-0.5c-0.6-1.2-1.5-2.3-2.6-3.2c-1-1-2.3-1.7-3.5-2.5
	c-2.4-1.5-5-2.6-7.5-3.7c-5.1-2.1-10.1-3.6-14.9-4.8c-9.5-2.5-18-4.1-25-5.3c-7-1.2-12.5-2-16.3-2.5C431.9,80,429.8,79.7,429.8,79.7
	z"/>
</svg>
