<?xml version="1.0" encoding="utf-8"?>
<!-- Generator: Adobe Illustrator 19.2.1, SVG Export Plug-In . SVG Version: 6.00 Build 0)  -->
<svg version="1.1" id="Capa_1" xmlns="http://www.w3.org/2000/svg" xmlns:xlink="http://www.w3.org/1999/xlink" x="0px" y="0px"
	 viewBox="0 0 453 738.3" style="enable-background:new 0 0 453 738.3;" xml:space="preserve">
<style type="text/css">
	.st0{fill:#E0450E;}
	.st1{fill:#BC3100;}
	.st2{fill:#ED5614;}
	.st3{fill:#C63300;}
	.st4{fill:#EA7103;}
	.st5{fill:#CE4205;}
	.st6{fill:#D84B05;}
	.st7{fill:#F57C00;}
	.st8{fill:#F46219;}
	.st9{fill:#E25405;}
	.st10{fill:#FF8931;}
	.st11{fill:#E26D03;}
	.st12{display:none;}
	.st13{display:inline;fill:#C63300;}
	.st14{display:inline;fill:#ED7321;}
	.st15{display:inline;fill:none;stroke:#C63300;stroke-width:0.5;stroke-miterlimit:10;}
	.st16{display:inline;fill:#B52D08;}
	.st17{display:inline;fill:url(#SVGID_1_);}
	.st18{display:inline;fill:url(#SVGID_2_);}
</style>
<polygon class="st0" points="97.7,644 97.7,521.9 19.7,493.6 19.7,613.9 "/>
<polygon class="st1" points="160.7,479.8 84.2,460.7 19.7,493.6 97.7,521.9 "/>
<polygon class="st2" points="97.7,496.3 97.7,283.1 19.7,264.8 19.7,466.3 "/>
<polygon class="st3" points="97.7,283.1 160.7,251 160.7,466.3 97.7,496.3 "/>
<polygon class="st4" points="160.7,251 84.2,231.9 19.7,264.8 97.7,283.1 "/>
<polygon class="st2" points="251.9,468.7 251.9,128.6 142.4,102.9 142.4,439 "/>
<polygon class="st5" points="251.9,128.6 340.3,83.6 340.3,427.8 251.9,469.9 "/>
<polygon class="st1" points="340.3,83.6 232.9,56.8 142.4,102.9 251.9,128.6 "/>
<polygon class="st6" points="372.4,511.9 435.4,479.8 435.4,593.3 372.4,634.6 "/>
<polygon class="st7" points="435.4,479.8 358.9,460.7 294.4,493.6 372.4,511.9 "/>
<polygon class="st8" points="372.4,460.7 372.4,247.5 294.4,229.2 294.4,430.7 "/>
<polygon class="st6" points="372.4,247.5 435.4,215.4 435.4,422.7 372.4,460.7 "/>
<polygon class="st1" points="435.4,215.4 358.9,196.3 294.4,229.2 372.4,247.5 "/>
<polygon class="st7" points="251.6,735 251.6,385.8 73.1,343.8 73.1,666 "/>
<polygon class="st9" points="251.6,385.8 395.6,312.3 395.6,634.5 251.6,735 "/>
<polygon class="st10" points="395.6,312.3 220.6,271.3 73.1,343.8 251.6,385.8 "/>
<polygon class="st2" points="251.9,108.7 251.9,86.5 142.4,60.7 142.4,83 "/>
<polygon class="st5" points="251.9,86.5 340.3,41.4 340.3,65.8 251.9,108.9 "/>
<polygon class="st11" points="340.3,41.4 232.9,14.6 142.4,60.7 251.9,86.5 "/>
<polygon class="st8" points="372.4,233.8 369.3,144.4 294.4,214 "/>
<polygon class="st6" points="372.4,233.8 369.3,144.4 435.4,203.2 "/>
<g id="Capa_3" class="st12">
	<polygon class="st13" points="341.9,302.8 342.1,302.8 205.9,372.3 250,382.7 386.3,313.1 	"/>
	<polygon class="st14" points="209,373 211.6,373.6 342.2,306.7 342.1,302.8 205.9,372.3 	"/>
	<polygon class="st15" points="386.3,313.2 220.7,274.4 81.1,343 250,382.7 	"/>
</g>
<g id="Capa_4" class="st12">
	<polygon class="st13" points="298.3,292.6 289.4,297.1 162.7,361.9 250,382.7 386.3,313.1 	"/>
	<polygon class="st14" points="165.4,362.8 168,363.4 298.6,296.4 298.5,292.6 162.4,362 	"/>
	<polygon class="st15" points="386.3,313.2 220.7,274.4 81.1,343 250,382.7 	"/>
</g>
<g id="Capa_5" class="st12">
	<polygon class="st13" points="220.7,274.4 202.9,283.1 81.1,343 250,382.7 386.3,313.1 	"/>
	<polygon class="st15" points="386.3,313.2 220.7,274.4 81.1,343 250,382.7 	"/>
	<polygon class="st16" points="220.7,274.4 220.7,375.8 81.1,343 	"/>
</g>
<g id="Capa_6" class="st12">
	<polygon class="st13" points="220.7,274.4 202.9,283.1 81.1,343 250,382.7 386.3,313.1 	"/>
	<polygon class="st15" points="386.3,313.2 220.7,274.4 81.1,343 250,382.7 	"/>
	<polygon class="st16" points="220.7,274.4 220.7,375.8 81.1,343 	"/>
	
		<linearGradient id="SVGID_1_" gradientUnits="userSpaceOnUse" x1="234.35" y1="355.7" x2="234.35" y2="735" gradientTransform="matrix(1 0 0 -1 0 738)">
		<stop  offset="0" style="stop-color:#FFFFFF"/>
		<stop  offset="0.2632" style="stop-color:#FFFFFF;stop-opacity:0"/>
	</linearGradient>
	<polygon class="st17" points="387.3,312.7 250.3,382.3 81.4,342.6 81.4,3 387.3,3 	"/>
</g>
<g id="Capa_7" class="st12">
	<polygon class="st13" points="220.7,274.4 202.9,283.1 81.1,343 250,382.7 386.3,313.1 	"/>
	<polygon class="st15" points="386.3,313.2 220.7,274.4 81.1,343 250,382.7 	"/>
	<polygon class="st16" points="220.7,274.4 220.7,375.8 81.1,343 	"/>
	
		<linearGradient id="SVGID_2_" gradientUnits="userSpaceOnUse" x1="234.35" y1="355.7" x2="234.35" y2="735" gradientTransform="matrix(1 0 0 -1 0 738)">
		<stop  offset="0" style="stop-color:#FFFFFF"/>
		<stop  offset="0.8053" style="stop-color:#FFFFFF;stop-opacity:0"/>
	</linearGradient>
	<polygon class="st18" points="387.3,312.7 250.3,382.3 81.4,342.6 81.4,3 387.3,3 	"/>
</g>
</svg>
