<?xml version="1.0" encoding="utf-8"?>
<!-- Generator: Adobe Illustrator 19.2.1, SVG Export Plug-In . SVG Version: 6.00 Build 0)  -->
<svg version="1.1" id="Capa_1" xmlns="http://www.w3.org/2000/svg" xmlns:xlink="http://www.w3.org/1999/xlink" x="0px" y="0px"
	 viewBox="0 0 453 738.3" style="enable-background:new 0 0 453 738.3;" xml:space="preserve">
<style type="text/css">
	.st0{fill:#E0450E;}
	.st1{fill:#BC3100;}
	.st2{fill:#ED5614;}
	.st3{fill:#C63300;}
	.st4{fill:#EA7103;}
	.st5{fill:#CE4205;}
	.st6{fill:#D84B05;}
	.st7{fill:#F57C00;}
	.st8{fill:#F46219;}
	.st9{fill:#E25405;}
	.st10{fill:#FF8931;}
	.st11{fill:#E26D03;}
	.st12{fill:none;stroke:#C63300;stroke-width:0.5;stroke-miterlimit:10;}
	.st13{fill:#B52D08;}
	.st14{clip-path:url(#SVGID_2_);}
	.st15{fill:#262626;}
	.st16{fill:#2D2D2D;}
	.st17{fill:#1E1E1E;}
	.st18{fill:#5B5A5B;}
	.st19{fill:#353535;}
	.st20{fill:url(#SVGID_3_);}
	.st21{fill:url(#SVGID_4_);}
	.st22{fill:#545454;}
	.st23{fill:url(#SVGID_5_);}
	.st24{fill:url(#SVGID_6_);}
	.st25{fill:#666666;}
	.st26{fill:#494949;}
	.st27{fill:#636363;}
	.st28{opacity:0.2;enable-background:new    ;}
	.st29{opacity:0.12;enable-background:new    ;}
	.st30{opacity:0.1;enable-background:new    ;}
	.st31{opacity:7.000000e-02;enable-background:new    ;}
	.st32{fill:#282828;}
	.st33{opacity:5.000000e-02;fill:#FFFFFF;enable-background:new    ;}
	.st34{opacity:0.51;fill:#3A3A3A;enable-background:new    ;}
	.st35{fill:#3A3A3A;}
	.st36{opacity:0.25;fill:url(#SVGID_7_);enable-background:new    ;}
	.st37{opacity:0.25;fill:url(#SVGID_8_);enable-background:new    ;}
	.st38{opacity:0.25;fill:url(#SVGID_9_);enable-background:new    ;}
	.st39{opacity:0.25;fill:url(#SVGID_10_);enable-background:new    ;}
	.st40{fill:#161616;}
	.st41{fill:#686868;}
	.st42{fill:url(#SVGID_11_);}
	.st43{fill:#5B5B5B;}
	.st44{fill:#848384;}
	.st45{fill:#565656;}
	.st46{opacity:2.000000e-02;fill:#FFFFFF;enable-background:new    ;}
	.st47{fill:#7A7A7A;}
	.st48{display:none;}
	.st49{display:inline;}
	.st50{fill:url(#SVGID_12_);}
	.st51{fill:url(#SVGID_13_);}
	.st52{fill:url(#SVGID_14_);}
	.st53{fill:url(#SVGID_15_);}
	.st54{opacity:0.25;fill:url(#SVGID_16_);enable-background:new    ;}
	.st55{opacity:0.25;fill:url(#SVGID_17_);enable-background:new    ;}
	.st56{opacity:0.25;fill:url(#SVGID_18_);enable-background:new    ;}
	.st57{opacity:0.25;fill:url(#SVGID_19_);enable-background:new    ;}
	.st58{fill:url(#SVGID_20_);}
	.st59{fill:url(#SVGID_21_);}
</style>
<polygon class="st0" points="97.7,644 97.7,521.9 19.7,493.6 19.7,613.9 "/>
<polygon class="st1" points="160.7,479.8 84.2,460.7 19.7,493.6 97.7,521.9 "/>
<polygon class="st2" points="97.7,496.3 97.7,283.1 19.7,264.8 19.7,466.3 "/>
<polygon class="st3" points="97.7,283.1 160.7,251 160.7,466.3 97.7,496.3 "/>
<polygon class="st4" points="160.7,251 84.2,231.9 19.7,264.8 97.7,283.1 "/>
<polygon class="st2" points="251.9,468.7 251.9,128.6 142.4,102.9 142.4,439 "/>
<polygon class="st5" points="251.9,128.6 340.3,83.6 340.3,427.8 251.9,469.9 "/>
<polygon class="st1" points="340.3,83.6 232.9,56.8 142.4,102.9 251.9,128.6 "/>
<polygon class="st6" points="372.4,511.9 435.4,479.8 435.4,593.3 372.4,634.6 "/>
<polygon class="st7" points="435.4,479.8 358.9,460.7 294.4,493.6 372.4,511.9 "/>
<polygon class="st8" points="372.4,460.7 372.4,247.5 294.4,229.2 294.4,430.7 "/>
<polygon class="st6" points="372.4,247.5 435.4,215.4 435.4,422.7 372.4,460.7 "/>
<polygon class="st1" points="435.4,215.4 358.9,196.3 294.4,229.2 372.4,247.5 "/>
<polygon class="st7" points="251.6,735 251.6,385.8 73.1,343.8 73.1,666 "/>
<polygon class="st9" points="251.6,385.8 395.6,312.3 395.6,634.5 251.6,735 "/>
<polygon class="st10" points="395.6,312.3 220.6,271.3 73.1,343.8 251.6,385.8 "/>
<polygon class="st2" points="251.9,108.7 251.9,86.5 142.4,60.7 142.4,83 "/>
<polygon class="st5" points="251.9,86.5 340.3,41.4 340.3,65.8 251.9,108.9 "/>
<polygon class="st11" points="340.3,41.4 232.9,14.6 142.4,60.7 251.9,86.5 "/>
<polygon class="st8" points="372.4,233.8 369.3,144.4 294.4,214 "/>
<polygon class="st6" points="372.4,233.8 369.3,144.4 435.4,203.2 "/>
<g id="Capa_7">
	<polygon class="st3" points="221.6,274.4 203.8,283.1 82,343 250.9,382.7 387.2,313.1 	"/>
	<polygon class="st12" points="387.2,313.2 221.6,274.4 82,343 250.9,382.7 	"/>
	<polygon class="st13" points="221.6,274.4 221.6,375.8 82,343 	"/>
	<g>
		<defs>
			<polygon id="SVGID_1_" points="222.3,274.6 204.5,283.3 82.7,343.2 251.6,382.9 387.9,313.3 			"/>
		</defs>
		<clipPath id="SVGID_2_">
			<use xlink:href="#SVGID_1_"  style="overflow:visible;"/>
		</clipPath>
		<g id="Carbon_1_" class="st14">
			<g>
				<path class="st15" d="M191.9,386.6c0,0-4.9,3,0,6.7c4.9,3.7,20.5,13.8,24.7,15.7c4.1,1.8,18.4,5.1,26.2,6.4c0,0,5.5,1.4,7.4-3.7
					c0,0,4.1-12,6.4-14.5L191.9,386.6z"/>
				<path class="st16" d="M250,411.5c0,0,0.2-0.6,0.5-1.5l0,0c0,0-4.7-0.3-7.8-1.2c-3.1-0.9-5.9-1.8-10.8-1c-4.9,0.8-11,1.6-17,0.3
					c0.6,0.3,1.1,0.6,1.5,0.8c4.1,1.8,18.4,5.1,26.2,6.4C242.8,415.2,248.2,416.6,250,411.5z"/>
				<path class="st17" d="M193.5,386.6c0,0-3.3,1.2-1.9,5.5c0,0,4.7,3.2,11.7,7.7c0,0,0.7-1.4,5.2,0s7.4,1.2,8.8,0
					c1.4-1.2,8.3-3.9,8.3-3.9L193.5,386.6z"/>
				<path class="st18" d="M282.1,393.5c0,0,3.9-10.4,4.1-15s1.8-15.7,3.7-19.8c1.8-4.1,2.3-11.5,2.1-15.4
					c-0.2-3.9,0.1-12.3,0.1-12.3s-3.7-9.6-7.7-13.7c-3.9-4.1-11.3-9.9-11.5-11c-0.2-1.2-6-3.7-6-3.7l-4.6-1.4c0,0-17.5,7.1-24.2,12
					l-1.3,3L282.1,393.5z"/>
				<path class="st19" d="M238.1,313.2c0,0-9.7-5.3-14-5.5c-4.2-0.2-6.5-1.8-6.5-1.8s-2.5-0.5-4.6,4.4l8.7,5.5l16.3,2.7v-5.3H238.1z
					"/>
				<path class="st15" d="M282.1,393.5c0,0-1.8-21.2,0-27c1.8-5.8,0.7-14.8-0.8-18c-1.5-3.1-12.6-11.6-12.6-11.6l-6.1,14.3
					l-1.8,17.7l6.2,6.9L282.1,393.5z"/>
				<path class="st19" d="M279.8,397.1c0,0,2.4-0.4,2.4-3.6s-5.8-9.9-6.2-11.5c-0.5-1.6-12.2-10.9-11.7-16s-1.2-15.7,4.5-29.1
					l-9.6,8.5l-9.1,23l-0.5,15l4.9,7.6L279.8,397.1z"/>
				
					<linearGradient id="SVGID_3_" gradientUnits="userSpaceOnUse" x1="181.55" y1="371.5758" x2="244.45" y2="371.5758" gradientTransform="matrix(1 0 0 -1 0 738)">
					<stop  offset="0.1326" style="stop-color:#4F4F4F"/>
					<stop  offset="0.8605" style="stop-color:#353535"/>
				</linearGradient>
				<path class="st20" d="M194,343.3c0,0-7.6,5.8-12.4,14.5l48.1,31.8l3.7-0.9l9-14.7l2.1-8l-16.8-8.1L194,343.3z"/>
				
					<linearGradient id="SVGID_4_" gradientUnits="userSpaceOnUse" x1="177.85" y1="360.4705" x2="231.25" y2="360.4705" gradientTransform="matrix(1 0 0 -1 0 738)">
					<stop  offset="0" style="stop-color:#353535"/>
					<stop  offset="0.8381" style="stop-color:#4C4C4C"/>
				</linearGradient>
				<path class="st21" d="M231.2,388.7c0,0-32.7-23.5-49.7-30.8c0,0-3.7,12-3.7,17.5c0,0,18.9,16.1,29.5,21.6
					C207.4,397,212,399.3,231.2,388.7z"/>
				<path class="st22" d="M219.2,394.5c0,0,11.8,2.5,21.1,4.6c9.3,2.1,9.7-1,32.1-1.9c0,0,4.8-1,7.3-0.1c0,0-9.7-8.8-23.1-9.1
					c0,0-15.3-2-25.3,0.7L219.2,394.5z"/>
				
					<linearGradient id="SVGID_5_" gradientUnits="userSpaceOnUse" x1="197.9315" y1="408.7258" x2="266.95" y2="408.7258" gradientTransform="matrix(1 0 0 -1 0 738)">
					<stop  offset="0" style="stop-color:#707070"/>
					<stop  offset="0.5021" style="stop-color:#595959"/>
					<stop  offset="0.8127" style="stop-color:#4C4C4C"/>
				</linearGradient>
				<path class="st23" d="M261.1,332c0,0-14-8.1-18.6-12s-13.6-8.3-16.3-8.5c-2.8-0.2-13.1-1.4-13.1-1.4s-4.4,3.7-6.4,7.4
					c-2.1,3.7-6,7.8-6.7,9.7c-0.7,1.8-0.8,2.7-2.1,5.1c-1.2,2.4,56.5,16.2,56.5,16.2l12.5-13.7L261.1,332z"/>
				
					<linearGradient id="SVGID_6_" gradientUnits="userSpaceOnUse" x1="193.95" y1="389.5477" x2="254.45" y2="389.5477" gradientTransform="matrix(1 0 0 -1 0 738)">
					<stop  offset="1.928110e-02" style="stop-color:#4F4F4F"/>
					<stop  offset="0.409" style="stop-color:#474747"/>
					<stop  offset="1" style="stop-color:#353535"/>
				</linearGradient>
				<path class="st24" d="M254.5,346.5c0,0-16.5-11.4-30.1-14.2c-13.6-2.8-26.5,0-26.5,0s-3,5.1-3.9,11c0,0,7.4,5.3,12,7.1
					c4.6,1.8,15.7,9.2,15.7,9.2s3,2.5,21.8,6.3C243.4,366,253.1,356.1,254.5,346.5z"/>
				<path class="st25" d="M254.4,346.5l-6.6-3.7l-3.3-1.8l-3.3-1.8c-0.6-0.3-1.1-0.6-1.6-0.9l-1.7-0.9c-0.5-0.3-1.1-0.6-1.7-0.9
					c-0.6-0.3-1.1-0.6-1.7-0.8c-0.6-0.3-1.1-0.5-1.7-0.7c-0.3-0.1-0.6-0.2-0.9-0.3l-0.9-0.3c-0.6-0.2-1.2-0.4-1.8-0.6l-1.8-0.5
					c-0.3-0.1-0.6-0.2-0.9-0.2l-0.9-0.2c-0.6-0.1-1.2-0.3-1.8-0.3l-1.9-0.3c-0.6-0.1-1.2-0.1-1.8-0.2l-0.9-0.1l-0.9-0.1
					c-0.6,0-1.2-0.1-1.9-0.1l-1.9-0.1h-1.9c-0.6,0-1.2,0-1.9,0h-0.9h-0.9c-1.2,0-2.5,0.1-3.7,0.1c-1.2,0.1-2.5,0.2-3.7,0.2
					c-1.2,0.1-2.5,0.2-3.7,0.4l0.1-0.1c-0.4,0.6-0.8,1.3-1.2,1.9l-0.1-0.1c0.3-0.7,0.6-1.4,0.9-2.1v-0.1h0.1
					c1.2-0.3,2.5-0.6,3.7-0.8c0.6-0.1,1.2-0.2,1.9-0.3c0.6-0.1,1.2-0.2,1.9-0.2c0.6-0.1,1.3-0.1,1.9-0.2c0.6-0.1,1.3-0.1,1.9-0.1
					h0.9h0.9c0.6,0,1.3,0,1.9,0c0.6,0,1.3,0,1.9,0.1l1.9,0.1c0.6,0,1.3,0.1,1.9,0.2l0.9,0.1l0.9,0.1c0.6,0.1,1.3,0.2,1.9,0.3
					l1.8,0.4c0.6,0.1,1.2,0.3,1.8,0.5c0.6,0.2,1.2,0.3,1.8,0.6l1.8,0.6l1.8,0.7c1.2,0.4,2.3,0.9,3.5,1.3c1.2,0.5,2.3,0.9,3.5,1.4
					l1.7,0.7c0.6,0.3,1.1,0.5,1.7,0.8c0.6,0.3,1.1,0.6,1.7,0.9c0.6,0.3,1.1,0.6,1.7,0.9l1.6,0.9l1.6,1c1.1,0.7,2.1,1.4,3.1,2.1
					s2,1.5,3,2.3L254.4,346.5z"/>
				<path class="st26" d="M266.9,319.4c-0.3-0.3-0.5-0.7-0.8-1c-0.2-0.4-0.4-0.7-0.6-1.1c-0.2-0.4-0.4-0.8-0.5-1.2
					c-0.1-0.2-0.1-0.4-0.2-0.6s-0.1-0.4-0.1-0.7c0-0.2,0-0.4,0-0.7v-0.3c0-0.1,0-0.2,0-0.3l0.1-0.3c0-0.1,0.1-0.2,0.1-0.3l0.1-0.3
					c0-0.1,0.1-0.2,0.2-0.3l0.2-0.3c0-0.1,0.1-0.2,0.1-0.2c0-0.1,0.1-0.1,0.1-0.2s0.1-0.2,0.1-0.2c0.1-0.3,0.2-0.7,0.2-1.1
					c0-0.7-0.1-1.5-0.3-2.3c-0.2-0.8-0.5-1.6-0.8-2.3c-0.3-0.7-0.7-1.5-1.2-2.1c-0.4-0.7-0.9-1.3-1.5-2l0.3,0.1
					c-0.8,0.4-1.6,0.8-2.4,1.1c-0.8,0.4-1.6,0.8-2.4,1.1l-4.9,2.2l-4.9,2.2l-1.2,0.5c-0.4,0.2-0.8,0.4-1.2,0.6l-1.2,0.6
					c-0.4,0.2-0.8,0.4-1.2,0.6l-0.1-0.1c0.7-0.6,1.4-1.1,2.2-1.6c0.4-0.3,0.8-0.5,1.1-0.7c0.4-0.2,0.8-0.5,1.2-0.7
					c0.4-0.2,0.8-0.5,1.2-0.7l1.2-0.6c0.4-0.2,0.8-0.4,1.2-0.6c0.4-0.2,0.8-0.4,1.2-0.6c0.8-0.4,1.6-0.7,2.5-1.1
					c0.8-0.3,1.7-0.7,2.5-1c0.8-0.3,1.7-0.6,2.5-0.9l2.6-0.8l0.2-0.1l0.1,0.2c0.5,0.7,0.9,1.4,1.3,2.1s0.9,1.4,1.3,2.1
					s0.8,1.5,1.1,2.3c0.3,0.8,0.6,1.6,0.6,2.5c0,0.5,0,0.9-0.2,1.4c0,0.1-0.1,0.2-0.1,0.3c-0.1,0.1-0.1,0.2-0.2,0.3l-0.2,0.3
					l-0.1,0.2c0,0.1-0.1,0.2-0.1,0.2l-0.1,0.3c0,0.1-0.1,0.2-0.1,0.3l-0.1,0.3c0,0.1,0,0.2-0.1,0.3v0.3c0,0.2,0,0.4,0,0.6
					c0,0.2,0,0.4,0,0.6c0,0.2,0.1,0.4,0.1,0.6c0.1,0.4,0.2,0.8,0.3,1.2c0.2,0.8,0.5,1.5,0.9,2.3V319.4z"/>
				<path class="st27" d="M231.2,388.7c0,0-0.8-0.4-2.2-1.2c-0.3-0.2-0.7-0.4-1.1-0.7c-0.4-0.2-0.9-0.5-1.3-0.8c-1-0.6-2-1.3-3.2-2
					c-1.1-0.8-2.4-1.6-3.7-2.5c-1.3-0.9-2.6-1.9-3.9-3c-1.4-1-2.8-2.1-4.3-3.1s-3.1-1.9-4.7-2.8s-3.2-1.8-4.8-2.7
					c-1.5-0.9-3.1-1.8-4.6-2.6c-1.5-0.9-2.9-1.7-4.3-2.5c-1.3-0.8-2.6-1.6-3.8-2.3c-1.2-0.7-2.3-1.3-3.2-1.9
					c-0.5-0.3-0.9-0.6-1.3-0.8c-0.4-0.2-0.8-0.5-1.2-0.7c-1.4-0.8-2.2-1.3-2.2-1.3l0.1-0.1c0,0,0.9,0.3,2.4,0.8
					c0.4,0.1,0.8,0.3,1.3,0.5c0.4,0.2,0.9,0.4,1.4,0.6c1,0.5,2.2,1,3.4,1.6c1.2,0.6,2.6,1.3,3.9,2.1c1.4,0.8,2.8,1.6,4.3,2.5
					s3,1.9,4.5,2.9c0.8,0.5,1.5,1,2.3,1.5c0.7,0.5,1.5,1.1,2.2,1.6c1.5,1.1,3,2.2,4.5,3.1c1.5,1,3,1.9,4.5,2.8s2.9,1.7,4.3,2.5
					c1.3,0.9,2.5,1.7,3.6,2.5c1.1,0.8,2.1,1.6,3,2.3c0.9,0.7,1.6,1.3,2.3,1.8c1.2,1,1.9,1.7,1.9,1.7L231.2,388.7z"/>
				<path class="st28" d="M230.9,396.9c0,0,9.8-9.4,33.6-7.4c0,0-26.7-7.4-43.2,3.9l-1.2,0.8L230.9,396.9z"/>
				<path class="st29" d="M269.5,391.2c-2.1-0.9-13.4-4.2-17.9-3.6c-0.1,0-0.2,0-0.3,0c7.3,0.6,12.6,2.1,12.6,2.1
					c-23.8-2.1-33.6,7.4-33.6,7.4l-2.5-0.6l-0.2,0.1l11,2.3c0,0,4.2,2.5,15.2,0c0,0,9.2-2.8,14.2-2.7
					C273.2,396.4,271.6,392.1,269.5,391.2z"/>
				<path class="st30" d="M221.5,391.1c0,0-6.9,4.3-11.7,5c0,0-4,0-9.3-5"/>
				<path class="st31" d="M208.5,375.6c0,0-14.6-10-22-13.8c0,0-1.9,4-1.6,6c0.3,2.1,8.4,8.6,9.1,8.8c0.7,0.2,2.1-0.7,5.4,0
					C202.6,377.3,209,379.7,208.5,375.6z"/>
				<path class="st30" d="M199.2,347.3c0,0,5.4,6.7,10.4,10.5c5,3.8,11.4,6,14.5,7.4s8.3,1.7,11.2,4.7s3.6,5.9,3.6,5.9
					s2.2-5.7,3.8-8.2l-4.7-1.5c0,0-4.5-1.1-8.4-2.7c-4-1.6-14.4-7.2-14.4-7.2l-4.4-2.6l-3.5-1.8
					C207.5,351.7,199.4,348.1,199.2,347.3z"/>
				<path class="st32" d="M194.2,342.5c0,0.5-0.1,0.9-0.1,1.4l-0.1-0.2l3.4,2.1c1.1,0.7,2.3,1.4,3.4,2c0.6,0.3,1.2,0.7,1.7,1
					c0.6,0.3,1.2,0.6,1.7,0.9l0.9,0.5l0.9,0.4c0.3,0.1,0.6,0.3,0.9,0.5l0.9,0.5c0.6,0.3,1.2,0.7,1.7,1c0.6,0.3,1.1,0.7,1.7,1
					c0.6,0.3,1.2,0.7,1.7,1l1.7,1c2.3,1.3,4.7,2.6,7,4.1l0,0c0,0,0.1,0.1,0.2,0.1c0.1,0.1,0.2,0.1,0.3,0.2c0.2,0.1,0.4,0.2,0.6,0.3
					c0.4,0.2,0.9,0.4,1.3,0.5c0.9,0.3,1.8,0.6,2.7,0.9l1.3,0.4l1.4,0.4c0.4,0.1,0.9,0.3,1.4,0.4l1.4,0.4c0.9,0.3,1.8,0.5,2.7,0.8
					l2.7,0.8l2.7,0.8c0.9,0.3,1.8,0.5,2.7,0.8v0.1c-0.9-0.1-1.9-0.3-2.8-0.4c-0.9-0.1-1.9-0.3-2.8-0.5c-0.9-0.2-1.9-0.4-2.8-0.5
					c-0.9-0.2-1.9-0.4-2.8-0.6l-1.4-0.4c-0.5-0.1-0.9-0.2-1.4-0.4c-0.9-0.3-1.8-0.5-2.7-0.8c-0.9-0.3-1.8-0.6-2.7-1
					c-0.4-0.2-0.9-0.4-1.3-0.6c-0.2-0.1-0.4-0.2-0.7-0.3c-0.1-0.1-0.2-0.1-0.3-0.2c-0.1-0.1-0.2-0.1-0.4-0.2l0,0
					c-1.1-0.8-2.2-1.5-3.3-2.3c-1.1-0.8-2.2-1.5-3.3-2.3c-1.1-0.7-2.3-1.4-3.4-2.1c-1.2-0.7-2.4-1.3-3.6-1.8l-0.9-0.4l-0.9-0.4
					l-0.9-0.4c-0.3-0.1-0.6-0.3-0.9-0.4c-1.2-0.6-2.4-1.3-3.6-2c-0.6-0.3-1.1-0.7-1.7-1.1c-0.6-0.4-1.1-0.8-1.7-1.1
					c-0.5-0.4-1.1-0.8-1.6-1.2s-1.1-0.8-1.6-1.3l-0.1-0.1v-0.1c0.1-0.4,0.2-0.9,0.4-1.3L194.2,342.5z"/>
				<path class="st33" d="M217.9,367.8c0,0-5.5,5.5-8.6,9.6c0,0,11.2,5.9,15.3,9.1c0,0,0.8-3.8-1.4-5.3c-2.2-1.6-6-1.5-5.4-4
					s2.4-6.6,1.5-7.3C218.4,369.1,219.2,366.4,217.9,367.8z"/>
				<path class="st34" d="M243.2,365.9c1-1.5,2.1-3,3.6-4.7c0.8-0.9,1.5-1.8,2.1-2.6c-2.7-1.3-17.6-8.5-21.4-11.2
					c-5.6-4.1-17.3-10.8-21.3-10.5c0,0,0.9,1.8,1.3,4.1c0.4,2.3,5.8,4,8.5,7.5c2.7,3.5,1.6,5.4,3.4,6.8c1.8,1.4,7.6,2.5,9.1,5.1
					s13.6,5.4,13.6,5.4S242.8,365.9,243.2,365.9z"/>
				<path class="st35" d="M249.2,359.3c0,0-2.7-1.3-6.8-3.4c-2-1-4.4-2.3-6.9-3.6c-1.3-0.7-2.6-1.4-3.9-2.1
					c-1.3-0.7-2.6-1.5-3.9-2.4c-1.2-0.9-2.5-1.8-3.7-2.6c-1.2-0.8-2.5-1.6-3.7-2.3c-2.4-1.5-4.8-2.7-6.8-3.7s-3.8-1.7-5.1-2
					c-0.6-0.2-1.2-0.3-1.5-0.3c-0.2,0-0.3,0-0.4,0s-0.1,0-0.1,0s0,0,0.1,0s0.2,0,0.4,0c0.4,0,0.9,0.1,1.5,0.2
					c1.3,0.3,3.1,0.9,5.2,1.9c2.1,0.9,4.5,2.2,6.9,3.6c1.2,0.7,2.5,1.5,3.8,2.2c1.3,0.8,2.5,1.6,3.8,2.5c1.2,0.8,2.6,1.5,3.9,2.3
					c1.3,0.7,2.6,1.4,3.9,2c2.5,1.3,4.9,2.4,7,3.4c4.1,2,6.9,3.2,6.9,3.2L249.2,359.3z"/>
				
					<linearGradient id="SVGID_7_" gradientUnits="userSpaceOnUse" x1="247.5" y1="374.0483" x2="247.5" y2="352.5909" gradientTransform="matrix(1 0 0 -1 0 738)">
					<stop  offset="5.118534e-03" style="stop-color:#4C4C4C"/>
					<stop  offset="1" style="stop-color:#353535"/>
				</linearGradient>
				<path class="st36" d="M254.5,385.4c0,0-6.8-9.2-1.2-21.5l-5.2,1.2l-4.7,8.1l-2.8,12.2C240.5,385.4,247.4,383.9,254.5,385.4z"/>
				
					<linearGradient id="SVGID_8_" gradientUnits="userSpaceOnUse" x1="235.4196" y1="400.4258" x2="264.4632" y2="400.4258" gradientTransform="matrix(1 0 0 -1 0 738)">
					<stop  offset="5.118534e-03" style="stop-color:#4C4C4C"/>
					<stop  offset="1" style="stop-color:#353535"/>
				</linearGradient>
				<path class="st37" d="M264.4,335.3c0,0-8.5,5.4-8.8,6c0,0-1.8,1.2-1.7,2.8c0,0-12.8-8.1-18.5-10l9-3l4.6,1.8
					c0,0,2.8-1.3,5.4-0.8c2.6,0.5,4.1,1.2,5.7,1.2C260.1,333.3,263.4,334.6,264.4,335.3z"/>
				
					<linearGradient id="SVGID_9_" gradientUnits="userSpaceOnUse" x1="201.25" y1="417.3258" x2="225.65" y2="417.3258" gradientTransform="matrix(1 0 0 -1 0 738)">
					<stop  offset="0" style="stop-color:#707070"/>
					<stop  offset="0.8127" style="stop-color:#4C4C4C"/>
				</linearGradient>
				<path class="st38" d="M201.2,329.3c0,0,9-1.3,16.1,0l8.3-15.2c0,0-11.2-1.5-12.2-2C213.5,312.1,202.2,325.9,201.2,329.3z"/>
				
					<linearGradient id="SVGID_10_" gradientUnits="userSpaceOnUse" x1="240.5973" y1="427.5758" x2="263.7188" y2="427.5758" gradientTransform="matrix(1 0 0 -1 0 738)">
					<stop  offset="5.118534e-03" style="stop-color:#4C4C4C"/>
					<stop  offset="1" style="stop-color:#353535"/>
				</linearGradient>
				<path class="st39" d="M263.4,317.2c0,0-1-3.8,0-5.1c1-1.3-0.5-7.3-2.2-8.4c0,0-16.8,7.6-20.5,10
					C240.5,313.7,256.9,309.3,263.4,317.2z"/>
				<path class="st29" d="M253.1,373.8c0,0,5.6-11.1,8-12.3c0,0-1.4,8.9,8,13.2l-4.7-6.6c0,0-0.5-3.6-0.2-5s0.7-10.6,0.7-10.6
					s0.9-10.5,2.4-11.3c0,0-1.8,1.1-2.9,3.2C263.4,346.5,252.1,367.8,253.1,373.8z"/>
				<path class="st40" d="M280,396.9c0,0,0.1,0,0.2-0.1s0.2-0.2,0.4-0.4c0.3-0.3,0.7-1,0.8-1.8c0-0.2,0-0.5,0-0.7c0-0.1,0-0.1,0-0.2
					l0,0l0,0v-0.1c0-0.1,0-0.3-0.1-0.4c0-0.3-0.1-0.5-0.2-0.8c-0.1-0.3-0.2-0.6-0.3-0.8c-0.5-1.1-1.3-2.3-2.1-3.6
					c-0.9-1.3-1.9-2.7-2.8-4.2c-0.2-0.4-0.5-0.8-0.7-1.3v-0.1l0,0c0,0,0,0.1,0,0l0,0c0-0.1,0-0.1-0.1-0.2c0-0.1-0.1-0.1-0.1-0.2
					c-0.1-0.2-0.3-0.4-0.4-0.5c-0.6-0.7-1.3-1.4-1.9-2.1c-1.3-1.4-2.7-2.9-4.1-4.4c-0.7-0.8-1.4-1.5-2-2.4c-0.7-0.8-1.3-1.7-1.8-2.6
					s-1-1.9-1.2-3c0-0.1,0-0.3,0-0.4c0-0.1,0-0.3,0-0.4v-0.8c0-0.5,0-1,0-1.5c0-2.1,0-4.1,0-6.1s0.2-3.9,0.4-5.7
					c0.2-1.8,0.5-3.5,0.9-5s0.7-2.9,1.1-4.2c0.1-0.3,0.2-0.6,0.3-0.9c0.1-0.3,0.2-0.6,0.3-0.8c0.2-0.5,0.4-1,0.5-1.4
					c0.4-0.8,0.7-1.5,0.9-2c0.2-0.4,0.3-0.7,0.3-0.7h0.1c0,0-0.1,0.2-0.2,0.7c-0.2,0.5-0.4,1.1-0.7,2c-0.1,0.4-0.3,0.9-0.4,1.4
					c-0.1,0.3-0.2,0.5-0.3,0.8c-0.1,0.3-0.2,0.6-0.2,0.9c-0.3,1.2-0.7,2.6-1,4.1c-0.1,0.8-0.3,1.6-0.4,2.4c-0.1,0.4-0.1,0.8-0.2,1.3
					c0,0.4-0.1,0.9-0.2,1.3s-0.1,0.9-0.1,1.3c0,0.5-0.1,0.9-0.1,1.4c-0.1,0.9-0.1,1.9-0.2,2.9c-0.1,2-0.1,4-0.1,6c0,0.5,0,1-0.1,1.6
					c0,0.5-0.1,1-0.1,1.5c0.1,1,0.5,1.9,0.9,2.8c0.5,0.9,1.1,1.8,1.7,2.6c0.6,0.8,1.3,1.6,2,2.4c1.4,1.5,2.8,2.9,4.3,4.3
					c0.7,0.7,1.4,1.3,2.1,2c0.2,0.2,0.3,0.4,0.5,0.6c0.1,0.1,0.2,0.2,0.2,0.3s0.1,0.1,0.1,0.2l0,0v0.1l0,0v0.1
					c0.1,0.4,0.4,0.8,0.6,1.1c1,1.5,2,2.9,2.8,4.2c0.8,1.3,1.6,2.6,2,3.8c0.1,0.3,0.2,0.6,0.3,0.9c0.1,0.3,0.2,0.6,0.2,0.9
					c0,0.1,0,0.3,0,0.4v0.1v0.1v0.1c0,0.1,0,0.1,0,0.2c0,0.3-0.1,0.5-0.1,0.7c-0.2,0.9-0.7,1.6-1,1.9c-0.2,0.2-0.3,0.3-0.5,0.3
					C280.1,396.9,280.1,397,280,396.9L280,396.9z"/>
				<path class="st29" d="M285.4,333.4c0,0,4.3-0.3,5.5-1.3c0,0-1,3-0.7,4.9s1.4,5.2,0,10.3c0,0-4-0.3-4.8,4.9
					c-0.9,5.2-0.2,10.4-2.2,12.9c0,0,1.6-16.7-4.8-20.3C278.2,344.9,285.9,339.8,285.4,333.4z"/>
				<path class="st19" d="M246,322.6c0,0,16.2-4.2,21-3.2c0,0,6.9,8.4,11.7,11.7c0,0,3.7,3.1,6.7,2.4c0,0,0.1,6.7-5.6,11.5h-1.5"/>
				<path class="st41" d="M259.5,332.1c-1-0.5-1.9-1.1-2.8-1.7s-1.9-1.2-2.8-1.7c-1.8-1.2-3.7-2.4-5.5-3.7c-0.9-0.6-1.8-1.3-2.6-2
					c-0.9-0.7-1.7-1.4-2.6-2.1c-0.8-0.7-1.7-1.4-2.6-2.1c-0.9-0.6-1.8-1.2-2.8-1.8c-0.9-0.6-1.9-1.1-2.9-1.6s-2-1-2.9-1.4
					c-1-0.4-2-0.9-3-1.3c-1-0.4-2.1-0.7-3-0.8c-2.2-0.2-4.4-0.4-6.6-0.7c-2.2-0.3-4.4-0.6-6.5-0.9l0.2-0.1c-0.6,0.5-1.2,1-1.8,1.5
					s-1.1,1-1.7,1.6l-0.1-0.1c0.5-0.6,1-1.2,1.5-1.8s1.1-1.1,1.7-1.6l0.1-0.1h0.1c2.2,0.2,4.4,0.4,6.6,0.6l6.5,0.6
					c0.6,0.1,1.2,0.2,1.7,0.4c0.5,0.2,1.1,0.4,1.6,0.6c1,0.4,2,0.9,3,1.4c2,1,3.9,2.1,5.7,3.3c0.9,0.6,1.8,1.2,2.7,1.9
					c0.4,0.3,0.9,0.7,1.3,1c0.4,0.3,0.9,0.7,1.3,1c0.9,0.7,1.8,1.3,2.7,1.9l2.7,1.8c0.9,0.6,1.8,1.2,2.7,1.9l2.7,1.9l2.7,1.9
					C257.9,330.8,258.8,331.4,259.5,332.1L259.5,332.1z"/>
				
					<linearGradient id="SVGID_11_" gradientUnits="userSpaceOnUse" x1="231.2612" y1="376.3741" x2="268.6612" y2="376.3741" gradientTransform="matrix(1 0 0 -1 0 738)">
					<stop  offset="1.897321e-02" style="stop-color:#4C4C4C"/>
					<stop  offset="0.887" style="stop-color:#605F60"/>
				</linearGradient>
				<path class="st42" d="M256.5,388c0,0-3.5-10.7-3.5-14.2s-0.3-9.3,13.1-32.5l2.4-4.5l-1.7-2.1l-12.1,9c0,0-0.7,9.7-7.9,17.6
					c-7.3,7.9-7.3,14.3-9,16.1c-1.7,1.9-6.4,7.4-6.7,11.2C231.2,388.7,250.4,386.6,256.5,388z"/>
				<path class="st43" d="M255.1,344c0,0,0,0.2,0,0.6c0,0.4-0.1,0.9-0.2,1.6c-0.2,1.4-0.6,3.4-1.5,5.7c-0.4,1.1-1,2.4-1.6,3.6
					c-0.3,0.6-0.7,1.2-1.1,1.8c-0.2,0.3-0.4,0.6-0.6,0.9c-0.1,0.2-0.2,0.3-0.3,0.5l-0.4,0.4c-0.2,0.3-0.5,0.6-0.7,0.9
					c-0.2,0.3-0.5,0.6-0.8,0.9c-0.5,0.6-1,1.2-1.6,1.8c-0.5,0.6-1,1.2-1.5,1.9c-0.2,0.3-0.4,0.7-0.7,1l-0.3,0.5l-0.3,0.5
					c-0.8,1.4-1.5,2.8-2.1,4.2s-1.1,2.9-1.6,4.3c-0.2,0.7-0.5,1.4-0.9,2.1c-0.1,0.2-0.2,0.3-0.3,0.5l-0.2,0.2
					c-0.1,0.1-0.1,0.1-0.2,0.2c-0.2,0.3-0.5,0.5-0.7,0.8c-0.9,1-1.7,2-2.5,3c-0.7,0.9-1.3,1.9-1.9,2.7c-0.5,0.8-0.9,1.6-1.2,2.2
					c-0.3,0.6-0.4,1.2-0.5,1.5c-0.1,0.4-0.1,0.6-0.1,0.6h-0.1c0,0,0-0.2,0-0.6s0.1-0.9,0.4-1.6c0.4-1.4,1.4-3.2,2.7-5.2
					c0.7-1,1.5-2,2.4-3.1c0.2-0.3,0.5-0.5,0.7-0.8c0.1-0.1,0.1-0.1,0.2-0.2l0.1-0.2c0.1-0.1,0.2-0.3,0.3-0.4c0.3-0.6,0.6-1.3,0.8-2
					c0.5-1.4,1.1-2.9,1.7-4.3c0.2-0.4,0.3-0.7,0.5-1.1c0.2-0.4,0.4-0.7,0.6-1.1c0.4-0.7,0.8-1.4,1.3-2l0.3-0.5l0.4-0.5l0.7-1
					c0.3-0.3,0.5-0.6,0.8-0.9c0.2-0.3,0.5-0.6,0.8-0.9c0.5-0.6,1-1.2,1.5-1.8c0.2-0.3,0.5-0.6,0.7-0.9c0.2-0.3,0.4-0.6,0.6-0.9
					l0.3-0.5c0.1-0.2,0.2-0.3,0.3-0.5c0.2-0.3,0.4-0.6,0.6-0.9c0.2-0.3,0.3-0.6,0.5-0.9c0.2-0.3,0.3-0.6,0.5-0.9
					c0.3-0.6,0.6-1.2,0.9-1.8c0.1-0.3,0.3-0.6,0.4-0.9c0.1-0.3,0.2-0.6,0.3-0.8c0.5-1.1,0.8-2.1,1.1-3.1c0.1-0.5,0.3-0.9,0.4-1.3
					c0.1-0.4,0.2-0.8,0.3-1.1c0.2-0.7,0.3-1.2,0.3-1.6C255,344.2,255.1,344,255.1,344L255.1,344z"/>
				<path class="st44" d="M268.8,336.9c0,0-0.1,0.2-0.3,0.5c-0.2,0.3-0.4,0.8-0.7,1.5c-0.6,1.3-1.6,3.1-2.7,5.3
					c-0.6,1.1-1.2,2.3-1.9,3.5c-0.7,1.2-1.4,2.5-2.2,3.8c-0.8,1.3-1.5,2.7-2.2,4.2c-0.2,0.4-0.4,0.7-0.5,1.1
					c-0.2,0.4-0.3,0.7-0.5,1.1c-0.3,0.8-0.6,1.5-0.9,2.3c-0.6,1.5-1.2,3.1-1.7,4.6s-0.9,3-1.1,4.5s-0.3,2.9-0.2,4.3
					c0,1.4,0.2,2.7,0.3,3.9c0.1,0.6,0.2,1.2,0.3,1.7s0.2,1.1,0.3,1.5c0.2,1,0.4,1.8,0.6,2.5c0.4,1.4,0.6,2.2,0.6,2.2h-0.1
					c0,0-0.3-0.8-0.8-2.1c-0.1-0.2-0.1-0.3-0.2-0.5c-0.1-0.2-0.1-0.4-0.2-0.6c-0.1-0.4-0.3-0.9-0.4-1.3c-0.2-0.5-0.3-1-0.4-1.5
					s-0.3-1.1-0.4-1.7c-0.1-0.6-0.2-1.2-0.3-1.9c0-0.3-0.1-0.7-0.1-1c0-0.3-0.1-0.7-0.1-1.1s0-0.7,0-1.1s0-0.7,0-1.1
					c0-0.8,0.1-1.5,0.2-2.3c0.3-1.5,0.7-3.1,1.3-4.6c0.3-0.8,0.6-1.5,0.9-2.3c0.3-0.7,0.7-1.5,1-2.2c0.6-1.5,1.4-3,2.1-4.4
					c0.7-1.5,1.4-2.9,2.1-4.3s1.3-2.7,2-4c0.7-1.2,1.3-2.4,1.9-3.5c1.2-2.1,2.3-3.9,3.1-5.1c0.4-0.6,0.7-1.1,0.9-1.4
					C268.5,337,268.6,336.9,268.8,336.9L268.8,336.9z"/>
				<path class="st45" d="M279.6,397.1c-0.4-0.3-0.9-0.6-1.3-0.9c-0.4-0.3-0.9-0.6-1.3-0.8l-1.3-0.8l-1.4-0.8l-1.4-0.7l-1.4-0.7
					c-0.5-0.2-0.9-0.4-1.4-0.6c-0.5-0.2-1-0.4-1.4-0.6c-0.5-0.2-1-0.4-1.5-0.6c-0.5-0.2-1-0.4-1.5-0.5c-0.5-0.2-1-0.3-1.5-0.5
					c-0.2-0.1-0.5-0.2-0.7-0.2l-0.8-0.2c-0.5-0.1-1-0.3-1.5-0.4l-1.5-0.3c-0.3,0-0.5-0.1-0.8-0.1l-0.8-0.1l-1.6-0.1l0,0l0,0
					c-0.5-0.1-1.1-0.1-1.6-0.2s-1.1-0.1-1.6-0.1c-1.1-0.1-2.1-0.1-3.2-0.1c-0.5,0-1.1,0-1.6,0s-1.1,0-1.6,0h-1.6h-1.6l-1.6,0.1
					c-0.5,0-1.1,0-1.6,0.1c-0.5,0-1.1,0.1-1.6,0.1l-1.6,0.2l-1.6,0.2l-0.8,0.1l-0.8,0.1c-0.5,0.1-1,0.1-1.5,0.3l-1.5,0.3h0.1
					c-1,0.5-2,0.9-3,1.4c-1,0.4-2,0.9-3,1.3l-3.1,1.3c-1,0.4-2.1,0.9-3.1,1.3l-0.1-0.1c1-0.6,1.9-1.1,2.9-1.6l2.9-1.6
					c1-0.5,2-1,2.9-1.6c1-0.5,2-1,3-1.5h0.1h0.1l1.6-0.4c0.3-0.1,0.5-0.1,0.8-0.2l0.8-0.1l0.8-0.1l0.8-0.1c0.5-0.1,1.1-0.1,1.6-0.2
					l1.6-0.1c0.5,0,1.1,0,1.6-0.1c0.5,0,1.1,0,1.6,0s1.1,0,1.6,0c1.1,0,2.1,0.1,3.2,0.1c1.1,0.1,2.1,0.2,3.2,0.3s2.1,0.2,3.2,0.3
					l1.6,0.2l1.6,0.2l0,0l1.6,0.1h0.8c0.3,0,0.5,0.1,0.8,0.1l1.6,0.2c0.5,0.1,1.1,0.2,1.6,0.3l0.8,0.1c0.3,0,0.5,0.1,0.8,0.2
					c0.5,0.1,1,0.2,1.6,0.4c0.5,0.2,1,0.3,1.5,0.5c0.5,0.2,1,0.4,1.5,0.6s1,0.4,1.5,0.6s1,0.4,1.4,0.7l1.4,0.8
					c0.5,0.3,0.9,0.6,1.4,0.8c0.4,0.3,0.9,0.6,1.3,0.9s0.9,0.6,1.3,1C278.2,395.6,279,396.3,279.6,397.1L279.6,397.1z"/>
				<path class="st46" d="M288.1,330.9c0,0-5.7,3.2-13.1-5.7c0,0,0.5-4,4.4-1.7c3.9,2.3,5.4,3.4,7.7,3.4
					C289.4,326.9,290.4,330.8,288.1,330.9z"/>
				<path class="st47" d="M292,331.1c-0.8-1.4-1.5-2.9-2.3-4.3l-1.1-2.1l-1.2-2.1l-1.2-2.1l-0.6-1c-0.2-0.3-0.4-0.7-0.7-1
					c-0.2-0.3-0.5-0.6-0.7-0.9c-0.3-0.3-0.5-0.6-0.8-0.9c-0.6-0.6-1.2-1.1-1.8-1.7c-1.2-1.1-2.5-2-3.8-3.1c-0.6-0.5-1.3-1-1.9-1.6
					c-0.6-0.5-1.2-1.1-1.8-1.6c-0.3-0.3-0.6-0.6-0.9-0.9c-0.1-0.1-0.3-0.3-0.4-0.5c-0.1-0.2-0.3-0.3-0.4-0.6c0-0.1-0.1-0.2-0.1-0.3
					l0,0c0-0.1,0,0.1,0,0.1l0,0l0,0v-0.1c0,0,0,0.1,0,0l-0.1-0.1c-0.1-0.1-0.2-0.2-0.4-0.3c-0.3-0.2-0.6-0.4-0.9-0.7
					c-0.7-0.4-1.4-0.8-2.1-1.2s-1.4-0.8-2.1-1.1h0.1c-0.8-0.3-1.5-0.6-2.3-0.8l-1.1-0.4c-0.4-0.1-0.7-0.3-1.1-0.5v-0.1
					c0.4,0.1,0.8,0.1,1.2,0.2l1.2,0.2c0.8,0.2,1.6,0.4,2.3,0.5l0,0l0,0c0.8,0.3,1.5,0.6,2.3,1c0.7,0.3,1.5,0.7,2.2,1.1
					c0.4,0.2,0.7,0.4,1.1,0.7c0.2,0.1,0.4,0.3,0.5,0.5c0,0.1,0.1,0.1,0.1,0.2c0,0.1,0.1,0.2,0.2,0.3v0.1l0,0l0,0v0.1l0,0l0,0
					c0,0.1,0.2,0.2,0.3,0.4l0.4,0.4c0.3,0.3,0.5,0.6,0.8,0.9c0.6,0.6,1.2,1.1,1.7,1.7c0.6,0.6,1.2,1.1,1.8,1.7
					c1.2,1.1,2.3,2.3,3.4,3.5l1.7,1.7l0.9,0.9l0.9,0.9c0.3,0.3,0.5,0.6,0.8,0.9l0.8,1c0.2,0.3,0.5,0.7,0.7,1c0.2,0.3,0.4,0.7,0.7,1
					c0.2,0.4,0.4,0.7,0.6,1.1l0.6,1.1c0.4,0.7,0.7,1.5,1,2.2c0.3,0.8,0.6,1.5,0.9,2.3c0.3,0.8,0.5,1.5,0.7,2.3L292,331.1z"/>
			</g>
		</g>
	</g>
	<g id="Carbon" class="st48">
		<g class="st49">
			<path class="st15" d="M191.2,371.4c0,0-4.9,3,0,6.7c4.9,3.7,20.5,13.8,24.7,15.7c4.1,1.8,18.4,5.1,26.2,6.4c0,0,5.5,1.4,7.4-3.7
				c0,0,4.1-12,6.4-14.5L191.2,371.4z"/>
			<path class="st16" d="M249.4,396.3c0,0,0.2-0.6,0.5-1.5l0,0c0,0-4.7-0.3-7.8-1.2s-5.9-1.8-10.8-1c-4.9,0.8-11,1.6-17,0.3
				c0.6,0.3,1.1,0.6,1.5,0.8c4.1,1.8,18.4,5.1,26.2,6.4C242.1,400,247.6,401.4,249.4,396.3z"/>
			<path class="st17" d="M192.8,371.4c0,0-3.3,1.2-1.9,5.5c0,0,4.7,3.2,11.7,7.7c0,0,0.7-1.4,5.2,0s7.4,1.2,8.8,0
				c1.4-1.2,8.3-3.9,8.3-3.9L192.8,371.4z"/>
			<path class="st18" d="M281.5,378.3c0,0,3.9-10.4,4.1-15s1.8-15.7,3.7-19.8c1.8-4.1,2.3-11.5,2.1-15.4c-0.2-3.9,0.1-12.3,0.1-12.3
				s-3.7-9.6-7.7-13.7c-3.9-4.1-11.3-9.9-11.5-11c-0.2-1.2-6-3.7-6-3.7l-4.6-1.4c0,0-17.5,7.1-24.2,12l-1.3,3L281.5,378.3z"/>
			<path class="st19" d="M237.5,298c0,0-9.7-5.3-14-5.5c-4.2-0.2-6.5-1.8-6.5-1.8s-2.5-0.5-4.6,4.4l8.7,5.5l16.3,2.7V298H237.5z"/>
			<path class="st15" d="M281.5,378.3c0,0-1.8-21.2,0-27c1.8-5.8,0.7-14.8-0.8-18c-1.5-3.1-12.6-11.6-12.6-11.6L262,336l-1.8,17.7
				l6.2,6.9L281.5,378.3z"/>
			<path class="st19" d="M279.1,381.9c0,0,2.4-0.4,2.4-3.6s-5.8-9.9-6.2-11.5c-0.5-1.6-12.2-10.9-11.7-16s-1.2-15.7,4.5-29.1
				l-9.6,8.5l-9.1,23l-0.5,15l4.9,7.6L279.1,381.9z"/>
			
				<linearGradient id="SVGID_12_" gradientUnits="userSpaceOnUse" x1="180.9" y1="386.7879" x2="243.8" y2="386.7879" gradientTransform="matrix(1 0 0 -1 0 738)">
				<stop  offset="0.1326" style="stop-color:#4F4F4F"/>
				<stop  offset="0.8605" style="stop-color:#353535"/>
			</linearGradient>
			<path class="st50" d="M193.3,328.1c0,0-7.6,5.8-12.4,14.5l48.1,31.8l3.7-0.9l9-14.7l2.1-8l-16.8-8.1L193.3,328.1z"/>
			
				<linearGradient id="SVGID_13_" gradientUnits="userSpaceOnUse" x1="177.2" y1="375.6826" x2="230.6" y2="375.6826" gradientTransform="matrix(1 0 0 -1 0 738)">
				<stop  offset="0" style="stop-color:#353535"/>
				<stop  offset="0.8381" style="stop-color:#4C4C4C"/>
			</linearGradient>
			<path class="st51" d="M230.6,373.5c0,0-32.7-23.5-49.7-30.8c0,0-3.7,12-3.7,17.5c0,0,18.9,16.1,29.5,21.6
				C206.7,381.8,211.3,384.1,230.6,373.5z"/>
			<path class="st22" d="M218.6,379.3c0,0,11.8,2.5,21.1,4.6s9.7-1,32.1-1.9c0,0,4.8-1,7.3-0.1c0,0-9.7-8.8-23.1-9.1
				c0,0-15.3-2-25.3,0.7L218.6,379.3z"/>
			
				<linearGradient id="SVGID_14_" gradientUnits="userSpaceOnUse" x1="197.2815" y1="423.9379" x2="266.3" y2="423.9379" gradientTransform="matrix(1 0 0 -1 0 738)">
				<stop  offset="0" style="stop-color:#707070"/>
				<stop  offset="0.5021" style="stop-color:#595959"/>
				<stop  offset="0.8127" style="stop-color:#4C4C4C"/>
			</linearGradient>
			<path class="st52" d="M260.5,316.8c0,0-14-8.1-18.6-12s-13.6-8.3-16.3-8.5c-2.8-0.2-13.1-1.4-13.1-1.4s-4.4,3.7-6.4,7.4
				c-2.1,3.7-6,7.8-6.7,9.7c-0.7,1.8-0.8,2.7-2.1,5.1c-1.2,2.4,56.5,16.2,56.5,16.2l12.5-13.7L260.5,316.8z"/>
			
				<linearGradient id="SVGID_15_" gradientUnits="userSpaceOnUse" x1="193.3" y1="404.7598" x2="253.8" y2="404.7598" gradientTransform="matrix(1 0 0 -1 0 738)">
				<stop  offset="1.928110e-02" style="stop-color:#4F4F4F"/>
				<stop  offset="0.409" style="stop-color:#474747"/>
				<stop  offset="1" style="stop-color:#353535"/>
			</linearGradient>
			<path class="st53" d="M253.8,331.3c0,0-16.5-11.4-30.1-14.2c-13.6-2.8-26.5,0-26.5,0s-3,5.1-3.9,11c0,0,7.4,5.3,12,7.1
				c4.6,1.8,15.7,9.2,15.7,9.2s3,2.5,21.8,6.3C242.7,350.8,252.5,340.9,253.8,331.3z"/>
			<path class="st25" d="M253.7,331.3l-6.6-3.7l-3.3-1.8l-3.3-1.8c-0.6-0.3-1.1-0.6-1.6-0.9l-1.7-0.9c-0.5-0.3-1.1-0.6-1.7-0.9
				c-0.6-0.3-1.1-0.6-1.7-0.8c-0.6-0.3-1.1-0.5-1.7-0.7c-0.3-0.1-0.6-0.2-0.9-0.3l-0.9-0.3c-0.6-0.2-1.2-0.4-1.8-0.6l-1.8-0.5
				c-0.3-0.1-0.6-0.2-0.9-0.2l-0.9-0.2c-0.6-0.1-1.2-0.3-1.8-0.3l-1.9-0.3c-0.6-0.1-1.2-0.1-1.8-0.2l-0.9-0.1l-0.9-0.1
				c-0.6,0-1.2-0.1-1.9-0.1l-1.9-0.1h-1.9c-0.6,0-1.2,0-1.9,0h-0.9h-0.9c-1.2,0-2.5,0.1-3.7,0.1c-1.2,0.1-2.5,0.2-3.7,0.2
				c-1.2,0.1-2.5,0.2-3.7,0.4l0.1-0.1c-0.4,0.6-0.8,1.3-1.2,1.9l-0.1-0.1c0.3-0.7,0.6-1.4,0.9-2.1v-0.1h0.1c1.2-0.3,2.5-0.6,3.7-0.8
				c0.6-0.1,1.2-0.2,1.9-0.3c0.6-0.1,1.2-0.2,1.9-0.2c0.6-0.1,1.3-0.1,1.9-0.2c0.6-0.1,1.3-0.1,1.9-0.1h0.9h0.9c0.6,0,1.3,0,1.9,0
				c0.6,0,1.3,0,1.9,0.1l1.9,0.1c0.6,0,1.3,0.1,1.9,0.2l0.9,0.1l0.9,0.1c0.6,0.1,1.3,0.2,1.9,0.3l1.8,0.4c0.6,0.1,1.2,0.3,1.8,0.5
				c0.6,0.2,1.2,0.3,1.8,0.6l1.8,0.6l1.8,0.7c1.2,0.4,2.3,0.9,3.5,1.3c1.2,0.5,2.3,0.9,3.5,1.4l1.7,0.7c0.6,0.3,1.1,0.5,1.7,0.8
				c0.6,0.3,1.1,0.6,1.7,0.9c0.6,0.3,1.1,0.6,1.7,0.9l1.6,0.9l1.6,1c1.1,0.7,2.1,1.4,3.1,2.1c1,0.7,2,1.5,3,2.3L253.7,331.3z"/>
			<path class="st26" d="M266.2,304.2c-0.3-0.3-0.5-0.7-0.8-1c-0.2-0.4-0.4-0.7-0.6-1.1s-0.4-0.8-0.5-1.2c-0.1-0.2-0.1-0.4-0.2-0.6
				c-0.1-0.2-0.1-0.4-0.1-0.7c0-0.2,0-0.4,0-0.7v-0.3c0-0.1,0-0.2,0-0.3l0.1-0.3c0-0.1,0.1-0.2,0.1-0.3l0.1-0.3
				c0-0.1,0.1-0.2,0.2-0.3l0.2-0.3c0-0.1,0.1-0.2,0.1-0.2c0-0.1,0.1-0.1,0.1-0.2c0-0.1,0.1-0.2,0.1-0.2c0.1-0.3,0.2-0.7,0.2-1.1
				c0-0.7-0.1-1.5-0.3-2.3c-0.2-0.8-0.5-1.6-0.8-2.3c-0.3-0.7-0.7-1.5-1.2-2.1c-0.4-0.7-0.9-1.3-1.5-2l0.3,0.1
				c-0.8,0.4-1.6,0.8-2.4,1.1c-0.8,0.4-1.6,0.8-2.4,1.1l-4.9,2.2l-4.9,2.2l-1.2,0.5c-0.4,0.2-0.8,0.4-1.2,0.6l-1.2,0.6
				c-0.4,0.2-0.8,0.4-1.2,0.6l-0.1-0.1c0.7-0.6,1.4-1.1,2.2-1.6c0.4-0.3,0.8-0.5,1.1-0.7c0.4-0.2,0.8-0.5,1.2-0.7
				c0.4-0.2,0.8-0.5,1.2-0.7l1.2-0.6c0.4-0.2,0.8-0.4,1.2-0.6s0.8-0.4,1.2-0.6c0.8-0.4,1.6-0.7,2.5-1.1c0.8-0.3,1.7-0.7,2.5-1
				c0.8-0.3,1.7-0.6,2.5-0.9l2.6-0.8l0.2-0.1l0.1,0.2c0.5,0.7,0.9,1.4,1.3,2.1c0.4,0.7,0.9,1.4,1.3,2.1c0.4,0.7,0.8,1.5,1.1,2.3
				c0.3,0.8,0.6,1.6,0.6,2.5c0,0.5,0,0.9-0.2,1.4c0,0.1-0.1,0.2-0.1,0.3c-0.1,0.1-0.1,0.2-0.2,0.3l-0.2,0.3l-0.1,0.2
				c0,0.1-0.1,0.2-0.1,0.2l-0.1,0.3c0,0.1-0.1,0.2-0.1,0.3l-0.1,0.3c0,0.1,0,0.2-0.1,0.3v0.3c0,0.2,0,0.4,0,0.6s0,0.4,0,0.6
				s0.1,0.4,0.1,0.6c0.1,0.4,0.2,0.8,0.3,1.2c0.2,0.8,0.5,1.5,0.9,2.3V304.2z"/>
			<path class="st27" d="M230.6,373.5c0,0-0.8-0.4-2.2-1.2c-0.3-0.2-0.7-0.4-1.1-0.7c-0.4-0.2-0.9-0.5-1.3-0.8c-1-0.6-2-1.3-3.2-2
				c-1.1-0.8-2.4-1.6-3.7-2.5s-2.6-1.9-3.9-3c-1.4-1-2.8-2.1-4.3-3.1s-3.1-1.9-4.7-2.8c-1.6-0.9-3.2-1.8-4.8-2.7
				c-1.5-0.9-3.1-1.8-4.6-2.6c-1.5-0.9-2.9-1.7-4.3-2.5c-1.3-0.8-2.6-1.6-3.8-2.3c-1.2-0.7-2.3-1.3-3.2-1.9
				c-0.5-0.3-0.9-0.6-1.3-0.8c-0.4-0.2-0.8-0.5-1.2-0.7c-1.4-0.8-2.2-1.3-2.2-1.3l0.1-0.1c0,0,0.9,0.3,2.4,0.8
				c0.4,0.1,0.8,0.3,1.3,0.5c0.4,0.2,0.9,0.4,1.4,0.6c1,0.5,2.2,1,3.4,1.6s2.6,1.3,3.9,2.1c1.4,0.8,2.8,1.6,4.3,2.5s3,1.9,4.5,2.9
				c0.8,0.5,1.5,1,2.3,1.5c0.7,0.5,1.5,1.1,2.2,1.6c1.5,1.1,3,2.2,4.5,3.1c1.5,1,3,1.9,4.5,2.8c1.5,0.9,2.9,1.7,4.3,2.5
				c1.3,0.9,2.5,1.7,3.6,2.5c1.1,0.8,2.1,1.6,3,2.3c0.9,0.7,1.6,1.3,2.3,1.8c1.2,1,1.9,1.7,1.9,1.7L230.6,373.5z"/>
			<path class="st28" d="M230.2,381.7c0,0,9.8-9.4,33.6-7.4c0,0-26.7-7.4-43.2,3.9l-1.2,0.8L230.2,381.7z"/>
			<path class="st29" d="M268.9,376c-2.1-0.9-13.4-4.2-17.9-3.6c-0.1,0-0.2,0-0.3,0c7.3,0.6,12.6,2.1,12.6,2.1
				c-23.8-2.1-33.6,7.4-33.6,7.4l-2.5-0.6l-0.2,0.1l11,2.3c0,0,4.2,2.5,15.2,0c0,0,9.2-2.8,14.2-2.7
				C272.6,381.2,271,376.9,268.9,376z"/>
			<path class="st30" d="M220.8,375.9c0,0-6.9,4.3-11.7,5c0,0-4,0-9.3-5"/>
			<path class="st31" d="M207.8,360.4c0,0-14.6-10-22-13.8c0,0-1.9,4-1.6,6c0.3,2.1,8.4,8.6,9.1,8.8c0.7,0.2,2.1-0.7,5.4,0
				C202,362.1,208.4,364.5,207.8,360.4z"/>
			<path class="st30" d="M198.6,332.1c0,0,5.4,6.7,10.4,10.5c5,3.8,11.4,6,14.5,7.4s8.3,1.7,11.2,4.7s3.6,5.9,3.6,5.9
				s2.2-5.7,3.8-8.2l-4.7-1.5c0,0-4.5-1.1-8.4-2.7c-4-1.6-14.4-7.2-14.4-7.2l-4.4-2.6l-3.5-1.8C206.8,336.5,198.7,332.9,198.6,332.1
				z"/>
			<path class="st32" d="M193.6,327.3c0,0.5-0.1,0.9-0.1,1.4l-0.1-0.2l3.4,2.1c1.1,0.7,2.3,1.4,3.4,2c0.6,0.3,1.2,0.7,1.7,1
				c0.6,0.3,1.2,0.6,1.7,0.9l0.9,0.5l0.9,0.4c0.3,0.1,0.6,0.3,0.9,0.5l0.9,0.5c0.6,0.3,1.2,0.7,1.7,1c0.6,0.3,1.1,0.7,1.7,1
				c0.6,0.3,1.2,0.7,1.7,1l1.7,1c2.3,1.3,4.7,2.6,7,4.1l0,0c0,0,0.1,0.1,0.2,0.1c0.1,0.1,0.2,0.1,0.3,0.2c0.2,0.1,0.4,0.2,0.6,0.3
				c0.4,0.2,0.9,0.4,1.3,0.5c0.9,0.3,1.8,0.6,2.7,0.9l1.3,0.4l1.4,0.4c0.4,0.1,0.9,0.3,1.4,0.4l1.4,0.4c0.9,0.3,1.8,0.5,2.7,0.8
				l2.7,0.8l2.7,0.8c0.9,0.3,1.8,0.5,2.7,0.8v0.1c-0.9-0.1-1.9-0.3-2.8-0.4c-0.9-0.1-1.9-0.3-2.8-0.5c-0.9-0.2-1.9-0.4-2.8-0.5
				c-0.9-0.2-1.9-0.4-2.8-0.6l-1.4-0.4c-0.5-0.1-0.9-0.2-1.4-0.4c-0.9-0.3-1.8-0.5-2.7-0.8c-0.9-0.3-1.8-0.6-2.7-1
				c-0.4-0.2-0.9-0.4-1.3-0.6c-0.2-0.1-0.4-0.2-0.7-0.3c-0.1-0.1-0.2-0.1-0.3-0.2s-0.2-0.1-0.4-0.2l0,0c-1.1-0.8-2.2-1.5-3.3-2.3
				c-1.1-0.8-2.2-1.5-3.3-2.3c-1.1-0.7-2.3-1.4-3.4-2.1c-1.2-0.7-2.4-1.3-3.6-1.8l-0.9-0.4l-0.9-0.4l-0.9-0.4
				c-0.3-0.1-0.6-0.3-0.9-0.4c-1.2-0.6-2.4-1.3-3.6-2c-0.6-0.3-1.1-0.7-1.7-1.1c-0.6-0.4-1.1-0.8-1.7-1.1c-0.5-0.4-1.1-0.8-1.6-1.2
				s-1.1-0.8-1.6-1.3l-0.1-0.1v-0.1c0.1-0.4,0.2-0.9,0.4-1.3L193.6,327.3z"/>
			<path class="st33" d="M217.2,352.6c0,0-5.5,5.5-8.6,9.6c0,0,11.2,5.9,15.3,9.1c0,0,0.8-3.8-1.4-5.3c-2.2-1.6-6-1.5-5.4-4
				s2.4-6.6,1.5-7.3C217.7,353.9,218.6,351.2,217.2,352.6z"/>
			<path class="st34" d="M242.6,350.7c1-1.5,2.1-3,3.6-4.7c0.8-0.9,1.5-1.8,2.1-2.6c-2.7-1.3-17.6-8.5-21.4-11.2
				c-5.6-4.1-17.3-10.8-21.3-10.5c0,0,0.9,1.8,1.3,4.1c0.4,2.3,5.8,4,8.5,7.5s1.6,5.4,3.4,6.8c1.8,1.4,7.6,2.5,9.1,5.1
				s13.6,5.4,13.6,5.4S242.1,350.7,242.6,350.7z"/>
			<path class="st35" d="M248.6,344.1c0,0-2.7-1.3-6.8-3.4c-2-1-4.4-2.3-6.9-3.6c-1.3-0.7-2.6-1.4-3.9-2.1c-1.3-0.7-2.6-1.5-3.9-2.4
				c-1.2-0.9-2.5-1.8-3.7-2.6c-1.2-0.8-2.5-1.6-3.7-2.3c-2.4-1.5-4.8-2.7-6.8-3.7s-3.8-1.7-5.1-2c-0.6-0.2-1.2-0.3-1.5-0.3
				c-0.2,0-0.3,0-0.4,0c-0.1,0-0.1,0-0.1,0s0,0,0.1,0s0.2,0,0.4,0c0.4,0,0.9,0.1,1.5,0.2c1.3,0.3,3.1,0.9,5.2,1.9
				c2.1,0.9,4.5,2.2,6.9,3.6c1.2,0.7,2.5,1.5,3.8,2.2c1.3,0.8,2.5,1.6,3.8,2.5c1.2,0.8,2.6,1.5,3.9,2.3c1.3,0.7,2.6,1.4,3.9,2
				c2.5,1.3,4.9,2.4,7,3.4c4.1,2,6.9,3.2,6.9,3.2L248.6,344.1z"/>
			
				<linearGradient id="SVGID_16_" gradientUnits="userSpaceOnUse" x1="246.85" y1="389.2604" x2="246.85" y2="367.803" gradientTransform="matrix(1 0 0 -1 0 738)">
				<stop  offset="5.118534e-03" style="stop-color:#4C4C4C"/>
				<stop  offset="1" style="stop-color:#353535"/>
			</linearGradient>
			<path class="st54" d="M253.8,370.2c0,0-6.8-9.2-1.2-21.5l-5.2,1.2l-4.7,8.1l-2.8,12.2C239.9,370.2,246.7,368.7,253.8,370.2z"/>
			
				<linearGradient id="SVGID_17_" gradientUnits="userSpaceOnUse" x1="234.7696" y1="415.6379" x2="263.8132" y2="415.6379" gradientTransform="matrix(1 0 0 -1 0 738)">
				<stop  offset="5.118534e-03" style="stop-color:#4C4C4C"/>
				<stop  offset="1" style="stop-color:#353535"/>
			</linearGradient>
			<path class="st55" d="M263.8,320.1c0,0-8.5,5.4-8.8,6c0,0-1.8,1.2-1.7,2.8c0,0-12.8-8.1-18.5-10l9-3l4.6,1.8c0,0,2.8-1.3,5.4-0.8
				c2.6,0.5,4.1,1.2,5.7,1.2C259.5,318.1,262.8,319.4,263.8,320.1z"/>
			
				<linearGradient id="SVGID_18_" gradientUnits="userSpaceOnUse" x1="200.6" y1="432.5379" x2="225" y2="432.5379" gradientTransform="matrix(1 0 0 -1 0 738)">
				<stop  offset="0" style="stop-color:#707070"/>
				<stop  offset="0.8127" style="stop-color:#4C4C4C"/>
			</linearGradient>
			<path class="st56" d="M200.6,314.1c0,0,9-1.3,16.1,0l8.3-15.2c0,0-11.2-1.5-12.2-2C212.8,296.9,201.6,310.7,200.6,314.1z"/>
			
				<linearGradient id="SVGID_19_" gradientUnits="userSpaceOnUse" x1="239.9473" y1="442.7879" x2="263.0688" y2="442.7879" gradientTransform="matrix(1 0 0 -1 0 738)">
				<stop  offset="5.118534e-03" style="stop-color:#4C4C4C"/>
				<stop  offset="1" style="stop-color:#353535"/>
			</linearGradient>
			<path class="st57" d="M262.7,302c0,0-1-3.8,0-5.1c1-1.3-0.5-7.3-2.2-8.4c0,0-16.8,7.6-20.5,10C239.9,298.5,256.3,294.1,262.7,302
				z"/>
			<path class="st29" d="M252.5,358.6c0,0,5.6-11.1,8-12.3c0,0-1.4,8.9,8,13.2l-4.7-6.6c0,0-0.5-3.6-0.2-5s0.7-10.6,0.7-10.6
				s0.9-10.5,2.4-11.3c0,0-1.8,1.1-2.9,3.2C262.7,331.3,251.5,352.6,252.5,358.6z"/>
			<path class="st40" d="M279.4,381.7c0,0,0.1,0,0.2-0.1s0.2-0.2,0.4-0.4c0.3-0.3,0.7-1,0.8-1.8c0-0.2,0-0.5,0-0.7
				c0-0.1,0-0.1,0-0.2l0,0l0,0v-0.1c0-0.1,0-0.3-0.1-0.4c0-0.3-0.1-0.5-0.2-0.8c-0.1-0.3-0.2-0.6-0.3-0.8c-0.5-1.1-1.3-2.3-2.1-3.6
				c-0.9-1.3-1.9-2.7-2.8-4.2c-0.2-0.4-0.5-0.8-0.7-1.3v-0.1l0,0c0,0,0,0.1,0,0l0,0c0-0.1,0-0.1-0.1-0.2c0-0.1-0.1-0.1-0.1-0.2
				c-0.1-0.2-0.3-0.4-0.4-0.5c-0.6-0.7-1.3-1.4-1.9-2.1c-1.3-1.4-2.7-2.9-4.1-4.4c-0.7-0.8-1.4-1.5-2-2.4c-0.7-0.8-1.3-1.7-1.8-2.6
				c-0.5-0.9-1-1.9-1.2-3c0-0.1,0-0.3,0-0.4s0-0.3,0-0.4v-0.8c0-0.5,0-1,0-1.5c0-2.1,0-4.1,0-6.1s0.2-3.9,0.4-5.7
				c0.2-1.8,0.5-3.5,0.9-5s0.7-2.9,1.1-4.2c0.1-0.3,0.2-0.6,0.3-0.9c0.1-0.3,0.2-0.6,0.3-0.8c0.2-0.5,0.4-1,0.5-1.4
				c0.4-0.8,0.7-1.5,0.9-2c0.2-0.4,0.3-0.7,0.3-0.7h0.1c0,0-0.1,0.2-0.2,0.7c-0.2,0.5-0.4,1.1-0.7,2c-0.1,0.4-0.3,0.9-0.4,1.4
				c-0.1,0.3-0.2,0.5-0.3,0.8c-0.1,0.3-0.2,0.6-0.2,0.9c-0.3,1.2-0.7,2.6-1,4.1c-0.1,0.8-0.3,1.6-0.4,2.4c-0.1,0.4-0.1,0.8-0.2,1.3
				c0,0.4-0.1,0.9-0.2,1.3c-0.1,0.4-0.1,0.9-0.1,1.3c0,0.5-0.1,0.9-0.1,1.4c-0.1,0.9-0.1,1.9-0.2,2.9c-0.1,2-0.1,4-0.1,6
				c0,0.5,0,1-0.1,1.6c0,0.5-0.1,1-0.1,1.5c0.1,1,0.5,1.9,0.9,2.8c0.5,0.9,1.1,1.8,1.7,2.6c0.6,0.8,1.3,1.6,2,2.4
				c1.4,1.5,2.8,2.9,4.3,4.3c0.7,0.7,1.4,1.3,2.1,2c0.2,0.2,0.3,0.4,0.5,0.6c0.1,0.1,0.2,0.2,0.2,0.3s0.1,0.1,0.1,0.2l0,0v0.1l0,0
				v0.1c0.1,0.4,0.4,0.8,0.6,1.1c1,1.5,2,2.9,2.8,4.2c0.8,1.3,1.6,2.6,2,3.8c0.1,0.3,0.2,0.6,0.3,0.9c0.1,0.3,0.2,0.6,0.2,0.9
				c0,0.1,0,0.3,0,0.4v0.1v0.1v0.1c0,0.1,0,0.1,0,0.2c0,0.3-0.1,0.5-0.1,0.7c-0.2,0.9-0.7,1.6-1,1.9c-0.2,0.2-0.3,0.3-0.5,0.3
				C279.5,381.7,279.5,381.8,279.4,381.7L279.4,381.7z"/>
			<path class="st29" d="M284.7,318.2c0,0,4.3-0.3,5.5-1.3c0,0-1,3-0.7,4.9s1.4,5.2,0,10.3c0,0-4-0.3-4.8,4.9
				c-0.9,5.2-0.2,10.4-2.2,12.9c0,0,1.6-16.7-4.8-20.3C277.6,329.7,285.2,324.6,284.7,318.2z"/>
			<path class="st19" d="M245.3,307.4c0,0,16.2-4.2,21-3.2c0,0,6.9,8.4,11.7,11.7c0,0,3.7,3.1,6.7,2.4c0,0,0.1,6.7-5.6,11.5h-1.5"/>
			<path class="st41" d="M258.9,316.9c-1-0.5-1.9-1.1-2.8-1.7c-0.9-0.6-1.9-1.2-2.8-1.7c-1.8-1.2-3.7-2.4-5.5-3.7
				c-0.9-0.6-1.8-1.3-2.6-2c-0.9-0.7-1.7-1.4-2.6-2.1c-0.8-0.7-1.7-1.4-2.6-2.1c-0.9-0.6-1.8-1.2-2.8-1.8c-0.9-0.6-1.9-1.1-2.9-1.6
				s-2-1-2.9-1.4c-1-0.4-2-0.9-3-1.3s-2.1-0.7-3-0.8c-2.2-0.2-4.4-0.4-6.6-0.7c-2.2-0.3-4.4-0.6-6.5-0.9l0.2-0.1
				c-0.6,0.5-1.2,1-1.8,1.5s-1.1,1-1.7,1.6l-0.1-0.1c0.5-0.6,1-1.2,1.5-1.8s1.1-1.1,1.7-1.6l0.1-0.1h0.1c2.2,0.2,4.4,0.4,6.6,0.6
				l6.5,0.6c0.6,0.1,1.2,0.2,1.7,0.4c0.5,0.2,1.1,0.4,1.6,0.6c1,0.4,2,0.9,3,1.4c2,1,3.9,2.1,5.7,3.3c0.9,0.6,1.8,1.2,2.7,1.9
				c0.4,0.3,0.9,0.7,1.3,1c0.4,0.3,0.9,0.7,1.3,1c0.9,0.7,1.8,1.3,2.7,1.9l2.7,1.8c0.9,0.6,1.8,1.2,2.7,1.9l2.7,1.9l2.7,1.9
				C257.2,315.6,258.1,316.2,258.9,316.9L258.9,316.9z"/>
			
				<linearGradient id="SVGID_20_" gradientUnits="userSpaceOnUse" x1="230.6112" y1="391.5862" x2="268.0112" y2="391.5862" gradientTransform="matrix(1 0 0 -1 0 738)">
				<stop  offset="1.897321e-02" style="stop-color:#4C4C4C"/>
				<stop  offset="0.887" style="stop-color:#605F60"/>
			</linearGradient>
			<path class="st58" d="M255.9,372.8c0,0-3.5-10.7-3.5-14.2s-0.3-9.3,13.1-32.5l2.4-4.5l-1.7-2.1l-12.1,9c0,0-0.7,9.7-7.9,17.6
				c-7.3,7.9-7.3,14.3-9,16.1c-1.7,1.9-6.4,7.4-6.7,11.2C230.6,373.5,249.7,371.4,255.9,372.8z"/>
			<path class="st43" d="M254.5,328.8c0,0,0,0.2,0,0.6s-0.1,0.9-0.2,1.6c-0.2,1.4-0.6,3.4-1.5,5.7c-0.4,1.1-1,2.4-1.6,3.6
				c-0.3,0.6-0.7,1.2-1.1,1.8c-0.2,0.3-0.4,0.6-0.6,0.9c-0.1,0.2-0.2,0.3-0.3,0.5l-0.4,0.4c-0.2,0.3-0.5,0.6-0.7,0.9
				c-0.2,0.3-0.5,0.6-0.8,0.9c-0.5,0.6-1,1.2-1.6,1.8c-0.5,0.6-1,1.2-1.5,1.9c-0.2,0.3-0.4,0.7-0.7,1l-0.3,0.5l-0.3,0.5
				c-0.8,1.4-1.5,2.8-2.1,4.2s-1.1,2.9-1.6,4.3c-0.2,0.7-0.5,1.4-0.9,2.1c-0.1,0.2-0.2,0.3-0.3,0.5l-0.2,0.2
				c-0.1,0.1-0.1,0.1-0.2,0.2c-0.2,0.3-0.5,0.5-0.7,0.8c-0.9,1-1.7,2-2.5,3c-0.7,0.9-1.3,1.9-1.9,2.7c-0.5,0.8-0.9,1.6-1.2,2.2
				c-0.3,0.6-0.4,1.2-0.5,1.5c-0.1,0.4-0.1,0.6-0.1,0.6h-0.1c0,0,0-0.2,0-0.6c0-0.4,0.1-0.9,0.4-1.6c0.4-1.4,1.4-3.2,2.7-5.2
				c0.7-1,1.5-2,2.4-3.1c0.2-0.3,0.5-0.5,0.7-0.8c0.1-0.1,0.1-0.1,0.2-0.2l0.1-0.2c0.1-0.1,0.2-0.3,0.3-0.4c0.3-0.6,0.6-1.3,0.8-2
				c0.5-1.4,1.1-2.9,1.7-4.3c0.2-0.4,0.3-0.7,0.5-1.1s0.4-0.7,0.6-1.1c0.4-0.7,0.8-1.4,1.3-2l0.3-0.5l0.4-0.5l0.7-1
				c0.3-0.3,0.5-0.6,0.8-0.9c0.2-0.3,0.5-0.6,0.8-0.9c0.5-0.6,1-1.2,1.5-1.8c0.2-0.3,0.5-0.6,0.7-0.9s0.4-0.6,0.6-0.9l0.3-0.5
				c0.1-0.2,0.2-0.3,0.3-0.5c0.2-0.3,0.4-0.6,0.6-0.9c0.2-0.3,0.3-0.6,0.5-0.9s0.3-0.6,0.5-0.9c0.3-0.6,0.6-1.2,0.9-1.8
				c0.1-0.3,0.3-0.6,0.4-0.9c0.1-0.3,0.2-0.6,0.3-0.8c0.5-1.1,0.8-2.1,1.1-3.1c0.1-0.5,0.3-0.9,0.4-1.3c0.1-0.4,0.2-0.8,0.3-1.1
				c0.2-0.7,0.3-1.2,0.3-1.6C254.4,329,254.5,328.8,254.5,328.8L254.5,328.8z"/>
			<path class="st44" d="M268.1,321.7c0,0-0.1,0.2-0.3,0.5c-0.2,0.3-0.4,0.8-0.7,1.5c-0.6,1.3-1.6,3.1-2.7,5.3
				c-0.6,1.1-1.2,2.3-1.9,3.5c-0.7,1.2-1.4,2.5-2.2,3.8c-0.8,1.3-1.5,2.7-2.2,4.2c-0.2,0.4-0.4,0.7-0.5,1.1
				c-0.2,0.4-0.3,0.7-0.5,1.1c-0.3,0.8-0.6,1.5-0.9,2.3c-0.6,1.5-1.2,3.1-1.7,4.6s-0.9,3-1.1,4.5c-0.2,1.5-0.3,2.9-0.2,4.3
				c0,1.4,0.2,2.7,0.3,3.9c0.1,0.6,0.2,1.2,0.3,1.7s0.2,1.1,0.3,1.5c0.2,1,0.4,1.8,0.6,2.5c0.4,1.4,0.6,2.2,0.6,2.2h-0.1
				c0,0-0.3-0.8-0.8-2.1c-0.1-0.2-0.1-0.3-0.2-0.5c-0.1-0.2-0.1-0.4-0.2-0.6c-0.1-0.4-0.3-0.9-0.4-1.3c-0.2-0.5-0.3-1-0.4-1.5
				c-0.1-0.5-0.3-1.1-0.4-1.7c-0.1-0.6-0.2-1.2-0.3-1.9c0-0.3-0.1-0.7-0.1-1c0-0.3-0.1-0.7-0.1-1.1c0-0.4,0-0.7,0-1.1
				c0-0.4,0-0.7,0-1.1c0-0.8,0.1-1.5,0.2-2.3c0.3-1.5,0.7-3.1,1.3-4.6c0.3-0.8,0.6-1.5,0.9-2.3c0.3-0.7,0.7-1.5,1-2.2
				c0.6-1.5,1.4-3,2.1-4.4c0.7-1.5,1.4-2.9,2.1-4.3c0.7-1.4,1.3-2.7,2-4c0.7-1.2,1.3-2.4,1.9-3.5c1.2-2.1,2.3-3.9,3.1-5.1
				c0.4-0.6,0.7-1.1,0.9-1.4C267.9,321.8,268,321.7,268.1,321.7L268.1,321.7z"/>
			<path class="st45" d="M279,381.9c-0.4-0.3-0.9-0.6-1.3-0.9s-0.9-0.6-1.3-0.8l-1.3-0.8l-1.4-0.8l-1.4-0.7l-1.4-0.7
				c-0.5-0.2-0.9-0.4-1.4-0.6s-1-0.4-1.4-0.6c-0.5-0.2-1-0.4-1.5-0.6s-1-0.4-1.5-0.5c-0.5-0.2-1-0.3-1.5-0.5
				c-0.2-0.1-0.5-0.2-0.7-0.2l-0.8-0.2c-0.5-0.1-1-0.3-1.5-0.4l-1.5-0.3c-0.3,0-0.5-0.1-0.8-0.1l-0.8-0.1l-1.6-0.1l0,0l0,0
				c-0.5-0.1-1.1-0.1-1.6-0.2c-0.5-0.1-1.1-0.1-1.6-0.1c-1.1-0.1-2.1-0.1-3.2-0.1c-0.5,0-1.1,0-1.6,0s-1.1,0-1.6,0h-1.6h-1.6
				l-1.6,0.1c-0.5,0-1.1,0-1.6,0.1c-0.5,0-1.1,0.1-1.6,0.1l-1.6,0.2l-1.6,0.2l-0.8,0.1l-0.8,0.1c-0.5,0.1-1,0.1-1.5,0.3l-1.5,0.3
				h0.1c-1,0.5-2,0.9-3,1.4c-1,0.4-2,0.9-3,1.3l-3.1,1.3c-1,0.4-2.1,0.9-3.1,1.3l-0.1-0.1c1-0.6,1.9-1.1,2.9-1.6l2.9-1.6
				c1-0.5,2-1,2.9-1.6c1-0.5,2-1,3-1.5h0.1h0.1l1.6-0.4c0.3-0.1,0.5-0.1,0.8-0.2l0.8-0.1l0.8-0.1l0.8-0.1c0.5-0.1,1.1-0.1,1.6-0.2
				l1.6-0.1c0.5,0,1.1,0,1.6-0.1c0.5,0,1.1,0,1.6,0s1.1,0,1.6,0c1.1,0,2.1,0.1,3.2,0.1c1.1,0.1,2.1,0.2,3.2,0.3
				c1.1,0.1,2.1,0.2,3.2,0.3l1.6,0.2l1.6,0.2l0,0l1.6,0.1h0.8c0.3,0,0.5,0.1,0.8,0.1l1.6,0.2c0.5,0.1,1.1,0.2,1.6,0.3l0.8,0.1
				c0.3,0,0.5,0.1,0.8,0.2c0.5,0.1,1,0.2,1.6,0.4c0.5,0.2,1,0.3,1.5,0.5c0.5,0.2,1,0.4,1.5,0.6c0.5,0.2,1,0.4,1.5,0.6
				c0.5,0.2,1,0.4,1.4,0.7l1.4,0.8c0.5,0.3,0.9,0.6,1.4,0.8c0.4,0.3,0.9,0.6,1.3,0.9c0.4,0.3,0.9,0.6,1.3,1
				C277.6,380.4,278.4,381.1,279,381.9L279,381.9z"/>
			<path class="st46" d="M287.5,315.7c0,0-5.7,3.2-13.1-5.7c0,0,0.5-4,4.4-1.7c3.9,2.3,5.4,3.4,7.7,3.4
				C288.7,311.7,289.8,315.6,287.5,315.7z"/>
			<path class="st47" d="M291.4,315.9c-0.8-1.4-1.5-2.9-2.3-4.3l-1.1-2.1l-1.2-2.1l-1.2-2.1l-0.6-1c-0.2-0.3-0.4-0.7-0.7-1
				c-0.2-0.3-0.5-0.6-0.7-0.9c-0.3-0.3-0.5-0.6-0.8-0.9c-0.6-0.6-1.2-1.1-1.8-1.7c-1.2-1.1-2.5-2-3.8-3.1c-0.6-0.5-1.3-1-1.9-1.6
				c-0.6-0.5-1.2-1.1-1.8-1.6c-0.3-0.3-0.6-0.6-0.9-0.9c-0.1-0.1-0.3-0.3-0.4-0.5c-0.1-0.2-0.3-0.3-0.4-0.6c0-0.1-0.1-0.2-0.1-0.3
				l0,0c0-0.1,0,0.1,0,0.1l0,0l0,0v-0.1c0,0,0,0.1,0,0l-0.1-0.1c-0.1-0.1-0.2-0.2-0.4-0.3c-0.3-0.2-0.6-0.4-0.9-0.7
				c-0.7-0.4-1.4-0.8-2.1-1.2s-1.4-0.8-2.1-1.1h0.1c-0.8-0.3-1.5-0.6-2.3-0.8l-1.1-0.4c-0.4-0.1-0.7-0.3-1.1-0.5V286
				c0.4,0.1,0.8,0.1,1.2,0.2l1.2,0.2c0.8,0.2,1.6,0.4,2.3,0.5l0,0l0,0c0.8,0.3,1.5,0.6,2.3,1c0.7,0.3,1.5,0.7,2.2,1.1
				c0.4,0.2,0.7,0.4,1.1,0.7c0.2,0.1,0.4,0.3,0.5,0.5c0,0.1,0.1,0.1,0.1,0.2s0.1,0.2,0.2,0.3v0.1l0,0l0,0v0.1l0,0l0,0
				c0,0.1,0.2,0.2,0.3,0.4l0.4,0.4c0.3,0.3,0.5,0.6,0.8,0.9c0.6,0.6,1.2,1.1,1.7,1.7c0.6,0.6,1.2,1.1,1.8,1.7
				c1.2,1.1,2.3,2.3,3.4,3.5l1.7,1.7l0.9,0.9l0.9,0.9c0.3,0.3,0.5,0.6,0.8,0.9l0.8,1c0.2,0.3,0.5,0.7,0.7,1c0.2,0.3,0.4,0.7,0.7,1
				c0.2,0.4,0.4,0.7,0.6,1.1l0.6,1.1c0.4,0.7,0.7,1.5,1,2.2c0.3,0.8,0.6,1.5,0.9,2.3c0.3,0.8,0.5,1.5,0.7,2.3L291.4,315.9z"/>
		</g>
	</g>
	
		<linearGradient id="SVGID_21_" gradientUnits="userSpaceOnUse" x1="235.2501" y1="355.7" x2="235.2501" y2="735" gradientTransform="matrix(1 0 0 -1 0 738)">
		<stop  offset="0" style="stop-color:#FFFFFF"/>
		<stop  offset="0.8053" style="stop-color:#FFFFFF;stop-opacity:0"/>
	</linearGradient>
	<polygon class="st59" points="388.2,312.7 251.2,382.3 82.3,342.6 82.3,3 388.2,3 	"/>
</g>
</svg>
