<?xml version="1.0" encoding="utf-8"?>
<!-- Generator: Adobe Illustrator 19.2.1, SVG Export Plug-In . SVG Version: 6.00 Build 0)  -->
<svg version="1.1" xmlns="http://www.w3.org/2000/svg" xmlns:xlink="http://www.w3.org/1999/xlink" x="0px" y="0px"
	 viewBox="0 0 250 250" style="enable-background:new 0 0 250 250;" xml:space="preserve">
<style type="text/css">
	.st0{fill:#262626;}
	.st1{fill:#2D2D2D;}
	.st2{fill:#1E1E1E;}
	.st3{fill:#5B5A5B;}
	.st4{fill:#353535;}
	.st5{fill:url(#SVGID_1_);}
	.st6{fill:url(#SVGID_2_);}
	.st7{fill:url(#SVGID_3_);}
	.st8{fill:url(#SVGID_4_);}
	.st9{fill:#666666;}
	.st10{fill:#494949;}
	.st11{fill:#636363;}
	.st12{opacity:0.1;enable-background:new    ;}
	.st13{opacity:7.000000e-02;enable-background:new    ;}
	.st14{fill:#282828;}
	.st15{opacity:5.000000e-02;fill:#FFFFFF;enable-background:new    ;}
	.st16{opacity:0.51;fill:#3A3A3A;enable-background:new    ;}
	.st17{fill:#3A3A3A;}
	.st18{opacity:0.25;fill:url(#SVGID_5_);enable-background:new    ;}
	.st19{opacity:0.25;fill:url(#SVGID_6_);enable-background:new    ;}
	.st20{opacity:0.25;fill:url(#SVGID_7_);enable-background:new    ;}
	.st21{opacity:0.25;fill:url(#SVGID_8_);enable-background:new    ;}
	.st22{opacity:0.18;fill:#FFFFFF;enable-background:new    ;}
	.st23{opacity:0.12;enable-background:new    ;}
	.st24{fill:#686868;}
	.st25{opacity:2.000000e-02;fill:#FFFFFF;enable-background:new    ;}
	.st26{fill:#7A7A7A;}
	.st27{fill:#B4ECEF;}
	.st28{fill:#EAEAEA;}
	.st29{fill:#545454;}
	.st30{opacity:0.2;enable-background:new    ;}
	.st31{opacity:0.25;fill:url(#SVGID_9_);enable-background:new    ;}
	.st32{fill:#161616;}
	.st33{fill:url(#SVGID_10_);}
	.st34{fill:#848384;}
	.st35{fill:#565656;}
	.st36{fill:#F4F4F4;}
	.st37{fill:#C6EBF7;}
	.st38{fill:#DCF3F9;}
	.st39{fill:#E4EFF2;}
	.st40{opacity:0.2;fill:#A4DFED;enable-background:new    ;}
	.st41{opacity:0.12;fill:#FFFFFF;enable-background:new    ;}
	.st42{fill:#FFFFFF;}
	.st43{fill:#D3D3D3;}
	.st44{fill:#BCECF7;}
</style>
<g id="Capa_2">
	<path class="st0" d="M39.1,181.8c0,0-9.4,5.8,0,12.9c9.4,7.1,39.5,26.6,47.5,30.1s35.5,9.7,50.5,12.4c0,0,10.6,2.7,14.2-7.1
		c0,0,8-23.1,12.4-28L39.1,181.8z"/>
	<path class="st1" d="M151.8,230.2c0,0,0.4-1.1,1-3l0,0c0,0-9.1-0.6-15.1-2.4c-6-1.8-11.3-3.5-20.8-2c-9.5,1.6-21.1,3.1-32.7,0.5
		c1.1,0.6,2.1,1.1,2.9,1.5c8,3.5,35.5,9.7,50.5,12.4C137.6,237.3,148.3,239.9,151.8,230.2z"/>
	<path class="st2" d="M42.2,181.8c0,0-6.3,2.2-3.7,10.6c0,0,9,6.1,22.6,14.7c0,0,1.3-2.6,10,0c8.6,2.6,14.3,2.4,17,0s16-7.5,16-7.5
		L42.2,181.8z"/>
	<path class="st3" d="M212.9,195.1c0,0,7.5-19.9,8-28.8c0.4-8.9,3.5-30.1,7.1-38.1c3.5-8,4.4-22.2,4-29.7s0.1-23.6,0.1-23.6
		s-7.2-18.5-14.7-26.4s-21.7-19.1-22.2-21.3c-0.4-2.2-11.5-7.1-11.5-7.1l-8.9-2.7c0,0-33.7,13.7-46.5,23l-2.6,5.8L212.9,195.1z"/>
	<path class="st4" d="M128.3,40.5c0,0-18.8-10.2-26.9-10.6s-12.6-3.5-12.6-3.5s-4.8-1-8.8,8.3l16.8,10.6l31.5,5.2V40.5z"/>
	<path class="st0" d="M212.9,195.1c0,0-3.5-40.8,0-52.1s1.3-28.6-1.6-34.6C208.4,102.4,187,86,187,86l-11.7,27.5l-3.5,34.1l12,13.3
		L212.9,195.1z"/>
	
		<linearGradient id="SVGID_1_" gradientUnits="userSpaceOnUse" x1="19.3" y1="108.85" x2="140.3" y2="108.85" gradientTransform="matrix(1 0 0 -1 0 252)">
		<stop  offset="0.1326" style="stop-color:#4F4F4F"/>
		<stop  offset="0.8605" style="stop-color:#353535"/>
	</linearGradient>
	<path class="st5" d="M43.2,98.6c0,0-14.6,11.1-23.9,27.9l92.6,61.2l7.1-1.8l17.3-28.4l4-15.4l-32.4-15.7L43.2,98.6z"/>
	
		<linearGradient id="SVGID_2_" gradientUnits="userSpaceOnUse" x1="12.2" y1="87.6316" x2="115" y2="87.6316" gradientTransform="matrix(1 0 0 -1 0 252)">
		<stop  offset="0" style="stop-color:#353535"/>
		<stop  offset="0.8381" style="stop-color:#4C4C4C"/>
	</linearGradient>
	<path class="st6" d="M115,185.9c0,0-62.9-45.2-95.7-59.4c0,0-7.1,23-7.1,33.7c0,0,36.3,31,56.7,41.7
		C68.9,201.8,77.7,206.2,115,185.9z"/>
	
		<linearGradient id="SVGID_3_" gradientUnits="userSpaceOnUse" x1="50.6617" y1="180.45" x2="183.7" y2="180.45" gradientTransform="matrix(1 0 0 -1 0 252)">
		<stop  offset="0" style="stop-color:#707070"/>
		<stop  offset="0.5021" style="stop-color:#595959"/>
		<stop  offset="0.8127" style="stop-color:#4C4C4C"/>
	</linearGradient>
	<path class="st7" d="M172.6,76.8c0,0-27-15.5-35.9-23s-26.1-16-31.5-16.4S80,34.7,80,34.7s-8.4,7.1-12.4,14.2S56,64,54.7,67.5
		s-1.6,5.1-4,9.7s108.9,31.2,108.9,31.2L183.7,82L172.6,76.8z"/>
	
		<linearGradient id="SVGID_4_" gradientUnits="userSpaceOnUse" x1="43.2" y1="143.4778" x2="159.6" y2="143.4778" gradientTransform="matrix(1 0 0 -1 0 252)">
		<stop  offset="1.928110e-02" style="stop-color:#4F4F4F"/>
		<stop  offset="0.409" style="stop-color:#474747"/>
		<stop  offset="1" style="stop-color:#353535"/>
	</linearGradient>
	<path class="st8" d="M159.6,104.6c0,0-31.8-22-57.9-27.3s-51,0-51,0S45,87,43.2,98.6c0,0,14.2,10.2,23,13.7
		c8.9,3.5,30.1,17.7,30.1,17.7s5.8,4.7,41.9,12.1C138.2,142.1,157.2,123.1,159.6,104.6z"/>
	<path class="st9" d="M159.5,104.7l-12.6-7l-6.3-3.5l-6.3-3.4c-1.1-0.6-2.1-1.2-3.1-1.7l-3.2-1.7c-1.1-0.6-2.1-1.1-3.2-1.7
		c-1.1-0.5-2.2-1.1-3.2-1.6c-1.1-0.5-2.2-0.9-3.3-1.4c-0.6-0.2-1.1-0.5-1.7-0.7l-1.7-0.6c-1.1-0.4-2.3-0.8-3.4-1.1l-3.5-0.9
		c-0.6-0.1-1.2-0.3-1.7-0.4l-1.8-0.3c-1.2-0.2-2.3-0.5-3.5-0.6l-3.6-0.5c-1.2-0.2-2.4-0.3-3.6-0.4L92,76.9l-1.8-0.1
		c-1.2-0.1-2.4-0.2-3.6-0.3L83,76.3l-3.6-0.1c-1.2,0-2.4,0-3.6,0H74h-1.8c-2.4,0-4.8,0.1-7.2,0.2c-2.4,0.1-4.8,0.3-7.2,0.5
		s-4.8,0.5-7.1,0.8l0.3-0.2c-0.8,1.2-1.5,2.5-2.3,3.7l-0.2-0.1c0.5-1.4,1.1-2.7,1.8-4.1l0.1-0.1l0.2-0.1c2.4-0.6,4.7-1.1,7.1-1.5
		c1.2-0.2,2.4-0.4,3.6-0.6c1.2-0.2,2.4-0.3,3.6-0.4s2.4-0.2,3.6-0.3c1.2-0.1,2.4-0.2,3.6-0.2l1.8-0.1h1.8c1.2,0,2.4,0,3.6,0
		s2.4,0,3.6,0.1l3.6,0.3c1.2,0.1,2.4,0.3,3.6,0.4l1.8,0.2L94,75c1.2,0.2,2.4,0.4,3.6,0.6l3.5,0.7c1.2,0.3,2.4,0.6,3.5,1
		c1.2,0.3,2.3,0.6,3.5,1.1l3.4,1.2l3.4,1.3c2.3,0.8,4.5,1.8,6.8,2.6c2.2,0.9,4.5,1.7,6.7,2.7l3.3,1.4c1.1,0.5,2.2,1,3.3,1.5
		s2.2,1.1,3.2,1.6c1.1,0.6,2.1,1.1,3.2,1.7l3.1,1.8l3.1,1.9c2,1.3,4.1,2.6,6,4c2,1.4,3.9,2.8,5.8,4.4L159.5,104.7z"/>
	<path class="st10" d="M183.6,52.5c-0.5-0.6-1-1.3-1.5-1.9c-0.4-0.7-0.8-1.4-1.2-2.1c-0.4-0.7-0.7-1.5-0.9-2.3
		c-0.1-0.4-0.2-0.8-0.3-1.2s-0.2-0.8-0.2-1.3c-0.1-0.4-0.1-0.9-0.1-1.3v-0.7c0-0.2,0.1-0.4,0.1-0.7l0.1-0.7c0.1-0.2,0.1-0.4,0.2-0.6
		l0.2-0.6c0.1-0.2,0.2-0.4,0.3-0.6l0.3-0.6c0-0.1,0.2-0.3,0.3-0.5s0.1-0.3,0.2-0.4c0.1-0.1,0.1-0.3,0.2-0.5c0.2-0.6,0.3-1.3,0.3-2
		c0-1.4-0.2-2.9-0.5-4.4c-0.4-1.5-0.9-3-1.6-4.4c-0.7-1.4-1.4-2.8-2.3-4.1c-0.9-1.3-1.8-2.6-2.8-3.8L175,18
		c-1.6,0.7-3.1,1.5-4.7,2.2c-1.6,0.7-3.1,1.4-4.7,2.2l-9.4,4.3l-9.5,4.1l-2.4,1.1c-0.8,0.4-1.6,0.7-2.4,1.1l-2.4,1.1
		c-0.8,0.4-1.5,0.8-2.3,1.1l-0.1-0.2c1.3-1.1,2.8-2.1,4.2-3.1c0.7-0.5,1.5-0.9,2.2-1.4s1.5-0.9,2.2-1.3c0.8-0.4,1.5-0.9,2.3-1.3
		l2.3-1.2c0.8-0.4,1.6-0.8,2.3-1.1c0.8-0.4,1.6-0.8,2.4-1.1c1.6-0.7,3.2-1.4,4.8-2.1s3.2-1.3,4.8-1.9s3.2-1.2,4.9-1.8l5-1.6l0.4-0.1
		l0.2,0.3c0.9,1.3,1.7,2.7,2.6,4.1c0.8,1.4,1.7,2.7,2.4,4.1c0.8,1.4,1.6,2.8,2.2,4.3c0.6,1.5,1.1,3.1,1.2,4.9c0,0.9-0.1,1.8-0.3,2.7
		c-0.1,0.2-0.1,0.4-0.2,0.7c-0.1,0.2-0.2,0.5-0.3,0.7l-0.3,0.5l-0.2,0.4c-0.1,0.1-0.2,0.3-0.2,0.4l-0.2,0.5
		c-0.1,0.2-0.1,0.3-0.2,0.5l-0.1,0.5c0,0.2-0.1,0.3-0.1,0.5v0.5c0,0.4,0,0.7,0,1.1c0,0.4,0,0.7,0.1,1.1c0,0.4,0.1,0.7,0.2,1.1
		c0.1,0.7,0.3,1.5,0.6,2.2c0.5,1.5,1,2.9,1.7,4.4H183.6z"/>
	<path class="st11" d="M114.9,186c0,0-1.6-0.8-4.2-2.4c-0.7-0.4-1.4-0.8-2.2-1.3c-0.8-0.5-1.7-1-2.6-1.6c-1.8-1.1-3.9-2.4-6.1-3.9
		s-4.6-3-7.1-4.8c-2.5-1.7-5-3.7-7.6-5.8c-2.6-2-5.4-4.1-8.3-5.9c-2.9-1.9-5.9-3.7-9-5.4s-6.2-3.4-9.2-5.2s-5.9-3.4-8.8-5.1
		c-2.8-1.7-5.6-3.2-8.2-4.8c-2.6-1.6-5-3-7.3-4.4c-2.2-1.4-4.3-2.6-6.2-3.7c-0.9-0.5-1.8-1.1-2.6-1.5c-0.8-0.5-1.5-0.9-2.2-1.3
		c-2.7-1.5-4.2-2.5-4.2-2.5l0.1-0.3c0,0,1.7,0.5,4.6,1.6c0.7,0.3,1.5,0.6,2.4,0.9c0.9,0.4,1.8,0.8,2.8,1.2c2,0.9,4.2,1.8,6.6,3
		s5,2.5,7.6,4c2.7,1.5,5.4,3.1,8.2,4.9c2.8,1.8,5.7,3.6,8.6,5.5c1.5,1,2.9,1.9,4.3,3c1.4,1,2.9,2.1,4.3,3.1c2.9,2.1,5.7,4.1,8.6,6
		s5.8,3.7,8.7,5.3c2.9,1.6,5.7,3.2,8.2,4.9s4.9,3.3,7,4.9c2.1,1.6,4.1,3,5.8,4.4c1.7,1.3,3.2,2.5,4.3,3.5c2.4,2,3.7,3.2,3.7,3.2
		L114.9,186z"/>
	<path class="st12" d="M96.1,190.5c0,0-13.3,8.3-22.6,9.6c0,0-7.6,0-18-9.6"/>
	<path class="st13" d="M71,160.6c0,0-28.1-19.3-42.4-26.6c0,0-3.7,7.6-3,11.6s16.2,16.6,17.6,17c1.4,0.3,4-1.3,10.3,0
		S72.2,168.7,71,160.6z"/>
	<path class="st12" d="M53.4,106.3c0,0,10.5,13,20.1,20.2s21.9,11.5,27.9,14.2s16,3.3,21.6,9c5.6,5.7,7,11.3,7,11.3s4.2-11,7.3-15.9
		l-9-2.9c0,0-8.6-2.1-16.3-5.1c-7.6-3-27.8-13.8-27.8-13.8l-8.4-5l-6.6-3.4C69.1,114.7,53.5,107.8,53.4,106.3z"/>
	<path class="st14" d="M43.8,97c-0.1,0.9-0.1,1.7-0.2,2.6l-0.1-0.3l6.6,4c2.2,1.3,4.4,2.6,6.6,3.9c1.1,0.7,2.2,1.3,3.3,1.9
		s2.2,1.2,3.4,1.8l1.7,0.9l1.7,0.8c0.6,0.3,1.2,0.6,1.7,0.9l1.7,1c1.1,0.7,2.2,1.3,3.3,2c1.1,0.6,2.2,1.3,3.3,2
		c1.1,0.7,2.2,1.3,3.3,2l3.3,2c4.5,2.6,9,5.1,13.4,7.8l0.1,0.1c0.1,0,0.3,0.2,0.5,0.3s0.4,0.2,0.6,0.3c0.4,0.2,0.8,0.4,1.2,0.6
		c0.8,0.3,1.6,0.7,2.5,1c1.7,0.6,3.4,1.2,5.1,1.7l2.6,0.8l2.6,0.8c0.9,0.3,1.7,0.5,2.6,0.8l2.6,0.7c1.8,0.5,3.5,1,5.2,1.5l5.3,1.5
		l5.3,1.5c1.8,0.5,3.5,1,5.3,1.5v0.2c-1.8-0.2-3.6-0.5-5.4-0.7c-1.8-0.3-3.6-0.6-5.4-0.9c-1.8-0.3-3.6-0.7-5.4-1
		c-1.8-0.4-3.6-0.8-5.4-1.2l-2.7-0.7c-0.9-0.2-1.8-0.4-2.7-0.7c-1.8-0.5-3.5-1-5.3-1.6c-1.7-0.6-3.5-1.2-5.2-1.9
		c-0.9-0.4-1.7-0.7-2.6-1.1c-0.4-0.2-0.8-0.4-1.3-0.7c-0.2-0.1-0.4-0.2-0.6-0.4c-0.2-0.1-0.4-0.2-0.7-0.5l0.1,0.1
		c-2.1-1.5-4.2-2.9-6.3-4.4c-2.1-1.5-4.2-3-6.4-4.4c-2.2-1.4-4.3-2.8-6.6-4c-2.2-1.3-4.6-2.4-6.9-3.4l-1.7-0.7l-1.8-0.7l-1.8-0.7
		c-0.6-0.2-1.2-0.5-1.8-0.8c-2.4-1.1-4.6-2.4-6.8-3.8c-1.1-0.7-2.2-1.4-3.3-2.1s-2.1-1.5-3.2-2.2c-1.1-0.8-2.1-1.5-3.1-2.3
		s-2-1.6-3-2.4l-0.2-0.2V100c0.2-0.8,0.5-1.7,0.7-2.5L43.8,97z"/>
	<path class="st15" d="M89.2,145.7c0,0-10.7,10.6-16.6,18.4c0,0,21.6,11.3,29.4,17.6c0,0,1.5-7.3-2.7-10.3c-4.1-3-11.5-2.8-10.5-7.7
		s4.6-12.7,3-14.1C90.2,148.2,91.9,143,89.2,145.7z"/>
	<path class="st16" d="M138.1,142c1.8-2.8,4.1-5.8,7-9c1.5-1.7,2.9-3.4,4.1-5.1c-5.3-2.5-33.9-16.4-41.1-21.6
		c-10.9-7.8-33.4-20.8-41-20.2c0,0,1.7,3.5,2.5,7.9s11.2,7.6,16.4,14.5c5.2,6.8,3,10.4,6.6,13c3.5,2.7,14.6,4.8,17.6,9.7
		c3,4.9,26.2,10.5,26.2,10.5S137,142,138.1,142z"/>
	<path class="st17" d="M149.6,129.4c0,0-5.3-2.6-13.1-6.6c-3.9-2-8.5-4.4-13.3-7c-2.4-1.3-4.9-2.7-7.4-4.1s-5-2.9-7.5-4.6
		c-2.4-1.7-4.7-3.4-7.1-5s-4.8-3.1-7.1-4.5c-4.7-2.8-9.2-5.3-13.1-7.2c-3.9-1.9-7.4-3.2-9.8-3.9C70,86.2,69,86,68.3,86
		c-0.3,0-0.6,0-0.8,0c-0.2,0-0.3,0-0.3,0s0.1,0,0.3,0c0.2,0,0.4,0,0.8,0c0.7,0,1.7,0.2,2.9,0.4c2.5,0.6,6,1.8,10,3.6
		c4,1.8,8.6,4.1,13.3,6.9c2.4,1.4,4.8,2.8,7.3,4.3c2.4,1.5,4.9,3.2,7.3,4.8c2.4,1.6,5,3,7.5,4.3c2.5,1.4,5,2.6,7.5,3.9
		c4.9,2.5,9.5,4.7,13.4,6.6c7.9,3.8,13.2,6.2,13.2,6.2L149.6,129.4z"/>
	
		<linearGradient id="SVGID_5_" gradientUnits="userSpaceOnUse" x1="146.2997" y1="113.7" x2="146.2997" y2="72.4" gradientTransform="matrix(1 0 0 -1 0 252)">
		<stop  offset="5.118534e-03" style="stop-color:#4C4C4C"/>
		<stop  offset="1" style="stop-color:#353535"/>
	</linearGradient>
	<path class="st18" d="M159.6,179.6c0,0-13.1-17.7-2.2-41.3l-10.1,2.3l-9,15.5l-5.3,23.5C132.9,179.6,145.9,176.7,159.6,179.6z"/>
	
		<linearGradient id="SVGID_6_" gradientUnits="userSpaceOnUse" x1="123" y1="164.7" x2="178.9" y2="164.7" gradientTransform="matrix(1 0 0 -1 0 252)">
		<stop  offset="5.118534e-03" style="stop-color:#4C4C4C"/>
		<stop  offset="1" style="stop-color:#353535"/>
	</linearGradient>
	<path class="st19" d="M178.9,83c0,0-16.4,10.4-17,11.5c0,0-3.5,2.2-3.3,5.3c0,0-24.6-15.5-35.6-19.3l17.3-5.7l8.9,3.5
		c0,0,5.4-2.5,10.4-1.5s7.8,2.3,11,2.3C170.5,79.3,177,81.8,178.9,83z"/>
	
		<linearGradient id="SVGID_7_" gradientUnits="userSpaceOnUse" x1="57.2" y1="197" x2="104.1479" y2="197" gradientTransform="matrix(1 0 0 -1 0 252)">
		<stop  offset="0" style="stop-color:#707070"/>
		<stop  offset="0.8127" style="stop-color:#4C4C4C"/>
	</linearGradient>
	<path class="st20" d="M57.2,71.6c0,0,17.3-2.5,30.9,0l16-29.4c0,0-21.6-3-23.5-3.8C80.6,38.5,59.2,65.1,57.2,71.6z"/>
	
		<linearGradient id="SVGID_8_" gradientUnits="userSpaceOnUse" x1="132.9474" y1="216.65" x2="177.4916" y2="216.65" gradientTransform="matrix(1 0 0 -1 0 252)">
		<stop  offset="5.118534e-03" style="stop-color:#4C4C4C"/>
		<stop  offset="1" style="stop-color:#353535"/>
	</linearGradient>
	<path class="st21" d="M176.8,48.3c0,0-2-7.3,0-9.8s-1-14.1-4.3-16.1c0,0-32.3,14.6-39.6,19.3C132.9,41.6,164.5,33,176.8,48.3z"/>
	<path class="st22" d="M157.1,157.3c0,0,10.8-21.4,15.4-23.7c0,0-2.7,17.1,15.4,25.4l-9.1-12.7c0,0-1-7-0.4-9.6
		c0.6-2.7,1.4-20.3,1.4-20.3s1.7-20.3,4.7-21.7c0,0-3.5,2.2-5.6,6.2S155.1,145.7,157.1,157.3z"/>
	<path class="st23" d="M219,79.5c0,0,8.2-0.6,10.6-2.6c0,0-2,5.8-1.3,9.5s2.7,10.1,0,19.9c0,0-7.6-0.5-9.3,9.4s-0.3,19.9-4.3,24.9
		c0,0,3.1-32.1-9.3-39C205.4,101.7,220,91.8,219,79.5z"/>
	<path class="st4" d="M143.2,58.7c0,0,31.2-8,40.4-6.2c0,0,13.2,16.1,22.5,22.5c0,0,7.1,5.9,12.9,4.6c0,0,0.2,12.9-10.8,22.2h-2.8"
		/>
	<path class="st24" d="M169.5,77c-1.9-1-3.7-2.1-5.5-3.2s-3.6-2.2-5.4-3.4c-3.6-2.3-7.1-4.6-10.5-7.1c-1.7-1.2-3.4-2.6-5-3.8
		c-1.7-1.3-3.3-2.7-4.9-4c-1.6-1.4-3.2-2.8-4.9-4s-3.5-2.4-5.3-3.4c-1.8-1.1-3.7-2.1-5.5-3c-1.9-0.9-3.8-1.9-5.7-2.7
		c-1.9-0.9-3.8-1.7-5.8-2.4c-1.9-0.7-4-1.4-5.9-1.6c-4.2-0.4-8.4-0.8-12.6-1.3s-8.4-1.1-12.6-1.7l0.3-0.1c-1.2,0.9-2.3,1.9-3.4,2.9
		s-2.2,2-3.3,3.1L73.4,41c0.9-1.2,1.9-2.3,3-3.4c1-1.1,2.1-2.1,3.2-3.2l0.1-0.1h0.2c4.2,0.3,8.4,0.7,12.6,1.1l12.6,1.2
		c1.2,0.1,2.2,0.4,3.2,0.8c1,0.3,2,0.7,3,1.1c2,0.8,3.9,1.7,5.8,2.6c3.8,1.9,7.5,4.1,11,6.4c1.8,1.2,3.5,2.4,5.2,3.6
		c0.9,0.6,1.7,1.3,2.5,1.9c0.8,0.7,1.6,1.3,2.5,2c1.7,1.3,3.4,2.5,5.2,3.7l5.2,3.5c1.7,1.2,3.5,2.4,5.2,3.6l5.2,3.6l5.2,3.7
		c1.7,1.2,3.4,2.5,5.1,3.7L169.5,77z"/>
	<path class="st25" d="M224.5,74.6c0,0-11.1,6.2-25.3-11.1c0,0,1.1-7.6,8.5-3.3s10.4,6.6,14.8,6.6C226.9,66.9,228.9,74.5,224.5,74.6
		z"/>
	<path class="st26" d="M232,75c-1.5-2.7-3-5.5-4.4-8.2l-2.2-4.1l-2.2-4.1l-2.2-4l-1.2-2c-0.4-0.7-0.8-1.3-1.3-1.9
		c-0.4-0.6-0.9-1.2-1.4-1.8s-1-1.2-1.6-1.7c-1.1-1.1-2.2-2.2-3.4-3.2c-2.3-2.1-4.8-3.9-7.3-5.9c-1.2-1-2.4-2-3.6-3
		c-1.2-1-2.4-2-3.5-3.1c-0.6-0.5-1.2-1.1-1.7-1.7c-0.3-0.3-0.6-0.6-0.8-0.9c-0.3-0.3-0.6-0.6-0.8-1.2c-0.1-0.1-0.2-0.3-0.2-0.5v-0.1
		c0-0.1,0,0.1,0,0.1l0,0v-0.1v-0.1v0.1l-0.1-0.1c-0.2-0.2-0.4-0.4-0.7-0.6c-0.5-0.4-1.2-0.9-1.8-1.3c-1.3-0.8-2.6-1.6-4-2.3
		c-1.4-0.7-2.7-1.5-4.1-2.2h0.1c-1.5-0.5-2.9-1.1-4.3-1.6l-2.2-0.9c-0.7-0.3-1.4-0.6-2.1-0.9l0.1-0.2c0.8,0.1,1.5,0.3,2.3,0.4
		l2.3,0.5c1.5,0.3,3,0.7,4.5,1l0,0h0.1c1.5,0.6,2.9,1.2,4.4,1.8c1.4,0.7,2.9,1.4,4.2,2.2c0.7,0.4,1.4,0.8,2.1,1.4
		c0.3,0.3,0.7,0.6,1,1c0.1,0.1,0.2,0.2,0.3,0.3c0.1,0.1,0.2,0.4,0.3,0.6c0,0.1,0,0.1,0.1,0.2V27l0,0c0,0,0.1,0.3,0,0.1l0,0
		c0,0,0-0.1,0,0c0.1,0.2,0.3,0.5,0.5,0.7l0.7,0.8c0.5,0.6,1,1.1,1.6,1.6c1.1,1.1,2.2,2.2,3.3,3.2c1.1,1.1,2.3,2.1,3.4,3.2
		c2.2,2.2,4.4,4.5,6.6,6.7l3.3,3.3l1.7,1.6l1.6,1.7c0.5,0.6,1.1,1.2,1.6,1.8l1.5,1.9c0.5,0.6,0.9,1.3,1.4,1.9c0.4,0.7,0.9,1.3,1.3,2
		c0.4,0.7,0.8,1.4,1.2,2.1l1.1,2.1c0.7,1.4,1.3,2.8,2,4.3c0.6,1.5,1.2,2.9,1.7,4.4s1,3,1.4,4.5L232,75z"/>
	<path class="st27" d="M187.1,86.2c0,0-0.2,0.4-0.5,1c-0.3,0.7-0.8,1.6-1.4,2.9c-1.2,2.5-3.1,6-5.3,10.1c-1.1,2.1-2.3,4.3-3.6,6.7
		c-1.3,2.4-2.8,4.8-4.2,7.4c-1.5,2.6-2.9,5.2-4.3,8c-0.3,0.7-0.7,1.4-1,2.1s-0.6,1.4-0.9,2.1c-0.6,1.4-1.1,2.9-1.7,4.4
		c-1.1,3-2.3,5.9-3.3,8.8c-1,2.9-1.7,5.8-2.1,8.7c-0.4,2.9-0.5,5.7-0.4,8.3c0.1,2.7,0.3,5.2,0.7,7.5c0.1,1.2,0.4,2.3,0.6,3.3
		c0.2,1,0.3,2.1,0.6,3c0.5,1.9,0.8,3.5,1.2,4.8c0.7,2.7,1.1,4.2,1.1,4.2l-0.1,0.1c0,0-0.6-1.5-1.6-4.1c-0.1-0.3-0.3-0.7-0.4-1
		c-0.1-0.4-0.2-0.7-0.4-1.1c-0.2-0.8-0.5-1.7-0.8-2.6c-0.3-0.9-0.5-1.9-0.8-3c-0.2-1.1-0.6-2.2-0.7-3.3c-0.2-1.2-0.5-2.4-0.6-3.7
		c-0.1-0.6-0.1-1.3-0.2-2c-0.1-0.7-0.1-1.3-0.1-2s0-1.4-0.1-2.1c0-0.7,0.1-1.4,0.1-2.1c0-1.4,0.2-2.9,0.5-4.4c0.5-3,1.3-6,2.4-8.9
		c0.6-1.5,1.2-2.9,1.8-4.4c0.7-1.4,1.3-2.9,2-4.3c1.3-2.9,2.6-5.8,4-8.5c1.4-2.8,2.7-5.5,4-8.2s2.5-5.3,3.8-7.6
		c1.3-2.4,2.5-4.6,3.7-6.7c2.4-4.1,4.4-7.5,5.9-9.8c0.7-1.2,1.3-2.1,1.7-2.7s0.6-0.9,0.6-0.9H187.1z"/>
	<path class="st28" d="M187,86.2l-0.7-0.9c-9.3,13.1-38.1,54.8-40.4,69.4c-1.7,10.9-3.8,22.3-5.1,29.2c9-0.4,18-0.4,22.9,0.7
		c0,0-6.6-20.6-6.6-27.3s-0.7-17.9,25.3-62.5L187,86.2z"/>
	<g>
		<path class="st4" d="M208.5,202.4c0,0,4.7-0.8,4.7-7s-11.1-19.1-12-22.3c-0.9-3.1-23.6-21.1-22.7-31c0.9-10-2.2-30.4,8.7-56.3
			l-18.5,16.5l-17.7,44.5l-0.9,29l9.6,14.7L208.5,202.4z"/>
		<path class="st29" d="M91.5,197.3c0,0,22.8,4.8,40.8,8.8c18,4,18.7-1.9,62.1-3.6c0,0,9.4-1.8,14-0.1c0,0-18.7-17-44.8-17.7
			c0,0-29.6-3.9-49,1.3L91.5,197.3z"/>
		<path class="st30" d="M113.9,202.1c0,0,18.9-18.2,65.1-14.2c0,0-51.6-14.3-83.6,7.6L93,197L113.9,202.1z"/>
		<path class="st23" d="M188.8,191.1c-4-1.6-25.9-8.1-34.5-7.1c-0.2,0-0.4,0.1-0.6,0.1c14.2,1.2,24.4,4,24.4,4
			c-46.1-4-65.1,14.2-65.1,14.2l-4.8-1.2l-0.3,0.2l21.3,4.5c0,0,8.1,4.8,29.5,0c0,0,17.7-5.5,27.6-5.2
			C196,201,192.8,192.7,188.8,191.1z"/>
		
			<linearGradient id="SVGID_9_" gradientUnits="userSpaceOnUse" x1="146.1635" y1="113.7036" x2="146.1635" y2="72.1766" gradientTransform="matrix(1 0 0 -1 0 252)">
			<stop  offset="5.100000e-03" style="stop-color:#4C4C4C"/>
			<stop  offset="1" style="stop-color:#353535"/>
		</linearGradient>
		<path class="st31" d="M159.5,179.8c0,0-13.1-17.8-2.2-41.5l-10.1,2.3l-9,15.6l-5.3,23.6C132.8,179.8,145.9,176.9,159.5,179.8z"/>
		<path class="st32" d="M210.6,202c0,0,0.1-0.1,0.3-0.2c0.2-0.1,0.5-0.4,0.8-0.7c0.6-0.7,1.4-1.9,1.6-3.6c0.1-0.4,0.1-0.9,0.1-1.3
			c0-0.1,0-0.2,0-0.4l0-0.1c0,0,0,0,0-0.1l0-0.2c0-0.3-0.1-0.5-0.1-0.8c-0.1-0.5-0.3-1-0.4-1.5c-0.2-0.5-0.4-1.1-0.7-1.6
			c-1-2.2-2.5-4.5-4.1-7.1c-1.6-2.5-3.6-5.2-5.5-8.1c-0.5-0.8-0.9-1.5-1.3-2.5l-0.1-0.2l0-0.1c0,0,0,0.1,0,0l0,0
			c0-0.1-0.1-0.2-0.1-0.3c-0.1-0.1-0.1-0.3-0.3-0.4c-0.2-0.3-0.5-0.7-0.8-1c-1.2-1.4-2.4-2.7-3.7-4.1c-2.6-2.8-5.3-5.6-8-8.6
			c-1.3-1.5-2.7-3-3.9-4.6c-1.3-1.6-2.5-3.2-3.5-5c-1-1.8-2-3.7-2.3-5.8c0-0.3-0.1-0.5,0-0.8c0-0.3,0-0.5,0-0.8l0.1-1.5c0-1,0-2,0-3
			c0-4-0.1-7.9,0-11.7c0.1-3.8,0.3-7.5,0.8-11c0.4-3.5,1-6.7,1.7-9.7c0.7-3,1.4-5.7,2.2-8c0.2-0.6,0.4-1.2,0.6-1.7
			c0.2-0.5,0.4-1.1,0.6-1.6c0.4-1,0.7-1.9,1-2.8c0.7-1.6,1.3-2.9,1.6-3.8c0.4-0.9,0.6-1.3,0.6-1.3l0.1,0.1c0,0-0.2,0.5-0.5,1.4
			c-0.3,0.9-0.8,2.2-1.3,3.9c-0.3,0.8-0.5,1.8-0.9,2.8c-0.2,0.5-0.3,1-0.5,1.6c-0.1,0.6-0.3,1.1-0.4,1.7c-0.6,2.4-1.3,5.1-1.8,8
			c-0.3,1.5-0.6,3-0.8,4.6c-0.1,0.8-0.2,1.6-0.4,2.5c-0.1,0.8-0.2,1.7-0.3,2.5c-0.1,0.9-0.2,1.7-0.3,2.6c-0.1,0.9-0.2,1.8-0.2,2.7
			c-0.1,1.8-0.2,3.7-0.3,5.5c-0.2,3.8-0.2,7.7-0.2,11.7c0,1-0.1,2-0.1,3c-0.1,1-0.2,2-0.1,2.9c0.1,1.9,0.9,3.8,1.8,5.5
			c0.9,1.8,2.1,3.4,3.2,5c1.2,1.6,2.5,3.1,3.8,4.6c2.6,3,5.5,5.7,8.2,8.3c1.4,1.3,2.7,2.6,4,3.9c0.3,0.3,0.6,0.7,0.9,1.1
			c0.1,0.2,0.3,0.4,0.5,0.7c0.1,0.1,0.1,0.2,0.2,0.3l0,0c0-0.1,0,0.1,0,0.1l0,0.1l0.1,0.1c0.3,0.7,0.8,1.5,1.2,2.2
			c1.9,2.9,3.8,5.6,5.4,8.1c1.6,2.6,3,5,4,7.4c0.2,0.6,0.4,1.2,0.6,1.7c0.1,0.6,0.3,1.2,0.4,1.7c0,0.3,0,0.5,0.1,0.8l0,0.2l0,0.1
			l0,0.1c0,0.1,0,0.3,0,0.4c0,0.5-0.1,1-0.2,1.4c-0.4,1.8-1.3,3-2,3.7c-0.4,0.3-0.7,0.5-0.9,0.7c-0.2,0.1-0.3,0.2-0.3,0.2L210.6,202
			z"/>
		
			<linearGradient id="SVGID_10_" gradientUnits="userSpaceOnUse" x1="114.7225" y1="118.0486" x2="187.1125" y2="118.0486" gradientTransform="matrix(1 0 0 -1 0 252)">
			<stop  offset="1.900000e-02" style="stop-color:#4C4C4C"/>
			<stop  offset="0.887" style="stop-color:#605F60"/>
		</linearGradient>
		<path class="st33" d="M163.7,184.7c0,0-6.7-20.7-6.7-27.4c0-6.7-0.7-18,25.4-62.8l4.7-8.7l-3.3-4l-23.4,17.4
			c0,0-1.3,18.7-15.4,34.1c-14,15.4-14,27.6-17.4,31.2c-3.3,3.6-12.5,14.3-12.9,21.6C114.7,186.1,151.7,182,163.7,184.7z"/>
		<path class="st34" d="M187.2,85.9c0,0-0.2,0.4-0.5,1c-0.3,0.7-0.8,1.6-1.4,2.9c-1.2,2.5-3.1,6-5.3,10.2c-1.1,2.1-2.3,4.4-3.7,6.7
			c-1.3,2.4-2.8,4.8-4.3,7.4c-1.5,2.6-2.9,5.3-4.3,8.1c-0.3,0.7-0.7,1.4-1,2.1c-0.3,0.7-0.6,1.4-0.9,2.2c-0.6,1.5-1.1,2.9-1.7,4.4
			c-1.1,3-2.3,5.9-3.3,8.8c-1,2.9-1.7,5.9-2.1,8.7c-0.4,2.9-0.5,5.7-0.5,8.4c0.1,2.7,0.3,5.2,0.7,7.5c0.1,1.2,0.4,2.3,0.6,3.3
			c0.2,1.1,0.3,2.1,0.6,3c0.5,1.9,0.8,3.5,1.2,4.8c0.7,2.7,1.1,4.2,1.1,4.2l-0.1,0.1c0,0-0.6-1.5-1.6-4.1c-0.1-0.3-0.3-0.7-0.4-1
			c-0.1-0.4-0.2-0.7-0.4-1.1c-0.2-0.8-0.5-1.7-0.8-2.6c-0.3-0.9-0.5-1.9-0.8-3c-0.2-1.1-0.6-2.2-0.7-3.4c-0.2-1.2-0.5-2.4-0.6-3.7
			c-0.1-0.6-0.1-1.3-0.2-2c-0.1-0.7-0.1-1.3-0.1-2c0-0.7,0-1.4-0.1-2.1c0-0.7,0.1-1.4,0.1-2.2c0-1.5,0.2-2.9,0.5-4.4
			c0.5-3,1.3-6,2.4-9c0.6-1.5,1.2-2.9,1.8-4.4c0.7-1.4,1.3-2.9,2-4.3c1.3-2.9,2.6-5.8,4-8.6c1.4-2.8,2.7-5.6,4-8.3
			c1.3-2.7,2.5-5.3,3.8-7.7c1.3-2.4,2.5-4.7,3.7-6.7c2.4-4.1,4.4-7.5,5.9-9.9c0.8-1.2,1.3-2.1,1.7-2.7c0.4-0.6,0.6-0.9,0.6-0.9
			L187.2,85.9z"/>
		<path class="st35" d="M208.4,202.5c-0.8-0.6-1.7-1.2-2.5-1.7c-0.8-0.6-1.7-1.1-2.6-1.6l-2.6-1.6l-2.6-1.5l-2.7-1.4l-2.7-1.3
			c-0.9-0.4-1.8-0.8-2.8-1.2c-0.9-0.4-1.9-0.8-2.8-1.1c-0.9-0.4-1.9-0.8-2.8-1.1c-1-0.3-1.9-0.7-2.8-1c-1-0.3-1.9-0.6-2.9-0.9
			c-0.5-0.2-1-0.3-1.4-0.5l-1.5-0.4c-1-0.2-2-0.5-2.9-0.7l-3-0.6c-0.5-0.1-1-0.2-1.5-0.2l-1.5-0.1l-3-0.2l0,0h0
			c-1-0.1-2-0.2-3.1-0.3c-1-0.1-2-0.2-3.1-0.2c-2-0.1-4.1-0.2-6.1-0.2c-1,0-2,0-3.1,0c-1,0-2,0-3.1,0l-3.1,0l-3.1,0.1l-3.1,0.1
			c-1,0-2,0.1-3.1,0.2c-1,0.1-2,0.1-3,0.2l-3,0.3l-3,0.4l-1.5,0.2L121,186c-1,0.2-2,0.3-3,0.5l-2.9,0.7l0.2-0.1
			c-1.9,0.9-3.9,1.8-5.9,2.7c-2,0.9-3.9,1.8-5.9,2.6l-5.9,2.5c-2,0.8-4,1.7-6,2.4l-0.1-0.2c1.9-1.1,3.7-2.1,5.6-3.2l5.7-3.1
			c1.9-1,3.8-2,5.7-3c1.9-1,3.8-2,5.7-2.9l0.1-0.1l0.1,0l3-0.8c0.5-0.1,1-0.2,1.5-0.3l1.5-0.3l1.5-0.3l1.5-0.2
			c1-0.1,2.1-0.3,3.1-0.4l3.1-0.2c1-0.1,2.1-0.1,3.1-0.1c1,0,2.1-0.1,3.1-0.1c1,0,2.1,0,3.1,0c2.1,0.1,4.1,0.1,6.2,0.2
			c2.1,0.1,4.1,0.3,6.2,0.5c2.1,0.2,4.1,0.4,6.1,0.6l3.1,0.3l3.1,0.4l0,0l3.1,0.2l1.5,0.1c0.5,0,1,0.1,1.5,0.2l3.1,0.3
			c1,0.1,2,0.3,3.1,0.5l1.5,0.3c0.5,0.1,1,0.2,1.5,0.3c1,0.2,2,0.5,3,0.7c1,0.3,2,0.6,3,1c1,0.3,1.9,0.7,2.9,1.1
			c1,0.4,1.9,0.8,2.8,1.2c0.9,0.5,1.9,0.9,2.8,1.4l2.7,1.5c0.9,0.5,1.8,1.1,2.6,1.6c0.9,0.6,1.7,1.1,2.6,1.7
			c0.8,0.6,1.7,1.2,2.5,1.9c1.6,1.3,3.2,2.6,4.6,4.1L208.4,202.5z"/>
	</g>
</g>
<g id="Capa_3">
	<path class="st36" d="M-103.4,105.5c0,0-6.6-20.6-6.6-27.3s-0.7-17.9,25.3-62.5l4.7-8.6l-3.3-4l-23.3,17.3c0,0-1.3,18.6-15.3,33.9
		s-14,27.4-17.3,31s-12.4,14.2-12.9,21.5C-152.1,106.9-115.3,102.8-103.4,105.5z"/>
	<g>
		<path class="st37" d="M-58.1,122.3c0,0,4.7-0.8,4.7-6.9c0-6.2-11.1-19-12-22.1s-23.5-21-22.6-30.9s-2.2-30.3,8.6-56l-18.4,16.4
			l-17.6,44.3l-0.9,28.8l9.5,14.6L-58.1,122.3z"/>
		<path class="st38" d="M-88.1,62.5c0.1-1.5,0.2-3.2,0.2-5.2c-8.8,23.3,11.2,43.5,13.5,49c1.2,2.9,1.2,8.1,0.8,12.4l15.4,3.7
			c0,0,4.7-0.8,4.7-6.9s-11.1-19-12-22.1C-66.3,90.2-88.9,72.4-88.1,62.5z"/>
		<path class="st39" d="M-174.5,117.2c0,0,22.7,4.8,40.6,8.8c17.9,4,18.6-1.8,61.8-3.6c0,0,9.3-1.8,14-0.1c0,0-18.6-16.9-44.5-17.6
			c0,0-29.5-3.9-48.7,1.3L-174.5,117.2z"/>
		<path class="st40" d="M-152.2,122c0,0,18.8-18.1,64.7-14.2c0,0-51.3-14.2-83.1,7.5l-2.4,1.6L-152.2,122z"/>
		<path class="st41" d="M-77.7,111c-4-1.6-25.7-8-34.4-7c-0.2,0-0.4,0.1-0.6,0.1c14.1,1.2,24.3,4,24.3,4
			c-45.9-4-64.7,14.2-64.7,14.2l-4.8-1.2l-0.3,0.2l21.2,4.5c0,0,8.1,4.8,29.3,0c0,0,17.7-5.5,27.4-5.2S-73.7,112.7-77.7,111z"/>
		<path class="st42" d="M-82.7,2.4L-106,19.7c0,0-1.3,18.6-15.3,33.9c-4.6,5.1-7.7,9.8-9.9,14c13.2-17.6,27-28.3,37.1-34.5
			c2.8-5.3,6.1-11.3,10-18.1l4.7-8.6L-82.7,2.4z"/>
		<path class="st43" d="M-105.7,20.1c0,0,0,0.4,0,1.1s-0.1,1.8-0.3,3.1c-0.4,2.7-1.2,6.5-2.8,10.9c-0.8,2.2-1.8,4.5-3.1,6.9
			c-0.7,1.2-1.4,2.4-2.1,3.5c-0.4,0.6-0.8,1.2-1.2,1.7c-0.2,0.3-0.4,0.6-0.6,0.9l-0.7,0.9c-0.5,0.6-0.9,1.1-1.4,1.7
			c-0.5,0.6-1,1.1-1.5,1.7c-1,1.1-2,2.3-3,3.4c-1,1.1-1.9,2.4-2.8,3.6c-0.4,0.6-0.9,1.3-1.3,1.9l-0.6,1l-0.6,1
			c-1.6,2.6-3,5.4-4.1,8.2c-1.2,2.8-2.2,5.6-3.1,8.3c-0.5,1.4-0.9,2.8-1.7,4.1c-0.2,0.3-0.4,0.7-0.6,1l-0.4,0.5
			c-0.1,0.1-0.2,0.3-0.3,0.4c-0.5,0.5-0.9,1-1.3,1.5c-1.7,2-3.3,3.9-4.7,5.7s-2.6,3.6-3.6,5.1c-1,1.6-1.7,3-2.3,4.3
			c-0.5,1.2-0.8,2.2-1,2.9c-0.1,0.7-0.2,1.1-0.2,1.1h-0.2c0,0,0-0.4,0.1-1.1c0.1-0.7,0.3-1.8,0.7-3.1c0.8-2.6,2.6-6.2,5.3-10
			c1.3-1.9,2.9-3.9,4.6-6c0.4-0.5,0.9-1,1.3-1.5c0.1-0.1,0.2-0.3,0.3-0.4l0.3-0.3c0.2-0.2,0.3-0.5,0.5-0.8c0.6-1.1,1.1-2.5,1.6-3.8
			c1-2.7,2-5.6,3.3-8.4c0.3-0.7,0.7-1.4,1-2.1c0.4-0.7,0.7-1.4,1.1-2c0.8-1.3,1.6-2.7,2.5-3.9l0.7-1l0.7-0.9l1.4-1.9
			c0.5-0.6,1-1.2,1.5-1.8s1-1.2,1.5-1.8c1-1.1,2-2.3,2.9-3.5c0.5-0.6,1-1.1,1.4-1.7c0.4-0.6,0.8-1.2,1.2-1.8l0.6-0.9
			c0.2-0.3,0.4-0.6,0.5-0.9c0.4-0.6,0.7-1.2,1.1-1.8c0.4-0.6,0.6-1.2,1-1.8c0.3-0.6,0.7-1.2,0.9-1.8c0.6-1.2,1.2-2.3,1.7-3.4
			c0.3-0.6,0.5-1.1,0.8-1.7c0.2-0.5,0.4-1.1,0.7-1.6c0.9-2.1,1.5-4.1,2.1-5.9c0.3-0.9,0.5-1.7,0.7-2.5s0.4-1.5,0.6-2.2
			c0.3-1.3,0.5-2.3,0.7-3.1c0.1-0.7,0.2-1.1,0.2-1.1L-105.7,20.1z"/>
		<path class="st44" d="M-58.2,122.4c-0.8-0.6-1.7-1.2-2.5-1.7c-0.8-0.6-1.7-1.1-2.6-1.6l-2.6-1.6l-2.6-1.5l-2.7-1.4l-2.7-1.3
			c-0.9-0.4-1.8-0.8-2.7-1.2s-1.8-0.8-2.8-1.1c-0.9-0.4-1.8-0.8-2.8-1.1c-0.9-0.3-1.9-0.7-2.8-1c-1-0.3-1.9-0.6-2.9-0.9
			c-0.5-0.2-1-0.3-1.4-0.5l-1.5-0.4c-1-0.2-1.9-0.5-2.9-0.7l-3-0.6c-0.5-0.1-1-0.2-1.5-0.2l-1.5-0.1l-3-0.2l0,0l0,0
			c-1-0.1-2-0.2-3-0.3s-2-0.2-3-0.2c-2-0.1-4.1-0.2-6.1-0.2c-1,0-2,0-3.1,0c-1,0-2,0-3.1,0h-3l-3,0.1l-3,0.1c-1,0-2,0.1-3,0.2
			c-1,0.1-2,0.1-3,0.2l-3,0.3l-3,0.4l-1.5,0.2l-1.5,0.3c-1,0.2-2,0.3-3,0.5l-2.9,0.6l0.2-0.1c-1.9,0.9-3.9,1.8-5.8,2.7
			c-2,0.9-3.9,1.8-5.9,2.6l-5.9,2.5c-2,0.8-4,1.6-6,2.4l-0.1-0.2c1.8-1.1,3.7-2.1,5.6-3.2l5.6-3.1c1.9-1,3.8-2,5.7-3
			c1.9-1,3.8-2,5.7-2.9l0.1-0.1h0.1l3-0.8c0.5-0.1,1-0.2,1.5-0.3l1.5-0.3l1.5-0.3l1.5-0.2c1-0.1,2.1-0.3,3.1-0.4l3.1-0.2
			c1-0.1,2.1-0.1,3.1-0.1s2.1-0.1,3.1-0.1s2.1,0,3.1,0c2.1,0.1,4.1,0.1,6.2,0.2c2,0.1,4.1,0.3,6.1,0.5s4.1,0.4,6.1,0.6l3.1,0.3
			l3.1,0.4l0,0l3.1,0.2l1.5,0.1c0.5,0,1,0.1,1.5,0.2l3.1,0.3c1,0.1,2,0.3,3,0.5l1.5,0.3c0.5,0.1,1,0.2,1.5,0.3c1,0.2,2,0.5,3,0.7
			c1,0.3,2,0.6,2.9,0.9c1,0.3,1.9,0.7,2.9,1.1c1,0.4,1.9,0.8,2.8,1.2c0.9,0.5,1.9,0.9,2.8,1.4l2.7,1.5c0.9,0.5,1.8,1.1,2.6,1.6
			c0.9,0.6,1.7,1.1,2.6,1.7c0.8,0.6,1.7,1.2,2.5,1.8c1.6,1.3,3.2,2.6,4.6,4.1L-58.2,122.4z"/>
		<path class="st42" d="M-56.6,121.9c0,0,0.1-0.1,0.3-0.2c0.2-0.1,0.5-0.4,0.8-0.7c0.6-0.7,1.4-1.9,1.6-3.5c0.1-0.4,0.1-0.9,0.1-1.3
			c0-0.1,0-0.2,0-0.4v-0.1c0,0,0,0,0-0.1v-0.2c0-0.3-0.1-0.5-0.1-0.8c-0.1-0.5-0.3-1-0.4-1.5c-0.2-0.5-0.4-1.1-0.7-1.6
			c-1-2.2-2.5-4.5-4.1-7s-3.6-5.1-5.5-8.1c-0.5-0.8-0.9-1.5-1.3-2.5l-0.1-0.2v-0.1c0,0,0,0.1,0,0l0,0c0-0.1-0.1-0.2-0.1-0.3
			c-0.1-0.1-0.1-0.3-0.3-0.4c-0.2-0.3-0.5-0.7-0.8-1c-1.2-1.4-2.4-2.7-3.7-4.1c-2.6-2.8-5.3-5.6-7.9-8.5c-1.3-1.5-2.7-3-3.9-4.6
			c-1.3-1.6-2.5-3.2-3.5-5s-2-3.6-2.2-5.8c0-0.3-0.1-0.5,0-0.8c0-0.3,0-0.5,0-0.8l0.1-1.5c0-1,0-2,0-2.9c0-3.9-0.1-7.9,0-11.7
			s0.3-7.5,0.8-10.9c0.4-3.5,1-6.7,1.7-9.7s1.4-5.7,2.2-8c0.2-0.6,0.4-1.2,0.5-1.7c0.2-0.5,0.4-1.1,0.6-1.6c0.4-1,0.7-1.9,1-2.7
			c0.7-1.6,1.3-2.9,1.6-3.8c0.4-0.9,0.6-1.3,0.6-1.3l0.1,0.1c0,0-0.2,0.5-0.5,1.4s-0.8,2.2-1.3,3.9c-0.3,0.8-0.5,1.8-0.8,2.8
			c-0.2,0.5-0.3,1-0.5,1.6c-0.1,0.6-0.3,1.1-0.4,1.7c-0.6,2.4-1.3,5-1.8,8c-0.3,1.5-0.6,3-0.8,4.6c-0.1,0.8-0.2,1.6-0.4,2.4
			c-0.1,0.8-0.2,1.7-0.3,2.5c-0.1,0.9-0.2,1.7-0.3,2.6s-0.2,1.8-0.2,2.7c-0.1,1.8-0.2,3.6-0.3,5.5C-87,50.1-87,53.9-87,57.9
			c0,1-0.1,2-0.1,3c-0.1,1-0.2,2-0.1,2.9c0.1,1.9,0.9,3.7,1.8,5.5c0.9,1.8,2,3.4,3.2,5s2.5,3.1,3.8,4.6c2.6,3,5.4,5.7,8.2,8.3
			c1.4,1.3,2.7,2.6,4,3.9c0.3,0.3,0.6,0.7,0.9,1.1c0.1,0.2,0.3,0.4,0.5,0.7c0.1,0.1,0.1,0.2,0.2,0.3l0,0v0.1v0.1l0.1,0.1
			c0.3,0.7,0.8,1.4,1.2,2.1c1.9,2.8,3.8,5.5,5.4,8.1c1.6,2.6,3,5,3.9,7.3c0.2,0.6,0.4,1.2,0.6,1.7c0.1,0.6,0.3,1.2,0.4,1.7
			c0,0.3,0,0.5,0.1,0.8v0.2v0.1v0.1c0,0.1,0,0.3,0,0.4c0,0.5-0.1,1-0.2,1.4c-0.4,1.8-1.3,3-2,3.7c-0.4,0.3-0.7,0.5-0.9,0.7
			c-0.2,0.1-0.3,0.2-0.3,0.2L-56.6,121.9z"/>
	</g>
</g>
</svg>
