<?xml version="1.0" encoding="utf-8"?>
<!-- Generator: Adobe Illustrator 19.2.1, SVG Export Plug-In . SVG Version: 6.00 Build 0)  -->
<svg version="1.1" id="Capa_1" xmlns="http://www.w3.org/2000/svg" xmlns:xlink="http://www.w3.org/1999/xlink" x="0px" y="0px"
	 viewBox="0 0 596.1 606.9" style="enable-background:new 0 0 596.1 606.9;" xml:space="preserve">
<style type="text/css">
	.st0{opacity:0.45;fill:#FFFFFF;}
	.st1{fill:none;stroke:#FFFFFF;stroke-width:2;stroke-miterlimit:10;}
	.st2{fill:url(#SVGID_1_);}
	.st3{opacity:0.6;fill:#FFFFFF;}
	.st4{opacity:0.22;fill:#FFFFFF;}
	.st5{opacity:0.33;fill:url(#SVGID_2_);}
	.st6{fill:#FFFFFF;}
	.st7{opacity:0.33;fill:url(#SVGID_3_);}
	.st8{opacity:0.46;fill:url(#SVGID_4_);}
</style>
<polygon class="st0" points="596.1,388.1 191.8,262.4 0,480.7 404.3,604.9 "/>
<polygon class="st1" points="596.1,388.1 191.8,262.4 0,480.7 404.3,604.9 "/>
<polygon class="st1" points="596.1,369.6 191.8,243.9 0,462.1 404.3,586.3 "/>
<linearGradient id="SVGID_1_" gradientUnits="userSpaceOnUse" x1="9.094947e-13" y1="415.095" x2="596.1" y2="415.095">
	<stop  offset="0" style="stop-color:#F57C00"/>
	<stop  offset="0.999" style="stop-color:#FF4F24"/>
</linearGradient>
<polygon class="st2" points="596.1,369.6 191.8,243.9 0,462.1 404.3,586.3 "/>
<polygon class="st3" points="596.1,345.1 191.8,219.4 0,437.6 404.3,561.8 "/>
<polygon class="st1" points="596.1,345.1 191.8,219.4 0,437.6 404.3,561.8 "/>
<polygon class="st3" points="427.6,315 197.4,243.4 88.1,367.7 318.4,438.5 "/>
<polygon class="st3" points="427.6,219.8 197.4,148.2 88.1,272.5 318.4,343.2 "/>
<polygon class="st4" points="89,367.7 89,272.5 319.2,343.2 428.5,219.8 428.5,315 319.2,438.5 "/>
<polygon class="st1" points="427.6,219.8 197.4,148.2 88.1,272.5 318.4,343.2 "/>
<linearGradient id="SVGID_2_" gradientUnits="userSpaceOnUse" x1="32.5738" y1="446.1213" x2="298.05" y2="446.1213">
	<stop  offset="0" style="stop-color:#F57C00"/>
	<stop  offset="0.999" style="stop-color:#FF4F24"/>
</linearGradient>
<polygon class="st5" points="298,462.2 67.8,390.6 32.6,430.9 262.8,501.6 "/>
<polygon class="st3" points="579.9,363.2 447.4,321.4 338.2,445.7 470.6,486.6 "/>
<ellipse class="st6" cx="263.8" cy="227" rx="51.2" ry="28.3"/>
<linearGradient id="SVGID_3_" gradientUnits="userSpaceOnUse" x1="128.7066" y1="278.3869" x2="326.3204" y2="278.3869">
	<stop  offset="0" style="stop-color:#F57C00"/>
	<stop  offset="0.999" style="stop-color:#FF4F24"/>
</linearGradient>
<polygon class="st7" points="326.3,295.5 146.3,242 128.7,262.1 308.7,314.8 "/>
<linearGradient id="SVGID_4_" gradientUnits="userSpaceOnUse" x1="298.05" y1="560.821" x2="298.05" y2="5.4523">
	<stop  offset="0" style="stop-color:#FFFFFF"/>
	<stop  offset="0.1069" style="stop-color:#FFFFFF;stop-opacity:0.8931"/>
	<stop  offset="1" style="stop-color:#FFFFFF;stop-opacity:0"/>
</linearGradient>
<polygon class="st8" points="596.1,344.1 404.3,560.8 0,436.6 0,5.5 596.1,5.5 "/>
</svg>
