<?xml version="1.0" encoding="utf-8"?>
<!-- Generator: Adobe Illustrator 19.2.1, SVG Export Plug-In . SVG Version: 6.00 Build 0)  -->
<svg version="1.1" id="Layer_1" xmlns="http://www.w3.org/2000/svg" xmlns:xlink="http://www.w3.org/1999/xlink" x="0px" y="0px"
	 viewBox="0 0 512 512" style="enable-background:new 0 0 512 512;" xml:space="preserve">
<style type="text/css">
	.st0{fill:#F57C00;}
	.st1{fill:#FFFFFF;}
</style>
<circle class="st0" cx="255.8" cy="256.2" r="246.8"/>
<g>
	<g>
		<path class="st1" d="M375.2,245.6c5.1-5,6.9-12.3,4.7-19.1c-2.2-6.8-8-11.7-15-12.7l-61.8-9c-1.2-0.2-2.3-0.9-2.8-2l-27.7-56
			c-3.2-6.4-9.6-10.4-16.7-10.4c-7.1,0-13.6,4-16.7,10.4l-27.7,56c-0.5,1.1-1.6,1.9-2.8,2l-61.8,9c-7.1,1-12.8,5.9-15,12.7
			c-2.2,6.8-0.4,14.1,4.7,19.1l44.8,43.6c0.9,0.9,1.3,2.1,1.1,3.3l-10.6,61.6c-1.2,7,1.6,14,7.4,18.2c5.8,4.2,13.3,4.7,19.6,1.4
			l55.3-29.1c1.1-0.6,2.4-0.6,3.5,0l55.3,29.1c2.8,1.4,5.7,2.2,8.7,2.2c3.8,0,7.7-1.2,10.9-3.6c5.8-4.2,8.6-11.2,7.4-18.2
			l-10.6-61.6c-0.2-1.2,0.2-2.4,1.1-3.3L375.2,245.6z"/>
	</g>
</g>
</svg>
