<?xml version="1.0" encoding="utf-8"?>
<!-- Generator: Adobe Illustrator 19.2.1, SVG Export Plug-In . SVG Version: 6.00 Build 0)  -->
<svg version="1.1" id="Capa_1" xmlns="http://www.w3.org/2000/svg" xmlns:xlink="http://www.w3.org/1999/xlink" x="0px" y="0px"
	 viewBox="0 0 110 110.7" style="enable-background:new 0 0 110 110.7;" xml:space="preserve">
<style type="text/css">
	.st0{fill:#F57C00;}
	.st1{fill:url(#SVGID_1_);}
	.st2{fill:#FFFFFF;}
</style>
<path class="st0" d="M54.5,108.2C25.5,108.2,2,84.7,2,55.8C2,26.9,25.5,3.3,54.5,3.3c28.9,0,52.5,23.5,52.5,52.5
	C106.9,84.7,83.4,108.2,54.5,108.2z M54.5,3.8c-28.6,0-52,23.3-52,52s23.3,52,52,52s52-23.3,52-52S83.1,3.8,54.5,3.8z"/>
<linearGradient id="SVGID_1_" gradientUnits="userSpaceOnUse" x1="54.4562" y1="15.9665" x2="54.4562" y2="95.5855">
	<stop  offset="0" style="stop-color:#F57C00"/>
	<stop  offset="0.999" style="stop-color:#FF4F24"/>
</linearGradient>
<circle class="st1" cx="54.5" cy="55.8" r="39.8"/>
<g>
	<path id="XMLID_1_" class="st2" d="M59.9,72.8v1.5c0,1.2-0.9,2.2-2,2.4l-0.4,1.4c-0.2,0.7-0.9,1.3-1.6,1.3h-3.7
		c-0.8,0-1.4-0.5-1.6-1.3l-0.4-1.4c-1.1-0.2-2-1.2-2-2.4v-1.5c0-0.8,0.6-1.4,1.4-1.4h8.8C59.3,71.4,59.9,72,59.9,72.8z M66.7,52.7
		c0,3.4-1.3,6.5-3.5,8.8c-1.7,1.7-2.7,3.9-3.1,6.3c-0.2,1-1,1.8-2.1,1.8h-7.8c-1,0-1.9-0.7-2.1-1.8c-0.4-2.4-1.5-4.6-3.1-6.3
		c-2.2-2.2-3.5-5.3-3.5-8.6C41.4,45.8,47,40.1,54,40C61,40,66.7,45.7,66.7,52.7z M55.5,45c0-0.8-0.6-1.4-1.4-1.4
		c-5,0-9.1,4.1-9.1,9.1c0,0.8,0.6,1.4,1.4,1.4c0.8,0,1.4-0.6,1.4-1.4c0-3.5,2.8-6.3,6.3-6.3C54.8,46.4,55.5,45.8,55.5,45z
		 M54.1,35.9c0.8,0,1.4-0.6,1.4-1.4v-5c0-0.8-0.6-1.4-1.4-1.4c-0.8,0-1.4,0.6-1.4,1.4v5C52.6,35.3,53.3,35.9,54.1,35.9z M37.3,52.7
		c0-0.8-0.6-1.4-1.4-1.4h-5c-0.8,0-1.4,0.6-1.4,1.4c0,0.8,0.6,1.4,1.4,1.4h5C36.7,54.1,37.3,53.4,37.3,52.7z M77.2,51.2h-5
		c-0.8,0-1.4,0.6-1.4,1.4c0,0.8,0.6,1.4,1.4,1.4h5c0.8,0,1.4-0.6,1.4-1.4C78.6,51.9,78,51.2,77.2,51.2z M40.2,64.5L36.7,68
		c-0.6,0.6-0.6,1.5,0,2c0.3,0.3,0.6,0.4,1,0.4c0.4,0,0.7-0.1,1-0.4l3.5-3.5c0.6-0.6,0.6-1.5,0-2C41.7,63.9,40.8,63.9,40.2,64.5z
		 M66.9,41.2c0.4,0,0.7-0.1,1-0.4l3.5-3.5c0.6-0.6,0.6-1.5,0-2c-0.6-0.6-1.5-0.6-2,0l-3.5,3.5c-0.6,0.6-0.6,1.5,0,2
		C66.2,41.1,66.5,41.2,66.9,41.2z M40.2,40.8c0.3,0.3,0.6,0.4,1,0.4s0.7-0.1,1-0.4c0.6-0.6,0.6-1.5,0-2l-3.5-3.5
		c-0.6-0.6-1.5-0.6-2,0c-0.6,0.6-0.6,1.5,0,2L40.2,40.8z M67.9,64.5c-0.6-0.6-1.5-0.6-2,0c-0.6,0.6-0.6,1.5,0,2l3.5,3.5
		c0.3,0.3,0.6,0.4,1,0.4c0.4,0,0.7-0.1,1-0.4c0.6-0.6,0.6-1.5,0-2L67.9,64.5z"/>
</g>
</svg>
