<?xml version="1.0" encoding="utf-8"?>
<!-- Generator: Adobe Illustrator 19.2.1, SVG Export Plug-In . SVG Version: 6.00 Build 0)  -->
<svg version="1.1" id="Capa_1" xmlns="http://www.w3.org/2000/svg" xmlns:xlink="http://www.w3.org/1999/xlink" x="0px" y="0px"
	 viewBox="0 0 110 110.7" style="enable-background:new 0 0 110 110.7;" xml:space="preserve">
<style type="text/css">
	.st0{fill:#F57C00;}
	.st1{fill:url(#SVGID_1_);}
	.st2{fill:#FFFFFF;}
</style>
<path class="st0" d="M55,107.8c-28.9,0-52.5-23.5-52.5-52.5C2.5,26.4,26.1,2.9,55,2.9s52.5,23.5,52.5,52.5
	C107.5,84.3,83.9,107.8,55,107.8z M55,3.4c-28.6,0-52,23.3-52,52s23.3,52,52,52s52-23.3,52-52S83.6,3.4,55,3.4z"/>
<linearGradient id="SVGID_1_" gradientUnits="userSpaceOnUse" x1="54.9999" y1="15.5238" x2="54.9999" y2="95.1428">
	<stop  offset="0" style="stop-color:#F57C00"/>
	<stop  offset="0.999" style="stop-color:#FF4F24"/>
</linearGradient>
<circle class="st1" cx="55" cy="55.3" r="39.8"/>
<g>
	<g>
		<path class="st2" d="M57.9,49.7c-0.5-0.1-0.9-0.2-1.4-0.2c-2.9,0-5.3,2.4-5.3,5.3c0,2.9,2.4,5.3,5.3,5.3s5.3-2.4,5.3-5.3
			c0-0.5-0.1-1-0.2-1.4l14.6-14.6l2.4,0.3l7.4-7.4l-5.6-0.7l-0.7-5.6l-7.4,7.4l0.3,2.4L57.9,49.7z"/>
		<path class="st2" d="M57.1,44.7l4.3-4.3c-5.3-1.8-11.4-0.6-15.7,3.7c-5.9,5.9-5.9,15.6,0,21.5c5.9,5.9,15.6,5.9,21.5,0
			c4.2-4.2,5.5-10.4,3.7-15.7l-4.3,4.3c0.2,2.8-0.8,5.6-2.9,7.7c-3.9,3.9-10.4,3.9-14.3,0c-3.9-3.9-3.9-10.4,0-14.3
			C51.5,45.5,54.3,44.6,57.1,44.7z"/>
		<path class="st2" d="M74.7,46.2c3.6,7.5,2.2,16.7-3.9,22.8c-7.9,7.9-20.6,7.9-28.4,0s-7.9-20.6,0-28.4c6.2-6.2,15.4-7.5,22.8-3.9
			l4.1-4.1c-9.8-5.6-22.6-4.3-30.9,4.1c-10,10-10,26.3,0,36.3c10,10,26.3,10,36.3,0c8.4-8.4,9.8-21.1,4.1-30.9L74.7,46.2z"/>
	</g>
</g>
</svg>
