<?xml version="1.0" encoding="utf-8"?>
<!-- Generator: Adobe Illustrator 19.2.1, SVG Export Plug-In . SVG Version: 6.00 Build 0)  -->
<svg version="1.1" id="Capa_1" xmlns="http://www.w3.org/2000/svg" xmlns:xlink="http://www.w3.org/1999/xlink" x="0px" y="0px"
	 viewBox="0 0 110 110.7" style="enable-background:new 0 0 110 110.7;" xml:space="preserve">
<style type="text/css">
	.st0{fill:#F57C00;}
	.st1{fill:url(#SVGID_1_);}
	.st2{fill:#FFFFFF;}
</style>
<path class="st0" d="M55,106.8c-28.9,0-52.5-23.5-52.5-52.5C2.5,25.4,26.1,1.9,55,1.9s52.5,23.5,52.5,52.5
	C107.5,83.3,83.9,106.8,55,106.8z M55,2.4c-28.6,0-52,23.3-52,52s23.3,52,52,52s52-23.3,52-52S83.6,2.4,55,2.4z"/>
<linearGradient id="SVGID_1_" gradientUnits="userSpaceOnUse" x1="54.9999" y1="14.5315" x2="54.9999" y2="94.1505">
	<stop  offset="0" style="stop-color:#F57C00"/>
	<stop  offset="0.999" style="stop-color:#FF4F24"/>
</linearGradient>
<circle class="st1" cx="55" cy="54.3" r="39.8"/>
<path class="st2" d="M71.8,43.6c-0.1,0-0.2,0-0.3,0c0-0.1,0-0.2,0-0.3c0-7.7-6.3-14-14-14c-2.9,0-5.6,0.9-8,2.5
	c-2,1.4-3.6,3.3-4.7,5.5c-0.4-0.1-0.9-0.1-1.3-0.1c-3.2,0-5.9,2.1-6.7,5.1c-0.2,0-0.3,0-0.5,0c-4.9,0-8.9,4-8.9,8.9
	c0,0.8,0.1,1.6,0.3,2.4c0.5,2.5,2.8,4.2,5.3,4.2h7.2v6.8h-2.2c-0.5-1.6-2-2.8-3.7-2.8c-2.1,0-3.9,1.7-3.9,3.9c0,2.1,1.7,3.9,3.9,3.9
	c1.8,0,3.2-1.2,3.7-2.8h3.3c0.6,0,1.1-0.5,1.1-1.1v-7.9h5.5V72c-1.6,0.5-2.8,2-2.8,3.7c0,2.1,1.7,3.9,3.9,3.9c2.1,0,3.9-1.7,3.9-3.9
	c0-1.8-1.2-3.2-2.8-3.7V57.9H58V72c-1.6,0.5-2.8,2-2.8,3.7c0,2.1,1.7,3.9,3.9,3.9c2.1,0,3.9-1.7,3.9-3.9c0-1.8-1.2-3.2-2.8-3.7V57.9
	h5.5v7.9c0,0.6,0.5,1.1,1.1,1.1h3.3c0.5,1.6,2,2.8,3.7,2.8c2.1,0,3.9-1.7,3.9-3.9c0-2.1-1.7-3.9-3.9-3.9c-1.8,0-3.2,1.2-3.7,2.8H68
	v-6.8h7.3c3,0,5.4-2.4,5.4-5.3v0C80.7,47.6,76.7,43.6,71.8,43.6z M36.4,49c-1.2,0-2.2,1-2.2,2.2c0,0.2,0,0.6,0.1,0.9
	c0.1,0.6-0.3,1.2-0.9,1.3c-0.1,0-0.1,0-0.2,0c-0.5,0-1-0.4-1.1-0.9c-0.1-0.5-0.1-0.9-0.1-1.3c0-2.4,2-4.4,4.4-4.4
	c0.6,0,1.1,0.5,1.1,1.1C37.5,48.5,37.1,49,36.4,49z M34.4,67.4c-0.9,0-1.7-0.7-1.7-1.7s0.7-1.7,1.7-1.7s1.7,0.7,1.7,1.7
	S35.3,67.4,34.4,67.4z M50.8,75.7c0,0.9-0.7,1.7-1.7,1.7c-0.9,0-1.7-0.7-1.7-1.7s0.7-1.7,1.7-1.7C50.1,74,50.8,74.8,50.8,75.7z
	 M60.8,75.7c0,0.9-0.7,1.7-1.7,1.7s-1.7-0.7-1.7-1.7s0.7-1.7,1.7-1.7S60.8,74.8,60.8,75.7z M66,44.4c-0.6,0-1.1-0.5-1.1-1.1
	c0-4-3.3-7.3-7.3-7.3c-3,0-5.8,1.9-6.8,4.7c-0.2,0.6-0.9,0.9-1.4,0.6c-0.6-0.2-0.9-0.9-0.6-1.4c1.4-3.7,5-6.1,8.9-6.1
	c5.3,0,9.5,4.3,9.5,9.5C67.1,44,66.7,44.4,66,44.4z M73.9,64.1c0.9,0,1.7,0.7,1.7,1.7s-0.7,1.7-1.7,1.7s-1.7-0.7-1.7-1.7
	S73,64.1,73.9,64.1z M75.2,53.4C75.2,53.4,75.2,53.4,75.2,53.4c-0.6,0-1.1-0.5-1.2-1.1c0-1.2-1-2.1-2.2-2.1c-0.6,0-1.1-0.5-1.1-1.1
	c0-0.6,0.5-1.1,1.1-1.1c2.4,0,4.3,1.9,4.4,4.2C76.3,52.9,75.8,53.4,75.2,53.4z"/>
</svg>
