<?xml version="1.0" encoding="utf-8"?>
<!-- Generator: Adobe Illustrator 19.2.1, SVG Export Plug-In . SVG Version: 6.00 Build 0)  -->
<svg version="1.1" id="Capa_1" xmlns="http://www.w3.org/2000/svg" xmlns:xlink="http://www.w3.org/1999/xlink" x="0px" y="0px"
	 viewBox="0 0 71 75" style="enable-background:new 0 0 71 75;" xml:space="preserve">
<style type="text/css">
	.st0{fill:#FFFFFF;}
	.st1{opacity:0.35;fill:#FFFFFF;}
</style>
<path class="st0" d="M67.6,36.5c-0.3-0.5-0.9-0.8-1.4-0.9c-3,0-28.6-1-28.6-30.8c0-0.9-0.8-1.7-1.7-1.7s-1.7,0.8-1.7,1.7
	c0,29.7-25.6,30.8-28.5,30.8c-0.4,0-0.8,0.1-1,0.4c-0.3,0.1-0.4,0.4-0.5,0.5c-0.3,0.5-0.3,1.2,0,1.7c0.3,0.5,0.9,0.9,1.6,0.9
	c0,0,0,0,0.1,0c3,0,28.5,1,28.5,30.8c0,0.9,0.8,1.7,1.7,1.7s1.7-0.8,1.7-1.7c0-29.6,25.5-30.8,28.5-30.8c0.6,0,1.2-0.4,1.6-0.9
	C68,37.7,68,37,67.6,36.5z M35.9,57.2c-3.8-12.3-12.9-17.6-20.2-19.9c7.2-2.3,16.4-7.6,20.2-19.9C39.6,29.7,48.8,35,56.1,37.3
	C48.8,39.6,39.6,44.9,35.9,57.2z"/>
<path class="st1" d="M35.9,57.3C32.1,45,22.9,39.7,15.7,37.3c7.2-2.3,16.4-7.6,20.2-19.9C39.6,29.7,48.8,35,56.1,37.3
	C48.8,39.7,39.6,45,35.9,57.3z"/>
</svg>
