<?xml version="1.0" encoding="utf-8"?>
<!-- Generator: Adobe Illustrator 19.2.1, SVG Export Plug-In . SVG Version: 6.00 Build 0)  -->
<svg version="1.1" id="Capa_1" xmlns="http://www.w3.org/2000/svg" xmlns:xlink="http://www.w3.org/1999/xlink" x="0px" y="0px"
	 viewBox="0 0 59 64.3" style="enable-background:new 0 0 59 64.3;" xml:space="preserve">
<style type="text/css">
	.st0{fill:#FFFFFF;}
	.st1{opacity:0.24;fill:#FFFFFF;}
</style>
<path class="st0" d="M29.1,48.5c-3.1-10-10.6-14.4-16.5-16.3C18.6,30.3,26.1,26,29.1,16c3.1,10,10.6,14.4,16.5,16.3
	C39.7,34.1,32.2,38.5,29.1,48.5z"/>
<path class="st1" d="M54.9,31.5c-0.2-0.4-0.7-0.6-1.2-0.7c-2.4,0-23.3-0.8-23.3-25.1c0-0.7-0.6-1.4-1.4-1.4s-1.4,0.6-1.4,1.4
	C27.7,30,6.8,30.8,4.4,30.8c-0.3,0-0.6,0.1-0.8,0.3c-0.2,0.1-0.3,0.3-0.4,0.4c-0.2,0.4-0.2,1,0,1.4c0.2,0.4,0.7,0.7,1.3,0.7
	c0,0,0,0,0.1,0c2.4,0,23.2,0.8,23.2,25.1c0,0.7,0.6,1.4,1.4,1.4s1.4-0.6,1.4-1.4c0-24.2,20.8-25.1,23.2-25.1c0.5,0,1-0.3,1.3-0.7
	C55.2,32.5,55.2,32,54.9,31.5z M29,48.4c-3.1-10-10.6-14.4-16.5-16.3C18.5,30.3,26,25.9,29,15.9c3.1,10,10.6,14.4,16.5,16.3
	C39.6,34.1,32.1,38.4,29,48.4z"/>
</svg>
